<svg xmlns="http://www.w3.org/2000/svg"
            width="3182.0" height="3602.0"
            viewBox="-147.0 -3455.0 3182.0 3602.0">
            
        <defs>
          <marker id="arrowhead" markerWidth="20" markerHeight="30" 
                  refX="10" refY="3.5" orient="auto" markerUnits="strokeWidth">
            <path d="M0,0 L0,7 L10,3.5 z" fill="black" />
          </marker>

          <marker id="arrowhead_reversed" markerWidth="20" markerHeight="30" 
                  refX="0" refY="3.5" orient="auto" markerUnits="strokeWidth">
            <path d="M10,0 L10,7 L0,3.5 z" fill="black" />
          </marker>
        </defs>
        
        <defs>
        <style type="text/css">
          .l70d20 { fill: #1f77b4; fill-opacity: 0.7; }
          .l69d20 { fill: #d62728; fill-opacity: 0.7; }
          .l67d20 { fill: #56423e; fill-opacity: 0.7; }
          .l68d20 { fill: #bea6a1; fill-opacity: 0.7; }
          .l68d44 { fill: #0077ff;}
          .l67d44 { fill: #e09a8e;}
          .l69d44 { fill: #70b512;}
          
          .l50d0 { fill: #1f77b4; fill-opacity: 0.7; } /* Metal 4 in IHP */
          .l49d0{ fill: #70b512;}                      /* Via 3 in IHP */
          .l30d0 { fill: #d62728; fill-opacity: 0.7; } /* Metal 3 in IHP */
          .l29d0 { fill: #e39024;}                     /* Via 2 in IHP */
          .l10d0 { fill: #bea6a1; fill-opacity: 0.7; } /* Metal 2 in IHP */
          .l19d0 { fill: #e09a8e;}                     /* Via 1 in IHP */
          .l8d0 { fill: #56423e; fill-opacity: 0.7; }  /* Metal 1 in IHP */
        
          
          /* Not dealt with */
          .l64d20,
          .l65d20,
          .l65d44,
          .l66d13,
          .l66d20,
          .l66d44,
          .l67d16,
          .l68d16,
          .l69d16,
          .l86d20,
          .l93d44,
          .l94d20,
          .l95d20,
          .l70d5
          .l8d2,
          .l8d25,
          .l30d2,
          .l50d25,
          .l10d2,
          .l30d25,
          .l30d2,
          .l50d2,
          .l14d0
          .l235d4 {
            fill: #000000;
            fill-opacity: 0.0;
          }
          
          .l998t0 { fill: #000000; font-size: 700px; }
          .l997t0 { fill: #5C4033; font-size: 700px; }
          .l999d0 { stroke: #000000; stroke-width: 50; fill: #000000; fill-opacity: 0.2; }
        </style>
        </defs>
        
            <rect x="-147.0" y="-3455.0" width="3182.0" height="3602.0" fill="#ffffff" />
            <g transform="scale(0.1)">
              <path d="M 10635,-8965 L 10635,-9115 L 12485,-9115 L 12485,-8965 Z" class="l93d44" /> <path d="M 16395,-8965 L 16395,-9115 L 18245,-9115 L 18245,-8965 Z" class="l93d44" /> <path d="M -70,-33080 L -70,-33150 L 570,-33150 L 570,-33080 Z" class="l67d20" /> <path d="M 28310,-33080 L 28310,-33150 L 28950,-33150 L 28950,-33080 Z" class="l67d20" /> <path d="M -70,-32580 L -70,-33080 L 28950,-33080 L 28950,-32580 Z" class="l67d20" /> <path d="M -70,-32510 L -70,-32580 L 570,-32580 L 570,-32510 Z" class="l67d20" /> <path d="M 28310,-32510 L 28310,-32580 L 28950,-32580 L 28950,-32510 Z" class="l67d20" /> <path d="M 930,-32080 L 930,-32150 L 1570,-32150 L 1570,-32080 Z" class="l67d20" /> <path d="M 27310,-32080 L 27310,-32150 L 27950,-32150 L 27950,-32080 Z" class="l67d20" /> <path d="M 930,-31580 L 930,-32080 L 27950,-32080 L 27950,-31580 Z" class="l67d20" /> <path d="M 930,-31510 L 930,-31580 L 1570,-31580 L 1570,-31510 Z" class="l67d20" /> <path d="M 27310,-31510 L 27310,-31580 L 27950,-31580 L 27950,-31510 Z" class="l67d20" /> <path d="M -70,-29720 L -70,-29790 L 570,-29790 L 570,-29720 Z" class="l67d20" /> <path d="M 28310,-29720 L 28310,-29790 L 28950,-29790 L 28950,-29720 Z" class="l67d20" /> <path d="M -70,-28760 L -70,-29720 L 28950,-29720 L 28950,-28760 Z" class="l67d20" /> <path d="M -70,-28690 L -70,-28760 L 570,-28760 L 570,-28690 Z" class="l67d20" /> <path d="M 28310,-28690 L 28310,-28760 L 28950,-28760 L 28950,-28690 Z" class="l67d20" /> <path d="M 2440,-27040 L 2440,-27440 L 5320,-27440 L 5320,-27040 Z" class="l67d20" /> <path d="M 8200,-27040 L 8200,-27440 L 11080,-27440 L 11080,-27040 Z" class="l67d20" /> <path d="M 13960,-27040 L 13960,-27440 L 16840,-27440 L 16840,-27040 Z" class="l67d20" /> <path d="M 19720,-27040 L 19720,-27440 L 22600,-27440 L 22600,-27040 Z" class="l67d20" /> <path d="M 6280,-25840 L 6280,-26240 L 7880,-26240 L 7880,-25840 Z" class="l67d20" /> <path d="M 8200,-23040 L 8200,-23440 L 11080,-23440 L 11080,-23040 Z" class="l67d20" /> <path d="M 13960,-23040 L 13960,-23440 L 16840,-23440 L 16840,-23040 Z" class="l67d20" /> <path d="M 17800,-21840 L 17800,-22240 L 19400,-22240 L 19400,-21840 Z" class="l67d20" /> <path d="M -70,-19320 L -70,-19390 L 570,-19390 L 570,-19320 Z" class="l67d20" /> <path d="M 28310,-19320 L 28310,-19390 L 28950,-19390 L 28950,-19320 Z" class="l67d20" /> <path d="M -70,-18360 L -70,-19320 L 28950,-19320 L 28950,-18360 Z" class="l67d20" /> <path d="M -70,-18290 L -70,-18360 L 570,-18360 L 570,-18290 Z" class="l67d20" /> <path d="M 28310,-18290 L 28310,-18360 L 28950,-18360 L 28950,-18290 Z" class="l67d20" /> <path d="M 930,-14720 L 930,-14790 L 1570,-14790 L 1570,-14720 Z" class="l67d20" /> <path d="M 27310,-14720 L 27310,-14790 L 27950,-14790 L 27950,-14720 Z" class="l67d20" /> <path d="M 930,-13760 L 930,-14720 L 27950,-14720 L 27950,-13760 Z" class="l67d20" /> <path d="M 930,-13690 L 930,-13760 L 1570,-13760 L 1570,-13690 Z" class="l67d20" /> <path d="M 27310,-13690 L 27310,-13760 L 27950,-13760 L 27950,-13690 Z" class="l67d20" /> <path d="M 2440,-12040 L 2440,-12440 L 5320,-12440 L 5320,-12040 Z" class="l67d20" /> <path d="M 19720,-12040 L 19720,-12440 L 22600,-12440 L 22600,-12040 Z" class="l67d20" /> <path d="M 6280,-10840 L 6280,-11240 L 7880,-11240 L 7880,-10840 Z" class="l67d20" /> <path d="M 8200,-8040 L 8200,-8440 L 11080,-8440 L 11080,-8040 Z" class="l67d20" /> <path d="M 13960,-8040 L 13960,-8440 L 16840,-8440 L 16840,-8040 Z" class="l67d20" /> <path d="M 12040,-6840 L 12040,-7240 L 13640,-7240 L 13640,-6840 Z" class="l67d20" /> <path d="M 930,-4320 L 930,-4390 L 1570,-4390 L 1570,-4320 Z" class="l67d20" /> <path d="M 27310,-4320 L 27310,-4390 L 27950,-4390 L 27950,-4320 Z" class="l67d20" /> <path d="M 930,-3360 L 930,-4320 L 27950,-4320 L 27950,-3360 Z" class="l67d20" /> <path d="M 930,-3290 L 930,-3360 L 1570,-3360 L 1570,-3290 Z" class="l67d20" /> <path d="M 27310,-3290 L 27310,-3360 L 27950,-3360 L 27950,-3290 Z" class="l67d20" /> <path d="M 930,-1500 L 930,-1570 L 1570,-1570 L 1570,-1500 Z" class="l67d20" /> <path d="M 27310,-1500 L 27310,-1570 L 27950,-1570 L 27950,-1500 Z" class="l67d20" /> <path d="M 930,-1000 L 930,-1500 L 27950,-1500 L 27950,-1000 Z" class="l67d20" /> <path d="M 930,-930 L 930,-1000 L 1570,-1000 L 1570,-930 Z" class="l67d20" /> <path d="M 27310,-930 L 27310,-1000 L 27950,-1000 L 27950,-930 Z" class="l67d20" /> <path d="M -70,-500 L -70,-570 L 570,-570 L 570,-500 Z" class="l67d20" /> <path d="M 28310,-500 L 28310,-570 L 28950,-570 L 28950,-500 Z" class="l67d20" /> <path d="M -70,0 L -70,-500 L 28950,-500 L 28950,0 Z" class="l67d20" /> <path d="M -70,70 L -70,0 L 570,0 L 570,70 Z" class="l67d20" /> <path d="M 28310,70 L 28310,0 L 28950,0 L 28950,70 Z" class="l67d20" /> <path d="M 10635,-23965 L 10635,-24115 L 12485,-24115 L 12485,-23965 Z" class="l94d20" /> <path d="M 16395,-23965 L 16395,-24115 L 18245,-24115 L 18245,-23965 Z" class="l94d20" /> <path d="M 165,-32745 L 165,-32915 L 335,-32915 L 335,-32745 Z" class="l67d44" /> <path d="M 28545,-32745 L 28545,-32915 L 28715,-32915 L 28715,-32745 Z" class="l67d44" /> <path d="M 1165,-31745 L 1165,-31915 L 1335,-31915 L 1335,-31745 Z" class="l67d44" /> <path d="M 27545,-31745 L 27545,-31915 L 27715,-31915 L 27715,-31745 Z" class="l67d44" /> <path d="M 165,-29515 L 165,-29685 L 335,-29685 L 335,-29515 Z" class="l67d44" /> <path d="M 28545,-29515 L 28545,-29685 L 28715,-29685 L 28715,-29515 Z" class="l67d44" /> <path d="M 165,-29155 L 165,-29325 L 335,-29325 L 335,-29155 Z" class="l67d44" /> <path d="M 28545,-29155 L 28545,-29325 L 28715,-29325 L 28715,-29155 Z" class="l67d44" /> <path d="M 165,-28795 L 165,-28965 L 335,-28965 L 335,-28795 Z" class="l67d44" /> <path d="M 28545,-28795 L 28545,-28965 L 28715,-28965 L 28715,-28795 Z" class="l67d44" /> <path d="M 165,-19115 L 165,-19285 L 335,-19285 L 335,-19115 Z" class="l67d44" /> <path d="M 28545,-19115 L 28545,-19285 L 28715,-19285 L 28715,-19115 Z" class="l67d44" /> <path d="M 165,-18755 L 165,-18925 L 335,-18925 L 335,-18755 Z" class="l67d44" /> <path d="M 28545,-18755 L 28545,-18925 L 28715,-18925 L 28715,-18755 Z" class="l67d44" /> <path d="M 165,-18395 L 165,-18565 L 335,-18565 L 335,-18395 Z" class="l67d44" /> <path d="M 28545,-18395 L 28545,-18565 L 28715,-18565 L 28715,-18395 Z" class="l67d44" /> <path d="M 1165,-14515 L 1165,-14685 L 1335,-14685 L 1335,-14515 Z" class="l67d44" /> <path d="M 27545,-14515 L 27545,-14685 L 27715,-14685 L 27715,-14515 Z" class="l67d44" /> <path d="M 1165,-14155 L 1165,-14325 L 1335,-14325 L 1335,-14155 Z" class="l67d44" /> <path d="M 27545,-14155 L 27545,-14325 L 27715,-14325 L 27715,-14155 Z" class="l67d44" /> <path d="M 1165,-13795 L 1165,-13965 L 1335,-13965 L 1335,-13795 Z" class="l67d44" /> <path d="M 27545,-13795 L 27545,-13965 L 27715,-13965 L 27715,-13795 Z" class="l67d44" /> <path d="M 1165,-4115 L 1165,-4285 L 1335,-4285 L 1335,-4115 Z" class="l67d44" /> <path d="M 27545,-4115 L 27545,-4285 L 27715,-4285 L 27715,-4115 Z" class="l67d44" /> <path d="M 1165,-3755 L 1165,-3925 L 1335,-3925 L 1335,-3755 Z" class="l67d44" /> <path d="M 27545,-3755 L 27545,-3925 L 27715,-3925 L 27715,-3755 Z" class="l67d44" /> <path d="M 1165,-3395 L 1165,-3565 L 1335,-3565 L 1335,-3395 Z" class="l67d44" /> <path d="M 27545,-3395 L 27545,-3565 L 27715,-3565 L 27715,-3395 Z" class="l67d44" /> <path d="M 1165,-1165 L 1165,-1335 L 1335,-1335 L 1335,-1165 Z" class="l67d44" /> <path d="M 27545,-1165 L 27545,-1335 L 27715,-1335 L 27715,-1165 Z" class="l67d44" /> <path d="M 165,-165 L 165,-335 L 335,-335 L 335,-165 Z" class="l67d44" /> <path d="M 28545,-165 L 28545,-335 L 28715,-335 L 28715,-165 Z" class="l67d44" /> <path d="M -70,-32510 L -70,-33150 L 570,-33150 L 570,-32510 Z" class="l68d20" /> <path d="M 28310,-32510 L 28310,-33150 L 28950,-33150 L 28950,-32510 Z" class="l68d20" /> <path d="M 0,-29790 L 0,-32510 L 500,-32510 L 500,-29790 Z" class="l68d20" /> <path d="M 930,-31510 L 930,-32150 L 1570,-32150 L 1570,-31510 Z" class="l68d20" /> <path d="M 27310,-31510 L 27310,-32150 L 27950,-32150 L 27950,-31510 Z" class="l68d20" /> <path d="M -70,-28690 L -70,-29790 L 570,-29790 L 570,-28690 Z" class="l68d20" /> <path d="M 0,-19390 L 0,-28690 L 500,-28690 L 500,-19390 Z" class="l68d20" /> <path d="M -70,-18290 L -70,-19390 L 570,-19390 L 570,-18290 Z" class="l68d20" /> <path d="M 0,-570 L 0,-18290 L 500,-18290 L 500,-570 Z" class="l68d20" /> <path d="M 1000,-14790 L 1000,-31510 L 1500,-31510 L 1500,-14790 Z" class="l68d20" /> <path d="M 3650,-25770 L 3650,-26310 L 4110,-26310 L 4110,-25770 Z" class="l68d20" /> <path d="M 9410,-25770 L 9410,-26310 L 9870,-26310 L 9870,-25770 Z" class="l68d20" /> <path d="M 15170,-25770 L 15170,-26310 L 15630,-26310 L 15630,-25770 Z" class="l68d20" /> <path d="M 20930,-25770 L 20930,-26310 L 21390,-26310 L 21390,-25770 Z" class="l68d20" /> <path d="M 11970,-24170 L 11970,-24710 L 13070,-24710 L 13070,-24170 Z" class="l68d20" /> <path d="M 17730,-24170 L 17730,-24710 L 18830,-24710 L 18830,-24170 Z" class="l68d20" /> <path d="M 23490,-24170 L 23490,-24710 L 24590,-24710 L 24590,-24170 Z" class="l68d20" /> <path d="M 9410,-21770 L 9410,-22310 L 9870,-22310 L 9870,-21770 Z" class="l68d20" /> <path d="M 15170,-21770 L 15170,-22310 L 15630,-22310 L 15630,-21770 Z" class="l68d20" /> <path d="M 11970,-20170 L 11970,-20710 L 13070,-20710 L 13070,-20170 Z" class="l68d20" /> <path d="M 27380,-14790 L 27380,-31510 L 27880,-31510 L 27880,-14790 Z" class="l68d20" /> <path d="M 28380,-29790 L 28380,-32510 L 28880,-32510 L 28880,-29790 Z" class="l68d20" /> <path d="M 28310,-28690 L 28310,-29790 L 28950,-29790 L 28950,-28690 Z" class="l68d20" /> <path d="M 28380,-19390 L 28380,-28690 L 28880,-28690 L 28880,-19390 Z" class="l68d20" /> <path d="M 28310,-18290 L 28310,-19390 L 28950,-19390 L 28950,-18290 Z" class="l68d20" /> <path d="M 930,-13690 L 930,-14790 L 1570,-14790 L 1570,-13690 Z" class="l68d20" /> <path d="M 27310,-13690 L 27310,-14790 L 27950,-14790 L 27950,-13690 Z" class="l68d20" /> <path d="M 1000,-4390 L 1000,-13690 L 1500,-13690 L 1500,-4390 Z" class="l68d20" /> <path d="M 10050,-11970 L 10050,-12510 L 11150,-12510 L 11150,-11970 Z" class="l68d20" /> <path d="M 15810,-11970 L 15810,-12510 L 16910,-12510 L 16910,-11970 Z" class="l68d20" /> <path d="M 3650,-10770 L 3650,-11310 L 4110,-11310 L 4110,-10770 Z" class="l68d20" /> <path d="M 20930,-10770 L 20930,-11310 L 21390,-11310 L 21390,-10770 Z" class="l68d20" /> <path d="M 11970,-9170 L 11970,-9710 L 13070,-9710 L 13070,-9170 Z" class="l68d20" /> <path d="M 17730,-9170 L 17730,-9710 L 18830,-9710 L 18830,-9170 Z" class="l68d20" /> <path d="M 23490,-9170 L 23490,-9710 L 24590,-9710 L 24590,-9170 Z" class="l68d20" /> <path d="M 9410,-6770 L 9410,-7310 L 9870,-7310 L 9870,-6770 Z" class="l68d20" /> <path d="M 15170,-6770 L 15170,-7310 L 15630,-7310 L 15630,-6770 Z" class="l68d20" /> <path d="M 17730,-5170 L 17730,-5710 L 18830,-5710 L 18830,-5170 Z" class="l68d20" /> <path d="M 27380,-4390 L 27380,-13690 L 27880,-13690 L 27880,-4390 Z" class="l68d20" /> <path d="M 930,-3290 L 930,-4390 L 1570,-4390 L 1570,-3290 Z" class="l68d20" /> <path d="M 27310,-3290 L 27310,-4390 L 27950,-4390 L 27950,-3290 Z" class="l68d20" /> <path d="M 1000,-1570 L 1000,-3290 L 1500,-3290 L 1500,-1570 Z" class="l68d20" /> <path d="M 27380,-1570 L 27380,-3290 L 27880,-3290 L 27880,-1570 Z" class="l68d20" /> <path d="M 930,-930 L 930,-1570 L 1570,-1570 L 1570,-930 Z" class="l68d20" /> <path d="M 27310,-930 L 27310,-1570 L 27950,-1570 L 27950,-930 Z" class="l68d20" /> <path d="M 28380,-570 L 28380,-18290 L 28880,-18290 L 28880,-570 Z" class="l68d20" /> <path d="M -70,70 L -70,-570 L 570,-570 L 570,70 Z" class="l68d20" /> <path d="M 28310,70 L 28310,-570 L 28950,-570 L 28950,70 Z" class="l68d20" /> <path d="M 9480,-10840 L 9480,-11240 L 9800,-11240 L 9800,-10840 Z" class="l68d16" /> <path d="M 15240,-10840 L 15240,-11240 L 15560,-11240 L 15560,-10840 Z" class="l68d16" /> <path d="M 1000,-31580 L 1000,-32080 L 27880,-32080 L 27880,-31580 Z" class="l67d16" /> <path d="M 0,-32580 L 0,-33080 L 28880,-33080 L 28880,-32580 Z" class="l67d16" /> <path d="M 3805,-25965 L 3805,-26115 L 3955,-26115 L 3955,-25965 Z" class="l68d44" /> <path d="M 9565,-25965 L 9565,-26115 L 9715,-26115 L 9715,-25965 Z" class="l68d44" /> <path d="M 15325,-25965 L 15325,-26115 L 15475,-26115 L 15475,-25965 Z" class="l68d44" /> <path d="M 21085,-25965 L 21085,-26115 L 21235,-26115 L 21235,-25965 Z" class="l68d44" /> <path d="M 12125,-24365 L 12125,-24515 L 12275,-24515 L 12275,-24365 Z" class="l68d44" /> <path d="M 12445,-24365 L 12445,-24515 L 12595,-24515 L 12595,-24365 Z" class="l68d44" /> <path d="M 12765,-24365 L 12765,-24515 L 12915,-24515 L 12915,-24365 Z" class="l68d44" /> <path d="M 17885,-24365 L 17885,-24515 L 18035,-24515 L 18035,-24365 Z" class="l68d44" /> <path d="M 18205,-24365 L 18205,-24515 L 18355,-24515 L 18355,-24365 Z" class="l68d44" /> <path d="M 18525,-24365 L 18525,-24515 L 18675,-24515 L 18675,-24365 Z" class="l68d44" /> <path d="M 23645,-24365 L 23645,-24515 L 23795,-24515 L 23795,-24365 Z" class="l68d44" /> <path d="M 23965,-24365 L 23965,-24515 L 24115,-24515 L 24115,-24365 Z" class="l68d44" /> <path d="M 24285,-24365 L 24285,-24515 L 24435,-24515 L 24435,-24365 Z" class="l68d44" /> <path d="M 9565,-21965 L 9565,-22115 L 9715,-22115 L 9715,-21965 Z" class="l68d44" /> <path d="M 15325,-21965 L 15325,-22115 L 15475,-22115 L 15475,-21965 Z" class="l68d44" /> <path d="M 12125,-20365 L 12125,-20515 L 12275,-20515 L 12275,-20365 Z" class="l68d44" /> <path d="M 12445,-20365 L 12445,-20515 L 12595,-20515 L 12595,-20365 Z" class="l68d44" /> <path d="M 12765,-20365 L 12765,-20515 L 12915,-20515 L 12915,-20365 Z" class="l68d44" /> <path d="M 10205,-12165 L 10205,-12315 L 10355,-12315 L 10355,-12165 Z" class="l68d44" /> <path d="M 10525,-12165 L 10525,-12315 L 10675,-12315 L 10675,-12165 Z" class="l68d44" /> <path d="M 10845,-12165 L 10845,-12315 L 10995,-12315 L 10995,-12165 Z" class="l68d44" /> <path d="M 15965,-12165 L 15965,-12315 L 16115,-12315 L 16115,-12165 Z" class="l68d44" /> <path d="M 16285,-12165 L 16285,-12315 L 16435,-12315 L 16435,-12165 Z" class="l68d44" /> <path d="M 16605,-12165 L 16605,-12315 L 16755,-12315 L 16755,-12165 Z" class="l68d44" /> <path d="M 3805,-10965 L 3805,-11115 L 3955,-11115 L 3955,-10965 Z" class="l68d44" /> <path d="M 21085,-10965 L 21085,-11115 L 21235,-11115 L 21235,-10965 Z" class="l68d44" /> <path d="M 12125,-9365 L 12125,-9515 L 12275,-9515 L 12275,-9365 Z" class="l68d44" /> <path d="M 12445,-9365 L 12445,-9515 L 12595,-9515 L 12595,-9365 Z" class="l68d44" /> <path d="M 12765,-9365 L 12765,-9515 L 12915,-9515 L 12915,-9365 Z" class="l68d44" /> <path d="M 17885,-9365 L 17885,-9515 L 18035,-9515 L 18035,-9365 Z" class="l68d44" /> <path d="M 18205,-9365 L 18205,-9515 L 18355,-9515 L 18355,-9365 Z" class="l68d44" /> <path d="M 18525,-9365 L 18525,-9515 L 18675,-9515 L 18675,-9365 Z" class="l68d44" /> <path d="M 23645,-9365 L 23645,-9515 L 23795,-9515 L 23795,-9365 Z" class="l68d44" /> <path d="M 23965,-9365 L 23965,-9515 L 24115,-9515 L 24115,-9365 Z" class="l68d44" /> <path d="M 24285,-9365 L 24285,-9515 L 24435,-9515 L 24435,-9365 Z" class="l68d44" /> <path d="M 9565,-6965 L 9565,-7115 L 9715,-7115 L 9715,-6965 Z" class="l68d44" /> <path d="M 15325,-6965 L 15325,-7115 L 15475,-7115 L 15475,-6965 Z" class="l68d44" /> <path d="M 17885,-5365 L 17885,-5515 L 18035,-5515 L 18035,-5365 Z" class="l68d44" /> <path d="M 18205,-5365 L 18205,-5515 L 18355,-5515 L 18355,-5365 Z" class="l68d44" /> <path d="M 18525,-5365 L 18525,-5515 L 18675,-5515 L 18675,-5365 Z" class="l68d44" /> <path d="M 8130,-27960 L 8130,-28260 L 20090,-28260 L 20090,-27960 Z" class="l69d20" /> <path d="M 13890,-26180 L 13890,-26250 L 14330,-26250 L 14330,-26180 Z" class="l69d20" /> <path d="M 12290,-25880 L 12290,-26180 L 15630,-26180 L 15630,-25880 Z" class="l69d20" /> <path d="M 13890,-25810 L 13890,-25880 L 14330,-25880 L 14330,-25810 Z" class="l69d20" /> <path d="M 13890,-22180 L 13890,-22250 L 14330,-22250 L 14330,-22180 Z" class="l69d20" /> <path d="M 13890,-21880 L 13890,-22180 L 15630,-22180 L 15630,-21880 Z" class="l69d20" /> <path d="M 13890,-21810 L 13890,-21880 L 14330,-21880 L 14330,-21810 Z" class="l69d20" /> <path d="M 10050,-12080 L 10050,-12380 L 19930,-12380 L 19930,-12080 Z" class="l69d20" /> <path d="M 13730,-10980 L 13730,-11050 L 14170,-11050 L 14170,-10980 Z" class="l69d20" /> <path d="M 10690,-10680 L 10690,-10980 L 14170,-10980 L 14170,-10680 Z" class="l69d20" /> <path d="M 13730,-10610 L 13730,-10680 L 14170,-10680 L 14170,-10610 Z" class="l69d20" /> <path d="M 13730,-9700 L 13730,-9770 L 14170,-9770 L 14170,-9700 Z" class="l69d20" /> <path d="M 13730,-9400 L 13730,-9700 L 16730,-9700 L 16730,-9400 Z" class="l69d20" /> <path d="M 13730,-9330 L 13730,-9400 L 14170,-9400 L 14170,-9330 Z" class="l69d20" /> <path d="M 9410,-6830 L 9410,-7130 L 15630,-7130 L 15630,-6830 Z" class="l69d20" /> <path d="M 17730,-24580 L 17730,-24710 L 18830,-24710 L 18830,-24580 Z" class="l69d20" /> <path d="M 19490,-24580 L 19490,-24650 L 19930,-24650 L 19930,-24580 Z" class="l69d20" /> <path d="M 17730,-24280 L 17730,-24580 L 19930,-24580 L 19930,-24280 Z" class="l69d20" /> <path d="M 17730,-24170 L 17730,-24280 L 18830,-24280 L 18830,-24170 Z" class="l69d20" /> <path d="M 19490,-24210 L 19490,-24280 L 19930,-24280 L 19930,-24210 Z" class="l69d20" /> <path d="M 23490,-24170 L 23490,-24710 L 24590,-24710 L 24590,-24170 Z" class="l69d20" /> <path d="M 15170,-26180 L 15170,-26310 L 15630,-26310 L 15630,-26180 Z" class="l69d20" /> <path d="M 15170,-22180 L 15170,-22310 L 15630,-22310 L 15630,-22180 Z" class="l69d20" /> <path d="M 19650,-27890 L 19650,-27960 L 20090,-27960 L 20090,-27890 Z" class="l69d20" /> <path d="M 19650,-28260 L 19650,-28330 L 20090,-28330 L 20090,-28260 Z" class="l69d20" /> <path d="M 15170,-21770 L 15170,-21880 L 15630,-21880 L 15630,-21770 Z" class="l69d20" /> <path d="M 15170,-25770 L 15170,-25880 L 15630,-25880 L 15630,-25770 Z" class="l69d20" /> <path d="M 18050,-26180 L 18050,-26250 L 18490,-26250 L 18490,-26180 Z" class="l69d20" /> <path d="M 19650,-26180 L 19650,-26250 L 20090,-26250 L 20090,-26180 Z" class="l69d20" /> <path d="M 20930,-26180 L 20930,-26310 L 21390,-26310 L 21390,-26180 Z" class="l69d20" /> <path d="M 18050,-25880 L 18050,-26180 L 21390,-26180 L 21390,-25880 Z" class="l69d20" /> <path d="M 18050,-25810 L 18050,-25880 L 18490,-25880 L 18490,-25810 Z" class="l69d20" /> <path d="M 19650,-25810 L 19650,-25880 L 20090,-25880 L 20090,-25810 Z" class="l69d20" /> <path d="M 20930,-25770 L 20930,-25880 L 21390,-25880 L 21390,-25770 Z" class="l69d20" /> <path d="M 12290,-22180 L 12290,-22250 L 12730,-22250 L 12730,-22180 Z" class="l69d20" /> <path d="M 9410,-21880 L 9410,-22180 L 12730,-22180 L 12730,-21880 Z" class="l69d20" /> <path d="M 9410,-21770 L 9410,-21880 L 9870,-21880 L 9870,-21770 Z" class="l69d20" /> <path d="M 12290,-21810 L 12290,-21880 L 12730,-21880 L 12730,-21810 Z" class="l69d20" /> <path d="M 8130,-25810 L 8130,-25880 L 8570,-25880 L 8570,-25810 Z" class="l69d20" /> <path d="M 9410,-25770 L 9410,-25880 L 9870,-25880 L 9870,-25770 Z" class="l69d20" /> <path d="M 12290,-26180 L 12290,-26250 L 12730,-26250 L 12730,-26180 Z" class="l69d20" /> <path d="M 8130,-27890 L 8130,-27960 L 8570,-27960 L 8570,-27890 Z" class="l69d20" /> <path d="M 8130,-28260 L 8130,-28330 L 8570,-28330 L 8570,-28260 Z" class="l69d20" /> <path d="M 7170,-20580 L 7170,-20650 L 7610,-20650 L 7610,-20580 Z" class="l69d20" /> <path d="M 11970,-20580 L 11970,-20710 L 13070,-20710 L 13070,-20580 Z" class="l69d20" /> <path d="M 7170,-20280 L 7170,-20580 L 13070,-20580 L 13070,-20280 Z" class="l69d20" /> <path d="M 7170,-20210 L 7170,-20280 L 7610,-20280 L 7610,-20210 Z" class="l69d20" /> <path d="M 11970,-20170 L 11970,-20280 L 13070,-20280 L 13070,-20170 Z" class="l69d20" /> <path d="M 11970,-24170 L 11970,-24710 L 13070,-24710 L 13070,-24170 Z" class="l69d20" /> <path d="M 3650,-26180 L 3650,-26310 L 4110,-26310 L 4110,-26180 Z" class="l69d20" /> <path d="M 12290,-25810 L 12290,-25880 L 12730,-25880 L 12730,-25810 Z" class="l69d20" /> <path d="M 8130,-26180 L 8130,-26250 L 8570,-26250 L 8570,-26180 Z" class="l69d20" /> <path d="M 9410,-26180 L 9410,-26310 L 9870,-26310 L 9870,-26180 Z" class="l69d20" /> <path d="M 3650,-25880 L 3650,-26180 L 9870,-26180 L 9870,-25880 Z" class="l69d20" /> <path d="M 3650,-25770 L 3650,-25880 L 4110,-25880 L 4110,-25770 Z" class="l69d20" /> <path d="M 9410,-22180 L 9410,-22310 L 9870,-22310 L 9870,-22180 Z" class="l69d20" /> <path d="M 3650,-11140 L 3650,-11310 L 4110,-11310 L 4110,-11140 Z" class="l69d20" /> <path d="M 7170,-11140 L 7170,-11210 L 7610,-11210 L 7610,-11140 Z" class="l69d20" /> <path d="M 8290,-11140 L 8290,-11210 L 8730,-11210 L 8730,-11140 Z" class="l69d20" /> <path d="M 3650,-10840 L 3650,-11140 L 8730,-11140 L 8730,-10840 Z" class="l69d20" /> <path d="M 3650,-10770 L 3650,-10840 L 4110,-10840 L 4110,-10770 Z" class="l69d20" /> <path d="M 7170,-10770 L 7170,-10840 L 7610,-10840 L 7610,-10770 Z" class="l69d20" /> <path d="M 8290,-10770 L 8290,-10840 L 8730,-10840 L 8730,-10770 Z" class="l69d20" /> <path d="M 10690,-10980 L 10690,-11050 L 11130,-11050 L 11130,-10980 Z" class="l69d20" /> <path d="M 12290,-14500 L 12290,-14570 L 12730,-14570 L 12730,-14500 Z" class="l69d20" /> <path d="M 9410,-14200 L 9410,-14500 L 12730,-14500 L 12730,-14200 Z" class="l69d20" /> <path d="M 10690,-10610 L 10690,-10680 L 11130,-10680 L 11130,-10610 Z" class="l69d20" /> <path d="M 9410,-14130 L 9410,-14200 L 9850,-14200 L 9850,-14130 Z" class="l69d20" /> <path d="M 8290,-9700 L 8290,-9770 L 8730,-9770 L 8730,-9700 Z" class="l69d20" /> <path d="M 10690,-9700 L 10690,-9770 L 11130,-9770 L 11130,-9700 Z" class="l69d20" /> <path d="M 8290,-9400 L 8290,-9700 L 11130,-9700 L 11130,-9400 Z" class="l69d20" /> <path d="M 8290,-9330 L 8290,-9400 L 8730,-9400 L 8730,-9330 Z" class="l69d20" /> <path d="M 10690,-9330 L 10690,-9400 L 11130,-9400 L 11130,-9330 Z" class="l69d20" /> <path d="M 11970,-9170 L 11970,-9710 L 13070,-9710 L 13070,-9170 Z" class="l69d20" /> <path d="M 12290,-14130 L 12290,-14200 L 12730,-14200 L 12730,-14130 Z" class="l69d20" /> <path d="M 10050,-12380 L 10050,-12510 L 11150,-12510 L 11150,-12380 Z" class="l69d20" /> <path d="M 9410,-14500 L 9410,-14570 L 9850,-14570 L 9850,-14500 Z" class="l69d20" /> <path d="M 9410,-7130 L 9410,-7310 L 9870,-7310 L 9870,-7130 Z" class="l69d20" /> <path d="M 10050,-11970 L 10050,-12080 L 11150,-12080 L 11150,-11970 Z" class="l69d20" /> <path d="M 9410,-6770 L 9410,-6830 L 9870,-6830 L 9870,-6770 Z" class="l69d20" /> <path d="M 16290,-10680 L 16290,-10770 L 21370,-10770 L 21370,-10680 Z" class="l69d20" /> <path d="M 16290,-10610 L 16290,-10680 L 16730,-10680 L 16730,-10610 Z" class="l69d20" /> <path d="M 20930,-10610 L 20930,-10680 L 21370,-10680 L 21370,-10610 Z" class="l69d20" /> <path d="M 15810,-12380 L 15810,-12510 L 16910,-12510 L 16910,-12380 Z" class="l69d20" /> <path d="M 19490,-12380 L 19490,-12450 L 19930,-12450 L 19930,-12380 Z" class="l69d20" /> <path d="M 19490,-14020 L 19490,-14090 L 19930,-14090 L 19930,-14020 Z" class="l69d20" /> <path d="M 18050,-13720 L 18050,-14020 L 19930,-14020 L 19930,-13720 Z" class="l69d20" /> <path d="M 15810,-11970 L 15810,-12080 L 16910,-12080 L 16910,-11970 Z" class="l69d20" /> <path d="M 19490,-12010 L 19490,-12080 L 19930,-12080 L 19930,-12010 Z" class="l69d20" /> <path d="M 18050,-13650 L 18050,-13720 L 18490,-13720 L 18490,-13650 Z" class="l69d20" /> <path d="M 16290,-9700 L 16290,-9770 L 16730,-9770 L 16730,-9700 Z" class="l69d20" /> <path d="M 19490,-13650 L 19490,-13720 L 19930,-13720 L 19930,-13650 Z" class="l69d20" /> <path d="M 18050,-14020 L 18050,-14090 L 18490,-14090 L 18490,-14020 Z" class="l69d20" /> <path d="M 16290,-9330 L 16290,-9400 L 16730,-9400 L 16730,-9330 Z" class="l69d20" /> <path d="M 17730,-9170 L 17730,-9710 L 18830,-9710 L 18830,-9170 Z" class="l69d20" /> <path d="M 23490,-9170 L 23490,-9710 L 24590,-9710 L 24590,-9170 Z" class="l69d20" /> <path d="M 16290,-10980 L 16290,-11050 L 16730,-11050 L 16730,-10980 Z" class="l69d20" /> <path d="M 15170,-7130 L 15170,-7310 L 15630,-7310 L 15630,-7130 Z" class="l69d20" /> <path d="M 20930,-10980 L 20930,-11310 L 21390,-11310 L 21390,-10980 Z" class="l69d20" /> <path d="M 16290,-10770 L 16290,-10980 L 21390,-10980 L 21390,-10770 Z" class="l69d20" /> <path d="M 15170,-6770 L 15170,-6830 L 15630,-6830 L 15630,-6770 Z" class="l69d20" /> <path d="M 17730,-5500 L 17730,-5710 L 18830,-5710 L 18830,-5500 Z" class="l69d20" /> <path d="M 19490,-5500 L 19490,-5570 L 19930,-5570 L 19930,-5500 Z" class="l69d20" /> <path d="M 17730,-5200 L 17730,-5500 L 19930,-5500 L 19930,-5200 Z" class="l69d20" /> <path d="M 17730,-5170 L 17730,-5200 L 18830,-5200 L 18830,-5170 Z" class="l69d20" /> <path d="M 19490,-5130 L 19490,-5200 L 19930,-5200 L 19930,-5130 Z" class="l69d20" /> <path d="M 8250,-28010 L 8250,-28210 L 8450,-28210 L 8450,-28010 Z" class="l69d44" /> <path d="M 19770,-28010 L 19770,-28210 L 19970,-28210 L 19970,-28010 Z" class="l69d44" /> <path d="M 8250,-25930 L 8250,-26130 L 8450,-26130 L 8450,-25930 Z" class="l69d44" /> <path d="M 12410,-25930 L 12410,-26130 L 12610,-26130 L 12610,-25930 Z" class="l69d44" /> <path d="M 14010,-25930 L 14010,-26130 L 14210,-26130 L 14210,-25930 Z" class="l69d44" /> <path d="M 18170,-25930 L 18170,-26130 L 18370,-26130 L 18370,-25930 Z" class="l69d44" /> <path d="M 19770,-25930 L 19770,-26130 L 19970,-26130 L 19970,-25930 Z" class="l69d44" /> <path d="M 12220,-24340 L 12220,-24540 L 12420,-24540 L 12420,-24340 Z" class="l69d44" /> <path d="M 12620,-24340 L 12620,-24540 L 12820,-24540 L 12820,-24340 Z" class="l69d44" /> <path d="M 17980,-24340 L 17980,-24540 L 18180,-24540 L 18180,-24340 Z" class="l69d44" /> <path d="M 18380,-24340 L 18380,-24540 L 18580,-24540 L 18580,-24340 Z" class="l69d44" /> <path d="M 19610,-24330 L 19610,-24530 L 19810,-24530 L 19810,-24330 Z" class="l69d44" /> <path d="M 23740,-24340 L 23740,-24540 L 23940,-24540 L 23940,-24340 Z" class="l69d44" /> <path d="M 24140,-24340 L 24140,-24540 L 24340,-24540 L 24340,-24340 Z" class="l69d44" /> <path d="M 9540,-21940 L 9540,-22140 L 9740,-22140 L 9740,-21940 Z" class="l69d44" /> <path d="M 12410,-21930 L 12410,-22130 L 12610,-22130 L 12610,-21930 Z" class="l69d44" /> <path d="M 14010,-21930 L 14010,-22130 L 14210,-22130 L 14210,-21930 Z" class="l69d44" /> <path d="M 7290,-20330 L 7290,-20530 L 7490,-20530 L 7490,-20330 Z" class="l69d44" /> <path d="M 9530,-14250 L 9530,-14450 L 9730,-14450 L 9730,-14250 Z" class="l69d44" /> <path d="M 12410,-14250 L 12410,-14450 L 12610,-14450 L 12610,-14250 Z" class="l69d44" /> <path d="M 18170,-13770 L 18170,-13970 L 18370,-13970 L 18370,-13770 Z" class="l69d44" /> <path d="M 19610,-13770 L 19610,-13970 L 19810,-13970 L 19810,-13770 Z" class="l69d44" /> <path d="M 19610,-12130 L 19610,-12330 L 19810,-12330 L 19810,-12130 Z" class="l69d44" /> <path d="M 7290,-10890 L 7290,-11090 L 7490,-11090 L 7490,-10890 Z" class="l69d44" /> <path d="M 8410,-10890 L 8410,-11090 L 8610,-11090 L 8610,-10890 Z" class="l69d44" /> <path d="M 21060,-11000 L 21060,-11200 L 21260,-11200 L 21260,-11000 Z" class="l69d44" /> <path d="M 10810,-10730 L 10810,-10930 L 11010,-10930 L 11010,-10730 Z" class="l69d44" /> <path d="M 13850,-10730 L 13850,-10930 L 14050,-10930 L 14050,-10730 Z" class="l69d44" /> <path d="M 16410,-10730 L 16410,-10930 L 16610,-10930 L 16610,-10730 Z" class="l69d44" /> <path d="M 8410,-9450 L 8410,-9650 L 8610,-9650 L 8610,-9450 Z" class="l69d44" /> <path d="M 10810,-9450 L 10810,-9650 L 11010,-9650 L 11010,-9450 Z" class="l69d44" /> <path d="M 12220,-9340 L 12220,-9540 L 12420,-9540 L 12420,-9340 Z" class="l69d44" /> <path d="M 12620,-9340 L 12620,-9540 L 12820,-9540 L 12820,-9340 Z" class="l69d44" /> <path d="M 13850,-9450 L 13850,-9650 L 14050,-9650 L 14050,-9450 Z" class="l69d44" /> <path d="M 16410,-9450 L 16410,-9650 L 16610,-9650 L 16610,-9450 Z" class="l69d44" /> <path d="M 17980,-9340 L 17980,-9540 L 18180,-9540 L 18180,-9340 Z" class="l69d44" /> <path d="M 18380,-9340 L 18380,-9540 L 18580,-9540 L 18580,-9340 Z" class="l69d44" /> <path d="M 23740,-9340 L 23740,-9540 L 23940,-9540 L 23940,-9340 Z" class="l69d44" /> <path d="M 24140,-9340 L 24140,-9540 L 24340,-9540 L 24340,-9340 Z" class="l69d44" /> <path d="M 19610,-5250 L 19610,-5450 L 19810,-5450 L 19810,-5250 Z" class="l69d44" /> <path d="M 8130,-27890 L 8130,-28330 L 8570,-28330 L 8570,-27890 Z" class="l70d20" /> <path d="M 19650,-27890 L 19650,-28330 L 20090,-28330 L 20090,-27890 Z" class="l70d20" /> <path d="M 8200,-26250 L 8200,-27890 L 8500,-27890 L 8500,-26250 Z" class="l70d20" /> <path d="M 19720,-26250 L 19720,-27890 L 20020,-27890 L 20020,-26250 Z" class="l70d20" /> <path d="M 8130,-25810 L 8130,-26250 L 8570,-26250 L 8570,-25810 Z" class="l70d20" /> <path d="M 12290,-25810 L 12290,-26250 L 12730,-26250 L 12730,-25810 Z" class="l70d20" /> <path d="M 13890,-25810 L 13890,-26250 L 14330,-26250 L 14330,-25810 Z" class="l70d20" /> <path d="M 18050,-25810 L 18050,-26250 L 18490,-26250 L 18490,-25810 Z" class="l70d20" /> <path d="M 19650,-25810 L 19650,-26250 L 20090,-26250 L 20090,-25810 Z" class="l70d20" /> <path d="M 12360,-24710 L 12360,-25810 L 12660,-25810 L 12660,-24710 Z" class="l70d20" /> <path d="M 11970,-24170 L 11970,-24710 L 13070,-24710 L 13070,-24170 Z" class="l70d20" /> <path d="M 9410,-21770 L 9410,-22310 L 9870,-22310 L 9870,-21770 Z" class="l70d20" /> <path d="M 12360,-22250 L 12360,-24170 L 12660,-24170 L 12660,-22250 Z" class="l70d20" /> <path d="M 13960,-22250 L 13960,-25810 L 14260,-25810 L 14260,-22250 Z" class="l70d20" /> <path d="M 18120,-24710 L 18120,-25810 L 18420,-25810 L 18420,-24710 Z" class="l70d20" /> <path d="M 17730,-24170 L 17730,-24710 L 18830,-24710 L 18830,-24170 Z" class="l70d20" /> <path d="M 19490,-24210 L 19490,-24650 L 19930,-24650 L 19930,-24210 Z" class="l70d20" /> <path d="M 12290,-21810 L 12290,-22250 L 12730,-22250 L 12730,-21810 Z" class="l70d20" /> <path d="M 13890,-21810 L 13890,-22250 L 14330,-22250 L 14330,-21810 Z" class="l70d20" /> <path d="M 7170,-20210 L 7170,-20650 L 7610,-20650 L 7610,-20210 Z" class="l70d20" /> <path d="M 7240,-11210 L 7240,-20210 L 7540,-20210 L 7540,-11210 Z" class="l70d20" /> <path d="M 9480,-14570 L 9480,-21770 L 9780,-21770 L 9780,-14570 Z" class="l70d20" /> <path d="M 9410,-14130 L 9410,-14570 L 9850,-14570 L 9850,-14130 Z" class="l70d20" /> <path d="M 12290,-14130 L 12290,-14570 L 12730,-14570 L 12730,-14130 Z" class="l70d20" /> <path d="M 7170,-10770 L 7170,-11210 L 7610,-11210 L 7610,-10770 Z" class="l70d20" /> <path d="M 8290,-10770 L 8290,-11210 L 8730,-11210 L 8730,-10770 Z" class="l70d20" /> <path d="M 8360,-9770 L 8360,-10770 L 8660,-10770 L 8660,-9770 Z" class="l70d20" /> <path d="M 10690,-10610 L 10690,-11050 L 11130,-11050 L 11130,-10610 Z" class="l70d20" /> <path d="M 10760,-9770 L 10760,-10610 L 11060,-10610 L 11060,-9770 Z" class="l70d20" /> <path d="M 8290,-9330 L 8290,-9770 L 8730,-9770 L 8730,-9330 Z" class="l70d20" /> <path d="M 10690,-9330 L 10690,-9770 L 11130,-9770 L 11130,-9330 Z" class="l70d20" /> <path d="M 12360,-9710 L 12360,-14130 L 12660,-14130 L 12660,-9710 Z" class="l70d20" /> <path d="M 19560,-14090 L 19560,-24210 L 19860,-24210 L 19860,-14090 Z" class="l70d20" /> <path d="M 23490,-24170 L 23490,-24710 L 24590,-24710 L 24590,-24170 Z" class="l70d20" /> <path d="M 18050,-13650 L 18050,-14090 L 18490,-14090 L 18490,-13650 Z" class="l70d20" /> <path d="M 19490,-13650 L 19490,-14090 L 19930,-14090 L 19930,-13650 Z" class="l70d20" /> <path d="M 13730,-10610 L 13730,-11050 L 14170,-11050 L 14170,-10610 Z" class="l70d20" /> <path d="M 16290,-10610 L 16290,-11050 L 16730,-11050 L 16730,-10610 Z" class="l70d20" /> <path d="M 13800,-9770 L 13800,-10610 L 14100,-10610 L 14100,-9770 Z" class="l70d20" /> <path d="M 16360,-9770 L 16360,-10610 L 16660,-10610 L 16660,-9770 Z" class="l70d20" /> <path d="M 11970,-9170 L 11970,-9710 L 13070,-9710 L 13070,-9170 Z" class="l70d20" /> <path d="M 13730,-9330 L 13730,-9770 L 14170,-9770 L 14170,-9330 Z" class="l70d20" /> <path d="M 16290,-9330 L 16290,-9770 L 16730,-9770 L 16730,-9330 Z" class="l70d20" /> <path d="M 18120,-9710 L 18120,-13650 L 18420,-13650 L 18420,-9710 Z" class="l70d20" /> <path d="M 19490,-12010 L 19490,-12450 L 19930,-12450 L 19930,-12010 Z" class="l70d20" /> <path d="M 17730,-9170 L 17730,-9710 L 18830,-9710 L 18830,-9170 Z" class="l70d20" /> <path d="M 19560,-5570 L 19560,-12010 L 19860,-12010 L 19860,-5570 Z" class="l70d20" /> <path d="M 20930,-10770 L 20930,-11310 L 21390,-11310 L 21390,-10770 Z" class="l70d20" /> <path d="M 20930,-10610 L 20930,-10770 L 21370,-10770 L 21370,-10610 Z" class="l70d20" /> <path d="M 23870,-9710 L 23870,-24170 L 24170,-24170 L 24170,-9710 Z" class="l70d20" /> <path d="M 23490,-9170 L 23490,-9710 L 24590,-9710 L 24590,-9170 Z" class="l70d20" /> <path d="M 19490,-5130 L 19490,-5570 L 19930,-5570 L 19930,-5130 Z" class="l70d20" /> <path d="M 23870,-9360 L 23870,-24400 L 24170,-24400 L 24170,-9360 Z" class="l70d16" /> <path d="M 9620,-6830 L 9620,-7130 L 15380,-7130 L 15380,-6830 Z" class="l69d16" /> <rect x="2000" y="-31080" width="7600" height="3680" class="l999d0" /> <text x="5800.0" y="-29240.0" class="l998t0" text-anchor="middle" alignment-baseline="middle">load1_MP5_TAPTOP</text> <rect x="19280" y="-31080" width="7600" height="3680" class="l999d0" /> <text x="23080.0" y="-29240.0" class="l998t0" text-anchor="middle" alignment-baseline="middle">load1_MP6_TAPTOP</text> <rect x="7760" y="-31080" width="7600" height="3680" class="l999d0" /> <text x="11560.0" y="-29240.0" class="l998t0" text-anchor="middle" alignment-baseline="middle">load1_MP3_TAPTOP</text> <rect x="13520" y="-31080" width="7600" height="3680" class="l999d0" /> <text x="17320.0" y="-29240.0" class="l998t0" text-anchor="middle" alignment-baseline="middle">load1_MP4_TAPTOP</text> <rect x="2000" y="-28680" width="7600" height="5280" class="l999d0" /> <text x="5800.0" y="-26040.0" class="l998t0" text-anchor="middle" alignment-baseline="middle">load1_MP5</text> <rect x="19280" y="-28680" width="7600" height="5280" class="l999d0" /> <text x="23080.0" y="-26040.0" class="l998t0" text-anchor="middle" alignment-baseline="middle">load1_MP6</text> <rect x="7760" y="-24680" width="7600" height="5280" class="l999d0" /> <text x="11560.0" y="-22040.0" class="l998t0" text-anchor="middle" alignment-baseline="middle">load1_MP1</text> <rect x="13520" y="-24680" width="7600" height="5280" class="l999d0" /> <text x="17320.0" y="-22040.0" class="l998t0" text-anchor="middle" alignment-baseline="middle">load1_MP2</text> <rect x="7760" y="-28680" width="7600" height="5280" class="l999d0" /> <text x="11560.0" y="-26040.0" class="l998t0" text-anchor="middle" alignment-baseline="middle">load1_MP3</text> <rect x="13520" y="-28680" width="7600" height="5280" class="l999d0" /> <text x="17320.0" y="-26040.0" class="l998t0" text-anchor="middle" alignment-baseline="middle">load1_MP4</text> <rect x="13835" y="-5365" width="6970" height="2725" class="l999d0" /> <text x="17320.0" y="-4002.5" class="l998t0" text-anchor="middle" alignment-baseline="middle">mirror2_MN4_TAPBOT</text> <rect x="8075" y="-5365" width="6970" height="2725" class="l999d0" /> <text x="11560.0" y="-4002.5" class="l998t0" text-anchor="middle" alignment-baseline="middle">mirror2_MN3_TAPBOT</text> <rect x="2315" y="-9365" width="6970" height="2725" class="l999d0" /> <text x="5800.0" y="-8002.5" class="l998t0" text-anchor="middle" alignment-baseline="middle">mirror1_MN5_TAPBOT</text> <rect x="19595" y="-9365" width="6970" height="2725" class="l999d0" /> <text x="23080.0" y="-8002.5" class="l998t0" text-anchor="middle" alignment-baseline="middle">mirror1_MN6_TAPBOT</text> <rect x="8075" y="-15440" width="6970" height="2725" class="l999d0" /> <text x="11560.0" y="-14077.5" class="l998t0" text-anchor="middle" alignment-baseline="middle">diff1_MN1_TAPTOP</text> <rect x="13835" y="-15440" width="6970" height="2725" class="l999d0" /> <text x="17320.0" y="-14077.5" class="l998t0" text-anchor="middle" alignment-baseline="middle">diff1_MN2_TAPTOP</text> <rect x="2315" y="-15440" width="6970" height="2725" class="l999d0" /> <text x="5800.0" y="-14077.5" class="l998t0" text-anchor="middle" alignment-baseline="middle">mirror1_MN5_TAPTOP</text> <rect x="19595" y="-15440" width="6970" height="2725" class="l999d0" /> <text x="23080.0" y="-14077.5" class="l998t0" text-anchor="middle" alignment-baseline="middle">mirror1_MN6_TAPTOP</text> <rect x="8075" y="-13365" width="6970" height="4650" class="l999d0" /> <text x="11560.0" y="-11040.0" class="l998t0" text-anchor="middle" alignment-baseline="middle">diff1_MN1</text> <rect x="13835" y="-13365" width="6970" height="4650" class="l999d0" /> <text x="17320.0" y="-11040.0" class="l998t0" text-anchor="middle" alignment-baseline="middle">diff1_MN2</text> <rect x="13835" y="-9365" width="6970" height="4650" class="l999d0" /> <text x="17320.0" y="-7040.0" class="l998t0" text-anchor="middle" alignment-baseline="middle">mirror2_MN4</text> <rect x="8075" y="-9365" width="6970" height="4650" class="l999d0" /> <text x="11560.0" y="-7040.0" class="l998t0" text-anchor="middle" alignment-baseline="middle">mirror2_MN3</text> <rect x="2315" y="-13365" width="6970" height="4650" class="l999d0" /> <text x="5800.0" y="-11040.0" class="l998t0" text-anchor="middle" alignment-baseline="middle">mirror1_MN5</text> <rect x="19595" y="-13365" width="6970" height="4650" class="l999d0" /> <text x="23080.0" y="-11040.0" class="l998t0" text-anchor="middle" alignment-baseline="middle">mirror1_MN6</text> <rect x="2000" y="-24680" width="7600" height="3680" class="l999d0" /> <text x="5800.0" y="-22840.0" class="l998t0" text-anchor="middle" alignment-baseline="middle">load1_MP5_TAPBOT</text> <rect x="19280" y="-24680" width="7600" height="3680" class="l999d0" /> <text x="23080.0" y="-22840.0" class="l998t0" text-anchor="middle" alignment-baseline="middle">load1_MP6_TAPBOT</text> <rect x="7760" y="-20680" width="7600" height="3680" class="l999d0" /> <text x="11560.0" y="-18840.0" class="l998t0" text-anchor="middle" alignment-baseline="middle">load1_MP1_TAPBOT</text> <rect x="13520" y="-20680" width="7600" height="3680" class="l999d0" /> <text x="17320.0" y="-18840.0" class="l998t0" text-anchor="middle" alignment-baseline="middle">load1_MP2_TAPBOT</text> <text x="14440" y="-31590" class="l997t0" text-anchor="middle" alignment-baseline="central">VSS</text> <text x="14440" y="-32590" class="l997t0" text-anchor="middle" alignment-baseline="central">VDD</text> <text x="12500" y="-6740" class="l997t0" text-anchor="middle" alignment-baseline="central">I_BIAS</text> <text x="730" y="785.0" font-size="700" fill="black" alignment-baseline="middle">Metal1</text> <rect x="30" y="370" width="400" height="400" fill="#56423e" stroke="black" stroke-width="2" /> <text x="6230" y="785.0" font-size="700" fill="black" alignment-baseline="middle">Metal2</text> <rect x="5530" y="370" width="400" height="400" fill="#bea6a1" stroke="black" stroke-width="2" /> <text x="11730" y="785.0" font-size="700" fill="black" alignment-baseline="middle">Metal3</text> <rect x="11030" y="370" width="400" height="400" fill="#d62728" stroke="black" stroke-width="2" /> <text x="17230" y="785.0" font-size="700" fill="black" alignment-baseline="middle">Metal4</text> <rect x="16530" y="370" width="400" height="400" fill="#1f77b4" stroke="black" stroke-width="2" /> <text x="22730" y="785.0" font-size="700" fill="black" alignment-baseline="middle">Via1</text> <rect x="22030" y="370" width="400" height="400" fill="#e09a8e" stroke="black" stroke-width="2" /> <text x="28230" y="785.0" font-size="700" fill="black" alignment-baseline="middle">Via2</text> <rect x="27530" y="370" width="400" height="400" fill="#e39024" stroke="black" stroke-width="2" /> <text x="33730" y="785.0" font-size="700" fill="black" alignment-baseline="middle">Via3</text> <rect x="33030" y="370" width="400" height="400" fill="#70b512" stroke="black" stroke-width="2" /> <line x1="-70" y1="-33670" x2="28950" y2="-33670" stroke="black" stroke-width="50" marker-start="url(#arrowhead_reversed)" marker-end="url(#arrowhead)" /> <text x="14440.0" y="-33850" font-size="700" fill="black" text-anchor="middle">29.02 μm</text> <line x1="37030" y1="-70" x2="37030" y2="-33150" stroke="black" stroke-width="50" marker-start="url(#arrowhead_reversed)" marker-end="url(#arrowhead)" /> <text x="37210" y="-16540.0" font-size="700" fill="black" text-anchor="middle" transform="rotate(90 37210,-16540.0)">33.22 μm</text>
            </g>
        </svg>
        