<?xml version="1.0" encoding="UTF-8"?>
<svg xmlns="http://www.w3.org/2000/svg" xmlns:xlink="http://www.w3.org/1999/xlink"
     width="581.4000000000001" height="425.90000000000003" viewBox="-10.7 -415.20000000000005 581.4000000000001 425.90000000000003">
<defs>
        
        <style type="text/css">
          /* Highlighted layers */
          .l70d20 { fill: #1f77b4; fill-opacity: 0.7; }    /* Metal2 (blue) */
          .l69d20 { fill: #d62728; fill-opacity: 0.7; }    /* Metal3 (red) */
          .l67d20 { fill: #56423e; fill-opacity: 0.7; }    /* Metal1 (brown) */
          .l68d20 { fill: #bea6a1; fill-opacity: 0.7; }    /* Locali (light brown) */
          .l68d44 { fill: #0077ff;}                        /* via1 (bright blue) */
          .l67d44 { fill: #e09a8e;}                        /* viali (red shade) */
          .l69d44 { fill: #70b512;}                        /* via2 (green) */
          /* Not dealt with */
          .l64d20,
          .l65d20,
          .l65d44,
          .l66d13,
          .l66d20,
          .l66d44,
          .l67d16,
          .l68d16,
          .l69d16,
          .l86d20,
          .l93d44,
          .l94d20,
          .l95d20,
          .l235d4 {
            fill: #000000;
            fill-opacity: 0.0;
          }
          /* Subcell box */
          .l998t0 { fill: #F5F5F5; font-size: 16px;}
          .l997t0 { fill: #000000; font-size: 16px;}
          .l999d0 { stroke: #000000; stroke-width: 0.7; fill: #000000; fill-opacity: 0.2; }
        </style>
        
        
<style type="text/css">
.l49d0 {stroke: rgb(255, 106, 21); fill: rgb(255, 106, 21); fill-opacity: 0.5;}
.l50d0 {stroke: rgb(42, 255, 120); fill: rgb(42, 255, 120); fill-opacity: 0.5;}
.l29d0 {stroke: rgb(228, 255, 106); fill: rgb(228, 255, 106); fill-opacity: 0.5;}
.l999d0 {stroke: rgb(197, 255, 149); fill: rgb(197, 255, 149); fill-opacity: 0.5;}
.l19d0 {stroke: rgb(64, 133, 255); fill: rgb(64, 133, 255); fill-opacity: 0.5;}
.l8d0 {stroke: rgb(139, 0, 255); fill: rgb(139, 0, 255); fill-opacity: 0.5;}
.l14d0 {stroke: rgb(255, 128, 243); fill: rgb(255, 128, 243); fill-opacity: 0.5;}
.l30d0 {stroke: rgb(128, 255, 220); fill: rgb(128, 255, 220); fill-opacity: 0.5;}
.l10d0 {stroke: rgb(42, 139, 255); fill: rgb(42, 139, 255); fill-opacity: 0.5;}
.l30d2 {stroke: rgb(0, 128, 93); fill: rgb(0, 128, 93); fill-opacity: 0.5;}
.l8d2 {stroke: rgb(79, 21, 128); fill: rgb(79, 21, 128); fill-opacity: 0.5;}
.l998t0 {stroke: none; fill: rgb(197, 128, 255);}
</style>
</defs>
<rect x="-10.7" y="-415.20000000000005" width="581.4000000000001" height="425.90000000000003" fill="#ffffff" stroke="none"/>
<g id="VISUAL_TOP" transform="scale(1 -1)">
<polygon class="l14d0" points="49.5,334.80000000000007 74.1,334.80000000000007 74.1,335.20000000000005 49.5,335.20000000000005"/>
<polygon class="l14d0" points="125.1,334.80000000000007 149.70000000000002,334.80000000000007 149.70000000000002,335.20000000000005 125.1,335.20000000000005"/>
<polygon class="l14d0" points="49.5,294.8 74.1,294.8 74.1,295.2 49.5,295.2"/>
<polygon class="l14d0" points="125.1,294.8 149.70000000000002,294.8 149.70000000000002,295.2 125.1,295.2"/>
<polygon class="l14d0" points="49.5,254.8 74.1,254.8 74.1,255.2 49.5,255.2"/>
<polygon class="l14d0" points="125.1,254.8 149.70000000000002,254.8 149.70000000000002,255.2 125.1,255.2"/>
<polygon class="l14d0" points="49.5,214.8 74.1,214.8 74.1,215.2 49.5,215.2"/>
<polygon class="l14d0" points="125.1,214.8 149.70000000000002,214.8 149.70000000000002,215.2 125.1,215.2"/>
<polygon class="l8d0" points="-0.7000000000000001,395.0 5.700000000000001,395.0 5.700000000000001,395.7 -0.7000000000000001,395.7"/>
<polygon class="l8d0" points="554.3,395.0 560.7,395.0 560.7,395.7 554.3,395.7"/>
<polygon class="l8d0" points="-0.7000000000000001,390.0 560.7,390.0 560.7,395.0 -0.7000000000000001,395.0"/>
<polygon class="l8d0" points="-0.7000000000000001,385.0 196.0,385.0 196.0,390.0 -0.7000000000000001,390.0"/>
<polygon class="l8d0" points="554.3,389.3 560.7,389.3 560.7,390.0 554.3,390.0"/>
<polygon class="l8d0" points="544.3,385.0 550.7,385.0 550.7,385.7 544.3,385.7"/>
<polygon class="l8d0" points="-0.7000000000000001,380.7 550.7,380.7 550.7,385.0 -0.7000000000000001,385.0"/>
<polygon class="l8d0" points="-0.7000000000000001,380.0 5.700000000000001,380.0 5.700000000000001,380.7 -0.7000000000000001,380.7"/>
<polygon class="l8d0" points="9.3,380.0 550.7,380.0 550.7,380.7 9.3,380.7"/>
<polygon class="l8d0" points="9.3,379.3 15.700000000000001,379.3 15.700000000000001,380.0 9.3,380.0"/>
<polygon class="l8d0" points="544.3,379.3 550.7,379.3 550.7,380.0 544.3,380.0"/>
<polygon class="l8d0" points="17.7,365.0 55.5,365.0 55.5,369.0 17.7,369.0"/>
<polygon class="l8d0" points="93.3,365.0 131.1,365.0 131.1,369.0 93.3,369.0"/>
<polygon class="l8d0" points="68.10000000000001,353.00000000000006 89.1,353.00000000000006 89.1,357.0 68.10000000000001,357.0"/>
<polygon class="l8d0" points="544.3,294.0 550.7,294.0 550.7,294.7 544.3,294.7"/>
<polygon class="l8d0" points="195.2,288.4 550.7,288.4 550.7,294.0 195.2,294.0"/>
<polygon class="l8d0" points="544.3,287.7 550.7,287.7 550.7,288.4 544.3,288.4"/>
<polygon class="l8d0" points="205.2,277.3 226.4,277.3 226.4,282.7 205.2,282.7"/>
<polygon class="l8d0" points="508.8,277.3 530.0,277.3 530.0,282.7 508.8,282.7"/>
<polygon class="l8d0" points="544.3,211.6 550.7,211.6 550.7,212.3 544.3,212.3"/>
<polygon class="l8d0" points="195.2,206.0 550.7,206.0 550.7,211.6 195.2,211.6"/>
<polygon class="l8d0" points="544.3,205.3 550.7,205.3 550.7,206.0 544.3,206.0"/>
<polygon class="l8d0" points="544.3,201.0 550.7,201.0 550.7,201.70000000000002 544.3,201.70000000000002"/>
<polygon class="l8d0" points="195.2,195.39999999999998 550.7,195.39999999999998 550.7,201.0 195.2,201.0"/>
<polygon class="l8d0" points="544.3,194.7 550.7,194.7 550.7,195.39999999999998 544.3,195.39999999999998"/>
<polygon class="l8d0" points="196.0,185.0 225.7,185.0 225.7,189.00000000000003 196.0,189.00000000000003"/>
<polygon class="l8d0" points="508.8,184.3 530.0,184.3 530.0,189.7 508.8,189.7"/>
<polygon class="l8d0" points="-0.7000000000000001,169.3 5.700000000000001,169.3 5.700000000000001,170.0 -0.7000000000000001,170.0"/>
<polygon class="l8d0" points="-0.7000000000000001,156.7 196.0,156.7 196.0,169.3 -0.7000000000000001,169.3"/>
<polygon class="l8d0" points="-0.7000000000000001,156.0 5.700000000000001,156.0 5.700000000000001,156.7 -0.7000000000000001,156.7"/>
<polygon class="l8d0" points="544.3,118.6 550.7,118.6 550.7,119.3 544.3,119.3"/>
<polygon class="l8d0" points="9.3,114.9 15.700000000000001,114.9 15.700000000000001,115.60000000000001 9.3,115.60000000000001"/>
<polygon class="l8d0" points="9.3,102.30000000000001 179.20000000000002,102.30000000000001 179.20000000000002,114.9 9.3,114.9"/>
<polygon class="l8d0" points="195.2,113.0 550.7,113.0 550.7,118.6 195.2,118.6"/>
<polygon class="l8d0" points="544.3,112.30000000000001 550.7,112.30000000000001 550.7,113.0 544.3,113.0"/>
<polygon class="l8d0" points="544.3,108.0 550.7,108.0 550.7,108.70000000000002 544.3,108.70000000000002"/>
<polygon class="l8d0" points="195.2,102.4 550.7,102.4 550.7,108.0 195.2,108.0"/>
<polygon class="l8d0" points="9.3,101.6 15.700000000000001,101.6 15.700000000000001,102.30000000000001 9.3,102.30000000000001"/>
<polygon class="l8d0" points="544.3,101.7 550.7,101.7 550.7,102.4 544.3,102.4"/>
<polygon class="l8d0" points="205.2,91.30000000000001 226.4,91.30000000000001 226.4,96.7 205.2,96.7"/>
<polygon class="l8d0" points="508.8,91.30000000000001 530.0,91.30000000000001 530.0,96.7 508.8,96.7"/>
<polygon class="l8d0" points="17.7,86.6 55.5,86.6 55.5,90.60000000000001 17.7,90.60000000000001"/>
<polygon class="l8d0" points="93.3,86.6 131.1,86.6 131.1,90.60000000000001 93.3,90.60000000000001"/>
<polygon class="l8d0" points="68.10000000000001,74.6 89.1,74.6 89.1,78.60000000000001 68.10000000000001,78.60000000000001"/>
<polygon class="l8d0" points="9.3,50.9 15.700000000000001,50.9 15.700000000000001,51.6 9.3,51.6"/>
<polygon class="l8d0" points="9.3,38.3 179.20000000000002,38.3 179.20000000000002,50.9 9.3,50.9"/>
<polygon class="l8d0" points="9.3,37.6 15.700000000000001,37.6 15.700000000000001,38.3 9.3,38.3"/>
<polygon class="l8d0" points="544.3,25.6 550.7,25.6 550.7,26.299999999999997 544.3,26.299999999999997"/>
<polygon class="l8d0" points="195.2,20.0 550.7,20.0 550.7,25.6 195.2,25.6"/>
<polygon class="l8d0" points="544.3,19.3 550.7,19.3 550.7,20.0 544.3,20.0"/>
<polygon class="l8d0" points="9.3,15.0 15.700000000000001,15.0 15.700000000000001,15.700000000000001 9.3,15.700000000000001"/>
<polygon class="l8d0" points="544.3,15.0 550.7,15.0 550.7,15.700000000000001 544.3,15.700000000000001"/>
<polygon class="l8d0" points="9.3,10.0 550.7,10.0 550.7,15.0 9.3,15.0"/>
<polygon class="l8d0" points="9.3,9.3 15.700000000000001,9.3 15.700000000000001,10.0 9.3,10.0"/>
<polygon class="l8d0" points="544.3,9.3 550.7,9.3 550.7,10.0 544.3,10.0"/>
<polygon class="l8d0" points="-0.7000000000000001,5.0 5.700000000000001,5.0 5.700000000000001,5.700000000000001 -0.7000000000000001,5.700000000000001"/>
<polygon class="l8d0" points="554.3,5.0 560.7,5.0 560.7,5.700000000000001 554.3,5.700000000000001"/>
<polygon class="l8d0" points="-0.7000000000000001,0.0 560.7,0.0 560.7,5.0 -0.7000000000000001,5.0"/>
<polygon class="l8d0" points="-0.7000000000000001,-0.7000000000000001 5.700000000000001,-0.7000000000000001 5.700000000000001,0.0 -0.7000000000000001,0.0"/>
<polygon class="l8d0" points="554.3,-0.7000000000000001 560.7,-0.7000000000000001 560.7,0.0 554.3,0.0"/>
<polygon class="l19d0" points="1.55,393.05 3.45,393.05 3.45,394.95 1.55,394.95"/>
<polygon class="l19d0" points="556.55,391.55 558.45,391.55 558.45,393.45 556.55,393.45"/>
<polygon class="l19d0" points="1.55,388.95000000000005 3.45,388.95000000000005 3.45,390.85 1.55,390.85"/>
<polygon class="l19d0" points="1.55,384.85 3.45,384.85 3.45,386.75000000000006 1.55,386.75000000000006"/>
<polygon class="l19d0" points="1.55,380.75 3.45,380.75 3.45,382.65 1.55,382.65"/>
<polygon class="l19d0" points="11.55,381.55 13.45,381.55 13.45,383.45 11.55,383.45"/>
<polygon class="l19d0" points="546.55,381.55 548.45,381.55 548.45,383.45 546.55,383.45"/>
<polygon class="l19d0" points="546.55,290.25 548.45,290.25 548.45,292.15 546.55,292.15"/>
<polygon class="l19d0" points="206.64999999999998,279.05 208.55,279.05 208.55,280.95 206.64999999999998,280.95"/>
<polygon class="l19d0" points="210.75,279.05 212.65,279.05 212.65,280.95 210.75,280.95"/>
<polygon class="l19d0" points="214.85,279.05 216.75,279.05 216.75,280.95 214.85,280.95"/>
<polygon class="l19d0" points="218.95,279.05 220.85000000000002,279.05 220.85000000000002,280.95 218.95,280.95"/>
<polygon class="l19d0" points="223.05,279.05 224.95000000000002,279.05 224.95000000000002,280.95 223.05,280.95"/>
<polygon class="l19d0" points="510.25,279.05 512.1500000000001,279.05 512.1500000000001,280.95 510.25,280.95"/>
<polygon class="l19d0" points="514.35,279.05 516.25,279.05 516.25,280.95 514.35,280.95"/>
<polygon class="l19d0" points="518.45,279.05 520.35,279.05 520.35,280.95 518.45,280.95"/>
<polygon class="l19d0" points="522.5500000000001,279.05 524.45,279.05 524.45,280.95 522.5500000000001,280.95"/>
<polygon class="l19d0" points="526.65,279.05 528.5500000000001,279.05 528.5500000000001,280.95 526.65,280.95"/>
<polygon class="l19d0" points="546.55,207.85 548.45,207.85 548.45,209.75 546.55,209.75"/>
<polygon class="l19d0" points="546.55,197.25 548.45,197.25 548.45,199.14999999999998 546.55,199.14999999999998"/>
<polygon class="l19d0" points="510.25,186.05 512.1500000000001,186.05 512.1500000000001,187.95000000000002 510.25,187.95000000000002"/>
<polygon class="l19d0" points="514.35,186.05 516.25,186.05 516.25,187.95000000000002 514.35,187.95000000000002"/>
<polygon class="l19d0" points="518.45,186.05 520.35,186.05 520.35,187.95000000000002 518.45,187.95000000000002"/>
<polygon class="l19d0" points="522.5500000000001,186.05 524.45,186.05 524.45,187.95000000000002 522.5500000000001,187.95000000000002"/>
<polygon class="l19d0" points="526.65,186.05 528.5500000000001,186.05 528.5500000000001,187.95000000000002 526.65,187.95000000000002"/>
<polygon class="l19d0" points="1.55,166.15000000000003 3.45,166.15000000000003 3.45,168.05 1.55,168.05"/>
<polygon class="l19d0" points="1.55,162.05 3.45,162.05 3.45,163.95 1.55,163.95"/>
<polygon class="l19d0" points="1.55,157.95 3.45,157.95 3.45,159.85000000000002 1.55,159.85000000000002"/>
<polygon class="l19d0" points="546.55,114.85 548.45,114.85 548.45,116.75 546.55,116.75"/>
<polygon class="l19d0" points="11.55,111.75 13.45,111.75 13.45,113.65 11.55,113.65"/>
<polygon class="l19d0" points="11.55,107.65 13.45,107.65 13.45,109.55 11.55,109.55"/>
<polygon class="l19d0" points="11.55,103.55000000000001 13.45,103.55000000000001 13.45,105.45 11.55,105.45"/>
<polygon class="l19d0" points="546.55,104.25 548.45,104.25 548.45,106.15 546.55,106.15"/>
<polygon class="l19d0" points="206.64999999999998,93.05 208.55,93.05 208.55,94.95000000000002 206.64999999999998,94.95000000000002"/>
<polygon class="l19d0" points="210.75,93.05 212.65,93.05 212.65,94.95000000000002 210.75,94.95000000000002"/>
<polygon class="l19d0" points="214.85,93.05 216.75,93.05 216.75,94.95000000000002 214.85,94.95000000000002"/>
<polygon class="l19d0" points="218.95,93.05 220.85000000000002,93.05 220.85000000000002,94.95000000000002 218.95,94.95000000000002"/>
<polygon class="l19d0" points="223.05,93.05 224.95000000000002,93.05 224.95000000000002,94.95000000000002 223.05,94.95000000000002"/>
<polygon class="l19d0" points="510.25,93.05 512.1500000000001,93.05 512.1500000000001,94.95000000000002 510.25,94.95000000000002"/>
<polygon class="l19d0" points="514.35,93.05 516.25,93.05 516.25,94.95000000000002 514.35,94.95000000000002"/>
<polygon class="l19d0" points="518.45,93.05 520.35,93.05 520.35,94.95000000000002 518.45,94.95000000000002"/>
<polygon class="l19d0" points="522.5500000000001,93.05 524.45,93.05 524.45,94.95000000000002 522.5500000000001,94.95000000000002"/>
<polygon class="l19d0" points="526.65,93.05 528.5500000000001,93.05 528.5500000000001,94.95000000000002 526.65,94.95000000000002"/>
<polygon class="l19d0" points="11.55,47.75 13.45,47.75 13.45,49.65 11.55,49.65"/>
<polygon class="l19d0" points="11.55,43.650000000000006 13.45,43.650000000000006 13.45,45.55 11.55,45.55"/>
<polygon class="l19d0" points="11.55,39.55 13.45,39.55 13.45,41.45 11.55,41.45"/>
<polygon class="l19d0" points="546.55,21.85 548.45,21.85 548.45,23.75 546.55,23.75"/>
<polygon class="l19d0" points="11.55,11.55 13.45,11.55 13.45,13.45 11.55,13.45"/>
<polygon class="l19d0" points="546.55,11.55 548.45,11.55 548.45,13.45 546.55,13.45"/>
<polygon class="l19d0" points="1.55,1.55 3.45,1.55 3.45,3.45 1.55,3.45"/>
<polygon class="l19d0" points="556.55,1.55 558.45,1.55 558.45,3.45 556.55,3.45"/>
<polygon class="l10d0" points="-0.7000000000000001,380.0 5.700000000000001,380.0 5.700000000000001,395.7 -0.7000000000000001,395.7"/>
<polygon class="l10d0" points="554.3,389.3 560.7,389.3 560.7,395.7 554.3,395.7"/>
<polygon class="l10d0" points="0.0,170.0 5.0,170.0 5.0,380.0 0.0,380.0"/>
<polygon class="l10d0" points="9.3,379.3 15.700000000000001,379.3 15.700000000000001,385.7 9.3,385.7"/>
<polygon class="l10d0" points="544.3,379.3 550.7,379.3 550.7,385.7 544.3,385.7"/>
<polygon class="l10d0" points="-0.7000000000000001,156.0 5.700000000000001,156.0 5.700000000000001,170.0 -0.7000000000000001,170.0"/>
<polygon class="l10d0" points="0.0,5.700000000000001 5.0,5.700000000000001 5.0,156.0 0.0,156.0"/>
<polygon class="l10d0" points="10.0,115.60000000000001 15.0,115.60000000000001 15.0,379.3 10.0,379.3"/>
<polygon class="l10d0" points="33.8,352.30000000000007 39.4,352.30000000000007 39.4,357.70000000000005 33.8,357.70000000000005"/>
<polygon class="l10d0" points="109.39999999999999,352.30000000000007 115.0,352.30000000000007 115.0,357.70000000000005 109.39999999999999,357.70000000000005"/>
<polygon class="l10d0" points="143.0,336.3 157.0,336.3 157.0,341.70000000000005 143.0,341.70000000000005"/>
<polygon class="l10d0" points="42.199999999999996,324.3 56.2,324.3 56.2,329.7 42.199999999999996,329.7"/>
<polygon class="l10d0" points="117.8,324.3 131.8,324.3 131.8,329.7 117.8,329.7"/>
<polygon class="l10d0" points="33.8,312.3 39.4,312.3 39.4,317.7 33.8,317.7"/>
<polygon class="l10d0" points="109.39999999999999,312.3 115.0,312.3 115.0,317.7 109.39999999999999,317.7"/>
<polygon class="l10d0" points="67.4,296.3 81.4,296.3 81.4,301.70000000000005 67.4,301.70000000000005"/>
<polygon class="l10d0" points="143.0,296.3 157.0,296.3 157.0,301.70000000000005 143.0,301.70000000000005"/>
<polygon class="l10d0" points="545.0,294.7 550.0,294.7 550.0,379.3 545.0,379.3"/>
<polygon class="l10d0" points="42.199999999999996,284.3 56.2,284.3 56.2,289.7 42.199999999999996,289.7"/>
<polygon class="l10d0" points="117.8,284.3 131.8,284.3 131.8,289.7 117.8,289.7"/>
<polygon class="l10d0" points="544.3,287.7 550.7,287.7 550.7,294.7 544.3,294.7"/>
<polygon class="l10d0" points="33.8,272.3 39.4,272.3 39.4,277.7 33.8,277.7"/>
<polygon class="l10d0" points="109.39999999999999,272.3 115.0,272.3 115.0,277.7 109.39999999999999,277.7"/>
<polygon class="l10d0" points="205.2,277.3 226.4,277.3 226.4,282.7 205.2,282.7"/>
<polygon class="l10d0" points="508.8,277.3 530.0,277.3 530.0,282.7 508.8,282.7"/>
<polygon class="l10d0" points="67.4,256.3 81.4,256.3 81.4,261.70000000000005 67.4,261.70000000000005"/>
<polygon class="l10d0" points="143.0,256.3 157.0,256.3 157.0,261.70000000000005 143.0,261.70000000000005"/>
<polygon class="l10d0" points="42.199999999999996,244.3 56.2,244.3 56.2,249.7 42.199999999999996,249.7"/>
<polygon class="l10d0" points="117.8,244.3 131.8,244.3 131.8,249.7 117.8,249.7"/>
<polygon class="l10d0" points="33.8,232.3 39.4,232.3 39.4,237.7 33.8,237.7"/>
<polygon class="l10d0" points="109.39999999999999,232.3 115.0,232.3 115.0,237.7 109.39999999999999,237.7"/>
<polygon class="l10d0" points="67.4,216.29999999999998 81.4,216.29999999999998 81.4,221.70000000000002 67.4,221.70000000000002"/>
<polygon class="l10d0" points="143.0,216.29999999999998 157.0,216.29999999999998 157.0,221.70000000000002 143.0,221.70000000000002"/>
<polygon class="l10d0" points="545.0,212.3 550.0,212.3 550.0,287.7 545.0,287.7"/>
<polygon class="l10d0" points="42.199999999999996,204.3 56.2,204.3 56.2,209.7 42.199999999999996,209.7"/>
<polygon class="l10d0" points="117.8,204.3 131.8,204.3 131.8,209.7 117.8,209.7"/>
<polygon class="l10d0" points="544.3,205.3 550.7,205.3 550.7,212.3 544.3,212.3"/>
<polygon class="l10d0" points="545.0,201.70000000000002 550.0,201.70000000000002 550.0,205.3 545.0,205.3"/>
<polygon class="l10d0" points="33.8,192.3 39.4,192.3 39.4,197.7 33.8,197.7"/>
<polygon class="l10d0" points="109.39999999999999,192.3 115.0,192.3 115.0,197.7 109.39999999999999,197.7"/>
<polygon class="l10d0" points="544.3,194.7 550.7,194.7 550.7,201.70000000000002 544.3,201.70000000000002"/>
<polygon class="l10d0" points="508.8,184.3 530.0,184.3 530.0,189.7 508.8,189.7"/>
<polygon class="l10d0" points="67.4,176.29999999999998 81.4,176.29999999999998 81.4,181.70000000000002 67.4,181.70000000000002"/>
<polygon class="l10d0" points="143.0,176.29999999999998 157.0,176.29999999999998 157.0,181.70000000000002 143.0,181.70000000000002"/>
<polygon class="l10d0" points="545.0,119.3 550.0,119.3 550.0,194.7 545.0,194.7"/>
<polygon class="l10d0" points="9.3,101.6 15.700000000000001,101.6 15.700000000000001,115.60000000000001 9.3,115.60000000000001"/>
<polygon class="l10d0" points="544.3,112.30000000000001 550.7,112.30000000000001 550.7,119.3 544.3,119.3"/>
<polygon class="l10d0" points="545.0,108.70000000000002 550.0,108.70000000000002 550.0,112.30000000000001 545.0,112.30000000000001"/>
<polygon class="l10d0" points="544.3,101.7 550.7,101.7 550.7,108.70000000000002 544.3,108.70000000000002"/>
<polygon class="l10d0" points="10.0,51.6 15.0,51.6 15.0,101.6 10.0,101.6"/>
<polygon class="l10d0" points="205.2,91.30000000000001 226.4,91.30000000000001 226.4,96.7 205.2,96.7"/>
<polygon class="l10d0" points="508.8,91.30000000000001 530.0,91.30000000000001 530.0,96.7 508.8,96.7"/>
<polygon class="l10d0" points="33.8,73.9 39.4,73.9 39.4,79.30000000000001 33.8,79.30000000000001"/>
<polygon class="l10d0" points="109.39999999999999,73.9 115.0,73.9 115.0,79.30000000000001 109.39999999999999,79.30000000000001"/>
<polygon class="l10d0" points="143.0,57.9 157.0,57.9 157.0,63.3 143.0,63.3"/>
<polygon class="l10d0" points="9.3,37.6 15.700000000000001,37.6 15.700000000000001,51.6 9.3,51.6"/>
<polygon class="l10d0" points="10.0,15.700000000000001 15.0,15.700000000000001 15.0,37.6 10.0,37.6"/>
<polygon class="l10d0" points="545.0,26.299999999999997 550.0,26.299999999999997 550.0,101.7 545.0,101.7"/>
<polygon class="l10d0" points="544.3,19.3 550.7,19.3 550.7,26.299999999999997 544.3,26.299999999999997"/>
<polygon class="l10d0" points="545.0,15.700000000000001 550.0,15.700000000000001 550.0,19.3 545.0,19.3"/>
<polygon class="l10d0" points="9.3,9.3 15.700000000000001,9.3 15.700000000000001,15.700000000000001 9.3,15.700000000000001"/>
<polygon class="l10d0" points="544.3,9.3 550.7,9.3 550.7,15.700000000000001 544.3,15.700000000000001"/>
<polygon class="l10d0" points="555.0,5.700000000000001 560.0,5.700000000000001 560.0,389.3 555.0,389.3"/>
<polygon class="l10d0" points="-0.7000000000000001,-0.7000000000000001 5.700000000000001,-0.7000000000000001 5.700000000000001,5.700000000000001 -0.7000000000000001,5.700000000000001"/>
<polygon class="l10d0" points="554.3,-0.7000000000000001 560.7,-0.7000000000000001 560.7,5.700000000000001 554.3,5.700000000000001"/>
<polygon class="l29d0" points="35.65,354.05 37.55,354.05 37.55,355.95 35.65,355.95"/>
<polygon class="l29d0" points="111.25,354.05 113.14999999999999,354.05 113.14999999999999,355.95 111.25,355.95"/>
<polygon class="l29d0" points="144.95000000000002,338.05 146.85,338.05 146.85,339.95 144.95000000000002,339.95"/>
<polygon class="l29d0" points="149.05,338.05 150.95000000000002,338.05 150.95000000000002,339.95 149.05,339.95"/>
<polygon class="l29d0" points="153.15,338.05 155.05,338.05 155.05,339.95 153.15,339.95"/>
<polygon class="l29d0" points="44.15,326.05000000000007 46.050000000000004,326.05000000000007 46.050000000000004,327.95000000000005 44.15,327.95000000000005"/>
<polygon class="l29d0" points="48.25,326.05000000000007 50.15,326.05000000000007 50.15,327.95000000000005 48.25,327.95000000000005"/>
<polygon class="l29d0" points="52.35,326.05000000000007 54.25,326.05000000000007 54.25,327.95000000000005 52.35,327.95000000000005"/>
<polygon class="l29d0" points="119.75,326.05000000000007 121.65,326.05000000000007 121.65,327.95000000000005 119.75,327.95000000000005"/>
<polygon class="l29d0" points="123.85,326.05000000000007 125.75000000000001,326.05000000000007 125.75000000000001,327.95000000000005 123.85,327.95000000000005"/>
<polygon class="l29d0" points="127.95,326.05000000000007 129.85,326.05000000000007 129.85,327.95000000000005 127.95,327.95000000000005"/>
<polygon class="l29d0" points="35.65,314.05 37.55,314.05 37.55,315.95000000000005 35.65,315.95000000000005"/>
<polygon class="l29d0" points="111.25,314.05 113.14999999999999,314.05 113.14999999999999,315.95000000000005 111.25,315.95000000000005"/>
<polygon class="l29d0" points="69.35000000000001,298.05 71.25,298.05 71.25,299.95 69.35000000000001,299.95"/>
<polygon class="l29d0" points="73.45,298.05 75.35,298.05 75.35,299.95 73.45,299.95"/>
<polygon class="l29d0" points="77.55,298.05 79.45,298.05 79.45,299.95 77.55,299.95"/>
<polygon class="l29d0" points="144.95000000000002,298.05 146.85,298.05 146.85,299.95 144.95000000000002,299.95"/>
<polygon class="l29d0" points="149.05,298.05 150.95000000000002,298.05 150.95000000000002,299.95 149.05,299.95"/>
<polygon class="l29d0" points="153.15,298.05 155.05,298.05 155.05,299.95 153.15,299.95"/>
<polygon class="l29d0" points="44.15,286.05 46.050000000000004,286.05 46.050000000000004,287.95000000000005 44.15,287.95000000000005"/>
<polygon class="l29d0" points="48.25,286.05 50.15,286.05 50.15,287.95000000000005 48.25,287.95000000000005"/>
<polygon class="l29d0" points="52.35,286.05 54.25,286.05 54.25,287.95000000000005 52.35,287.95000000000005"/>
<polygon class="l29d0" points="119.75,286.05 121.65,286.05 121.65,287.95000000000005 119.75,287.95000000000005"/>
<polygon class="l29d0" points="123.85,286.05 125.75000000000001,286.05 125.75000000000001,287.95000000000005 123.85,287.95000000000005"/>
<polygon class="l29d0" points="127.95,286.05 129.85,286.05 129.85,287.95000000000005 127.95,287.95000000000005"/>
<polygon class="l29d0" points="206.64999999999998,279.05 208.55,279.05 208.55,280.95 206.64999999999998,280.95"/>
<polygon class="l29d0" points="210.75,279.05 212.65,279.05 212.65,280.95 210.75,280.95"/>
<polygon class="l29d0" points="214.85,279.05 216.75,279.05 216.75,280.95 214.85,280.95"/>
<polygon class="l29d0" points="218.95,279.05 220.85000000000002,279.05 220.85000000000002,280.95 218.95,280.95"/>
<polygon class="l29d0" points="223.05,279.05 224.95000000000002,279.05 224.95000000000002,280.95 223.05,280.95"/>
<polygon class="l29d0" points="510.25,279.05 512.1500000000001,279.05 512.1500000000001,280.95 510.25,280.95"/>
<polygon class="l29d0" points="514.35,279.05 516.25,279.05 516.25,280.95 514.35,280.95"/>
<polygon class="l29d0" points="518.45,279.05 520.35,279.05 520.35,280.95 518.45,280.95"/>
<polygon class="l29d0" points="522.5500000000001,279.05 524.45,279.05 524.45,280.95 522.5500000000001,280.95"/>
<polygon class="l29d0" points="526.65,279.05 528.5500000000001,279.05 528.5500000000001,280.95 526.65,280.95"/>
<polygon class="l29d0" points="35.65,274.05 37.55,274.05 37.55,275.95 35.65,275.95"/>
<polygon class="l29d0" points="111.25,274.05 113.14999999999999,274.05 113.14999999999999,275.95 111.25,275.95"/>
<polygon class="l29d0" points="69.35000000000001,258.05 71.25,258.05 71.25,259.95 69.35000000000001,259.95"/>
<polygon class="l29d0" points="73.45,258.05 75.35,258.05 75.35,259.95 73.45,259.95"/>
<polygon class="l29d0" points="77.55,258.05 79.45,258.05 79.45,259.95 77.55,259.95"/>
<polygon class="l29d0" points="144.95000000000002,258.05 146.85,258.05 146.85,259.95 144.95000000000002,259.95"/>
<polygon class="l29d0" points="149.05,258.05 150.95000000000002,258.05 150.95000000000002,259.95 149.05,259.95"/>
<polygon class="l29d0" points="153.15,258.05 155.05,258.05 155.05,259.95 153.15,259.95"/>
<polygon class="l29d0" points="44.15,246.05 46.050000000000004,246.05 46.050000000000004,247.95000000000002 44.15,247.95000000000002"/>
<polygon class="l29d0" points="48.25,246.05 50.15,246.05 50.15,247.95000000000002 48.25,247.95000000000002"/>
<polygon class="l29d0" points="52.35,246.05 54.25,246.05 54.25,247.95000000000002 52.35,247.95000000000002"/>
<polygon class="l29d0" points="119.75,246.05 121.65,246.05 121.65,247.95000000000002 119.75,247.95000000000002"/>
<polygon class="l29d0" points="123.85,246.05 125.75000000000001,246.05 125.75000000000001,247.95000000000002 123.85,247.95000000000002"/>
<polygon class="l29d0" points="127.95,246.05 129.85,246.05 129.85,247.95000000000002 127.95,247.95000000000002"/>
<polygon class="l29d0" points="35.65,234.05 37.55,234.05 37.55,235.95 35.65,235.95"/>
<polygon class="l29d0" points="111.25,234.05 113.14999999999999,234.05 113.14999999999999,235.95 111.25,235.95"/>
<polygon class="l29d0" points="69.35000000000001,218.05 71.25,218.05 71.25,219.95000000000002 69.35000000000001,219.95000000000002"/>
<polygon class="l29d0" points="73.45,218.05 75.35,218.05 75.35,219.95000000000002 73.45,219.95000000000002"/>
<polygon class="l29d0" points="77.55,218.05 79.45,218.05 79.45,219.95000000000002 77.55,219.95000000000002"/>
<polygon class="l29d0" points="144.95000000000002,218.05 146.85,218.05 146.85,219.95000000000002 144.95000000000002,219.95000000000002"/>
<polygon class="l29d0" points="149.05,218.05 150.95000000000002,218.05 150.95000000000002,219.95000000000002 149.05,219.95000000000002"/>
<polygon class="l29d0" points="153.15,218.05 155.05,218.05 155.05,219.95000000000002 153.15,219.95000000000002"/>
<polygon class="l29d0" points="44.15,206.05 46.050000000000004,206.05 46.050000000000004,207.95000000000002 44.15,207.95000000000002"/>
<polygon class="l29d0" points="48.25,206.05 50.15,206.05 50.15,207.95000000000002 48.25,207.95000000000002"/>
<polygon class="l29d0" points="52.35,206.05 54.25,206.05 54.25,207.95000000000002 52.35,207.95000000000002"/>
<polygon class="l29d0" points="119.75,206.05 121.65,206.05 121.65,207.95000000000002 119.75,207.95000000000002"/>
<polygon class="l29d0" points="123.85,206.05 125.75000000000001,206.05 125.75000000000001,207.95000000000002 123.85,207.95000000000002"/>
<polygon class="l29d0" points="127.95,206.05 129.85,206.05 129.85,207.95000000000002 127.95,207.95000000000002"/>
<polygon class="l29d0" points="35.65,194.05 37.55,194.05 37.55,195.95 35.65,195.95"/>
<polygon class="l29d0" points="111.25,194.05 113.14999999999999,194.05 113.14999999999999,195.95 111.25,195.95"/>
<polygon class="l29d0" points="510.25,186.05 512.1500000000001,186.05 512.1500000000001,187.95000000000002 510.25,187.95000000000002"/>
<polygon class="l29d0" points="514.35,186.05 516.25,186.05 516.25,187.95000000000002 514.35,187.95000000000002"/>
<polygon class="l29d0" points="518.45,186.05 520.35,186.05 520.35,187.95000000000002 518.45,187.95000000000002"/>
<polygon class="l29d0" points="522.5500000000001,186.05 524.45,186.05 524.45,187.95000000000002 522.5500000000001,187.95000000000002"/>
<polygon class="l29d0" points="526.65,186.05 528.5500000000001,186.05 528.5500000000001,187.95000000000002 526.65,187.95000000000002"/>
<polygon class="l29d0" points="69.35000000000001,178.05 71.25,178.05 71.25,179.95000000000002 69.35000000000001,179.95000000000002"/>
<polygon class="l29d0" points="73.45,178.05 75.35,178.05 75.35,179.95000000000002 73.45,179.95000000000002"/>
<polygon class="l29d0" points="77.55,178.05 79.45,178.05 79.45,179.95000000000002 77.55,179.95000000000002"/>
<polygon class="l29d0" points="144.95000000000002,178.05 146.85,178.05 146.85,179.95000000000002 144.95000000000002,179.95000000000002"/>
<polygon class="l29d0" points="149.05,178.05 150.95000000000002,178.05 150.95000000000002,179.95000000000002 149.05,179.95000000000002"/>
<polygon class="l29d0" points="153.15,178.05 155.05,178.05 155.05,179.95000000000002 153.15,179.95000000000002"/>
<polygon class="l29d0" points="206.64999999999998,93.05 208.55,93.05 208.55,94.95000000000002 206.64999999999998,94.95000000000002"/>
<polygon class="l29d0" points="210.75,93.05 212.65,93.05 212.65,94.95000000000002 210.75,94.95000000000002"/>
<polygon class="l29d0" points="214.85,93.05 216.75,93.05 216.75,94.95000000000002 214.85,94.95000000000002"/>
<polygon class="l29d0" points="218.95,93.05 220.85000000000002,93.05 220.85000000000002,94.95000000000002 218.95,94.95000000000002"/>
<polygon class="l29d0" points="223.05,93.05 224.95000000000002,93.05 224.95000000000002,94.95000000000002 223.05,94.95000000000002"/>
<polygon class="l29d0" points="510.25,93.05 512.1500000000001,93.05 512.1500000000001,94.95000000000002 510.25,94.95000000000002"/>
<polygon class="l29d0" points="514.35,93.05 516.25,93.05 516.25,94.95000000000002 514.35,94.95000000000002"/>
<polygon class="l29d0" points="518.45,93.05 520.35,93.05 520.35,94.95000000000002 518.45,94.95000000000002"/>
<polygon class="l29d0" points="522.5500000000001,93.05 524.45,93.05 524.45,94.95000000000002 522.5500000000001,94.95000000000002"/>
<polygon class="l29d0" points="526.65,93.05 528.5500000000001,93.05 528.5500000000001,94.95000000000002 526.65,94.95000000000002"/>
<polygon class="l29d0" points="35.65,75.65 37.55,75.65 37.55,77.55 35.65,77.55"/>
<polygon class="l29d0" points="111.25,75.65 113.14999999999999,75.65 113.14999999999999,77.55 111.25,77.55"/>
<polygon class="l29d0" points="144.95000000000002,59.65 146.85,59.65 146.85,61.550000000000004 144.95000000000002,61.550000000000004"/>
<polygon class="l29d0" points="149.05,59.65 150.95000000000002,59.65 150.95000000000002,61.550000000000004 149.05,61.550000000000004"/>
<polygon class="l29d0" points="153.15,59.65 155.05,59.65 155.05,61.550000000000004 153.15,61.550000000000004"/>
<polygon class="l30d0" points="33.8,356.2 39.4,356.2 39.4,357.70000000000005 33.8,357.70000000000005"/>
<polygon class="l30d0" points="109.39999999999999,356.2 115.0,356.2 115.0,357.70000000000005 109.39999999999999,357.70000000000005"/>
<polygon class="l30d0" points="240.9,356.2 245.3,356.2 245.3,356.9 240.9,356.9"/>
<polygon class="l30d0" points="33.8,353.2 245.3,353.2 245.3,356.2 33.8,356.2"/>
<polygon class="l30d0" points="33.8,352.30000000000007 39.4,352.30000000000007 39.4,353.2 33.8,353.2"/>
<polygon class="l30d0" points="109.39999999999999,352.30000000000007 115.0,352.30000000000007 115.0,353.2 109.39999999999999,353.2"/>
<polygon class="l30d0" points="240.9,352.5 245.3,352.5 245.3,353.2 240.9,353.2"/>
<polygon class="l30d0" points="122.4,339.7 126.8,339.7 126.8,340.4 122.4,340.4"/>
<polygon class="l30d0" points="143.0,339.7 157.0,339.7 157.0,341.70000000000005 143.0,341.70000000000005"/>
<polygon class="l30d0" points="122.4,336.70000000000005 157.0,336.70000000000005 157.0,339.7 122.4,339.7"/>
<polygon class="l30d0" points="122.4,336.0 126.8,336.0 126.8,336.70000000000005 122.4,336.70000000000005"/>
<polygon class="l30d0" points="143.0,336.3 157.0,336.3 157.0,336.70000000000005 143.0,336.70000000000005"/>
<polygon class="l30d0" points="42.199999999999996,328.5 56.2,328.5 56.2,329.7 42.199999999999996,329.7"/>
<polygon class="l30d0" points="117.8,328.5 131.8,328.5 131.8,329.7 117.8,329.7"/>
<polygon class="l30d0" points="42.199999999999996,325.5 131.8,325.5 131.8,328.5 42.199999999999996,328.5"/>
<polygon class="l30d0" points="42.199999999999996,324.3 56.2,324.3 56.2,325.5 42.199999999999996,325.5"/>
<polygon class="l30d0" points="117.8,324.3 131.8,324.3 131.8,325.5 117.8,325.5"/>
<polygon class="l30d0" points="21.6,316.3 26.0,316.3 26.0,317.0 21.6,317.0"/>
<polygon class="l30d0" points="33.8,316.3 39.4,316.3 39.4,317.7 33.8,317.7"/>
<polygon class="l30d0" points="21.6,313.3 39.4,313.3 39.4,316.3 21.6,316.3"/>
<polygon class="l30d0" points="21.6,312.6 26.0,312.6 26.0,313.3 21.6,313.3"/>
<polygon class="l30d0" points="33.8,312.3 39.4,312.3 39.4,313.3 33.8,313.3"/>
<polygon class="l30d0" points="96.8,316.3 101.20000000000002,316.3 101.20000000000002,317.0 96.8,317.0"/>
<polygon class="l30d0" points="109.39999999999999,316.3 115.0,316.3 115.0,317.7 109.39999999999999,317.7"/>
<polygon class="l30d0" points="96.8,313.3 115.0,313.3 115.0,316.3 96.8,316.3"/>
<polygon class="l30d0" points="96.8,312.6 101.20000000000002,312.6 101.20000000000002,313.3 96.8,313.3"/>
<polygon class="l30d0" points="109.39999999999999,312.3 115.0,312.3 115.0,313.3 109.39999999999999,313.3"/>
<polygon class="l30d0" points="67.4,300.3 81.4,300.3 81.4,301.70000000000005 67.4,301.70000000000005"/>
<polygon class="l30d0" points="143.0,300.3 157.0,300.3 157.0,301.70000000000005 143.0,301.70000000000005"/>
<polygon class="l30d0" points="67.4,297.3 157.0,297.3 157.0,300.3 67.4,300.3"/>
<polygon class="l30d0" points="67.4,296.3 81.4,296.3 81.4,297.3 67.4,297.3"/>
<polygon class="l30d0" points="143.0,296.3 157.0,296.3 157.0,297.3 143.0,297.3"/>
<polygon class="l30d0" points="42.199999999999996,284.3 56.2,284.3 56.2,289.7 42.199999999999996,289.7"/>
<polygon class="l30d0" points="117.8,284.3 131.8,284.3 131.8,289.7 117.8,289.7"/>
<polygon class="l30d0" points="21.6,276.3 26.0,276.3 26.0,277.0 21.6,277.0"/>
<polygon class="l30d0" points="33.8,276.3 39.4,276.3 39.4,277.7 33.8,277.7"/>
<polygon class="l30d0" points="96.8,276.3 101.20000000000002,276.3 101.20000000000002,277.0 96.8,277.0"/>
<polygon class="l30d0" points="109.39999999999999,276.3 115.0,276.3 115.0,277.7 109.39999999999999,277.7"/>
<polygon class="l30d0" points="205.2,277.3 226.4,277.3 226.4,282.7 205.2,282.7"/>
<polygon class="l30d0" points="493.5,280.7 497.9,280.7 497.9,281.4 493.5,281.4"/>
<polygon class="l30d0" points="508.8,280.7 530.0,280.7 530.0,282.7 508.8,282.7"/>
<polygon class="l30d0" points="493.5,277.7 530.0,277.7 530.0,280.7 493.5,280.7"/>
<polygon class="l30d0" points="493.5,277.0 497.9,277.0 497.9,277.7 493.5,277.7"/>
<polygon class="l30d0" points="508.8,277.3 530.0,277.3 530.0,277.7 508.8,277.7"/>
<polygon class="l30d0" points="21.6,273.3 115.0,273.3 115.0,276.3 21.6,276.3"/>
<polygon class="l30d0" points="21.6,272.6 26.0,272.6 26.0,273.3 21.6,273.3"/>
<polygon class="l30d0" points="33.8,272.3 39.4,272.3 39.4,273.3 33.8,273.3"/>
<polygon class="l30d0" points="96.8,272.6 101.20000000000002,272.6 101.20000000000002,273.3 96.8,273.3"/>
<polygon class="l30d0" points="109.39999999999999,272.3 115.0,272.3 115.0,273.3 109.39999999999999,273.3"/>
<polygon class="l30d0" points="67.4,256.3 81.4,256.3 81.4,261.70000000000005 67.4,261.70000000000005"/>
<polygon class="l30d0" points="143.0,260.3 157.0,260.3 157.0,261.70000000000005 143.0,261.70000000000005"/>
<polygon class="l30d0" points="162.7,260.3 167.10000000000002,260.3 167.10000000000002,261.0 162.7,261.0"/>
<polygon class="l30d0" points="143.0,257.3 167.10000000000002,257.3 167.10000000000002,260.3 143.0,260.3"/>
<polygon class="l30d0" points="143.0,256.3 157.0,256.3 157.0,257.3 143.0,257.3"/>
<polygon class="l30d0" points="162.7,256.6 167.10000000000002,256.6 167.10000000000002,257.3 162.7,257.3"/>
<polygon class="l30d0" points="42.199999999999996,244.3 56.2,244.3 56.2,249.7 42.199999999999996,249.7"/>
<polygon class="l30d0" points="117.8,244.3 131.8,244.3 131.8,249.7 117.8,249.7"/>
<polygon class="l30d0" points="21.6,236.29999999999998 26.0,236.29999999999998 26.0,237.0 21.6,237.0"/>
<polygon class="l30d0" points="33.8,236.29999999999998 39.4,236.29999999999998 39.4,237.7 33.8,237.7"/>
<polygon class="l30d0" points="96.8,236.29999999999998 101.20000000000002,236.29999999999998 101.20000000000002,237.0 96.8,237.0"/>
<polygon class="l30d0" points="109.39999999999999,236.29999999999998 115.0,236.29999999999998 115.0,237.7 109.39999999999999,237.7"/>
<polygon class="l30d0" points="21.6,233.3 115.0,233.3 115.0,236.29999999999998 21.6,236.29999999999998"/>
<polygon class="l30d0" points="21.6,232.60000000000002 26.0,232.60000000000002 26.0,233.3 21.6,233.3"/>
<polygon class="l30d0" points="33.8,232.3 39.4,232.3 39.4,233.3 33.8,233.3"/>
<polygon class="l30d0" points="96.8,232.60000000000002 101.20000000000002,232.60000000000002 101.20000000000002,233.3 96.8,233.3"/>
<polygon class="l30d0" points="109.39999999999999,232.3 115.0,232.3 115.0,233.3 109.39999999999999,233.3"/>
<polygon class="l30d0" points="67.4,220.3 81.4,220.3 81.4,221.70000000000002 67.4,221.70000000000002"/>
<polygon class="l30d0" points="143.0,220.3 157.0,220.3 157.0,221.70000000000002 143.0,221.70000000000002"/>
<polygon class="l30d0" points="67.4,217.3 157.0,217.3 157.0,220.3 67.4,220.3"/>
<polygon class="l30d0" points="67.4,216.29999999999998 81.4,216.29999999999998 81.4,217.3 67.4,217.3"/>
<polygon class="l30d0" points="143.0,216.29999999999998 157.0,216.29999999999998 157.0,217.3 143.0,217.3"/>
<polygon class="l30d0" points="42.199999999999996,208.5 56.2,208.5 56.2,209.7 42.199999999999996,209.7"/>
<polygon class="l30d0" points="117.8,208.5 131.8,208.5 131.8,209.7 117.8,209.7"/>
<polygon class="l30d0" points="42.199999999999996,205.5 131.8,205.5 131.8,208.5 42.199999999999996,208.5"/>
<polygon class="l30d0" points="42.199999999999996,204.3 56.2,204.3 56.2,205.5 42.199999999999996,205.5"/>
<polygon class="l30d0" points="117.8,204.3 131.8,204.3 131.8,205.5 117.8,205.5"/>
<polygon class="l30d0" points="213.5,204.1 217.89999999999998,204.1 217.89999999999998,204.8 213.5,204.8"/>
<polygon class="l30d0" points="515.9000000000001,204.1 520.3,204.1 520.3,204.8 515.9000000000001,204.8"/>
<polygon class="l30d0" points="213.5,201.1 520.3,201.1 520.3,204.1 213.5,204.1"/>
<polygon class="l30d0" points="213.5,200.39999999999998 217.89999999999998,200.39999999999998 217.89999999999998,201.1 213.5,201.1"/>
<polygon class="l30d0" points="515.9000000000001,200.39999999999998 520.3,200.39999999999998 520.3,201.1 515.9000000000001,201.1"/>
<polygon class="l30d0" points="21.6,196.29999999999998 26.0,196.29999999999998 26.0,197.0 21.6,197.0"/>
<polygon class="l30d0" points="33.8,196.29999999999998 39.4,196.29999999999998 39.4,197.7 33.8,197.7"/>
<polygon class="l30d0" points="21.6,193.3 39.4,193.3 39.4,196.29999999999998 21.6,196.29999999999998"/>
<polygon class="l30d0" points="21.6,192.60000000000002 26.0,192.60000000000002 26.0,193.3 21.6,193.3"/>
<polygon class="l30d0" points="33.8,192.3 39.4,192.3 39.4,193.3 33.8,193.3"/>
<polygon class="l30d0" points="96.8,196.29999999999998 101.20000000000002,196.29999999999998 101.20000000000002,197.0 96.8,197.0"/>
<polygon class="l30d0" points="109.39999999999999,196.29999999999998 115.0,196.29999999999998 115.0,197.7 109.39999999999999,197.7"/>
<polygon class="l30d0" points="96.8,193.3 115.0,193.3 115.0,196.29999999999998 96.8,196.29999999999998"/>
<polygon class="l30d0" points="96.8,192.60000000000002 101.20000000000002,192.60000000000002 101.20000000000002,193.3 96.8,193.3"/>
<polygon class="l30d0" points="109.39999999999999,192.3 115.0,192.3 115.0,193.3 109.39999999999999,193.3"/>
<polygon class="l30d0" points="508.8,184.3 530.0,184.3 530.0,189.7 508.8,189.7"/>
<polygon class="l30d0" points="67.4,176.29999999999998 81.4,176.29999999999998 81.4,181.70000000000002 67.4,181.70000000000002"/>
<polygon class="l30d0" points="143.0,176.29999999999998 157.0,176.29999999999998 157.0,181.70000000000002 143.0,181.70000000000002"/>
<polygon class="l30d0" points="213.5,175.10000000000002 217.89999999999998,175.10000000000002 217.89999999999998,175.8 213.5,175.8"/>
<polygon class="l30d0" points="493.5,175.10000000000002 497.9,175.10000000000002 497.9,175.8 493.5,175.8"/>
<polygon class="l30d0" points="213.5,172.10000000000002 497.9,172.10000000000002 497.9,175.10000000000002 213.5,175.10000000000002"/>
<polygon class="l30d0" points="213.5,171.4 217.89999999999998,171.4 217.89999999999998,172.10000000000002 213.5,172.10000000000002"/>
<polygon class="l30d0" points="493.5,171.4 497.9,171.4 497.9,172.10000000000002 493.5,172.10000000000002"/>
<polygon class="l30d0" points="205.2,91.30000000000001 226.4,91.30000000000001 226.4,96.7 205.2,96.7"/>
<polygon class="l30d0" points="240.9,95.4 245.3,95.4 245.3,96.1 240.9,96.1"/>
<polygon class="l30d0" points="508.8,95.4 530.0,95.4 530.0,96.7 508.8,96.7"/>
<polygon class="l30d0" points="240.9,92.4 530.0,92.4 530.0,95.4 240.9,95.4"/>
<polygon class="l30d0" points="240.9,91.7 245.3,91.7 245.3,92.4 240.9,92.4"/>
<polygon class="l30d0" points="508.8,91.30000000000001 530.0,91.30000000000001 530.0,92.4 508.8,92.4"/>
<polygon class="l30d0" points="33.8,77.9 39.4,77.9 39.4,79.30000000000001 33.8,79.30000000000001"/>
<polygon class="l30d0" points="71.4,77.9 75.8,77.9 75.8,78.60000000000001 71.4,78.60000000000001"/>
<polygon class="l30d0" points="109.39999999999999,77.9 115.0,77.9 115.0,79.30000000000001 109.39999999999999,79.30000000000001"/>
<polygon class="l30d0" points="33.8,74.9 115.0,74.9 115.0,77.9 33.8,77.9"/>
<polygon class="l30d0" points="33.8,73.9 39.4,73.9 39.4,74.9 33.8,74.9"/>
<polygon class="l30d0" points="71.4,74.2 75.8,74.2 75.8,74.9 71.4,74.9"/>
<polygon class="l30d0" points="109.39999999999999,73.9 115.0,73.9 115.0,74.9 109.39999999999999,74.9"/>
<polygon class="l30d0" points="143.0,61.900000000000006 157.0,61.900000000000006 157.0,63.3 143.0,63.3"/>
<polygon class="l30d0" points="162.7,61.900000000000006 167.10000000000002,61.900000000000006 167.10000000000002,62.599999999999994 162.7,62.599999999999994"/>
<polygon class="l30d0" points="143.0,58.9 167.10000000000002,58.9 167.10000000000002,61.900000000000006 143.0,61.900000000000006"/>
<polygon class="l30d0" points="143.0,57.9 157.0,57.9 157.0,58.9 143.0,58.9"/>
<polygon class="l30d0" points="162.7,58.2 167.10000000000002,58.2 167.10000000000002,58.9 162.7,58.9"/>
<polygon class="l49d0" points="242.15,353.75 244.05,353.75 244.05,355.65 242.15,355.65"/>
<polygon class="l49d0" points="123.65,337.25 125.55,337.25 125.55,339.15 123.65,339.15"/>
<polygon class="l49d0" points="44.15,326.05000000000007 46.050000000000004,326.05000000000007 46.050000000000004,327.95000000000005 44.15,327.95000000000005"/>
<polygon class="l49d0" points="48.25,326.05000000000007 50.15,326.05000000000007 50.15,327.95000000000005 48.25,327.95000000000005"/>
<polygon class="l49d0" points="52.35,326.05000000000007 54.25,326.05000000000007 54.25,327.95000000000005 52.35,327.95000000000005"/>
<polygon class="l49d0" points="119.75,326.05000000000007 121.65,326.05000000000007 121.65,327.95000000000005 119.75,327.95000000000005"/>
<polygon class="l49d0" points="123.85,326.05000000000007 125.75000000000001,326.05000000000007 125.75000000000001,327.95000000000005 123.85,327.95000000000005"/>
<polygon class="l49d0" points="127.95,326.05000000000007 129.85,326.05000000000007 129.85,327.95000000000005 127.95,327.95000000000005"/>
<polygon class="l49d0" points="22.85,313.85 24.75,313.85 24.75,315.75 22.85,315.75"/>
<polygon class="l49d0" points="98.05,313.85 99.95000000000002,313.85 99.95000000000002,315.75 98.05,315.75"/>
<polygon class="l49d0" points="69.35000000000001,298.05 71.25,298.05 71.25,299.95 69.35000000000001,299.95"/>
<polygon class="l49d0" points="73.45,298.05 75.35,298.05 75.35,299.95 73.45,299.95"/>
<polygon class="l49d0" points="77.55,298.05 79.45,298.05 79.45,299.95 77.55,299.95"/>
<polygon class="l49d0" points="144.95000000000002,298.05 146.85,298.05 146.85,299.95 144.95000000000002,299.95"/>
<polygon class="l49d0" points="149.05,298.05 150.95000000000002,298.05 150.95000000000002,299.95 149.05,299.95"/>
<polygon class="l49d0" points="153.15,298.05 155.05,298.05 155.05,299.95 153.15,299.95"/>
<polygon class="l49d0" points="44.15,286.05 46.050000000000004,286.05 46.050000000000004,287.95000000000005 44.15,287.95000000000005"/>
<polygon class="l49d0" points="48.25,286.05 50.15,286.05 50.15,287.95000000000005 48.25,287.95000000000005"/>
<polygon class="l49d0" points="52.35,286.05 54.25,286.05 54.25,287.95000000000005 52.35,287.95000000000005"/>
<polygon class="l49d0" points="119.75,286.05 121.65,286.05 121.65,287.95000000000005 119.75,287.95000000000005"/>
<polygon class="l49d0" points="123.85,286.05 125.75000000000001,286.05 125.75000000000001,287.95000000000005 123.85,287.95000000000005"/>
<polygon class="l49d0" points="127.95,286.05 129.85,286.05 129.85,287.95000000000005 127.95,287.95000000000005"/>
<polygon class="l49d0" points="206.64999999999998,279.05 208.55,279.05 208.55,280.95 206.64999999999998,280.95"/>
<polygon class="l49d0" points="210.75,279.05 212.65,279.05 212.65,280.95 210.75,280.95"/>
<polygon class="l49d0" points="214.85,279.05 216.75,279.05 216.75,280.95 214.85,280.95"/>
<polygon class="l49d0" points="218.95,279.05 220.85000000000002,279.05 220.85000000000002,280.95 218.95,280.95"/>
<polygon class="l49d0" points="223.05,279.05 224.95000000000002,279.05 224.95000000000002,280.95 223.05,280.95"/>
<polygon class="l49d0" points="494.75,278.25 496.65,278.25 496.65,280.15 494.75,280.15"/>
<polygon class="l49d0" points="22.85,273.85 24.75,273.85 24.75,275.75 22.85,275.75"/>
<polygon class="l49d0" points="98.05,273.85 99.95000000000002,273.85 99.95000000000002,275.75 98.05,275.75"/>
<polygon class="l49d0" points="69.35000000000001,258.05 71.25,258.05 71.25,259.95 69.35000000000001,259.95"/>
<polygon class="l49d0" points="73.45,258.05 75.35,258.05 75.35,259.95 73.45,259.95"/>
<polygon class="l49d0" points="77.55,258.05 79.45,258.05 79.45,259.95 77.55,259.95"/>
<polygon class="l49d0" points="144.95000000000002,258.05 146.85,258.05 146.85,259.95 144.95000000000002,259.95"/>
<polygon class="l49d0" points="149.05,258.05 150.95000000000002,258.05 150.95000000000002,259.95 149.05,259.95"/>
<polygon class="l49d0" points="153.15,258.05 155.05,258.05 155.05,259.95 153.15,259.95"/>
<polygon class="l49d0" points="163.95,257.85 165.85000000000002,257.85 165.85000000000002,259.75 163.95,259.75"/>
<polygon class="l49d0" points="44.15,246.05 46.050000000000004,246.05 46.050000000000004,247.95000000000002 44.15,247.95000000000002"/>
<polygon class="l49d0" points="48.25,246.05 50.15,246.05 50.15,247.95000000000002 48.25,247.95000000000002"/>
<polygon class="l49d0" points="52.35,246.05 54.25,246.05 54.25,247.95000000000002 52.35,247.95000000000002"/>
<polygon class="l49d0" points="119.75,246.05 121.65,246.05 121.65,247.95000000000002 119.75,247.95000000000002"/>
<polygon class="l49d0" points="123.85,246.05 125.75000000000001,246.05 125.75000000000001,247.95000000000002 123.85,247.95000000000002"/>
<polygon class="l49d0" points="127.95,246.05 129.85,246.05 129.85,247.95000000000002 127.95,247.95000000000002"/>
<polygon class="l49d0" points="22.85,233.85000000000002 24.75,233.85000000000002 24.75,235.75 22.85,235.75"/>
<polygon class="l49d0" points="98.05,233.85000000000002 99.95000000000002,233.85000000000002 99.95000000000002,235.75 98.05,235.75"/>
<polygon class="l49d0" points="69.35000000000001,218.05 71.25,218.05 71.25,219.95000000000002 69.35000000000001,219.95000000000002"/>
<polygon class="l49d0" points="73.45,218.05 75.35,218.05 75.35,219.95000000000002 73.45,219.95000000000002"/>
<polygon class="l49d0" points="77.55,218.05 79.45,218.05 79.45,219.95000000000002 77.55,219.95000000000002"/>
<polygon class="l49d0" points="144.95000000000002,218.05 146.85,218.05 146.85,219.95000000000002 144.95000000000002,219.95000000000002"/>
<polygon class="l49d0" points="149.05,218.05 150.95000000000002,218.05 150.95000000000002,219.95000000000002 149.05,219.95000000000002"/>
<polygon class="l49d0" points="153.15,218.05 155.05,218.05 155.05,219.95000000000002 153.15,219.95000000000002"/>
<polygon class="l49d0" points="44.15,206.05 46.050000000000004,206.05 46.050000000000004,207.95000000000002 44.15,207.95000000000002"/>
<polygon class="l49d0" points="48.25,206.05 50.15,206.05 50.15,207.95000000000002 48.25,207.95000000000002"/>
<polygon class="l49d0" points="52.35,206.05 54.25,206.05 54.25,207.95000000000002 52.35,207.95000000000002"/>
<polygon class="l49d0" points="119.75,206.05 121.65,206.05 121.65,207.95000000000002 119.75,207.95000000000002"/>
<polygon class="l49d0" points="123.85,206.05 125.75000000000001,206.05 125.75000000000001,207.95000000000002 123.85,207.95000000000002"/>
<polygon class="l49d0" points="127.95,206.05 129.85,206.05 129.85,207.95000000000002 127.95,207.95000000000002"/>
<polygon class="l49d0" points="214.75,201.64999999999998 216.64999999999998,201.64999999999998 216.64999999999998,203.55 214.75,203.55"/>
<polygon class="l49d0" points="517.1500000000001,201.64999999999998 519.05,201.64999999999998 519.05,203.55 517.1500000000001,203.55"/>
<polygon class="l49d0" points="22.85,193.85000000000002 24.75,193.85000000000002 24.75,195.75 22.85,195.75"/>
<polygon class="l49d0" points="98.05,193.85000000000002 99.95000000000002,193.85000000000002 99.95000000000002,195.75 98.05,195.75"/>
<polygon class="l49d0" points="510.25,186.05 512.1500000000001,186.05 512.1500000000001,187.95000000000002 510.25,187.95000000000002"/>
<polygon class="l49d0" points="514.35,186.05 516.25,186.05 516.25,187.95000000000002 514.35,187.95000000000002"/>
<polygon class="l49d0" points="518.45,186.05 520.35,186.05 520.35,187.95000000000002 518.45,187.95000000000002"/>
<polygon class="l49d0" points="522.5500000000001,186.05 524.45,186.05 524.45,187.95000000000002 522.5500000000001,187.95000000000002"/>
<polygon class="l49d0" points="526.65,186.05 528.5500000000001,186.05 528.5500000000001,187.95000000000002 526.65,187.95000000000002"/>
<polygon class="l49d0" points="69.35000000000001,178.05 71.25,178.05 71.25,179.95000000000002 69.35000000000001,179.95000000000002"/>
<polygon class="l49d0" points="73.45,178.05 75.35,178.05 75.35,179.95000000000002 73.45,179.95000000000002"/>
<polygon class="l49d0" points="77.55,178.05 79.45,178.05 79.45,179.95000000000002 77.55,179.95000000000002"/>
<polygon class="l49d0" points="144.95000000000002,178.05 146.85,178.05 146.85,179.95000000000002 144.95000000000002,179.95000000000002"/>
<polygon class="l49d0" points="149.05,178.05 150.95000000000002,178.05 150.95000000000002,179.95000000000002 149.05,179.95000000000002"/>
<polygon class="l49d0" points="153.15,178.05 155.05,178.05 155.05,179.95000000000002 153.15,179.95000000000002"/>
<polygon class="l49d0" points="214.75,172.65 216.64999999999998,172.65 216.64999999999998,174.55 214.75,174.55"/>
<polygon class="l49d0" points="494.75,172.65 496.65,172.65 496.65,174.55 494.75,174.55"/>
<polygon class="l49d0" points="206.64999999999998,93.05 208.55,93.05 208.55,94.95000000000002 206.64999999999998,94.95000000000002"/>
<polygon class="l49d0" points="210.75,93.05 212.65,93.05 212.65,94.95000000000002 210.75,94.95000000000002"/>
<polygon class="l49d0" points="214.85,93.05 216.75,93.05 216.75,94.95000000000002 214.85,94.95000000000002"/>
<polygon class="l49d0" points="218.95,93.05 220.85000000000002,93.05 220.85000000000002,94.95000000000002 218.95,94.95000000000002"/>
<polygon class="l49d0" points="223.05,93.05 224.95000000000002,93.05 224.95000000000002,94.95000000000002 223.05,94.95000000000002"/>
<polygon class="l49d0" points="242.15,92.95 244.05,92.95 244.05,94.85 242.15,94.85"/>
<polygon class="l49d0" points="72.65,75.45 74.55,75.45 74.55,77.35000000000001 72.65,77.35000000000001"/>
<polygon class="l49d0" points="163.95,59.45 165.85000000000002,59.45 165.85000000000002,61.349999999999994 163.95,61.349999999999994"/>
<polygon class="l50d0" points="240.9,352.5 245.3,352.5 245.3,356.9 240.9,356.9"/>
<polygon class="l50d0" points="122.4,336.0 126.8,336.0 126.8,340.4 122.4,340.4"/>
<polygon class="l50d0" points="123.10000000000001,329.7 126.1,329.7 126.1,336.0 123.10000000000001,336.0"/>
<polygon class="l50d0" points="42.199999999999996,324.3 56.2,324.3 56.2,329.7 42.199999999999996,329.7"/>
<polygon class="l50d0" points="117.8,324.3 131.8,324.3 131.8,329.7 117.8,329.7"/>
<polygon class="l50d0" points="21.6,312.6 26.0,312.6 26.0,317.0 21.6,317.0"/>
<polygon class="l50d0" points="22.3,277.0 25.300000000000004,277.0 25.300000000000004,312.6 22.3,312.6"/>
<polygon class="l50d0" points="47.9,289.7 50.9,289.7 50.9,324.3 47.9,324.3"/>
<polygon class="l50d0" points="96.8,312.6 101.20000000000002,312.6 101.20000000000002,317.0 96.8,317.0"/>
<polygon class="l50d0" points="67.4,296.3 81.4,296.3 81.4,301.70000000000005 67.4,301.70000000000005"/>
<polygon class="l50d0" points="42.199999999999996,284.3 56.2,284.3 56.2,289.7 42.199999999999996,289.7"/>
<polygon class="l50d0" points="21.6,272.6 26.0,272.6 26.0,277.0 21.6,277.0"/>
<polygon class="l50d0" points="47.9,249.7 50.9,249.7 50.9,284.3 47.9,284.3"/>
<polygon class="l50d0" points="72.2,261.70000000000005 75.2,261.70000000000005 75.2,296.3 72.2,296.3"/>
<polygon class="l50d0" points="97.5,277.0 100.5,277.0 100.5,312.6 97.5,312.6"/>
<polygon class="l50d0" points="123.10000000000001,289.7 126.1,289.7 126.1,324.3 123.10000000000001,324.3"/>
<polygon class="l50d0" points="143.0,296.3 157.0,296.3 157.0,301.70000000000005 143.0,301.70000000000005"/>
<polygon class="l50d0" points="117.8,284.3 131.8,284.3 131.8,289.7 117.8,289.7"/>
<polygon class="l50d0" points="96.8,272.6 101.20000000000002,272.6 101.20000000000002,277.0 96.8,277.0"/>
<polygon class="l50d0" points="149.0,261.70000000000005 152.0,261.70000000000005 152.0,296.3 149.0,296.3"/>
<polygon class="l50d0" points="205.2,277.3 226.4,277.3 226.4,282.7 205.2,282.7"/>
<polygon class="l50d0" points="67.4,256.3 81.4,256.3 81.4,261.70000000000005 67.4,261.70000000000005"/>
<polygon class="l50d0" points="143.0,256.3 157.0,256.3 157.0,261.70000000000005 143.0,261.70000000000005"/>
<polygon class="l50d0" points="162.7,256.6 167.10000000000002,256.6 167.10000000000002,261.0 162.7,261.0"/>
<polygon class="l50d0" points="42.199999999999996,244.3 56.2,244.3 56.2,249.7 42.199999999999996,249.7"/>
<polygon class="l50d0" points="117.8,244.3 131.8,244.3 131.8,249.7 117.8,249.7"/>
<polygon class="l50d0" points="21.6,232.60000000000002 26.0,232.60000000000002 26.0,237.0 21.6,237.0"/>
<polygon class="l50d0" points="22.3,197.0 25.300000000000004,197.0 25.300000000000004,232.60000000000002 22.3,232.60000000000002"/>
<polygon class="l50d0" points="47.9,209.7 50.9,209.7 50.9,244.3 47.9,244.3"/>
<polygon class="l50d0" points="96.8,232.60000000000002 101.20000000000002,232.60000000000002 101.20000000000002,237.0 96.8,237.0"/>
<polygon class="l50d0" points="67.4,216.29999999999998 81.4,216.29999999999998 81.4,221.70000000000002 67.4,221.70000000000002"/>
<polygon class="l50d0" points="42.199999999999996,204.3 56.2,204.3 56.2,209.7 42.199999999999996,209.7"/>
<polygon class="l50d0" points="21.6,192.60000000000002 26.0,192.60000000000002 26.0,197.0 21.6,197.0"/>
<polygon class="l50d0" points="72.1,181.70000000000002 75.1,181.70000000000002 75.1,216.29999999999998 72.1,216.29999999999998"/>
<polygon class="l50d0" points="97.5,197.0 100.5,197.0 100.5,232.60000000000002 97.5,232.60000000000002"/>
<polygon class="l50d0" points="123.10000000000001,209.7 126.1,209.7 126.1,244.3 123.10000000000001,244.3"/>
<polygon class="l50d0" points="143.0,216.29999999999998 157.0,216.29999999999998 157.0,221.70000000000002 143.0,221.70000000000002"/>
<polygon class="l50d0" points="117.8,204.3 131.8,204.3 131.8,209.7 117.8,209.7"/>
<polygon class="l50d0" points="96.8,192.60000000000002 101.20000000000002,192.60000000000002 101.20000000000002,197.0 96.8,197.0"/>
<polygon class="l50d0" points="148.9,181.70000000000002 151.9,181.70000000000002 151.9,216.29999999999998 148.9,216.29999999999998"/>
<polygon class="l50d0" points="67.4,176.29999999999998 81.4,176.29999999999998 81.4,181.70000000000002 67.4,181.70000000000002"/>
<polygon class="l50d0" points="143.0,176.29999999999998 157.0,176.29999999999998 157.0,181.70000000000002 143.0,181.70000000000002"/>
<polygon class="l50d0" points="72.1,78.60000000000001 75.1,78.60000000000001 75.1,176.29999999999998 72.1,176.29999999999998"/>
<polygon class="l50d0" points="71.4,74.2 75.8,74.2 75.8,78.60000000000001 71.4,78.60000000000001"/>
<polygon class="l50d0" points="163.4,62.599999999999994 166.4,62.599999999999994 166.4,256.6 163.4,256.6"/>
<polygon class="l50d0" points="214.20000000000002,204.8 217.2,204.8 217.2,277.3 214.20000000000002,277.3"/>
<polygon class="l50d0" points="213.5,200.39999999999998 217.89999999999998,200.39999999999998 217.89999999999998,204.8 213.5,204.8"/>
<polygon class="l50d0" points="213.5,171.4 217.89999999999998,171.4 217.89999999999998,175.8 213.5,175.8"/>
<polygon class="l50d0" points="214.20000000000002,96.7 217.2,96.7 217.2,171.4 214.20000000000002,171.4"/>
<polygon class="l50d0" points="205.2,91.30000000000001 226.4,91.30000000000001 226.4,96.7 205.2,96.7"/>
<polygon class="l50d0" points="241.6,96.1 244.60000000000002,96.1 244.60000000000002,352.5 241.6,352.5"/>
<polygon class="l50d0" points="493.5,277.0 497.9,277.0 497.9,281.4 493.5,281.4"/>
<polygon class="l50d0" points="494.20000000000005,175.8 497.2,175.8 497.2,277.0 494.20000000000005,277.0"/>
<polygon class="l50d0" points="515.9000000000001,200.39999999999998 520.3,200.39999999999998 520.3,204.8 515.9000000000001,204.8"/>
<polygon class="l50d0" points="516.6,189.7 519.6,189.7 519.6,200.39999999999998 516.6,200.39999999999998"/>
<polygon class="l50d0" points="508.8,184.3 530.0,184.3 530.0,189.7 508.8,189.7"/>
<polygon class="l50d0" points="493.5,171.4 497.9,171.4 497.9,175.8 493.5,175.8"/>
<polygon class="l50d0" points="240.9,91.7 245.3,91.7 245.3,96.1 240.9,96.1"/>
<polygon class="l50d0" points="162.7,58.2 167.10000000000002,58.2 167.10000000000002,62.599999999999994 162.7,62.599999999999994"/>
<polygon class="l30d2" points="97.5,193.3 111.8,193.3 111.8,196.29999999999998 97.5,196.29999999999998"/>
<polygon class="l30d2" points="22.3,313.3 36.6,313.3 36.6,316.3 22.3,316.3"/>
<polygon class="l8d2" points="0.0,390.0 560.0,390.0 560.0,395.0 0.0,395.0"/>
<polygon class="l8d2" points="10.0,380.0 550.0,380.0 550.0,385.0 10.0,385.0"/>
<polygon class="l30d2" points="150.5,58.9 166.4,58.9 166.4,61.900000000000006 150.5,61.900000000000006"/>
<polygon class="l999d0" points="93.0,54.3 93.0,98.9 181.8,98.9 181.8,54.3"/>
<polygon class="l999d0" points="93.0,94.3 93.0,120.60000000000001 181.8,120.60000000000001 181.8,94.3"/>
<polygon class="l999d0" points="93.0,32.6 93.0,58.900000000000006 181.8,58.900000000000006 181.8,32.6"/>
<polygon class="l999d0" points="194.89999999999998,19.7 194.89999999999998,108.3 540.3,108.3 540.3,19.7"/>
<polygon class="l999d0" points="194.89999999999998,112.70000000000002 194.89999999999998,201.3 540.3,201.3 540.3,112.70000000000002"/>
<polygon class="l999d0" points="89.1,168.79999999999998 89.1,221.20000000000002 185.7,221.20000000000002 185.7,168.79999999999998"/>
<polygon class="l999d0" points="89.1,144.8 89.1,181.20000000000002 185.7,181.20000000000002 185.7,144.8"/>
<polygon class="l999d0" points="194.89999999999998,205.7 194.89999999999998,294.3 540.3,294.3 540.3,205.7"/>
<polygon class="l999d0" points="89.1,208.79999999999998 89.1,261.2 185.7,261.2 185.7,208.79999999999998"/>
<polygon class="l999d0" points="89.1,248.79999999999998 89.1,301.2 185.7,301.2 185.7,248.79999999999998"/>
<polygon class="l999d0" points="89.1,288.8 89.1,341.2 185.7,341.2 185.7,288.8"/>
<polygon class="l999d0" points="89.1,328.8 89.1,381.2 185.7,381.2 185.7,328.8"/>
<polygon class="l999d0" points="17.4,54.3 17.4,98.9 106.20000000000002,98.9 106.20000000000002,54.3"/>
<polygon class="l999d0" points="17.4,94.3 17.4,120.60000000000001 106.20000000000002,120.60000000000001 106.20000000000002,94.3"/>
<polygon class="l999d0" points="17.4,32.6 17.4,58.900000000000006 106.20000000000002,58.900000000000006 106.20000000000002,32.6"/>
<polygon class="l999d0" points="13.499999999999998,168.79999999999998 13.499999999999998,221.20000000000002 110.1,221.20000000000002 110.1,168.79999999999998"/>
<polygon class="l999d0" points="13.499999999999998,208.79999999999998 13.499999999999998,261.2 110.1,261.2 110.1,208.79999999999998"/>
<polygon class="l999d0" points="13.499999999999998,288.8 13.499999999999998,341.2 110.1,341.2 110.1,288.8"/>
<polygon class="l999d0" points="13.499999999999998,248.79999999999998 13.499999999999998,301.2 110.1,301.2 110.1,248.79999999999998"/>
<polygon class="l999d0" points="13.499999999999998,328.8 13.499999999999998,381.2 110.1,381.2 110.1,328.8"/>
<polygon class="l999d0" points="13.499999999999998,144.8 13.499999999999998,181.20000000000002 110.1,181.20000000000002 110.1,144.8"/>
<polygon class="l999d0" points="89.1,368.8 89.1,405.20000000000005 185.7,405.20000000000005 185.7,368.8"/>
<polygon class="l999d0" points="13.499999999999998,368.8 13.499999999999998,405.20000000000005 110.1,405.20000000000005 110.1,368.8"/>
<text class="l998t0" text-anchor="middle" dominant-baseline="text-after-edge" transform="scale(1 -1) translate(137.4 -76.6) scale(0.28)">LELOATR_NCH_4C5F0</text>
<text class="l998t0" text-anchor="middle" dominant-baseline="text-after-edge" transform="scale(1 -1) translate(137.4 -107.45000000000002) scale(0.28)">LELOATR_NCH_4CTAPTOP</text>
<text class="l998t0" text-anchor="middle" dominant-baseline="text-after-edge" transform="scale(1 -1) translate(137.4 -45.75) scale(0.28)">LELOATR_NCH_4CTAPBOT</text>
<text class="l998t0" text-anchor="middle" dominant-baseline="text-after-edge" transform="scale(1 -1) translate(367.59999999999997 -64.0) scale(0.28)">LELOTR_RPPO16</text>
<text class="l998t0" text-anchor="middle" dominant-baseline="text-after-edge" transform="scale(1 -1) translate(367.59999999999997 -157.00000000000003) scale(0.28)">LELOTR_RPPO16</text>
<text class="l998t0" text-anchor="middle" dominant-baseline="text-after-edge" transform="scale(1 -1) translate(137.4 -195.0) scale(0.28)">LELOATR_PCH_4C5F0</text>
<text class="l998t0" text-anchor="middle" dominant-baseline="text-after-edge" transform="scale(1 -1) translate(137.4 -163.0) scale(0.28)">LELOATR_PCH_4CTAPBOT</text>
<text class="l998t0" text-anchor="middle" dominant-baseline="text-after-edge" transform="scale(1 -1) translate(367.59999999999997 -250.0) scale(0.28)">LELOTR_RPPO16</text>
<text class="l998t0" text-anchor="middle" dominant-baseline="text-after-edge" transform="scale(1 -1) translate(137.4 -235.0) scale(0.28)">LELOATR_PCH_4C5F0</text>
<text class="l998t0" text-anchor="middle" dominant-baseline="text-after-edge" transform="scale(1 -1) translate(137.4 -275.0) scale(0.28)">LELOATR_PCH_4C5F0</text>
<text class="l998t0" text-anchor="middle" dominant-baseline="text-after-edge" transform="scale(1 -1) translate(137.4 -315.0) scale(0.28)">LELOATR_PCH_4C5F0</text>
<text class="l998t0" text-anchor="middle" dominant-baseline="text-after-edge" transform="scale(1 -1) translate(137.4 -355.0) scale(0.28)">LELOATR_PCH_4C5F0</text>
<text class="l998t0" text-anchor="middle" dominant-baseline="text-after-edge" transform="scale(1 -1) translate(61.800000000000004 -76.6) scale(0.28)">LELOATR_NCH_4C5F0</text>
<text class="l998t0" text-anchor="middle" dominant-baseline="text-after-edge" transform="scale(1 -1) translate(61.800000000000004 -107.45000000000002) scale(0.28)">LELOATR_NCH_4CTAPTOP</text>
<text class="l998t0" text-anchor="middle" dominant-baseline="text-after-edge" transform="scale(1 -1) translate(61.800000000000004 -45.75) scale(0.28)">LELOATR_NCH_4CTAPBOT</text>
<text class="l998t0" text-anchor="middle" dominant-baseline="text-after-edge" transform="scale(1 -1) translate(61.8 -195.0) scale(0.28)">LELOATR_PCH_4C5F0</text>
<text class="l998t0" text-anchor="middle" dominant-baseline="text-after-edge" transform="scale(1 -1) translate(61.8 -235.0) scale(0.28)">LELOATR_PCH_4C5F0</text>
<text class="l998t0" text-anchor="middle" dominant-baseline="text-after-edge" transform="scale(1 -1) translate(61.8 -315.0) scale(0.28)">LELOATR_PCH_4C5F0</text>
<text class="l998t0" text-anchor="middle" dominant-baseline="text-after-edge" transform="scale(1 -1) translate(61.8 -275.0) scale(0.28)">LELOATR_PCH_4C5F0</text>
<text class="l998t0" text-anchor="middle" dominant-baseline="text-after-edge" transform="scale(1 -1) translate(61.8 -355.0) scale(0.28)">LELOATR_PCH_4C5F0</text>
<text class="l998t0" text-anchor="middle" dominant-baseline="text-after-edge" transform="scale(1 -1) translate(61.8 -163.0) scale(0.28)">LELOATR_PCH_4CTAPBOT</text>
<text class="l998t0" text-anchor="middle" dominant-baseline="text-after-edge" transform="scale(1 -1) translate(137.4 -387.0) scale(0.28)">LELOATR_PCH_4CTAPTOP</text>
<text class="l998t0" text-anchor="middle" dominant-baseline="text-after-edge" transform="scale(1 -1) translate(61.8 -387.0) scale(0.28)">LELOATR_PCH_4CTAPTOP</text>
</g>
</svg>