<?xml version="1.0" encoding="UTF-8"?>
<svg xmlns="http://www.w3.org/2000/svg" xmlns:xlink="http://www.w3.org/1999/xlink"
     width="552.4000000000001" height="412.7" viewBox="59.3 -422.0 552.4000000000001 412.7">
<defs>
        
        <style type="text/css">
          /* Highlighted layers */
          .l70d20 { fill: #1f77b4; fill-opacity: 0.7; }    /* Metal2 (blue) */
          .l69d20 { fill: #d62728; fill-opacity: 0.7; }    /* Metal3 (red) */
          .l67d20 { fill: #56423e; fill-opacity: 0.7; }    /* Metal1 (brown) */
          .l68d20 { fill: #bea6a1; fill-opacity: 0.7; }    /* Locali (light brown) */
          .l68d44 { fill: #0077ff;}                        /* via1 (bright blue) */
          .l67d44 { fill: #e09a8e;}                        /* viali (red shade) */
          .l69d44 { fill: #70b512;}                        /* via2 (green) */
          /* Not dealt with */
          .l64d20,
          .l65d20,
          .l65d44,
          .l66d13,
          .l66d20,
          .l66d44,
          .l67d16,
          .l68d16,
          .l69d16,
          .l86d20,
          .l93d44,
          .l94d20,
          .l95d20,
          .l235d4 {
            fill: #000000;
            fill-opacity: 0.0;
          }
          /* Subcell box */
          .l998t0 { fill: #F5F5F5; font-size: 16px;}
          .l997t0 { fill: #000000; font-size: 16px;}
          .l999d0 { stroke: #000000; stroke-width: 0.7; fill: #000000; fill-opacity: 0.2; }
        </style>
        
        
<style type="text/css">
.l49d0 {stroke: rgb(255, 106, 21); fill: rgb(255, 106, 21); fill-opacity: 0.5;}
.l50d0 {stroke: rgb(42, 255, 120); fill: rgb(42, 255, 120); fill-opacity: 0.5;}
.l29d0 {stroke: rgb(228, 255, 106); fill: rgb(228, 255, 106); fill-opacity: 0.5;}
.l999d0 {stroke: rgb(197, 255, 149); fill: rgb(197, 255, 149); fill-opacity: 0.5;}
.l19d0 {stroke: rgb(64, 133, 255); fill: rgb(64, 133, 255); fill-opacity: 0.5;}
.l8d0 {stroke: rgb(139, 0, 255); fill: rgb(139, 0, 255); fill-opacity: 0.5;}
.l14d0 {stroke: rgb(255, 128, 243); fill: rgb(255, 128, 243); fill-opacity: 0.5;}
.l30d0 {stroke: rgb(128, 255, 220); fill: rgb(128, 255, 220); fill-opacity: 0.5;}
.l10d0 {stroke: rgb(42, 139, 255); fill: rgb(42, 139, 255); fill-opacity: 0.5;}
.l50d2 {stroke: rgb(42, 128, 73); fill: rgb(42, 128, 73); fill-opacity: 0.5;}
.l30d2 {stroke: rgb(0, 128, 93); fill: rgb(0, 128, 93); fill-opacity: 0.5;}
.l8d2 {stroke: rgb(79, 21, 128); fill: rgb(79, 21, 128); fill-opacity: 0.5;}
.l998t0 {stroke: none; fill: rgb(197, 128, 255);}
</style>
</defs>
<rect x="59.3" y="-422.0" width="552.4000000000001" height="412.7" fill="#ffffff" stroke="none"/>
<g id="VISUAL_TOP" transform="scale(1 -1)">
<polygon class="l14d0" points="110.9,196.20000000000002 135.5,196.20000000000002 135.5,196.6 110.9,196.6"/>
<polygon class="l14d0" points="186.50000000000003,196.20000000000002 211.1,196.20000000000002 211.1,196.6 186.50000000000003,196.6"/>
<polygon class="l14d0" points="110.9,156.20000000000002 135.5,156.20000000000002 135.5,156.6 110.9,156.6"/>
<polygon class="l14d0" points="186.50000000000003,156.20000000000002 211.1,156.20000000000002 211.1,156.6 186.50000000000003,156.6"/>
<polygon class="l14d0" points="110.9,116.20000000000002 135.5,116.20000000000002 135.5,116.6 110.9,116.6"/>
<polygon class="l14d0" points="186.50000000000003,116.20000000000002 211.1,116.20000000000002 211.1,116.6 186.50000000000003,116.6"/>
<polygon class="l8d0" points="79.30000000000001,406.3 85.7,406.3 85.7,407.0 79.30000000000001,407.0"/>
<polygon class="l8d0" points="79.30000000000001,393.7 287.0,393.7 287.0,406.3 79.30000000000001,406.3"/>
<polygon class="l8d0" points="79.30000000000001,393.00000000000006 85.7,393.00000000000006 85.7,393.7 79.30000000000001,393.7"/>
<polygon class="l8d0" points="79.1,378.00000000000006 116.89999999999999,378.00000000000006 116.89999999999999,382.0 79.1,382.0"/>
<polygon class="l8d0" points="154.70000000000002,378.00000000000006 192.5,378.00000000000006 192.5,382.0 154.70000000000002,382.0"/>
<polygon class="l8d0" points="69.3,368.00000000000006 75.7,368.00000000000006 75.7,368.7 69.3,368.7"/>
<polygon class="l8d0" points="205.10000000000002,368.00000000000006 226.1,368.00000000000006 226.1,370.0 205.10000000000002,370.0"/>
<polygon class="l8d0" points="560.7,368.00000000000006 567.1,368.00000000000006 567.1,368.7 560.7,368.7"/>
<polygon class="l8d0" points="69.3,363.00000000000006 567.1,363.00000000000006 567.1,368.00000000000006 69.3,368.00000000000006"/>
<polygon class="l8d0" points="69.3,362.30000000000007 75.7,362.30000000000007 75.7,363.00000000000006 69.3,363.00000000000006"/>
<polygon class="l8d0" points="560.7,362.30000000000007 567.1,362.30000000000007 567.1,363.00000000000006 560.7,363.00000000000006"/>
<polygon class="l8d0" points="79.30000000000001,358.00000000000006 85.7,358.00000000000006 85.7,358.7 79.30000000000001,358.7"/>
<polygon class="l8d0" points="550.7,358.00000000000006 557.1,358.00000000000006 557.1,358.7 550.7,358.7"/>
<polygon class="l8d0" points="79.30000000000001,353.00000000000006 557.1,353.00000000000006 557.1,358.00000000000006 79.30000000000001,358.00000000000006"/>
<polygon class="l8d0" points="79.30000000000001,352.30000000000007 85.7,352.30000000000007 85.7,353.00000000000006 79.30000000000001,353.00000000000006"/>
<polygon class="l8d0" points="550.7,352.30000000000007 557.1,352.30000000000007 557.1,353.00000000000006 550.7,353.00000000000006"/>
<polygon class="l8d0" points="79.30000000000001,342.30000000000007 85.7,342.30000000000007 85.7,343.00000000000006 79.30000000000001,343.00000000000006"/>
<polygon class="l8d0" points="79.30000000000001,329.7 287.0,329.7 287.0,342.30000000000007 79.30000000000001,342.30000000000007"/>
<polygon class="l8d0" points="79.30000000000001,329.0 85.7,329.0 85.7,329.7 79.30000000000001,329.7"/>
<polygon class="l8d0" points="69.3,304.7 75.7,304.7 75.7,305.4 69.3,305.4"/>
<polygon class="l8d0" points="69.3,294.0 303.8,294.0 303.8,304.7 69.3,304.7"/>
<polygon class="l8d0" points="550.7,294.0 557.1,294.0 557.1,294.7 550.7,294.7"/>
<polygon class="l8d0" points="69.3,292.1 557.1,292.1 557.1,294.0 69.3,294.0"/>
<polygon class="l8d0" points="69.3,291.4 75.7,291.4 75.7,292.1 69.3,292.1"/>
<polygon class="l8d0" points="256.6,288.4 557.1,288.4 557.1,292.1 256.6,292.1"/>
<polygon class="l8d0" points="550.7,287.7 557.1,287.7 557.1,288.4 550.7,288.4"/>
<polygon class="l8d0" points="266.6,277.3 287.8,277.3 287.8,282.7 266.6,282.7"/>
<polygon class="l8d0" points="570.2,277.3 591.4,277.3 591.4,282.7 570.2,282.7"/>
<polygon class="l8d0" points="69.3,254.7 75.7,254.7 75.7,255.39999999999998 69.3,255.39999999999998"/>
<polygon class="l8d0" points="69.3,242.10000000000002 303.8,242.10000000000002 303.8,254.7 69.3,254.7"/>
<polygon class="l8d0" points="69.3,240.7 75.7,240.7 75.7,242.10000000000002 69.3,242.10000000000002"/>
<polygon class="l8d0" points="69.3,228.1 303.8,228.1 303.8,240.7 69.3,240.7"/>
<polygon class="l8d0" points="69.3,227.40000000000003 75.7,227.40000000000003 75.7,228.1 69.3,228.1"/>
<polygon class="l8d0" points="550.7,211.6 557.1,211.6 557.1,212.3 550.7,212.3"/>
<polygon class="l8d0" points="256.6,206.0 557.1,206.0 557.1,211.6 256.6,211.6"/>
<polygon class="l8d0" points="550.7,205.3 557.1,205.3 557.1,206.0 550.7,206.0"/>
<polygon class="l8d0" points="550.7,201.0 557.1,201.0 557.1,201.70000000000002 550.7,201.70000000000002"/>
<polygon class="l8d0" points="256.6,195.39999999999998 557.1,195.39999999999998 557.1,201.0 256.6,201.0"/>
<polygon class="l8d0" points="550.7,194.7 557.1,194.7 557.1,195.39999999999998 550.7,195.39999999999998"/>
<polygon class="l8d0" points="79.1,186.4 116.89999999999999,186.4 116.89999999999999,190.39999999999998 79.1,190.39999999999998"/>
<polygon class="l8d0" points="154.70000000000002,186.4 192.5,186.4 192.5,190.39999999999998 154.70000000000002,190.39999999999998"/>
<polygon class="l8d0" points="257.40000000000003,185.0 287.1,185.0 287.1,189.00000000000003 257.40000000000003,189.00000000000003"/>
<polygon class="l8d0" points="570.2,184.3 591.4,184.3 591.4,189.7 570.2,189.7"/>
<polygon class="l8d0" points="129.5,174.4 150.5,174.4 150.5,178.4 129.5,178.4"/>
<polygon class="l8d0" points="550.7,118.6 557.1,118.6 557.1,119.3 550.7,119.3"/>
<polygon class="l8d0" points="256.6,113.0 557.1,113.0 557.1,118.6 256.6,118.6"/>
<polygon class="l8d0" points="550.7,112.30000000000001 557.1,112.30000000000001 557.1,113.0 550.7,113.0"/>
<polygon class="l8d0" points="550.7,108.0 557.1,108.0 557.1,108.70000000000002 550.7,108.70000000000002"/>
<polygon class="l8d0" points="256.6,102.4 557.1,102.4 557.1,108.0 256.6,108.0"/>
<polygon class="l8d0" points="550.7,101.7 557.1,101.7 557.1,102.4 550.7,102.4"/>
<polygon class="l8d0" points="266.6,91.30000000000001 287.8,91.30000000000001 287.8,96.7 266.6,96.7"/>
<polygon class="l8d0" points="570.2,91.30000000000001 591.4,91.30000000000001 591.4,96.7 570.2,96.7"/>
<polygon class="l8d0" points="69.3,70.7 75.7,70.7 75.7,71.4 69.3,71.4"/>
<polygon class="l8d0" points="69.3,58.10000000000001 303.8,58.10000000000001 303.8,70.7 69.3,70.7"/>
<polygon class="l8d0" points="69.3,57.400000000000006 75.7,57.400000000000006 75.7,58.10000000000001 69.3,58.10000000000001"/>
<polygon class="l8d0" points="79.30000000000001,55.0 85.7,55.0 85.7,55.7 79.30000000000001,55.7"/>
<polygon class="l8d0" points="550.7,55.0 557.1,55.0 557.1,55.7 550.7,55.7"/>
<polygon class="l8d0" points="79.30000000000001,50.0 557.1,50.0 557.1,55.0 79.30000000000001,55.0"/>
<polygon class="l8d0" points="79.30000000000001,49.3 85.7,49.3 85.7,50.0 79.30000000000001,50.0"/>
<polygon class="l8d0" points="550.7,49.3 557.1,49.3 557.1,50.0 550.7,50.0"/>
<polygon class="l8d0" points="69.3,45.0 75.7,45.0 75.7,45.7 69.3,45.7"/>
<polygon class="l8d0" points="560.7,45.0 567.1,45.0 567.1,45.7 560.7,45.7"/>
<polygon class="l8d0" points="69.3,40.0 567.1,40.0 567.1,45.0 69.3,45.0"/>
<polygon class="l8d0" points="69.3,39.300000000000004 75.7,39.300000000000004 75.7,40.0 69.3,40.0"/>
<polygon class="l8d0" points="560.7,39.300000000000004 567.1,39.300000000000004 567.1,40.0 560.7,40.0"/>
<polygon class="l8d0" points="550.7,25.6 557.1,25.6 557.1,26.299999999999997 550.7,26.299999999999997"/>
<polygon class="l8d0" points="256.6,20.0 557.1,20.0 557.1,25.6 256.6,25.6"/>
<polygon class="l8d0" points="550.7,19.3 557.1,19.3 557.1,20.0 550.7,20.0"/>
<polygon class="l19d0" points="81.55,403.15 83.45,403.15 83.45,405.05 81.55,405.05"/>
<polygon class="l19d0" points="81.55,399.05 83.45,399.05 83.45,400.95 81.55,400.95"/>
<polygon class="l19d0" points="81.55,394.95 83.45,394.95 83.45,396.85 81.55,396.85"/>
<polygon class="l19d0" points="71.55,364.54999999999995 73.45,364.54999999999995 73.45,366.45000000000005 71.55,366.45000000000005"/>
<polygon class="l19d0" points="562.95,364.54999999999995 564.85,364.54999999999995 564.85,366.45000000000005 562.95,366.45000000000005"/>
<polygon class="l19d0" points="81.55,354.54999999999995 83.45,354.54999999999995 83.45,356.45000000000005 81.55,356.45000000000005"/>
<polygon class="l19d0" points="552.95,354.54999999999995 554.85,354.54999999999995 554.85,356.45000000000005 552.95,356.45000000000005"/>
<polygon class="l19d0" points="81.55,339.15 83.45,339.15 83.45,341.05000000000007 81.55,341.05000000000007"/>
<polygon class="l19d0" points="81.55,335.05 83.45,335.05 83.45,336.95 81.55,336.95"/>
<polygon class="l19d0" points="81.55,330.95 83.45,330.95 83.45,332.85 81.55,332.85"/>
<polygon class="l19d0" points="71.55,301.55 73.45,301.55 73.45,303.45 71.55,303.45"/>
<polygon class="l19d0" points="71.55,297.45 73.45,297.45 73.45,299.35 71.55,299.35"/>
<polygon class="l19d0" points="71.55,293.35 73.45,293.35 73.45,295.25 71.55,295.25"/>
<polygon class="l19d0" points="552.95,290.25 554.85,290.25 554.85,292.15 552.95,292.15"/>
<polygon class="l19d0" points="268.05,279.05 269.95,279.05 269.95,280.95 268.05,280.95"/>
<polygon class="l19d0" points="272.15,279.05 274.05,279.05 274.05,280.95 272.15,280.95"/>
<polygon class="l19d0" points="276.25,279.05 278.15000000000003,279.05 278.15000000000003,280.95 276.25,280.95"/>
<polygon class="l19d0" points="280.35,279.05 282.25,279.05 282.25,280.95 280.35,280.95"/>
<polygon class="l19d0" points="284.45,279.05 286.35,279.05 286.35,280.95 284.45,280.95"/>
<polygon class="l19d0" points="571.65,279.05 573.5500000000001,279.05 573.5500000000001,280.95 571.65,280.95"/>
<polygon class="l19d0" points="575.75,279.05 577.65,279.05 577.65,280.95 575.75,280.95"/>
<polygon class="l19d0" points="579.85,279.05 581.75,279.05 581.75,280.95 579.85,280.95"/>
<polygon class="l19d0" points="583.95,279.05 585.85,279.05 585.85,280.95 583.95,280.95"/>
<polygon class="l19d0" points="588.05,279.05 589.95,279.05 589.95,280.95 588.05,280.95"/>
<polygon class="l19d0" points="71.55,251.55 73.45,251.55 73.45,253.45 71.55,253.45"/>
<polygon class="l19d0" points="71.55,247.45000000000002 73.45,247.45000000000002 73.45,249.35000000000002 71.55,249.35000000000002"/>
<polygon class="l19d0" points="71.55,243.35000000000002 73.45,243.35000000000002 73.45,245.25000000000003 71.55,245.25000000000003"/>
<polygon class="l19d0" points="71.55,237.54999999999998 73.45,237.54999999999998 73.45,239.45 71.55,239.45"/>
<polygon class="l19d0" points="71.55,233.45 73.45,233.45 73.45,235.35 71.55,235.35"/>
<polygon class="l19d0" points="71.55,229.35 73.45,229.35 73.45,231.25 71.55,231.25"/>
<polygon class="l19d0" points="552.95,207.85 554.85,207.85 554.85,209.75 552.95,209.75"/>
<polygon class="l19d0" points="552.95,197.25 554.85,197.25 554.85,199.14999999999998 552.95,199.14999999999998"/>
<polygon class="l19d0" points="571.65,186.05 573.5500000000001,186.05 573.5500000000001,187.95000000000002 571.65,187.95000000000002"/>
<polygon class="l19d0" points="575.75,186.05 577.65,186.05 577.65,187.95000000000002 575.75,187.95000000000002"/>
<polygon class="l19d0" points="579.85,186.05 581.75,186.05 581.75,187.95000000000002 579.85,187.95000000000002"/>
<polygon class="l19d0" points="583.95,186.05 585.85,186.05 585.85,187.95000000000002 583.95,187.95000000000002"/>
<polygon class="l19d0" points="588.05,186.05 589.95,186.05 589.95,187.95000000000002 588.05,187.95000000000002"/>
<polygon class="l19d0" points="552.95,114.85 554.85,114.85 554.85,116.75 552.95,116.75"/>
<polygon class="l19d0" points="552.95,104.25 554.85,104.25 554.85,106.15 552.95,106.15"/>
<polygon class="l19d0" points="268.05,93.05 269.95,93.05 269.95,94.95000000000002 268.05,94.95000000000002"/>
<polygon class="l19d0" points="272.15,93.05 274.05,93.05 274.05,94.95000000000002 272.15,94.95000000000002"/>
<polygon class="l19d0" points="276.25,93.05 278.15000000000003,93.05 278.15000000000003,94.95000000000002 276.25,94.95000000000002"/>
<polygon class="l19d0" points="280.35,93.05 282.25,93.05 282.25,94.95000000000002 280.35,94.95000000000002"/>
<polygon class="l19d0" points="284.45,93.05 286.35,93.05 286.35,94.95000000000002 284.45,94.95000000000002"/>
<polygon class="l19d0" points="571.65,93.05 573.5500000000001,93.05 573.5500000000001,94.95000000000002 571.65,94.95000000000002"/>
<polygon class="l19d0" points="575.75,93.05 577.65,93.05 577.65,94.95000000000002 575.75,94.95000000000002"/>
<polygon class="l19d0" points="579.85,93.05 581.75,93.05 581.75,94.95000000000002 579.85,94.95000000000002"/>
<polygon class="l19d0" points="583.95,93.05 585.85,93.05 585.85,94.95000000000002 583.95,94.95000000000002"/>
<polygon class="l19d0" points="588.05,93.05 589.95,93.05 589.95,94.95000000000002 588.05,94.95000000000002"/>
<polygon class="l19d0" points="71.55,67.55 73.45,67.55 73.45,69.45 71.55,69.45"/>
<polygon class="l19d0" points="71.55,63.449999999999996 73.45,63.449999999999996 73.45,65.35 71.55,65.35"/>
<polygon class="l19d0" points="71.55,59.35000000000001 73.45,59.35000000000001 73.45,61.25 71.55,61.25"/>
<polygon class="l19d0" points="81.55,51.550000000000004 83.45,51.550000000000004 83.45,53.449999999999996 81.55,53.449999999999996"/>
<polygon class="l19d0" points="552.95,51.550000000000004 554.85,51.550000000000004 554.85,53.449999999999996 552.95,53.449999999999996"/>
<polygon class="l19d0" points="71.55,41.550000000000004 73.45,41.550000000000004 73.45,43.449999999999996 71.55,43.449999999999996"/>
<polygon class="l19d0" points="562.95,41.550000000000004 564.85,41.550000000000004 564.85,43.449999999999996 562.95,43.449999999999996"/>
<polygon class="l19d0" points="552.95,21.85 554.85,21.85 554.85,23.75 552.95,23.75"/>
<polygon class="l10d0" points="79.30000000000001,393.00000000000006 85.7,393.00000000000006 85.7,407.0 79.30000000000001,407.0"/>
<polygon class="l10d0" points="69.3,362.30000000000007 75.7,362.30000000000007 75.7,368.7 69.3,368.7"/>
<polygon class="l10d0" points="95.19999999999999,365.3 100.8,365.3 100.8,370.7 95.19999999999999,370.7"/>
<polygon class="l10d0" points="170.8,365.3 176.4,365.3 176.4,370.7 170.8,370.7"/>
<polygon class="l10d0" points="560.7,362.30000000000007 567.1,362.30000000000007 567.1,368.7 560.7,368.7"/>
<polygon class="l10d0" points="70.0,305.4 75.0,305.4 75.0,362.30000000000007 70.0,362.30000000000007"/>
<polygon class="l10d0" points="79.30000000000001,352.30000000000007 85.7,352.30000000000007 85.7,358.7 79.30000000000001,358.7"/>
<polygon class="l10d0" points="80.0,343.00000000000006 85.0,343.00000000000006 85.0,352.30000000000007 80.0,352.30000000000007"/>
<polygon class="l10d0" points="128.8,349.3 142.8,349.3 142.8,354.7 128.8,354.7"/>
<polygon class="l10d0" points="550.7,352.30000000000007 557.1,352.30000000000007 557.1,358.7 550.7,358.7"/>
<polygon class="l10d0" points="79.30000000000001,329.0 85.7,329.0 85.7,343.00000000000006 79.30000000000001,343.00000000000006"/>
<polygon class="l10d0" points="69.3,291.4 75.7,291.4 75.7,305.4 69.3,305.4"/>
<polygon class="l10d0" points="70.0,255.39999999999998 75.0,255.39999999999998 75.0,291.4 70.0,291.4"/>
<polygon class="l10d0" points="69.3,227.40000000000003 75.7,227.40000000000003 75.7,255.39999999999998 69.3,255.39999999999998"/>
<polygon class="l10d0" points="70.0,71.4 75.0,71.4 75.0,227.40000000000003 70.0,227.40000000000003"/>
<polygon class="l10d0" points="69.3,57.400000000000006 75.7,57.400000000000006 75.7,71.4 69.3,71.4"/>
<polygon class="l10d0" points="70.0,45.7 75.0,45.7 75.0,57.400000000000006 70.0,57.400000000000006"/>
<polygon class="l10d0" points="80.0,55.7 85.0,55.7 85.0,329.0 80.0,329.0"/>
<polygon class="l10d0" points="551.4,294.7 556.4,294.7 556.4,352.30000000000007 551.4,352.30000000000007"/>
<polygon class="l10d0" points="550.7,287.7 557.1,287.7 557.1,294.7 550.7,294.7"/>
<polygon class="l10d0" points="103.6,275.7 117.6,275.7 117.6,281.1 103.6,281.1"/>
<polygon class="l10d0" points="179.20000000000002,275.7 193.2,275.7 193.2,281.1 179.20000000000002,281.1"/>
<polygon class="l10d0" points="266.6,277.3 287.8,277.3 287.8,282.7 266.6,282.7"/>
<polygon class="l10d0" points="95.19999999999999,263.7 100.8,263.7 100.8,269.1 95.19999999999999,269.1"/>
<polygon class="l10d0" points="170.8,263.7 176.4,263.7 176.4,269.1 170.8,269.1"/>
<polygon class="l10d0" points="128.8,247.7 142.8,247.7 142.8,253.10000000000002 128.8,253.10000000000002"/>
<polygon class="l10d0" points="204.4,247.7 218.4,247.7 218.4,253.10000000000002 204.4,253.10000000000002"/>
<polygon class="l10d0" points="103.6,225.7 117.6,225.7 117.6,231.1 103.6,231.1"/>
<polygon class="l10d0" points="179.20000000000002,225.7 193.2,225.7 193.2,231.1 179.20000000000002,231.1"/>
<polygon class="l10d0" points="95.19999999999999,213.70000000000002 100.8,213.70000000000002 100.8,219.1 95.19999999999999,219.1"/>
<polygon class="l10d0" points="170.8,213.70000000000002 176.4,213.70000000000002 176.4,219.1 170.8,219.1"/>
<polygon class="l10d0" points="551.4,212.3 556.4,212.3 556.4,287.7 551.4,287.7"/>
<polygon class="l10d0" points="550.7,205.3 557.1,205.3 557.1,212.3 550.7,212.3"/>
<polygon class="l10d0" points="128.8,197.7 142.8,197.7 142.8,203.1 128.8,203.1"/>
<polygon class="l10d0" points="204.4,197.7 218.4,197.7 218.4,203.1 204.4,203.1"/>
<polygon class="l10d0" points="551.4,201.70000000000002 556.4,201.70000000000002 556.4,205.3 551.4,205.3"/>
<polygon class="l10d0" points="550.7,194.7 557.1,194.7 557.1,201.70000000000002 550.7,201.70000000000002"/>
<polygon class="l10d0" points="95.19999999999999,173.70000000000002 100.8,173.70000000000002 100.8,179.1 95.19999999999999,179.1"/>
<polygon class="l10d0" points="170.8,173.70000000000002 176.4,173.70000000000002 176.4,179.1 170.8,179.1"/>
<polygon class="l10d0" points="204.4,157.7 218.4,157.7 218.4,163.1 204.4,163.1"/>
<polygon class="l10d0" points="103.6,145.7 117.6,145.7 117.6,151.1 103.6,151.1"/>
<polygon class="l10d0" points="179.20000000000002,145.7 193.2,145.7 193.2,151.1 179.20000000000002,151.1"/>
<polygon class="l10d0" points="95.19999999999999,133.70000000000002 100.8,133.70000000000002 100.8,139.1 95.19999999999999,139.1"/>
<polygon class="l10d0" points="170.8,133.70000000000002 176.4,133.70000000000002 176.4,139.1 170.8,139.1"/>
<polygon class="l10d0" points="128.8,117.69999999999999 142.8,117.69999999999999 142.8,123.10000000000001 128.8,123.10000000000001"/>
<polygon class="l10d0" points="204.4,117.69999999999999 218.4,117.69999999999999 218.4,123.10000000000001 204.4,123.10000000000001"/>
<polygon class="l10d0" points="551.4,119.3 556.4,119.3 556.4,194.7 551.4,194.7"/>
<polygon class="l10d0" points="550.7,112.30000000000001 557.1,112.30000000000001 557.1,119.3 550.7,119.3"/>
<polygon class="l10d0" points="103.6,105.7 117.6,105.7 117.6,111.1 103.6,111.1"/>
<polygon class="l10d0" points="179.20000000000002,105.7 193.2,105.7 193.2,111.1 179.20000000000002,111.1"/>
<polygon class="l10d0" points="551.4,108.70000000000002 556.4,108.70000000000002 556.4,112.30000000000001 551.4,112.30000000000001"/>
<polygon class="l10d0" points="550.7,101.7 557.1,101.7 557.1,108.70000000000002 550.7,108.70000000000002"/>
<polygon class="l10d0" points="95.19999999999999,93.70000000000002 100.8,93.70000000000002 100.8,99.1 95.19999999999999,99.1"/>
<polygon class="l10d0" points="170.8,93.70000000000002 176.4,93.70000000000002 176.4,99.1 170.8,99.1"/>
<polygon class="l10d0" points="266.6,91.30000000000001 287.8,91.30000000000001 287.8,96.7 266.6,96.7"/>
<polygon class="l10d0" points="128.8,77.7 142.8,77.7 142.8,83.10000000000001 128.8,83.10000000000001"/>
<polygon class="l10d0" points="204.4,77.7 218.4,77.7 218.4,83.10000000000001 204.4,83.10000000000001"/>
<polygon class="l10d0" points="551.4,55.7 556.4,55.7 556.4,101.7 551.4,101.7"/>
<polygon class="l10d0" points="79.30000000000001,49.3 85.7,49.3 85.7,55.7 79.30000000000001,55.7"/>
<polygon class="l10d0" points="550.7,49.3 557.1,49.3 557.1,55.7 550.7,55.7"/>
<polygon class="l10d0" points="561.4,45.7 566.4,45.7 566.4,362.30000000000007 561.4,362.30000000000007"/>
<polygon class="l10d0" points="570.2,277.3 591.4,277.3 591.4,282.7 570.2,282.7"/>
<polygon class="l10d0" points="570.2,184.3 591.4,184.3 591.4,189.7 570.2,189.7"/>
<polygon class="l10d0" points="570.2,91.30000000000001 591.4,91.30000000000001 591.4,96.7 570.2,96.7"/>
<polygon class="l10d0" points="69.3,39.300000000000004 75.7,39.300000000000004 75.7,45.7 69.3,45.7"/>
<polygon class="l10d0" points="560.7,39.300000000000004 567.1,39.300000000000004 567.1,45.7 560.7,45.7"/>
<polygon class="l10d0" points="550.7,19.3 557.1,19.3 557.1,26.299999999999997 550.7,26.299999999999997"/>
<polygon class="l29d0" points="97.05,367.04999999999995 98.94999999999999,367.04999999999995 98.94999999999999,368.95000000000005 97.05,368.95000000000005"/>
<polygon class="l29d0" points="172.65,367.04999999999995 174.55,367.04999999999995 174.55,368.95000000000005 172.65,368.95000000000005"/>
<polygon class="l29d0" points="130.75,351.05000000000007 132.65,351.05000000000007 132.65,352.95000000000005 130.75,352.95000000000005"/>
<polygon class="l29d0" points="134.85,351.05000000000007 136.75,351.05000000000007 136.75,352.95000000000005 134.85,352.95000000000005"/>
<polygon class="l29d0" points="138.95,351.05000000000007 140.85000000000002,351.05000000000007 140.85000000000002,352.95000000000005 138.95,352.95000000000005"/>
<polygon class="l29d0" points="105.55,277.45 107.45000000000002,277.45 107.45000000000002,279.35 105.55,279.35"/>
<polygon class="l29d0" points="109.65,277.45 111.55,277.45 111.55,279.35 109.65,279.35"/>
<polygon class="l29d0" points="113.75,277.45 115.64999999999999,277.45 115.64999999999999,279.35 113.75,279.35"/>
<polygon class="l29d0" points="181.15000000000003,277.45 183.05,277.45 183.05,279.35 181.15000000000003,279.35"/>
<polygon class="l29d0" points="185.25000000000003,277.45 187.15,277.45 187.15,279.35 185.25000000000003,279.35"/>
<polygon class="l29d0" points="189.35,277.45 191.25,277.45 191.25,279.35 189.35,279.35"/>
<polygon class="l29d0" points="268.05,279.05 269.95,279.05 269.95,280.95 268.05,280.95"/>
<polygon class="l29d0" points="272.15,279.05 274.05,279.05 274.05,280.95 272.15,280.95"/>
<polygon class="l29d0" points="276.25,279.05 278.15000000000003,279.05 278.15000000000003,280.95 276.25,280.95"/>
<polygon class="l29d0" points="280.35,279.05 282.25,279.05 282.25,280.95 280.35,280.95"/>
<polygon class="l29d0" points="284.45,279.05 286.35,279.05 286.35,280.95 284.45,280.95"/>
<polygon class="l29d0" points="571.65,279.05 573.5500000000001,279.05 573.5500000000001,280.95 571.65,280.95"/>
<polygon class="l29d0" points="575.75,279.05 577.65,279.05 577.65,280.95 575.75,280.95"/>
<polygon class="l29d0" points="579.85,279.05 581.75,279.05 581.75,280.95 579.85,280.95"/>
<polygon class="l29d0" points="583.95,279.05 585.85,279.05 585.85,280.95 583.95,280.95"/>
<polygon class="l29d0" points="588.05,279.05 589.95,279.05 589.95,280.95 588.05,280.95"/>
<polygon class="l29d0" points="97.05,265.45000000000005 98.94999999999999,265.45000000000005 98.94999999999999,267.35 97.05,267.35"/>
<polygon class="l29d0" points="172.65,265.45000000000005 174.55,265.45000000000005 174.55,267.35 172.65,267.35"/>
<polygon class="l29d0" points="130.75,249.45 132.65,249.45 132.65,251.35000000000002 130.75,251.35000000000002"/>
<polygon class="l29d0" points="134.85,249.45 136.75,249.45 136.75,251.35000000000002 134.85,251.35000000000002"/>
<polygon class="l29d0" points="138.95,249.45 140.85000000000002,249.45 140.85000000000002,251.35000000000002 138.95,251.35000000000002"/>
<polygon class="l29d0" points="206.35000000000002,249.45 208.25,249.45 208.25,251.35000000000002 206.35000000000002,251.35000000000002"/>
<polygon class="l29d0" points="210.45000000000002,249.45 212.35,249.45 212.35,251.35000000000002 210.45000000000002,251.35000000000002"/>
<polygon class="l29d0" points="214.55,249.45 216.45,249.45 216.45,251.35000000000002 214.55,251.35000000000002"/>
<polygon class="l29d0" points="105.55,227.45000000000002 107.45000000000002,227.45000000000002 107.45000000000002,229.35 105.55,229.35"/>
<polygon class="l29d0" points="109.65,227.45000000000002 111.55,227.45000000000002 111.55,229.35 109.65,229.35"/>
<polygon class="l29d0" points="113.75,227.45000000000002 115.64999999999999,227.45000000000002 115.64999999999999,229.35 113.75,229.35"/>
<polygon class="l29d0" points="181.15000000000003,227.45000000000002 183.05,227.45000000000002 183.05,229.35 181.15000000000003,229.35"/>
<polygon class="l29d0" points="185.25000000000003,227.45000000000002 187.15,227.45000000000002 187.15,229.35 185.25000000000003,229.35"/>
<polygon class="l29d0" points="189.35,227.45000000000002 191.25,227.45000000000002 191.25,229.35 189.35,229.35"/>
<polygon class="l29d0" points="97.05,215.45000000000002 98.94999999999999,215.45000000000002 98.94999999999999,217.35 97.05,217.35"/>
<polygon class="l29d0" points="172.65,215.45000000000002 174.55,215.45000000000002 174.55,217.35 172.65,217.35"/>
<polygon class="l29d0" points="130.75,199.45 132.65,199.45 132.65,201.35000000000002 130.75,201.35000000000002"/>
<polygon class="l29d0" points="134.85,199.45 136.75,199.45 136.75,201.35000000000002 134.85,201.35000000000002"/>
<polygon class="l29d0" points="138.95,199.45 140.85000000000002,199.45 140.85000000000002,201.35000000000002 138.95,201.35000000000002"/>
<polygon class="l29d0" points="206.35000000000002,199.45 208.25,199.45 208.25,201.35000000000002 206.35000000000002,201.35000000000002"/>
<polygon class="l29d0" points="210.45000000000002,199.45 212.35,199.45 212.35,201.35000000000002 210.45000000000002,201.35000000000002"/>
<polygon class="l29d0" points="214.55,199.45 216.45,199.45 216.45,201.35000000000002 214.55,201.35000000000002"/>
<polygon class="l29d0" points="571.65,186.05 573.5500000000001,186.05 573.5500000000001,187.95000000000002 571.65,187.95000000000002"/>
<polygon class="l29d0" points="575.75,186.05 577.65,186.05 577.65,187.95000000000002 575.75,187.95000000000002"/>
<polygon class="l29d0" points="579.85,186.05 581.75,186.05 581.75,187.95000000000002 579.85,187.95000000000002"/>
<polygon class="l29d0" points="583.95,186.05 585.85,186.05 585.85,187.95000000000002 583.95,187.95000000000002"/>
<polygon class="l29d0" points="588.05,186.05 589.95,186.05 589.95,187.95000000000002 588.05,187.95000000000002"/>
<polygon class="l29d0" points="97.05,175.45000000000002 98.94999999999999,175.45000000000002 98.94999999999999,177.35 97.05,177.35"/>
<polygon class="l29d0" points="172.65,175.45000000000002 174.55,175.45000000000002 174.55,177.35 172.65,177.35"/>
<polygon class="l29d0" points="206.35000000000002,159.45 208.25,159.45 208.25,161.35000000000002 206.35000000000002,161.35000000000002"/>
<polygon class="l29d0" points="210.45000000000002,159.45 212.35,159.45 212.35,161.35000000000002 210.45000000000002,161.35000000000002"/>
<polygon class="l29d0" points="214.55,159.45 216.45,159.45 216.45,161.35000000000002 214.55,161.35000000000002"/>
<polygon class="l29d0" points="105.55,147.45000000000002 107.45000000000002,147.45000000000002 107.45000000000002,149.35 105.55,149.35"/>
<polygon class="l29d0" points="109.65,147.45000000000002 111.55,147.45000000000002 111.55,149.35 109.65,149.35"/>
<polygon class="l29d0" points="113.75,147.45000000000002 115.64999999999999,147.45000000000002 115.64999999999999,149.35 113.75,149.35"/>
<polygon class="l29d0" points="181.15000000000003,147.45000000000002 183.05,147.45000000000002 183.05,149.35 181.15000000000003,149.35"/>
<polygon class="l29d0" points="185.25000000000003,147.45000000000002 187.15,147.45000000000002 187.15,149.35 185.25000000000003,149.35"/>
<polygon class="l29d0" points="189.35,147.45000000000002 191.25,147.45000000000002 191.25,149.35 189.35,149.35"/>
<polygon class="l29d0" points="97.05,135.45 98.94999999999999,135.45 98.94999999999999,137.35 97.05,137.35"/>
<polygon class="l29d0" points="172.65,135.45 174.55,135.45 174.55,137.35 172.65,137.35"/>
<polygon class="l29d0" points="130.75,119.45 132.65,119.45 132.65,121.35 130.75,121.35"/>
<polygon class="l29d0" points="134.85,119.45 136.75,119.45 136.75,121.35 134.85,121.35"/>
<polygon class="l29d0" points="138.95,119.45 140.85000000000002,119.45 140.85000000000002,121.35 138.95,121.35"/>
<polygon class="l29d0" points="206.35000000000002,119.45 208.25,119.45 208.25,121.35 206.35000000000002,121.35"/>
<polygon class="l29d0" points="210.45000000000002,119.45 212.35,119.45 212.35,121.35 210.45000000000002,121.35"/>
<polygon class="l29d0" points="214.55,119.45 216.45,119.45 216.45,121.35 214.55,121.35"/>
<polygon class="l29d0" points="105.55,107.45000000000002 107.45000000000002,107.45000000000002 107.45000000000002,109.35000000000001 105.55,109.35000000000001"/>
<polygon class="l29d0" points="109.65,107.45000000000002 111.55,107.45000000000002 111.55,109.35000000000001 109.65,109.35000000000001"/>
<polygon class="l29d0" points="113.75,107.45000000000002 115.64999999999999,107.45000000000002 115.64999999999999,109.35000000000001 113.75,109.35000000000001"/>
<polygon class="l29d0" points="181.15000000000003,107.45000000000002 183.05,107.45000000000002 183.05,109.35000000000001 181.15000000000003,109.35000000000001"/>
<polygon class="l29d0" points="185.25000000000003,107.45000000000002 187.15,107.45000000000002 187.15,109.35000000000001 185.25000000000003,109.35000000000001"/>
<polygon class="l29d0" points="189.35,107.45000000000002 191.25,107.45000000000002 191.25,109.35000000000001 189.35,109.35000000000001"/>
<polygon class="l29d0" points="97.05,95.45 98.94999999999999,95.45 98.94999999999999,97.35 97.05,97.35"/>
<polygon class="l29d0" points="172.65,95.45 174.55,95.45 174.55,97.35 172.65,97.35"/>
<polygon class="l29d0" points="268.05,93.05 269.95,93.05 269.95,94.95000000000002 268.05,94.95000000000002"/>
<polygon class="l29d0" points="272.15,93.05 274.05,93.05 274.05,94.95000000000002 272.15,94.95000000000002"/>
<polygon class="l29d0" points="276.25,93.05 278.15000000000003,93.05 278.15000000000003,94.95000000000002 276.25,94.95000000000002"/>
<polygon class="l29d0" points="280.35,93.05 282.25,93.05 282.25,94.95000000000002 280.35,94.95000000000002"/>
<polygon class="l29d0" points="284.45,93.05 286.35,93.05 286.35,94.95000000000002 284.45,94.95000000000002"/>
<polygon class="l29d0" points="571.65,93.05 573.5500000000001,93.05 573.5500000000001,94.95000000000002 571.65,94.95000000000002"/>
<polygon class="l29d0" points="575.75,93.05 577.65,93.05 577.65,94.95000000000002 575.75,94.95000000000002"/>
<polygon class="l29d0" points="579.85,93.05 581.75,93.05 581.75,94.95000000000002 579.85,94.95000000000002"/>
<polygon class="l29d0" points="583.95,93.05 585.85,93.05 585.85,94.95000000000002 583.95,94.95000000000002"/>
<polygon class="l29d0" points="588.05,93.05 589.95,93.05 589.95,94.95000000000002 588.05,94.95000000000002"/>
<polygon class="l29d0" points="130.75,79.45 132.65,79.45 132.65,81.35 130.75,81.35"/>
<polygon class="l29d0" points="134.85,79.45 136.75,79.45 136.75,81.35 134.85,81.35"/>
<polygon class="l29d0" points="138.95,79.45 140.85000000000002,79.45 140.85000000000002,81.35 138.95,81.35"/>
<polygon class="l29d0" points="206.35000000000002,79.45 208.25,79.45 208.25,81.35 206.35000000000002,81.35"/>
<polygon class="l29d0" points="210.45000000000002,79.45 212.35,79.45 212.35,81.35 210.45000000000002,81.35"/>
<polygon class="l29d0" points="214.55,79.45 216.45,79.45 216.45,81.35 214.55,81.35"/>
<polygon class="l30d0" points="95.19999999999999,368.5 100.8,368.5 100.8,370.7 95.19999999999999,370.7"/>
<polygon class="l30d0" points="147.3,368.5 151.7,368.5 151.7,369.20000000000005 147.3,369.20000000000005"/>
<polygon class="l30d0" points="170.8,368.5 176.4,368.5 176.4,370.7 170.8,370.7"/>
<polygon class="l30d0" points="95.19999999999999,365.50000000000006 176.4,365.50000000000006 176.4,368.5 95.19999999999999,368.5"/>
<polygon class="l30d0" points="95.19999999999999,365.3 100.8,365.3 100.8,365.50000000000006 95.19999999999999,365.50000000000006"/>
<polygon class="l30d0" points="147.3,364.80000000000007 151.7,364.80000000000007 151.7,365.50000000000006 147.3,365.50000000000006"/>
<polygon class="l30d0" points="170.8,365.3 176.4,365.3 176.4,365.50000000000006 170.8,365.50000000000006"/>
<polygon class="l30d0" points="128.8,349.3 142.8,349.3 142.8,354.7 128.8,354.7"/>
<polygon class="l30d0" points="103.6,279.5 117.6,279.5 117.6,281.1 103.6,281.1"/>
<polygon class="l30d0" points="179.20000000000002,279.5 193.2,279.5 193.2,281.1 179.20000000000002,281.1"/>
<polygon class="l30d0" points="103.6,276.5 193.2,276.5 193.2,279.5 103.6,279.5"/>
<polygon class="l30d0" points="266.6,277.3 287.8,277.3 287.8,282.7 266.6,282.7"/>
<polygon class="l30d0" points="519.7,280.7 524.1,280.7 524.1,281.4 519.7,281.4"/>
<polygon class="l30d0" points="570.2,280.7 591.4,280.7 591.4,282.7 570.2,282.7"/>
<polygon class="l30d0" points="519.7,277.7 591.4,277.7 591.4,280.7 519.7,280.7"/>
<polygon class="l30d0" points="519.7,277.0 524.1,277.0 524.1,277.7 519.7,277.7"/>
<polygon class="l30d0" points="570.2,277.3 591.4,277.3 591.4,277.7 570.2,277.7"/>
<polygon class="l30d0" points="103.6,275.7 117.6,275.7 117.6,276.5 103.6,276.5"/>
<polygon class="l30d0" points="179.20000000000002,275.7 193.2,275.7 193.2,276.5 179.20000000000002,276.5"/>
<polygon class="l30d0" points="83.2,267.7 87.6,267.7 87.6,268.4 83.2,268.4"/>
<polygon class="l30d0" points="95.19999999999999,267.7 100.8,267.7 100.8,269.1 95.19999999999999,269.1"/>
<polygon class="l30d0" points="170.8,267.7 176.4,267.7 176.4,269.1 170.8,269.1"/>
<polygon class="l30d0" points="83.2,264.7 176.4,264.7 176.4,267.7 83.2,267.7"/>
<polygon class="l30d0" points="83.2,264.0 87.6,264.0 87.6,264.7 83.2,264.7"/>
<polygon class="l30d0" points="95.19999999999999,263.7 100.8,263.7 100.8,264.7 95.19999999999999,264.7"/>
<polygon class="l30d0" points="170.8,263.7 176.4,263.7 176.4,264.7 170.8,264.7"/>
<polygon class="l30d0" points="128.8,251.70000000000002 142.8,251.70000000000002 142.8,253.10000000000002 128.8,253.10000000000002"/>
<polygon class="l30d0" points="204.4,251.70000000000002 218.4,251.70000000000002 218.4,253.10000000000002 204.4,253.10000000000002"/>
<polygon class="l30d0" points="224.1,251.70000000000002 228.5,251.70000000000002 228.5,252.40000000000003 224.1,252.40000000000003"/>
<polygon class="l30d0" points="128.8,248.70000000000002 228.5,248.70000000000002 228.5,251.70000000000002 128.8,251.70000000000002"/>
<polygon class="l30d0" points="128.8,247.7 142.8,247.7 142.8,248.70000000000002 128.8,248.70000000000002"/>
<polygon class="l30d0" points="204.4,247.7 218.4,247.7 218.4,248.70000000000002 204.4,248.70000000000002"/>
<polygon class="l30d0" points="224.1,248.0 228.5,248.0 228.5,248.70000000000002 224.1,248.70000000000002"/>
<polygon class="l30d0" points="73.4,229.90000000000003 77.8,229.90000000000003 77.8,230.6 73.4,230.6"/>
<polygon class="l30d0" points="103.6,229.90000000000003 117.6,229.90000000000003 117.6,231.1 103.6,231.1"/>
<polygon class="l30d0" points="73.4,226.9 117.6,226.9 117.6,229.90000000000003 73.4,229.90000000000003"/>
<polygon class="l30d0" points="73.4,226.20000000000002 77.8,226.20000000000002 77.8,226.9 73.4,226.9"/>
<polygon class="l30d0" points="103.6,225.7 117.6,225.7 117.6,226.9 103.6,226.9"/>
<polygon class="l30d0" points="179.20000000000002,229.90000000000003 193.2,229.90000000000003 193.2,231.1 179.20000000000002,231.1"/>
<polygon class="l30d0" points="243.0,229.90000000000003 247.40000000000003,229.90000000000003 247.40000000000003,230.6 243.0,230.6"/>
<polygon class="l30d0" points="179.20000000000002,226.9 247.40000000000003,226.9 247.40000000000003,229.90000000000003 179.20000000000002,229.90000000000003"/>
<polygon class="l30d0" points="179.20000000000002,225.7 193.2,225.7 193.2,226.9 179.20000000000002,226.9"/>
<polygon class="l30d0" points="243.0,226.20000000000002 247.40000000000003,226.20000000000002 247.40000000000003,226.9 243.0,226.9"/>
<polygon class="l30d0" points="95.19999999999999,217.89999999999998 100.8,217.89999999999998 100.8,219.1 95.19999999999999,219.1"/>
<polygon class="l30d0" points="158.4,217.89999999999998 162.8,217.89999999999998 162.8,218.6 158.4,218.6"/>
<polygon class="l30d0" points="170.8,217.89999999999998 176.4,217.89999999999998 176.4,219.1 170.8,219.1"/>
<polygon class="l30d0" points="95.19999999999999,214.90000000000003 176.4,214.90000000000003 176.4,217.89999999999998 95.19999999999999,217.89999999999998"/>
<polygon class="l30d0" points="95.19999999999999,213.70000000000002 100.8,213.70000000000002 100.8,214.90000000000003 95.19999999999999,214.90000000000003"/>
<polygon class="l30d0" points="158.4,214.20000000000002 162.8,214.20000000000002 162.8,214.90000000000003 158.4,214.90000000000003"/>
<polygon class="l30d0" points="170.8,213.70000000000002 176.4,213.70000000000002 176.4,214.90000000000003 170.8,214.90000000000003"/>
<polygon class="l30d0" points="274.90000000000003,204.1 279.3,204.1 279.3,204.8 274.90000000000003,204.8"/>
<polygon class="l30d0" points="577.3000000000001,204.1 581.7,204.1 581.7,204.8 577.3000000000001,204.8"/>
<polygon class="l30d0" points="128.8,202.10000000000002 142.8,202.10000000000002 142.8,203.1 128.8,203.1"/>
<polygon class="l30d0" points="147.3,202.10000000000002 151.7,202.10000000000002 151.7,202.8 147.3,202.8"/>
<polygon class="l30d0" points="204.4,202.10000000000002 218.4,202.10000000000002 218.4,203.1 204.4,203.1"/>
<polygon class="l30d0" points="233.70000000000002,202.10000000000002 238.1,202.10000000000002 238.1,202.8 233.70000000000002,202.8"/>
<polygon class="l30d0" points="128.8,199.1 238.1,199.1 238.1,202.10000000000002 128.8,202.10000000000002"/>
<polygon class="l30d0" points="274.90000000000003,201.1 581.7,201.1 581.7,204.1 274.90000000000003,204.1"/>
<polygon class="l30d0" points="274.90000000000003,200.39999999999998 279.3,200.39999999999998 279.3,201.1 274.90000000000003,201.1"/>
<polygon class="l30d0" points="577.3000000000001,200.39999999999998 581.7,200.39999999999998 581.7,201.1 577.3000000000001,201.1"/>
<polygon class="l30d0" points="128.8,197.7 142.8,197.7 142.8,199.1 128.8,199.1"/>
<polygon class="l30d0" points="147.3,198.4 151.7,198.4 151.7,199.1 147.3,199.1"/>
<polygon class="l30d0" points="204.4,197.7 218.4,197.7 218.4,199.1 204.4,199.1"/>
<polygon class="l30d0" points="233.70000000000002,198.4 238.1,198.4 238.1,199.1 233.70000000000002,199.1"/>
<polygon class="l30d0" points="570.2,184.3 591.4,184.3 591.4,189.7 570.2,189.7"/>
<polygon class="l30d0" points="95.19999999999999,177.89999999999998 100.8,177.89999999999998 100.8,179.1 95.19999999999999,179.1"/>
<polygon class="l30d0" points="170.8,177.89999999999998 176.4,177.89999999999998 176.4,179.1 170.8,179.1"/>
<polygon class="l30d0" points="254.3,177.89999999999998 258.7,177.89999999999998 258.7,178.6 254.3,178.6"/>
<polygon class="l30d0" points="95.19999999999999,174.90000000000003 258.7,174.90000000000003 258.7,177.89999999999998 95.19999999999999,177.89999999999998"/>
<polygon class="l30d0" points="95.19999999999999,173.70000000000002 100.8,173.70000000000002 100.8,174.90000000000003 95.19999999999999,174.90000000000003"/>
<polygon class="l30d0" points="170.8,173.70000000000002 176.4,173.70000000000002 176.4,174.90000000000003 170.8,174.90000000000003"/>
<polygon class="l30d0" points="254.3,174.20000000000002 258.7,174.20000000000002 258.7,174.90000000000003 254.3,174.90000000000003"/>
<polygon class="l30d0" points="183.79999999999998,162.7 188.2,162.7 188.2,163.4 183.79999999999998,163.4"/>
<polygon class="l30d0" points="204.4,162.7 218.4,162.7 218.4,163.1 204.4,163.1"/>
<polygon class="l30d0" points="183.79999999999998,159.70000000000002 218.4,159.70000000000002 218.4,162.7 183.79999999999998,162.7"/>
<polygon class="l30d0" points="183.79999999999998,159.0 188.2,159.0 188.2,159.70000000000002 183.79999999999998,159.70000000000002"/>
<polygon class="l30d0" points="204.4,157.7 218.4,157.7 218.4,159.70000000000002 204.4,159.70000000000002"/>
<polygon class="l30d0" points="73.4,149.9 77.8,149.9 77.8,150.6 73.4,150.6"/>
<polygon class="l30d0" points="103.6,149.9 117.6,149.9 117.6,151.1 103.6,151.1"/>
<polygon class="l30d0" points="73.4,146.9 117.6,146.9 117.6,149.9 73.4,149.9"/>
<polygon class="l30d0" points="73.4,146.20000000000002 77.8,146.20000000000002 77.8,146.9 73.4,146.9"/>
<polygon class="l30d0" points="103.6,145.7 117.6,145.7 117.6,146.9 103.6,146.9"/>
<polygon class="l30d0" points="179.20000000000002,149.9 193.2,149.9 193.2,151.1 179.20000000000002,151.1"/>
<polygon class="l30d0" points="243.0,149.9 247.40000000000003,149.9 247.40000000000003,150.6 243.0,150.6"/>
<polygon class="l30d0" points="179.20000000000002,146.9 247.40000000000003,146.9 247.40000000000003,149.9 179.20000000000002,149.9"/>
<polygon class="l30d0" points="179.20000000000002,145.7 193.2,145.7 193.2,146.9 179.20000000000002,146.9"/>
<polygon class="l30d0" points="243.0,146.20000000000002 247.40000000000003,146.20000000000002 247.40000000000003,146.9 243.0,146.9"/>
<polygon class="l30d0" points="95.19999999999999,137.9 100.8,137.9 100.8,139.1 95.19999999999999,139.1"/>
<polygon class="l30d0" points="158.4,137.9 162.8,137.9 162.8,138.6 158.4,138.6"/>
<polygon class="l30d0" points="170.8,137.9 176.4,137.9 176.4,139.1 170.8,139.1"/>
<polygon class="l30d0" points="95.19999999999999,134.9 176.4,134.9 176.4,137.9 95.19999999999999,137.9"/>
<polygon class="l30d0" points="95.19999999999999,133.70000000000002 100.8,133.70000000000002 100.8,134.9 95.19999999999999,134.9"/>
<polygon class="l30d0" points="158.4,134.2 162.8,134.2 162.8,134.9 158.4,134.9"/>
<polygon class="l30d0" points="170.8,133.70000000000002 176.4,133.70000000000002 176.4,134.9 170.8,134.9"/>
<polygon class="l30d0" points="254.3,125.1 258.7,125.1 258.7,125.8 254.3,125.8"/>
<polygon class="l30d0" points="577.5,125.1 581.9,125.1 581.9,125.8 577.5,125.8"/>
<polygon class="l30d0" points="128.8,122.10000000000001 142.8,122.10000000000001 142.8,123.10000000000001 128.8,123.10000000000001"/>
<polygon class="l30d0" points="204.4,122.10000000000001 218.4,122.10000000000001 218.4,123.10000000000001 204.4,123.10000000000001"/>
<polygon class="l30d0" points="233.70000000000002,122.10000000000001 238.1,122.10000000000001 238.1,122.80000000000001 233.70000000000002,122.80000000000001"/>
<polygon class="l30d0" points="128.8,119.1 238.1,119.1 238.1,122.10000000000001 128.8,122.10000000000001"/>
<polygon class="l30d0" points="254.3,122.10000000000001 581.9,122.10000000000001 581.9,125.1 254.3,125.1"/>
<polygon class="l30d0" points="254.3,121.4 258.7,121.4 258.7,122.10000000000001 254.3,122.10000000000001"/>
<polygon class="l30d0" points="577.5,121.4 581.9,121.4 581.9,122.10000000000001 577.5,122.10000000000001"/>
<polygon class="l30d0" points="128.8,117.69999999999999 142.8,117.69999999999999 142.8,119.1 128.8,119.1"/>
<polygon class="l30d0" points="204.4,117.69999999999999 218.4,117.69999999999999 218.4,119.1 204.4,119.1"/>
<polygon class="l30d0" points="233.70000000000002,118.4 238.1,118.4 238.1,119.1 233.70000000000002,119.1"/>
<polygon class="l30d0" points="103.6,105.7 117.6,105.7 117.6,111.1 103.6,111.1"/>
<polygon class="l30d0" points="179.20000000000002,105.7 193.2,105.7 193.2,111.1 179.20000000000002,111.1"/>
<polygon class="l30d0" points="83.2,98.10000000000001 87.6,98.10000000000001 87.6,98.80000000000001 83.2,98.80000000000001"/>
<polygon class="l30d0" points="95.19999999999999,98.10000000000001 100.8,98.10000000000001 100.8,99.1 95.19999999999999,99.1"/>
<polygon class="l30d0" points="170.8,98.10000000000001 176.4,98.10000000000001 176.4,99.1 170.8,99.1"/>
<polygon class="l30d0" points="83.2,95.1 176.4,95.1 176.4,98.10000000000001 83.2,98.10000000000001"/>
<polygon class="l30d0" points="83.2,94.39999999999999 87.6,94.39999999999999 87.6,95.1 83.2,95.1"/>
<polygon class="l30d0" points="95.19999999999999,93.70000000000002 100.8,93.70000000000002 100.8,95.1 95.19999999999999,95.1"/>
<polygon class="l30d0" points="170.8,93.70000000000002 176.4,93.70000000000002 176.4,95.1 170.8,95.1"/>
<polygon class="l30d0" points="266.6,95.1 287.8,95.1 287.8,96.7 266.6,96.7"/>
<polygon class="l30d0" points="519.7,95.1 524.1,95.1 524.1,95.8 519.7,95.8"/>
<polygon class="l30d0" points="266.6,92.10000000000001 524.1,92.10000000000001 524.1,95.1 266.6,95.1"/>
<polygon class="l30d0" points="266.6,91.30000000000001 287.8,91.30000000000001 287.8,92.10000000000001 266.6,92.10000000000001"/>
<polygon class="l30d0" points="519.7,91.4 524.1,91.4 524.1,92.10000000000001 519.7,92.10000000000001"/>
<polygon class="l30d0" points="570.2,91.30000000000001 591.4,91.30000000000001 591.4,96.7 570.2,96.7"/>
<polygon class="l30d0" points="128.8,82.10000000000001 142.8,82.10000000000001 142.8,83.10000000000001 128.8,83.10000000000001"/>
<polygon class="l30d0" points="204.4,82.10000000000001 218.4,82.10000000000001 218.4,83.10000000000001 204.4,83.10000000000001"/>
<polygon class="l30d0" points="224.1,82.10000000000001 228.5,82.10000000000001 228.5,82.8 224.1,82.8"/>
<polygon class="l30d0" points="128.8,79.1 228.5,79.1 228.5,82.10000000000001 128.8,82.10000000000001"/>
<polygon class="l30d0" points="128.8,77.7 142.8,77.7 142.8,79.1 128.8,79.1"/>
<polygon class="l30d0" points="204.4,77.7 218.4,77.7 218.4,79.1 204.4,79.1"/>
<polygon class="l30d0" points="224.1,78.4 228.5,78.4 228.5,79.1 224.1,79.1"/>
<polygon class="l49d0" points="148.55,366.05000000000007 150.45,366.05000000000007 150.45,367.95000000000005 148.55,367.95000000000005"/>
<polygon class="l49d0" points="130.75,351.05000000000007 132.65,351.05000000000007 132.65,352.95000000000005 130.75,352.95000000000005"/>
<polygon class="l49d0" points="134.85,351.05000000000007 136.75,351.05000000000007 136.75,352.95000000000005 134.85,352.95000000000005"/>
<polygon class="l49d0" points="138.95,351.05000000000007 140.85000000000002,351.05000000000007 140.85000000000002,352.95000000000005 138.95,352.95000000000005"/>
<polygon class="l49d0" points="105.55,277.45 107.45000000000002,277.45 107.45000000000002,279.35 105.55,279.35"/>
<polygon class="l49d0" points="109.65,277.45 111.55,277.45 111.55,279.35 109.65,279.35"/>
<polygon class="l49d0" points="113.75,277.45 115.64999999999999,277.45 115.64999999999999,279.35 113.75,279.35"/>
<polygon class="l49d0" points="181.15000000000003,277.45 183.05,277.45 183.05,279.35 181.15000000000003,279.35"/>
<polygon class="l49d0" points="185.25000000000003,277.45 187.15,277.45 187.15,279.35 185.25000000000003,279.35"/>
<polygon class="l49d0" points="189.35,277.45 191.25,277.45 191.25,279.35 189.35,279.35"/>
<polygon class="l49d0" points="268.05,279.05 269.95,279.05 269.95,280.95 268.05,280.95"/>
<polygon class="l49d0" points="272.15,279.05 274.05,279.05 274.05,280.95 272.15,280.95"/>
<polygon class="l49d0" points="276.25,279.05 278.15000000000003,279.05 278.15000000000003,280.95 276.25,280.95"/>
<polygon class="l49d0" points="280.35,279.05 282.25,279.05 282.25,280.95 280.35,280.95"/>
<polygon class="l49d0" points="284.45,279.05 286.35,279.05 286.35,280.95 284.45,280.95"/>
<polygon class="l49d0" points="520.95,278.25 522.85,278.25 522.85,280.15 520.95,280.15"/>
<polygon class="l49d0" points="84.45,265.25 86.35,265.25 86.35,267.15 84.45,267.15"/>
<polygon class="l49d0" points="130.75,249.45 132.65,249.45 132.65,251.35000000000002 130.75,251.35000000000002"/>
<polygon class="l49d0" points="134.85,249.45 136.75,249.45 136.75,251.35000000000002 134.85,251.35000000000002"/>
<polygon class="l49d0" points="138.95,249.45 140.85000000000002,249.45 140.85000000000002,251.35000000000002 138.95,251.35000000000002"/>
<polygon class="l49d0" points="225.35,249.25 227.25,249.25 227.25,251.15000000000003 225.35,251.15000000000003"/>
<polygon class="l49d0" points="74.65,227.45000000000002 76.55,227.45000000000002 76.55,229.35 74.65,229.35"/>
<polygon class="l49d0" points="105.55,227.45000000000002 107.45000000000002,227.45000000000002 107.45000000000002,229.35 105.55,229.35"/>
<polygon class="l49d0" points="109.65,227.45000000000002 111.55,227.45000000000002 111.55,229.35 109.65,229.35"/>
<polygon class="l49d0" points="113.75,227.45000000000002 115.64999999999999,227.45000000000002 115.64999999999999,229.35 113.75,229.35"/>
<polygon class="l49d0" points="181.15000000000003,227.45000000000002 183.05,227.45000000000002 183.05,229.35 181.15000000000003,229.35"/>
<polygon class="l49d0" points="185.25000000000003,227.45000000000002 187.15,227.45000000000002 187.15,229.35 185.25000000000003,229.35"/>
<polygon class="l49d0" points="189.35,227.45000000000002 191.25,227.45000000000002 191.25,229.35 189.35,229.35"/>
<polygon class="l49d0" points="244.25,227.45000000000002 246.15000000000003,227.45000000000002 246.15000000000003,229.35 244.25,229.35"/>
<polygon class="l49d0" points="159.65,215.45000000000002 161.55,215.45000000000002 161.55,217.35 159.65,217.35"/>
<polygon class="l49d0" points="276.15000000000003,201.64999999999998 278.05,201.64999999999998 278.05,203.55 276.15000000000003,203.55"/>
<polygon class="l49d0" points="578.5500000000001,201.64999999999998 580.45,201.64999999999998 580.45,203.55 578.5500000000001,203.55"/>
<polygon class="l49d0" points="148.55,199.65 150.45,199.65 150.45,201.55 148.55,201.55"/>
<polygon class="l49d0" points="234.95000000000002,199.65 236.85,199.65 236.85,201.55 234.95000000000002,201.55"/>
<polygon class="l49d0" points="571.65,186.05 573.5500000000001,186.05 573.5500000000001,187.95000000000002 571.65,187.95000000000002"/>
<polygon class="l49d0" points="575.75,186.05 577.65,186.05 577.65,187.95000000000002 575.75,187.95000000000002"/>
<polygon class="l49d0" points="579.85,186.05 581.75,186.05 581.75,187.95000000000002 579.85,187.95000000000002"/>
<polygon class="l49d0" points="583.95,186.05 585.85,186.05 585.85,187.95000000000002 583.95,187.95000000000002"/>
<polygon class="l49d0" points="588.05,186.05 589.95,186.05 589.95,187.95000000000002 588.05,187.95000000000002"/>
<polygon class="l49d0" points="255.55,175.45000000000002 257.45,175.45000000000002 257.45,177.35 255.55,177.35"/>
<polygon class="l49d0" points="185.04999999999998,160.25 186.95,160.25 186.95,162.15 185.04999999999998,162.15"/>
<polygon class="l49d0" points="74.65,147.45000000000002 76.55,147.45000000000002 76.55,149.35 74.65,149.35"/>
<polygon class="l49d0" points="105.55,147.45000000000002 107.45000000000002,147.45000000000002 107.45000000000002,149.35 105.55,149.35"/>
<polygon class="l49d0" points="109.65,147.45000000000002 111.55,147.45000000000002 111.55,149.35 109.65,149.35"/>
<polygon class="l49d0" points="113.75,147.45000000000002 115.64999999999999,147.45000000000002 115.64999999999999,149.35 113.75,149.35"/>
<polygon class="l49d0" points="181.15000000000003,147.45000000000002 183.05,147.45000000000002 183.05,149.35 181.15000000000003,149.35"/>
<polygon class="l49d0" points="185.25000000000003,147.45000000000002 187.15,147.45000000000002 187.15,149.35 185.25000000000003,149.35"/>
<polygon class="l49d0" points="189.35,147.45000000000002 191.25,147.45000000000002 191.25,149.35 189.35,149.35"/>
<polygon class="l49d0" points="244.25,147.45000000000002 246.15000000000003,147.45000000000002 246.15000000000003,149.35 244.25,149.35"/>
<polygon class="l49d0" points="159.65,135.45 161.55,135.45 161.55,137.35 159.65,137.35"/>
<polygon class="l49d0" points="255.55,122.65 257.45,122.65 257.45,124.55 255.55,124.55"/>
<polygon class="l49d0" points="578.75,122.65 580.65,122.65 580.65,124.55 578.75,124.55"/>
<polygon class="l49d0" points="234.95000000000002,119.65 236.85,119.65 236.85,121.55000000000001 234.95000000000002,121.55000000000001"/>
<polygon class="l49d0" points="105.55,107.45000000000002 107.45000000000002,107.45000000000002 107.45000000000002,109.35000000000001 105.55,109.35000000000001"/>
<polygon class="l49d0" points="109.65,107.45000000000002 111.55,107.45000000000002 111.55,109.35000000000001 109.65,109.35000000000001"/>
<polygon class="l49d0" points="113.75,107.45000000000002 115.64999999999999,107.45000000000002 115.64999999999999,109.35000000000001 113.75,109.35000000000001"/>
<polygon class="l49d0" points="181.15000000000003,107.45000000000002 183.05,107.45000000000002 183.05,109.35000000000001 181.15000000000003,109.35000000000001"/>
<polygon class="l49d0" points="185.25000000000003,107.45000000000002 187.15,107.45000000000002 187.15,109.35000000000001 185.25000000000003,109.35000000000001"/>
<polygon class="l49d0" points="189.35,107.45000000000002 191.25,107.45000000000002 191.25,109.35000000000001 189.35,109.35000000000001"/>
<polygon class="l49d0" points="84.45,95.64999999999999 86.35,95.64999999999999 86.35,97.55000000000001 84.45,97.55000000000001"/>
<polygon class="l49d0" points="520.95,92.65 522.85,92.65 522.85,94.55 520.95,94.55"/>
<polygon class="l49d0" points="571.65,93.05 573.5500000000001,93.05 573.5500000000001,94.95000000000002 571.65,94.95000000000002"/>
<polygon class="l49d0" points="575.75,93.05 577.65,93.05 577.65,94.95000000000002 575.75,94.95000000000002"/>
<polygon class="l49d0" points="579.85,93.05 581.75,93.05 581.75,94.95000000000002 579.85,94.95000000000002"/>
<polygon class="l49d0" points="583.95,93.05 585.85,93.05 585.85,94.95000000000002 583.95,94.95000000000002"/>
<polygon class="l49d0" points="588.05,93.05 589.95,93.05 589.95,94.95000000000002 588.05,94.95000000000002"/>
<polygon class="l49d0" points="225.35,79.65 227.25,79.65 227.25,81.55 225.35,81.55"/>
<polygon class="l50d0" points="147.3,364.80000000000007 151.7,364.80000000000007 151.7,369.20000000000005 147.3,369.20000000000005"/>
<polygon class="l50d0" points="128.8,349.3 142.8,349.3 142.8,354.7 128.8,354.7"/>
<polygon class="l50d0" points="103.6,275.7 117.6,275.7 117.6,281.1 103.6,281.1"/>
<polygon class="l50d0" points="83.2,264.0 87.6,264.0 87.6,268.4 83.2,268.4"/>
<polygon class="l50d0" points="73.4,226.20000000000002 77.8,226.20000000000002 77.8,230.6 73.4,230.6"/>
<polygon class="l50d0" points="74.1,150.6 77.1,150.6 77.1,226.20000000000002 74.1,226.20000000000002"/>
<polygon class="l50d0" points="73.4,146.20000000000002 77.8,146.20000000000002 77.8,150.6 73.4,150.6"/>
<polygon class="l50d0" points="83.9,98.80000000000001 86.89999999999999,98.80000000000001 86.89999999999999,264.0 83.9,264.0"/>
<polygon class="l50d0" points="109.3,231.1 112.30000000000001,231.1 112.30000000000001,275.7 109.3,275.7"/>
<polygon class="l50d0" points="133.6,253.10000000000002 136.6,253.10000000000002 136.6,349.3 133.6,349.3"/>
<polygon class="l50d0" points="128.8,247.7 142.8,247.7 142.8,253.10000000000002 128.8,253.10000000000002"/>
<polygon class="l50d0" points="103.6,225.7 117.6,225.7 117.6,231.1 103.6,231.1"/>
<polygon class="l50d0" points="148.0,202.8 151.0,202.8 151.0,364.80000000000007 148.0,364.80000000000007"/>
<polygon class="l50d0" points="179.20000000000002,275.7 193.2,275.7 193.2,281.1 179.20000000000002,281.1"/>
<polygon class="l50d0" points="266.6,277.3 287.8,277.3 287.8,282.7 266.6,282.7"/>
<polygon class="l50d0" points="184.5,231.1 187.5,231.1 187.5,275.7 184.5,275.7"/>
<polygon class="l50d0" points="224.1,248.0 228.5,248.0 228.5,252.40000000000003 224.1,252.40000000000003"/>
<polygon class="l50d0" points="179.20000000000002,225.7 193.2,225.7 193.2,231.1 179.20000000000002,231.1"/>
<polygon class="l50d0" points="158.4,214.20000000000002 162.8,214.20000000000002 162.8,218.6 158.4,218.6"/>
<polygon class="l50d0" points="147.3,198.4 151.7,198.4 151.7,202.8 147.3,202.8"/>
<polygon class="l50d0" points="103.6,145.7 117.6,145.7 117.6,151.1 103.6,151.1"/>
<polygon class="l50d0" points="109.3,111.1 112.30000000000001,111.1 112.30000000000001,145.7 109.3,145.7"/>
<polygon class="l50d0" points="159.1,138.6 162.10000000000002,138.6 162.10000000000002,214.20000000000002 159.1,214.20000000000002"/>
<polygon class="l50d0" points="183.79999999999998,159.0 188.2,159.0 188.2,163.4 183.79999999999998,163.4"/>
<polygon class="l50d0" points="184.5,151.1 187.5,151.1 187.5,159.0 184.5,159.0"/>
<polygon class="l50d0" points="179.20000000000002,145.7 193.2,145.7 193.2,151.1 179.20000000000002,151.1"/>
<polygon class="l50d0" points="158.4,134.2 162.8,134.2 162.8,138.6 158.4,138.6"/>
<polygon class="l50d0" points="184.5,111.1 187.5,111.1 187.5,145.7 184.5,145.7"/>
<polygon class="l50d0" points="103.6,105.7 117.6,105.7 117.6,111.1 103.6,111.1"/>
<polygon class="l50d0" points="179.20000000000002,105.7 193.2,105.7 193.2,111.1 179.20000000000002,111.1"/>
<polygon class="l50d0" points="83.2,94.39999999999999 87.6,94.39999999999999 87.6,98.80000000000001 83.2,98.80000000000001"/>
<polygon class="l50d0" points="224.8,82.8 227.8,82.8 227.8,248.0 224.8,248.0"/>
<polygon class="l50d0" points="243.0,226.20000000000002 247.40000000000003,226.20000000000002 247.40000000000003,230.6 243.0,230.6"/>
<polygon class="l50d0" points="233.70000000000002,198.4 238.1,198.4 238.1,202.8 233.70000000000002,202.8"/>
<polygon class="l50d0" points="234.4,122.80000000000001 237.40000000000003,122.80000000000001 237.40000000000003,198.4 234.4,198.4"/>
<polygon class="l50d0" points="243.70000000000002,150.6 246.70000000000002,150.6 246.70000000000002,226.20000000000002 243.70000000000002,226.20000000000002"/>
<polygon class="l50d0" points="275.6,204.8 278.6,204.8 278.6,277.3 275.6,277.3"/>
<polygon class="l50d0" points="519.7,277.0 524.1,277.0 524.1,281.4 519.7,281.4"/>
<polygon class="l50d0" points="274.90000000000003,200.39999999999998 279.3,200.39999999999998 279.3,204.8 274.90000000000003,204.8"/>
<polygon class="l50d0" points="254.3,174.20000000000002 258.7,174.20000000000002 258.7,178.6 254.3,178.6"/>
<polygon class="l50d0" points="243.0,146.20000000000002 247.40000000000003,146.20000000000002 247.40000000000003,150.6 243.0,150.6"/>
<polygon class="l50d0" points="255.0,125.8 258.0,125.8 258.0,174.20000000000002 255.0,174.20000000000002"/>
<polygon class="l50d0" points="233.70000000000002,118.4 238.1,118.4 238.1,122.80000000000001 233.70000000000002,122.80000000000001"/>
<polygon class="l50d0" points="254.3,121.4 258.7,121.4 258.7,125.8 254.3,125.8"/>
<polygon class="l50d0" points="520.4,95.8 523.4000000000001,95.8 523.4000000000001,277.0 520.4,277.0"/>
<polygon class="l50d0" points="577.3000000000001,200.39999999999998 581.7,200.39999999999998 581.7,204.8 577.3000000000001,204.8"/>
<polygon class="l50d0" points="578.0,189.7 581.0,189.7 581.0,200.39999999999998 578.0,200.39999999999998"/>
<polygon class="l50d0" points="570.2,184.3 591.4,184.3 591.4,189.7 570.2,189.7"/>
<polygon class="l50d0" points="577.5,121.4 581.9,121.4 581.9,125.8 577.5,125.8"/>
<polygon class="l50d0" points="578.2,96.7 581.2,96.7 581.2,121.4 578.2,121.4"/>
<polygon class="l50d0" points="519.7,91.4 524.1,91.4 524.1,95.8 519.7,95.8"/>
<polygon class="l50d0" points="570.2,91.30000000000001 591.4,91.30000000000001 591.4,96.7 570.2,96.7"/>
<polygon class="l50d0" points="224.1,78.4 228.5,78.4 228.5,82.8 224.1,82.8"/>
<polygon class="l30d2" points="98.2,214.90000000000003 174.90000000000003,214.90000000000003 174.90000000000003,217.89999999999998 98.2,217.89999999999998"/>
<polygon class="l30d2" points="96.7,95.1 173.4,95.1 173.4,98.10000000000001 96.7,98.10000000000001"/>
<polygon class="l8d2" points="70.0,363.00000000000006 566.4,363.00000000000006 566.4,368.00000000000006 70.0,368.00000000000006"/>
<polygon class="l8d2" points="80.0,353.00000000000006 556.4,353.00000000000006 556.4,358.00000000000006 80.0,358.00000000000006"/>
<polygon class="l50d2" points="133.6,248.70000000000002 136.6,248.70000000000002 136.6,351.0 133.6,351.0"/>
<polygon class="l999d0" points="150.5,70.2 150.5,122.60000000000002 247.10000000000002,122.60000000000002 247.10000000000002,70.2"/>
<polygon class="l999d0" points="150.5,46.2 150.5,82.6 247.10000000000002,82.6 247.10000000000002,46.2"/>
<polygon class="l999d0" points="256.3,19.7 256.3,108.3 601.7,108.3 601.7,19.7"/>
<polygon class="l999d0" points="150.5,110.20000000000002 150.5,162.60000000000002 247.10000000000002,162.60000000000002 247.10000000000002,110.20000000000002"/>
<polygon class="l999d0" points="150.5,190.2 150.5,242.60000000000002 247.10000000000002,242.60000000000002 247.10000000000002,190.2"/>
<polygon class="l999d0" points="150.5,150.20000000000002 150.5,202.60000000000002 247.10000000000002,202.60000000000002 247.10000000000002,150.20000000000002"/>
<polygon class="l999d0" points="256.3,112.70000000000002 256.3,201.3 601.7,201.3 601.7,112.70000000000002"/>
<polygon class="l999d0" points="150.5,240.2 150.5,292.6 247.10000000000002,292.6 247.10000000000002,240.2"/>
<polygon class="l999d0" points="150.5,216.20000000000002 150.5,252.60000000000002 247.10000000000002,252.60000000000002 247.10000000000002,216.20000000000002"/>
<polygon class="l999d0" points="256.3,205.7 256.3,294.3 601.7,294.3 601.7,205.7"/>
<polygon class="l999d0" points="150.5,230.2 150.5,266.6 247.10000000000002,266.6 247.10000000000002,230.2"/>
<polygon class="l999d0" points="150.5,280.2 150.5,316.6 247.10000000000002,316.6 247.10000000000002,280.2"/>
<polygon class="l999d0" points="154.4,345.70000000000005 154.4,390.3 243.2,390.3 243.2,345.70000000000005"/>
<polygon class="l999d0" points="154.4,324.0 154.4,350.3 243.2,350.3 243.2,324.0"/>
<polygon class="l999d0" points="74.9,110.20000000000002 74.9,162.60000000000002 171.5,162.60000000000002 171.5,110.20000000000002"/>
<polygon class="l999d0" points="74.9,190.2 74.9,242.60000000000002 171.5,242.60000000000002 171.5,190.2"/>
<polygon class="l999d0" points="74.9,240.2 74.9,292.6 171.5,292.6 171.5,240.2"/>
<polygon class="l999d0" points="74.9,70.2 74.9,122.60000000000002 171.5,122.60000000000002 171.5,70.2"/>
<polygon class="l999d0" points="74.9,150.20000000000002 74.9,202.60000000000002 171.5,202.60000000000002 171.5,150.20000000000002"/>
<polygon class="l999d0" points="74.9,216.20000000000002 74.9,252.60000000000002 171.5,252.60000000000002 171.5,216.20000000000002"/>
<polygon class="l999d0" points="74.9,46.2 74.9,82.6 171.5,82.6 171.5,46.2"/>
<polygon class="l999d0" points="74.9,230.2 74.9,266.6 171.5,266.6 171.5,230.2"/>
<polygon class="l999d0" points="74.9,280.2 74.9,316.6 171.5,316.6 171.5,280.2"/>
<polygon class="l999d0" points="78.80000000000001,345.70000000000005 78.80000000000001,390.3 167.60000000000002,390.3 167.60000000000002,345.70000000000005"/>
<polygon class="l999d0" points="78.80000000000001,324.0 78.80000000000001,350.3 167.60000000000002,350.3 167.60000000000002,324.0"/>
<polygon class="l999d0" points="154.4,385.70000000000005 154.4,412.0 243.2,412.0 243.2,385.70000000000005"/>
<polygon class="l999d0" points="78.80000000000001,385.70000000000005 78.80000000000001,412.0 167.60000000000002,412.0 167.60000000000002,385.70000000000005"/>
<text class="l998t0" text-anchor="middle" dominant-baseline="text-after-edge" transform="scale(1 -1) translate(198.8 -96.4) scale(0.28)">LELOATR_PCH_4C5F0</text>
<text class="l998t0" text-anchor="middle" dominant-baseline="text-after-edge" transform="scale(1 -1) translate(198.8 -64.39999999999999) scale(0.28)">LELOATR_PCH_4CTAPBOT</text>
<text class="l998t0" text-anchor="middle" dominant-baseline="text-after-edge" transform="scale(1 -1) translate(429.0 -64.0) scale(0.28)">LELOTR_RPPO16</text>
<text class="l998t0" text-anchor="middle" dominant-baseline="text-after-edge" transform="scale(1 -1) translate(198.8 -136.4) scale(0.28)">LELOATR_PCH_4C5F0</text>
<text class="l998t0" text-anchor="middle" dominant-baseline="text-after-edge" transform="scale(1 -1) translate(198.8 -216.4) scale(0.28)">LELOATR_PCH_4C5F0</text>
<text class="l998t0" text-anchor="middle" dominant-baseline="text-after-edge" transform="scale(1 -1) translate(198.8 -176.4) scale(0.28)">LELOATR_PCH_4C5F0</text>
<text class="l998t0" text-anchor="middle" dominant-baseline="text-after-edge" transform="scale(1 -1) translate(429.0 -157.00000000000003) scale(0.28)">LELOTR_RPPO16</text>
<text class="l998t0" text-anchor="middle" dominant-baseline="text-after-edge" transform="scale(1 -1) translate(198.8 -266.4) scale(0.28)">LELOATR_PCH_4C5F0</text>
<text class="l998t0" text-anchor="middle" dominant-baseline="text-after-edge" transform="scale(1 -1) translate(198.8 -234.4) scale(0.28)">LELOATR_PCH_4CTAPBOT</text>
<text class="l998t0" text-anchor="middle" dominant-baseline="text-after-edge" transform="scale(1 -1) translate(429.0 -250.0) scale(0.28)">LELOTR_RPPO16</text>
<text class="l998t0" text-anchor="middle" dominant-baseline="text-after-edge" transform="scale(1 -1) translate(198.8 -248.4) scale(0.28)">LELOATR_PCH_4CTAPTOP</text>
<text class="l998t0" text-anchor="middle" dominant-baseline="text-after-edge" transform="scale(1 -1) translate(198.8 -298.4) scale(0.28)">LELOATR_PCH_4CTAPTOP</text>
<text class="l998t0" text-anchor="middle" dominant-baseline="text-after-edge" transform="scale(1 -1) translate(198.8 -368.00000000000006) scale(0.28)">LELOATR_NCH_4C5F0</text>
<text class="l998t0" text-anchor="middle" dominant-baseline="text-after-edge" transform="scale(1 -1) translate(198.8 -337.15000000000003) scale(0.28)">LELOATR_NCH_4CTAPBOT</text>
<text class="l998t0" text-anchor="middle" dominant-baseline="text-after-edge" transform="scale(1 -1) translate(123.2 -136.4) scale(0.28)">LELOATR_PCH_4C5F0</text>
<text class="l998t0" text-anchor="middle" dominant-baseline="text-after-edge" transform="scale(1 -1) translate(123.2 -216.4) scale(0.28)">LELOATR_PCH_4C5F0</text>
<text class="l998t0" text-anchor="middle" dominant-baseline="text-after-edge" transform="scale(1 -1) translate(123.2 -266.4) scale(0.28)">LELOATR_PCH_4C5F0</text>
<text class="l998t0" text-anchor="middle" dominant-baseline="text-after-edge" transform="scale(1 -1) translate(123.2 -96.4) scale(0.28)">LELOATR_PCH_4C5F0</text>
<text class="l998t0" text-anchor="middle" dominant-baseline="text-after-edge" transform="scale(1 -1) translate(123.2 -176.4) scale(0.28)">LELOATR_PCH_4C5F0</text>
<text class="l998t0" text-anchor="middle" dominant-baseline="text-after-edge" transform="scale(1 -1) translate(123.2 -234.4) scale(0.28)">LELOATR_PCH_4CTAPBOT</text>
<text class="l998t0" text-anchor="middle" dominant-baseline="text-after-edge" transform="scale(1 -1) translate(123.2 -64.39999999999999) scale(0.28)">LELOATR_PCH_4CTAPBOT</text>
<text class="l998t0" text-anchor="middle" dominant-baseline="text-after-edge" transform="scale(1 -1) translate(123.2 -248.4) scale(0.28)">LELOATR_PCH_4CTAPTOP</text>
<text class="l998t0" text-anchor="middle" dominant-baseline="text-after-edge" transform="scale(1 -1) translate(123.2 -298.4) scale(0.28)">LELOATR_PCH_4CTAPTOP</text>
<text class="l998t0" text-anchor="middle" dominant-baseline="text-after-edge" transform="scale(1 -1) translate(123.2 -368.00000000000006) scale(0.28)">LELOATR_NCH_4C5F0</text>
<text class="l998t0" text-anchor="middle" dominant-baseline="text-after-edge" transform="scale(1 -1) translate(123.2 -337.15000000000003) scale(0.28)">LELOATR_NCH_4CTAPBOT</text>
<text class="l998t0" text-anchor="middle" dominant-baseline="text-after-edge" transform="scale(1 -1) translate(198.8 -398.85) scale(0.28)">LELOATR_NCH_4CTAPTOP</text>
<text class="l998t0" text-anchor="middle" dominant-baseline="text-after-edge" transform="scale(1 -1) translate(123.2 -398.85) scale(0.28)">LELOATR_NCH_4CTAPTOP</text>
</g>
</svg>