<?xml version="1.0" encoding="UTF-8"?>
<svg xmlns="http://www.w3.org/2000/svg" xmlns:xlink="http://www.w3.org/1999/xlink"
     width="429.4" height="587.4000000000001" viewBox="-10.7 -576.7 429.4 587.4000000000001">
<defs>
        
        <style type="text/css">
          /* Highlighted layers */
          .l70d20 { fill: #1f77b4; fill-opacity: 0.7; }    /* Metal2 (blue) */
          .l69d20 { fill: #d62728; fill-opacity: 0.7; }    /* Metal3 (red) */
          .l67d20 { fill: #56423e; fill-opacity: 0.7; }    /* Metal1 (brown) */
          .l68d20 { fill: #bea6a1; fill-opacity: 0.7; }    /* Locali (light brown) */
          .l68d44 { fill: #0077ff;}                        /* via1 (bright blue) */
          .l67d44 { fill: #e09a8e;}                        /* viali (red shade) */
          .l69d44 { fill: #70b512;}                        /* via2 (green) */
          /* Not dealt with */
          .l64d20,
          .l65d20,
          .l65d44,
          .l66d13,
          .l66d20,
          .l66d44,
          .l67d16,
          .l68d16,
          .l69d16,
          .l86d20,
          .l93d44,
          .l94d20,
          .l95d20,
          .l235d4 {
            fill: #000000;
            fill-opacity: 0.0;
          }
          /* Subcell box */
          .l998t0 { fill: #F5F5F5; font-size: 16px;}
          .l997t0 { fill: #000000; font-size: 16px;}
          .l999d0 { stroke: #000000; stroke-width: 0.7; fill: #000000; fill-opacity: 0.2; }
        </style>
        
        

</defs>
<rect x="-10.7" y="-576.7" width="429.4" height="587.4000000000001" fill="#ffffff" stroke="none"/>
<g id="VISUAL_TOP" transform="scale(1 -1)">
<polygon class="l94d20" points="163.15,370.25 389.25000000000006,370.25 389.25000000000006,372.75 163.15,372.75"/>
<polygon class="l94d20" points="48.75,319.65 67.25,319.65 67.25,321.15000000000003 48.75,321.15000000000003"/>
<polygon class="l94d20" points="106.35,319.65 124.85,319.65 124.85,321.15000000000003 106.35,321.15000000000003"/>
<polygon class="l94d20" points="48.75,279.65 67.25,279.65 67.25,281.15000000000003 48.75,281.15000000000003"/>
<polygon class="l94d20" points="106.35,279.65 124.85,279.65 124.85,281.15000000000003 106.35,281.15000000000003"/>
<polygon class="l94d20" points="48.75,239.65 67.25,239.65 67.25,241.15000000000003 48.75,241.15000000000003"/>
<polygon class="l94d20" points="106.35,239.65 124.85,239.65 124.85,241.15000000000003 106.35,241.15000000000003"/>
<polygon class="l94d20" points="48.75,199.65 67.25,199.65 67.25,201.15000000000003 48.75,201.15000000000003"/>
<polygon class="l94d20" points="106.35,199.65 124.85,199.65 124.85,201.15000000000003 106.35,201.15000000000003"/>
<polygon class="l94d20" points="163.15,193.25 389.25000000000006,193.25 389.25000000000006,195.75 163.15,195.75"/>
<polygon class="l67d20" points="-0.7000000000000001,566.0 5.700000000000001,566.0 5.700000000000001,566.7 -0.7000000000000001,566.7"/>
<polygon class="l67d20" points="402.30000000000007,566.0 408.7,566.0 408.7,566.7 402.30000000000007,566.7"/>
<polygon class="l67d20" points="-0.7000000000000001,561.0 408.7,561.0 408.7,566.0 -0.7000000000000001,566.0"/>
<polygon class="l67d20" points="-0.7000000000000001,560.3 5.700000000000001,560.3 5.700000000000001,561.0 -0.7000000000000001,561.0"/>
<polygon class="l67d20" points="402.30000000000007,560.3 408.7,560.3 408.7,561.0 402.30000000000007,561.0"/>
<polygon class="l67d20" points="9.3,556.0 15.700000000000001,556.0 15.700000000000001,556.7 9.3,556.7"/>
<polygon class="l67d20" points="392.30000000000007,556.0 398.7,556.0 398.7,556.7 392.30000000000007,556.7"/>
<polygon class="l67d20" points="9.3,551.0 398.7,551.0 398.7,556.0 9.3,556.0"/>
<polygon class="l67d20" points="9.3,550.3 15.700000000000001,550.3 15.700000000000001,551.0 9.3,551.0"/>
<polygon class="l67d20" points="392.30000000000007,550.3 398.7,550.3 398.7,551.0 392.30000000000007,551.0"/>
<polygon class="l67d20" points="392.30000000000007,546.0 398.7,546.0 398.7,546.7 392.30000000000007,546.7"/>
<polygon class="l67d20" points="164.4,540.4 398.7,540.4 398.7,546.0 164.4,546.0"/>
<polygon class="l67d20" points="392.30000000000007,539.7 398.7,539.7 398.7,540.4 392.30000000000007,540.4"/>
<polygon class="l67d20" points="181.9,519.3 197.7,519.3 197.7,532.7 181.9,532.7"/>
<polygon class="l67d20" points="354.7,519.3 370.50000000000006,519.3 370.50000000000006,532.7 354.7,532.7"/>
<polygon class="l67d20" points="392.30000000000007,379.6 398.7,379.6 398.7,380.3 392.30000000000007,380.3"/>
<polygon class="l67d20" points="-0.7000000000000001,377.2 5.700000000000001,377.2 5.700000000000001,377.9 -0.7000000000000001,377.9"/>
<polygon class="l67d20" points="-0.7000000000000001,367.59999999999997 153.6,367.59999999999997 153.6,377.2 -0.7000000000000001,377.2"/>
<polygon class="l67d20" points="164.4,374.0 398.7,374.0 398.7,379.6 164.4,379.6"/>
<polygon class="l67d20" points="392.30000000000007,373.29999999999995 398.7,373.29999999999995 398.7,374.0 392.30000000000007,374.0"/>
<polygon class="l67d20" points="392.30000000000007,369.0 398.7,369.0 398.7,369.7 392.30000000000007,369.7"/>
<polygon class="l67d20" points="-0.7000000000000001,366.9 5.700000000000001,366.9 5.700000000000001,367.59999999999997 -0.7000000000000001,367.59999999999997"/>
<polygon class="l67d20" points="164.4,363.40000000000003 398.7,363.40000000000003 398.7,369.0 164.4,369.0"/>
<polygon class="l67d20" points="392.30000000000007,362.70000000000005 398.7,362.70000000000005 398.7,363.40000000000003 392.30000000000007,363.40000000000003"/>
<polygon class="l67d20" points="24.4,350.4 53.2,350.4 53.2,354.4 24.4,354.4"/>
<polygon class="l67d20" points="82.0,350.4 110.8,350.4 110.8,354.4 82.0,354.4"/>
<polygon class="l67d20" points="165.2,343.00000000000006 197.0,343.00000000000006 197.0,355.0 165.2,355.0"/>
<polygon class="l67d20" points="62.800000000000004,338.40000000000003 78.8,338.40000000000003 78.8,342.40000000000003 62.800000000000004,342.40000000000003"/>
<polygon class="l67d20" points="354.7,342.30000000000007 370.50000000000006,342.30000000000007 370.50000000000006,355.7 354.7,355.7"/>
<polygon class="l67d20" points="392.30000000000007,202.60000000000002 398.7,202.60000000000002 398.7,203.3 392.30000000000007,203.3"/>
<polygon class="l67d20" points="164.4,197.0 398.7,197.0 398.7,202.60000000000002 164.4,202.60000000000002"/>
<polygon class="l67d20" points="392.30000000000007,196.29999999999998 398.7,196.29999999999998 398.7,197.0 392.30000000000007,197.0"/>
<polygon class="l67d20" points="392.30000000000007,192.0 398.7,192.0 398.7,192.7 392.30000000000007,192.7"/>
<polygon class="l67d20" points="164.4,186.4 398.7,186.4 398.7,192.0 164.4,192.0"/>
<polygon class="l67d20" points="392.30000000000007,185.7 398.7,185.7 398.7,186.4 392.30000000000007,186.4"/>
<polygon class="l67d20" points="181.9,165.3 197.7,165.3 197.7,178.70000000000002 181.9,178.70000000000002"/>
<polygon class="l67d20" points="354.7,165.3 370.50000000000006,165.3 370.50000000000006,178.70000000000002 354.7,178.70000000000002"/>
<polygon class="l67d20" points="-0.7000000000000001,153.2 5.700000000000001,153.2 5.700000000000001,153.9 -0.7000000000000001,153.9"/>
<polygon class="l67d20" points="-0.7000000000000001,143.6 153.6,143.6 153.6,153.2 -0.7000000000000001,153.2"/>
<polygon class="l67d20" points="-0.7000000000000001,142.9 5.700000000000001,142.9 5.700000000000001,143.6 -0.7000000000000001,143.6"/>
<polygon class="l67d20" points="9.3,107.2 15.700000000000001,107.2 15.700000000000001,107.9 9.3,107.9"/>
<polygon class="l67d20" points="9.3,97.6 153.6,97.6 153.6,107.2 9.3,107.2"/>
<polygon class="l67d20" points="9.3,96.89999999999999 15.700000000000001,96.89999999999999 15.700000000000001,97.6 9.3,97.6"/>
<polygon class="l67d20" points="24.4,80.4 53.2,80.4 53.2,84.39999999999999 24.4,84.39999999999999"/>
<polygon class="l67d20" points="82.0,80.4 110.8,80.4 110.8,84.39999999999999 82.0,84.39999999999999"/>
<polygon class="l67d20" points="62.800000000000004,68.4 78.8,68.4 78.8,72.4 62.800000000000004,72.4"/>
<polygon class="l67d20" points="9.3,43.2 15.700000000000001,43.2 15.700000000000001,43.9 9.3,43.9"/>
<polygon class="l67d20" points="9.3,33.6 153.6,33.6 153.6,43.2 9.3,43.2"/>
<polygon class="l67d20" points="9.3,32.9 15.700000000000001,32.9 15.700000000000001,33.6 9.3,33.6"/>
<polygon class="l67d20" points="392.30000000000007,25.6 398.7,25.6 398.7,26.299999999999997 392.30000000000007,26.299999999999997"/>
<polygon class="l67d20" points="164.4,20.0 398.7,20.0 398.7,25.6 164.4,25.6"/>
<polygon class="l67d20" points="392.30000000000007,19.3 398.7,19.3 398.7,20.0 392.30000000000007,20.0"/>
<polygon class="l67d20" points="9.3,15.0 15.700000000000001,15.0 15.700000000000001,15.700000000000001 9.3,15.700000000000001"/>
<polygon class="l67d20" points="392.30000000000007,15.0 398.7,15.0 398.7,15.700000000000001 392.30000000000007,15.700000000000001"/>
<polygon class="l67d20" points="9.3,10.0 398.7,10.0 398.7,15.0 9.3,15.0"/>
<polygon class="l67d20" points="9.3,9.3 15.700000000000001,9.3 15.700000000000001,10.0 9.3,10.0"/>
<polygon class="l67d20" points="392.30000000000007,9.3 398.7,9.3 398.7,10.0 392.30000000000007,10.0"/>
<polygon class="l67d20" points="-0.7000000000000001,5.0 5.700000000000001,5.0 5.700000000000001,5.700000000000001 -0.7000000000000001,5.700000000000001"/>
<polygon class="l67d20" points="402.30000000000007,5.0 408.7,5.0 408.7,5.700000000000001 402.30000000000007,5.700000000000001"/>
<polygon class="l67d20" points="-0.7000000000000001,0.0 408.7,0.0 408.7,5.0 -0.7000000000000001,5.0"/>
<polygon class="l67d20" points="-0.7000000000000001,-0.7000000000000001 5.700000000000001,-0.7000000000000001 5.700000000000001,0.0 -0.7000000000000001,0.0"/>
<polygon class="l67d20" points="402.30000000000007,-0.7000000000000001 408.7,-0.7000000000000001 408.7,0.0 402.30000000000007,0.0"/>
<polygon class="l67d44" points="1.6500000000000001,562.65 3.35,562.65 3.35,564.35 1.6500000000000001,564.35"/>
<polygon class="l67d44" points="404.65000000000003,562.65 406.34999999999997,562.65 406.34999999999997,564.35 404.65000000000003,564.35"/>
<polygon class="l67d44" points="11.65,552.65 13.35,552.65 13.35,554.35 11.65,554.35"/>
<polygon class="l67d44" points="394.65000000000003,552.65 396.34999999999997,552.65 396.34999999999997,554.35 394.65000000000003,554.35"/>
<polygon class="l67d44" points="394.65000000000003,544.15 396.34999999999997,544.15 396.34999999999997,545.85 394.65000000000003,545.85"/>
<polygon class="l67d44" points="394.65000000000003,540.55 396.34999999999997,540.55 396.34999999999997,542.25 394.65000000000003,542.25"/>
<polygon class="l67d44" points="183.55,528.75 185.25000000000003,528.75 185.25000000000003,530.45 183.55,530.45"/>
<polygon class="l67d44" points="187.15,528.75 188.85000000000002,528.75 188.85000000000002,530.45 187.15,530.45"/>
<polygon class="l67d44" points="190.75,528.75 192.45000000000002,528.75 192.45000000000002,530.45 190.75,530.45"/>
<polygon class="l67d44" points="194.35,528.75 196.05,528.75 196.05,530.45 194.35,530.45"/>
<polygon class="l67d44" points="356.34999999999997,528.75 358.05,528.75 358.05,530.45 356.34999999999997,530.45"/>
<polygon class="l67d44" points="359.95,528.75 361.65,528.75 361.65,530.45 359.95,530.45"/>
<polygon class="l67d44" points="363.55000000000007,528.75 365.25,528.75 365.25,530.45 363.55000000000007,530.45"/>
<polygon class="l67d44" points="367.15000000000003,528.75 368.84999999999997,528.75 368.84999999999997,530.45 367.15000000000003,530.45"/>
<polygon class="l67d44" points="183.55,525.15 185.25000000000003,525.15 185.25000000000003,526.85 183.55,526.85"/>
<polygon class="l67d44" points="187.15,525.15 188.85000000000002,525.15 188.85000000000002,526.85 187.15,526.85"/>
<polygon class="l67d44" points="190.75,525.15 192.45000000000002,525.15 192.45000000000002,526.85 190.75,526.85"/>
<polygon class="l67d44" points="194.35,525.15 196.05,525.15 196.05,526.85 194.35,526.85"/>
<polygon class="l67d44" points="356.34999999999997,525.15 358.05,525.15 358.05,526.85 356.34999999999997,526.85"/>
<polygon class="l67d44" points="359.95,525.15 361.65,525.15 361.65,526.85 359.95,526.85"/>
<polygon class="l67d44" points="363.55000000000007,525.15 365.25,525.15 365.25,526.85 363.55000000000007,526.85"/>
<polygon class="l67d44" points="367.15000000000003,525.15 368.84999999999997,525.15 368.84999999999997,526.85 367.15000000000003,526.85"/>
<polygon class="l67d44" points="183.55,521.55 185.25000000000003,521.55 185.25000000000003,523.25 183.55,523.25"/>
<polygon class="l67d44" points="187.15,521.55 188.85000000000002,521.55 188.85000000000002,523.25 187.15,523.25"/>
<polygon class="l67d44" points="190.75,521.55 192.45000000000002,521.55 192.45000000000002,523.25 190.75,523.25"/>
<polygon class="l67d44" points="194.35,521.55 196.05,521.55 196.05,523.25 194.35,523.25"/>
<polygon class="l67d44" points="356.34999999999997,521.55 358.05,521.55 358.05,523.25 356.34999999999997,523.25"/>
<polygon class="l67d44" points="359.95,521.55 361.65,521.55 361.65,523.25 359.95,523.25"/>
<polygon class="l67d44" points="363.55000000000007,521.55 365.25,521.55 365.25,523.25 363.55000000000007,523.25"/>
<polygon class="l67d44" points="367.15000000000003,521.55 368.84999999999997,521.55 368.84999999999997,523.25 367.15000000000003,523.25"/>
<polygon class="l67d44" points="394.65000000000003,377.75 396.34999999999997,377.75 396.34999999999997,379.45 394.65000000000003,379.45"/>
<polygon class="l67d44" points="1.6500000000000001,375.15 3.35,375.15 3.35,376.85 1.6500000000000001,376.85"/>
<polygon class="l67d44" points="394.65000000000003,374.15 396.34999999999997,374.15 396.34999999999997,375.85 394.65000000000003,375.85"/>
<polygon class="l67d44" points="1.6500000000000001,371.55 3.35,371.55 3.35,373.25 1.6500000000000001,373.25"/>
<polygon class="l67d44" points="1.6500000000000001,367.95000000000005 3.35,367.95000000000005 3.35,369.65000000000003 1.6500000000000001,369.65000000000003"/>
<polygon class="l67d44" points="394.65000000000003,367.15000000000003 396.34999999999997,367.15000000000003 396.34999999999997,368.84999999999997 394.65000000000003,368.84999999999997"/>
<polygon class="l67d44" points="394.65000000000003,363.55000000000007 396.34999999999997,363.55000000000007 396.34999999999997,365.25 394.65000000000003,365.25"/>
<polygon class="l67d44" points="356.34999999999997,351.75000000000006 358.05,351.75000000000006 358.05,353.45 356.34999999999997,353.45"/>
<polygon class="l67d44" points="359.95,351.75000000000006 361.65,351.75000000000006 361.65,353.45 359.95,353.45"/>
<polygon class="l67d44" points="363.55000000000007,351.75000000000006 365.25,351.75000000000006 365.25,353.45 363.55000000000007,353.45"/>
<polygon class="l67d44" points="367.15000000000003,351.75000000000006 368.84999999999997,351.75000000000006 368.84999999999997,353.45 367.15000000000003,353.45"/>
<polygon class="l67d44" points="356.34999999999997,348.15 358.05,348.15 358.05,349.85 356.34999999999997,349.85"/>
<polygon class="l67d44" points="359.95,348.15 361.65,348.15 361.65,349.85 359.95,349.85"/>
<polygon class="l67d44" points="363.55000000000007,348.15 365.25,348.15 365.25,349.85 363.55000000000007,349.85"/>
<polygon class="l67d44" points="367.15000000000003,348.15 368.84999999999997,348.15 368.84999999999997,349.85 367.15000000000003,349.85"/>
<polygon class="l67d44" points="356.34999999999997,344.54999999999995 358.05,344.54999999999995 358.05,346.25 356.34999999999997,346.25"/>
<polygon class="l67d44" points="359.95,344.54999999999995 361.65,344.54999999999995 361.65,346.25 359.95,346.25"/>
<polygon class="l67d44" points="363.55000000000007,344.54999999999995 365.25,344.54999999999995 365.25,346.25 363.55000000000007,346.25"/>
<polygon class="l67d44" points="367.15000000000003,344.54999999999995 368.84999999999997,344.54999999999995 368.84999999999997,346.25 367.15000000000003,346.25"/>
<polygon class="l67d44" points="394.65000000000003,200.75 396.34999999999997,200.75 396.34999999999997,202.45000000000002 394.65000000000003,202.45000000000002"/>
<polygon class="l67d44" points="394.65000000000003,197.15 396.34999999999997,197.15 396.34999999999997,198.85000000000002 394.65000000000003,198.85000000000002"/>
<polygon class="l67d44" points="394.65000000000003,190.15 396.34999999999997,190.15 396.34999999999997,191.85 394.65000000000003,191.85"/>
<polygon class="l67d44" points="394.65000000000003,186.55 396.34999999999997,186.55 396.34999999999997,188.25 394.65000000000003,188.25"/>
<polygon class="l67d44" points="183.55,174.75 185.25000000000003,174.75 185.25000000000003,176.45 183.55,176.45"/>
<polygon class="l67d44" points="187.15,174.75 188.85000000000002,174.75 188.85000000000002,176.45 187.15,176.45"/>
<polygon class="l67d44" points="190.75,174.75 192.45000000000002,174.75 192.45000000000002,176.45 190.75,176.45"/>
<polygon class="l67d44" points="194.35,174.75 196.05,174.75 196.05,176.45 194.35,176.45"/>
<polygon class="l67d44" points="356.34999999999997,174.75 358.05,174.75 358.05,176.45 356.34999999999997,176.45"/>
<polygon class="l67d44" points="359.95,174.75 361.65,174.75 361.65,176.45 359.95,176.45"/>
<polygon class="l67d44" points="363.55000000000007,174.75 365.25,174.75 365.25,176.45 363.55000000000007,176.45"/>
<polygon class="l67d44" points="367.15000000000003,174.75 368.84999999999997,174.75 368.84999999999997,176.45 367.15000000000003,176.45"/>
<polygon class="l67d44" points="183.55,171.15000000000003 185.25000000000003,171.15000000000003 185.25000000000003,172.85 183.55,172.85"/>
<polygon class="l67d44" points="187.15,171.15000000000003 188.85000000000002,171.15000000000003 188.85000000000002,172.85 187.15,172.85"/>
<polygon class="l67d44" points="190.75,171.15000000000003 192.45000000000002,171.15000000000003 192.45000000000002,172.85 190.75,172.85"/>
<polygon class="l67d44" points="194.35,171.15000000000003 196.05,171.15000000000003 196.05,172.85 194.35,172.85"/>
<polygon class="l67d44" points="356.34999999999997,171.15000000000003 358.05,171.15000000000003 358.05,172.85 356.34999999999997,172.85"/>
<polygon class="l67d44" points="359.95,171.15000000000003 361.65,171.15000000000003 361.65,172.85 359.95,172.85"/>
<polygon class="l67d44" points="363.55000000000007,171.15000000000003 365.25,171.15000000000003 365.25,172.85 363.55000000000007,172.85"/>
<polygon class="l67d44" points="367.15000000000003,171.15000000000003 368.84999999999997,171.15000000000003 368.84999999999997,172.85 367.15000000000003,172.85"/>
<polygon class="l67d44" points="183.55,167.54999999999998 185.25000000000003,167.54999999999998 185.25000000000003,169.25 183.55,169.25"/>
<polygon class="l67d44" points="187.15,167.54999999999998 188.85000000000002,167.54999999999998 188.85000000000002,169.25 187.15,169.25"/>
<polygon class="l67d44" points="190.75,167.54999999999998 192.45000000000002,167.54999999999998 192.45000000000002,169.25 190.75,169.25"/>
<polygon class="l67d44" points="194.35,167.54999999999998 196.05,167.54999999999998 196.05,169.25 194.35,169.25"/>
<polygon class="l67d44" points="356.34999999999997,167.54999999999998 358.05,167.54999999999998 358.05,169.25 356.34999999999997,169.25"/>
<polygon class="l67d44" points="359.95,167.54999999999998 361.65,167.54999999999998 361.65,169.25 359.95,169.25"/>
<polygon class="l67d44" points="363.55000000000007,167.54999999999998 365.25,167.54999999999998 365.25,169.25 363.55000000000007,169.25"/>
<polygon class="l67d44" points="367.15000000000003,167.54999999999998 368.84999999999997,167.54999999999998 368.84999999999997,169.25 367.15000000000003,169.25"/>
<polygon class="l67d44" points="1.6500000000000001,151.15 3.35,151.15 3.35,152.85 1.6500000000000001,152.85"/>
<polygon class="l67d44" points="1.6500000000000001,147.55 3.35,147.55 3.35,149.25 1.6500000000000001,149.25"/>
<polygon class="l67d44" points="1.6500000000000001,143.95 3.35,143.95 3.35,145.65 1.6500000000000001,145.65"/>
<polygon class="l67d44" points="11.65,105.15 13.35,105.15 13.35,106.85000000000001 11.65,106.85000000000001"/>
<polygon class="l67d44" points="11.65,101.55 13.35,101.55 13.35,103.25000000000001 11.65,103.25000000000001"/>
<polygon class="l67d44" points="11.65,97.95 13.35,97.95 13.35,99.65 11.65,99.65"/>
<polygon class="l67d44" points="11.65,41.150000000000006 13.35,41.150000000000006 13.35,42.85 11.65,42.85"/>
<polygon class="l67d44" points="11.65,37.55 13.35,37.55 13.35,39.25 11.65,39.25"/>
<polygon class="l67d44" points="11.65,33.95 13.35,33.95 13.35,35.65 11.65,35.65"/>
<polygon class="l67d44" points="394.65000000000003,23.75 396.34999999999997,23.75 396.34999999999997,25.45 394.65000000000003,25.45"/>
<polygon class="l67d44" points="394.65000000000003,20.150000000000002 396.34999999999997,20.150000000000002 396.34999999999997,21.85 394.65000000000003,21.85"/>
<polygon class="l67d44" points="11.65,11.65 13.35,11.65 13.35,13.35 11.65,13.35"/>
<polygon class="l67d44" points="394.65000000000003,11.65 396.34999999999997,11.65 396.34999999999997,13.35 394.65000000000003,13.35"/>
<polygon class="l67d44" points="1.6500000000000001,1.6500000000000001 3.35,1.6500000000000001 3.35,3.35 1.6500000000000001,3.35"/>
<polygon class="l67d44" points="404.65000000000003,1.6500000000000001 406.34999999999997,1.6500000000000001 406.34999999999997,3.35 404.65000000000003,3.35"/>
<polygon class="l68d20" points="-0.7000000000000001,560.3 5.700000000000001,560.3 5.700000000000001,566.7 -0.7000000000000001,566.7"/>
<polygon class="l68d20" points="402.30000000000007,560.3 408.7,560.3 408.7,566.7 402.30000000000007,566.7"/>
<polygon class="l68d20" points="0.0,377.9 5.0,377.9 5.0,560.3 0.0,560.3"/>
<polygon class="l68d20" points="9.3,550.3 15.700000000000001,550.3 15.700000000000001,556.7 9.3,556.7"/>
<polygon class="l68d20" points="392.30000000000007,550.3 398.7,550.3 398.7,556.7 392.30000000000007,556.7"/>
<polygon class="l68d20" points="-0.7000000000000001,366.9 5.700000000000001,366.9 5.700000000000001,377.9 -0.7000000000000001,377.9"/>
<polygon class="l68d20" points="0.0,153.9 5.0,153.9 5.0,366.9 0.0,366.9"/>
<polygon class="l68d20" points="-0.7000000000000001,142.9 5.700000000000001,142.9 5.700000000000001,153.9 -0.7000000000000001,153.9"/>
<polygon class="l68d20" points="0.0,5.700000000000001 5.0,5.700000000000001 5.0,142.9 0.0,142.9"/>
<polygon class="l68d20" points="10.0,107.9 15.0,107.9 15.0,550.3 10.0,550.3"/>
<polygon class="l68d20" points="393.00000000000006,546.7 398.00000000000006,546.7 398.00000000000006,550.3 393.00000000000006,550.3"/>
<polygon class="l68d20" points="392.30000000000007,539.7 398.7,539.7 398.7,546.7 392.30000000000007,546.7"/>
<polygon class="l68d20" points="181.9,519.3 197.7,519.3 197.7,532.7 181.9,532.7"/>
<polygon class="l68d20" points="354.7,519.3 370.50000000000006,519.3 370.50000000000006,532.7 354.7,532.7"/>
<polygon class="l68d20" points="393.00000000000006,380.3 398.00000000000006,380.3 398.00000000000006,539.7 393.00000000000006,539.7"/>
<polygon class="l68d20" points="392.30000000000007,373.29999999999995 398.7,373.29999999999995 398.7,380.3 392.30000000000007,380.3"/>
<polygon class="l68d20" points="393.00000000000006,369.7 398.00000000000006,369.7 398.00000000000006,373.29999999999995 393.00000000000006,373.29999999999995"/>
<polygon class="l68d20" points="392.30000000000007,362.70000000000005 398.7,362.70000000000005 398.7,369.7 392.30000000000007,369.7"/>
<polygon class="l68d20" points="36.5,337.70000000000005 41.1,337.70000000000005 41.1,343.1 36.5,343.1"/>
<polygon class="l68d20" points="94.1,337.70000000000005 98.70000000000002,337.70000000000005 98.70000000000002,343.1 94.1,343.1"/>
<polygon class="l68d20" points="354.7,342.30000000000007 370.50000000000006,342.30000000000007 370.50000000000006,355.7 354.7,355.7"/>
<polygon class="l68d20" points="119.7,321.70000000000005 130.7,321.70000000000005 130.7,327.1 119.7,327.1"/>
<polygon class="l68d20" points="42.9,309.70000000000005 53.9,309.70000000000005 53.9,315.1 42.9,315.1"/>
<polygon class="l68d20" points="100.5,309.70000000000005 111.5,309.70000000000005 111.5,315.1 100.5,315.1"/>
<polygon class="l68d20" points="36.5,297.7 41.1,297.7 41.1,303.1 36.5,303.1"/>
<polygon class="l68d20" points="94.1,297.7 98.70000000000002,297.7 98.70000000000002,303.1 94.1,303.1"/>
<polygon class="l68d20" points="62.1,281.70000000000005 73.10000000000001,281.70000000000005 73.10000000000001,287.1 62.1,287.1"/>
<polygon class="l68d20" points="119.7,281.70000000000005 130.7,281.70000000000005 130.7,287.1 119.7,287.1"/>
<polygon class="l68d20" points="42.9,269.7 53.9,269.7 53.9,275.1 42.9,275.1"/>
<polygon class="l68d20" points="100.5,269.7 111.5,269.7 111.5,275.1 100.5,275.1"/>
<polygon class="l68d20" points="36.5,257.7 41.1,257.7 41.1,263.1 36.5,263.1"/>
<polygon class="l68d20" points="94.1,257.7 98.70000000000002,257.7 98.70000000000002,263.1 94.1,263.1"/>
<polygon class="l68d20" points="62.1,241.70000000000002 73.10000000000001,241.70000000000002 73.10000000000001,247.10000000000002 62.1,247.10000000000002"/>
<polygon class="l68d20" points="119.7,241.70000000000002 130.7,241.70000000000002 130.7,247.10000000000002 119.7,247.10000000000002"/>
<polygon class="l68d20" points="42.9,229.7 53.9,229.7 53.9,235.10000000000002 42.9,235.10000000000002"/>
<polygon class="l68d20" points="100.5,229.7 111.5,229.7 111.5,235.10000000000002 100.5,235.10000000000002"/>
<polygon class="l68d20" points="36.5,217.7 41.1,217.7 41.1,223.1 36.5,223.1"/>
<polygon class="l68d20" points="94.1,217.7 98.70000000000002,217.7 98.70000000000002,223.1 94.1,223.1"/>
<polygon class="l68d20" points="62.1,201.70000000000002 73.10000000000001,201.70000000000002 73.10000000000001,207.10000000000002 62.1,207.10000000000002"/>
<polygon class="l68d20" points="119.7,201.70000000000002 130.7,201.70000000000002 130.7,207.10000000000002 119.7,207.10000000000002"/>
<polygon class="l68d20" points="393.00000000000006,203.3 398.00000000000006,203.3 398.00000000000006,362.70000000000005 393.00000000000006,362.70000000000005"/>
<polygon class="l68d20" points="392.30000000000007,196.29999999999998 398.7,196.29999999999998 398.7,203.3 392.30000000000007,203.3"/>
<polygon class="l68d20" points="42.9,189.7 53.9,189.7 53.9,195.10000000000002 42.9,195.10000000000002"/>
<polygon class="l68d20" points="100.5,189.7 111.5,189.7 111.5,195.10000000000002 100.5,195.10000000000002"/>
<polygon class="l68d20" points="393.00000000000006,192.7 398.00000000000006,192.7 398.00000000000006,196.29999999999998 393.00000000000006,196.29999999999998"/>
<polygon class="l68d20" points="392.30000000000007,185.7 398.7,185.7 398.7,192.7 392.30000000000007,192.7"/>
<polygon class="l68d20" points="36.5,177.7 41.1,177.7 41.1,183.1 36.5,183.1"/>
<polygon class="l68d20" points="94.1,177.7 98.70000000000002,177.7 98.70000000000002,183.1 94.1,183.1"/>
<polygon class="l68d20" points="62.1,161.70000000000002 73.10000000000001,161.70000000000002 73.10000000000001,167.10000000000002 62.1,167.10000000000002"/>
<polygon class="l68d20" points="119.7,161.70000000000002 130.7,161.70000000000002 130.7,167.10000000000002 119.7,167.10000000000002"/>
<polygon class="l68d20" points="181.9,165.3 197.7,165.3 197.7,178.70000000000002 181.9,178.70000000000002"/>
<polygon class="l68d20" points="354.7,165.3 370.50000000000006,165.3 370.50000000000006,178.70000000000002 354.7,178.70000000000002"/>
<polygon class="l68d20" points="9.3,96.89999999999999 15.700000000000001,96.89999999999999 15.700000000000001,107.9 9.3,107.9"/>
<polygon class="l68d20" points="10.0,43.9 15.0,43.9 15.0,96.89999999999999 10.0,96.89999999999999"/>
<polygon class="l68d20" points="36.5,67.7 41.1,67.7 41.1,73.10000000000001 36.5,73.10000000000001"/>
<polygon class="l68d20" points="94.1,67.7 98.70000000000002,67.7 98.70000000000002,73.10000000000001 94.1,73.10000000000001"/>
<polygon class="l68d20" points="119.7,51.7 130.7,51.7 130.7,57.1 119.7,57.1"/>
<polygon class="l68d20" points="9.3,32.9 15.700000000000001,32.9 15.700000000000001,43.9 9.3,43.9"/>
<polygon class="l68d20" points="10.0,15.700000000000001 15.0,15.700000000000001 15.0,32.9 10.0,32.9"/>
<polygon class="l68d20" points="393.00000000000006,26.299999999999997 398.00000000000006,26.299999999999997 398.00000000000006,185.7 393.00000000000006,185.7"/>
<polygon class="l68d20" points="392.30000000000007,19.3 398.7,19.3 398.7,26.299999999999997 392.30000000000007,26.299999999999997"/>
<polygon class="l68d20" points="393.00000000000006,15.700000000000001 398.00000000000006,15.700000000000001 398.00000000000006,19.3 393.00000000000006,19.3"/>
<polygon class="l68d20" points="9.3,9.3 15.700000000000001,9.3 15.700000000000001,15.700000000000001 9.3,15.700000000000001"/>
<polygon class="l68d20" points="392.30000000000007,9.3 398.7,9.3 398.7,15.700000000000001 392.30000000000007,15.700000000000001"/>
<polygon class="l68d20" points="403.00000000000006,5.700000000000001 408.00000000000006,5.700000000000001 408.00000000000006,560.3 403.00000000000006,560.3"/>
<polygon class="l68d20" points="-0.7000000000000001,-0.7000000000000001 5.700000000000001,-0.7000000000000001 5.700000000000001,5.700000000000001 -0.7000000000000001,5.700000000000001"/>
<polygon class="l68d20" points="402.30000000000007,-0.7000000000000001 408.7,-0.7000000000000001 408.7,5.700000000000001 402.30000000000007,5.700000000000001"/>
<polygon class="l68d44" points="184.25,528.45 185.75,528.45 185.75,529.95 184.25,529.95"/>
<polygon class="l68d44" points="187.45000000000002,528.45 188.95,528.45 188.95,529.95 187.45000000000002,529.95"/>
<polygon class="l68d44" points="190.65,528.45 192.15,528.45 192.15,529.95 190.65,529.95"/>
<polygon class="l68d44" points="193.85000000000002,528.45 195.35,528.45 195.35,529.95 193.85000000000002,529.95"/>
<polygon class="l68d44" points="357.04999999999995,528.45 358.55000000000007,528.45 358.55000000000007,529.95 357.04999999999995,529.95"/>
<polygon class="l68d44" points="360.25,528.45 361.75000000000006,528.45 361.75000000000006,529.95 360.25,529.95"/>
<polygon class="l68d44" points="363.45,528.45 364.95,528.45 364.95,529.95 363.45,529.95"/>
<polygon class="l68d44" points="366.65,528.45 368.15,528.45 368.15,529.95 366.65,529.95"/>
<polygon class="l68d44" points="184.25,525.25 185.75,525.25 185.75,526.75 184.25,526.75"/>
<polygon class="l68d44" points="187.45000000000002,525.25 188.95,525.25 188.95,526.75 187.45000000000002,526.75"/>
<polygon class="l68d44" points="190.65,525.25 192.15,525.25 192.15,526.75 190.65,526.75"/>
<polygon class="l68d44" points="193.85000000000002,525.25 195.35,525.25 195.35,526.75 193.85000000000002,526.75"/>
<polygon class="l68d44" points="357.04999999999995,525.25 358.55000000000007,525.25 358.55000000000007,526.75 357.04999999999995,526.75"/>
<polygon class="l68d44" points="360.25,525.25 361.75000000000006,525.25 361.75000000000006,526.75 360.25,526.75"/>
<polygon class="l68d44" points="363.45,525.25 364.95,525.25 364.95,526.75 363.45,526.75"/>
<polygon class="l68d44" points="366.65,525.25 368.15,525.25 368.15,526.75 366.65,526.75"/>
<polygon class="l68d44" points="184.25,522.05 185.75,522.05 185.75,523.5500000000001 184.25,523.5500000000001"/>
<polygon class="l68d44" points="187.45000000000002,522.05 188.95,522.05 188.95,523.5500000000001 187.45000000000002,523.5500000000001"/>
<polygon class="l68d44" points="190.65,522.05 192.15,522.05 192.15,523.5500000000001 190.65,523.5500000000001"/>
<polygon class="l68d44" points="193.85000000000002,522.05 195.35,522.05 195.35,523.5500000000001 193.85000000000002,523.5500000000001"/>
<polygon class="l68d44" points="357.04999999999995,522.05 358.55000000000007,522.05 358.55000000000007,523.5500000000001 357.04999999999995,523.5500000000001"/>
<polygon class="l68d44" points="360.25,522.05 361.75000000000006,522.05 361.75000000000006,523.5500000000001 360.25,523.5500000000001"/>
<polygon class="l68d44" points="363.45,522.05 364.95,522.05 364.95,523.5500000000001 363.45,523.5500000000001"/>
<polygon class="l68d44" points="366.65,522.05 368.15,522.05 368.15,523.5500000000001 366.65,523.5500000000001"/>
<polygon class="l68d44" points="357.04999999999995,351.45000000000005 358.55000000000007,351.45000000000005 358.55000000000007,352.95000000000005 357.04999999999995,352.95000000000005"/>
<polygon class="l68d44" points="360.25,351.45000000000005 361.75000000000006,351.45000000000005 361.75000000000006,352.95000000000005 360.25,352.95000000000005"/>
<polygon class="l68d44" points="363.45,351.45000000000005 364.95,351.45000000000005 364.95,352.95000000000005 363.45,352.95000000000005"/>
<polygon class="l68d44" points="366.65,351.45000000000005 368.15,351.45000000000005 368.15,352.95000000000005 366.65,352.95000000000005"/>
<polygon class="l68d44" points="357.04999999999995,348.25 358.55000000000007,348.25 358.55000000000007,349.75 357.04999999999995,349.75"/>
<polygon class="l68d44" points="360.25,348.25 361.75000000000006,348.25 361.75000000000006,349.75 360.25,349.75"/>
<polygon class="l68d44" points="363.45,348.25 364.95,348.25 364.95,349.75 363.45,349.75"/>
<polygon class="l68d44" points="366.65,348.25 368.15,348.25 368.15,349.75 366.65,349.75"/>
<polygon class="l68d44" points="357.04999999999995,345.05 358.55000000000007,345.05 358.55000000000007,346.55 357.04999999999995,346.55"/>
<polygon class="l68d44" points="360.25,345.05 361.75000000000006,345.05 361.75000000000006,346.55 360.25,346.55"/>
<polygon class="l68d44" points="363.45,345.05 364.95,345.05 364.95,346.55 363.45,346.55"/>
<polygon class="l68d44" points="366.65,345.05 368.15,345.05 368.15,346.55 366.65,346.55"/>
<polygon class="l68d44" points="38.050000000000004,339.65000000000003 39.55,339.65000000000003 39.55,341.15000000000003 38.050000000000004,341.15000000000003"/>
<polygon class="l68d44" points="95.64999999999999,339.65000000000003 97.15,339.65000000000003 97.15,341.15000000000003 95.64999999999999,341.15000000000003"/>
<polygon class="l68d44" points="121.25,323.65000000000003 122.75,323.65000000000003 122.75,325.15 121.25,325.15"/>
<polygon class="l68d44" points="124.45,323.65000000000003 125.95,323.65000000000003 125.95,325.15 124.45,325.15"/>
<polygon class="l68d44" points="127.65,323.65000000000003 129.15,323.65000000000003 129.15,325.15 127.65,325.15"/>
<polygon class="l68d44" points="44.45,311.65 45.949999999999996,311.65 45.949999999999996,313.15000000000003 44.45,313.15000000000003"/>
<polygon class="l68d44" points="47.65,311.65 49.15,311.65 49.15,313.15000000000003 47.65,313.15000000000003"/>
<polygon class="l68d44" points="50.85,311.65 52.35,311.65 52.35,313.15000000000003 50.85,313.15000000000003"/>
<polygon class="l68d44" points="102.05,311.65 103.55000000000001,311.65 103.55000000000001,313.15000000000003 102.05,313.15000000000003"/>
<polygon class="l68d44" points="105.25,311.65 106.75,311.65 106.75,313.15000000000003 105.25,313.15000000000003"/>
<polygon class="l68d44" points="108.45,311.65 109.95000000000002,311.65 109.95000000000002,313.15000000000003 108.45,313.15000000000003"/>
<polygon class="l68d44" points="38.050000000000004,299.65 39.55,299.65 39.55,301.15000000000003 38.050000000000004,301.15000000000003"/>
<polygon class="l68d44" points="95.64999999999999,299.65 97.15,299.65 97.15,301.15000000000003 95.64999999999999,301.15000000000003"/>
<polygon class="l68d44" points="63.650000000000006,283.65000000000003 65.15,283.65000000000003 65.15,285.15 63.650000000000006,285.15"/>
<polygon class="l68d44" points="66.85000000000001,283.65000000000003 68.35,283.65000000000003 68.35,285.15 66.85000000000001,285.15"/>
<polygon class="l68d44" points="70.05,283.65000000000003 71.55,283.65000000000003 71.55,285.15 70.05,285.15"/>
<polygon class="l68d44" points="121.25,283.65000000000003 122.75,283.65000000000003 122.75,285.15 121.25,285.15"/>
<polygon class="l68d44" points="124.45,283.65000000000003 125.95,283.65000000000003 125.95,285.15 124.45,285.15"/>
<polygon class="l68d44" points="127.65,283.65000000000003 129.15,283.65000000000003 129.15,285.15 127.65,285.15"/>
<polygon class="l68d44" points="44.45,271.65 45.949999999999996,271.65 45.949999999999996,273.15000000000003 44.45,273.15000000000003"/>
<polygon class="l68d44" points="47.65,271.65 49.15,271.65 49.15,273.15000000000003 47.65,273.15000000000003"/>
<polygon class="l68d44" points="50.85,271.65 52.35,271.65 52.35,273.15000000000003 50.85,273.15000000000003"/>
<polygon class="l68d44" points="102.05,271.65 103.55000000000001,271.65 103.55000000000001,273.15000000000003 102.05,273.15000000000003"/>
<polygon class="l68d44" points="105.25,271.65 106.75,271.65 106.75,273.15000000000003 105.25,273.15000000000003"/>
<polygon class="l68d44" points="108.45,271.65 109.95000000000002,271.65 109.95000000000002,273.15000000000003 108.45,273.15000000000003"/>
<polygon class="l68d44" points="38.050000000000004,259.65 39.55,259.65 39.55,261.15000000000003 38.050000000000004,261.15000000000003"/>
<polygon class="l68d44" points="95.64999999999999,259.65 97.15,259.65 97.15,261.15000000000003 95.64999999999999,261.15000000000003"/>
<polygon class="l68d44" points="63.650000000000006,243.65000000000003 65.15,243.65000000000003 65.15,245.15 63.650000000000006,245.15"/>
<polygon class="l68d44" points="66.85000000000001,243.65000000000003 68.35,243.65000000000003 68.35,245.15 66.85000000000001,245.15"/>
<polygon class="l68d44" points="70.05,243.65000000000003 71.55,243.65000000000003 71.55,245.15 70.05,245.15"/>
<polygon class="l68d44" points="121.25,243.65000000000003 122.75,243.65000000000003 122.75,245.15 121.25,245.15"/>
<polygon class="l68d44" points="124.45,243.65000000000003 125.95,243.65000000000003 125.95,245.15 124.45,245.15"/>
<polygon class="l68d44" points="127.65,243.65000000000003 129.15,243.65000000000003 129.15,245.15 127.65,245.15"/>
<polygon class="l68d44" points="44.45,231.64999999999998 45.949999999999996,231.64999999999998 45.949999999999996,233.15 44.45,233.15"/>
<polygon class="l68d44" points="47.65,231.64999999999998 49.15,231.64999999999998 49.15,233.15 47.65,233.15"/>
<polygon class="l68d44" points="50.85,231.64999999999998 52.35,231.64999999999998 52.35,233.15 50.85,233.15"/>
<polygon class="l68d44" points="102.05,231.64999999999998 103.55000000000001,231.64999999999998 103.55000000000001,233.15 102.05,233.15"/>
<polygon class="l68d44" points="105.25,231.64999999999998 106.75,231.64999999999998 106.75,233.15 105.25,233.15"/>
<polygon class="l68d44" points="108.45,231.64999999999998 109.95000000000002,231.64999999999998 109.95000000000002,233.15 108.45,233.15"/>
<polygon class="l68d44" points="38.050000000000004,219.65 39.55,219.65 39.55,221.15000000000003 38.050000000000004,221.15000000000003"/>
<polygon class="l68d44" points="95.64999999999999,219.65 97.15,219.65 97.15,221.15000000000003 95.64999999999999,221.15000000000003"/>
<polygon class="l68d44" points="63.650000000000006,203.65000000000003 65.15,203.65000000000003 65.15,205.15 63.650000000000006,205.15"/>
<polygon class="l68d44" points="66.85000000000001,203.65000000000003 68.35,203.65000000000003 68.35,205.15 66.85000000000001,205.15"/>
<polygon class="l68d44" points="70.05,203.65000000000003 71.55,203.65000000000003 71.55,205.15 70.05,205.15"/>
<polygon class="l68d44" points="121.25,203.65000000000003 122.75,203.65000000000003 122.75,205.15 121.25,205.15"/>
<polygon class="l68d44" points="124.45,203.65000000000003 125.95,203.65000000000003 125.95,205.15 124.45,205.15"/>
<polygon class="l68d44" points="127.65,203.65000000000003 129.15,203.65000000000003 129.15,205.15 127.65,205.15"/>
<polygon class="l68d44" points="44.45,191.64999999999998 45.949999999999996,191.64999999999998 45.949999999999996,193.15 44.45,193.15"/>
<polygon class="l68d44" points="47.65,191.64999999999998 49.15,191.64999999999998 49.15,193.15 47.65,193.15"/>
<polygon class="l68d44" points="50.85,191.64999999999998 52.35,191.64999999999998 52.35,193.15 50.85,193.15"/>
<polygon class="l68d44" points="102.05,191.64999999999998 103.55000000000001,191.64999999999998 103.55000000000001,193.15 102.05,193.15"/>
<polygon class="l68d44" points="105.25,191.64999999999998 106.75,191.64999999999998 106.75,193.15 105.25,193.15"/>
<polygon class="l68d44" points="108.45,191.64999999999998 109.95000000000002,191.64999999999998 109.95000000000002,193.15 108.45,193.15"/>
<polygon class="l68d44" points="38.050000000000004,179.65 39.55,179.65 39.55,181.15000000000003 38.050000000000004,181.15000000000003"/>
<polygon class="l68d44" points="95.64999999999999,179.65 97.15,179.65 97.15,181.15000000000003 95.64999999999999,181.15000000000003"/>
<polygon class="l68d44" points="184.25,174.45 185.75,174.45 185.75,175.95 184.25,175.95"/>
<polygon class="l68d44" points="187.45000000000002,174.45 188.95,174.45 188.95,175.95 187.45000000000002,175.95"/>
<polygon class="l68d44" points="190.65,174.45 192.15,174.45 192.15,175.95 190.65,175.95"/>
<polygon class="l68d44" points="193.85000000000002,174.45 195.35,174.45 195.35,175.95 193.85000000000002,175.95"/>
<polygon class="l68d44" points="357.04999999999995,174.45 358.55000000000007,174.45 358.55000000000007,175.95 357.04999999999995,175.95"/>
<polygon class="l68d44" points="360.25,174.45 361.75000000000006,174.45 361.75000000000006,175.95 360.25,175.95"/>
<polygon class="l68d44" points="363.45,174.45 364.95,174.45 364.95,175.95 363.45,175.95"/>
<polygon class="l68d44" points="366.65,174.45 368.15,174.45 368.15,175.95 366.65,175.95"/>
<polygon class="l68d44" points="184.25,171.25 185.75,171.25 185.75,172.75000000000003 184.25,172.75000000000003"/>
<polygon class="l68d44" points="187.45000000000002,171.25 188.95,171.25 188.95,172.75000000000003 187.45000000000002,172.75000000000003"/>
<polygon class="l68d44" points="190.65,171.25 192.15,171.25 192.15,172.75000000000003 190.65,172.75000000000003"/>
<polygon class="l68d44" points="193.85000000000002,171.25 195.35,171.25 195.35,172.75000000000003 193.85000000000002,172.75000000000003"/>
<polygon class="l68d44" points="357.04999999999995,171.25 358.55000000000007,171.25 358.55000000000007,172.75000000000003 357.04999999999995,172.75000000000003"/>
<polygon class="l68d44" points="360.25,171.25 361.75000000000006,171.25 361.75000000000006,172.75000000000003 360.25,172.75000000000003"/>
<polygon class="l68d44" points="363.45,171.25 364.95,171.25 364.95,172.75000000000003 363.45,172.75000000000003"/>
<polygon class="l68d44" points="366.65,171.25 368.15,171.25 368.15,172.75000000000003 366.65,172.75000000000003"/>
<polygon class="l68d44" points="184.25,168.05 185.75,168.05 185.75,169.55 184.25,169.55"/>
<polygon class="l68d44" points="187.45000000000002,168.05 188.95,168.05 188.95,169.55 187.45000000000002,169.55"/>
<polygon class="l68d44" points="190.65,168.05 192.15,168.05 192.15,169.55 190.65,169.55"/>
<polygon class="l68d44" points="193.85000000000002,168.05 195.35,168.05 195.35,169.55 193.85000000000002,169.55"/>
<polygon class="l68d44" points="357.04999999999995,168.05 358.55000000000007,168.05 358.55000000000007,169.55 357.04999999999995,169.55"/>
<polygon class="l68d44" points="360.25,168.05 361.75000000000006,168.05 361.75000000000006,169.55 360.25,169.55"/>
<polygon class="l68d44" points="363.45,168.05 364.95,168.05 364.95,169.55 363.45,169.55"/>
<polygon class="l68d44" points="366.65,168.05 368.15,168.05 368.15,169.55 366.65,169.55"/>
<polygon class="l68d44" points="63.650000000000006,163.65000000000003 65.15,163.65000000000003 65.15,165.15 63.650000000000006,165.15"/>
<polygon class="l68d44" points="66.85000000000001,163.65000000000003 68.35,163.65000000000003 68.35,165.15 66.85000000000001,165.15"/>
<polygon class="l68d44" points="70.05,163.65000000000003 71.55,163.65000000000003 71.55,165.15 70.05,165.15"/>
<polygon class="l68d44" points="121.25,163.65000000000003 122.75,163.65000000000003 122.75,165.15 121.25,165.15"/>
<polygon class="l68d44" points="124.45,163.65000000000003 125.95,163.65000000000003 125.95,165.15 124.45,165.15"/>
<polygon class="l68d44" points="127.65,163.65000000000003 129.15,163.65000000000003 129.15,165.15 127.65,165.15"/>
<polygon class="l68d44" points="38.050000000000004,69.65 39.55,69.65 39.55,71.15 38.050000000000004,71.15"/>
<polygon class="l68d44" points="95.64999999999999,69.65 97.15,69.65 97.15,71.15 95.64999999999999,71.15"/>
<polygon class="l68d44" points="121.25,53.650000000000006 122.75,53.650000000000006 122.75,55.15 121.25,55.15"/>
<polygon class="l68d44" points="124.45,53.650000000000006 125.95,53.650000000000006 125.95,55.15 124.45,55.15"/>
<polygon class="l68d44" points="127.65,53.650000000000006 129.15,53.650000000000006 129.15,55.15 127.65,55.15"/>
<polygon class="l69d20" points="181.9,519.3 197.7,519.3 197.7,532.7 181.9,532.7"/>
<polygon class="l69d20" points="342.30000000000007,526.9 346.70000000000005,526.9 346.70000000000005,527.6 342.30000000000007,527.6"/>
<polygon class="l69d20" points="354.7,526.9 370.50000000000006,526.9 370.50000000000006,532.7 354.7,532.7"/>
<polygon class="l69d20" points="342.30000000000007,523.9 370.50000000000006,523.9 370.50000000000006,526.9 342.30000000000007,526.9"/>
<polygon class="l69d20" points="342.30000000000007,523.2 346.70000000000005,523.2 346.70000000000005,523.9 342.30000000000007,523.9"/>
<polygon class="l69d20" points="354.7,519.3 370.50000000000006,519.3 370.50000000000006,523.9 354.7,523.9"/>
<polygon class="l69d20" points="187.10000000000002,371.9 191.50000000000003,371.9 191.50000000000003,372.59999999999997 187.10000000000002,372.59999999999997"/>
<polygon class="l69d20" points="359.90000000000003,371.9 364.3,371.9 364.3,372.59999999999997 359.90000000000003,372.59999999999997"/>
<polygon class="l69d20" points="187.10000000000002,368.9 364.3,368.9 364.3,371.9 187.10000000000002,371.9"/>
<polygon class="l69d20" points="187.10000000000002,368.2 191.50000000000003,368.2 191.50000000000003,368.9 187.10000000000002,368.9"/>
<polygon class="l69d20" points="359.90000000000003,368.2 364.3,368.2 364.3,368.9 359.90000000000003,368.9"/>
<polygon class="l69d20" points="36.5,341.6 41.1,341.6 41.1,343.1 36.5,343.1"/>
<polygon class="l69d20" points="94.1,341.6 98.70000000000002,341.6 98.70000000000002,343.1 94.1,343.1"/>
<polygon class="l69d20" points="354.7,342.30000000000007 370.50000000000006,342.30000000000007 370.50000000000006,355.7 354.7,355.7"/>
<polygon class="l69d20" points="161.29999999999998,341.6 165.7,341.6 165.7,342.30000000000007 161.29999999999998,342.30000000000007"/>
<polygon class="l69d20" points="36.5,338.6 165.7,338.6 165.7,341.6 36.5,341.6"/>
<polygon class="l69d20" points="36.5,337.70000000000005 41.1,337.70000000000005 41.1,338.6 36.5,338.6"/>
<polygon class="l69d20" points="94.1,337.70000000000005 98.70000000000002,337.70000000000005 98.70000000000002,338.6 94.1,338.6"/>
<polygon class="l69d20" points="161.29999999999998,337.9 165.7,337.9 165.7,338.6 161.29999999999998,338.6"/>
<polygon class="l69d20" points="119.7,325.09999999999997 130.7,325.09999999999997 130.7,327.1 119.7,327.1"/>
<polygon class="l69d20" points="137.4,325.09999999999997 141.8,325.09999999999997 141.8,325.79999999999995 137.4,325.79999999999995"/>
<polygon class="l69d20" points="119.7,322.1 141.8,322.1 141.8,325.09999999999997 119.7,325.09999999999997"/>
<polygon class="l69d20" points="119.7,321.70000000000005 130.7,321.70000000000005 130.7,322.1 119.7,322.1"/>
<polygon class="l69d20" points="137.4,321.4 141.8,321.4 141.8,322.1 137.4,322.1"/>
<polygon class="l69d20" points="14.2,313.9 18.6,313.9 18.6,314.6 14.2,314.6"/>
<polygon class="l69d20" points="42.9,313.9 53.9,313.9 53.9,315.1 42.9,315.1"/>
<polygon class="l69d20" points="100.5,313.9 111.5,313.9 111.5,315.1 100.5,315.1"/>
<polygon class="l69d20" points="137.4,313.9 141.8,313.9 141.8,314.6 137.4,314.6"/>
<polygon class="l69d20" points="14.2,310.9 141.8,310.9 141.8,313.9 14.2,313.9"/>
<polygon class="l69d20" points="14.2,310.2 18.6,310.2 18.6,310.9 14.2,310.9"/>
<polygon class="l69d20" points="42.9,309.70000000000005 53.9,309.70000000000005 53.9,310.9 42.9,310.9"/>
<polygon class="l69d20" points="100.5,309.70000000000005 111.5,309.70000000000005 111.5,310.9 100.5,310.9"/>
<polygon class="l69d20" points="137.4,310.2 141.8,310.2 141.8,310.9 137.4,310.9"/>
<polygon class="l69d20" points="161.29999999999998,303.2 165.7,303.2 165.7,303.9 161.29999999999998,303.9"/>
<polygon class="l69d20" points="359.7,303.2 364.1,303.2 364.1,303.9 359.7,303.9"/>
<polygon class="l69d20" points="23.700000000000003,301.70000000000005 28.1,301.70000000000005 28.1,302.40000000000003 23.700000000000003,302.40000000000003"/>
<polygon class="l69d20" points="36.5,301.70000000000005 41.1,301.70000000000005 41.1,303.1 36.5,303.1"/>
<polygon class="l69d20" points="23.700000000000003,298.7 41.1,298.7 41.1,301.70000000000005 23.700000000000003,301.70000000000005"/>
<polygon class="l69d20" points="23.700000000000003,298.0 28.1,298.0 28.1,298.7 23.700000000000003,298.7"/>
<polygon class="l69d20" points="36.5,297.7 41.1,297.7 41.1,298.7 36.5,298.7"/>
<polygon class="l69d20" points="81.30000000000001,301.70000000000005 85.7,301.70000000000005 85.7,302.40000000000003 81.30000000000001,302.40000000000003"/>
<polygon class="l69d20" points="94.1,301.70000000000005 98.70000000000002,301.70000000000005 98.70000000000002,303.1 94.1,303.1"/>
<polygon class="l69d20" points="81.30000000000001,298.7 98.70000000000002,298.7 98.70000000000002,301.70000000000005 81.30000000000001,301.70000000000005"/>
<polygon class="l69d20" points="161.29999999999998,300.2 364.1,300.2 364.1,303.2 161.29999999999998,303.2"/>
<polygon class="l69d20" points="161.29999999999998,299.5 165.7,299.5 165.7,300.2 161.29999999999998,300.2"/>
<polygon class="l69d20" points="359.7,299.5 364.1,299.5 364.1,300.2 359.7,300.2"/>
<polygon class="l69d20" points="81.30000000000001,298.0 85.7,298.0 85.7,298.7 81.30000000000001,298.7"/>
<polygon class="l69d20" points="94.1,297.7 98.70000000000002,297.7 98.70000000000002,298.7 94.1,298.7"/>
<polygon class="l69d20" points="62.1,285.7 73.10000000000001,285.7 73.10000000000001,287.1 62.1,287.1"/>
<polygon class="l69d20" points="119.7,285.7 130.7,285.7 130.7,287.1 119.7,287.1"/>
<polygon class="l69d20" points="62.1,282.7 130.7,282.7 130.7,285.7 62.1,285.7"/>
<polygon class="l69d20" points="62.1,281.70000000000005 73.10000000000001,281.70000000000005 73.10000000000001,282.7 62.1,282.7"/>
<polygon class="l69d20" points="119.7,281.70000000000005 130.7,281.70000000000005 130.7,282.7 119.7,282.7"/>
<polygon class="l69d20" points="14.2,273.9 18.6,273.9 18.6,274.6 14.2,274.6"/>
<polygon class="l69d20" points="42.9,273.9 53.9,273.9 53.9,275.1 42.9,275.1"/>
<polygon class="l69d20" points="14.2,270.9 53.9,270.9 53.9,273.9 14.2,273.9"/>
<polygon class="l69d20" points="14.2,270.2 18.6,270.2 18.6,270.9 14.2,270.9"/>
<polygon class="l69d20" points="42.9,269.7 53.9,269.7 53.9,270.9 42.9,270.9"/>
<polygon class="l69d20" points="100.5,273.9 111.5,273.9 111.5,275.1 100.5,275.1"/>
<polygon class="l69d20" points="137.4,273.9 141.8,273.9 141.8,274.6 137.4,274.6"/>
<polygon class="l69d20" points="100.5,270.9 141.8,270.9 141.8,273.9 100.5,273.9"/>
<polygon class="l69d20" points="100.5,269.7 111.5,269.7 111.5,270.9 100.5,270.9"/>
<polygon class="l69d20" points="137.4,270.2 141.8,270.2 141.8,270.9 137.4,270.9"/>
<polygon class="l69d20" points="23.700000000000003,261.70000000000005 28.1,261.70000000000005 28.1,262.40000000000003 23.700000000000003,262.40000000000003"/>
<polygon class="l69d20" points="36.5,261.70000000000005 41.1,261.70000000000005 41.1,263.1 36.5,263.1"/>
<polygon class="l69d20" points="81.30000000000001,261.70000000000005 85.7,261.70000000000005 85.7,262.40000000000003 81.30000000000001,262.40000000000003"/>
<polygon class="l69d20" points="94.1,261.70000000000005 98.70000000000002,261.70000000000005 98.70000000000002,263.1 94.1,263.1"/>
<polygon class="l69d20" points="23.700000000000003,258.7 98.70000000000002,258.7 98.70000000000002,261.70000000000005 23.700000000000003,261.70000000000005"/>
<polygon class="l69d20" points="23.700000000000003,258.0 28.1,258.0 28.1,258.7 23.700000000000003,258.7"/>
<polygon class="l69d20" points="36.5,257.7 41.1,257.7 41.1,258.7 36.5,258.7"/>
<polygon class="l69d20" points="81.30000000000001,258.0 85.7,258.0 85.7,258.7 81.30000000000001,258.7"/>
<polygon class="l69d20" points="94.1,257.7 98.70000000000002,257.7 98.70000000000002,258.7 94.1,258.7"/>
<polygon class="l69d20" points="62.1,241.70000000000002 73.10000000000001,241.70000000000002 73.10000000000001,247.10000000000002 62.1,247.10000000000002"/>
<polygon class="l69d20" points="119.7,245.7 130.7,245.7 130.7,247.10000000000002 119.7,247.10000000000002"/>
<polygon class="l69d20" points="137.3,245.7 141.7,245.7 141.7,246.4 137.3,246.4"/>
<polygon class="l69d20" points="119.7,242.7 141.7,242.7 141.7,245.7 119.7,245.7"/>
<polygon class="l69d20" points="119.7,241.70000000000002 130.7,241.70000000000002 130.7,242.7 119.7,242.7"/>
<polygon class="l69d20" points="137.3,242.0 141.7,242.0 141.7,242.7 137.3,242.7"/>
<polygon class="l69d20" points="14.2,233.9 18.6,233.9 18.6,234.60000000000002 14.2,234.60000000000002"/>
<polygon class="l69d20" points="42.9,233.9 53.9,233.9 53.9,235.10000000000002 42.9,235.10000000000002"/>
<polygon class="l69d20" points="14.2,230.9 53.9,230.9 53.9,233.9 14.2,233.9"/>
<polygon class="l69d20" points="14.2,230.2 18.6,230.2 18.6,230.9 14.2,230.9"/>
<polygon class="l69d20" points="42.9,229.7 53.9,229.7 53.9,230.9 42.9,230.9"/>
<polygon class="l69d20" points="100.5,233.9 111.5,233.9 111.5,235.10000000000002 100.5,235.10000000000002"/>
<polygon class="l69d20" points="147.0,233.9 151.4,233.9 151.4,234.60000000000002 147.0,234.60000000000002"/>
<polygon class="l69d20" points="100.5,230.9 151.4,230.9 151.4,233.9 100.5,233.9"/>
<polygon class="l69d20" points="100.5,229.7 111.5,229.7 111.5,230.9 100.5,230.9"/>
<polygon class="l69d20" points="147.0,230.2 151.4,230.2 151.4,230.9 147.0,230.9"/>
<polygon class="l69d20" points="23.700000000000003,221.70000000000002 28.1,221.70000000000002 28.1,222.40000000000003 23.700000000000003,222.40000000000003"/>
<polygon class="l69d20" points="36.5,221.70000000000002 41.1,221.70000000000002 41.1,223.1 36.5,223.1"/>
<polygon class="l69d20" points="23.700000000000003,218.70000000000002 41.1,218.70000000000002 41.1,221.70000000000002 23.700000000000003,221.70000000000002"/>
<polygon class="l69d20" points="23.700000000000003,218.0 28.1,218.0 28.1,218.70000000000002 23.700000000000003,218.70000000000002"/>
<polygon class="l69d20" points="36.5,217.7 41.1,217.7 41.1,218.70000000000002 36.5,218.70000000000002"/>
<polygon class="l69d20" points="81.30000000000001,221.70000000000002 85.7,221.70000000000002 85.7,222.40000000000003 81.30000000000001,222.40000000000003"/>
<polygon class="l69d20" points="94.1,221.70000000000002 98.70000000000002,221.70000000000002 98.70000000000002,223.1 94.1,223.1"/>
<polygon class="l69d20" points="81.30000000000001,218.70000000000002 98.70000000000002,218.70000000000002 98.70000000000002,221.70000000000002 81.30000000000001,221.70000000000002"/>
<polygon class="l69d20" points="81.30000000000001,218.0 85.7,218.0 85.7,218.70000000000002 81.30000000000001,218.70000000000002"/>
<polygon class="l69d20" points="94.1,217.7 98.70000000000002,217.7 98.70000000000002,218.70000000000002 94.1,218.70000000000002"/>
<polygon class="l69d20" points="62.1,205.8 73.10000000000001,205.8 73.10000000000001,207.10000000000002 62.1,207.10000000000002"/>
<polygon class="l69d20" points="119.7,205.8 130.7,205.8 130.7,207.10000000000002 119.7,207.10000000000002"/>
<polygon class="l69d20" points="62.1,202.8 130.7,202.8 130.7,205.8 62.1,205.8"/>
<polygon class="l69d20" points="62.1,201.70000000000002 73.10000000000001,201.70000000000002 73.10000000000001,202.8 62.1,202.8"/>
<polygon class="l69d20" points="119.7,201.70000000000002 130.7,201.70000000000002 130.7,202.8 119.7,202.8"/>
<polygon class="l69d20" points="14.2,193.9 18.6,193.9 18.6,194.60000000000002 14.2,194.60000000000002"/>
<polygon class="l69d20" points="42.9,193.9 53.9,193.9 53.9,195.10000000000002 42.9,195.10000000000002"/>
<polygon class="l69d20" points="100.5,193.9 111.5,193.9 111.5,195.10000000000002 100.5,195.10000000000002"/>
<polygon class="l69d20" points="147.0,193.9 151.4,193.9 151.4,194.60000000000002 147.0,194.60000000000002"/>
<polygon class="l69d20" points="14.2,190.9 151.4,190.9 151.4,193.9 14.2,193.9"/>
<polygon class="l69d20" points="14.2,190.2 18.6,190.2 18.6,190.9 14.2,190.9"/>
<polygon class="l69d20" points="42.9,189.7 53.9,189.7 53.9,190.9 42.9,190.9"/>
<polygon class="l69d20" points="100.5,189.7 111.5,189.7 111.5,190.9 100.5,190.9"/>
<polygon class="l69d20" points="147.0,190.2 151.4,190.2 151.4,190.9 147.0,190.9"/>
<polygon class="l69d20" points="23.700000000000003,181.70000000000002 28.1,181.70000000000002 28.1,182.40000000000003 23.700000000000003,182.40000000000003"/>
<polygon class="l69d20" points="36.5,181.70000000000002 41.1,181.70000000000002 41.1,183.1 36.5,183.1"/>
<polygon class="l69d20" points="81.30000000000001,181.70000000000002 85.7,181.70000000000002 85.7,182.40000000000003 81.30000000000001,182.40000000000003"/>
<polygon class="l69d20" points="94.1,181.70000000000002 98.70000000000002,181.70000000000002 98.70000000000002,183.1 94.1,183.1"/>
<polygon class="l69d20" points="23.700000000000003,178.70000000000002 98.70000000000002,178.70000000000002 98.70000000000002,181.70000000000002 23.700000000000003,181.70000000000002"/>
<polygon class="l69d20" points="23.700000000000003,178.0 28.1,178.0 28.1,178.70000000000002 23.700000000000003,178.70000000000002"/>
<polygon class="l69d20" points="36.5,177.7 41.1,177.7 41.1,178.70000000000002 36.5,178.70000000000002"/>
<polygon class="l69d20" points="81.30000000000001,178.0 85.7,178.0 85.7,178.70000000000002 81.30000000000001,178.70000000000002"/>
<polygon class="l69d20" points="94.1,177.7 98.70000000000002,177.7 98.70000000000002,178.70000000000002 94.1,178.70000000000002"/>
<polygon class="l69d20" points="181.9,173.3 197.7,173.3 197.7,178.70000000000002 181.9,178.70000000000002"/>
<polygon class="l69d20" points="342.30000000000007,173.3 346.70000000000005,173.3 346.70000000000005,174.00000000000003 342.30000000000007,174.00000000000003"/>
<polygon class="l69d20" points="181.9,170.3 346.70000000000005,170.3 346.70000000000005,173.3 181.9,173.3"/>
<polygon class="l69d20" points="62.1,161.70000000000002 73.10000000000001,161.70000000000002 73.10000000000001,167.10000000000002 62.1,167.10000000000002"/>
<polygon class="l69d20" points="119.7,161.70000000000002 130.7,161.70000000000002 130.7,167.10000000000002 119.7,167.10000000000002"/>
<polygon class="l69d20" points="181.9,165.3 197.7,165.3 197.7,170.3 181.9,170.3"/>
<polygon class="l69d20" points="342.30000000000007,169.60000000000002 346.70000000000005,169.60000000000002 346.70000000000005,170.3 342.30000000000007,170.3"/>
<polygon class="l69d20" points="354.7,165.3 370.50000000000006,165.3 370.50000000000006,178.70000000000002 354.7,178.70000000000002"/>
<polygon class="l69d20" points="36.5,71.4 41.1,71.4 41.1,73.10000000000001 36.5,73.10000000000001"/>
<polygon class="l69d20" points="94.1,71.4 98.70000000000002,71.4 98.70000000000002,73.10000000000001 94.1,73.10000000000001"/>
<polygon class="l69d20" points="122.9,71.4 127.30000000000001,71.4 127.30000000000001,72.1 122.9,72.1"/>
<polygon class="l69d20" points="36.5,68.4 127.30000000000001,68.4 127.30000000000001,71.4 36.5,71.4"/>
<polygon class="l69d20" points="36.5,67.7 41.1,67.7 41.1,68.4 36.5,68.4"/>
<polygon class="l69d20" points="94.1,67.7 98.70000000000002,67.7 98.70000000000002,68.4 94.1,68.4"/>
<polygon class="l69d20" points="122.9,67.7 127.30000000000001,67.7 127.30000000000001,68.4 122.9,68.4"/>
<polygon class="l69d20" points="119.7,55.300000000000004 130.7,55.300000000000004 130.7,57.1 119.7,57.1"/>
<polygon class="l69d20" points="137.3,55.300000000000004 141.7,55.300000000000004 141.7,56.00000000000001 137.3,56.00000000000001"/>
<polygon class="l69d20" points="119.7,52.300000000000004 141.7,52.300000000000004 141.7,55.300000000000004 119.7,55.300000000000004"/>
<polygon class="l69d20" points="119.7,51.7 130.7,51.7 130.7,52.300000000000004 119.7,52.300000000000004"/>
<polygon class="l69d20" points="137.3,51.6 141.7,51.6 141.7,52.300000000000004 137.3,52.300000000000004"/>
<polygon class="l69d44" points="184.8,529.0 186.8,529.0 186.8,531.0 184.8,531.0"/>
<polygon class="l69d44" points="188.79999999999998,529.0 190.8,529.0 190.8,531.0 188.79999999999998,531.0"/>
<polygon class="l69d44" points="192.8,529.0 194.8,529.0 194.8,531.0 192.8,531.0"/>
<polygon class="l69d44" points="184.8,525.0 186.8,525.0 186.8,527.0 184.8,527.0"/>
<polygon class="l69d44" points="188.79999999999998,525.0 190.8,525.0 190.8,527.0 188.79999999999998,527.0"/>
<polygon class="l69d44" points="192.8,525.0 194.8,525.0 194.8,527.0 192.8,527.0"/>
<polygon class="l69d44" points="343.5,524.4 345.50000000000006,524.4 345.50000000000006,526.4 343.5,526.4"/>
<polygon class="l69d44" points="184.8,521.0 186.8,521.0 186.8,523.0 184.8,523.0"/>
<polygon class="l69d44" points="188.79999999999998,521.0 190.8,521.0 190.8,523.0 188.79999999999998,523.0"/>
<polygon class="l69d44" points="192.8,521.0 194.8,521.0 194.8,523.0 192.8,523.0"/>
<polygon class="l69d44" points="188.3,369.4 190.3,369.4 190.3,371.4 188.3,371.4"/>
<polygon class="l69d44" points="361.1,369.4 363.1,369.4 363.1,371.4 361.1,371.4"/>
<polygon class="l69d44" points="357.59999999999997,352.0 359.6,352.0 359.6,354.0 357.59999999999997,354.0"/>
<polygon class="l69d44" points="361.6,352.0 363.6,352.0 363.6,354.0 361.6,354.0"/>
<polygon class="l69d44" points="365.6,352.0 367.59999999999997,352.0 367.59999999999997,354.0 365.6,354.0"/>
<polygon class="l69d44" points="357.59999999999997,348.00000000000006 359.6,348.00000000000006 359.6,350.0 357.59999999999997,350.0"/>
<polygon class="l69d44" points="361.6,348.00000000000006 363.6,348.00000000000006 363.6,350.0 361.6,350.0"/>
<polygon class="l69d44" points="365.6,348.00000000000006 367.59999999999997,348.00000000000006 367.59999999999997,350.0 365.6,350.0"/>
<polygon class="l69d44" points="357.59999999999997,344.0 359.6,344.0 359.6,346.0 357.59999999999997,346.0"/>
<polygon class="l69d44" points="361.6,344.0 363.6,344.0 363.6,346.0 361.6,346.0"/>
<polygon class="l69d44" points="365.6,344.0 367.59999999999997,344.0 367.59999999999997,346.0 365.6,346.0"/>
<polygon class="l69d44" points="162.5,339.1 164.5,339.1 164.5,341.1 162.5,341.1"/>
<polygon class="l69d44" points="138.6,322.59999999999997 140.6,322.59999999999997 140.6,324.6 138.6,324.6"/>
<polygon class="l69d44" points="15.4,311.4 17.4,311.4 17.4,313.4 15.4,313.4"/>
<polygon class="l69d44" points="138.6,311.4 140.6,311.4 140.6,313.4 138.6,313.4"/>
<polygon class="l69d44" points="24.900000000000002,299.20000000000005 26.9,299.20000000000005 26.9,301.2 24.900000000000002,301.2"/>
<polygon class="l69d44" points="82.5,299.20000000000005 84.5,299.20000000000005 84.5,301.2 82.5,301.2"/>
<polygon class="l69d44" points="162.5,300.7 164.5,300.7 164.5,302.7 162.5,302.7"/>
<polygon class="l69d44" points="360.90000000000003,300.7 362.9,300.7 362.9,302.7 360.90000000000003,302.7"/>
<polygon class="l69d44" points="64.6,283.4 66.6,283.4 66.6,285.4 64.6,285.4"/>
<polygon class="l69d44" points="68.60000000000001,283.4 70.60000000000001,283.4 70.60000000000001,285.4 68.60000000000001,285.4"/>
<polygon class="l69d44" points="122.2,283.4 124.2,283.4 124.2,285.4 122.2,285.4"/>
<polygon class="l69d44" points="126.20000000000002,283.4 128.2,283.4 128.2,285.4 126.20000000000002,285.4"/>
<polygon class="l69d44" points="15.4,271.4 17.4,271.4 17.4,273.4 15.4,273.4"/>
<polygon class="l69d44" points="138.6,271.4 140.6,271.4 140.6,273.4 138.6,273.4"/>
<polygon class="l69d44" points="24.900000000000002,259.20000000000005 26.9,259.20000000000005 26.9,261.2 24.900000000000002,261.2"/>
<polygon class="l69d44" points="82.5,259.20000000000005 84.5,259.20000000000005 84.5,261.2 82.5,261.2"/>
<polygon class="l69d44" points="64.6,243.4 66.6,243.4 66.6,245.39999999999998 64.6,245.39999999999998"/>
<polygon class="l69d44" points="68.60000000000001,243.4 70.60000000000001,243.4 70.60000000000001,245.39999999999998 68.60000000000001,245.39999999999998"/>
<polygon class="l69d44" points="122.2,243.4 124.2,243.4 124.2,245.39999999999998 122.2,245.39999999999998"/>
<polygon class="l69d44" points="126.20000000000002,243.4 128.2,243.4 128.2,245.39999999999998 126.20000000000002,245.39999999999998"/>
<polygon class="l69d44" points="138.5,243.2 140.5,243.2 140.5,245.2 138.5,245.2"/>
<polygon class="l69d44" points="15.4,231.4 17.4,231.4 17.4,233.4 15.4,233.4"/>
<polygon class="l69d44" points="148.2,231.4 150.2,231.4 150.2,233.4 148.2,233.4"/>
<polygon class="l69d44" points="24.900000000000002,219.20000000000002 26.9,219.20000000000002 26.9,221.20000000000002 24.900000000000002,221.20000000000002"/>
<polygon class="l69d44" points="82.5,219.20000000000002 84.5,219.20000000000002 84.5,221.20000000000002 82.5,221.20000000000002"/>
<polygon class="l69d44" points="64.6,203.4 66.6,203.4 66.6,205.39999999999998 64.6,205.39999999999998"/>
<polygon class="l69d44" points="68.60000000000001,203.4 70.60000000000001,203.4 70.60000000000001,205.39999999999998 68.60000000000001,205.39999999999998"/>
<polygon class="l69d44" points="122.2,203.4 124.2,203.4 124.2,205.39999999999998 122.2,205.39999999999998"/>
<polygon class="l69d44" points="126.20000000000002,203.4 128.2,203.4 128.2,205.39999999999998 126.20000000000002,205.39999999999998"/>
<polygon class="l69d44" points="15.4,191.4 17.4,191.4 17.4,193.4 15.4,193.4"/>
<polygon class="l69d44" points="148.2,191.4 150.2,191.4 150.2,193.4 148.2,193.4"/>
<polygon class="l69d44" points="24.900000000000002,179.20000000000002 26.9,179.20000000000002 26.9,181.20000000000002 24.900000000000002,181.20000000000002"/>
<polygon class="l69d44" points="82.5,179.20000000000002 84.5,179.20000000000002 84.5,181.20000000000002 82.5,181.20000000000002"/>
<polygon class="l69d44" points="357.59999999999997,175.0 359.6,175.0 359.6,177.0 357.59999999999997,177.0"/>
<polygon class="l69d44" points="361.6,175.0 363.6,175.0 363.6,177.0 361.6,177.0"/>
<polygon class="l69d44" points="365.6,175.0 367.59999999999997,175.0 367.59999999999997,177.0 365.6,177.0"/>
<polygon class="l69d44" points="343.5,170.8 345.50000000000006,170.8 345.50000000000006,172.8 343.5,172.8"/>
<polygon class="l69d44" points="357.59999999999997,171.0 359.6,171.0 359.6,173.0 357.59999999999997,173.0"/>
<polygon class="l69d44" points="361.6,171.0 363.6,171.0 363.6,173.0 361.6,173.0"/>
<polygon class="l69d44" points="365.6,171.0 367.59999999999997,171.0 367.59999999999997,173.0 365.6,173.0"/>
<polygon class="l69d44" points="357.59999999999997,167.0 359.6,167.0 359.6,169.0 357.59999999999997,169.0"/>
<polygon class="l69d44" points="361.6,167.0 363.6,167.0 363.6,169.0 361.6,169.0"/>
<polygon class="l69d44" points="365.6,167.0 367.59999999999997,167.0 367.59999999999997,169.0 365.6,169.0"/>
<polygon class="l69d44" points="64.6,163.4 66.6,163.4 66.6,165.39999999999998 64.6,165.39999999999998"/>
<polygon class="l69d44" points="68.60000000000001,163.4 70.60000000000001,163.4 70.60000000000001,165.39999999999998 68.60000000000001,165.39999999999998"/>
<polygon class="l69d44" points="122.2,163.4 124.2,163.4 124.2,165.39999999999998 122.2,165.39999999999998"/>
<polygon class="l69d44" points="126.20000000000002,163.4 128.2,163.4 128.2,165.39999999999998 126.20000000000002,165.39999999999998"/>
<polygon class="l69d44" points="124.1,68.9 126.1,68.9 126.1,70.9 124.1,70.9"/>
<polygon class="l69d44" points="138.5,52.800000000000004 140.5,52.800000000000004 140.5,54.800000000000004 138.5,54.800000000000004"/>
<polygon class="l70d20" points="181.9,519.3 197.7,519.3 197.7,532.7 181.9,532.7"/>
<polygon class="l70d20" points="342.30000000000007,523.2 346.70000000000005,523.2 346.70000000000005,527.6 342.30000000000007,527.6"/>
<polygon class="l70d20" points="187.8,372.59999999999997 190.8,372.59999999999997 190.8,519.3 187.8,519.3"/>
<polygon class="l70d20" points="187.10000000000002,368.2 191.50000000000003,368.2 191.50000000000003,372.59999999999997 187.10000000000002,372.59999999999997"/>
<polygon class="l70d20" points="161.29999999999998,337.9 165.7,337.9 165.7,342.30000000000007 161.29999999999998,342.30000000000007"/>
<polygon class="l70d20" points="137.4,321.4 141.8,321.4 141.8,325.79999999999995 137.4,325.79999999999995"/>
<polygon class="l70d20" points="138.1,314.6 141.1,314.6 141.1,321.4 138.1,321.4"/>
<polygon class="l70d20" points="14.2,310.2 18.6,310.2 18.6,314.6 14.2,314.6"/>
<polygon class="l70d20" points="137.4,310.2 141.8,310.2 141.8,314.6 137.4,314.6"/>
<polygon class="l70d20" points="14.9,274.6 17.9,274.6 17.9,310.2 14.9,310.2"/>
<polygon class="l70d20" points="23.700000000000003,298.0 28.1,298.0 28.1,302.40000000000003 23.700000000000003,302.40000000000003"/>
<polygon class="l70d20" points="81.30000000000001,298.0 85.7,298.0 85.7,302.40000000000003 81.30000000000001,302.40000000000003"/>
<polygon class="l70d20" points="14.2,270.2 18.6,270.2 18.6,274.6 14.2,274.6"/>
<polygon class="l70d20" points="14.9,234.60000000000002 17.9,234.60000000000002 17.9,270.2 14.9,270.2"/>
<polygon class="l70d20" points="24.4,262.40000000000003 27.400000000000002,262.40000000000003 27.400000000000002,298.0 24.4,298.0"/>
<polygon class="l70d20" points="62.1,281.70000000000005 73.10000000000001,281.70000000000005 73.10000000000001,287.1 62.1,287.1"/>
<polygon class="l70d20" points="23.700000000000003,258.0 28.1,258.0 28.1,262.40000000000003 23.700000000000003,262.40000000000003"/>
<polygon class="l70d20" points="66.0,247.10000000000002 69.0,247.10000000000002 69.0,281.70000000000005 66.0,281.70000000000005"/>
<polygon class="l70d20" points="82.0,262.40000000000003 85.0,262.40000000000003 85.0,298.0 82.0,298.0"/>
<polygon class="l70d20" points="119.7,281.70000000000005 130.7,281.70000000000005 130.7,287.1 119.7,287.1"/>
<polygon class="l70d20" points="81.30000000000001,258.0 85.7,258.0 85.7,262.40000000000003 81.30000000000001,262.40000000000003"/>
<polygon class="l70d20" points="123.6,247.10000000000002 126.6,247.10000000000002 126.6,281.70000000000005 123.6,281.70000000000005"/>
<polygon class="l70d20" points="138.1,274.6 141.1,274.6 141.1,310.2 138.1,310.2"/>
<polygon class="l70d20" points="162.0,303.9 165.0,303.9 165.0,337.9 162.0,337.9"/>
<polygon class="l70d20" points="161.29999999999998,299.5 165.7,299.5 165.7,303.9 161.29999999999998,303.9"/>
<polygon class="l70d20" points="137.4,270.2 141.8,270.2 141.8,274.6 137.4,274.6"/>
<polygon class="l70d20" points="62.1,241.70000000000002 73.10000000000001,241.70000000000002 73.10000000000001,247.10000000000002 62.1,247.10000000000002"/>
<polygon class="l70d20" points="119.7,241.70000000000002 130.7,241.70000000000002 130.7,247.10000000000002 119.7,247.10000000000002"/>
<polygon class="l70d20" points="137.3,242.0 141.7,242.0 141.7,246.4 137.3,246.4"/>
<polygon class="l70d20" points="14.2,230.2 18.6,230.2 18.6,234.60000000000002 14.2,234.60000000000002"/>
<polygon class="l70d20" points="14.9,194.60000000000002 17.9,194.60000000000002 17.9,230.2 14.9,230.2"/>
<polygon class="l70d20" points="23.700000000000003,218.0 28.1,218.0 28.1,222.40000000000003 23.700000000000003,222.40000000000003"/>
<polygon class="l70d20" points="81.30000000000001,218.0 85.7,218.0 85.7,222.40000000000003 81.30000000000001,222.40000000000003"/>
<polygon class="l70d20" points="14.2,190.2 18.6,190.2 18.6,194.60000000000002 14.2,194.60000000000002"/>
<polygon class="l70d20" points="24.4,182.40000000000003 27.400000000000002,182.40000000000003 27.400000000000002,218.0 24.4,218.0"/>
<polygon class="l70d20" points="62.1,201.70000000000002 73.10000000000001,201.70000000000002 73.10000000000001,207.10000000000002 62.1,207.10000000000002"/>
<polygon class="l70d20" points="23.700000000000003,178.0 28.1,178.0 28.1,182.40000000000003 23.700000000000003,182.40000000000003"/>
<polygon class="l70d20" points="66.0,167.10000000000002 69.0,167.10000000000002 69.0,201.70000000000002 66.0,201.70000000000002"/>
<polygon class="l70d20" points="82.0,182.40000000000003 85.0,182.40000000000003 85.0,218.0 82.0,218.0"/>
<polygon class="l70d20" points="119.7,201.70000000000002 130.7,201.70000000000002 130.7,207.10000000000002 119.7,207.10000000000002"/>
<polygon class="l70d20" points="81.30000000000001,178.0 85.7,178.0 85.7,182.40000000000003 81.30000000000001,182.40000000000003"/>
<polygon class="l70d20" points="123.6,167.10000000000002 126.6,167.10000000000002 126.6,201.70000000000002 123.6,201.70000000000002"/>
<polygon class="l70d20" points="62.1,161.70000000000002 73.10000000000001,161.70000000000002 73.10000000000001,167.10000000000002 62.1,167.10000000000002"/>
<polygon class="l70d20" points="119.7,161.70000000000002 130.7,161.70000000000002 130.7,167.10000000000002 119.7,167.10000000000002"/>
<polygon class="l70d20" points="123.6,72.1 126.6,72.1 126.6,161.70000000000002 123.6,161.70000000000002"/>
<polygon class="l70d20" points="122.9,67.7 127.30000000000001,67.7 127.30000000000001,72.1 122.9,72.1"/>
<polygon class="l70d20" points="138.0,56.00000000000001 141.0,56.00000000000001 141.0,242.0 138.0,242.0"/>
<polygon class="l70d20" points="147.0,230.2 151.4,230.2 151.4,234.60000000000002 147.0,234.60000000000002"/>
<polygon class="l70d20" points="147.7,194.60000000000002 150.7,194.60000000000002 150.7,230.2 147.7,230.2"/>
<polygon class="l70d20" points="147.0,190.2 151.4,190.2 151.4,194.60000000000002 147.0,194.60000000000002"/>
<polygon class="l70d20" points="343.00000000000006,174.00000000000003 346.0,174.00000000000003 346.0,523.2 343.00000000000006,523.2"/>
<polygon class="l70d20" points="359.90000000000003,368.2 364.3,368.2 364.3,372.59999999999997 359.90000000000003,372.59999999999997"/>
<polygon class="l70d20" points="360.6,355.7 363.6,355.7 363.6,368.2 360.6,368.2"/>
<polygon class="l70d20" points="354.7,342.30000000000007 370.50000000000006,342.30000000000007 370.50000000000006,355.7 354.7,355.7"/>
<polygon class="l70d20" points="359.7,299.5 364.1,299.5 364.1,303.9 359.7,303.9"/>
<polygon class="l70d20" points="360.4,178.70000000000002 363.40000000000003,178.70000000000002 363.40000000000003,299.5 360.4,299.5"/>
<polygon class="l70d20" points="342.30000000000007,169.60000000000002 346.70000000000005,169.60000000000002 346.70000000000005,174.00000000000003 342.30000000000007,174.00000000000003"/>
<polygon class="l70d20" points="354.7,165.3 370.50000000000006,165.3 370.50000000000006,178.70000000000002 354.7,178.70000000000002"/>
<polygon class="l70d20" points="137.3,51.6 141.7,51.6 141.7,56.00000000000001 137.3,56.00000000000001"/>
<polygon class="l69d16" points="82.0,218.70000000000002 96.30000000000001,218.70000000000002 96.30000000000001,221.70000000000002 82.0,221.70000000000002"/>
<polygon class="l69d16" points="82.0,298.7 96.30000000000001,298.7 96.30000000000001,301.70000000000005 82.0,301.70000000000005"/>
<polygon class="l67d16" points="0.0,561.0 408.00000000000006,561.0 408.00000000000006,566.0 0.0,566.0"/>
<polygon class="l67d16" points="10.0,551.0 398.00000000000006,551.0 398.00000000000006,556.0 10.0,556.0"/>
<polygon class="l69d16" points="125.1,52.300000000000004 141.0,52.300000000000004 141.0,55.300000000000004 125.1,55.300000000000004"/>
<polygon class="l999d0" points="163.15,18.75 163.15,193.25 389.25,193.25 389.25,18.75"/>
<polygon class="l999d0" points="163.15,372.75 163.15,547.25 389.25,547.25 389.25,372.75"/>
<polygon class="l999d0" points="163.15,195.75 163.15,370.25 389.25,370.25 389.25,195.75"/>
<polygon class="l999d0" points="23.15,26.400000000000002 23.15,53.650000000000006 92.85,53.650000000000006 92.85,26.400000000000002"/>
<polygon class="l999d0" points="80.75,26.400000000000002 80.75,53.650000000000006 150.45,53.650000000000006 150.45,26.400000000000002"/>
<polygon class="l999d0" points="23.15,87.15000000000002 23.15,114.4 92.85,114.4 92.85,87.15000000000002"/>
<polygon class="l999d0" points="80.75,87.15000000000002 80.75,114.4 150.45,114.4 150.45,87.15000000000002"/>
<polygon class="l999d0" points="23.15,47.15 23.15,93.65 92.85,93.65 92.85,47.15"/>
<polygon class="l999d0" points="80.75,47.15 80.75,93.65 150.45,93.65 150.45,47.15"/>
<polygon class="l999d0" points="20.0,194.0 20.0,246.8 96.0,246.8 96.0,194.0"/>
<polygon class="l999d0" points="77.6,194.0 77.6,246.8 153.6,246.8 153.6,194.0"/>
<polygon class="l999d0" points="20.0,154.0 20.0,206.8 96.0,206.8 96.0,154.0"/>
<polygon class="l999d0" points="77.6,154.0 77.6,206.8 153.6,206.8 153.6,154.0"/>
<polygon class="l999d0" points="20.0,274.0 20.0,326.8 96.0,326.8 96.0,274.0"/>
<polygon class="l999d0" points="77.6,274.0 77.6,326.8 153.6,326.8 153.6,274.0"/>
<polygon class="l999d0" points="77.6,234.0 77.6,286.8 153.6,286.8 153.6,234.0"/>
<polygon class="l999d0" points="20.0,234.0 20.0,286.8 96.0,286.8 96.0,234.0"/>
<polygon class="l999d0" points="77.6,314.0 77.6,366.8 153.6,366.8 153.6,314.0"/>
<polygon class="l999d0" points="20.0,314.0 20.0,366.8 96.0,366.8 96.0,314.0"/>
<polygon class="l999d0" points="20.0,130.0 20.0,166.8 96.0,166.8 96.0,130.0"/>
<polygon class="l999d0" points="77.6,130.0 77.6,166.8 153.6,166.8 153.6,130.0"/>
<polygon class="l999d0" points="77.6,354.0 77.6,390.79999999999995 153.6,390.79999999999995 153.6,354.0"/>
<polygon class="l999d0" points="20.0,354.0 20.0,390.79999999999995 96.0,390.79999999999995 96.0,354.0"/>
<text class="l998t0" text-anchor="middle" dominant-baseline="text-after-edge" transform="scale(1 -1) translate(276.2 -106.0) scale(0.28)">JNWTR_RPPO16</text>
<text class="l998t0" text-anchor="middle" dominant-baseline="text-after-edge" transform="scale(1 -1) translate(276.2 -460.0) scale(0.28)">JNWTR_RPPO16</text>
<text class="l998t0" text-anchor="middle" dominant-baseline="text-after-edge" transform="scale(1 -1) translate(276.2 -283.0) scale(0.28)">JNWTR_RPPO16</text>
<text class="l998t0" text-anchor="middle" dominant-baseline="text-after-edge" transform="scale(1 -1) translate(58.0 -40.025000000000006) scale(0.28)">JNWATR_NCH_4CTAPBOT</text>
<text class="l998t0" text-anchor="middle" dominant-baseline="text-after-edge" transform="scale(1 -1) translate(115.6 -40.025000000000006) scale(0.28)">JNWATR_NCH_4CTAPBOT</text>
<text class="l998t0" text-anchor="middle" dominant-baseline="text-after-edge" transform="scale(1 -1) translate(58.0 -100.775) scale(0.28)">JNWATR_NCH_4CTAPTOP</text>
<text class="l998t0" text-anchor="middle" dominant-baseline="text-after-edge" transform="scale(1 -1) translate(115.6 -100.775) scale(0.28)">JNWATR_NCH_4CTAPTOP</text>
<text class="l998t0" text-anchor="middle" dominant-baseline="text-after-edge" transform="scale(1 -1) translate(58.0 -70.4) scale(0.28)">JNWATR_NCH_4C5F0</text>
<text class="l998t0" text-anchor="middle" dominant-baseline="text-after-edge" transform="scale(1 -1) translate(115.6 -70.4) scale(0.28)">JNWATR_NCH_4C5F0</text>
<text class="l998t0" text-anchor="middle" dominant-baseline="text-after-edge" transform="scale(1 -1) translate(58.0 -220.39999999999998) scale(0.28)">JNWATR_PCH_4C5F0</text>
<text class="l998t0" text-anchor="middle" dominant-baseline="text-after-edge" transform="scale(1 -1) translate(115.6 -220.39999999999998) scale(0.28)">JNWATR_PCH_4C5F0</text>
<text class="l998t0" text-anchor="middle" dominant-baseline="text-after-edge" transform="scale(1 -1) translate(58.0 -180.39999999999998) scale(0.28)">JNWATR_PCH_4C5F0</text>
<text class="l998t0" text-anchor="middle" dominant-baseline="text-after-edge" transform="scale(1 -1) translate(115.6 -180.39999999999998) scale(0.28)">JNWATR_PCH_4C5F0</text>
<text class="l998t0" text-anchor="middle" dominant-baseline="text-after-edge" transform="scale(1 -1) translate(58.0 -300.4) scale(0.28)">JNWATR_PCH_4C5F0</text>
<text class="l998t0" text-anchor="middle" dominant-baseline="text-after-edge" transform="scale(1 -1) translate(115.6 -300.4) scale(0.28)">JNWATR_PCH_4C5F0</text>
<text class="l998t0" text-anchor="middle" dominant-baseline="text-after-edge" transform="scale(1 -1) translate(115.6 -260.4) scale(0.28)">JNWATR_PCH_4C5F0</text>
<text class="l998t0" text-anchor="middle" dominant-baseline="text-after-edge" transform="scale(1 -1) translate(58.0 -260.4) scale(0.28)">JNWATR_PCH_4C5F0</text>
<text class="l998t0" text-anchor="middle" dominant-baseline="text-after-edge" transform="scale(1 -1) translate(115.6 -340.4) scale(0.28)">JNWATR_PCH_4C5F0</text>
<text class="l998t0" text-anchor="middle" dominant-baseline="text-after-edge" transform="scale(1 -1) translate(58.0 -340.4) scale(0.28)">JNWATR_PCH_4C5F0</text>
<text class="l998t0" text-anchor="middle" dominant-baseline="text-after-edge" transform="scale(1 -1) translate(58.0 -148.4) scale(0.28)">JNWATR_PCH_4CTAPBOT</text>
<text class="l998t0" text-anchor="middle" dominant-baseline="text-after-edge" transform="scale(1 -1) translate(115.6 -148.4) scale(0.28)">JNWATR_PCH_4CTAPBOT</text>
<text class="l998t0" text-anchor="middle" dominant-baseline="text-after-edge" transform="scale(1 -1) translate(115.6 -372.4) scale(0.28)">JNWATR_PCH_4CTAPTOP</text>
<text class="l998t0" text-anchor="middle" dominant-baseline="text-after-edge" transform="scale(1 -1) translate(58.0 -372.4) scale(0.28)">JNWATR_PCH_4CTAPTOP</text>
<text class="l997t0" text-anchor="middle" dominant-baseline="central" transform="scale(1 -1) translate(89.15 -220.2) scale(0.4)">IN+</text>
<text class="l997t0" text-anchor="middle" dominant-baseline="central" transform="scale(1 -1) translate(89.15 -300.2) scale(0.4)">IN-</text>
<text class="l997t0" text-anchor="middle" dominant-baseline="central" transform="scale(1 -1) translate(204.00000000000003 -563.5) scale(0.4)">VDD</text>
<text class="l997t0" text-anchor="middle" dominant-baseline="central" transform="scale(1 -1) translate(204.00000000000003 -553.5) scale(0.4)">VSS</text>
<text class="l997t0" text-anchor="middle" dominant-baseline="central" transform="scale(1 -1) translate(133.05 -53.8) scale(0.4)">OUT</text>
</g>
</svg>