<svg xmlns="http://www.w3.org/2000/svg"
            width="4574.0" height="6394.0"
            viewBox="-247.0 -6147.0 4574.0 6394.0">
            
        <defs>
          <marker id="arrowhead" markerWidth="20" markerHeight="30" 
                  refX="10" refY="3.5" orient="auto" markerUnits="strokeWidth">
            <path d="M0,0 L0,7 L10,3.5 z" fill="black" />
          </marker>

          <marker id="arrowhead_reversed" markerWidth="20" markerHeight="30" 
                  refX="0" refY="3.5" orient="auto" markerUnits="strokeWidth">
            <path d="M10,0 L10,7 L0,3.5 z" fill="black" />
          </marker>
        </defs>
        
        <defs>
        <style type="text/css">
          .l70d20 { fill: #1f77b4; fill-opacity: 0.7; }
          .l69d20 { fill: #d62728; fill-opacity: 0.7; }
          .l67d20 { fill: #56423e; fill-opacity: 0.7; }
          .l68d20 { fill: #bea6a1; fill-opacity: 0.7; }
          .l68d44 { fill: #0077ff;}
          .l67d44 { fill: #e09a8e;}
          .l69d44 { fill: #70b512;}
          
          .l50d0 { fill: #1f77b4; fill-opacity: 0.7; } /* Metal 4 in IHP */
          .l49d0{ fill: #70b512;}                      /* Via 3 in IHP */
          .l30d0 { fill: #d62728; fill-opacity: 0.7; } /* Metal 3 in IHP */
          .l29d0 { fill: #e39024;}                     /* Via 2 in IHP */
          .l10d0 { fill: #bea6a1; fill-opacity: 0.7; } /* Metal 2 in IHP */
          .l19d0 { fill: #e09a8e;}                     /* Via 1 in IHP */
          .l8d0 { fill: #56423e; fill-opacity: 0.7; }  /* Metal 1 in IHP */
        
          
          /* Not dealt with */
          .l64d20,
          .l65d20,
          .l65d44,
          .l66d13,
          .l66d20,
          .l66d44,
          .l67d16,
          .l68d16,
          .l70d16,
          .l69d16,
          .l86d20,
          .l93d44,
          .l94d20,
          .l95d20,
          .l70d5
          .l8d2,
          .l8d25,
          .l30d2,
          .l50d25,
          .l10d2,
          .l30d25,
          .l30d2,
          .l50d2,
          .l14d0
          .l235d4 {
            fill: #000000;
            fill-opacity: 0.0;
          }
          
          .l998t0 { fill: #000000; font-size: 1500px; }
          .l997t0 { fill: #5C4033; font-size: 1300px; }
          .l999d0 { stroke: #000000; stroke-width: 50; fill: #000000; fill-opacity: 0.2; }
        </style>
        </defs>
        
            <rect x="-247.0" y="-6147.0" width="4574.0" height="6394.0" fill="#ffffff" />
            <g transform="scale(0.1)">
              <path d="M 1875,-37025 L 1875,-37275 L 24485,-37275 L 24485,-37025 Z" class="l94d20" /> <path d="M 28315,-20325 L 28315,-20475 L 30165,-20475 L 30165,-20325 Z" class="l94d20" /> <path d="M 34075,-20325 L 34075,-20475 L 35925,-20475 L 35925,-20325 Z" class="l94d20" /> <path d="M 1875,-19325 L 1875,-19575 L 24485,-19575 L 24485,-19325 Z" class="l94d20" /> <path d="M 28315,-16325 L 28315,-16475 L 30165,-16475 L 30165,-16325 Z" class="l94d20" /> <path d="M 34075,-16325 L 34075,-16475 L 35925,-16475 L 35925,-16325 Z" class="l94d20" /> <path d="M 28315,-12325 L 28315,-12475 L 30165,-12475 L 30165,-12325 Z" class="l94d20" /> <path d="M 34075,-12325 L 34075,-12475 L 35925,-12475 L 35925,-12325 Z" class="l94d20" /> <path d="M 28315,-8325 L 28315,-8475 L 30165,-8475 L 30165,-8325 Z" class="l94d20" /> <path d="M 34075,-8325 L 34075,-8475 L 35925,-8475 L 35925,-8325 Z" class="l94d20" /> <path d="M -70,-59000 L -70,-59070 L 570,-59070 L 570,-59000 Z" class="l67d20" /> <path d="M 40230,-59000 L 40230,-59070 L 40870,-59070 L 40870,-59000 Z" class="l67d20" /> <path d="M -70,-58500 L -70,-59000 L 40870,-59000 L 40870,-58500 Z" class="l67d20" /> <path d="M -70,-58430 L -70,-58500 L 570,-58500 L 570,-58430 Z" class="l67d20" /> <path d="M 40230,-58430 L 40230,-58500 L 40870,-58500 L 40870,-58430 Z" class="l67d20" /> <path d="M 930,-58000 L 930,-58070 L 1570,-58070 L 1570,-58000 Z" class="l67d20" /> <path d="M 39230,-58000 L 39230,-58070 L 39870,-58070 L 39870,-58000 Z" class="l67d20" /> <path d="M 930,-57500 L 930,-58000 L 39870,-58000 L 39870,-57500 Z" class="l67d20" /> <path d="M 930,-57430 L 930,-57500 L 1570,-57500 L 1570,-57430 Z" class="l67d20" /> <path d="M 39230,-57430 L 39230,-57500 L 39870,-57500 L 39870,-57430 Z" class="l67d20" /> <path d="M 930,-54600 L 930,-54670 L 1570,-54670 L 1570,-54600 Z" class="l67d20" /> <path d="M 930,-54040 L 930,-54600 L 24360,-54600 L 24360,-54040 Z" class="l67d20" /> <path d="M 930,-53970 L 930,-54040 L 1570,-54040 L 1570,-53970 Z" class="l67d20" /> <path d="M 3750,-51930 L 3750,-53270 L 5330,-53270 L 5330,-51930 Z" class="l67d20" /> <path d="M 21030,-51930 L 21030,-53270 L 22610,-53270 L 22610,-51930 Z" class="l67d20" /> <path d="M 930,-37960 L 930,-38030 L 1570,-38030 L 1570,-37960 Z" class="l67d20" /> <path d="M 930,-37400 L 930,-37960 L 24360,-37960 L 24360,-37400 Z" class="l67d20" /> <path d="M 930,-37330 L 930,-37400 L 1570,-37400 L 1570,-37330 Z" class="l67d20" /> <path d="M 39230,-37080 L 39230,-37150 L 39870,-37150 L 39870,-37080 Z" class="l67d20" /> <path d="M 930,-36900 L 930,-36970 L 1570,-36970 L 1570,-36900 Z" class="l67d20" /> <path d="M 930,-36340 L 930,-36900 L 24360,-36900 L 24360,-36340 Z" class="l67d20" /> <path d="M 930,-36270 L 930,-36340 L 1570,-36340 L 1570,-36270 Z" class="l67d20" /> <path d="M 25440,-36120 L 25440,-37080 L 39870,-37080 L 39870,-36120 Z" class="l67d20" /> <path d="M 39230,-36050 L 39230,-36120 L 39870,-36120 L 39870,-36050 Z" class="l67d20" /> <path d="M 2080,-34300 L 2080,-35500 L 5260,-35500 L 5260,-34300 Z" class="l67d20" /> <path d="M 21030,-34230 L 21030,-35570 L 22610,-35570 L 22610,-34230 Z" class="l67d20" /> <path d="M 25880,-34400 L 25880,-34800 L 28760,-34800 L 28760,-34400 Z" class="l67d20" /> <path d="M 31640,-34400 L 31640,-34800 L 34520,-34800 L 34520,-34400 Z" class="l67d20" /> <path d="M 29720,-33200 L 29720,-33600 L 31320,-33600 L 31320,-33200 Z" class="l67d20" /> <path d="M 39230,-30680 L 39230,-30750 L 39870,-30750 L 39870,-30680 Z" class="l67d20" /> <path d="M 25440,-29720 L 25440,-30680 L 39870,-30680 L 39870,-29720 Z" class="l67d20" /> <path d="M 39230,-29650 L 39230,-29720 L 39870,-29720 L 39870,-29650 Z" class="l67d20" /> <path d="M 40230,-26080 L 40230,-26150 L 40870,-26150 L 40870,-26080 Z" class="l67d20" /> <path d="M 25440,-25120 L 25440,-26080 L 40870,-26080 L 40870,-25120 Z" class="l67d20" /> <path d="M 40230,-25050 L 40230,-25120 L 40870,-25120 L 40870,-25050 Z" class="l67d20" /> <path d="M 930,-20260 L 930,-20330 L 1570,-20330 L 1570,-20260 Z" class="l67d20" /> <path d="M 930,-19700 L 930,-20260 L 24360,-20260 L 24360,-19700 Z" class="l67d20" /> <path d="M 930,-19630 L 930,-19700 L 1570,-19700 L 1570,-19630 Z" class="l67d20" /> <path d="M 930,-19200 L 930,-19270 L 1570,-19270 L 1570,-19200 Z" class="l67d20" /> <path d="M 930,-18640 L 930,-19200 L 24360,-19200 L 24360,-18640 Z" class="l67d20" /> <path d="M 930,-18570 L 930,-18640 L 1570,-18640 L 1570,-18570 Z" class="l67d20" /> <path d="M 3750,-16530 L 3750,-17870 L 5330,-17870 L 5330,-16530 Z" class="l67d20" /> <path d="M 21030,-16530 L 21030,-17870 L 22610,-17870 L 22610,-16530 Z" class="l67d20" /> <path d="M 25880,-7400 L 25880,-7800 L 28760,-7800 L 28760,-7400 Z" class="l67d20" /> <path d="M 31640,-7400 L 31640,-7800 L 34520,-7800 L 34520,-7400 Z" class="l67d20" /> <path d="M 29720,-6200 L 29720,-6600 L 31320,-6600 L 31320,-6200 Z" class="l67d20" /> <path d="M 40230,-3680 L 40230,-3750 L 40870,-3750 L 40870,-3680 Z" class="l67d20" /> <path d="M 25440,-2720 L 25440,-3680 L 40870,-3680 L 40870,-2720 Z" class="l67d20" /> <path d="M 40230,-2650 L 40230,-2720 L 40870,-2720 L 40870,-2650 Z" class="l67d20" /> <path d="M 930,-2560 L 930,-2630 L 1570,-2630 L 1570,-2560 Z" class="l67d20" /> <path d="M 930,-2000 L 930,-2560 L 24360,-2560 L 24360,-2000 Z" class="l67d20" /> <path d="M 930,-1930 L 930,-2000 L 1570,-2000 L 1570,-1930 Z" class="l67d20" /> <path d="M 930,-1500 L 930,-1570 L 1570,-1570 L 1570,-1500 Z" class="l67d20" /> <path d="M 39230,-1500 L 39230,-1570 L 39870,-1570 L 39870,-1500 Z" class="l67d20" /> <path d="M 930,-1000 L 930,-1500 L 39870,-1500 L 39870,-1000 Z" class="l67d20" /> <path d="M 930,-930 L 930,-1000 L 1570,-1000 L 1570,-930 Z" class="l67d20" /> <path d="M 39230,-930 L 39230,-1000 L 39870,-1000 L 39870,-930 Z" class="l67d20" /> <path d="M -70,-500 L -70,-570 L 570,-570 L 570,-500 Z" class="l67d20" /> <path d="M 40230,-500 L 40230,-570 L 40870,-570 L 40870,-500 Z" class="l67d20" /> <path d="M -70,0 L -70,-500 L 40870,-500 L 40870,0 Z" class="l67d20" /> <path d="M -70,70 L -70,0 L 570,0 L 570,70 Z" class="l67d20" /> <path d="M 40230,70 L 40230,0 L 40870,0 L 40870,70 Z" class="l67d20" /> <path d="M 0,-58500 L 0,-59000 L 40800,-59000 L 40800,-58500 Z" class="l67d16" /> <path d="M 1000,-57500 L 1000,-58000 L 39800,-58000 L 39800,-57500 Z" class="l67d16" /> <path d="M 165,-58665 L 165,-58835 L 335,-58835 L 335,-58665 Z" class="l67d44" /> <path d="M 40465,-58665 L 40465,-58835 L 40635,-58835 L 40635,-58665 Z" class="l67d44" /> <path d="M 1165,-57665 L 1165,-57835 L 1335,-57835 L 1335,-57665 Z" class="l67d44" /> <path d="M 39465,-57665 L 39465,-57835 L 39635,-57835 L 39635,-57665 Z" class="l67d44" /> <path d="M 1165,-54415 L 1165,-54585 L 1335,-54585 L 1335,-54415 Z" class="l67d44" /> <path d="M 1165,-54055 L 1165,-54225 L 1335,-54225 L 1335,-54055 Z" class="l67d44" /> <path d="M 3915,-52875 L 3915,-53045 L 4085,-53045 L 4085,-52875 Z" class="l67d44" /> <path d="M 4275,-52875 L 4275,-53045 L 4445,-53045 L 4445,-52875 Z" class="l67d44" /> <path d="M 4635,-52875 L 4635,-53045 L 4805,-53045 L 4805,-52875 Z" class="l67d44" /> <path d="M 4995,-52875 L 4995,-53045 L 5165,-53045 L 5165,-52875 Z" class="l67d44" /> <path d="M 21195,-52875 L 21195,-53045 L 21365,-53045 L 21365,-52875 Z" class="l67d44" /> <path d="M 21555,-52875 L 21555,-53045 L 21725,-53045 L 21725,-52875 Z" class="l67d44" /> <path d="M 21915,-52875 L 21915,-53045 L 22085,-53045 L 22085,-52875 Z" class="l67d44" /> <path d="M 22275,-52875 L 22275,-53045 L 22445,-53045 L 22445,-52875 Z" class="l67d44" /> <path d="M 3915,-52515 L 3915,-52685 L 4085,-52685 L 4085,-52515 Z" class="l67d44" /> <path d="M 4275,-52515 L 4275,-52685 L 4445,-52685 L 4445,-52515 Z" class="l67d44" /> <path d="M 4635,-52515 L 4635,-52685 L 4805,-52685 L 4805,-52515 Z" class="l67d44" /> <path d="M 4995,-52515 L 4995,-52685 L 5165,-52685 L 5165,-52515 Z" class="l67d44" /> <path d="M 21195,-52515 L 21195,-52685 L 21365,-52685 L 21365,-52515 Z" class="l67d44" /> <path d="M 21555,-52515 L 21555,-52685 L 21725,-52685 L 21725,-52515 Z" class="l67d44" /> <path d="M 21915,-52515 L 21915,-52685 L 22085,-52685 L 22085,-52515 Z" class="l67d44" /> <path d="M 22275,-52515 L 22275,-52685 L 22445,-52685 L 22445,-52515 Z" class="l67d44" /> <path d="M 3915,-52155 L 3915,-52325 L 4085,-52325 L 4085,-52155 Z" class="l67d44" /> <path d="M 4275,-52155 L 4275,-52325 L 4445,-52325 L 4445,-52155 Z" class="l67d44" /> <path d="M 4635,-52155 L 4635,-52325 L 4805,-52325 L 4805,-52155 Z" class="l67d44" /> <path d="M 4995,-52155 L 4995,-52325 L 5165,-52325 L 5165,-52155 Z" class="l67d44" /> <path d="M 21195,-52155 L 21195,-52325 L 21365,-52325 L 21365,-52155 Z" class="l67d44" /> <path d="M 21555,-52155 L 21555,-52325 L 21725,-52325 L 21725,-52155 Z" class="l67d44" /> <path d="M 21915,-52155 L 21915,-52325 L 22085,-52325 L 22085,-52155 Z" class="l67d44" /> <path d="M 22275,-52155 L 22275,-52325 L 22445,-52325 L 22445,-52155 Z" class="l67d44" /> <path d="M 1165,-37775 L 1165,-37945 L 1335,-37945 L 1335,-37775 Z" class="l67d44" /> <path d="M 1165,-37415 L 1165,-37585 L 1335,-37585 L 1335,-37415 Z" class="l67d44" /> <path d="M 1165,-36715 L 1165,-36885 L 1335,-36885 L 1335,-36715 Z" class="l67d44" /> <path d="M 39465,-36875 L 39465,-37045 L 39635,-37045 L 39635,-36875 Z" class="l67d44" /> <path d="M 1165,-36355 L 1165,-36525 L 1335,-36525 L 1335,-36355 Z" class="l67d44" /> <path d="M 39465,-36515 L 39465,-36685 L 39635,-36685 L 39635,-36515 Z" class="l67d44" /> <path d="M 39465,-36155 L 39465,-36325 L 39635,-36325 L 39635,-36155 Z" class="l67d44" /> <path d="M 21195,-35175 L 21195,-35345 L 21365,-35345 L 21365,-35175 Z" class="l67d44" /> <path d="M 21555,-35175 L 21555,-35345 L 21725,-35345 L 21725,-35175 Z" class="l67d44" /> <path d="M 21915,-35175 L 21915,-35345 L 22085,-35345 L 22085,-35175 Z" class="l67d44" /> <path d="M 22275,-35175 L 22275,-35345 L 22445,-35345 L 22445,-35175 Z" class="l67d44" /> <path d="M 21195,-34815 L 21195,-34985 L 21365,-34985 L 21365,-34815 Z" class="l67d44" /> <path d="M 21555,-34815 L 21555,-34985 L 21725,-34985 L 21725,-34815 Z" class="l67d44" /> <path d="M 21915,-34815 L 21915,-34985 L 22085,-34985 L 22085,-34815 Z" class="l67d44" /> <path d="M 22275,-34815 L 22275,-34985 L 22445,-34985 L 22445,-34815 Z" class="l67d44" /> <path d="M 21195,-34455 L 21195,-34625 L 21365,-34625 L 21365,-34455 Z" class="l67d44" /> <path d="M 21555,-34455 L 21555,-34625 L 21725,-34625 L 21725,-34455 Z" class="l67d44" /> <path d="M 21915,-34455 L 21915,-34625 L 22085,-34625 L 22085,-34455 Z" class="l67d44" /> <path d="M 22275,-34455 L 22275,-34625 L 22445,-34625 L 22445,-34455 Z" class="l67d44" /> <path d="M 39465,-30475 L 39465,-30645 L 39635,-30645 L 39635,-30475 Z" class="l67d44" /> <path d="M 39465,-30115 L 39465,-30285 L 39635,-30285 L 39635,-30115 Z" class="l67d44" /> <path d="M 39465,-29755 L 39465,-29925 L 39635,-29925 L 39635,-29755 Z" class="l67d44" /> <path d="M 40465,-25875 L 40465,-26045 L 40635,-26045 L 40635,-25875 Z" class="l67d44" /> <path d="M 40465,-25515 L 40465,-25685 L 40635,-25685 L 40635,-25515 Z" class="l67d44" /> <path d="M 40465,-25155 L 40465,-25325 L 40635,-25325 L 40635,-25155 Z" class="l67d44" /> <path d="M 1165,-20075 L 1165,-20245 L 1335,-20245 L 1335,-20075 Z" class="l67d44" /> <path d="M 1165,-19715 L 1165,-19885 L 1335,-19885 L 1335,-19715 Z" class="l67d44" /> <path d="M 1165,-19015 L 1165,-19185 L 1335,-19185 L 1335,-19015 Z" class="l67d44" /> <path d="M 1165,-18655 L 1165,-18825 L 1335,-18825 L 1335,-18655 Z" class="l67d44" /> <path d="M 3915,-17475 L 3915,-17645 L 4085,-17645 L 4085,-17475 Z" class="l67d44" /> <path d="M 4275,-17475 L 4275,-17645 L 4445,-17645 L 4445,-17475 Z" class="l67d44" /> <path d="M 4635,-17475 L 4635,-17645 L 4805,-17645 L 4805,-17475 Z" class="l67d44" /> <path d="M 4995,-17475 L 4995,-17645 L 5165,-17645 L 5165,-17475 Z" class="l67d44" /> <path d="M 21195,-17475 L 21195,-17645 L 21365,-17645 L 21365,-17475 Z" class="l67d44" /> <path d="M 21555,-17475 L 21555,-17645 L 21725,-17645 L 21725,-17475 Z" class="l67d44" /> <path d="M 21915,-17475 L 21915,-17645 L 22085,-17645 L 22085,-17475 Z" class="l67d44" /> <path d="M 22275,-17475 L 22275,-17645 L 22445,-17645 L 22445,-17475 Z" class="l67d44" /> <path d="M 3915,-17115 L 3915,-17285 L 4085,-17285 L 4085,-17115 Z" class="l67d44" /> <path d="M 4275,-17115 L 4275,-17285 L 4445,-17285 L 4445,-17115 Z" class="l67d44" /> <path d="M 4635,-17115 L 4635,-17285 L 4805,-17285 L 4805,-17115 Z" class="l67d44" /> <path d="M 4995,-17115 L 4995,-17285 L 5165,-17285 L 5165,-17115 Z" class="l67d44" /> <path d="M 21195,-17115 L 21195,-17285 L 21365,-17285 L 21365,-17115 Z" class="l67d44" /> <path d="M 21555,-17115 L 21555,-17285 L 21725,-17285 L 21725,-17115 Z" class="l67d44" /> <path d="M 21915,-17115 L 21915,-17285 L 22085,-17285 L 22085,-17115 Z" class="l67d44" /> <path d="M 22275,-17115 L 22275,-17285 L 22445,-17285 L 22445,-17115 Z" class="l67d44" /> <path d="M 3915,-16755 L 3915,-16925 L 4085,-16925 L 4085,-16755 Z" class="l67d44" /> <path d="M 4275,-16755 L 4275,-16925 L 4445,-16925 L 4445,-16755 Z" class="l67d44" /> <path d="M 4635,-16755 L 4635,-16925 L 4805,-16925 L 4805,-16755 Z" class="l67d44" /> <path d="M 4995,-16755 L 4995,-16925 L 5165,-16925 L 5165,-16755 Z" class="l67d44" /> <path d="M 21195,-16755 L 21195,-16925 L 21365,-16925 L 21365,-16755 Z" class="l67d44" /> <path d="M 21555,-16755 L 21555,-16925 L 21725,-16925 L 21725,-16755 Z" class="l67d44" /> <path d="M 21915,-16755 L 21915,-16925 L 22085,-16925 L 22085,-16755 Z" class="l67d44" /> <path d="M 22275,-16755 L 22275,-16925 L 22445,-16925 L 22445,-16755 Z" class="l67d44" /> <path d="M 40465,-3475 L 40465,-3645 L 40635,-3645 L 40635,-3475 Z" class="l67d44" /> <path d="M 40465,-3115 L 40465,-3285 L 40635,-3285 L 40635,-3115 Z" class="l67d44" /> <path d="M 40465,-2755 L 40465,-2925 L 40635,-2925 L 40635,-2755 Z" class="l67d44" /> <path d="M 1165,-2375 L 1165,-2545 L 1335,-2545 L 1335,-2375 Z" class="l67d44" /> <path d="M 1165,-2015 L 1165,-2185 L 1335,-2185 L 1335,-2015 Z" class="l67d44" /> <path d="M 1165,-1165 L 1165,-1335 L 1335,-1335 L 1335,-1165 Z" class="l67d44" /> <path d="M 39465,-1165 L 39465,-1335 L 39635,-1335 L 39635,-1165 Z" class="l67d44" /> <path d="M 165,-165 L 165,-335 L 335,-335 L 335,-165 Z" class="l67d44" /> <path d="M 40465,-165 L 40465,-335 L 40635,-335 L 40635,-165 Z" class="l67d44" /> <path d="M -70,-58430 L -70,-59070 L 570,-59070 L 570,-58430 Z" class="l68d20" /> <path d="M 40230,-58430 L 40230,-59070 L 40870,-59070 L 40870,-58430 Z" class="l68d20" /> <path d="M 0,-570 L 0,-58430 L 500,-58430 L 500,-570 Z" class="l68d20" /> <path d="M 930,-57430 L 930,-58070 L 1570,-58070 L 1570,-57430 Z" class="l68d20" /> <path d="M 39230,-57430 L 39230,-58070 L 39870,-58070 L 39870,-57430 Z" class="l68d20" /> <path d="M 1000,-54670 L 1000,-57430 L 1500,-57430 L 1500,-54670 Z" class="l68d20" /> <path d="M 930,-53970 L 930,-54670 L 1570,-54670 L 1570,-53970 Z" class="l68d20" /> <path d="M 1000,-38030 L 1000,-53970 L 1500,-53970 L 1500,-38030 Z" class="l68d20" /> <path d="M 3750,-51930 L 3750,-53270 L 5330,-53270 L 5330,-51930 Z" class="l68d20" /> <path d="M 21030,-51930 L 21030,-53270 L 22610,-53270 L 22610,-51930 Z" class="l68d20" /> <path d="M 930,-37330 L 930,-38030 L 1570,-38030 L 1570,-37330 Z" class="l68d20" /> <path d="M 1000,-36970 L 1000,-37330 L 1500,-37330 L 1500,-36970 Z" class="l68d20" /> <path d="M 39300,-37150 L 39300,-57430 L 39800,-57430 L 39800,-37150 Z" class="l68d20" /> <path d="M 930,-36270 L 930,-36970 L 1570,-36970 L 1570,-36270 Z" class="l68d20" /> <path d="M 1000,-20330 L 1000,-36270 L 1500,-36270 L 1500,-20330 Z" class="l68d20" /> <path d="M 39230,-36050 L 39230,-37150 L 39870,-37150 L 39870,-36050 Z" class="l68d20" /> <path d="M 21030,-34230 L 21030,-35570 L 22610,-35570 L 22610,-34230 Z" class="l68d20" /> <path d="M 27090,-33130 L 27090,-33670 L 27550,-33670 L 27550,-33130 Z" class="l68d20" /> <path d="M 32850,-33130 L 32850,-33670 L 33310,-33670 L 33310,-33130 Z" class="l68d20" /> <path d="M 35410,-31530 L 35410,-32070 L 36510,-32070 L 36510,-31530 Z" class="l68d20" /> <path d="M 39300,-30750 L 39300,-36050 L 39800,-36050 L 39800,-30750 Z" class="l68d20" /> <path d="M 39230,-29650 L 39230,-30750 L 39870,-30750 L 39870,-29650 Z" class="l68d20" /> <path d="M 27730,-23330 L 27730,-23870 L 28830,-23870 L 28830,-23330 Z" class="l68d20" /> <path d="M 33490,-23330 L 33490,-23870 L 34590,-23870 L 34590,-23330 Z" class="l68d20" /> <path d="M 27090,-22130 L 27090,-22670 L 27550,-22670 L 27550,-22130 Z" class="l68d20" /> <path d="M 32850,-22130 L 32850,-22670 L 33310,-22670 L 33310,-22130 Z" class="l68d20" /> <path d="M 29650,-20530 L 29650,-21070 L 30750,-21070 L 30750,-20530 Z" class="l68d20" /> <path d="M 35410,-20530 L 35410,-21070 L 36510,-21070 L 36510,-20530 Z" class="l68d20" /> <path d="M 930,-19630 L 930,-20330 L 1570,-20330 L 1570,-19630 Z" class="l68d20" /> <path d="M 1000,-19270 L 1000,-19630 L 1500,-19630 L 1500,-19270 Z" class="l68d20" /> <path d="M 27730,-19330 L 27730,-19870 L 28830,-19870 L 28830,-19330 Z" class="l68d20" /> <path d="M 33490,-19330 L 33490,-19870 L 34590,-19870 L 34590,-19330 Z" class="l68d20" /> <path d="M 930,-18570 L 930,-19270 L 1570,-19270 L 1570,-18570 Z" class="l68d20" /> <path d="M 1000,-2630 L 1000,-18570 L 1500,-18570 L 1500,-2630 Z" class="l68d20" /> <path d="M 27090,-18130 L 27090,-18670 L 27550,-18670 L 27550,-18130 Z" class="l68d20" /> <path d="M 32850,-18130 L 32850,-18670 L 33310,-18670 L 33310,-18130 Z" class="l68d20" /> <path d="M 3750,-16530 L 3750,-17870 L 5330,-17870 L 5330,-16530 Z" class="l68d20" /> <path d="M 21030,-16530 L 21030,-17870 L 22610,-17870 L 22610,-16530 Z" class="l68d20" /> <path d="M 29650,-16530 L 29650,-17070 L 30750,-17070 L 30750,-16530 Z" class="l68d20" /> <path d="M 35410,-16530 L 35410,-17070 L 36510,-17070 L 36510,-16530 Z" class="l68d20" /> <path d="M 27730,-15330 L 27730,-15870 L 28830,-15870 L 28830,-15330 Z" class="l68d20" /> <path d="M 33490,-15330 L 33490,-15870 L 34590,-15870 L 34590,-15330 Z" class="l68d20" /> <path d="M 27090,-14130 L 27090,-14670 L 27550,-14670 L 27550,-14130 Z" class="l68d20" /> <path d="M 32850,-14130 L 32850,-14670 L 33310,-14670 L 33310,-14130 Z" class="l68d20" /> <path d="M 29650,-12530 L 29650,-13070 L 30750,-13070 L 30750,-12530 Z" class="l68d20" /> <path d="M 35410,-12530 L 35410,-13070 L 36510,-13070 L 36510,-12530 Z" class="l68d20" /> <path d="M 27730,-11330 L 27730,-11870 L 28830,-11870 L 28830,-11330 Z" class="l68d20" /> <path d="M 33490,-11330 L 33490,-11870 L 34590,-11870 L 34590,-11330 Z" class="l68d20" /> <path d="M 27090,-10130 L 27090,-10670 L 27550,-10670 L 27550,-10130 Z" class="l68d20" /> <path d="M 32850,-10130 L 32850,-10670 L 33310,-10670 L 33310,-10130 Z" class="l68d20" /> <path d="M 29650,-8530 L 29650,-9070 L 30750,-9070 L 30750,-8530 Z" class="l68d20" /> <path d="M 35410,-8530 L 35410,-9070 L 36510,-9070 L 36510,-8530 Z" class="l68d20" /> <path d="M 27090,-6130 L 27090,-6670 L 27550,-6670 L 27550,-6130 Z" class="l68d20" /> <path d="M 32850,-6130 L 32850,-6670 L 33310,-6670 L 33310,-6130 Z" class="l68d20" /> <path d="M 35410,-4530 L 35410,-5070 L 36510,-5070 L 36510,-4530 Z" class="l68d20" /> <path d="M 930,-1930 L 930,-2630 L 1570,-2630 L 1570,-1930 Z" class="l68d20" /> <path d="M 1000,-1570 L 1000,-1930 L 1500,-1930 L 1500,-1570 Z" class="l68d20" /> <path d="M 39300,-1570 L 39300,-29650 L 39800,-29650 L 39800,-1570 Z" class="l68d20" /> <path d="M 40300,-26150 L 40300,-58430 L 40800,-58430 L 40800,-26150 Z" class="l68d20" /> <path d="M 40230,-25050 L 40230,-26150 L 40870,-26150 L 40870,-25050 Z" class="l68d20" /> <path d="M 40300,-3750 L 40300,-25050 L 40800,-25050 L 40800,-3750 Z" class="l68d20" /> <path d="M 40230,-2650 L 40230,-3750 L 40870,-3750 L 40870,-2650 Z" class="l68d20" /> <path d="M 930,-930 L 930,-1570 L 1570,-1570 L 1570,-930 Z" class="l68d20" /> <path d="M 39230,-930 L 39230,-1570 L 39870,-1570 L 39870,-930 Z" class="l68d20" /> <path d="M 40300,-570 L 40300,-2650 L 40800,-2650 L 40800,-570 Z" class="l68d20" /> <path d="M -70,70 L -70,-570 L 570,-570 L 570,70 Z" class="l68d20" /> <path d="M 40230,70 L 40230,-570 L 40870,-570 L 40870,70 Z" class="l68d20" /> <path d="M 21265,-52845 L 21265,-52995 L 21415,-52995 L 21415,-52845 Z" class="l68d44" /> <path d="M 21585,-52845 L 21585,-52995 L 21735,-52995 L 21735,-52845 Z" class="l68d44" /> <path d="M 21905,-52845 L 21905,-52995 L 22055,-52995 L 22055,-52845 Z" class="l68d44" /> <path d="M 22225,-52845 L 22225,-52995 L 22375,-52995 L 22375,-52845 Z" class="l68d44" /> <path d="M 21265,-52525 L 21265,-52675 L 21415,-52675 L 21415,-52525 Z" class="l68d44" /> <path d="M 21585,-52525 L 21585,-52675 L 21735,-52675 L 21735,-52525 Z" class="l68d44" /> <path d="M 21905,-52525 L 21905,-52675 L 22055,-52675 L 22055,-52525 Z" class="l68d44" /> <path d="M 22225,-52525 L 22225,-52675 L 22375,-52675 L 22375,-52525 Z" class="l68d44" /> <path d="M 21265,-52205 L 21265,-52355 L 21415,-52355 L 21415,-52205 Z" class="l68d44" /> <path d="M 21585,-52205 L 21585,-52355 L 21735,-52355 L 21735,-52205 Z" class="l68d44" /> <path d="M 21905,-52205 L 21905,-52355 L 22055,-52355 L 22055,-52205 Z" class="l68d44" /> <path d="M 22225,-52205 L 22225,-52355 L 22375,-52355 L 22375,-52205 Z" class="l68d44" /> <path d="M 21265,-35145 L 21265,-35295 L 21415,-35295 L 21415,-35145 Z" class="l68d44" /> <path d="M 21585,-35145 L 21585,-35295 L 21735,-35295 L 21735,-35145 Z" class="l68d44" /> <path d="M 21905,-35145 L 21905,-35295 L 22055,-35295 L 22055,-35145 Z" class="l68d44" /> <path d="M 22225,-35145 L 22225,-35295 L 22375,-35295 L 22375,-35145 Z" class="l68d44" /> <path d="M 21265,-34825 L 21265,-34975 L 21415,-34975 L 21415,-34825 Z" class="l68d44" /> <path d="M 21585,-34825 L 21585,-34975 L 21735,-34975 L 21735,-34825 Z" class="l68d44" /> <path d="M 21905,-34825 L 21905,-34975 L 22055,-34975 L 22055,-34825 Z" class="l68d44" /> <path d="M 22225,-34825 L 22225,-34975 L 22375,-34975 L 22375,-34825 Z" class="l68d44" /> <path d="M 21265,-34505 L 21265,-34655 L 21415,-34655 L 21415,-34505 Z" class="l68d44" /> <path d="M 21585,-34505 L 21585,-34655 L 21735,-34655 L 21735,-34505 Z" class="l68d44" /> <path d="M 21905,-34505 L 21905,-34655 L 22055,-34655 L 22055,-34505 Z" class="l68d44" /> <path d="M 22225,-34505 L 22225,-34655 L 22375,-34655 L 22375,-34505 Z" class="l68d44" /> <path d="M 27245,-33325 L 27245,-33475 L 27395,-33475 L 27395,-33325 Z" class="l68d44" /> <path d="M 33005,-33325 L 33005,-33475 L 33155,-33475 L 33155,-33325 Z" class="l68d44" /> <path d="M 35565,-31725 L 35565,-31875 L 35715,-31875 L 35715,-31725 Z" class="l68d44" /> <path d="M 35885,-31725 L 35885,-31875 L 36035,-31875 L 36035,-31725 Z" class="l68d44" /> <path d="M 36205,-31725 L 36205,-31875 L 36355,-31875 L 36355,-31725 Z" class="l68d44" /> <path d="M 4305,-52205 L 4305,-52355 L 4455,-52355 L 4455,-52205 Z" class="l68d44" /> <path d="M 4625,-52205 L 4625,-52355 L 4775,-52355 L 4775,-52205 Z" class="l68d44" /> <path d="M 4945,-52205 L 4945,-52355 L 5095,-52355 L 5095,-52205 Z" class="l68d44" /> <path d="M 3985,-52525 L 3985,-52675 L 4135,-52675 L 4135,-52525 Z" class="l68d44" /> <path d="M 4305,-52525 L 4305,-52675 L 4455,-52675 L 4455,-52525 Z" class="l68d44" /> <path d="M 4625,-52525 L 4625,-52675 L 4775,-52675 L 4775,-52525 Z" class="l68d44" /> <path d="M 4945,-52525 L 4945,-52675 L 5095,-52675 L 5095,-52525 Z" class="l68d44" /> <path d="M 3985,-52845 L 3985,-52995 L 4135,-52995 L 4135,-52845 Z" class="l68d44" /> <path d="M 4305,-52845 L 4305,-52995 L 4455,-52995 L 4455,-52845 Z" class="l68d44" /> <path d="M 4625,-52845 L 4625,-52995 L 4775,-52995 L 4775,-52845 Z" class="l68d44" /> <path d="M 4945,-52845 L 4945,-52995 L 5095,-52995 L 5095,-52845 Z" class="l68d44" /> <path d="M 3985,-52205 L 3985,-52355 L 4135,-52355 L 4135,-52205 Z" class="l68d44" /> <path d="M 3985,-17445 L 3985,-17595 L 4135,-17595 L 4135,-17445 Z" class="l68d44" /> <path d="M 4305,-17445 L 4305,-17595 L 4455,-17595 L 4455,-17445 Z" class="l68d44" /> <path d="M 4625,-17445 L 4625,-17595 L 4775,-17595 L 4775,-17445 Z" class="l68d44" /> <path d="M 4945,-17445 L 4945,-17595 L 5095,-17595 L 5095,-17445 Z" class="l68d44" /> <path d="M 3985,-17125 L 3985,-17275 L 4135,-17275 L 4135,-17125 Z" class="l68d44" /> <path d="M 4305,-17125 L 4305,-17275 L 4455,-17275 L 4455,-17125 Z" class="l68d44" /> <path d="M 4625,-17125 L 4625,-17275 L 4775,-17275 L 4775,-17125 Z" class="l68d44" /> <path d="M 4945,-17125 L 4945,-17275 L 5095,-17275 L 5095,-17125 Z" class="l68d44" /> <path d="M 3985,-16805 L 3985,-16955 L 4135,-16955 L 4135,-16805 Z" class="l68d44" /> <path d="M 4305,-16805 L 4305,-16955 L 4455,-16955 L 4455,-16805 Z" class="l68d44" /> <path d="M 4625,-16805 L 4625,-16955 L 4775,-16955 L 4775,-16805 Z" class="l68d44" /> <path d="M 4945,-16805 L 4945,-16955 L 5095,-16955 L 5095,-16805 Z" class="l68d44" /> <path d="M 35885,-20725 L 35885,-20875 L 36035,-20875 L 36035,-20725 Z" class="l68d44" /> <path d="M 36205,-20725 L 36205,-20875 L 36355,-20875 L 36355,-20725 Z" class="l68d44" /> <path d="M 27885,-19525 L 27885,-19675 L 28035,-19675 L 28035,-19525 Z" class="l68d44" /> <path d="M 28205,-19525 L 28205,-19675 L 28355,-19675 L 28355,-19525 Z" class="l68d44" /> <path d="M 28525,-19525 L 28525,-19675 L 28675,-19675 L 28675,-19525 Z" class="l68d44" /> <path d="M 33645,-19525 L 33645,-19675 L 33795,-19675 L 33795,-19525 Z" class="l68d44" /> <path d="M 33965,-19525 L 33965,-19675 L 34115,-19675 L 34115,-19525 Z" class="l68d44" /> <path d="M 34285,-19525 L 34285,-19675 L 34435,-19675 L 34435,-19525 Z" class="l68d44" /> <path d="M 27245,-18325 L 27245,-18475 L 27395,-18475 L 27395,-18325 Z" class="l68d44" /> <path d="M 33005,-18325 L 33005,-18475 L 33155,-18475 L 33155,-18325 Z" class="l68d44" /> <path d="M 27885,-23525 L 27885,-23675 L 28035,-23675 L 28035,-23525 Z" class="l68d44" /> <path d="M 28205,-23525 L 28205,-23675 L 28355,-23675 L 28355,-23525 Z" class="l68d44" /> <path d="M 28525,-23525 L 28525,-23675 L 28675,-23675 L 28675,-23525 Z" class="l68d44" /> <path d="M 33645,-23525 L 33645,-23675 L 33795,-23675 L 33795,-23525 Z" class="l68d44" /> <path d="M 21265,-17445 L 21265,-17595 L 21415,-17595 L 21415,-17445 Z" class="l68d44" /> <path d="M 21585,-17445 L 21585,-17595 L 21735,-17595 L 21735,-17445 Z" class="l68d44" /> <path d="M 21905,-17445 L 21905,-17595 L 22055,-17595 L 22055,-17445 Z" class="l68d44" /> <path d="M 22225,-17445 L 22225,-17595 L 22375,-17595 L 22375,-17445 Z" class="l68d44" /> <path d="M 33965,-23525 L 33965,-23675 L 34115,-23675 L 34115,-23525 Z" class="l68d44" /> <path d="M 34285,-23525 L 34285,-23675 L 34435,-23675 L 34435,-23525 Z" class="l68d44" /> <path d="M 27245,-22325 L 27245,-22475 L 27395,-22475 L 27395,-22325 Z" class="l68d44" /> <path d="M 33005,-22325 L 33005,-22475 L 33155,-22475 L 33155,-22325 Z" class="l68d44" /> <path d="M 21265,-17125 L 21265,-17275 L 21415,-17275 L 21415,-17125 Z" class="l68d44" /> <path d="M 21585,-17125 L 21585,-17275 L 21735,-17275 L 21735,-17125 Z" class="l68d44" /> <path d="M 21905,-17125 L 21905,-17275 L 22055,-17275 L 22055,-17125 Z" class="l68d44" /> <path d="M 22225,-17125 L 22225,-17275 L 22375,-17275 L 22375,-17125 Z" class="l68d44" /> <path d="M 29805,-20725 L 29805,-20875 L 29955,-20875 L 29955,-20725 Z" class="l68d44" /> <path d="M 30125,-20725 L 30125,-20875 L 30275,-20875 L 30275,-20725 Z" class="l68d44" /> <path d="M 30445,-20725 L 30445,-20875 L 30595,-20875 L 30595,-20725 Z" class="l68d44" /> <path d="M 35565,-20725 L 35565,-20875 L 35715,-20875 L 35715,-20725 Z" class="l68d44" /> <path d="M 21265,-16805 L 21265,-16955 L 21415,-16955 L 21415,-16805 Z" class="l68d44" /> <path d="M 21585,-16805 L 21585,-16955 L 21735,-16955 L 21735,-16805 Z" class="l68d44" /> <path d="M 21905,-16805 L 21905,-16955 L 22055,-16955 L 22055,-16805 Z" class="l68d44" /> <path d="M 22225,-16805 L 22225,-16955 L 22375,-16955 L 22375,-16805 Z" class="l68d44" /> <path d="M 29805,-16725 L 29805,-16875 L 29955,-16875 L 29955,-16725 Z" class="l68d44" /> <path d="M 30125,-16725 L 30125,-16875 L 30275,-16875 L 30275,-16725 Z" class="l68d44" /> <path d="M 30445,-16725 L 30445,-16875 L 30595,-16875 L 30595,-16725 Z" class="l68d44" /> <path d="M 35565,-16725 L 35565,-16875 L 35715,-16875 L 35715,-16725 Z" class="l68d44" /> <path d="M 35885,-16725 L 35885,-16875 L 36035,-16875 L 36035,-16725 Z" class="l68d44" /> <path d="M 36205,-16725 L 36205,-16875 L 36355,-16875 L 36355,-16725 Z" class="l68d44" /> <path d="M 27885,-15525 L 27885,-15675 L 28035,-15675 L 28035,-15525 Z" class="l68d44" /> <path d="M 28205,-15525 L 28205,-15675 L 28355,-15675 L 28355,-15525 Z" class="l68d44" /> <path d="M 28525,-15525 L 28525,-15675 L 28675,-15675 L 28675,-15525 Z" class="l68d44" /> <path d="M 33645,-15525 L 33645,-15675 L 33795,-15675 L 33795,-15525 Z" class="l68d44" /> <path d="M 33965,-15525 L 33965,-15675 L 34115,-15675 L 34115,-15525 Z" class="l68d44" /> <path d="M 34285,-15525 L 34285,-15675 L 34435,-15675 L 34435,-15525 Z" class="l68d44" /> <path d="M 27245,-14325 L 27245,-14475 L 27395,-14475 L 27395,-14325 Z" class="l68d44" /> <path d="M 33005,-14325 L 33005,-14475 L 33155,-14475 L 33155,-14325 Z" class="l68d44" /> <path d="M 29805,-12725 L 29805,-12875 L 29955,-12875 L 29955,-12725 Z" class="l68d44" /> <path d="M 30125,-12725 L 30125,-12875 L 30275,-12875 L 30275,-12725 Z" class="l68d44" /> <path d="M 30445,-12725 L 30445,-12875 L 30595,-12875 L 30595,-12725 Z" class="l68d44" /> <path d="M 35565,-12725 L 35565,-12875 L 35715,-12875 L 35715,-12725 Z" class="l68d44" /> <path d="M 35885,-12725 L 35885,-12875 L 36035,-12875 L 36035,-12725 Z" class="l68d44" /> <path d="M 36205,-12725 L 36205,-12875 L 36355,-12875 L 36355,-12725 Z" class="l68d44" /> <path d="M 27885,-11525 L 27885,-11675 L 28035,-11675 L 28035,-11525 Z" class="l68d44" /> <path d="M 28205,-11525 L 28205,-11675 L 28355,-11675 L 28355,-11525 Z" class="l68d44" /> <path d="M 28525,-11525 L 28525,-11675 L 28675,-11675 L 28675,-11525 Z" class="l68d44" /> <path d="M 33645,-11525 L 33645,-11675 L 33795,-11675 L 33795,-11525 Z" class="l68d44" /> <path d="M 33965,-11525 L 33965,-11675 L 34115,-11675 L 34115,-11525 Z" class="l68d44" /> <path d="M 34285,-11525 L 34285,-11675 L 34435,-11675 L 34435,-11525 Z" class="l68d44" /> <path d="M 27245,-10325 L 27245,-10475 L 27395,-10475 L 27395,-10325 Z" class="l68d44" /> <path d="M 33005,-10325 L 33005,-10475 L 33155,-10475 L 33155,-10325 Z" class="l68d44" /> <path d="M 29805,-8725 L 29805,-8875 L 29955,-8875 L 29955,-8725 Z" class="l68d44" /> <path d="M 30125,-8725 L 30125,-8875 L 30275,-8875 L 30275,-8725 Z" class="l68d44" /> <path d="M 30445,-8725 L 30445,-8875 L 30595,-8875 L 30595,-8725 Z" class="l68d44" /> <path d="M 35565,-8725 L 35565,-8875 L 35715,-8875 L 35715,-8725 Z" class="l68d44" /> <path d="M 35885,-8725 L 35885,-8875 L 36035,-8875 L 36035,-8725 Z" class="l68d44" /> <path d="M 36205,-8725 L 36205,-8875 L 36355,-8875 L 36355,-8725 Z" class="l68d44" /> <path d="M 27245,-6325 L 27245,-6475 L 27395,-6475 L 27395,-6325 Z" class="l68d44" /> <path d="M 33005,-6325 L 33005,-6475 L 33155,-6475 L 33155,-6325 Z" class="l68d44" /> <path d="M 35565,-4725 L 35565,-4875 L 35715,-4875 L 35715,-4725 Z" class="l68d44" /> <path d="M 35885,-4725 L 35885,-4875 L 36035,-4875 L 36035,-4725 Z" class="l68d44" /> <path d="M 36205,-4725 L 36205,-4875 L 36355,-4875 L 36355,-4725 Z" class="l68d44" /> <path d="M 21030,-52690 L 21030,-53270 L 22610,-53270 L 22610,-52690 Z" class="l69d20" /> <path d="M 19830,-52390 L 19830,-52690 L 22610,-52690 L 22610,-52390 Z" class="l69d20" /> <path d="M 21030,-51930 L 21030,-52390 L 22610,-52390 L 22610,-51930 Z" class="l69d20" /> <path d="M 4310,-36890 L 4310,-37190 L 22030,-37190 L 22030,-36890 Z" class="l69d20" /> <path d="M 21030,-34230 L 21030,-35570 L 22610,-35570 L 22610,-34230 Z" class="l69d20" /> <path d="M 21030,-16530 L 21030,-17870 L 22610,-17870 L 22610,-16530 Z" class="l69d20" /> <path d="M 21590,-37190 L 21590,-37260 L 22030,-37260 L 22030,-37190 Z" class="l69d20" /> <path d="M 27090,-33560 L 27090,-33670 L 27550,-33670 L 27550,-33560 Z" class="l69d20" /> <path d="M 32850,-33560 L 32850,-33670 L 33310,-33670 L 33310,-33560 Z" class="l69d20" /> <path d="M 27090,-33260 L 27090,-33560 L 33310,-33560 L 33310,-33260 Z" class="l69d20" /> <path d="M 27090,-33130 L 27090,-33260 L 27550,-33260 L 27550,-33130 Z" class="l69d20" /> <path d="M 32850,-33130 L 32850,-33260 L 33310,-33260 L 33310,-33130 Z" class="l69d20" /> <path d="M 35410,-31970 L 35410,-32070 L 36510,-32070 L 36510,-31970 Z" class="l69d20" /> <path d="M 37160,-31970 L 37160,-32040 L 37600,-32040 L 37600,-31970 Z" class="l69d20" /> <path d="M 35410,-31670 L 35410,-31970 L 37600,-31970 L 37600,-31670 Z" class="l69d20" /> <path d="M 35410,-31530 L 35410,-31670 L 36510,-31670 L 36510,-31530 Z" class="l69d20" /> <path d="M 37160,-31600 L 37160,-31670 L 37600,-31670 L 37600,-31600 Z" class="l69d20" /> <path d="M 21590,-36820 L 21590,-36890 L 22030,-36890 L 22030,-36820 Z" class="l69d20" /> <path d="M 19830,-52320 L 19830,-52390 L 20270,-52390 L 20270,-52320 Z" class="l69d20" /> <path d="M 4310,-36820 L 4310,-36890 L 4750,-36890 L 4750,-36820 Z" class="l69d20" /> <path d="M 3750,-51930 L 3750,-53270 L 5330,-53270 L 5330,-51930 Z" class="l69d20" /> <path d="M 4310,-37190 L 4310,-37260 L 4750,-37260 L 4750,-37190 Z" class="l69d20" /> <path d="M 19830,-52690 L 19830,-52760 L 20270,-52760 L 20270,-52690 Z" class="l69d20" /> <path d="M 19830,-17330 L 19830,-17400 L 20270,-17400 L 20270,-17330 Z" class="l69d20" /> <path d="M 3750,-17030 L 3750,-17330 L 20270,-17330 L 20270,-17030 Z" class="l69d20" /> <path d="M 3750,-16530 L 3750,-17030 L 5330,-17030 L 5330,-16530 Z" class="l69d20" /> <path d="M 19830,-16960 L 19830,-17030 L 20270,-17030 L 20270,-16960 Z" class="l69d20" /> <path d="M 3750,-17330 L 3750,-17870 L 5330,-17870 L 5330,-17330 Z" class="l69d20" /> <path d="M 24850,-23450 L 24850,-23750 L 38570,-23750 L 38570,-23450 Z" class="l69d20" /> <path d="M 29650,-20530 L 29650,-21070 L 30750,-21070 L 30750,-20530 Z" class="l69d20" /> <path d="M 25800,-18220 L 25800,-18520 L 33310,-18520 L 33310,-18220 Z" class="l69d20" /> <path d="M 29650,-16920 L 29650,-17070 L 30750,-17070 L 30750,-16920 Z" class="l69d20" /> <path d="M 29650,-16620 L 29650,-16920 L 36510,-16920 L 36510,-16620 Z" class="l69d20" /> <path d="M 29650,-16530 L 29650,-16620 L 30750,-16620 L 30750,-16530 Z" class="l69d20" /> <path d="M 25800,-14220 L 25800,-14520 L 33310,-14520 L 33310,-14220 Z" class="l69d20" /> <path d="M 29650,-12530 L 29650,-13070 L 30750,-13070 L 30750,-12530 Z" class="l69d20" /> <path d="M 29650,-8930 L 29650,-9070 L 30750,-9070 L 30750,-8930 Z" class="l69d20" /> <path d="M 29650,-8630 L 29650,-8930 L 36510,-8930 L 36510,-8630 Z" class="l69d20" /> <path d="M 29650,-8530 L 29650,-8630 L 30750,-8630 L 30750,-8530 Z" class="l69d20" /> <path d="M 21630,-6210 L 21630,-6510 L 33310,-6510 L 33310,-6210 Z" class="l69d20" /> <path d="M 33490,-19750 L 33490,-19870 L 34590,-19870 L 34590,-19750 Z" class="l69d20" /> <path d="M 38130,-19750 L 38130,-19820 L 38570,-19820 L 38570,-19750 Z" class="l69d20" /> <path d="M 33490,-19450 L 33490,-19750 L 38570,-19750 L 38570,-19450 Z" class="l69d20" /> <path d="M 33490,-19330 L 33490,-19450 L 34590,-19450 L 34590,-19330 Z" class="l69d20" /> <path d="M 38130,-19380 L 38130,-19450 L 38570,-19450 L 38570,-19380 Z" class="l69d20" /> <path d="M 31560,-18520 L 31560,-18590 L 32000,-18590 L 32000,-18520 Z" class="l69d20" /> <path d="M 32850,-18520 L 32850,-18670 L 33310,-18670 L 33310,-18520 Z" class="l69d20" /> <path d="M 33490,-23750 L 33490,-23870 L 34590,-23870 L 34590,-23750 Z" class="l69d20" /> <path d="M 31560,-18150 L 31560,-18220 L 32000,-18220 L 32000,-18150 Z" class="l69d20" /> <path d="M 32850,-18130 L 32850,-18220 L 33310,-18220 L 33310,-18130 Z" class="l69d20" /> <path d="M 32850,-25080 L 32850,-25150 L 33290,-25150 L 33290,-25080 Z" class="l69d20" /> <path d="M 35730,-25080 L 35730,-25150 L 36170,-25150 L 36170,-25080 Z" class="l69d20" /> <path d="M 32850,-24780 L 32850,-25080 L 36170,-25080 L 36170,-24780 Z" class="l69d20" /> <path d="M 32850,-24710 L 32850,-24780 L 33290,-24780 L 33290,-24710 Z" class="l69d20" /> <path d="M 35730,-24710 L 35730,-24780 L 36170,-24780 L 36170,-24710 Z" class="l69d20" /> <path d="M 33490,-23330 L 33490,-23450 L 34590,-23450 L 34590,-23330 Z" class="l69d20" /> <path d="M 35410,-16920 L 35410,-17070 L 36510,-17070 L 36510,-16920 Z" class="l69d20" /> <path d="M 38130,-23380 L 38130,-23450 L 38570,-23450 L 38570,-23380 Z" class="l69d20" /> <path d="M 31560,-22520 L 31560,-22590 L 32000,-22590 L 32000,-22520 Z" class="l69d20" /> <path d="M 32850,-22520 L 32850,-22670 L 33310,-22670 L 33310,-22520 Z" class="l69d20" /> <path d="M 31560,-22220 L 31560,-22520 L 33310,-22520 L 33310,-22220 Z" class="l69d20" /> <path d="M 31560,-22150 L 31560,-22220 L 32000,-22220 L 32000,-22150 Z" class="l69d20" /> <path d="M 32850,-22130 L 32850,-22220 L 33310,-22220 L 33310,-22130 Z" class="l69d20" /> <path d="M 38130,-23750 L 38130,-23820 L 38570,-23820 L 38570,-23750 Z" class="l69d20" /> <path d="M 35410,-20530 L 35410,-21070 L 36510,-21070 L 36510,-20530 Z" class="l69d20" /> <path d="M 24850,-19750 L 24850,-19820 L 25290,-19820 L 25290,-19750 Z" class="l69d20" /> <path d="M 27730,-19750 L 27730,-19870 L 28830,-19870 L 28830,-19750 Z" class="l69d20" /> <path d="M 24850,-19450 L 24850,-19750 L 28830,-19750 L 28830,-19450 Z" class="l69d20" /> <path d="M 24850,-19380 L 24850,-19450 L 25290,-19450 L 25290,-19380 Z" class="l69d20" /> <path d="M 27730,-19330 L 27730,-19450 L 28830,-19450 L 28830,-19330 Z" class="l69d20" /> <path d="M 27090,-22130 L 27090,-22220 L 27550,-22220 L 27550,-22130 Z" class="l69d20" /> <path d="M 27730,-23330 L 27730,-23450 L 28830,-23450 L 28830,-23330 Z" class="l69d20" /> <path d="M 24850,-23750 L 24850,-23820 L 25290,-23820 L 25290,-23750 Z" class="l69d20" /> <path d="M 27730,-23750 L 27730,-23870 L 28830,-23870 L 28830,-23750 Z" class="l69d20" /> <path d="M 24850,-23380 L 24850,-23450 L 25290,-23450 L 25290,-23380 Z" class="l69d20" /> <path d="M 25800,-22520 L 25800,-22590 L 26240,-22590 L 26240,-22520 Z" class="l69d20" /> <path d="M 25800,-18520 L 25800,-18590 L 26240,-18590 L 26240,-18520 Z" class="l69d20" /> <path d="M 27090,-18520 L 27090,-18670 L 27550,-18670 L 27550,-18520 Z" class="l69d20" /> <path d="M 27090,-22520 L 27090,-22670 L 27550,-22670 L 27550,-22520 Z" class="l69d20" /> <path d="M 25800,-22220 L 25800,-22520 L 27550,-22520 L 27550,-22220 Z" class="l69d20" /> <path d="M 25800,-22150 L 25800,-22220 L 26240,-22220 L 26240,-22150 Z" class="l69d20" /> <path d="M 25800,-18150 L 25800,-18220 L 26240,-18220 L 26240,-18150 Z" class="l69d20" /> <path d="M 27090,-18130 L 27090,-18220 L 27550,-18220 L 27550,-18130 Z" class="l69d20" /> <path d="M 27090,-14520 L 27090,-14670 L 27550,-14670 L 27550,-14520 Z" class="l69d20" /> <path d="M 24850,-15750 L 24850,-15820 L 25290,-15820 L 25290,-15750 Z" class="l69d20" /> <path d="M 25800,-14150 L 25800,-14220 L 26240,-14220 L 26240,-14150 Z" class="l69d20" /> <path d="M 27090,-14130 L 27090,-14220 L 27550,-14220 L 27550,-14130 Z" class="l69d20" /> <path d="M 27730,-15750 L 27730,-15870 L 28830,-15870 L 28830,-15750 Z" class="l69d20" /> <path d="M 24850,-11750 L 24850,-11820 L 25290,-11820 L 25290,-11750 Z" class="l69d20" /> <path d="M 27730,-11750 L 27730,-11870 L 28830,-11870 L 28830,-11750 Z" class="l69d20" /> <path d="M 24850,-11450 L 24850,-11750 L 28830,-11750 L 28830,-11450 Z" class="l69d20" /> <path d="M 24850,-11380 L 24850,-11450 L 25290,-11450 L 25290,-11380 Z" class="l69d20" /> <path d="M 27730,-11330 L 27730,-11450 L 28830,-11450 L 28830,-11330 Z" class="l69d20" /> <path d="M 25800,-10520 L 25800,-10590 L 26240,-10590 L 26240,-10520 Z" class="l69d20" /> <path d="M 27090,-10520 L 27090,-10670 L 27550,-10670 L 27550,-10520 Z" class="l69d20" /> <path d="M 25800,-10220 L 25800,-10520 L 27550,-10520 L 27550,-10220 Z" class="l69d20" /> <path d="M 25800,-10150 L 25800,-10220 L 26240,-10220 L 26240,-10150 Z" class="l69d20" /> <path d="M 27090,-10130 L 27090,-10220 L 27550,-10220 L 27550,-10130 Z" class="l69d20" /> <path d="M 24850,-15450 L 24850,-15750 L 28830,-15750 L 28830,-15450 Z" class="l69d20" /> <path d="M 24850,-15380 L 24850,-15450 L 25290,-15450 L 25290,-15380 Z" class="l69d20" /> <path d="M 27730,-15330 L 27730,-15450 L 28830,-15450 L 28830,-15330 Z" class="l69d20" /> <path d="M 21630,-6510 L 21630,-6580 L 22070,-6580 L 22070,-6510 Z" class="l69d20" /> <path d="M 27090,-6510 L 27090,-6670 L 27550,-6670 L 27550,-6510 Z" class="l69d20" /> <path d="M 25800,-14520 L 25800,-14590 L 26240,-14590 L 26240,-14520 Z" class="l69d20" /> <path d="M 21630,-6140 L 21630,-6210 L 22070,-6210 L 22070,-6140 Z" class="l69d20" /> <path d="M 27090,-6130 L 27090,-6210 L 27550,-6210 L 27550,-6130 Z" class="l69d20" /> <path d="M 32850,-14520 L 32850,-14670 L 33310,-14670 L 33310,-14520 Z" class="l69d20" /> <path d="M 38130,-15750 L 38130,-15820 L 38570,-15820 L 38570,-15750 Z" class="l69d20" /> <path d="M 33490,-11750 L 33490,-11870 L 34590,-11870 L 34590,-11750 Z" class="l69d20" /> <path d="M 38130,-11750 L 38130,-11820 L 38570,-11820 L 38570,-11750 Z" class="l69d20" /> <path d="M 33490,-11450 L 33490,-11750 L 38570,-11750 L 38570,-11450 Z" class="l69d20" /> <path d="M 33490,-11330 L 33490,-11450 L 34590,-11450 L 34590,-11330 Z" class="l69d20" /> <path d="M 38130,-11380 L 38130,-11450 L 38570,-11450 L 38570,-11380 Z" class="l69d20" /> <path d="M 33490,-15450 L 33490,-15750 L 38570,-15750 L 38570,-15450 Z" class="l69d20" /> <path d="M 33490,-15330 L 33490,-15450 L 34590,-15450 L 34590,-15330 Z" class="l69d20" /> <path d="M 31560,-14150 L 31560,-14220 L 32000,-14220 L 32000,-14150 Z" class="l69d20" /> <path d="M 32850,-14130 L 32850,-14220 L 33310,-14220 L 33310,-14130 Z" class="l69d20" /> <path d="M 38130,-15380 L 38130,-15450 L 38570,-15450 L 38570,-15380 Z" class="l69d20" /> <path d="M 31560,-10520 L 31560,-10590 L 32000,-10590 L 32000,-10520 Z" class="l69d20" /> <path d="M 32850,-10520 L 32850,-10670 L 33310,-10670 L 33310,-10520 Z" class="l69d20" /> <path d="M 31560,-10220 L 31560,-10520 L 33310,-10520 L 33310,-10220 Z" class="l69d20" /> <path d="M 31560,-10150 L 31560,-10220 L 32000,-10220 L 32000,-10150 Z" class="l69d20" /> <path d="M 32850,-10130 L 32850,-10220 L 33310,-10220 L 33310,-10130 Z" class="l69d20" /> <path d="M 35410,-12930 L 35410,-13070 L 36510,-13070 L 36510,-12930 Z" class="l69d20" /> <path d="M 35410,-8930 L 35410,-9070 L 36510,-9070 L 36510,-8930 Z" class="l69d20" /> <path d="M 37160,-12930 L 37160,-13000 L 37600,-13000 L 37600,-12930 Z" class="l69d20" /> <path d="M 35410,-12630 L 35410,-12930 L 37600,-12930 L 37600,-12630 Z" class="l69d20" /> <path d="M 35410,-8530 L 35410,-8630 L 36510,-8630 L 36510,-8530 Z" class="l69d20" /> <path d="M 35410,-12530 L 35410,-12630 L 36510,-12630 L 36510,-12530 Z" class="l69d20" /> <path d="M 37160,-12560 L 37160,-12630 L 37600,-12630 L 37600,-12560 Z" class="l69d20" /> <path d="M 32850,-6510 L 32850,-6670 L 33310,-6670 L 33310,-6510 Z" class="l69d20" /> <path d="M 35410,-16530 L 35410,-16620 L 36510,-16620 L 36510,-16530 Z" class="l69d20" /> <path d="M 33490,-15750 L 33490,-15870 L 34590,-15870 L 34590,-15750 Z" class="l69d20" /> <path d="M 31560,-14520 L 31560,-14590 L 32000,-14590 L 32000,-14520 Z" class="l69d20" /> <path d="M 32850,-6130 L 32850,-6210 L 33310,-6210 L 33310,-6130 Z" class="l69d20" /> <path d="M 35410,-4870 L 35410,-5070 L 36510,-5070 L 36510,-4870 Z" class="l69d20" /> <path d="M 38130,-4870 L 38130,-4940 L 38570,-4940 L 38570,-4870 Z" class="l69d20" /> <path d="M 35410,-4570 L 35410,-4870 L 38570,-4870 L 38570,-4570 Z" class="l69d20" /> <path d="M 35410,-4530 L 35410,-4570 L 36510,-4570 L 36510,-4530 Z" class="l69d20" /> <path d="M 38130,-4500 L 38130,-4570 L 38570,-4570 L 38570,-4500 Z" class="l69d20" /> <path d="M 4040,-52900 L 4040,-53100 L 4240,-53100 L 4240,-52900 Z" class="l69d44" /> <path d="M 4440,-52900 L 4440,-53100 L 4640,-53100 L 4640,-52900 Z" class="l69d44" /> <path d="M 4840,-52900 L 4840,-53100 L 5040,-53100 L 5040,-52900 Z" class="l69d44" /> <path d="M 4040,-52500 L 4040,-52700 L 4240,-52700 L 4240,-52500 Z" class="l69d44" /> <path d="M 4440,-52500 L 4440,-52700 L 4640,-52700 L 4640,-52500 Z" class="l69d44" /> <path d="M 4840,-52500 L 4840,-52700 L 5040,-52700 L 5040,-52500 Z" class="l69d44" /> <path d="M 19950,-52440 L 19950,-52640 L 20150,-52640 L 20150,-52440 Z" class="l69d44" /> <path d="M 4040,-52100 L 4040,-52300 L 4240,-52300 L 4240,-52100 Z" class="l69d44" /> <path d="M 4440,-52100 L 4440,-52300 L 4640,-52300 L 4640,-52100 Z" class="l69d44" /> <path d="M 4840,-52100 L 4840,-52300 L 5040,-52300 L 5040,-52100 Z" class="l69d44" /> <path d="M 4430,-36940 L 4430,-37140 L 4630,-37140 L 4630,-36940 Z" class="l69d44" /> <path d="M 21710,-36940 L 21710,-37140 L 21910,-37140 L 21910,-36940 Z" class="l69d44" /> <path d="M 21320,-35200 L 21320,-35400 L 21520,-35400 L 21520,-35200 Z" class="l69d44" /> <path d="M 21720,-35200 L 21720,-35400 L 21920,-35400 L 21920,-35200 Z" class="l69d44" /> <path d="M 22120,-35200 L 22120,-35400 L 22320,-35400 L 22320,-35200 Z" class="l69d44" /> <path d="M 21320,-34800 L 21320,-35000 L 21520,-35000 L 21520,-34800 Z" class="l69d44" /> <path d="M 21720,-34800 L 21720,-35000 L 21920,-35000 L 21920,-34800 Z" class="l69d44" /> <path d="M 22120,-34800 L 22120,-35000 L 22320,-35000 L 22320,-34800 Z" class="l69d44" /> <path d="M 21320,-34400 L 21320,-34600 L 21520,-34600 L 21520,-34400 Z" class="l69d44" /> <path d="M 21720,-34400 L 21720,-34600 L 21920,-34600 L 21920,-34400 Z" class="l69d44" /> <path d="M 22120,-34400 L 22120,-34600 L 22320,-34600 L 22320,-34400 Z" class="l69d44" /> <path d="M 32980,-33300 L 32980,-33500 L 33180,-33500 L 33180,-33300 Z" class="l69d44" /> <path d="M 37280,-31720 L 37280,-31920 L 37480,-31920 L 37480,-31720 Z" class="l69d44" /> <path d="M 32970,-24830 L 32970,-25030 L 33170,-25030 L 33170,-24830 Z" class="l69d44" /> <path d="M 35850,-24830 L 35850,-25030 L 36050,-25030 L 36050,-24830 Z" class="l69d44" /> <path d="M 24970,-23500 L 24970,-23700 L 25170,-23700 L 25170,-23500 Z" class="l69d44" /> <path d="M 38250,-23500 L 38250,-23700 L 38450,-23700 L 38450,-23500 Z" class="l69d44" /> <path d="M 25920,-22270 L 25920,-22470 L 26120,-22470 L 26120,-22270 Z" class="l69d44" /> <path d="M 31680,-22270 L 31680,-22470 L 31880,-22470 L 31880,-22270 Z" class="l69d44" /> <path d="M 29900,-20700 L 29900,-20900 L 30100,-20900 L 30100,-20700 Z" class="l69d44" /> <path d="M 30300,-20700 L 30300,-20900 L 30500,-20900 L 30500,-20700 Z" class="l69d44" /> <path d="M 35660,-20700 L 35660,-20900 L 35860,-20900 L 35860,-20700 Z" class="l69d44" /> <path d="M 36060,-20700 L 36060,-20900 L 36260,-20900 L 36260,-20700 Z" class="l69d44" /> <path d="M 24970,-19500 L 24970,-19700 L 25170,-19700 L 25170,-19500 Z" class="l69d44" /> <path d="M 38250,-19500 L 38250,-19700 L 38450,-19700 L 38450,-19500 Z" class="l69d44" /> <path d="M 25920,-18270 L 25920,-18470 L 26120,-18470 L 26120,-18270 Z" class="l69d44" /> <path d="M 31680,-18270 L 31680,-18470 L 31880,-18470 L 31880,-18270 Z" class="l69d44" /> <path d="M 21320,-17500 L 21320,-17700 L 21520,-17700 L 21520,-17500 Z" class="l69d44" /> <path d="M 21720,-17500 L 21720,-17700 L 21920,-17700 L 21920,-17500 Z" class="l69d44" /> <path d="M 22120,-17500 L 22120,-17700 L 22320,-17700 L 22320,-17500 Z" class="l69d44" /> <path d="M 19950,-17080 L 19950,-17280 L 20150,-17280 L 20150,-17080 Z" class="l69d44" /> <path d="M 21320,-17100 L 21320,-17300 L 21520,-17300 L 21520,-17100 Z" class="l69d44" /> <path d="M 21720,-17100 L 21720,-17300 L 21920,-17300 L 21920,-17100 Z" class="l69d44" /> <path d="M 22120,-17100 L 22120,-17300 L 22320,-17300 L 22320,-17100 Z" class="l69d44" /> <path d="M 21320,-16700 L 21320,-16900 L 21520,-16900 L 21520,-16700 Z" class="l69d44" /> <path d="M 21720,-16700 L 21720,-16900 L 21920,-16900 L 21920,-16700 Z" class="l69d44" /> <path d="M 22120,-16700 L 22120,-16900 L 22320,-16900 L 22320,-16700 Z" class="l69d44" /> <path d="M 29900,-16700 L 29900,-16900 L 30100,-16900 L 30100,-16700 Z" class="l69d44" /> <path d="M 30300,-16700 L 30300,-16900 L 30500,-16900 L 30500,-16700 Z" class="l69d44" /> <path d="M 35660,-16700 L 35660,-16900 L 35860,-16900 L 35860,-16700 Z" class="l69d44" /> <path d="M 36060,-16700 L 36060,-16900 L 36260,-16900 L 36260,-16700 Z" class="l69d44" /> <path d="M 24970,-15500 L 24970,-15700 L 25170,-15700 L 25170,-15500 Z" class="l69d44" /> <path d="M 38250,-15500 L 38250,-15700 L 38450,-15700 L 38450,-15500 Z" class="l69d44" /> <path d="M 25920,-14270 L 25920,-14470 L 26120,-14470 L 26120,-14270 Z" class="l69d44" /> <path d="M 31680,-14270 L 31680,-14470 L 31880,-14470 L 31880,-14270 Z" class="l69d44" /> <path d="M 29900,-12700 L 29900,-12900 L 30100,-12900 L 30100,-12700 Z" class="l69d44" /> <path d="M 30300,-12700 L 30300,-12900 L 30500,-12900 L 30500,-12700 Z" class="l69d44" /> <path d="M 35660,-12700 L 35660,-12900 L 35860,-12900 L 35860,-12700 Z" class="l69d44" /> <path d="M 36060,-12700 L 36060,-12900 L 36260,-12900 L 36260,-12700 Z" class="l69d44" /> <path d="M 37280,-12680 L 37280,-12880 L 37480,-12880 L 37480,-12680 Z" class="l69d44" /> <path d="M 24970,-11500 L 24970,-11700 L 25170,-11700 L 25170,-11500 Z" class="l69d44" /> <path d="M 38250,-11500 L 38250,-11700 L 38450,-11700 L 38450,-11500 Z" class="l69d44" /> <path d="M 25920,-10270 L 25920,-10470 L 26120,-10470 L 26120,-10270 Z" class="l69d44" /> <path d="M 31680,-10270 L 31680,-10470 L 31880,-10470 L 31880,-10270 Z" class="l69d44" /> <path d="M 29900,-8700 L 29900,-8900 L 30100,-8900 L 30100,-8700 Z" class="l69d44" /> <path d="M 30300,-8700 L 30300,-8900 L 30500,-8900 L 30500,-8700 Z" class="l69d44" /> <path d="M 35660,-8700 L 35660,-8900 L 35860,-8900 L 35860,-8700 Z" class="l69d44" /> <path d="M 36060,-8700 L 36060,-8900 L 36260,-8900 L 36260,-8700 Z" class="l69d44" /> <path d="M 21750,-6260 L 21750,-6460 L 21950,-6460 L 21950,-6260 Z" class="l69d44" /> <path d="M 38250,-4620 L 38250,-4820 L 38450,-4820 L 38450,-4620 Z" class="l69d44" /> <path d="M 3750,-51930 L 3750,-53270 L 5330,-53270 L 5330,-51930 Z" class="l70d20" /> <path d="M 19830,-52320 L 19830,-52760 L 20270,-52760 L 20270,-52320 Z" class="l70d20" /> <path d="M 4380,-37260 L 4380,-51930 L 4680,-51930 L 4680,-37260 Z" class="l70d20" /> <path d="M 4310,-36820 L 4310,-37260 L 4750,-37260 L 4750,-36820 Z" class="l70d20" /> <path d="M 19900,-17400 L 19900,-52320 L 20200,-52320 L 20200,-17400 Z" class="l70d20" /> <path d="M 21590,-36820 L 21590,-37260 L 22030,-37260 L 22030,-36820 Z" class="l70d20" /> <path d="M 21660,-35570 L 21660,-36820 L 21960,-36820 L 21960,-35570 Z" class="l70d20" /> <path d="M 21030,-34230 L 21030,-35570 L 22610,-35570 L 22610,-34230 Z" class="l70d20" /> <path d="M 32850,-33130 L 32850,-33670 L 33310,-33670 L 33310,-33130 Z" class="l70d20" /> <path d="M 32920,-25150 L 32920,-33130 L 33220,-33130 L 33220,-25150 Z" class="l70d20" /> <path d="M 37160,-31600 L 37160,-32040 L 37600,-32040 L 37600,-31600 Z" class="l70d20" /> <path d="M 32850,-24710 L 32850,-25150 L 33290,-25150 L 33290,-24710 Z" class="l70d20" /> <path d="M 35730,-24710 L 35730,-25150 L 36170,-25150 L 36170,-24710 Z" class="l70d20" /> <path d="M 24850,-23380 L 24850,-23820 L 25290,-23820 L 25290,-23380 Z" class="l70d20" /> <path d="M 24920,-19820 L 24920,-23380 L 25220,-23380 L 25220,-19820 Z" class="l70d20" /> <path d="M 25800,-22150 L 25800,-22590 L 26240,-22590 L 26240,-22150 Z" class="l70d20" /> <path d="M 31560,-22150 L 31560,-22590 L 32000,-22590 L 32000,-22150 Z" class="l70d20" /> <path d="M 24850,-19380 L 24850,-19820 L 25290,-19820 L 25290,-19380 Z" class="l70d20" /> <path d="M 19830,-16960 L 19830,-17400 L 20270,-17400 L 20270,-16960 Z" class="l70d20" /> <path d="M 21030,-16530 L 21030,-17870 L 22610,-17870 L 22610,-16530 Z" class="l70d20" /> <path d="M 21700,-6580 L 21700,-16530 L 22000,-16530 L 22000,-6580 Z" class="l70d20" /> <path d="M 24920,-15820 L 24920,-19380 L 25220,-19380 L 25220,-15820 Z" class="l70d20" /> <path d="M 25870,-18590 L 25870,-22150 L 26170,-22150 L 26170,-18590 Z" class="l70d20" /> <path d="M 29650,-20530 L 29650,-21070 L 30750,-21070 L 30750,-20530 Z" class="l70d20" /> <path d="M 25800,-18150 L 25800,-18590 L 26240,-18590 L 26240,-18150 Z" class="l70d20" /> <path d="M 30040,-17070 L 30040,-20530 L 30340,-20530 L 30340,-17070 Z" class="l70d20" /> <path d="M 31630,-18590 L 31630,-22150 L 31930,-22150 L 31930,-18590 Z" class="l70d20" /> <path d="M 35800,-21070 L 35800,-24710 L 36100,-24710 L 36100,-21070 Z" class="l70d20" /> <path d="M 35410,-20530 L 35410,-21070 L 36510,-21070 L 36510,-20530 Z" class="l70d20" /> <path d="M 31560,-18150 L 31560,-18590 L 32000,-18590 L 32000,-18150 Z" class="l70d20" /> <path d="M 35800,-17070 L 35800,-20530 L 36100,-20530 L 36100,-17070 Z" class="l70d20" /> <path d="M 29650,-16530 L 29650,-17070 L 30750,-17070 L 30750,-16530 Z" class="l70d20" /> <path d="M 35410,-16530 L 35410,-17070 L 36510,-17070 L 36510,-16530 Z" class="l70d20" /> <path d="M 24850,-15380 L 24850,-15820 L 25290,-15820 L 25290,-15380 Z" class="l70d20" /> <path d="M 24920,-11820 L 24920,-15380 L 25220,-15380 L 25220,-11820 Z" class="l70d20" /> <path d="M 25800,-14150 L 25800,-14590 L 26240,-14590 L 26240,-14150 Z" class="l70d20" /> <path d="M 31560,-14150 L 31560,-14590 L 32000,-14590 L 32000,-14150 Z" class="l70d20" /> <path d="M 24850,-11380 L 24850,-11820 L 25290,-11820 L 25290,-11380 Z" class="l70d20" /> <path d="M 25870,-10590 L 25870,-14150 L 26170,-14150 L 26170,-10590 Z" class="l70d20" /> <path d="M 29650,-12530 L 29650,-13070 L 30750,-13070 L 30750,-12530 Z" class="l70d20" /> <path d="M 25800,-10150 L 25800,-10590 L 26240,-10590 L 26240,-10150 Z" class="l70d20" /> <path d="M 30030,-9070 L 30030,-12530 L 30330,-12530 L 30330,-9070 Z" class="l70d20" /> <path d="M 31630,-10590 L 31630,-14150 L 31930,-14150 L 31930,-10590 Z" class="l70d20" /> <path d="M 35410,-12530 L 35410,-13070 L 36510,-13070 L 36510,-12530 Z" class="l70d20" /> <path d="M 37230,-13000 L 37230,-31600 L 37530,-31600 L 37530,-13000 Z" class="l70d20" /> <path d="M 38130,-23380 L 38130,-23820 L 38570,-23820 L 38570,-23380 Z" class="l70d20" /> <path d="M 38200,-19820 L 38200,-23380 L 38500,-23380 L 38500,-19820 Z" class="l70d20" /> <path d="M 38130,-19380 L 38130,-19820 L 38570,-19820 L 38570,-19380 Z" class="l70d20" /> <path d="M 38200,-15820 L 38200,-19380 L 38500,-19380 L 38500,-15820 Z" class="l70d20" /> <path d="M 38130,-15380 L 38130,-15820 L 38570,-15820 L 38570,-15380 Z" class="l70d20" /> <path d="M 37160,-12560 L 37160,-13000 L 37600,-13000 L 37600,-12560 Z" class="l70d20" /> <path d="M 31560,-10150 L 31560,-10590 L 32000,-10590 L 32000,-10150 Z" class="l70d20" /> <path d="M 35790,-9070 L 35790,-12530 L 36090,-12530 L 36090,-9070 Z" class="l70d20" /> <path d="M 38200,-11820 L 38200,-15380 L 38500,-15380 L 38500,-11820 Z" class="l70d20" /> <path d="M 38130,-11380 L 38130,-11820 L 38570,-11820 L 38570,-11380 Z" class="l70d20" /> <path d="M 29650,-8530 L 29650,-9070 L 30750,-9070 L 30750,-8530 Z" class="l70d20" /> <path d="M 35410,-8530 L 35410,-9070 L 36510,-9070 L 36510,-8530 Z" class="l70d20" /> <path d="M 21630,-6140 L 21630,-6580 L 22070,-6580 L 22070,-6140 Z" class="l70d20" /> <path d="M 38200,-4940 L 38200,-11380 L 38500,-11380 L 38500,-4940 Z" class="l70d20" /> <path d="M 38130,-4500 L 38130,-4940 L 38570,-4940 L 38570,-4500 Z" class="l70d20" /> <path d="M 31630,-22220 L 31630,-22520 L 33060,-22520 L 33060,-22220 Z" class="l69d16" /> <path d="M 25870,-10220 L 25870,-10520 L 27300,-10520 L 27300,-10220 Z" class="l69d16" /> <path d="M 35940,-31670 L 35940,-31970 L 37530,-31970 L 37530,-31670 Z" class="l69d16" /> <rect x="1875" y="-19325" width="22610" height="17450" class="l999d0" /> <text x="13180.0" y="-10600.0" class="l998t0" text-anchor="middle" alignment-baseline="middle">bs1_RH1</text> <rect x="1875" y="-54725" width="22610" height="17450" class="l999d0" /> <text x="13180.0" y="-46000.0" class="l998t0" text-anchor="middle" alignment-baseline="middle">bs1_RH2</text> <rect x="1875" y="-37025" width="22610" height="17450" class="l999d0" /> <text x="13180.0" y="-28300.0" class="l998t0" text-anchor="middle" alignment-baseline="middle">bs1_RH3</text> <rect x="25755" y="-31725" width="6970" height="2725" class="l999d0" /> <text x="29240.0" y="-30362.5" class="l998t0" text-anchor="middle" alignment-baseline="middle">mr2_MN1_TAPBOT</text> <rect x="31515" y="-31725" width="6970" height="2725" class="l999d0" /> <text x="35000.0" y="-30362.5" class="l998t0" text-anchor="middle" alignment-baseline="middle">mr2_MN2_TAPBOT</text> <rect x="25755" y="-37800" width="6970" height="2725" class="l999d0" /> <text x="29240.0" y="-36437.5" class="l998t0" text-anchor="middle" alignment-baseline="middle">mr2_MN1_TAPTOP</text> <rect x="31515" y="-37800" width="6970" height="2725" class="l999d0" /> <text x="35000.0" y="-36437.5" class="l998t0" text-anchor="middle" alignment-baseline="middle">mr2_MN2_TAPTOP</text> <rect x="25755" y="-35725" width="6970" height="4650" class="l999d0" /> <text x="29240.0" y="-33400.0" class="l998t0" text-anchor="middle" alignment-baseline="middle">mr2_MN1</text> <rect x="31515" y="-35725" width="6970" height="4650" class="l999d0" /> <text x="35000.0" y="-33400.0" class="l998t0" text-anchor="middle" alignment-baseline="middle">mr2_MN2</text> <rect x="31200" y="-5040" width="7600" height="3680" class="l999d0" /> <text x="35000.0" y="-3200.0" class="l998t0" text-anchor="middle" alignment-baseline="middle">mr1_MP2_TAPBOT</text> <rect x="25440" y="-5040" width="7600" height="3680" class="l999d0" /> <text x="29240.0" y="-3200.0" class="l998t0" text-anchor="middle" alignment-baseline="middle">mr1_MP1_TAPBOT</text> <rect x="25440" y="-25040" width="7600" height="5280" class="l999d0" /> <text x="29240.0" y="-22400.0" class="l998t0" text-anchor="middle" alignment-baseline="middle">df1_MP3&lt;3&gt;</text> <rect x="31200" y="-25040" width="7600" height="5280" class="l999d0" /> <text x="35000.0" y="-22400.0" class="l998t0" text-anchor="middle" alignment-baseline="middle">df1_MP3&lt;2&gt;</text> <rect x="25440" y="-21040" width="7600" height="5280" class="l999d0" /> <text x="29240.0" y="-18400.0" class="l998t0" text-anchor="middle" alignment-baseline="middle">df1_MP3&lt;1&gt;</text> <rect x="31200" y="-21040" width="7600" height="5280" class="l999d0" /> <text x="35000.0" y="-18400.0" class="l998t0" text-anchor="middle" alignment-baseline="middle">df1_MP3&lt;0&gt;</text> <rect x="31200" y="-13040" width="7600" height="5280" class="l999d0" /> <text x="35000.0" y="-10400.0" class="l998t0" text-anchor="middle" alignment-baseline="middle">df1_MP4&lt;3&gt;</text> <rect x="25440" y="-13040" width="7600" height="5280" class="l999d0" /> <text x="29240.0" y="-10400.0" class="l998t0" text-anchor="middle" alignment-baseline="middle">df1_MP4&lt;2&gt;</text> <rect x="25440" y="-17040" width="7600" height="5280" class="l999d0" /> <text x="29240.0" y="-14400.0" class="l998t0" text-anchor="middle" alignment-baseline="middle">df1_MP4&lt;1&gt;</text> <rect x="31200" y="-17040" width="7600" height="5280" class="l999d0" /> <text x="35000.0" y="-14400.0" class="l998t0" text-anchor="middle" alignment-baseline="middle">df1_MP4&lt;0&gt;</text> <rect x="31200" y="-9040" width="7600" height="5280" class="l999d0" /> <text x="35000.0" y="-6400.0" class="l998t0" text-anchor="middle" alignment-baseline="middle">mr1_MP2</text> <rect x="25440" y="-9040" width="7600" height="5280" class="l999d0" /> <text x="29240.0" y="-6400.0" class="l998t0" text-anchor="middle" alignment-baseline="middle">mr1_MP1</text> <rect x="25440" y="-27440" width="7600" height="3680" class="l999d0" /> <text x="29240.0" y="-25600.0" class="l998t0" text-anchor="middle" alignment-baseline="middle">df1_MP3&lt;3&gt;_TAPTOP</text> <rect x="31200" y="-27440" width="7600" height="3680" class="l999d0" /> <text x="35000.0" y="-25600.0" class="l998t0" text-anchor="middle" alignment-baseline="middle">df1_MP3&lt;2&gt;_TAPTOP</text> <text x="20400" y="-58510" class="l997t0" text-anchor="middle" alignment-baseline="central">VDD</text> <text x="20400" y="-57510" class="l997t0" text-anchor="middle" alignment-baseline="central">VSS</text> <text x="32345" y="-22130" class="l997t0" text-anchor="middle" alignment-baseline="central">IN+</text> <text x="26585" y="-10130" class="l997t0" text-anchor="middle" alignment-baseline="central">IN-</text> <text x="36735" y="-31580" class="l997t0" text-anchor="middle" alignment-baseline="central">OUT</text> <text x="1130" y="1585.0" font-size="1500" fill="black" alignment-baseline="middle">Locali</text> <rect x="-70" y="970" width="600" height="600" fill="#56423e" stroke="black" stroke-width="2" /> <text x="8530" y="1585.0" font-size="1500" fill="black" alignment-baseline="middle">M1</text> <rect x="7330" y="970" width="600" height="600" fill="#bea6a1" stroke="black" stroke-width="2" /> <text x="15930" y="1585.0" font-size="1500" fill="black" alignment-baseline="middle">M2</text> <rect x="14730" y="970" width="600" height="600" fill="#d62728" stroke="black" stroke-width="2" /> <text x="23330" y="1585.0" font-size="1500" fill="black" alignment-baseline="middle">M3</text> <rect x="22130" y="970" width="600" height="600" fill="#1f77b4" stroke="black" stroke-width="2" /> <text x="30730" y="1585.0" font-size="1500" fill="black" alignment-baseline="middle">Viali</text> <rect x="29530" y="970" width="600" height="600" fill="#e09a8e" stroke="black" stroke-width="2" /> <text x="38130" y="1585.0" font-size="1500" fill="black" alignment-baseline="middle">Via1</text> <rect x="36930" y="970" width="600" height="600" fill="#e39024" stroke="black" stroke-width="2" /> <text x="45530" y="1585.0" font-size="1500" fill="black" alignment-baseline="middle">Via2</text> <rect x="44330" y="970" width="600" height="600" fill="#70b512" stroke="black" stroke-width="2" /> <line x1="-70" y1="-59940" x2="40870" y2="-59940" stroke="black" stroke-width="90" marker-start="url(#arrowhead_reversed)" marker-end="url(#arrowhead)" /> <text x="20400.0" y="-60340" font-size="1500" fill="black" text-anchor="middle">40.94 m</text> <line x1="41800" y1="-70" x2="41800" y2="-59070" stroke="black" stroke-width="90" marker-start="url(#arrowhead_reversed)" marker-end="url(#arrowhead)" /> <text x="42200" y="-29500.0" font-size="1500" fill="black" text-anchor="middle" transform="rotate(90 42200,-29500.0)">59.14 m</text>
            </g>
        </svg>
        