<svg xmlns="http://www.w3.org/2000/svg"
            width="10486.0" height="11148.0"
            viewBox="-247.0 -10901.0 10486.0 11148.0">
            
        <defs>
          <marker id="arrowhead" markerWidth="20" markerHeight="30" 
                  refX="10" refY="3.5" orient="auto" markerUnits="strokeWidth">
            <path d="M0,0 L0,7 L10,3.5 z" fill="black" />
          </marker>

          <marker id="arrowhead_reversed" markerWidth="20" markerHeight="30" 
                  refX="0" refY="3.5" orient="auto" markerUnits="strokeWidth">
            <path d="M10,0 L10,7 L0,3.5 z" fill="black" />
          </marker>
        </defs>
        
        <defs>
        <style type="text/css">
          .l70d20 { fill: #1f77b4; fill-opacity: 0.7; }
          .l69d20 { fill: #d62728; fill-opacity: 0.7; }
          .l67d20 { fill: #56423e; fill-opacity: 0.7; }
          .l68d20 { fill: #bea6a1; fill-opacity: 0.7; }
          .l68d44 { fill: #0077ff;}
          .l67d44 { fill: #e09a8e;}
          .l69d44 { fill: #70b512;}
          
          .l50d0 { fill: #1f77b4; fill-opacity: 0.7; } /* Metal 4 in IHP */
          .l49d0{ fill: #70b512;}                      /* Via 3 in IHP */
          .l30d0 { fill: #d62728; fill-opacity: 0.7; } /* Metal 3 in IHP */
          .l29d0 { fill: #e39024;}                     /* Via 2 in IHP */
          .l10d0 { fill: #bea6a1; fill-opacity: 0.7; } /* Metal 2 in IHP */
          .l19d0 { fill: #e09a8e;}                     /* Via 1 in IHP */
          .l8d0 { fill: #56423e; fill-opacity: 0.7; }  /* Metal 1 in IHP */
        
          
          /* Not dealt with */
          .l64d20,
          .l65d20,
          .l65d44,
          .l66d13,
          .l66d20,
          .l66d44,
          .l67d16,
          .l68d16,
          .l70d16,
          .l69d16,
          .l86d20,
          .l93d44,
          .l94d20,
          .l95d20,
          .l70d5
          .l8d2,
          .l8d25,
          .l30d2,
          .l50d25,
          .l10d2,
          .l30d25,
          .l30d2,
          .l50d2,
          .l14d0
          .l235d4 {
            fill: #000000;
            fill-opacity: 0.0;
          }
          
          .l998t0 { fill: #000000; font-size: 1500px; }
          .l997t0 { fill: #5C4033; font-size: 1300px; }
          .l999d0 { stroke: #000000; stroke-width: 50; fill: #000000; fill-opacity: 0.2; }
        </style>
        </defs>
        
            <rect x="-247.0" y="-10901.0" width="10486.0" height="11148.0" fill="#ffffff" />
            <g transform="scale(0.1)">
              <path d="M 1875,-48065 L 1875,-48315 L 11525,-48315 L 11525,-48065 Z" class="l94d20" /> <path d="M 1875,-30365 L 1875,-30615 L 11525,-30615 L 11525,-30365 Z" class="l94d20" /> <path d="M -70,-78060 L -70,-78130 L 570,-78130 L 570,-78060 Z" class="l67d20" /> <path d="M 12830,-78060 L 12830,-78130 L 13470,-78130 L 13470,-78060 Z" class="l67d20" /> <path d="M -70,-77560 L -70,-78060 L 13470,-78060 L 13470,-77560 Z" class="l67d20" /> <path d="M -70,-77490 L -70,-77560 L 570,-77560 L 570,-77490 Z" class="l67d20" /> <path d="M 12830,-77490 L 12830,-77560 L 13470,-77560 L 13470,-77490 Z" class="l67d20" /> <path d="M 930,-77060 L 930,-77130 L 1570,-77130 L 1570,-77060 Z" class="l67d20" /> <path d="M 11830,-77060 L 11830,-77130 L 12470,-77130 L 12470,-77060 Z" class="l67d20" /> <path d="M 930,-76560 L 930,-77060 L 12470,-77060 L 12470,-76560 Z" class="l67d20" /> <path d="M 930,-76490 L 930,-76560 L 1570,-76560 L 1570,-76490 Z" class="l67d20" /> <path d="M 11830,-76490 L 11830,-76560 L 12470,-76560 L 12470,-76490 Z" class="l67d20" /> <path d="M 930,-70450 L 930,-70520 L 1570,-70520 L 1570,-70450 Z" class="l67d20" /> <path d="M 1930,-70450 L 1930,-70520 L 7870,-70520 L 7870,-70450 Z" class="l67d20" /> <path d="M 11830,-70450 L 11830,-70520 L 12470,-70520 L 12470,-70450 Z" class="l67d20" /> <path d="M 930,-70160 L 930,-70450 L 12470,-70450 L 12470,-70160 Z" class="l67d20" /> <path d="M 930,-70090 L 930,-70160 L 1570,-70160 L 1570,-70090 Z" class="l67d20" /> <path d="M 1930,-70090 L 1930,-70160 L 7870,-70160 L 7870,-70090 Z" class="l67d20" /> <path d="M 11830,-70090 L 11830,-70160 L 12470,-70160 L 12470,-70090 Z" class="l67d20" /> <path d="M 930,-65640 L 930,-65710 L 1570,-65710 L 1570,-65640 Z" class="l67d20" /> <path d="M 11830,-65640 L 11830,-65710 L 12470,-65710 L 12470,-65640 Z" class="l67d20" /> <path d="M 930,-65080 L 930,-65640 L 12470,-65640 L 12470,-65080 Z" class="l67d20" /> <path d="M 930,-65010 L 930,-65080 L 1570,-65080 L 1570,-65010 Z" class="l67d20" /> <path d="M 11830,-65010 L 11830,-65080 L 12470,-65080 L 12470,-65010 Z" class="l67d20" /> <path d="M 8070,-62970 L 8070,-64310 L 9650,-64310 L 9650,-62970 Z" class="l67d20" /> <path d="M 930,-49000 L 930,-49070 L 1570,-49070 L 1570,-49000 Z" class="l67d20" /> <path d="M 11830,-49000 L 11830,-49070 L 12470,-49070 L 12470,-49000 Z" class="l67d20" /> <path d="M 930,-48440 L 930,-49000 L 12470,-49000 L 12470,-48440 Z" class="l67d20" /> <path d="M 930,-48370 L 930,-48440 L 1570,-48440 L 1570,-48370 Z" class="l67d20" /> <path d="M 11830,-48370 L 11830,-48440 L 12470,-48440 L 12470,-48370 Z" class="l67d20" /> <path d="M 930,-47940 L 930,-48010 L 1570,-48010 L 1570,-47940 Z" class="l67d20" /> <path d="M 11830,-47940 L 11830,-48010 L 12470,-48010 L 12470,-47940 Z" class="l67d20" /> <path d="M 930,-47380 L 930,-47940 L 12470,-47940 L 12470,-47380 Z" class="l67d20" /> <path d="M 930,-47310 L 930,-47380 L 1570,-47380 L 1570,-47310 Z" class="l67d20" /> <path d="M 11830,-47310 L 11830,-47380 L 12470,-47380 L 12470,-47310 Z" class="l67d20" /> <path d="M 3750,-45270 L 3750,-46610 L 5330,-46610 L 5330,-45270 Z" class="l67d20" /> <path d="M 8070,-45270 L 8070,-46610 L 9650,-46610 L 9650,-45270 Z" class="l67d20" /> <path d="M 930,-31300 L 930,-31370 L 1570,-31370 L 1570,-31300 Z" class="l67d20" /> <path d="M 11830,-31300 L 11830,-31370 L 12470,-31370 L 12470,-31300 Z" class="l67d20" /> <path d="M 930,-30740 L 930,-31300 L 12470,-31300 L 12470,-30740 Z" class="l67d20" /> <path d="M 930,-30670 L 930,-30740 L 1570,-30740 L 1570,-30670 Z" class="l67d20" /> <path d="M 11830,-30670 L 11830,-30740 L 12470,-30740 L 12470,-30670 Z" class="l67d20" /> <path d="M 930,-30240 L 930,-30310 L 1570,-30310 L 1570,-30240 Z" class="l67d20" /> <path d="M 11830,-30240 L 11830,-30310 L 12470,-30310 L 12470,-30240 Z" class="l67d20" /> <path d="M 930,-29680 L 930,-30240 L 12470,-30240 L 12470,-29680 Z" class="l67d20" /> <path d="M 930,-29610 L 930,-29680 L 1570,-29680 L 1570,-29610 Z" class="l67d20" /> <path d="M 11830,-29610 L 11830,-29680 L 12470,-29680 L 12470,-29610 Z" class="l67d20" /> <path d="M 3750,-27570 L 3750,-28910 L 5330,-28910 L 5330,-27570 Z" class="l67d20" /> <path d="M 8140,-27640 L 8140,-28840 L 11320,-28840 L 11320,-27640 Z" class="l67d20" /> <path d="M 930,-13600 L 930,-13670 L 1570,-13670 L 1570,-13600 Z" class="l67d20" /> <path d="M 11830,-13600 L 11830,-13670 L 12470,-13670 L 12470,-13600 Z" class="l67d20" /> <path d="M 930,-13040 L 930,-13600 L 12470,-13600 L 12470,-13040 Z" class="l67d20" /> <path d="M 930,-12970 L 930,-13040 L 1570,-13040 L 1570,-12970 Z" class="l67d20" /> <path d="M 11830,-12970 L 11830,-13040 L 12470,-13040 L 12470,-12970 Z" class="l67d20" /> <path d="M 930,-10720 L 930,-10790 L 1570,-10790 L 1570,-10720 Z" class="l67d20" /> <path d="M 11830,-10720 L 11830,-10790 L 12470,-10790 L 12470,-10720 Z" class="l67d20" /> <path d="M 930,-9760 L 930,-10720 L 12470,-10720 L 12470,-9760 Z" class="l67d20" /> <path d="M 930,-9690 L 930,-9760 L 1570,-9760 L 1570,-9690 Z" class="l67d20" /> <path d="M 11830,-9690 L 11830,-9760 L 12470,-9760 L 12470,-9690 Z" class="l67d20" /> <path d="M 2440,-8040 L 2440,-8440 L 5320,-8440 L 5320,-8040 Z" class="l67d20" /> <path d="M 930,-4320 L 930,-4390 L 1570,-4390 L 1570,-4320 Z" class="l67d20" /> <path d="M 11830,-4320 L 11830,-4390 L 12470,-4390 L 12470,-4320 Z" class="l67d20" /> <path d="M 930,-3360 L 930,-4320 L 12470,-4320 L 12470,-3360 Z" class="l67d20" /> <path d="M 930,-3290 L 930,-3360 L 1570,-3360 L 1570,-3290 Z" class="l67d20" /> <path d="M 11830,-3290 L 11830,-3360 L 12470,-3360 L 12470,-3290 Z" class="l67d20" /> <path d="M 930,-1500 L 930,-1570 L 1570,-1570 L 1570,-1500 Z" class="l67d20" /> <path d="M 11830,-1500 L 11830,-1570 L 12470,-1570 L 12470,-1500 Z" class="l67d20" /> <path d="M 930,-1000 L 930,-1500 L 12470,-1500 L 12470,-1000 Z" class="l67d20" /> <path d="M 930,-930 L 930,-1000 L 1570,-1000 L 1570,-930 Z" class="l67d20" /> <path d="M 11830,-930 L 11830,-1000 L 12470,-1000 L 12470,-930 Z" class="l67d20" /> <path d="M -70,-500 L -70,-570 L 570,-570 L 570,-500 Z" class="l67d20" /> <path d="M 12830,-500 L 12830,-570 L 13470,-570 L 13470,-500 Z" class="l67d20" /> <path d="M -70,0 L -70,-500 L 13470,-500 L 13470,0 Z" class="l67d20" /> <path d="M -70,70 L -70,0 L 570,0 L 570,70 Z" class="l67d20" /> <path d="M 12830,70 L 12830,0 L 13470,0 L 13470,70 Z" class="l67d20" /> <path d="M 165,-77725 L 165,-77895 L 335,-77895 L 335,-77725 Z" class="l67d44" /> <path d="M 13065,-77725 L 13065,-77895 L 13235,-77895 L 13235,-77725 Z" class="l67d44" /> <path d="M 1165,-76725 L 1165,-76895 L 1335,-76895 L 1335,-76725 Z" class="l67d44" /> <path d="M 12065,-76725 L 12065,-76895 L 12235,-76895 L 12235,-76725 Z" class="l67d44" /> <path d="M 1165,-70220 L 1165,-70390 L 1335,-70390 L 1335,-70220 Z" class="l67d44" /> <path d="M 2115,-70220 L 2115,-70390 L 2285,-70390 L 2285,-70220 Z" class="l67d44" /> <path d="M 2475,-70220 L 2475,-70390 L 2645,-70390 L 2645,-70220 Z" class="l67d44" /> <path d="M 2835,-70220 L 2835,-70390 L 3005,-70390 L 3005,-70220 Z" class="l67d44" /> <path d="M 3195,-70220 L 3195,-70390 L 3365,-70390 L 3365,-70220 Z" class="l67d44" /> <path d="M 3555,-70220 L 3555,-70390 L 3725,-70390 L 3725,-70220 Z" class="l67d44" /> <path d="M 3915,-70220 L 3915,-70390 L 4085,-70390 L 4085,-70220 Z" class="l67d44" /> <path d="M 4275,-70220 L 4275,-70390 L 4445,-70390 L 4445,-70220 Z" class="l67d44" /> <path d="M 4635,-70220 L 4635,-70390 L 4805,-70390 L 4805,-70220 Z" class="l67d44" /> <path d="M 4995,-70220 L 4995,-70390 L 5165,-70390 L 5165,-70220 Z" class="l67d44" /> <path d="M 5355,-70220 L 5355,-70390 L 5525,-70390 L 5525,-70220 Z" class="l67d44" /> <path d="M 5715,-70220 L 5715,-70390 L 5885,-70390 L 5885,-70220 Z" class="l67d44" /> <path d="M 6075,-70220 L 6075,-70390 L 6245,-70390 L 6245,-70220 Z" class="l67d44" /> <path d="M 6435,-70220 L 6435,-70390 L 6605,-70390 L 6605,-70220 Z" class="l67d44" /> <path d="M 6795,-70220 L 6795,-70390 L 6965,-70390 L 6965,-70220 Z" class="l67d44" /> <path d="M 7155,-70220 L 7155,-70390 L 7325,-70390 L 7325,-70220 Z" class="l67d44" /> <path d="M 7515,-70220 L 7515,-70390 L 7685,-70390 L 7685,-70220 Z" class="l67d44" /> <path d="M 12065,-70220 L 12065,-70390 L 12235,-70390 L 12235,-70220 Z" class="l67d44" /> <path d="M 1165,-65455 L 1165,-65625 L 1335,-65625 L 1335,-65455 Z" class="l67d44" /> <path d="M 12065,-65455 L 12065,-65625 L 12235,-65625 L 12235,-65455 Z" class="l67d44" /> <path d="M 1165,-65095 L 1165,-65265 L 1335,-65265 L 1335,-65095 Z" class="l67d44" /> <path d="M 12065,-65095 L 12065,-65265 L 12235,-65265 L 12235,-65095 Z" class="l67d44" /> <path d="M 8235,-63915 L 8235,-64085 L 8405,-64085 L 8405,-63915 Z" class="l67d44" /> <path d="M 8595,-63915 L 8595,-64085 L 8765,-64085 L 8765,-63915 Z" class="l67d44" /> <path d="M 8955,-63915 L 8955,-64085 L 9125,-64085 L 9125,-63915 Z" class="l67d44" /> <path d="M 9315,-63915 L 9315,-64085 L 9485,-64085 L 9485,-63915 Z" class="l67d44" /> <path d="M 8235,-63555 L 8235,-63725 L 8405,-63725 L 8405,-63555 Z" class="l67d44" /> <path d="M 8595,-63555 L 8595,-63725 L 8765,-63725 L 8765,-63555 Z" class="l67d44" /> <path d="M 8955,-63555 L 8955,-63725 L 9125,-63725 L 9125,-63555 Z" class="l67d44" /> <path d="M 9315,-63555 L 9315,-63725 L 9485,-63725 L 9485,-63555 Z" class="l67d44" /> <path d="M 8235,-63195 L 8235,-63365 L 8405,-63365 L 8405,-63195 Z" class="l67d44" /> <path d="M 8595,-63195 L 8595,-63365 L 8765,-63365 L 8765,-63195 Z" class="l67d44" /> <path d="M 8955,-63195 L 8955,-63365 L 9125,-63365 L 9125,-63195 Z" class="l67d44" /> <path d="M 9315,-63195 L 9315,-63365 L 9485,-63365 L 9485,-63195 Z" class="l67d44" /> <path d="M 1165,-48815 L 1165,-48985 L 1335,-48985 L 1335,-48815 Z" class="l67d44" /> <path d="M 12065,-48815 L 12065,-48985 L 12235,-48985 L 12235,-48815 Z" class="l67d44" /> <path d="M 1165,-48455 L 1165,-48625 L 1335,-48625 L 1335,-48455 Z" class="l67d44" /> <path d="M 12065,-48455 L 12065,-48625 L 12235,-48625 L 12235,-48455 Z" class="l67d44" /> <path d="M 1165,-47755 L 1165,-47925 L 1335,-47925 L 1335,-47755 Z" class="l67d44" /> <path d="M 12065,-47755 L 12065,-47925 L 12235,-47925 L 12235,-47755 Z" class="l67d44" /> <path d="M 1165,-47395 L 1165,-47565 L 1335,-47565 L 1335,-47395 Z" class="l67d44" /> <path d="M 12065,-47395 L 12065,-47565 L 12235,-47565 L 12235,-47395 Z" class="l67d44" /> <path d="M 3915,-46215 L 3915,-46385 L 4085,-46385 L 4085,-46215 Z" class="l67d44" /> <path d="M 4275,-46215 L 4275,-46385 L 4445,-46385 L 4445,-46215 Z" class="l67d44" /> <path d="M 4635,-46215 L 4635,-46385 L 4805,-46385 L 4805,-46215 Z" class="l67d44" /> <path d="M 4995,-46215 L 4995,-46385 L 5165,-46385 L 5165,-46215 Z" class="l67d44" /> <path d="M 8235,-46215 L 8235,-46385 L 8405,-46385 L 8405,-46215 Z" class="l67d44" /> <path d="M 8595,-46215 L 8595,-46385 L 8765,-46385 L 8765,-46215 Z" class="l67d44" /> <path d="M 8955,-46215 L 8955,-46385 L 9125,-46385 L 9125,-46215 Z" class="l67d44" /> <path d="M 9315,-46215 L 9315,-46385 L 9485,-46385 L 9485,-46215 Z" class="l67d44" /> <path d="M 3915,-45855 L 3915,-46025 L 4085,-46025 L 4085,-45855 Z" class="l67d44" /> <path d="M 4275,-45855 L 4275,-46025 L 4445,-46025 L 4445,-45855 Z" class="l67d44" /> <path d="M 4635,-45855 L 4635,-46025 L 4805,-46025 L 4805,-45855 Z" class="l67d44" /> <path d="M 4995,-45855 L 4995,-46025 L 5165,-46025 L 5165,-45855 Z" class="l67d44" /> <path d="M 8235,-45855 L 8235,-46025 L 8405,-46025 L 8405,-45855 Z" class="l67d44" /> <path d="M 8595,-45855 L 8595,-46025 L 8765,-46025 L 8765,-45855 Z" class="l67d44" /> <path d="M 8955,-45855 L 8955,-46025 L 9125,-46025 L 9125,-45855 Z" class="l67d44" /> <path d="M 9315,-45855 L 9315,-46025 L 9485,-46025 L 9485,-45855 Z" class="l67d44" /> <path d="M 3915,-45495 L 3915,-45665 L 4085,-45665 L 4085,-45495 Z" class="l67d44" /> <path d="M 4275,-45495 L 4275,-45665 L 4445,-45665 L 4445,-45495 Z" class="l67d44" /> <path d="M 4635,-45495 L 4635,-45665 L 4805,-45665 L 4805,-45495 Z" class="l67d44" /> <path d="M 4995,-45495 L 4995,-45665 L 5165,-45665 L 5165,-45495 Z" class="l67d44" /> <path d="M 8235,-45495 L 8235,-45665 L 8405,-45665 L 8405,-45495 Z" class="l67d44" /> <path d="M 8595,-45495 L 8595,-45665 L 8765,-45665 L 8765,-45495 Z" class="l67d44" /> <path d="M 8955,-45495 L 8955,-45665 L 9125,-45665 L 9125,-45495 Z" class="l67d44" /> <path d="M 9315,-45495 L 9315,-45665 L 9485,-45665 L 9485,-45495 Z" class="l67d44" /> <path d="M 1165,-31115 L 1165,-31285 L 1335,-31285 L 1335,-31115 Z" class="l67d44" /> <path d="M 12065,-31115 L 12065,-31285 L 12235,-31285 L 12235,-31115 Z" class="l67d44" /> <path d="M 1165,-30755 L 1165,-30925 L 1335,-30925 L 1335,-30755 Z" class="l67d44" /> <path d="M 12065,-30755 L 12065,-30925 L 12235,-30925 L 12235,-30755 Z" class="l67d44" /> <path d="M 1165,-30055 L 1165,-30225 L 1335,-30225 L 1335,-30055 Z" class="l67d44" /> <path d="M 12065,-30055 L 12065,-30225 L 12235,-30225 L 12235,-30055 Z" class="l67d44" /> <path d="M 1165,-29695 L 1165,-29865 L 1335,-29865 L 1335,-29695 Z" class="l67d44" /> <path d="M 12065,-29695 L 12065,-29865 L 12235,-29865 L 12235,-29695 Z" class="l67d44" /> <path d="M 3915,-28515 L 3915,-28685 L 4085,-28685 L 4085,-28515 Z" class="l67d44" /> <path d="M 4275,-28515 L 4275,-28685 L 4445,-28685 L 4445,-28515 Z" class="l67d44" /> <path d="M 4635,-28515 L 4635,-28685 L 4805,-28685 L 4805,-28515 Z" class="l67d44" /> <path d="M 4995,-28515 L 4995,-28685 L 5165,-28685 L 5165,-28515 Z" class="l67d44" /> <path d="M 3915,-28155 L 3915,-28325 L 4085,-28325 L 4085,-28155 Z" class="l67d44" /> <path d="M 4275,-28155 L 4275,-28325 L 4445,-28325 L 4445,-28155 Z" class="l67d44" /> <path d="M 4635,-28155 L 4635,-28325 L 4805,-28325 L 4805,-28155 Z" class="l67d44" /> <path d="M 4995,-28155 L 4995,-28325 L 5165,-28325 L 5165,-28155 Z" class="l67d44" /> <path d="M 3915,-27795 L 3915,-27965 L 4085,-27965 L 4085,-27795 Z" class="l67d44" /> <path d="M 4275,-27795 L 4275,-27965 L 4445,-27965 L 4445,-27795 Z" class="l67d44" /> <path d="M 4635,-27795 L 4635,-27965 L 4805,-27965 L 4805,-27795 Z" class="l67d44" /> <path d="M 4995,-27795 L 4995,-27965 L 5165,-27965 L 5165,-27795 Z" class="l67d44" /> <path d="M 1165,-13415 L 1165,-13585 L 1335,-13585 L 1335,-13415 Z" class="l67d44" /> <path d="M 12065,-13415 L 12065,-13585 L 12235,-13585 L 12235,-13415 Z" class="l67d44" /> <path d="M 1165,-13055 L 1165,-13225 L 1335,-13225 L 1335,-13055 Z" class="l67d44" /> <path d="M 12065,-13055 L 12065,-13225 L 12235,-13225 L 12235,-13055 Z" class="l67d44" /> <path d="M 1165,-10515 L 1165,-10685 L 1335,-10685 L 1335,-10515 Z" class="l67d44" /> <path d="M 12065,-10515 L 12065,-10685 L 12235,-10685 L 12235,-10515 Z" class="l67d44" /> <path d="M 1165,-10155 L 1165,-10325 L 1335,-10325 L 1335,-10155 Z" class="l67d44" /> <path d="M 12065,-10155 L 12065,-10325 L 12235,-10325 L 12235,-10155 Z" class="l67d44" /> <path d="M 1165,-9795 L 1165,-9965 L 1335,-9965 L 1335,-9795 Z" class="l67d44" /> <path d="M 12065,-9795 L 12065,-9965 L 12235,-9965 L 12235,-9795 Z" class="l67d44" /> <path d="M 1165,-4115 L 1165,-4285 L 1335,-4285 L 1335,-4115 Z" class="l67d44" /> <path d="M 12065,-4115 L 12065,-4285 L 12235,-4285 L 12235,-4115 Z" class="l67d44" /> <path d="M 1165,-3755 L 1165,-3925 L 1335,-3925 L 1335,-3755 Z" class="l67d44" /> <path d="M 12065,-3755 L 12065,-3925 L 12235,-3925 L 12235,-3755 Z" class="l67d44" /> <path d="M 1165,-3395 L 1165,-3565 L 1335,-3565 L 1335,-3395 Z" class="l67d44" /> <path d="M 12065,-3395 L 12065,-3565 L 12235,-3565 L 12235,-3395 Z" class="l67d44" /> <path d="M 1165,-1165 L 1165,-1335 L 1335,-1335 L 1335,-1165 Z" class="l67d44" /> <path d="M 12065,-1165 L 12065,-1335 L 12235,-1335 L 12235,-1165 Z" class="l67d44" /> <path d="M 165,-165 L 165,-335 L 335,-335 L 335,-165 Z" class="l67d44" /> <path d="M 13065,-165 L 13065,-335 L 13235,-335 L 13235,-165 Z" class="l67d44" /> <path d="M -70,-77490 L -70,-78130 L 570,-78130 L 570,-77490 Z" class="l68d20" /> <path d="M 12830,-77490 L 12830,-78130 L 13470,-78130 L 13470,-77490 Z" class="l68d20" /> <path d="M 0,-570 L 0,-77490 L 500,-77490 L 500,-570 Z" class="l68d20" /> <path d="M 930,-76490 L 930,-77130 L 1570,-77130 L 1570,-76490 Z" class="l68d20" /> <path d="M 11830,-76490 L 11830,-77130 L 12470,-77130 L 12470,-76490 Z" class="l68d20" /> <path d="M 1000,-70520 L 1000,-76490 L 1500,-76490 L 1500,-70520 Z" class="l68d20" /> <path d="M 11900,-70520 L 11900,-76490 L 12400,-76490 L 12400,-70520 Z" class="l68d20" /> <path d="M 930,-70090 L 930,-70520 L 1570,-70520 L 1570,-70090 Z" class="l68d20" /> <path d="M 1930,-70090 L 1930,-70520 L 7870,-70520 L 7870,-70090 Z" class="l68d20" /> <path d="M 11830,-70090 L 11830,-70520 L 12470,-70520 L 12470,-70090 Z" class="l68d20" /> <path d="M 1000,-65710 L 1000,-70090 L 1500,-70090 L 1500,-65710 Z" class="l68d20" /> <path d="M 11900,-65710 L 11900,-70090 L 12400,-70090 L 12400,-65710 Z" class="l68d20" /> <path d="M 930,-65010 L 930,-65710 L 1570,-65710 L 1570,-65010 Z" class="l68d20" /> <path d="M 11830,-65010 L 11830,-65710 L 12470,-65710 L 12470,-65010 Z" class="l68d20" /> <path d="M 1000,-49070 L 1000,-65010 L 1500,-65010 L 1500,-49070 Z" class="l68d20" /> <path d="M 8070,-62970 L 8070,-64310 L 9650,-64310 L 9650,-62970 Z" class="l68d20" /> <path d="M 11900,-49070 L 11900,-65010 L 12400,-65010 L 12400,-49070 Z" class="l68d20" /> <path d="M 930,-48370 L 930,-49070 L 1570,-49070 L 1570,-48370 Z" class="l68d20" /> <path d="M 11830,-48370 L 11830,-49070 L 12470,-49070 L 12470,-48370 Z" class="l68d20" /> <path d="M 1000,-48010 L 1000,-48370 L 1500,-48370 L 1500,-48010 Z" class="l68d20" /> <path d="M 11900,-48010 L 11900,-48370 L 12400,-48370 L 12400,-48010 Z" class="l68d20" /> <path d="M 930,-47310 L 930,-48010 L 1570,-48010 L 1570,-47310 Z" class="l68d20" /> <path d="M 11830,-47310 L 11830,-48010 L 12470,-48010 L 12470,-47310 Z" class="l68d20" /> <path d="M 1000,-31370 L 1000,-47310 L 1500,-47310 L 1500,-31370 Z" class="l68d20" /> <path d="M 3750,-45270 L 3750,-46610 L 5330,-46610 L 5330,-45270 Z" class="l68d20" /> <path d="M 8070,-45270 L 8070,-46610 L 9650,-46610 L 9650,-45270 Z" class="l68d20" /> <path d="M 11900,-31370 L 11900,-47310 L 12400,-47310 L 12400,-31370 Z" class="l68d20" /> <path d="M 930,-30670 L 930,-31370 L 1570,-31370 L 1570,-30670 Z" class="l68d20" /> <path d="M 11830,-30670 L 11830,-31370 L 12470,-31370 L 12470,-30670 Z" class="l68d20" /> <path d="M 1000,-30310 L 1000,-30670 L 1500,-30670 L 1500,-30310 Z" class="l68d20" /> <path d="M 11900,-30310 L 11900,-30670 L 12400,-30670 L 12400,-30310 Z" class="l68d20" /> <path d="M 930,-29610 L 930,-30310 L 1570,-30310 L 1570,-29610 Z" class="l68d20" /> <path d="M 11830,-29610 L 11830,-30310 L 12470,-30310 L 12470,-29610 Z" class="l68d20" /> <path d="M 1000,-13670 L 1000,-29610 L 1500,-29610 L 1500,-13670 Z" class="l68d20" /> <path d="M 3750,-27570 L 3750,-28910 L 5330,-28910 L 5330,-27570 Z" class="l68d20" /> <path d="M 11900,-13670 L 11900,-29610 L 12400,-29610 L 12400,-13670 Z" class="l68d20" /> <path d="M 930,-12970 L 930,-13670 L 1570,-13670 L 1570,-12970 Z" class="l68d20" /> <path d="M 11830,-12970 L 11830,-13670 L 12470,-13670 L 12470,-12970 Z" class="l68d20" /> <path d="M 1000,-10790 L 1000,-12970 L 1500,-12970 L 1500,-10790 Z" class="l68d20" /> <path d="M 11900,-10790 L 11900,-12970 L 12400,-12970 L 12400,-10790 Z" class="l68d20" /> <path d="M 930,-9690 L 930,-10790 L 1570,-10790 L 1570,-9690 Z" class="l68d20" /> <path d="M 11830,-9690 L 11830,-10790 L 12470,-10790 L 12470,-9690 Z" class="l68d20" /> <path d="M 1000,-4390 L 1000,-9690 L 1500,-9690 L 1500,-4390 Z" class="l68d20" /> <path d="M 5570,-5170 L 5570,-5710 L 6670,-5710 L 6670,-5170 Z" class="l68d20" /> <path d="M 11900,-4390 L 11900,-9690 L 12400,-9690 L 12400,-4390 Z" class="l68d20" /> <path d="M 930,-3290 L 930,-4390 L 1570,-4390 L 1570,-3290 Z" class="l68d20" /> <path d="M 11830,-3290 L 11830,-4390 L 12470,-4390 L 12470,-3290 Z" class="l68d20" /> <path d="M 1000,-1570 L 1000,-3290 L 1500,-3290 L 1500,-1570 Z" class="l68d20" /> <path d="M 11900,-1570 L 11900,-3290 L 12400,-3290 L 12400,-1570 Z" class="l68d20" /> <path d="M 930,-930 L 930,-1570 L 1570,-1570 L 1570,-930 Z" class="l68d20" /> <path d="M 11830,-930 L 11830,-1570 L 12470,-1570 L 12470,-930 Z" class="l68d20" /> <path d="M 12900,-570 L 12900,-77490 L 13400,-77490 L 13400,-570 Z" class="l68d20" /> <path d="M -70,70 L -70,-570 L 570,-570 L 570,70 Z" class="l68d20" /> <path d="M 12830,70 L 12830,-570 L 13470,-570 L 13470,70 Z" class="l68d20" /> <path d="M 3720,-6840 L 3720,-7240 L 4040,-7240 L 4040,-6840 Z" class="l68d16" /> <path d="M 0,-77560 L 0,-78060 L 13400,-78060 L 13400,-77560 Z" class="l67d16" /> <path d="M 1000,-76560 L 1000,-77060 L 12400,-77060 L 12400,-76560 Z" class="l67d16" /> <path d="M 2105,-70230 L 2105,-70380 L 2255,-70380 L 2255,-70230 Z" class="l68d44" /> <path d="M 2425,-70230 L 2425,-70380 L 2575,-70380 L 2575,-70230 Z" class="l68d44" /> <path d="M 2745,-70230 L 2745,-70380 L 2895,-70380 L 2895,-70230 Z" class="l68d44" /> <path d="M 3065,-70230 L 3065,-70380 L 3215,-70380 L 3215,-70230 Z" class="l68d44" /> <path d="M 3385,-70230 L 3385,-70380 L 3535,-70380 L 3535,-70230 Z" class="l68d44" /> <path d="M 3705,-70230 L 3705,-70380 L 3855,-70380 L 3855,-70230 Z" class="l68d44" /> <path d="M 4025,-70230 L 4025,-70380 L 4175,-70380 L 4175,-70230 Z" class="l68d44" /> <path d="M 4345,-70230 L 4345,-70380 L 4495,-70380 L 4495,-70230 Z" class="l68d44" /> <path d="M 4665,-70230 L 4665,-70380 L 4815,-70380 L 4815,-70230 Z" class="l68d44" /> <path d="M 4985,-70230 L 4985,-70380 L 5135,-70380 L 5135,-70230 Z" class="l68d44" /> <path d="M 5305,-70230 L 5305,-70380 L 5455,-70380 L 5455,-70230 Z" class="l68d44" /> <path d="M 5625,-70230 L 5625,-70380 L 5775,-70380 L 5775,-70230 Z" class="l68d44" /> <path d="M 5945,-70230 L 5945,-70380 L 6095,-70380 L 6095,-70230 Z" class="l68d44" /> <path d="M 6265,-70230 L 6265,-70380 L 6415,-70380 L 6415,-70230 Z" class="l68d44" /> <path d="M 6585,-70230 L 6585,-70380 L 6735,-70380 L 6735,-70230 Z" class="l68d44" /> <path d="M 6905,-70230 L 6905,-70380 L 7055,-70380 L 7055,-70230 Z" class="l68d44" /> <path d="M 7225,-70230 L 7225,-70380 L 7375,-70380 L 7375,-70230 Z" class="l68d44" /> <path d="M 7545,-70230 L 7545,-70380 L 7695,-70380 L 7695,-70230 Z" class="l68d44" /> <path d="M 8305,-63885 L 8305,-64035 L 8455,-64035 L 8455,-63885 Z" class="l68d44" /> <path d="M 8625,-63885 L 8625,-64035 L 8775,-64035 L 8775,-63885 Z" class="l68d44" /> <path d="M 8945,-63885 L 8945,-64035 L 9095,-64035 L 9095,-63885 Z" class="l68d44" /> <path d="M 9265,-63885 L 9265,-64035 L 9415,-64035 L 9415,-63885 Z" class="l68d44" /> <path d="M 8305,-63565 L 8305,-63715 L 8455,-63715 L 8455,-63565 Z" class="l68d44" /> <path d="M 8625,-63565 L 8625,-63715 L 8775,-63715 L 8775,-63565 Z" class="l68d44" /> <path d="M 8945,-63565 L 8945,-63715 L 9095,-63715 L 9095,-63565 Z" class="l68d44" /> <path d="M 9265,-63565 L 9265,-63715 L 9415,-63715 L 9415,-63565 Z" class="l68d44" /> <path d="M 8305,-63245 L 8305,-63395 L 8455,-63395 L 8455,-63245 Z" class="l68d44" /> <path d="M 8625,-63245 L 8625,-63395 L 8775,-63395 L 8775,-63245 Z" class="l68d44" /> <path d="M 8945,-63245 L 8945,-63395 L 9095,-63395 L 9095,-63245 Z" class="l68d44" /> <path d="M 9265,-63245 L 9265,-63395 L 9415,-63395 L 9415,-63245 Z" class="l68d44" /> <path d="M 3985,-46185 L 3985,-46335 L 4135,-46335 L 4135,-46185 Z" class="l68d44" /> <path d="M 4305,-46185 L 4305,-46335 L 4455,-46335 L 4455,-46185 Z" class="l68d44" /> <path d="M 4625,-46185 L 4625,-46335 L 4775,-46335 L 4775,-46185 Z" class="l68d44" /> <path d="M 4945,-46185 L 4945,-46335 L 5095,-46335 L 5095,-46185 Z" class="l68d44" /> <path d="M 8305,-46185 L 8305,-46335 L 8455,-46335 L 8455,-46185 Z" class="l68d44" /> <path d="M 8625,-46185 L 8625,-46335 L 8775,-46335 L 8775,-46185 Z" class="l68d44" /> <path d="M 8945,-46185 L 8945,-46335 L 9095,-46335 L 9095,-46185 Z" class="l68d44" /> <path d="M 9265,-46185 L 9265,-46335 L 9415,-46335 L 9415,-46185 Z" class="l68d44" /> <path d="M 3985,-45865 L 3985,-46015 L 4135,-46015 L 4135,-45865 Z" class="l68d44" /> <path d="M 4305,-45865 L 4305,-46015 L 4455,-46015 L 4455,-45865 Z" class="l68d44" /> <path d="M 4625,-45865 L 4625,-46015 L 4775,-46015 L 4775,-45865 Z" class="l68d44" /> <path d="M 4945,-45865 L 4945,-46015 L 5095,-46015 L 5095,-45865 Z" class="l68d44" /> <path d="M 8305,-45865 L 8305,-46015 L 8455,-46015 L 8455,-45865 Z" class="l68d44" /> <path d="M 8625,-45865 L 8625,-46015 L 8775,-46015 L 8775,-45865 Z" class="l68d44" /> <path d="M 8945,-45865 L 8945,-46015 L 9095,-46015 L 9095,-45865 Z" class="l68d44" /> <path d="M 9265,-45865 L 9265,-46015 L 9415,-46015 L 9415,-45865 Z" class="l68d44" /> <path d="M 3985,-45545 L 3985,-45695 L 4135,-45695 L 4135,-45545 Z" class="l68d44" /> <path d="M 4305,-45545 L 4305,-45695 L 4455,-45695 L 4455,-45545 Z" class="l68d44" /> <path d="M 4625,-45545 L 4625,-45695 L 4775,-45695 L 4775,-45545 Z" class="l68d44" /> <path d="M 4945,-45545 L 4945,-45695 L 5095,-45695 L 5095,-45545 Z" class="l68d44" /> <path d="M 8305,-45545 L 8305,-45695 L 8455,-45695 L 8455,-45545 Z" class="l68d44" /> <path d="M 8625,-45545 L 8625,-45695 L 8775,-45695 L 8775,-45545 Z" class="l68d44" /> <path d="M 8945,-45545 L 8945,-45695 L 9095,-45695 L 9095,-45545 Z" class="l68d44" /> <path d="M 9265,-45545 L 9265,-45695 L 9415,-45695 L 9415,-45545 Z" class="l68d44" /> <path d="M 3985,-28485 L 3985,-28635 L 4135,-28635 L 4135,-28485 Z" class="l68d44" /> <path d="M 4305,-28485 L 4305,-28635 L 4455,-28635 L 4455,-28485 Z" class="l68d44" /> <path d="M 4625,-28485 L 4625,-28635 L 4775,-28635 L 4775,-28485 Z" class="l68d44" /> <path d="M 4945,-28485 L 4945,-28635 L 5095,-28635 L 5095,-28485 Z" class="l68d44" /> <path d="M 3985,-28165 L 3985,-28315 L 4135,-28315 L 4135,-28165 Z" class="l68d44" /> <path d="M 4305,-28165 L 4305,-28315 L 4455,-28315 L 4455,-28165 Z" class="l68d44" /> <path d="M 4625,-28165 L 4625,-28315 L 4775,-28315 L 4775,-28165 Z" class="l68d44" /> <path d="M 4945,-28165 L 4945,-28315 L 5095,-28315 L 5095,-28165 Z" class="l68d44" /> <path d="M 3985,-27845 L 3985,-27995 L 4135,-27995 L 4135,-27845 Z" class="l68d44" /> <path d="M 4305,-27845 L 4305,-27995 L 4455,-27995 L 4455,-27845 Z" class="l68d44" /> <path d="M 4625,-27845 L 4625,-27995 L 4775,-27995 L 4775,-27845 Z" class="l68d44" /> <path d="M 4945,-27845 L 4945,-27995 L 5095,-27995 L 5095,-27845 Z" class="l68d44" /> <path d="M 5725,-5365 L 5725,-5515 L 5875,-5515 L 5875,-5365 Z" class="l68d44" /> <path d="M 6045,-5365 L 6045,-5515 L 6195,-5515 L 6195,-5365 Z" class="l68d44" /> <path d="M 6365,-5365 L 6365,-5515 L 6515,-5515 L 6515,-5365 Z" class="l68d44" /> <path d="M 1930,-70090 L 1930,-70520 L 7870,-70520 L 7870,-70090 Z" class="l69d20" /> <path d="M 2570,-68370 L 2570,-68440 L 3010,-68440 L 3010,-68370 Z" class="l69d20" /> <path d="M 2570,-68070 L 2570,-68370 L 4870,-68370 L 4870,-68070 Z" class="l69d20" /> <path d="M 2570,-68000 L 2570,-68070 L 3010,-68070 L 3010,-68000 Z" class="l69d20" /> <path d="M 6550,-63780 L 6550,-63850 L 6990,-63850 L 6990,-63780 Z" class="l69d20" /> <path d="M 8070,-63780 L 8070,-64310 L 9650,-64310 L 9650,-63780 Z" class="l69d20" /> <path d="M 6550,-63480 L 6550,-63780 L 9650,-63780 L 9650,-63480 Z" class="l69d20" /> <path d="M 6550,-63410 L 6550,-63480 L 6990,-63480 L 6990,-63410 Z" class="l69d20" /> <path d="M 8070,-62970 L 8070,-63480 L 9650,-63480 L 9650,-62970 Z" class="l69d20" /> <path d="M 3750,-46020 L 3750,-46610 L 5330,-46610 L 5330,-46020 Z" class="l69d20" /> <path d="M 6550,-46020 L 6550,-46090 L 6990,-46090 L 6990,-46020 Z" class="l69d20" /> <path d="M 3750,-45720 L 3750,-46020 L 6990,-46020 L 6990,-45720 Z" class="l69d20" /> <path d="M 3750,-45270 L 3750,-45720 L 5330,-45720 L 5330,-45270 Z" class="l69d20" /> <path d="M 6550,-45650 L 6550,-45720 L 6990,-45720 L 6990,-45650 Z" class="l69d20" /> <path d="M 8070,-45270 L 8070,-46610 L 9650,-46610 L 9650,-45270 Z" class="l69d20" /> <path d="M 4310,-30020 L 4310,-30090 L 4750,-30090 L 4750,-30020 Z" class="l69d20" /> <path d="M 8630,-30020 L 8630,-30090 L 9070,-30090 L 9070,-30020 Z" class="l69d20" /> <path d="M 4310,-29720 L 4310,-30020 L 9070,-30020 L 9070,-29720 Z" class="l69d20" /> <path d="M 4310,-29650 L 4310,-29720 L 4750,-29720 L 4750,-29650 Z" class="l69d20" /> <path d="M 8630,-29650 L 8630,-29720 L 9070,-29720 L 9070,-29650 Z" class="l69d20" /> <path d="M 3750,-27570 L 3750,-28910 L 5330,-28910 L 5330,-27570 Z" class="l69d20" /> <path d="M 2570,-5490 L 2570,-5560 L 3010,-5560 L 3010,-5490 Z" class="l69d20" /> <path d="M 5570,-5490 L 5570,-5710 L 6670,-5710 L 6670,-5490 Z" class="l69d20" /> <path d="M 2570,-5190 L 2570,-5490 L 6670,-5490 L 6670,-5190 Z" class="l69d20" /> <path d="M 2570,-5120 L 2570,-5190 L 3010,-5190 L 3010,-5120 Z" class="l69d20" /> <path d="M 5570,-5170 L 5570,-5190 L 6670,-5190 L 6670,-5170 Z" class="l69d20" /> <path d="M 2200,-70205 L 2200,-70405 L 2400,-70405 L 2400,-70205 Z" class="l69d44" /> <path d="M 2600,-70205 L 2600,-70405 L 2800,-70405 L 2800,-70205 Z" class="l69d44" /> <path d="M 3000,-70205 L 3000,-70405 L 3200,-70405 L 3200,-70205 Z" class="l69d44" /> <path d="M 3400,-70205 L 3400,-70405 L 3600,-70405 L 3600,-70205 Z" class="l69d44" /> <path d="M 3800,-70205 L 3800,-70405 L 4000,-70405 L 4000,-70205 Z" class="l69d44" /> <path d="M 4200,-70205 L 4200,-70405 L 4400,-70405 L 4400,-70205 Z" class="l69d44" /> <path d="M 4600,-70205 L 4600,-70405 L 4800,-70405 L 4800,-70205 Z" class="l69d44" /> <path d="M 5000,-70205 L 5000,-70405 L 5200,-70405 L 5200,-70205 Z" class="l69d44" /> <path d="M 5400,-70205 L 5400,-70405 L 5600,-70405 L 5600,-70205 Z" class="l69d44" /> <path d="M 5800,-70205 L 5800,-70405 L 6000,-70405 L 6000,-70205 Z" class="l69d44" /> <path d="M 6200,-70205 L 6200,-70405 L 6400,-70405 L 6400,-70205 Z" class="l69d44" /> <path d="M 6600,-70205 L 6600,-70405 L 6800,-70405 L 6800,-70205 Z" class="l69d44" /> <path d="M 7000,-70205 L 7000,-70405 L 7200,-70405 L 7200,-70205 Z" class="l69d44" /> <path d="M 7400,-70205 L 7400,-70405 L 7600,-70405 L 7600,-70205 Z" class="l69d44" /> <path d="M 2690,-68120 L 2690,-68320 L 2890,-68320 L 2890,-68120 Z" class="l69d44" /> <path d="M 6670,-63530 L 6670,-63730 L 6870,-63730 L 6870,-63530 Z" class="l69d44" /> <path d="M 8360,-46240 L 8360,-46440 L 8560,-46440 L 8560,-46240 Z" class="l69d44" /> <path d="M 8760,-46240 L 8760,-46440 L 8960,-46440 L 8960,-46240 Z" class="l69d44" /> <path d="M 9160,-46240 L 9160,-46440 L 9360,-46440 L 9360,-46240 Z" class="l69d44" /> <path d="M 6670,-45770 L 6670,-45970 L 6870,-45970 L 6870,-45770 Z" class="l69d44" /> <path d="M 8360,-45840 L 8360,-46040 L 8560,-46040 L 8560,-45840 Z" class="l69d44" /> <path d="M 8760,-45840 L 8760,-46040 L 8960,-46040 L 8960,-45840 Z" class="l69d44" /> <path d="M 9160,-45840 L 9160,-46040 L 9360,-46040 L 9360,-45840 Z" class="l69d44" /> <path d="M 8360,-45440 L 8360,-45640 L 8560,-45640 L 8560,-45440 Z" class="l69d44" /> <path d="M 8760,-45440 L 8760,-45640 L 8960,-45640 L 8960,-45440 Z" class="l69d44" /> <path d="M 9160,-45440 L 9160,-45640 L 9360,-45640 L 9360,-45440 Z" class="l69d44" /> <path d="M 4430,-29770 L 4430,-29970 L 4630,-29970 L 4630,-29770 Z" class="l69d44" /> <path d="M 8750,-29770 L 8750,-29970 L 8950,-29970 L 8950,-29770 Z" class="l69d44" /> <path d="M 4040,-28540 L 4040,-28740 L 4240,-28740 L 4240,-28540 Z" class="l69d44" /> <path d="M 4440,-28540 L 4440,-28740 L 4640,-28740 L 4640,-28540 Z" class="l69d44" /> <path d="M 4840,-28540 L 4840,-28740 L 5040,-28740 L 5040,-28540 Z" class="l69d44" /> <path d="M 4040,-28140 L 4040,-28340 L 4240,-28340 L 4240,-28140 Z" class="l69d44" /> <path d="M 4440,-28140 L 4440,-28340 L 4640,-28340 L 4640,-28140 Z" class="l69d44" /> <path d="M 4840,-28140 L 4840,-28340 L 5040,-28340 L 5040,-28140 Z" class="l69d44" /> <path d="M 4040,-27740 L 4040,-27940 L 4240,-27940 L 4240,-27740 Z" class="l69d44" /> <path d="M 4440,-27740 L 4440,-27940 L 4640,-27940 L 4640,-27740 Z" class="l69d44" /> <path d="M 4840,-27740 L 4840,-27940 L 5040,-27940 L 5040,-27740 Z" class="l69d44" /> <path d="M 2690,-5240 L 2690,-5440 L 2890,-5440 L 2890,-5240 Z" class="l69d44" /> <path d="M 1930,-70090 L 1930,-70520 L 7870,-70520 L 7870,-70090 Z" class="l70d20" /> <path d="M 2570,-68000 L 2570,-68440 L 3010,-68440 L 3010,-68000 Z" class="l70d20" /> <path d="M 2640,-5560 L 2640,-68000 L 2940,-68000 L 2940,-5560 Z" class="l70d20" /> <path d="M 6550,-63410 L 6550,-63850 L 6990,-63850 L 6990,-63410 Z" class="l70d20" /> <path d="M 6620,-46090 L 6620,-63410 L 6920,-63410 L 6920,-46090 Z" class="l70d20" /> <path d="M 6550,-45650 L 6550,-46090 L 6990,-46090 L 6990,-45650 Z" class="l70d20" /> <path d="M 8070,-45270 L 8070,-46610 L 9650,-46610 L 9650,-45270 Z" class="l70d20" /> <path d="M 8700,-30090 L 8700,-45270 L 9000,-45270 L 9000,-30090 Z" class="l70d20" /> <path d="M 4310,-29650 L 4310,-30090 L 4750,-30090 L 4750,-29650 Z" class="l70d20" /> <path d="M 8630,-29650 L 8630,-30090 L 9070,-30090 L 9070,-29650 Z" class="l70d20" /> <path d="M 4380,-28910 L 4380,-29650 L 4680,-29650 L 4680,-28910 Z" class="l70d20" /> <path d="M 3750,-27570 L 3750,-28910 L 5330,-28910 L 5330,-27570 Z" class="l70d20" /> <path d="M 2570,-5120 L 2570,-5560 L 3010,-5560 L 3010,-5120 Z" class="l70d20" /> <rect x="2315" y="-5365" width="6330" height="2725" class="l999d0" /> <text x="5480.0" y="-4002.5" class="l998t0" text-anchor="middle" alignment-baseline="middle">MN1_BE</text> <rect x="2315" y="-11440" width="6330" height="2725" class="l999d0" /> <text x="5480.0" y="-10077.5" class="l998t0" text-anchor="middle" alignment-baseline="middle">MN1_TE</text> <rect x="2315" y="-9365" width="6330" height="4650" class="l999d0" /> <text x="5480.0" y="-7040.0" class="l998t0" text-anchor="middle" alignment-baseline="middle">MN1</text> <rect x="13830" y="-95710" width="26500" height="95780" class="l999d0" /> <text x="27080.0" y="-47820.0" class="l998t0" text-anchor="middle" alignment-baseline="middle">U2_OTA</text> <rect x="1875" y="-48065" width="9650" height="17450" class="l999d0" /> <text x="6700.0" y="-39340.0" class="l998t0" text-anchor="middle" alignment-baseline="middle">bs1_RH2</text> <rect x="1875" y="-30365" width="9650" height="17450" class="l999d0" /> <text x="6700.0" y="-21640.0" class="l998t0" text-anchor="middle" alignment-baseline="middle">bs1_RH3</text> <rect x="1875" y="-65765" width="9650" height="17450" class="l999d0" /> <text x="6700.0" y="-57040.0" class="l998t0" text-anchor="middle" alignment-baseline="middle">bs1_RH1</text> <rect x="2000" y="-76060" width="5800" height="8420" class="l999d0" /> <text x="4900.0" y="-71850.0" class="l998t0" text-anchor="middle" alignment-baseline="middle">CM1</text> <rect x="40690" y="-106610" width="59300" height="106680" class="l999d0" /> <text x="70340.0" y="-53270.0" class="l998t0" text-anchor="middle" alignment-baseline="middle">U1_bandgap_reference</text> <text x="3880" y="-6800" class="l997t0" text-anchor="middle" alignment-baseline="central">reset</text> <text x="6700" y="-77570" class="l997t0" text-anchor="middle" alignment-baseline="central">VDD</text> <text x="6700" y="-76570" class="l997t0" text-anchor="middle" alignment-baseline="central">VSS</text> <text x="1130" y="1585.0" font-size="1500" fill="black" alignment-baseline="middle">Locali</text> <rect x="-70" y="970" width="600" height="600" fill="#56423e" stroke="black" stroke-width="2" /> <text x="8530" y="1585.0" font-size="1500" fill="black" alignment-baseline="middle">M1</text> <rect x="7330" y="970" width="600" height="600" fill="#bea6a1" stroke="black" stroke-width="2" /> <text x="15930" y="1585.0" font-size="1500" fill="black" alignment-baseline="middle">M2</text> <rect x="14730" y="970" width="600" height="600" fill="#d62728" stroke="black" stroke-width="2" /> <text x="23330" y="1585.0" font-size="1500" fill="black" alignment-baseline="middle">M3</text> <rect x="22130" y="970" width="600" height="600" fill="#1f77b4" stroke="black" stroke-width="2" /> <text x="30730" y="1585.0" font-size="1500" fill="black" alignment-baseline="middle">Viali</text> <rect x="29530" y="970" width="600" height="600" fill="#e09a8e" stroke="black" stroke-width="2" /> <text x="38130" y="1585.0" font-size="1500" fill="black" alignment-baseline="middle">Via1</text> <rect x="36930" y="970" width="600" height="600" fill="#e39024" stroke="black" stroke-width="2" /> <text x="45530" y="1585.0" font-size="1500" fill="black" alignment-baseline="middle">Via2</text> <rect x="44330" y="970" width="600" height="600" fill="#70b512" stroke="black" stroke-width="2" /> <line x1="-70" y1="-107480" x2="99990" y2="-107480" stroke="black" stroke-width="90" marker-start="url(#arrowhead_reversed)" marker-end="url(#arrowhead)" /> <text x="49960.0" y="-107880" font-size="1500" fill="black" text-anchor="middle">100.06 μm</text> <line x1="100920" y1="-70" x2="100920" y2="-106610" stroke="black" stroke-width="90" marker-start="url(#arrowhead_reversed)" marker-end="url(#arrowhead)" /> <text x="101320" y="-53270.0" font-size="1500" fill="black" text-anchor="middle" transform="rotate(90 101320,-53270.0)">106.68 μm</text>
            </g>
        </svg>
        