<svg xmlns="http://www.w3.org/2000/svg"
            width="6370.0" height="11108.0"
            viewBox="-227.0 -10881.0 6370.0 11108.0">
            
        <defs>
          <marker id="arrowhead" markerWidth="20" markerHeight="30" 
                  refX="10" refY="3.5" orient="auto" markerUnits="strokeWidth">
            <path d="M0,0 L0,7 L10,3.5 z" fill="black" />
          </marker>

          <marker id="arrowhead_reversed" markerWidth="20" markerHeight="30" 
                  refX="0" refY="3.5" orient="auto" markerUnits="strokeWidth">
            <path d="M10,0 L10,7 L0,3.5 z" fill="black" />
          </marker>
        </defs>
        
        <defs>
        <style type="text/css">
          .l70d20 { fill: #1f77b4; fill-opacity: 0.7; }
          .l69d20 { fill: #d62728; fill-opacity: 0.7; }
          .l67d20 { fill: #56423e; fill-opacity: 0.7; }
          .l68d20 { fill: #bea6a1; fill-opacity: 0.7; }
          .l68d44 { fill: #0077ff;}
          .l67d44 { fill: #e09a8e;}
          .l69d44 { fill: #70b512;}
          
          .l50d0 { fill: #1f77b4; fill-opacity: 0.7; } /* Metal 4 in IHP */
          .l49d0{ fill: #70b512;}                      /* Via 3 in IHP */
          .l30d0 { fill: #d62728; fill-opacity: 0.7; } /* Metal 3 in IHP */
          .l29d0 { fill: #e39024;}                     /* Via 2 in IHP */
          .l10d0 { fill: #bea6a1; fill-opacity: 0.7; } /* Metal 2 in IHP */
          .l19d0 { fill: #e09a8e;}                     /* Via 1 in IHP */
          .l8d0 { fill: #56423e; fill-opacity: 0.7; }  /* Metal 1 in IHP */
        
          
          /* Not dealt with */
          .l64d20,
          .l65d20,
          .l65d44,
          .l66d13,
          .l66d20,
          .l66d44,
          .l67d16,
          .l68d16,
          .l70d16,
          .l69d16,
          .l86d20,
          .l93d44,
          .l94d20,
          .l95d20,
          .l70d5
          .l8d2,
          .l8d25,
          .l30d2,
          .l50d25,
          .l10d2,
          .l30d25,
          .l30d2,
          .l50d2,
          .l14d0
          .l235d4 {
            fill: #000000;
            fill-opacity: 0.0;
          }
          .l995t0 { fill: #000000; font-size: 1000px; }
          .l998t0 { fill: #000000; font-size: 1300px; }
          .l997t0 { fill: #5C4033; font-size: 1300px; }
          .l999d0 { stroke: #000000; stroke-width: 50; fill: #000000; fill-opacity: 0.2; }
        </style>
        </defs>
        
            <rect x="-227.0" y="-10881.0" width="6370.0" height="11108.0" fill="#ffffff" />
            <g transform="scale(0.1)">
              <path d="M 4875,-28965 L 4875,-29115 L 6725,-29115 L 6725,-28965 Z" class="l94d20" /> <path d="M 10635,-28965 L 10635,-29115 L 12485,-29115 L 12485,-28965 Z" class="l94d20" /> <path d="M 4875,-24965 L 4875,-25115 L 6725,-25115 L 6725,-24965 Z" class="l94d20" /> <path d="M 10635,-24965 L 10635,-25115 L 12485,-25115 L 12485,-24965 Z" class="l94d20" /> <path d="M 4875,-20965 L 4875,-21115 L 6725,-21115 L 6725,-20965 Z" class="l94d20" /> <path d="M 10635,-20965 L 10635,-21115 L 12485,-21115 L 12485,-20965 Z" class="l94d20" /> <path d="M 4875,-16965 L 4875,-17115 L 6725,-17115 L 6725,-16965 Z" class="l94d20" /> <path d="M 10635,-16965 L 10635,-17115 L 12485,-17115 L 12485,-16965 Z" class="l94d20" /> <path d="M 4875,-12965 L 4875,-13115 L 6725,-13115 L 6725,-12965 Z" class="l94d20" /> <path d="M 10635,-12965 L 10635,-13115 L 12485,-13115 L 12485,-12965 Z" class="l94d20" /> <path d="M 4875,-8965 L 4875,-9115 L 6725,-9115 L 6725,-8965 Z" class="l94d20" /> <path d="M 10635,-8965 L 10635,-9115 L 12485,-9115 L 12485,-8965 Z" class="l94d20" /> <path d="M 4875,-60965 L 4875,-61115 L 6725,-61115 L 6725,-60965 Z" class="l93d44" /> <path d="M 10635,-60965 L 10635,-61115 L 12485,-61115 L 12485,-60965 Z" class="l93d44" /> <path d="M 4875,-56965 L 4875,-57115 L 6725,-57115 L 6725,-56965 Z" class="l93d44" /> <path d="M 10635,-56965 L 10635,-57115 L 12485,-57115 L 12485,-56965 Z" class="l93d44" /> <path d="M 4875,-52965 L 4875,-53115 L 6725,-53115 L 6725,-52965 Z" class="l93d44" /> <path d="M 10635,-52965 L 10635,-53115 L 12485,-53115 L 12485,-52965 Z" class="l93d44" /> <path d="M 4875,-48965 L 4875,-49115 L 6725,-49115 L 6725,-48965 Z" class="l93d44" /> <path d="M 10635,-48965 L 10635,-49115 L 12485,-49115 L 12485,-48965 Z" class="l93d44" /> <path d="M 4875,-44965 L 4875,-45115 L 6725,-45115 L 6725,-44965 Z" class="l93d44" /> <path d="M 10635,-44965 L 10635,-45115 L 12485,-45115 L 12485,-44965 Z" class="l93d44" /> <path d="M -70,-106540 L -70,-106610 L 570,-106610 L 570,-106540 Z" class="l67d20" /> <path d="M 17830,-106540 L 17830,-106610 L 18470,-106610 L 18470,-106540 Z" class="l67d20" /> <path d="M -70,-106040 L -70,-106540 L 18470,-106540 L 18470,-106040 Z" class="l67d20" /> <path d="M -70,-105970 L -70,-106040 L 570,-106040 L 570,-105970 Z" class="l67d20" /> <path d="M 17830,-105970 L 17830,-106040 L 18470,-106040 L 18470,-105970 Z" class="l67d20" /> <path d="M 930,-105540 L 930,-105610 L 1570,-105610 L 1570,-105540 Z" class="l67d20" /> <path d="M 16830,-105540 L 16830,-105610 L 17470,-105610 L 17470,-105540 Z" class="l67d20" /> <path d="M 930,-105040 L 930,-105540 L 17470,-105540 L 17470,-105040 Z" class="l67d20" /> <path d="M 930,-104970 L 930,-105040 L 1570,-105040 L 1570,-104970 Z" class="l67d20" /> <path d="M 16830,-104970 L 16830,-105040 L 17470,-105040 L 17470,-104970 Z" class="l67d20" /> <path d="M 930,-104540 L 930,-104610 L 1570,-104610 L 1570,-104540 Z" class="l67d20" /> <path d="M 16830,-104540 L 16830,-104610 L 17470,-104610 L 17470,-104540 Z" class="l67d20" /> <path d="M 930,-104050 L 930,-104540 L 17470,-104540 L 17470,-104050 Z" class="l67d20" /> <path d="M 930,-103980 L 930,-104050 L 1570,-104050 L 1570,-103980 Z" class="l67d20" /> <path d="M 16830,-103980 L 16830,-104050 L 17470,-104050 L 17470,-103980 Z" class="l67d20" /> <path d="M 12800,-103590 L 12800,-103920 L 13300,-103920 L 13300,-103590 Z" class="l67d20" /> <path d="M 930,-98330 L 930,-98400 L 1570,-98400 L 1570,-98330 Z" class="l67d20" /> <path d="M 16830,-98330 L 16830,-98400 L 17470,-98400 L 17470,-98330 Z" class="l67d20" /> <path d="M 930,-97840 L 930,-98330 L 17470,-98330 L 17470,-97840 Z" class="l67d20" /> <path d="M 930,-97770 L 930,-97840 L 1570,-97840 L 1570,-97770 Z" class="l67d20" /> <path d="M 16830,-97770 L 16830,-97840 L 17470,-97840 L 17470,-97770 Z" class="l67d20" /> <path d="M 930,-97340 L 930,-97410 L 1570,-97410 L 1570,-97340 Z" class="l67d20" /> <path d="M 16830,-97340 L 16830,-97410 L 17470,-97410 L 17470,-97340 Z" class="l67d20" /> <path d="M 930,-96850 L 930,-97340 L 17470,-97340 L 17470,-96850 Z" class="l67d20" /> <path d="M 930,-96780 L 930,-96850 L 1570,-96850 L 1570,-96780 Z" class="l67d20" /> <path d="M 16830,-96780 L 16830,-96850 L 17470,-96850 L 17470,-96780 Z" class="l67d20" /> <path d="M 5100,-96390 L 5100,-96720 L 5600,-96720 L 5600,-96390 Z" class="l67d20" /> <path d="M 12800,-96390 L 12800,-96720 L 13300,-96720 L 13300,-96390 Z" class="l67d20" /> <path d="M 930,-91130 L 930,-91200 L 1570,-91200 L 1570,-91130 Z" class="l67d20" /> <path d="M 16830,-91130 L 16830,-91200 L 17470,-91200 L 17470,-91130 Z" class="l67d20" /> <path d="M 930,-90640 L 930,-91130 L 17470,-91130 L 17470,-90640 Z" class="l67d20" /> <path d="M 930,-90570 L 930,-90640 L 1570,-90640 L 1570,-90570 Z" class="l67d20" /> <path d="M 16830,-90570 L 16830,-90640 L 17470,-90640 L 17470,-90570 Z" class="l67d20" /> <path d="M 930,-90140 L 930,-90210 L 1570,-90210 L 1570,-90140 Z" class="l67d20" /> <path d="M 16830,-90140 L 16830,-90210 L 17470,-90210 L 17470,-90140 Z" class="l67d20" /> <path d="M 930,-89650 L 930,-90140 L 17470,-90140 L 17470,-89650 Z" class="l67d20" /> <path d="M 930,-89580 L 930,-89650 L 1570,-89650 L 1570,-89580 Z" class="l67d20" /> <path d="M 16830,-89580 L 16830,-89650 L 17470,-89650 L 17470,-89580 Z" class="l67d20" /> <path d="M 5100,-89190 L 5100,-89520 L 5600,-89520 L 5600,-89190 Z" class="l67d20" /> <path d="M 12800,-89190 L 12800,-89520 L 13300,-89520 L 13300,-89190 Z" class="l67d20" /> <path d="M 930,-83930 L 930,-84000 L 1570,-84000 L 1570,-83930 Z" class="l67d20" /> <path d="M 16830,-83930 L 16830,-84000 L 17470,-84000 L 17470,-83930 Z" class="l67d20" /> <path d="M 930,-83440 L 930,-83930 L 17470,-83930 L 17470,-83440 Z" class="l67d20" /> <path d="M 930,-83370 L 930,-83440 L 1570,-83440 L 1570,-83370 Z" class="l67d20" /> <path d="M 16830,-83370 L 16830,-83440 L 17470,-83440 L 17470,-83370 Z" class="l67d20" /> <path d="M 930,-82940 L 930,-83010 L 1570,-83010 L 1570,-82940 Z" class="l67d20" /> <path d="M 16830,-82940 L 16830,-83010 L 17470,-83010 L 17470,-82940 Z" class="l67d20" /> <path d="M 930,-82450 L 930,-82940 L 17470,-82940 L 17470,-82450 Z" class="l67d20" /> <path d="M 930,-82380 L 930,-82450 L 1570,-82450 L 1570,-82380 Z" class="l67d20" /> <path d="M 16830,-82380 L 16830,-82450 L 17470,-82450 L 17470,-82380 Z" class="l67d20" /> <path d="M 5100,-81990 L 5100,-82320 L 5600,-82320 L 5600,-81990 Z" class="l67d20" /> <path d="M 12800,-81990 L 12800,-82320 L 13300,-82320 L 13300,-81990 Z" class="l67d20" /> <path d="M 930,-76730 L 930,-76800 L 1570,-76800 L 1570,-76730 Z" class="l67d20" /> <path d="M 16830,-76730 L 16830,-76800 L 17470,-76800 L 17470,-76730 Z" class="l67d20" /> <path d="M 930,-76240 L 930,-76730 L 17470,-76730 L 17470,-76240 Z" class="l67d20" /> <path d="M 930,-76170 L 930,-76240 L 1570,-76240 L 1570,-76170 Z" class="l67d20" /> <path d="M 16830,-76170 L 16830,-76240 L 17470,-76240 L 17470,-76170 Z" class="l67d20" /> <path d="M 930,-75740 L 930,-75810 L 1570,-75810 L 1570,-75740 Z" class="l67d20" /> <path d="M 16830,-75740 L 16830,-75810 L 17470,-75810 L 17470,-75740 Z" class="l67d20" /> <path d="M 930,-75250 L 930,-75740 L 17470,-75740 L 17470,-75250 Z" class="l67d20" /> <path d="M 930,-75180 L 930,-75250 L 1570,-75250 L 1570,-75180 Z" class="l67d20" /> <path d="M 16830,-75180 L 16830,-75250 L 17470,-75250 L 17470,-75180 Z" class="l67d20" /> <path d="M 5100,-74790 L 5100,-75120 L 5600,-75120 L 5600,-74790 Z" class="l67d20" /> <path d="M 12800,-74790 L 12800,-75120 L 13300,-75120 L 13300,-74790 Z" class="l67d20" /> <path d="M 930,-69530 L 930,-69600 L 1570,-69600 L 1570,-69530 Z" class="l67d20" /> <path d="M 16830,-69530 L 16830,-69600 L 17470,-69600 L 17470,-69530 Z" class="l67d20" /> <path d="M 930,-69040 L 930,-69530 L 17470,-69530 L 17470,-69040 Z" class="l67d20" /> <path d="M 930,-68970 L 930,-69040 L 1570,-69040 L 1570,-68970 Z" class="l67d20" /> <path d="M 16830,-68970 L 16830,-69040 L 17470,-69040 L 17470,-68970 Z" class="l67d20" /> <path d="M 930,-66720 L 930,-66790 L 1570,-66790 L 1570,-66720 Z" class="l67d20" /> <path d="M 16830,-66720 L 16830,-66790 L 17470,-66790 L 17470,-66720 Z" class="l67d20" /> <path d="M 930,-65760 L 930,-66720 L 17470,-66720 L 17470,-65760 Z" class="l67d20" /> <path d="M 930,-65690 L 930,-65760 L 1570,-65760 L 1570,-65690 Z" class="l67d20" /> <path d="M 16830,-65690 L 16830,-65760 L 17470,-65760 L 17470,-65690 Z" class="l67d20" /> <path d="M 2440,-64040 L 2440,-64440 L 5320,-64440 L 5320,-64040 Z" class="l67d20" /> <path d="M 8200,-64040 L 8200,-64440 L 11080,-64440 L 11080,-64040 Z" class="l67d20" /> <path d="M 6280,-62840 L 6280,-63240 L 7880,-63240 L 7880,-62840 Z" class="l67d20" /> <path d="M 12040,-62840 L 12040,-63240 L 13640,-63240 L 13640,-62840 Z" class="l67d20" /> <path d="M 2440,-60040 L 2440,-60440 L 5320,-60440 L 5320,-60040 Z" class="l67d20" /> <path d="M 8200,-60040 L 8200,-60440 L 11080,-60440 L 11080,-60040 Z" class="l67d20" /> <path d="M 6280,-58840 L 6280,-59240 L 7880,-59240 L 7880,-58840 Z" class="l67d20" /> <path d="M 12040,-58840 L 12040,-59240 L 13640,-59240 L 13640,-58840 Z" class="l67d20" /> <path d="M 2440,-56040 L 2440,-56440 L 5320,-56440 L 5320,-56040 Z" class="l67d20" /> <path d="M 8200,-56040 L 8200,-56440 L 11080,-56440 L 11080,-56040 Z" class="l67d20" /> <path d="M 6280,-54840 L 6280,-55240 L 7880,-55240 L 7880,-54840 Z" class="l67d20" /> <path d="M 12040,-54840 L 12040,-55240 L 13640,-55240 L 13640,-54840 Z" class="l67d20" /> <path d="M 2440,-52040 L 2440,-52440 L 5320,-52440 L 5320,-52040 Z" class="l67d20" /> <path d="M 8200,-52040 L 8200,-52440 L 11080,-52440 L 11080,-52040 Z" class="l67d20" /> <path d="M 2440,-48040 L 2440,-48440 L 5320,-48440 L 5320,-48040 Z" class="l67d20" /> <path d="M 8200,-48040 L 8200,-48440 L 11080,-48440 L 11080,-48040 Z" class="l67d20" /> <path d="M 6280,-46840 L 6280,-47240 L 7880,-47240 L 7880,-46840 Z" class="l67d20" /> <path d="M 12040,-46840 L 12040,-47240 L 13640,-47240 L 13640,-46840 Z" class="l67d20" /> <path d="M 2440,-44040 L 2440,-44440 L 5320,-44440 L 5320,-44040 Z" class="l67d20" /> <path d="M 8200,-44040 L 8200,-44440 L 11080,-44440 L 11080,-44040 Z" class="l67d20" /> <path d="M 6280,-42840 L 6280,-43240 L 7880,-43240 L 7880,-42840 Z" class="l67d20" /> <path d="M 12040,-42840 L 12040,-43240 L 13640,-43240 L 13640,-42840 Z" class="l67d20" /> <path d="M 930,-40320 L 930,-40390 L 1570,-40390 L 1570,-40320 Z" class="l67d20" /> <path d="M 16830,-40320 L 16830,-40390 L 17470,-40390 L 17470,-40320 Z" class="l67d20" /> <path d="M 930,-39360 L 930,-40320 L 17470,-40320 L 17470,-39360 Z" class="l67d20" /> <path d="M 930,-39290 L 930,-39360 L 1570,-39360 L 1570,-39290 Z" class="l67d20" /> <path d="M 16830,-39290 L 16830,-39360 L 17470,-39360 L 17470,-39290 Z" class="l67d20" /> <path d="M -70,-34720 L -70,-34790 L 570,-34790 L 570,-34720 Z" class="l67d20" /> <path d="M 17830,-34720 L 17830,-34790 L 18470,-34790 L 18470,-34720 Z" class="l67d20" /> <path d="M -70,-33760 L -70,-34720 L 18470,-34720 L 18470,-33760 Z" class="l67d20" /> <path d="M -70,-33690 L -70,-33760 L 570,-33760 L 570,-33690 Z" class="l67d20" /> <path d="M 17830,-33690 L 17830,-33760 L 18470,-33760 L 18470,-33690 Z" class="l67d20" /> <path d="M 2440,-32040 L 2440,-32440 L 5320,-32440 L 5320,-32040 Z" class="l67d20" /> <path d="M 8200,-32040 L 8200,-32440 L 11080,-32440 L 11080,-32040 Z" class="l67d20" /> <path d="M 2440,-28040 L 2440,-28440 L 5320,-28440 L 5320,-28040 Z" class="l67d20" /> <path d="M 8200,-28040 L 8200,-28440 L 11080,-28440 L 11080,-28040 Z" class="l67d20" /> <path d="M 6280,-26840 L 6280,-27240 L 7880,-27240 L 7880,-26840 Z" class="l67d20" /> <path d="M 12040,-26840 L 12040,-27240 L 13640,-27240 L 13640,-26840 Z" class="l67d20" /> <path d="M 2440,-24040 L 2440,-24440 L 5320,-24440 L 5320,-24040 Z" class="l67d20" /> <path d="M 8200,-24040 L 8200,-24440 L 11080,-24440 L 11080,-24040 Z" class="l67d20" /> <path d="M 6280,-22840 L 6280,-23240 L 7880,-23240 L 7880,-22840 Z" class="l67d20" /> <path d="M 12040,-22840 L 12040,-23240 L 13640,-23240 L 13640,-22840 Z" class="l67d20" /> <path d="M 2440,-20040 L 2440,-20440 L 5320,-20440 L 5320,-20040 Z" class="l67d20" /> <path d="M 8200,-20040 L 8200,-20440 L 11080,-20440 L 11080,-20040 Z" class="l67d20" /> <path d="M 6280,-18840 L 6280,-19240 L 7880,-19240 L 7880,-18840 Z" class="l67d20" /> <path d="M 12040,-18840 L 12040,-19240 L 13640,-19240 L 13640,-18840 Z" class="l67d20" /> <path d="M 2440,-16040 L 2440,-16440 L 5320,-16440 L 5320,-16040 Z" class="l67d20" /> <path d="M 8200,-16040 L 8200,-16440 L 11080,-16440 L 11080,-16040 Z" class="l67d20" /> <path d="M 6280,-14840 L 6280,-15240 L 7880,-15240 L 7880,-14840 Z" class="l67d20" /> <path d="M 12040,-14840 L 12040,-15240 L 13640,-15240 L 13640,-14840 Z" class="l67d20" /> <path d="M 2440,-12040 L 2440,-12440 L 5320,-12440 L 5320,-12040 Z" class="l67d20" /> <path d="M 8200,-12040 L 8200,-12440 L 11080,-12440 L 11080,-12040 Z" class="l67d20" /> <path d="M 6280,-10840 L 6280,-11240 L 7880,-11240 L 7880,-10840 Z" class="l67d20" /> <path d="M 12040,-10840 L 12040,-11240 L 13640,-11240 L 13640,-10840 Z" class="l67d20" /> <path d="M 2440,-8040 L 2440,-8440 L 5320,-8440 L 5320,-8040 Z" class="l67d20" /> <path d="M 8200,-8040 L 8200,-8440 L 11080,-8440 L 11080,-8040 Z" class="l67d20" /> <path d="M -70,-4320 L -70,-4390 L 570,-4390 L 570,-4320 Z" class="l67d20" /> <path d="M 17830,-4320 L 17830,-4390 L 18470,-4390 L 18470,-4320 Z" class="l67d20" /> <path d="M -70,-3360 L -70,-4320 L 18470,-4320 L 18470,-3360 Z" class="l67d20" /> <path d="M -70,-3290 L -70,-3360 L 570,-3360 L 570,-3290 Z" class="l67d20" /> <path d="M 17830,-3290 L 17830,-3360 L 18470,-3360 L 18470,-3290 Z" class="l67d20" /> <path d="M 930,-1500 L 930,-1570 L 1570,-1570 L 1570,-1500 Z" class="l67d20" /> <path d="M 16830,-1500 L 16830,-1570 L 17470,-1570 L 17470,-1500 Z" class="l67d20" /> <path d="M 930,-1000 L 930,-1500 L 17470,-1500 L 17470,-1000 Z" class="l67d20" /> <path d="M 930,-930 L 930,-1000 L 1570,-1000 L 1570,-930 Z" class="l67d20" /> <path d="M 16830,-930 L 16830,-1000 L 17470,-1000 L 17470,-930 Z" class="l67d20" /> <path d="M -70,-500 L -70,-570 L 570,-570 L 570,-500 Z" class="l67d20" /> <path d="M 17830,-500 L 17830,-570 L 18470,-570 L 18470,-500 Z" class="l67d20" /> <path d="M -70,0 L -70,-500 L 18470,-500 L 18470,0 Z" class="l67d20" /> <path d="M -70,70 L -70,0 L 570,0 L 570,70 Z" class="l67d20" /> <path d="M 17830,70 L 17830,0 L 18470,0 L 18470,70 Z" class="l67d20" /> <path d="M 165,-106205 L 165,-106375 L 335,-106375 L 335,-106205 Z" class="l67d44" /> <path d="M 18065,-106205 L 18065,-106375 L 18235,-106375 L 18235,-106205 Z" class="l67d44" /> <path d="M 1165,-105205 L 1165,-105375 L 1335,-105375 L 1335,-105205 Z" class="l67d44" /> <path d="M 17065,-105205 L 17065,-105375 L 17235,-105375 L 17235,-105205 Z" class="l67d44" /> <path d="M 1165,-104210 L 1165,-104380 L 1335,-104380 L 1335,-104210 Z" class="l67d44" /> <path d="M 17065,-104210 L 17065,-104380 L 17235,-104380 L 17235,-104210 Z" class="l67d44" /> <path d="M 1165,-98000 L 1165,-98170 L 1335,-98170 L 1335,-98000 Z" class="l67d44" /> <path d="M 17065,-98000 L 17065,-98170 L 17235,-98170 L 17235,-98000 Z" class="l67d44" /> <path d="M 1165,-97010 L 1165,-97180 L 1335,-97180 L 1335,-97010 Z" class="l67d44" /> <path d="M 17065,-97010 L 17065,-97180 L 17235,-97180 L 17235,-97010 Z" class="l67d44" /> <path d="M 1165,-90800 L 1165,-90970 L 1335,-90970 L 1335,-90800 Z" class="l67d44" /> <path d="M 17065,-90800 L 17065,-90970 L 17235,-90970 L 17235,-90800 Z" class="l67d44" /> <path d="M 1165,-89810 L 1165,-89980 L 1335,-89980 L 1335,-89810 Z" class="l67d44" /> <path d="M 17065,-89810 L 17065,-89980 L 17235,-89980 L 17235,-89810 Z" class="l67d44" /> <path d="M 1165,-83600 L 1165,-83770 L 1335,-83770 L 1335,-83600 Z" class="l67d44" /> <path d="M 17065,-83600 L 17065,-83770 L 17235,-83770 L 17235,-83600 Z" class="l67d44" /> <path d="M 1165,-82610 L 1165,-82780 L 1335,-82780 L 1335,-82610 Z" class="l67d44" /> <path d="M 17065,-82610 L 17065,-82780 L 17235,-82780 L 17235,-82610 Z" class="l67d44" /> <path d="M 1165,-76400 L 1165,-76570 L 1335,-76570 L 1335,-76400 Z" class="l67d44" /> <path d="M 17065,-76400 L 17065,-76570 L 17235,-76570 L 17235,-76400 Z" class="l67d44" /> <path d="M 1165,-75410 L 1165,-75580 L 1335,-75580 L 1335,-75410 Z" class="l67d44" /> <path d="M 17065,-75410 L 17065,-75580 L 17235,-75580 L 17235,-75410 Z" class="l67d44" /> <path d="M 1165,-69200 L 1165,-69370 L 1335,-69370 L 1335,-69200 Z" class="l67d44" /> <path d="M 17065,-69200 L 17065,-69370 L 17235,-69370 L 17235,-69200 Z" class="l67d44" /> <path d="M 1165,-66515 L 1165,-66685 L 1335,-66685 L 1335,-66515 Z" class="l67d44" /> <path d="M 17065,-66515 L 17065,-66685 L 17235,-66685 L 17235,-66515 Z" class="l67d44" /> <path d="M 1165,-66155 L 1165,-66325 L 1335,-66325 L 1335,-66155 Z" class="l67d44" /> <path d="M 17065,-66155 L 17065,-66325 L 17235,-66325 L 17235,-66155 Z" class="l67d44" /> <path d="M 1165,-65795 L 1165,-65965 L 1335,-65965 L 1335,-65795 Z" class="l67d44" /> <path d="M 17065,-65795 L 17065,-65965 L 17235,-65965 L 17235,-65795 Z" class="l67d44" /> <path d="M 1165,-40115 L 1165,-40285 L 1335,-40285 L 1335,-40115 Z" class="l67d44" /> <path d="M 17065,-40115 L 17065,-40285 L 17235,-40285 L 17235,-40115 Z" class="l67d44" /> <path d="M 1165,-39755 L 1165,-39925 L 1335,-39925 L 1335,-39755 Z" class="l67d44" /> <path d="M 17065,-39755 L 17065,-39925 L 17235,-39925 L 17235,-39755 Z" class="l67d44" /> <path d="M 1165,-39395 L 1165,-39565 L 1335,-39565 L 1335,-39395 Z" class="l67d44" /> <path d="M 17065,-39395 L 17065,-39565 L 17235,-39565 L 17235,-39395 Z" class="l67d44" /> <path d="M 165,-34515 L 165,-34685 L 335,-34685 L 335,-34515 Z" class="l67d44" /> <path d="M 18065,-34515 L 18065,-34685 L 18235,-34685 L 18235,-34515 Z" class="l67d44" /> <path d="M 165,-34155 L 165,-34325 L 335,-34325 L 335,-34155 Z" class="l67d44" /> <path d="M 18065,-34155 L 18065,-34325 L 18235,-34325 L 18235,-34155 Z" class="l67d44" /> <path d="M 165,-33795 L 165,-33965 L 335,-33965 L 335,-33795 Z" class="l67d44" /> <path d="M 18065,-33795 L 18065,-33965 L 18235,-33965 L 18235,-33795 Z" class="l67d44" /> <path d="M 165,-4115 L 165,-4285 L 335,-4285 L 335,-4115 Z" class="l67d44" /> <path d="M 18065,-4115 L 18065,-4285 L 18235,-4285 L 18235,-4115 Z" class="l67d44" /> <path d="M 165,-3755 L 165,-3925 L 335,-3925 L 335,-3755 Z" class="l67d44" /> <path d="M 18065,-3755 L 18065,-3925 L 18235,-3925 L 18235,-3755 Z" class="l67d44" /> <path d="M 165,-3395 L 165,-3565 L 335,-3565 L 335,-3395 Z" class="l67d44" /> <path d="M 18065,-3395 L 18065,-3565 L 18235,-3565 L 18235,-3395 Z" class="l67d44" /> <path d="M 1165,-1165 L 1165,-1335 L 1335,-1335 L 1335,-1165 Z" class="l67d44" /> <path d="M 17065,-1165 L 17065,-1335 L 17235,-1335 L 17235,-1165 Z" class="l67d44" /> <path d="M 165,-165 L 165,-335 L 335,-335 L 335,-165 Z" class="l67d44" /> <path d="M 18065,-165 L 18065,-335 L 18235,-335 L 18235,-165 Z" class="l67d44" /> <path d="M 0,-34790 L 0,-105970 L 500,-105970 L 500,-34790 Z" class="l68d20" /> <path d="M 1000,-40390 L 1000,-65690 L 1500,-65690 L 1500,-40390 Z" class="l68d20" /> <path d="M 16900,-40390 L 16900,-65690 L 17400,-65690 L 17400,-40390 Z" class="l68d20" /> <path d="M 17900,-34790 L 17900,-105970 L 18400,-105970 L 18400,-34790 Z" class="l68d20" /> <path d="M 16830,-104970 L 16830,-105610 L 17470,-105610 L 17470,-104970 Z" class="l68d20" /> <path d="M 1000,-104610 L 1000,-104970 L 1500,-104970 L 1500,-104610 Z" class="l68d20" /> <path d="M 16900,-104610 L 16900,-104970 L 17400,-104970 L 17400,-104610 Z" class="l68d20" /> <path d="M 930,-103980 L 930,-104610 L 1570,-104610 L 1570,-103980 Z" class="l68d20" /> <path d="M 16830,-103980 L 16830,-104610 L 17470,-104610 L 17470,-103980 Z" class="l68d20" /> <path d="M 1000,-98400 L 1000,-103980 L 1500,-103980 L 1500,-98400 Z" class="l68d20" /> <path d="M 12530,-100900 L 12530,-101560 L 13570,-101560 L 13570,-100900 Z" class="l68d20" /> <path d="M 16900,-98400 L 16900,-103980 L 17400,-103980 L 17400,-98400 Z" class="l68d20" /> <path d="M 930,-97770 L 930,-98400 L 1570,-98400 L 1570,-97770 Z" class="l68d20" /> <path d="M 16830,-97770 L 16830,-98400 L 17470,-98400 L 17470,-97770 Z" class="l68d20" /> <path d="M 1000,-97410 L 1000,-97770 L 1500,-97770 L 1500,-97410 Z" class="l68d20" /> <path d="M 16900,-97410 L 16900,-97770 L 17400,-97770 L 17400,-97410 Z" class="l68d20" /> <path d="M 930,-96780 L 930,-97410 L 1570,-97410 L 1570,-96780 Z" class="l68d20" /> <path d="M 16830,-96780 L 16830,-97410 L 17470,-97410 L 17470,-96780 Z" class="l68d20" /> <path d="M 1000,-91200 L 1000,-96780 L 1500,-96780 L 1500,-91200 Z" class="l68d20" /> <path d="M 4830,-93700 L 4830,-94360 L 5870,-94360 L 5870,-93700 Z" class="l68d20" /> <path d="M 12530,-93700 L 12530,-94360 L 13570,-94360 L 13570,-93700 Z" class="l68d20" /> <path d="M 16900,-91200 L 16900,-96780 L 17400,-96780 L 17400,-91200 Z" class="l68d20" /> <path d="M 930,-90570 L 930,-91200 L 1570,-91200 L 1570,-90570 Z" class="l68d20" /> <path d="M 16830,-90570 L 16830,-91200 L 17470,-91200 L 17470,-90570 Z" class="l68d20" /> <path d="M 1000,-90210 L 1000,-90570 L 1500,-90570 L 1500,-90210 Z" class="l68d20" /> <path d="M 16900,-90210 L 16900,-90570 L 17400,-90570 L 17400,-90210 Z" class="l68d20" /> <path d="M 930,-89580 L 930,-90210 L 1570,-90210 L 1570,-89580 Z" class="l68d20" /> <path d="M 16830,-89580 L 16830,-90210 L 17470,-90210 L 17470,-89580 Z" class="l68d20" /> <path d="M 1000,-84000 L 1000,-89580 L 1500,-89580 L 1500,-84000 Z" class="l68d20" /> <path d="M 4830,-86500 L 4830,-87160 L 5870,-87160 L 5870,-86500 Z" class="l68d20" /> <path d="M 12530,-86500 L 12530,-87160 L 13570,-87160 L 13570,-86500 Z" class="l68d20" /> <path d="M 16900,-84000 L 16900,-89580 L 17400,-89580 L 17400,-84000 Z" class="l68d20" /> <path d="M 930,-83370 L 930,-84000 L 1570,-84000 L 1570,-83370 Z" class="l68d20" /> <path d="M 16830,-83370 L 16830,-84000 L 17470,-84000 L 17470,-83370 Z" class="l68d20" /> <path d="M 1000,-83010 L 1000,-83370 L 1500,-83370 L 1500,-83010 Z" class="l68d20" /> <path d="M 16900,-83010 L 16900,-83370 L 17400,-83370 L 17400,-83010 Z" class="l68d20" /> <path d="M 930,-82380 L 930,-83010 L 1570,-83010 L 1570,-82380 Z" class="l68d20" /> <path d="M 16830,-82380 L 16830,-83010 L 17470,-83010 L 17470,-82380 Z" class="l68d20" /> <path d="M 1000,-76800 L 1000,-82380 L 1500,-82380 L 1500,-76800 Z" class="l68d20" /> <path d="M 4830,-79300 L 4830,-79960 L 5870,-79960 L 5870,-79300 Z" class="l68d20" /> <path d="M 12530,-79300 L 12530,-79960 L 13570,-79960 L 13570,-79300 Z" class="l68d20" /> <path d="M 16900,-76800 L 16900,-82380 L 17400,-82380 L 17400,-76800 Z" class="l68d20" /> <path d="M 930,-76170 L 930,-76800 L 1570,-76800 L 1570,-76170 Z" class="l68d20" /> <path d="M 16830,-76170 L 16830,-76800 L 17470,-76800 L 17470,-76170 Z" class="l68d20" /> <path d="M 1000,-75810 L 1000,-76170 L 1500,-76170 L 1500,-75810 Z" class="l68d20" /> <path d="M 16900,-75810 L 16900,-76170 L 17400,-76170 L 17400,-75810 Z" class="l68d20" /> <path d="M 930,-75180 L 930,-75810 L 1570,-75810 L 1570,-75180 Z" class="l68d20" /> <path d="M 16830,-75180 L 16830,-75810 L 17470,-75810 L 17470,-75180 Z" class="l68d20" /> <path d="M 1000,-69600 L 1000,-75180 L 1500,-75180 L 1500,-69600 Z" class="l68d20" /> <path d="M 4830,-72100 L 4830,-72760 L 5870,-72760 L 5870,-72100 Z" class="l68d20" /> <path d="M 12530,-72100 L 12530,-72760 L 13570,-72760 L 13570,-72100 Z" class="l68d20" /> <path d="M 16900,-69600 L 16900,-75180 L 17400,-75180 L 17400,-69600 Z" class="l68d20" /> <path d="M 930,-68970 L 930,-69600 L 1570,-69600 L 1570,-68970 Z" class="l68d20" /> <path d="M 16830,-68970 L 16830,-69600 L 17470,-69600 L 17470,-68970 Z" class="l68d20" /> <path d="M 1000,-66790 L 1000,-68970 L 1500,-68970 L 1500,-66790 Z" class="l68d20" /> <path d="M 16900,-66790 L 16900,-68970 L 17400,-68970 L 17400,-66790 Z" class="l68d20" /> <path d="M 930,-65690 L 930,-66790 L 1570,-66790 L 1570,-65690 Z" class="l68d20" /> <path d="M 16830,-65690 L 16830,-66790 L 17470,-66790 L 17470,-65690 Z" class="l68d20" /> <path d="M 17830,-105970 L 17830,-106610 L 18470,-106610 L 18470,-105970 Z" class="l68d20" /> <path d="M 3650,-62770 L 3650,-63310 L 4110,-63310 L 4110,-62770 Z" class="l68d20" /> <path d="M 9410,-62770 L 9410,-63310 L 9870,-63310 L 9870,-62770 Z" class="l68d20" /> <path d="M 3650,-58770 L 3650,-59310 L 4110,-59310 L 4110,-58770 Z" class="l68d20" /> <path d="M 9410,-58770 L 9410,-59310 L 9870,-59310 L 9870,-58770 Z" class="l68d20" /> <path d="M 3650,-54770 L 3650,-55310 L 4110,-55310 L 4110,-54770 Z" class="l68d20" /> <path d="M 9410,-54770 L 9410,-55310 L 9870,-55310 L 9870,-54770 Z" class="l68d20" /> <path d="M -70,-105970 L -70,-106610 L 570,-106610 L 570,-105970 Z" class="l68d20" /> <path d="M 930,-104970 L 930,-105610 L 1570,-105610 L 1570,-104970 Z" class="l68d20" /> <path d="M 3650,-46770 L 3650,-47310 L 4110,-47310 L 4110,-46770 Z" class="l68d20" /> <path d="M 9410,-46770 L 9410,-47310 L 9870,-47310 L 9870,-46770 Z" class="l68d20" /> <path d="M 3650,-42770 L 3650,-43310 L 4110,-43310 L 4110,-42770 Z" class="l68d20" /> <path d="M 9410,-42770 L 9410,-43310 L 9870,-43310 L 9870,-42770 Z" class="l68d20" /> <path d="M 3650,-50770 L 3650,-51310 L 4110,-51310 L 4110,-50770 Z" class="l68d20" /> <path d="M 930,-39290 L 930,-40390 L 1570,-40390 L 1570,-39290 Z" class="l68d20" /> <path d="M 16830,-39290 L 16830,-40390 L 17470,-40390 L 17470,-39290 Z" class="l68d20" /> <path d="M -70,-33690 L -70,-34790 L 570,-34790 L 570,-33690 Z" class="l68d20" /> <path d="M 0,-4390 L 0,-33690 L 500,-33690 L 500,-4390 Z" class="l68d20" /> <path d="M -70,-3290 L -70,-4390 L 570,-4390 L 570,-3290 Z" class="l68d20" /> <path d="M 0,-570 L 0,-3290 L 500,-3290 L 500,-570 Z" class="l68d20" /> <path d="M 1000,-1570 L 1000,-39290 L 1500,-39290 L 1500,-1570 Z" class="l68d20" /> <path d="M 3650,-30770 L 3650,-31310 L 4110,-31310 L 4110,-30770 Z" class="l68d20" /> <path d="M 9410,-30770 L 9410,-31310 L 9870,-31310 L 9870,-30770 Z" class="l68d20" /> <path d="M 11970,-29170 L 11970,-29710 L 13070,-29710 L 13070,-29170 Z" class="l68d20" /> <path d="M 3650,-26770 L 3650,-27310 L 4110,-27310 L 4110,-26770 Z" class="l68d20" /> <path d="M 9410,-26770 L 9410,-27310 L 9870,-27310 L 9870,-26770 Z" class="l68d20" /> <path d="M 3650,-22770 L 3650,-23310 L 4110,-23310 L 4110,-22770 Z" class="l68d20" /> <path d="M 9410,-22770 L 9410,-23310 L 9870,-23310 L 9870,-22770 Z" class="l68d20" /> <path d="M 3650,-18770 L 3650,-19310 L 4110,-19310 L 4110,-18770 Z" class="l68d20" /> <path d="M 9410,-18770 L 9410,-19310 L 9870,-19310 L 9870,-18770 Z" class="l68d20" /> <path d="M 3650,-14770 L 3650,-15310 L 4110,-15310 L 4110,-14770 Z" class="l68d20" /> <path d="M 9410,-14770 L 9410,-15310 L 9870,-15310 L 9870,-14770 Z" class="l68d20" /> <path d="M 3650,-10770 L 3650,-11310 L 4110,-11310 L 4110,-10770 Z" class="l68d20" /> <path d="M 9410,-10770 L 9410,-11310 L 9870,-11310 L 9870,-10770 Z" class="l68d20" /> <path d="M 3650,-6770 L 3650,-7310 L 4110,-7310 L 4110,-6770 Z" class="l68d20" /> <path d="M 9410,-6770 L 9410,-7310 L 9870,-7310 L 9870,-6770 Z" class="l68d20" /> <path d="M 11970,-5170 L 11970,-5710 L 13070,-5710 L 13070,-5170 Z" class="l68d20" /> <path d="M 16900,-1570 L 16900,-39290 L 17400,-39290 L 17400,-1570 Z" class="l68d20" /> <path d="M 6210,-49170 L 6210,-49710 L 7310,-49710 L 7310,-49170 Z" class="l68d20" /> <path d="M 17830,-33690 L 17830,-34790 L 18470,-34790 L 18470,-33690 Z" class="l68d20" /> <path d="M 17900,-4390 L 17900,-33690 L 18400,-33690 L 18400,-4390 Z" class="l68d20" /> <path d="M 17830,-3290 L 17830,-4390 L 18470,-4390 L 18470,-3290 Z" class="l68d20" /> <path d="M 930,-930 L 930,-1570 L 1570,-1570 L 1570,-930 Z" class="l68d20" /> <path d="M 16830,-930 L 16830,-1570 L 17470,-1570 L 17470,-930 Z" class="l68d20" /> <path d="M 17900,-570 L 17900,-3290 L 18400,-3290 L 18400,-570 Z" class="l68d20" /> <path d="M -70,70 L -70,-570 L 570,-570 L 570,70 Z" class="l68d20" /> <path d="M 17830,70 L 17830,-570 L 18470,-570 L 18470,70 Z" class="l68d20" /> <path d="M 6280,-29240 L 6280,-29640 L 7240,-29640 L 7240,-29240 Z" class="l68d16" /> <path d="M 0,-106040 L 0,-106540 L 18400,-106540 L 18400,-106040 Z" class="l67d16" /> <path d="M 1000,-105040 L 1000,-105540 L 17400,-105540 L 17400,-105040 Z" class="l67d16" /> <path d="M 12655,-101155 L 12655,-101305 L 12805,-101305 L 12805,-101155 Z" class="l68d44" /> <path d="M 12975,-101155 L 12975,-101305 L 13125,-101305 L 13125,-101155 Z" class="l68d44" /> <path d="M 13295,-101155 L 13295,-101305 L 13445,-101305 L 13445,-101155 Z" class="l68d44" /> <path d="M 4955,-93955 L 4955,-94105 L 5105,-94105 L 5105,-93955 Z" class="l68d44" /> <path d="M 5275,-93955 L 5275,-94105 L 5425,-94105 L 5425,-93955 Z" class="l68d44" /> <path d="M 5595,-93955 L 5595,-94105 L 5745,-94105 L 5745,-93955 Z" class="l68d44" /> <path d="M 12655,-93955 L 12655,-94105 L 12805,-94105 L 12805,-93955 Z" class="l68d44" /> <path d="M 12975,-93955 L 12975,-94105 L 13125,-94105 L 13125,-93955 Z" class="l68d44" /> <path d="M 13295,-93955 L 13295,-94105 L 13445,-94105 L 13445,-93955 Z" class="l68d44" /> <path d="M 4955,-86755 L 4955,-86905 L 5105,-86905 L 5105,-86755 Z" class="l68d44" /> <path d="M 5275,-86755 L 5275,-86905 L 5425,-86905 L 5425,-86755 Z" class="l68d44" /> <path d="M 5595,-86755 L 5595,-86905 L 5745,-86905 L 5745,-86755 Z" class="l68d44" /> <path d="M 12655,-86755 L 12655,-86905 L 12805,-86905 L 12805,-86755 Z" class="l68d44" /> <path d="M 12975,-86755 L 12975,-86905 L 13125,-86905 L 13125,-86755 Z" class="l68d44" /> <path d="M 13295,-86755 L 13295,-86905 L 13445,-86905 L 13445,-86755 Z" class="l68d44" /> <path d="M 4955,-79555 L 4955,-79705 L 5105,-79705 L 5105,-79555 Z" class="l68d44" /> <path d="M 5275,-79555 L 5275,-79705 L 5425,-79705 L 5425,-79555 Z" class="l68d44" /> <path d="M 5595,-79555 L 5595,-79705 L 5745,-79705 L 5745,-79555 Z" class="l68d44" /> <path d="M 12655,-79555 L 12655,-79705 L 12805,-79705 L 12805,-79555 Z" class="l68d44" /> <path d="M 12975,-79555 L 12975,-79705 L 13125,-79705 L 13125,-79555 Z" class="l68d44" /> <path d="M 13295,-79555 L 13295,-79705 L 13445,-79705 L 13445,-79555 Z" class="l68d44" /> <path d="M 4955,-72355 L 4955,-72505 L 5105,-72505 L 5105,-72355 Z" class="l68d44" /> <path d="M 5275,-72355 L 5275,-72505 L 5425,-72505 L 5425,-72355 Z" class="l68d44" /> <path d="M 5595,-72355 L 5595,-72505 L 5745,-72505 L 5745,-72355 Z" class="l68d44" /> <path d="M 12655,-72355 L 12655,-72505 L 12805,-72505 L 12805,-72355 Z" class="l68d44" /> <path d="M 12975,-72355 L 12975,-72505 L 13125,-72505 L 13125,-72355 Z" class="l68d44" /> <path d="M 13295,-72355 L 13295,-72505 L 13445,-72505 L 13445,-72355 Z" class="l68d44" /> <path d="M 3805,-62965 L 3805,-63115 L 3955,-63115 L 3955,-62965 Z" class="l68d44" /> <path d="M 9565,-62965 L 9565,-63115 L 9715,-63115 L 9715,-62965 Z" class="l68d44" /> <path d="M 3805,-58965 L 3805,-59115 L 3955,-59115 L 3955,-58965 Z" class="l68d44" /> <path d="M 9565,-58965 L 9565,-59115 L 9715,-59115 L 9715,-58965 Z" class="l68d44" /> <path d="M 3805,-54965 L 3805,-55115 L 3955,-55115 L 3955,-54965 Z" class="l68d44" /> <path d="M 9565,-54965 L 9565,-55115 L 9715,-55115 L 9715,-54965 Z" class="l68d44" /> <path d="M 3805,-50965 L 3805,-51115 L 3955,-51115 L 3955,-50965 Z" class="l68d44" /> <path d="M 6365,-49365 L 6365,-49515 L 6515,-49515 L 6515,-49365 Z" class="l68d44" /> <path d="M 6685,-49365 L 6685,-49515 L 6835,-49515 L 6835,-49365 Z" class="l68d44" /> <path d="M 7005,-49365 L 7005,-49515 L 7155,-49515 L 7155,-49365 Z" class="l68d44" /> <path d="M 3805,-46965 L 3805,-47115 L 3955,-47115 L 3955,-46965 Z" class="l68d44" /> <path d="M 9565,-46965 L 9565,-47115 L 9715,-47115 L 9715,-46965 Z" class="l68d44" /> <path d="M 3805,-42965 L 3805,-43115 L 3955,-43115 L 3955,-42965 Z" class="l68d44" /> <path d="M 9565,-42965 L 9565,-43115 L 9715,-43115 L 9715,-42965 Z" class="l68d44" /> <path d="M 3805,-30965 L 3805,-31115 L 3955,-31115 L 3955,-30965 Z" class="l68d44" /> <path d="M 9565,-30965 L 9565,-31115 L 9715,-31115 L 9715,-30965 Z" class="l68d44" /> <path d="M 12125,-29365 L 12125,-29515 L 12275,-29515 L 12275,-29365 Z" class="l68d44" /> <path d="M 12445,-29365 L 12445,-29515 L 12595,-29515 L 12595,-29365 Z" class="l68d44" /> <path d="M 12765,-29365 L 12765,-29515 L 12915,-29515 L 12915,-29365 Z" class="l68d44" /> <path d="M 3805,-26965 L 3805,-27115 L 3955,-27115 L 3955,-26965 Z" class="l68d44" /> <path d="M 9565,-26965 L 9565,-27115 L 9715,-27115 L 9715,-26965 Z" class="l68d44" /> <path d="M 3805,-22965 L 3805,-23115 L 3955,-23115 L 3955,-22965 Z" class="l68d44" /> <path d="M 9565,-22965 L 9565,-23115 L 9715,-23115 L 9715,-22965 Z" class="l68d44" /> <path d="M 3805,-18965 L 3805,-19115 L 3955,-19115 L 3955,-18965 Z" class="l68d44" /> <path d="M 9565,-18965 L 9565,-19115 L 9715,-19115 L 9715,-18965 Z" class="l68d44" /> <path d="M 3805,-14965 L 3805,-15115 L 3955,-15115 L 3955,-14965 Z" class="l68d44" /> <path d="M 9565,-14965 L 9565,-15115 L 9715,-15115 L 9715,-14965 Z" class="l68d44" /> <path d="M 3805,-10965 L 3805,-11115 L 3955,-11115 L 3955,-10965 Z" class="l68d44" /> <path d="M 9565,-10965 L 9565,-11115 L 9715,-11115 L 9715,-10965 Z" class="l68d44" /> <path d="M 3805,-6965 L 3805,-7115 L 3955,-7115 L 3955,-6965 Z" class="l68d44" /> <path d="M 9565,-6965 L 9565,-7115 L 9715,-7115 L 9715,-6965 Z" class="l68d44" /> <path d="M 12125,-5365 L 12125,-5515 L 12275,-5515 L 12275,-5365 Z" class="l68d44" /> <path d="M 12445,-5365 L 12445,-5515 L 12595,-5515 L 12595,-5365 Z" class="l68d44" /> <path d="M 12765,-5365 L 12765,-5515 L 12915,-5515 L 12915,-5365 Z" class="l68d44" /> <path d="M 11540,-101370 L 11540,-101440 L 11980,-101440 L 11980,-101370 Z" class="l69d20" /> <path d="M 12530,-101370 L 12530,-101560 L 13570,-101560 L 13570,-101370 Z" class="l69d20" /> <path d="M 14100,-101370 L 14100,-101440 L 14540,-101440 L 14540,-101370 Z" class="l69d20" /> <path d="M 11540,-101070 L 11540,-101370 L 14540,-101370 L 14540,-101070 Z" class="l69d20" /> <path d="M 11540,-101000 L 11540,-101070 L 11980,-101070 L 11980,-101000 Z" class="l69d20" /> <path d="M 12530,-100900 L 12530,-101070 L 13570,-101070 L 13570,-100900 Z" class="l69d20" /> <path d="M 14100,-101000 L 14100,-101070 L 14540,-101070 L 14540,-101000 Z" class="l69d20" /> <path d="M 3860,-94170 L 3860,-94240 L 4300,-94240 L 4300,-94170 Z" class="l69d20" /> <path d="M 4830,-94170 L 4830,-94360 L 5870,-94360 L 5870,-94170 Z" class="l69d20" /> <path d="M 11540,-94170 L 11540,-94240 L 11980,-94240 L 11980,-94170 Z" class="l69d20" /> <path d="M 3860,-93870 L 3860,-94170 L 11980,-94170 L 11980,-93870 Z" class="l69d20" /> <path d="M 3860,-93800 L 3860,-93870 L 4300,-93870 L 4300,-93800 Z" class="l69d20" /> <path d="M 4830,-93700 L 4830,-93870 L 5870,-93870 L 5870,-93700 Z" class="l69d20" /> <path d="M 11540,-93800 L 11540,-93870 L 11980,-93870 L 11980,-93800 Z" class="l69d20" /> <path d="M 12530,-94170 L 12530,-94360 L 13570,-94360 L 13570,-94170 Z" class="l69d20" /> <path d="M 14100,-94170 L 14100,-94240 L 14540,-94240 L 14540,-94170 Z" class="l69d20" /> <path d="M 12530,-93870 L 12530,-94170 L 14540,-94170 L 14540,-93870 Z" class="l69d20" /> <path d="M 12530,-93700 L 12530,-93870 L 13570,-93870 L 13570,-93700 Z" class="l69d20" /> <path d="M 14100,-93800 L 14100,-93870 L 14540,-93870 L 14540,-93800 Z" class="l69d20" /> <path d="M 3860,-86970 L 3860,-87040 L 4300,-87040 L 4300,-86970 Z" class="l69d20" /> <path d="M 4830,-86970 L 4830,-87160 L 5870,-87160 L 5870,-86970 Z" class="l69d20" /> <path d="M 3860,-86670 L 3860,-86970 L 5870,-86970 L 5870,-86670 Z" class="l69d20" /> <path d="M 3860,-86600 L 3860,-86670 L 4300,-86670 L 4300,-86600 Z" class="l69d20" /> <path d="M 4830,-86500 L 4830,-86670 L 5870,-86670 L 5870,-86500 Z" class="l69d20" /> <path d="M 12530,-86970 L 12530,-87160 L 13570,-87160 L 13570,-86970 Z" class="l69d20" /> <path d="M 14100,-86970 L 14100,-87040 L 14540,-87040 L 14540,-86970 Z" class="l69d20" /> <path d="M 12530,-86670 L 12530,-86970 L 14540,-86970 L 14540,-86670 Z" class="l69d20" /> <path d="M 12530,-86500 L 12530,-86670 L 13570,-86670 L 13570,-86500 Z" class="l69d20" /> <path d="M 14100,-86600 L 14100,-86670 L 14540,-86670 L 14540,-86600 Z" class="l69d20" /> <path d="M 3860,-79770 L 3860,-79840 L 4300,-79840 L 4300,-79770 Z" class="l69d20" /> <path d="M 4830,-79770 L 4830,-79960 L 5870,-79960 L 5870,-79770 Z" class="l69d20" /> <path d="M 3860,-79470 L 3860,-79770 L 5870,-79770 L 5870,-79470 Z" class="l69d20" /> <path d="M 3860,-79400 L 3860,-79470 L 4300,-79470 L 4300,-79400 Z" class="l69d20" /> <path d="M 4830,-79300 L 4830,-79470 L 5870,-79470 L 5870,-79300 Z" class="l69d20" /> <path d="M 11540,-79770 L 11540,-79840 L 11980,-79840 L 11980,-79770 Z" class="l69d20" /> <path d="M 12530,-79770 L 12530,-79960 L 13570,-79960 L 13570,-79770 Z" class="l69d20" /> <path d="M 14100,-79770 L 14100,-79840 L 14540,-79840 L 14540,-79770 Z" class="l69d20" /> <path d="M 11540,-79470 L 11540,-79770 L 14540,-79770 L 14540,-79470 Z" class="l69d20" /> <path d="M 11540,-79400 L 11540,-79470 L 11980,-79470 L 11980,-79400 Z" class="l69d20" /> <path d="M 12530,-79300 L 12530,-79470 L 13570,-79470 L 13570,-79300 Z" class="l69d20" /> <path d="M 14100,-79400 L 14100,-79470 L 14540,-79470 L 14540,-79400 Z" class="l69d20" /> <path d="M 4830,-72100 L 4830,-72760 L 5870,-72760 L 5870,-72100 Z" class="l69d20" /> <path d="M 11540,-72570 L 11540,-72640 L 11980,-72640 L 11980,-72570 Z" class="l69d20" /> <path d="M 12530,-72570 L 12530,-72760 L 13570,-72760 L 13570,-72570 Z" class="l69d20" /> <path d="M 11540,-72270 L 11540,-72570 L 13570,-72570 L 13570,-72270 Z" class="l69d20" /> <path d="M 11540,-72200 L 11540,-72270 L 11980,-72270 L 11980,-72200 Z" class="l69d20" /> <path d="M 12530,-72100 L 12530,-72270 L 13570,-72270 L 13570,-72100 Z" class="l69d20" /> <path d="M 5100,-71290 L 5100,-71360 L 5540,-71360 L 5540,-71290 Z" class="l69d20" /> <path d="M 13740,-71290 L 13740,-71360 L 14180,-71360 L 14180,-71290 Z" class="l69d20" /> <path d="M 5100,-70990 L 5100,-71290 L 14180,-71290 L 14180,-70990 Z" class="l69d20" /> <path d="M 5100,-70920 L 5100,-70990 L 5540,-70990 L 5540,-70920 Z" class="l69d20" /> <path d="M 13740,-70920 L 13740,-70990 L 14180,-70990 L 14180,-70920 Z" class="l69d20" /> <path d="M 2380,-63180 L 2380,-63250 L 2820,-63250 L 2820,-63180 Z" class="l69d20" /> <path d="M 3650,-63180 L 3650,-63310 L 4110,-63310 L 4110,-63180 Z" class="l69d20" /> <path d="M 8140,-63180 L 8140,-63250 L 8580,-63250 L 8580,-63180 Z" class="l69d20" /> <path d="M 9410,-63180 L 9410,-63310 L 9870,-63310 L 9870,-63180 Z" class="l69d20" /> <path d="M 2380,-62880 L 2380,-63180 L 9870,-63180 L 9870,-62880 Z" class="l69d20" /> <path d="M 2380,-62810 L 2380,-62880 L 2820,-62880 L 2820,-62810 Z" class="l69d20" /> <path d="M 3650,-62770 L 3650,-62880 L 4110,-62880 L 4110,-62770 Z" class="l69d20" /> <path d="M 8140,-62810 L 8140,-62880 L 8580,-62880 L 8580,-62810 Z" class="l69d20" /> <path d="M 9410,-62770 L 9410,-62880 L 9870,-62880 L 9870,-62770 Z" class="l69d20" /> <path d="M 2380,-59180 L 2380,-59250 L 2820,-59250 L 2820,-59180 Z" class="l69d20" /> <path d="M 3650,-59180 L 3650,-59310 L 4110,-59310 L 4110,-59180 Z" class="l69d20" /> <path d="M 2380,-58880 L 2380,-59180 L 4110,-59180 L 4110,-58880 Z" class="l69d20" /> <path d="M 2380,-58810 L 2380,-58880 L 2820,-58880 L 2820,-58810 Z" class="l69d20" /> <path d="M 3650,-58770 L 3650,-58880 L 4110,-58880 L 4110,-58770 Z" class="l69d20" /> <path d="M 8140,-59180 L 8140,-59250 L 8580,-59250 L 8580,-59180 Z" class="l69d20" /> <path d="M 9410,-59180 L 9410,-59310 L 9870,-59310 L 9870,-59180 Z" class="l69d20" /> <path d="M 8140,-58880 L 8140,-59180 L 9870,-59180 L 9870,-58880 Z" class="l69d20" /> <path d="M 8140,-58810 L 8140,-58880 L 8580,-58880 L 8580,-58810 Z" class="l69d20" /> <path d="M 9410,-58770 L 9410,-58880 L 9870,-58880 L 9870,-58770 Z" class="l69d20" /> <path d="M 2380,-55180 L 2380,-55250 L 2820,-55250 L 2820,-55180 Z" class="l69d20" /> <path d="M 3650,-55180 L 3650,-55310 L 4110,-55310 L 4110,-55180 Z" class="l69d20" /> <path d="M 2380,-54880 L 2380,-55180 L 4110,-55180 L 4110,-54880 Z" class="l69d20" /> <path d="M 2380,-54810 L 2380,-54880 L 2820,-54880 L 2820,-54810 Z" class="l69d20" /> <path d="M 3650,-54770 L 3650,-54880 L 4110,-54880 L 4110,-54770 Z" class="l69d20" /> <path d="M 8140,-55180 L 8140,-55250 L 8580,-55250 L 8580,-55180 Z" class="l69d20" /> <path d="M 9410,-55180 L 9410,-55310 L 9870,-55310 L 9870,-55180 Z" class="l69d20" /> <path d="M 8140,-54880 L 8140,-55180 L 9870,-55180 L 9870,-54880 Z" class="l69d20" /> <path d="M 8140,-54810 L 8140,-54880 L 8580,-54880 L 8580,-54810 Z" class="l69d20" /> <path d="M 9410,-54770 L 9410,-54880 L 9870,-54880 L 9870,-54770 Z" class="l69d20" /> <path d="M 11970,-29170 L 11970,-29710 L 13070,-29710 L 13070,-29170 Z" class="l69d20" /> <path d="M 7180,-24160 L 7180,-24460 L 9540,-24460 L 9540,-24160 Z" class="l69d20" /> <path d="M 7180,-22880 L 7180,-23180 L 11140,-23180 L 11140,-22880 Z" class="l69d20" /> <path d="M 7180,-20160 L 7180,-20460 L 9540,-20460 L 9540,-20160 Z" class="l69d20" /> <path d="M 7180,-18880 L 7180,-19180 L 11140,-19180 L 11140,-18880 Z" class="l69d20" /> <path d="M 7180,-16160 L 7180,-16460 L 9540,-16460 L 9540,-16160 Z" class="l69d20" /> <path d="M 7180,-14880 L 7180,-15180 L 11140,-15180 L 11140,-14880 Z" class="l69d20" /> <path d="M 7180,-12160 L 7180,-12460 L 9540,-12460 L 9540,-12160 Z" class="l69d20" /> <path d="M 2380,-10880 L 2380,-11180 L 9870,-11180 L 9870,-10880 Z" class="l69d20" /> <path d="M 3650,-6850 L 3650,-7150 L 9870,-7150 L 9870,-6850 Z" class="l69d20" /> <path d="M 9420,-33260 L 9420,-33330 L 9860,-33330 L 9860,-33260 Z" class="l69d20" /> <path d="M 12300,-33260 L 12300,-33330 L 12740,-33330 L 12740,-33260 Z" class="l69d20" /> <path d="M 9420,-32960 L 9420,-33260 L 12740,-33260 L 12740,-32960 Z" class="l69d20" /> <path d="M 9420,-32890 L 9420,-32960 L 9860,-32960 L 9860,-32890 Z" class="l69d20" /> <path d="M 12300,-32890 L 12300,-32960 L 12740,-32960 L 12740,-32890 Z" class="l69d20" /> <path d="M 8140,-31150 L 8140,-31220 L 8580,-31220 L 8580,-31150 Z" class="l69d20" /> <path d="M 9410,-31150 L 9410,-31310 L 9870,-31310 L 9870,-31150 Z" class="l69d20" /> <path d="M 8140,-30850 L 8140,-31150 L 9870,-31150 L 9870,-30850 Z" class="l69d20" /> <path d="M 8140,-30780 L 8140,-30850 L 8580,-30850 L 8580,-30780 Z" class="l69d20" /> <path d="M 9410,-30770 L 9410,-30850 L 9870,-30850 L 9870,-30770 Z" class="l69d20" /> <path d="M 8140,-47180 L 8140,-47250 L 8580,-47250 L 8580,-47180 Z" class="l69d20" /> <path d="M 9410,-47180 L 9410,-47310 L 9870,-47310 L 9870,-47180 Z" class="l69d20" /> <path d="M 8140,-46880 L 8140,-47180 L 9870,-47180 L 9870,-46880 Z" class="l69d20" /> <path d="M 8140,-46810 L 8140,-46880 L 8580,-46880 L 8580,-46810 Z" class="l69d20" /> <path d="M 9410,-46770 L 9410,-46880 L 9870,-46880 L 9870,-46770 Z" class="l69d20" /> <path d="M 8140,-43180 L 8140,-43250 L 8580,-43250 L 8580,-43180 Z" class="l69d20" /> <path d="M 9410,-43180 L 9410,-43310 L 9870,-43310 L 9870,-43180 Z" class="l69d20" /> <path d="M 8140,-42880 L 8140,-43180 L 9870,-43180 L 9870,-42880 Z" class="l69d20" /> <path d="M 8140,-42810 L 8140,-42880 L 8580,-42880 L 8580,-42810 Z" class="l69d20" /> <path d="M 9410,-42770 L 9410,-42880 L 9870,-42880 L 9870,-42770 Z" class="l69d20" /> <path d="M 2380,-47180 L 2380,-47250 L 2820,-47250 L 2820,-47180 Z" class="l69d20" /> <path d="M 3650,-47180 L 3650,-47310 L 4110,-47310 L 4110,-47180 Z" class="l69d20" /> <path d="M 2380,-46880 L 2380,-47180 L 4110,-47180 L 4110,-46880 Z" class="l69d20" /> <path d="M 2380,-46810 L 2380,-46880 L 2820,-46880 L 2820,-46810 Z" class="l69d20" /> <path d="M 3650,-46770 L 3650,-46880 L 4110,-46880 L 4110,-46770 Z" class="l69d20" /> <path d="M 1420,-31180 L 1420,-31250 L 1860,-31250 L 1860,-31180 Z" class="l69d20" /> <path d="M 2380,-31180 L 2380,-31250 L 2820,-31250 L 2820,-31180 Z" class="l69d20" /> <path d="M 3650,-31180 L 3650,-31310 L 4110,-31310 L 4110,-31180 Z" class="l69d20" /> <path d="M 1420,-30880 L 1420,-31180 L 4110,-31180 L 4110,-30880 Z" class="l69d20" /> <path d="M 1420,-30810 L 1420,-30880 L 1860,-30880 L 1860,-30810 Z" class="l69d20" /> <path d="M 2380,-30810 L 2380,-30880 L 2820,-30880 L 2820,-30810 Z" class="l69d20" /> <path d="M 3650,-30770 L 3650,-30880 L 4110,-30880 L 4110,-30770 Z" class="l69d20" /> <path d="M 2380,-51180 L 2380,-51250 L 2820,-51250 L 2820,-51180 Z" class="l69d20" /> <path d="M 3650,-51180 L 3650,-51310 L 4110,-51310 L 4110,-51180 Z" class="l69d20" /> <path d="M 2380,-50880 L 2380,-51180 L 4110,-51180 L 4110,-50880 Z" class="l69d20" /> <path d="M 2380,-50810 L 2380,-50880 L 2820,-50880 L 2820,-50810 Z" class="l69d20" /> <path d="M 3650,-50770 L 3650,-50880 L 4110,-50880 L 4110,-50770 Z" class="l69d20" /> <path d="M 2380,-43180 L 2380,-43250 L 2820,-43250 L 2820,-43180 Z" class="l69d20" /> <path d="M 3650,-43180 L 3650,-43310 L 4110,-43310 L 4110,-43180 Z" class="l69d20" /> <path d="M 2380,-42880 L 2380,-43180 L 4110,-43180 L 4110,-42880 Z" class="l69d20" /> <path d="M 2380,-42810 L 2380,-42880 L 2820,-42880 L 2820,-42810 Z" class="l69d20" /> <path d="M 3650,-42770 L 3650,-42880 L 4110,-42880 L 4110,-42770 Z" class="l69d20" /> <path d="M 1420,-49580 L 1420,-49650 L 1860,-49650 L 1860,-49580 Z" class="l69d20" /> <path d="M 6210,-49580 L 6210,-49710 L 7310,-49710 L 7310,-49580 Z" class="l69d20" /> <path d="M 1420,-49280 L 1420,-49580 L 7310,-49580 L 7310,-49280 Z" class="l69d20" /> <path d="M 1420,-49210 L 1420,-49280 L 1860,-49280 L 1860,-49210 Z" class="l69d20" /> <path d="M 6210,-49170 L 6210,-49280 L 7310,-49280 L 7310,-49170 Z" class="l69d20" /> <path d="M 3650,-23180 L 3650,-23310 L 4110,-23310 L 4110,-23180 Z" class="l69d20" /> <path d="M 2380,-22880 L 2380,-23180 L 4110,-23180 L 4110,-22880 Z" class="l69d20" /> <path d="M 2380,-22810 L 2380,-22880 L 2820,-22880 L 2820,-22810 Z" class="l69d20" /> <path d="M 3650,-22770 L 3650,-22880 L 4110,-22880 L 4110,-22770 Z" class="l69d20" /> <path d="M 7180,-23180 L 7180,-23250 L 7620,-23250 L 7620,-23180 Z" class="l69d20" /> <path d="M 3650,-27180 L 3650,-27310 L 4110,-27310 L 4110,-27180 Z" class="l69d20" /> <path d="M 7180,-22810 L 7180,-22880 L 7620,-22880 L 7620,-22810 Z" class="l69d20" /> <path d="M 7180,-20460 L 7180,-20530 L 7620,-20530 L 7620,-20460 Z" class="l69d20" /> <path d="M 2380,-26880 L 2380,-27180 L 4110,-27180 L 4110,-26880 Z" class="l69d20" /> <path d="M 7180,-20090 L 7180,-20160 L 7620,-20160 L 7620,-20090 Z" class="l69d20" /> <path d="M 2380,-19180 L 2380,-19250 L 2820,-19250 L 2820,-19180 Z" class="l69d20" /> <path d="M 3650,-19180 L 3650,-19310 L 4110,-19310 L 4110,-19180 Z" class="l69d20" /> <path d="M 2380,-18880 L 2380,-19180 L 4110,-19180 L 4110,-18880 Z" class="l69d20" /> <path d="M 2380,-18810 L 2380,-18880 L 2820,-18880 L 2820,-18810 Z" class="l69d20" /> <path d="M 3650,-18770 L 3650,-18880 L 4110,-18880 L 4110,-18770 Z" class="l69d20" /> <path d="M 7180,-19180 L 7180,-19250 L 7620,-19250 L 7620,-19180 Z" class="l69d20" /> <path d="M 2380,-26810 L 2380,-26880 L 2820,-26880 L 2820,-26810 Z" class="l69d20" /> <path d="M 7180,-18810 L 7180,-18880 L 7620,-18880 L 7620,-18810 Z" class="l69d20" /> <path d="M 7180,-16460 L 7180,-16530 L 7620,-16530 L 7620,-16460 Z" class="l69d20" /> <path d="M 3650,-26770 L 3650,-26880 L 4110,-26880 L 4110,-26770 Z" class="l69d20" /> <path d="M 7180,-16090 L 7180,-16160 L 7620,-16160 L 7620,-16090 Z" class="l69d20" /> <path d="M 2380,-15180 L 2380,-15250 L 2820,-15250 L 2820,-15180 Z" class="l69d20" /> <path d="M 3650,-15180 L 3650,-15310 L 4110,-15310 L 4110,-15180 Z" class="l69d20" /> <path d="M 2380,-14880 L 2380,-15180 L 4110,-15180 L 4110,-14880 Z" class="l69d20" /> <path d="M 2380,-14810 L 2380,-14880 L 2820,-14880 L 2820,-14810 Z" class="l69d20" /> <path d="M 3650,-14770 L 3650,-14880 L 4110,-14880 L 4110,-14770 Z" class="l69d20" /> <path d="M 7180,-15180 L 7180,-15250 L 7620,-15250 L 7620,-15180 Z" class="l69d20" /> <path d="M 7180,-24460 L 7180,-24530 L 7620,-24530 L 7620,-24460 Z" class="l69d20" /> <path d="M 7180,-14810 L 7180,-14880 L 7620,-14880 L 7620,-14810 Z" class="l69d20" /> <path d="M 7180,-12460 L 7180,-12530 L 7620,-12530 L 7620,-12460 Z" class="l69d20" /> <path d="M 2380,-27180 L 2380,-27250 L 2820,-27250 L 2820,-27180 Z" class="l69d20" /> <path d="M 7180,-12090 L 7180,-12160 L 7620,-12160 L 7620,-12090 Z" class="l69d20" /> <path d="M 2380,-11180 L 2380,-11250 L 2820,-11250 L 2820,-11180 Z" class="l69d20" /> <path d="M 3650,-11180 L 3650,-11310 L 4110,-11310 L 4110,-11180 Z" class="l69d20" /> <path d="M 7180,-11180 L 7180,-11250 L 7620,-11250 L 7620,-11180 Z" class="l69d20" /> <path d="M 7180,-24090 L 7180,-24160 L 7620,-24160 L 7620,-24090 Z" class="l69d20" /> <path d="M 2380,-10810 L 2380,-10880 L 2820,-10880 L 2820,-10810 Z" class="l69d20" /> <path d="M 3650,-10770 L 3650,-10880 L 4110,-10880 L 4110,-10770 Z" class="l69d20" /> <path d="M 7180,-10810 L 7180,-10880 L 7620,-10880 L 7620,-10810 Z" class="l69d20" /> <path d="M 3650,-7150 L 3650,-7310 L 4110,-7310 L 4110,-7150 Z" class="l69d20" /> <path d="M 2380,-23180 L 2380,-23250 L 2820,-23250 L 2820,-23180 Z" class="l69d20" /> <path d="M 3650,-6770 L 3650,-6850 L 4110,-6850 L 4110,-6770 Z" class="l69d20" /> <path d="M 9410,-23180 L 9410,-23310 L 9870,-23310 L 9870,-23180 Z" class="l69d20" /> <path d="M 9410,-18770 L 9410,-18880 L 9870,-18880 L 9870,-18770 Z" class="l69d20" /> <path d="M 10700,-18810 L 10700,-18880 L 11140,-18880 L 11140,-18810 Z" class="l69d20" /> <path d="M 9100,-17900 L 9100,-17970 L 9540,-17970 L 9540,-17900 Z" class="l69d20" /> <path d="M 10700,-17900 L 10700,-17970 L 11140,-17970 L 11140,-17900 Z" class="l69d20" /> <path d="M 9100,-17600 L 9100,-17900 L 11140,-17900 L 11140,-17600 Z" class="l69d20" /> <path d="M 9100,-17530 L 9100,-17600 L 9540,-17600 L 9540,-17530 Z" class="l69d20" /> <path d="M 10700,-17530 L 10700,-17600 L 11140,-17600 L 11140,-17530 Z" class="l69d20" /> <path d="M 10700,-23180 L 10700,-23250 L 11140,-23250 L 11140,-23180 Z" class="l69d20" /> <path d="M 9100,-16460 L 9100,-16530 L 9540,-16530 L 9540,-16460 Z" class="l69d20" /> <path d="M 10700,-25530 L 10700,-25600 L 11140,-25600 L 11140,-25530 Z" class="l69d20" /> <path d="M 9410,-27180 L 9410,-27310 L 9870,-27310 L 9870,-27180 Z" class="l69d20" /> <path d="M 9100,-16090 L 9100,-16160 L 9540,-16160 L 9540,-16090 Z" class="l69d20" /> <path d="M 9410,-22770 L 9410,-22880 L 9870,-22880 L 9870,-22770 Z" class="l69d20" /> <path d="M 10700,-22810 L 10700,-22880 L 11140,-22880 L 11140,-22810 Z" class="l69d20" /> <path d="M 9100,-21900 L 9100,-21970 L 9540,-21970 L 9540,-21900 Z" class="l69d20" /> <path d="M 10700,-21900 L 10700,-21970 L 11140,-21970 L 11140,-21900 Z" class="l69d20" /> <path d="M 9100,-21600 L 9100,-21900 L 11140,-21900 L 11140,-21600 Z" class="l69d20" /> <path d="M 9100,-21530 L 9100,-21600 L 9540,-21600 L 9540,-21530 Z" class="l69d20" /> <path d="M 9410,-15180 L 9410,-15310 L 9870,-15310 L 9870,-15180 Z" class="l69d20" /> <path d="M 10700,-15180 L 10700,-15250 L 11140,-15250 L 11140,-15180 Z" class="l69d20" /> <path d="M 10700,-21530 L 10700,-21600 L 11140,-21600 L 11140,-21530 Z" class="l69d20" /> <path d="M 9100,-24460 L 9100,-24530 L 9540,-24530 L 9540,-24460 Z" class="l69d20" /> <path d="M 9410,-14770 L 9410,-14880 L 9870,-14880 L 9870,-14770 Z" class="l69d20" /> <path d="M 10700,-14810 L 10700,-14880 L 11140,-14880 L 11140,-14810 Z" class="l69d20" /> <path d="M 9100,-13900 L 9100,-13970 L 9540,-13970 L 9540,-13900 Z" class="l69d20" /> <path d="M 10700,-13900 L 10700,-13970 L 11140,-13970 L 11140,-13900 Z" class="l69d20" /> <path d="M 9100,-13600 L 9100,-13900 L 11140,-13900 L 11140,-13600 Z" class="l69d20" /> <path d="M 9100,-13530 L 9100,-13600 L 9540,-13600 L 9540,-13530 Z" class="l69d20" /> <path d="M 10700,-13530 L 10700,-13600 L 11140,-13600 L 11140,-13530 Z" class="l69d20" /> <path d="M 9100,-20460 L 9100,-20530 L 9540,-20530 L 9540,-20460 Z" class="l69d20" /> <path d="M 9100,-12460 L 9100,-12530 L 9540,-12530 L 9540,-12460 Z" class="l69d20" /> <path d="M 10700,-27180 L 10700,-27250 L 11140,-27250 L 11140,-27180 Z" class="l69d20" /> <path d="M 9410,-26880 L 9410,-27180 L 11140,-27180 L 11140,-26880 Z" class="l69d20" /> <path d="M 9100,-12090 L 9100,-12160 L 9540,-12160 L 9540,-12090 Z" class="l69d20" /> <path d="M 9100,-20090 L 9100,-20160 L 9540,-20160 L 9540,-20090 Z" class="l69d20" /> <path d="M 9100,-24090 L 9100,-24160 L 9540,-24160 L 9540,-24090 Z" class="l69d20" /> <path d="M 9410,-26770 L 9410,-26880 L 9870,-26880 L 9870,-26770 Z" class="l69d20" /> <path d="M 9410,-11180 L 9410,-11310 L 9870,-11310 L 9870,-11180 Z" class="l69d20" /> <path d="M 10700,-26810 L 10700,-26880 L 11140,-26880 L 11140,-26810 Z" class="l69d20" /> <path d="M 9100,-25900 L 9100,-25970 L 9540,-25970 L 9540,-25900 Z" class="l69d20" /> <path d="M 10700,-25900 L 10700,-25970 L 11140,-25970 L 11140,-25900 Z" class="l69d20" /> <path d="M 9100,-25600 L 9100,-25900 L 11140,-25900 L 11140,-25600 Z" class="l69d20" /> <path d="M 9410,-10770 L 9410,-10880 L 9870,-10880 L 9870,-10770 Z" class="l69d20" /> <path d="M 9410,-19180 L 9410,-19310 L 9870,-19310 L 9870,-19180 Z" class="l69d20" /> <path d="M 8140,-7150 L 8140,-7220 L 8580,-7220 L 8580,-7150 Z" class="l69d20" /> <path d="M 9410,-7150 L 9410,-7310 L 9870,-7310 L 9870,-7150 Z" class="l69d20" /> <path d="M 10700,-19180 L 10700,-19250 L 11140,-19250 L 11140,-19180 Z" class="l69d20" /> <path d="M 9100,-25530 L 9100,-25600 L 9540,-25600 L 9540,-25530 Z" class="l69d20" /> <path d="M 8140,-6780 L 8140,-6850 L 8580,-6850 L 8580,-6780 Z" class="l69d20" /> <path d="M 9410,-6770 L 9410,-6850 L 9870,-6850 L 9870,-6770 Z" class="l69d20" /> <path d="M 11970,-5530 L 11970,-5710 L 13070,-5710 L 13070,-5530 Z" class="l69d20" /> <path d="M 13740,-5530 L 13740,-5600 L 14180,-5600 L 14180,-5530 Z" class="l69d20" /> <path d="M 11970,-5230 L 11970,-5530 L 14180,-5530 L 14180,-5230 Z" class="l69d20" /> <path d="M 11970,-5170 L 11970,-5230 L 13070,-5230 L 13070,-5170 Z" class="l69d20" /> <path d="M 13740,-5160 L 13740,-5230 L 14180,-5230 L 14180,-5160 Z" class="l69d20" /> <path d="M 11660,-101120 L 11660,-101320 L 11860,-101320 L 11860,-101120 Z" class="l69d44" /> <path d="M 14220,-101120 L 14220,-101320 L 14420,-101320 L 14420,-101120 Z" class="l69d44" /> <path d="M 3980,-93920 L 3980,-94120 L 4180,-94120 L 4180,-93920 Z" class="l69d44" /> <path d="M 11660,-93920 L 11660,-94120 L 11860,-94120 L 11860,-93920 Z" class="l69d44" /> <path d="M 14220,-93920 L 14220,-94120 L 14420,-94120 L 14420,-93920 Z" class="l69d44" /> <path d="M 3980,-86720 L 3980,-86920 L 4180,-86920 L 4180,-86720 Z" class="l69d44" /> <path d="M 14220,-86720 L 14220,-86920 L 14420,-86920 L 14420,-86720 Z" class="l69d44" /> <path d="M 3980,-79520 L 3980,-79720 L 4180,-79720 L 4180,-79520 Z" class="l69d44" /> <path d="M 11660,-79520 L 11660,-79720 L 11860,-79720 L 11860,-79520 Z" class="l69d44" /> <path d="M 14220,-79520 L 14220,-79720 L 14420,-79720 L 14420,-79520 Z" class="l69d44" /> <path d="M 5050,-72330 L 5050,-72530 L 5250,-72530 L 5250,-72330 Z" class="l69d44" /> <path d="M 5450,-72330 L 5450,-72530 L 5650,-72530 L 5650,-72330 Z" class="l69d44" /> <path d="M 11660,-72320 L 11660,-72520 L 11860,-72520 L 11860,-72320 Z" class="l69d44" /> <path d="M 5220,-71040 L 5220,-71240 L 5420,-71240 L 5420,-71040 Z" class="l69d44" /> <path d="M 13860,-71040 L 13860,-71240 L 14060,-71240 L 14060,-71040 Z" class="l69d44" /> <path d="M 2500,-62930 L 2500,-63130 L 2700,-63130 L 2700,-62930 Z" class="l69d44" /> <path d="M 8260,-62930 L 8260,-63130 L 8460,-63130 L 8460,-62930 Z" class="l69d44" /> <path d="M 2500,-58930 L 2500,-59130 L 2700,-59130 L 2700,-58930 Z" class="l69d44" /> <path d="M 8260,-58930 L 8260,-59130 L 8460,-59130 L 8460,-58930 Z" class="l69d44" /> <path d="M 2500,-54930 L 2500,-55130 L 2700,-55130 L 2700,-54930 Z" class="l69d44" /> <path d="M 8260,-54930 L 8260,-55130 L 8460,-55130 L 8460,-54930 Z" class="l69d44" /> <path d="M 2500,-50930 L 2500,-51130 L 2700,-51130 L 2700,-50930 Z" class="l69d44" /> <path d="M 1540,-49330 L 1540,-49530 L 1740,-49530 L 1740,-49330 Z" class="l69d44" /> <path d="M 2500,-46930 L 2500,-47130 L 2700,-47130 L 2700,-46930 Z" class="l69d44" /> <path d="M 8260,-46930 L 8260,-47130 L 8460,-47130 L 8460,-46930 Z" class="l69d44" /> <path d="M 2500,-42930 L 2500,-43130 L 2700,-43130 L 2700,-42930 Z" class="l69d44" /> <path d="M 8260,-42930 L 8260,-43130 L 8460,-43130 L 8460,-42930 Z" class="l69d44" /> <path d="M 9540,-42940 L 9540,-43140 L 9740,-43140 L 9740,-42940 Z" class="l69d44" /> <path d="M 9540,-33010 L 9540,-33210 L 9740,-33210 L 9740,-33010 Z" class="l69d44" /> <path d="M 12420,-33010 L 12420,-33210 L 12620,-33210 L 12620,-33010 Z" class="l69d44" /> <path d="M 1540,-30930 L 1540,-31130 L 1740,-31130 L 1740,-30930 Z" class="l69d44" /> <path d="M 2500,-30930 L 2500,-31130 L 2700,-31130 L 2700,-30930 Z" class="l69d44" /> <path d="M 8260,-30900 L 8260,-31100 L 8460,-31100 L 8460,-30900 Z" class="l69d44" /> <path d="M 12220,-29340 L 12220,-29540 L 12420,-29540 L 12420,-29340 Z" class="l69d44" /> <path d="M 12620,-29340 L 12620,-29540 L 12820,-29540 L 12820,-29340 Z" class="l69d44" /> <path d="M 2500,-26930 L 2500,-27130 L 2700,-27130 L 2700,-26930 Z" class="l69d44" /> <path d="M 10820,-26930 L 10820,-27130 L 11020,-27130 L 11020,-26930 Z" class="l69d44" /> <path d="M 9220,-25650 L 9220,-25850 L 9420,-25850 L 9420,-25650 Z" class="l69d44" /> <path d="M 10820,-25650 L 10820,-25850 L 11020,-25850 L 11020,-25650 Z" class="l69d44" /> <path d="M 7300,-24210 L 7300,-24410 L 7500,-24410 L 7500,-24210 Z" class="l69d44" /> <path d="M 9220,-24210 L 9220,-24410 L 9420,-24410 L 9420,-24210 Z" class="l69d44" /> <path d="M 2500,-22930 L 2500,-23130 L 2700,-23130 L 2700,-22930 Z" class="l69d44" /> <path d="M 7300,-22930 L 7300,-23130 L 7500,-23130 L 7500,-22930 Z" class="l69d44" /> <path d="M 10820,-22930 L 10820,-23130 L 11020,-23130 L 11020,-22930 Z" class="l69d44" /> <path d="M 9220,-21650 L 9220,-21850 L 9420,-21850 L 9420,-21650 Z" class="l69d44" /> <path d="M 10820,-21650 L 10820,-21850 L 11020,-21850 L 11020,-21650 Z" class="l69d44" /> <path d="M 7300,-20210 L 7300,-20410 L 7500,-20410 L 7500,-20210 Z" class="l69d44" /> <path d="M 9220,-20210 L 9220,-20410 L 9420,-20410 L 9420,-20210 Z" class="l69d44" /> <path d="M 2500,-18930 L 2500,-19130 L 2700,-19130 L 2700,-18930 Z" class="l69d44" /> <path d="M 7300,-18930 L 7300,-19130 L 7500,-19130 L 7500,-18930 Z" class="l69d44" /> <path d="M 10820,-18930 L 10820,-19130 L 11020,-19130 L 11020,-18930 Z" class="l69d44" /> <path d="M 9220,-17650 L 9220,-17850 L 9420,-17850 L 9420,-17650 Z" class="l69d44" /> <path d="M 10820,-17650 L 10820,-17850 L 11020,-17850 L 11020,-17650 Z" class="l69d44" /> <path d="M 7300,-16210 L 7300,-16410 L 7500,-16410 L 7500,-16210 Z" class="l69d44" /> <path d="M 9220,-16210 L 9220,-16410 L 9420,-16410 L 9420,-16210 Z" class="l69d44" /> <path d="M 2500,-14930 L 2500,-15130 L 2700,-15130 L 2700,-14930 Z" class="l69d44" /> <path d="M 7300,-14930 L 7300,-15130 L 7500,-15130 L 7500,-14930 Z" class="l69d44" /> <path d="M 10820,-14930 L 10820,-15130 L 11020,-15130 L 11020,-14930 Z" class="l69d44" /> <path d="M 9220,-13650 L 9220,-13850 L 9420,-13850 L 9420,-13650 Z" class="l69d44" /> <path d="M 10820,-13650 L 10820,-13850 L 11020,-13850 L 11020,-13650 Z" class="l69d44" /> <path d="M 7300,-12210 L 7300,-12410 L 7500,-12410 L 7500,-12210 Z" class="l69d44" /> <path d="M 9220,-12210 L 9220,-12410 L 9420,-12410 L 9420,-12210 Z" class="l69d44" /> <path d="M 2500,-10930 L 2500,-11130 L 2700,-11130 L 2700,-10930 Z" class="l69d44" /> <path d="M 7300,-10930 L 7300,-11130 L 7500,-11130 L 7500,-10930 Z" class="l69d44" /> <path d="M 8260,-6900 L 8260,-7100 L 8460,-7100 L 8460,-6900 Z" class="l69d44" /> <path d="M 13860,-5280 L 13860,-5480 L 14060,-5480 L 14060,-5280 Z" class="l69d44" /> <path d="M 2450,-51250 L 2450,-54810 L 2750,-54810 L 2750,-51250 Z" class="l70d20" /> <path d="M 8210,-47250 L 8210,-54810 L 8510,-54810 L 8510,-47250 Z" class="l70d20" /> <path d="M 13810,-5600 L 13810,-70920 L 14110,-70920 L 14110,-5600 Z" class="l70d20" /> <path d="M 14170,-94240 L 14170,-101000 L 14470,-101000 L 14470,-94240 Z" class="l70d20" /> <path d="M 3860,-93800 L 3860,-94240 L 4300,-94240 L 4300,-93800 Z" class="l70d20" /> <path d="M 11540,-93800 L 11540,-94240 L 11980,-94240 L 11980,-93800 Z" class="l70d20" /> <path d="M 14100,-93800 L 14100,-94240 L 14540,-94240 L 14540,-93800 Z" class="l70d20" /> <path d="M 3930,-87040 L 3930,-93800 L 4230,-93800 L 4230,-87040 Z" class="l70d20" /> <path d="M 14170,-87040 L 14170,-93800 L 14470,-93800 L 14470,-87040 Z" class="l70d20" /> <path d="M 3860,-86600 L 3860,-87040 L 4300,-87040 L 4300,-86600 Z" class="l70d20" /> <path d="M 14100,-86600 L 14100,-87040 L 14540,-87040 L 14540,-86600 Z" class="l70d20" /> <path d="M 3930,-79840 L 3930,-86600 L 4230,-86600 L 4230,-79840 Z" class="l70d20" /> <path d="M 14170,-79840 L 14170,-86600 L 14470,-86600 L 14470,-79840 Z" class="l70d20" /> <path d="M 3860,-79400 L 3860,-79840 L 4300,-79840 L 4300,-79400 Z" class="l70d20" /> <path d="M 11540,-79400 L 11540,-79840 L 11980,-79840 L 11980,-79400 Z" class="l70d20" /> <path d="M 14100,-79400 L 14100,-79840 L 14540,-79840 L 14540,-79400 Z" class="l70d20" /> <path d="M 4830,-72100 L 4830,-72760 L 5870,-72760 L 5870,-72100 Z" class="l70d20" /> <path d="M 11610,-72640 L 11610,-79400 L 11910,-79400 L 11910,-72640 Z" class="l70d20" /> <path d="M 11540,-72200 L 11540,-72640 L 11980,-72640 L 11980,-72200 Z" class="l70d20" /> <path d="M 5170,-71360 L 5170,-72100 L 5470,-72100 L 5470,-71360 Z" class="l70d20" /> <path d="M 5100,-70920 L 5100,-71360 L 5540,-71360 L 5540,-70920 Z" class="l70d20" /> <path d="M 13740,-70920 L 13740,-71360 L 14180,-71360 L 14180,-70920 Z" class="l70d20" /> <path d="M 2380,-62810 L 2380,-63250 L 2820,-63250 L 2820,-62810 Z" class="l70d20" /> <path d="M 8140,-62810 L 8140,-63250 L 8580,-63250 L 8580,-62810 Z" class="l70d20" /> <path d="M 2450,-59250 L 2450,-62810 L 2750,-62810 L 2750,-59250 Z" class="l70d20" /> <path d="M 8210,-59250 L 8210,-62810 L 8510,-62810 L 8510,-59250 Z" class="l70d20" /> <path d="M 2380,-58810 L 2380,-59250 L 2820,-59250 L 2820,-58810 Z" class="l70d20" /> <path d="M 8140,-58810 L 8140,-59250 L 8580,-59250 L 8580,-58810 Z" class="l70d20" /> <path d="M 2450,-55250 L 2450,-58810 L 2750,-58810 L 2750,-55250 Z" class="l70d20" /> <path d="M 8210,-55250 L 8210,-58810 L 8510,-58810 L 8510,-55250 Z" class="l70d20" /> <path d="M 2380,-54810 L 2380,-55250 L 2820,-55250 L 2820,-54810 Z" class="l70d20" /> <path d="M 8140,-54810 L 8140,-55250 L 8580,-55250 L 8580,-54810 Z" class="l70d20" /> <path d="M 11540,-101000 L 11540,-101440 L 11980,-101440 L 11980,-101000 Z" class="l70d20" /> <path d="M 14100,-101000 L 14100,-101440 L 14540,-101440 L 14540,-101000 Z" class="l70d20" /> <path d="M 11610,-94240 L 11610,-101000 L 11910,-101000 L 11910,-94240 Z" class="l70d20" /> <path d="M 1490,-31250 L 1490,-49210 L 1790,-49210 L 1790,-31250 Z" class="l70d20" /> <path d="M 2450,-47250 L 2450,-50810 L 2750,-50810 L 2750,-47250 Z" class="l70d20" /> <path d="M 2380,-50810 L 2380,-51250 L 2820,-51250 L 2820,-50810 Z" class="l70d20" /> <path d="M 2380,-46810 L 2380,-47250 L 2820,-47250 L 2820,-46810 Z" class="l70d20" /> <path d="M 8140,-46810 L 8140,-47250 L 8580,-47250 L 8580,-46810 Z" class="l70d20" /> <path d="M 2450,-43250 L 2450,-46810 L 2750,-46810 L 2750,-43250 Z" class="l70d20" /> <path d="M 8210,-43250 L 8210,-46810 L 8510,-46810 L 8510,-43250 Z" class="l70d20" /> <path d="M 2380,-42810 L 2380,-43250 L 2820,-43250 L 2820,-42810 Z" class="l70d20" /> <path d="M 8140,-42810 L 8140,-43250 L 8580,-43250 L 8580,-42810 Z" class="l70d20" /> <path d="M 9410,-42770 L 9410,-43310 L 9870,-43310 L 9870,-42770 Z" class="l70d20" /> <path d="M 9490,-33330 L 9490,-42770 L 9790,-42770 L 9790,-33330 Z" class="l70d20" /> <path d="M 9420,-32890 L 9420,-33330 L 9860,-33330 L 9860,-32890 Z" class="l70d20" /> <path d="M 12300,-32890 L 12300,-33330 L 12740,-33330 L 12740,-32890 Z" class="l70d20" /> <path d="M 1420,-30810 L 1420,-31250 L 1860,-31250 L 1860,-30810 Z" class="l70d20" /> <path d="M 2380,-30810 L 2380,-31250 L 2820,-31250 L 2820,-30810 Z" class="l70d20" /> <path d="M 2450,-27250 L 2450,-30810 L 2750,-30810 L 2750,-27250 Z" class="l70d20" /> <path d="M 8140,-30780 L 8140,-31220 L 8580,-31220 L 8580,-30780 Z" class="l70d20" /> <path d="M 2380,-26810 L 2380,-27250 L 2820,-27250 L 2820,-26810 Z" class="l70d20" /> <path d="M 2450,-23250 L 2450,-26810 L 2750,-26810 L 2750,-23250 Z" class="l70d20" /> <path d="M 7180,-24090 L 7180,-24530 L 7620,-24530 L 7620,-24090 Z" class="l70d20" /> <path d="M 7250,-23250 L 7250,-24090 L 7550,-24090 L 7550,-23250 Z" class="l70d20" /> <path d="M 2380,-22810 L 2380,-23250 L 2820,-23250 L 2820,-22810 Z" class="l70d20" /> <path d="M 7180,-22810 L 7180,-23250 L 7620,-23250 L 7620,-22810 Z" class="l70d20" /> <path d="M 2450,-19250 L 2450,-22810 L 2750,-22810 L 2750,-19250 Z" class="l70d20" /> <path d="M 7180,-20090 L 7180,-20530 L 7620,-20530 L 7620,-20090 Z" class="l70d20" /> <path d="M 7250,-19250 L 7250,-20090 L 7550,-20090 L 7550,-19250 Z" class="l70d20" /> <path d="M 2380,-18810 L 2380,-19250 L 2820,-19250 L 2820,-18810 Z" class="l70d20" /> <path d="M 7180,-18810 L 7180,-19250 L 7620,-19250 L 7620,-18810 Z" class="l70d20" /> <path d="M 2450,-15250 L 2450,-18810 L 2750,-18810 L 2750,-15250 Z" class="l70d20" /> <path d="M 7180,-16090 L 7180,-16530 L 7620,-16530 L 7620,-16090 Z" class="l70d20" /> <path d="M 7250,-15250 L 7250,-16090 L 7550,-16090 L 7550,-15250 Z" class="l70d20" /> <path d="M 2380,-14810 L 2380,-15250 L 2820,-15250 L 2820,-14810 Z" class="l70d20" /> <path d="M 7180,-14810 L 7180,-15250 L 7620,-15250 L 7620,-14810 Z" class="l70d20" /> <path d="M 2450,-11250 L 2450,-14810 L 2750,-14810 L 2750,-11250 Z" class="l70d20" /> <path d="M 7180,-12090 L 7180,-12530 L 7620,-12530 L 7620,-12090 Z" class="l70d20" /> <path d="M 7250,-11250 L 7250,-12090 L 7550,-12090 L 7550,-11250 Z" class="l70d20" /> <path d="M 2380,-10810 L 2380,-11250 L 2820,-11250 L 2820,-10810 Z" class="l70d20" /> <path d="M 7180,-10810 L 7180,-11250 L 7620,-11250 L 7620,-10810 Z" class="l70d20" /> <path d="M 8210,-7220 L 8210,-30780 L 8510,-30780 L 8510,-7220 Z" class="l70d20" /> <path d="M 12370,-29710 L 12370,-32890 L 12670,-32890 L 12670,-29710 Z" class="l70d20" /> <path d="M 11970,-29170 L 11970,-29710 L 13070,-29710 L 13070,-29170 Z" class="l70d20" /> <path d="M 10700,-26810 L 10700,-27250 L 11140,-27250 L 11140,-26810 Z" class="l70d20" /> <path d="M 10770,-25970 L 10770,-26810 L 11070,-26810 L 11070,-25970 Z" class="l70d20" /> <path d="M 9100,-25530 L 9100,-25970 L 9540,-25970 L 9540,-25530 Z" class="l70d20" /> <path d="M 10700,-25530 L 10700,-25970 L 11140,-25970 L 11140,-25530 Z" class="l70d20" /> <path d="M 9170,-24530 L 9170,-25530 L 9470,-25530 L 9470,-24530 Z" class="l70d20" /> <path d="M 9100,-24090 L 9100,-24530 L 9540,-24530 L 9540,-24090 Z" class="l70d20" /> <path d="M 10700,-22810 L 10700,-23250 L 11140,-23250 L 11140,-22810 Z" class="l70d20" /> <path d="M 10770,-21970 L 10770,-22810 L 11070,-22810 L 11070,-21970 Z" class="l70d20" /> <path d="M 9100,-21530 L 9100,-21970 L 9540,-21970 L 9540,-21530 Z" class="l70d20" /> <path d="M 10700,-21530 L 10700,-21970 L 11140,-21970 L 11140,-21530 Z" class="l70d20" /> <path d="M 9170,-20530 L 9170,-21530 L 9470,-21530 L 9470,-20530 Z" class="l70d20" /> <path d="M 9100,-20090 L 9100,-20530 L 9540,-20530 L 9540,-20090 Z" class="l70d20" /> <path d="M 10700,-18810 L 10700,-19250 L 11140,-19250 L 11140,-18810 Z" class="l70d20" /> <path d="M 10770,-17970 L 10770,-18810 L 11070,-18810 L 11070,-17970 Z" class="l70d20" /> <path d="M 9100,-17530 L 9100,-17970 L 9540,-17970 L 9540,-17530 Z" class="l70d20" /> <path d="M 10700,-17530 L 10700,-17970 L 11140,-17970 L 11140,-17530 Z" class="l70d20" /> <path d="M 9170,-16530 L 9170,-17530 L 9470,-17530 L 9470,-16530 Z" class="l70d20" /> <path d="M 9100,-16090 L 9100,-16530 L 9540,-16530 L 9540,-16090 Z" class="l70d20" /> <path d="M 10700,-14810 L 10700,-15250 L 11140,-15250 L 11140,-14810 Z" class="l70d20" /> <path d="M 10770,-13970 L 10770,-14810 L 11070,-14810 L 11070,-13970 Z" class="l70d20" /> <path d="M 9100,-13530 L 9100,-13970 L 9540,-13970 L 9540,-13530 Z" class="l70d20" /> <path d="M 10700,-13530 L 10700,-13970 L 11140,-13970 L 11140,-13530 Z" class="l70d20" /> <path d="M 9170,-12530 L 9170,-13530 L 9470,-13530 L 9470,-12530 Z" class="l70d20" /> <path d="M 9100,-12090 L 9100,-12530 L 9540,-12530 L 9540,-12090 Z" class="l70d20" /> <path d="M 8140,-6780 L 8140,-7220 L 8580,-7220 L 8580,-6780 Z" class="l70d20" /> <path d="M 1420,-49210 L 1420,-49650 L 1860,-49650 L 1860,-49210 Z" class="l70d20" /> <path d="M 13740,-5160 L 13740,-5600 L 14180,-5600 L 14180,-5160 Z" class="l70d20" /> <rect x="2000" y="-9680" width="7600" height="5280" class="l999d0" /> <text x="5800.0" y="-7040.0" class="l998t0" text-anchor="end" alignment-baseline="middle">mr1_MP2</text> <rect x="7760" y="-9680" width="7600" height="5280" class="l999d0" /> <text x="11560.0" y="-7040.0" class="l998t0" text-anchor="start" alignment-baseline="middle">mr1_MP1</text> <rect x="7760" y="-33680" width="7600" height="5280" class="l999d0" /> <text x="11560.0" y="-31040.0" class="l998t0" text-anchor="start" alignment-baseline="middle">mr1_MP3</text> <rect x="7760" y="-13680" width="7600" height="5280" class="l999d0" /> <text x="11560.0" y="-11040.0" class="l998t0" text-anchor="start" alignment-baseline="middle">mr3_MP4&lt;9&gt;</text> <rect x="2000" y="-13680" width="7600" height="5280" class="l999d0" /> <text x="5800.0" y="-11040.0" class="l998t0" text-anchor="end" alignment-baseline="middle">mr3_MP4&lt;8&gt;</text> <rect x="7760" y="-29680" width="7600" height="5280" class="l999d0" /> <text x="11560.0" y="-27040.0" class="l998t0" text-anchor="start" alignment-baseline="middle">mr3_MP4&lt;7&gt;</text> <rect x="2000" y="-29680" width="7600" height="5280" class="l999d0" /> <text x="5800.0" y="-27040.0" class="l998t0" text-anchor="end" alignment-baseline="middle">mr3_MP4&lt;6&gt;</text> <rect x="7760" y="-21680" width="7600" height="5280" class="l999d0" /> <text x="11560.0" y="-19040.0" class="l998t0" text-anchor="start" alignment-baseline="middle">mr3_MP4&lt;5&gt;</text> <rect x="2000" y="-21680" width="7600" height="5280" class="l999d0" /> <text x="5800.0" y="-19040.0" class="l998t0" text-anchor="end" alignment-baseline="middle">mr3_MP4&lt;4&gt;</text> <rect x="7760" y="-25680" width="7600" height="5280" class="l999d0" /> <text x="11560.0" y="-23040.0" class="l998t0" text-anchor="start" alignment-baseline="middle">mr3_MP4&lt;3&gt;</text> <rect x="2000" y="-25680" width="7600" height="5280" class="l999d0" /> <text x="5800.0" y="-23040.0" class="l998t0" text-anchor="end" alignment-baseline="middle">mr3_MP4&lt;2&gt;</text> <rect x="2000" y="-17680" width="7600" height="5280" class="l999d0" /> <text x="5800.0" y="-15040.0" class="l998t0" text-anchor="end" alignment-baseline="middle">mr3_MP4&lt;1&gt;</text> <rect x="7760" y="-17680" width="7600" height="5280" class="l999d0" /> <text x="11560.0" y="-15040.0" class="l998t0" text-anchor="start" alignment-baseline="middle">mr3_MP4&lt;0&gt;</text> <rect x="2000" y="-33680" width="7600" height="5280" class="l999d0" /> <text x="5800.0" y="-31040.0" class="l998t0" text-anchor="end" alignment-baseline="middle">mr3_MP5</text> <rect x="2000" y="-5680" width="7600" height="3680" class="l999d0" /> <text x="5800.0" y="-3840.0" class="l998t0" text-anchor="end" alignment-baseline="middle">mr1_MP2_BE</text> <rect x="7760" y="-5680" width="7600" height="3680" class="l999d0" /> <text x="11560.0" y="-3840.0" class="l998t0" text-anchor="start" alignment-baseline="middle">mr1_MP1_BE</text> <rect x="7760" y="-36080" width="7600" height="3680" class="l999d0" /> <text x="11560.0" y="-34240.0" class="l998t0" text-anchor="star" alignment-baseline="middle">mr1_MP3_TE</text> <rect x="2000" y="-36080" width="7600" height="3680" class="l999d0" /> <text x="5800.0" y="-34240.0" class="l998t0" text-anchor="end" alignment-baseline="middle">mr3_MP5_TE</text> <rect x="8075" y="-45365" width="6970" height="4650" class="l999d0" /> <text x="11560.0" y="-43040.0" class="l998t0" text-anchor="start" alignment-baseline="middle">mr2_MN1&lt;9&gt;</text> <rect x="2315" y="-45365" width="6970" height="4650" class="l999d0" /> <text x="5800.0" y="-43040.0" class="l998t0" text-anchor="end" alignment-baseline="middle">mr2_MN1&lt;8&gt;</text> <rect x="2315" y="-49365" width="6970" height="4650" class="l999d0" /> <text x="5800.0" y="-47040.0" class="l998t0" text-anchor="end" alignment-baseline="middle">mr2_MN1&lt;1&gt;</text> <rect x="8075" y="-49365" width="6970" height="4650" class="l999d0" /> <text x="11560.0" y="-47040.0" class="l998t0" text-anchor="start" alignment-baseline="middle">mr2_MN1&lt;0&gt;</text> <rect x="2315" y="-53365" width="6970" height="4650" class="l999d0" /> <text x="5800.0" y="-51040.0" class="l998t0" text-anchor="end" alignment-baseline="middle">mr2_MN2</text> <rect x="8075" y="-53365" width="6970" height="4650" class="l999d0" /> <text x="11560.0" y="-51040.0" class="l998t0" text-anchor="start" alignment-baseline="middle">mr2_MN99</text> <rect x="8075" y="-41365" width="6970" height="2725" class="l999d0" /> <text x="11560.0" y="-40002.5" class="l995t0" text-anchor="start" alignment-baseline="middle">mr2_MN1&lt;9&gt;_BE</text> <rect x="2315" y="-41365" width="6970" height="2725" class="l999d0" /> <text x="5800.0" y="-40002.5" class="l995t0" text-anchor="end" alignment-baseline="middle">mr2_MN1&lt;8&gt;_BE</text> <rect x="2315" y="-61365" width="6970" height="4650" class="l999d0" /> <text x="5800.0" y="-59040.0" class="l998t0" text-anchor="end" alignment-baseline="middle">mr2_MN1&lt;7&gt;</text> <rect x="8075" y="-61365" width="6970" height="4650" class="l999d0" /> <text x="11560.0" y="-59040.0" class="l998t0" text-anchor="start" alignment-baseline="middle">mr2_MN1&lt;6&gt;</text> <rect x="2315" y="-57365" width="6970" height="4650" class="l999d0" /> <text x="5800.0" y="-55040.0" class="l998t0" text-anchor="end" alignment-baseline="middle">mr2_MN1&lt;5&gt;</text> <rect x="8075" y="-57365" width="6970" height="4650" class="l999d0" /> <text x="11560.0" y="-55040.0" class="l998t0" text-anchor="start" alignment-baseline="middle">mr2_MN1&lt;4&gt;</text> <rect x="2315" y="-65365" width="6970" height="4650" class="l999d0" /> <text x="5800.0" y="-63040.0" class="l998t0" text-anchor="end" alignment-baseline="middle">mr2_MN1&lt;3&gt;</text> <rect x="8075" y="-65365" width="6970" height="4650" class="l999d0" /> <text x="11560.0" y="-63040.0" class="l998t0" text-anchor="start" alignment-baseline="middle">mr2_MN1&lt;2&gt;</text> <rect x="2315" y="-67440" width="6970" height="2725" class="l999d0" /> <text x="5800.0" y="-66077.5" class="l995t0" text-anchor="end" alignment-baseline="middle">mr2_MN1&lt;3&gt;_TE</text> <rect x="8075" y="-67440" width="6970" height="2725" class="l999d0" /> <text x="11560.0" y="-66077.5" class="l995t0" text-anchor="start" alignment-baseline="middle">mr2_MN1&lt;2&gt;_TE</text> <rect x="2000" y="-75740" width="6700" height="6700" class="l999d0" /> <text x="5350.0" y="-72390.0" class="l998t0" text-anchor="middle" alignment-baseline="middle">de1_QP1</text> <rect x="9700" y="-75740" width="6700" height="6700" class="l999d0" /> <text x="13050.0" y="-72390.0" class="l998t0" text-anchor="middle" alignment-baseline="middle">de1_QP2&lt;0&gt;</text> <rect x="2000" y="-82940" width="6700" height="6700" class="l999d0" /> <text x="5350.0" y="-79590.0" class="l998t0" text-anchor="middle" alignment-baseline="middle">de1_QP2&lt;5&gt;</text> <rect x="9700" y="-82940" width="6700" height="6700" class="l999d0" /> <text x="13050.0" y="-79590.0" class="l998t0" text-anchor="middle" alignment-baseline="middle">de1_QP2&lt;6&gt;</text> <rect x="2000" y="-90140" width="6700" height="6700" class="l999d0" /> <text x="5350.0" y="-86790.0" class="l998t0" text-anchor="middle" alignment-baseline="middle">de1_QP2&lt;3&gt;</text> <rect x="9700" y="-90140" width="6700" height="6700" class="l999d0" /> <text x="13050.0" y="-86790.0" class="l998t0" text-anchor="middle" alignment-baseline="middle">de1_QP2&lt;4&gt;</text> <rect x="2000" y="-97340" width="6700" height="6700" class="l999d0" /> <text x="5350.0" y="-93990.0" class="l998t0" text-anchor="middle" alignment-baseline="middle">de1_QP2&lt;1&gt;</text> <rect x="9700" y="-97340" width="6700" height="6700" class="l999d0" /> <text x="13050.0" y="-93990.0" class="l998t0" text-anchor="middle" alignment-baseline="middle">de1_QP2&lt;2&gt;</text> <rect x="9700" y="-104540" width="6700" height="6700" class="l999d0" /> <text x="13050.0" y="-101190.0" class="l998t0" text-anchor="middle" alignment-baseline="middle">de1_QP2&lt;7&gt;</text> <rect x="18830" y="-95710" width="26500" height="95780" class="l999d0" /> <text x="32080.0" y="-47820.0" class="l998t0" text-anchor="middle" alignment-baseline="middle">U1_OTA</text> <rect x="45690" y="-69090" width="13540" height="69160" class="l999d0" /> <text x="52460.0" y="-34510.0" class="l998t0" text-anchor="middle" alignment-baseline="middle">U2_RC_EXT</text> <text x="6760" y="-29200" class="l997t0" text-anchor="middle" alignment-baseline="central">OUT</text> <text x="9200" y="-106050" class="l997t0" text-anchor="middle" alignment-baseline="central">VDD</text> <text x="9200" y="-105050" class="l997t0" text-anchor="middle" alignment-baseline="central">VSS</text> <text x="730" y="1485.0" font-size="1300" fill="black" alignment-baseline="middle">Locali</text> <rect x="30" y="1070" width="400" height="400" fill="#56423e" stroke="black" stroke-width="2" /> <text x="7130" y="1485.0" font-size="1300" fill="black" alignment-baseline="middle">M1</text> <rect x="6430" y="1070" width="400" height="400" fill="#bea6a1" stroke="black" stroke-width="2" /> <text x="13530" y="1485.0" font-size="1300" fill="black" alignment-baseline="middle">M2</text> <rect x="12830" y="1070" width="400" height="400" fill="#d62728" stroke="black" stroke-width="2" /> <text x="19930" y="1485.0" font-size="1300" fill="black" alignment-baseline="middle">M3</text> <rect x="19230" y="1070" width="400" height="400" fill="#1f77b4" stroke="black" stroke-width="2" /> <text x="26330" y="1485.0" font-size="1300" fill="black" alignment-baseline="middle">Viali</text> <rect x="25630" y="1070" width="400" height="400" fill="#e09a8e" stroke="black" stroke-width="2" /> <text x="32730" y="1485.0" font-size="1300" fill="black" alignment-baseline="middle">Via1</text> <rect x="32030" y="1070" width="400" height="400" fill="#e39024" stroke="black" stroke-width="2" /> <text x="39130" y="1485.0" font-size="1300" fill="black" alignment-baseline="middle">Via2</text> <rect x="38430" y="1070" width="400" height="400" fill="#70b512" stroke="black" stroke-width="2" /> <line x1="-70" y1="-107280" x2="59230" y2="-107280" stroke="black" stroke-width="90" marker-start="url(#arrowhead_reversed)" marker-end="url(#arrowhead)" /> <text x="29580.0" y="-107680" font-size="1300" fill="black" text-anchor="middle">59.3 m</text> <line x1="59960" y1="-70" x2="59960" y2="-106610" stroke="black" stroke-width="90" marker-start="url(#arrowhead_reversed)" marker-end="url(#arrowhead)" /> <text x="60360" y="-53270.0" font-size="1300" fill="black" text-anchor="end" transform="rotate(90 60360,-53270.0)">106.68 m</text>
            </g>
        </svg>
        