<svg xmlns="http://www.w3.org/2000/svg"
            width="7900.0" height="4402.0"
            viewBox="-147.0 -4255.0 7900.0 4402.0">
            
        <defs>
          <marker id="arrowhead" markerWidth="20" markerHeight="30" 
                  refX="10" refY="3.5" orient="auto" markerUnits="strokeWidth">
            <path d="M0,0 L0,7 L10,3.5 z" fill="black" />
          </marker>

          <marker id="arrowhead_reversed" markerWidth="20" markerHeight="30" 
                  refX="0" refY="3.5" orient="auto" markerUnits="strokeWidth">
            <path d="M10,0 L10,7 L0,3.5 z" fill="black" />
          </marker>
        </defs>
        
        <defs>
        <style type="text/css">
          .l70d20 { fill: #1f77b4; fill-opacity: 0.7; }
          .l69d20 { fill: #d62728; fill-opacity: 0.7; }
          .l67d20 { fill: #56423e; fill-opacity: 0.7; }
          .l68d20 { fill: #bea6a1; fill-opacity: 0.7; }
          .l68d44 { fill: #0077ff;}
          .l67d44 { fill: #e09a8e;}
          .l69d44 { fill: #70b512;}
          
          .l50d0 { fill: #1f77b4; fill-opacity: 0.7; } /* Metal 4 in IHP */
          .l49d0{ fill: #70b512;}                      /* Via 3 in IHP */
          .l30d0 { fill: #d62728; fill-opacity: 0.7; } /* Metal 3 in IHP */
          .l29d0 { fill: #e39024;}                     /* Via 2 in IHP */
          .l10d0 { fill: #bea6a1; fill-opacity: 0.7; } /* Metal 2 in IHP */
          .l19d0 { fill: #e09a8e;}                     /* Via 1 in IHP */
          .l8d0 { fill: #56423e; fill-opacity: 0.7; }  /* Metal 1 in IHP */
        
          
          /* Not dealt with */
          .l64d20,
          .l65d20,
          .l65d44,
          .l66d13,
          .l66d20,
          .l66d44,
          .l67d16,
          .l68d16,
          .l70d16,
          .l69d16,
          .l86d20,
          .l93d44,
          .l94d20,
          .l95d20,
          .l70d5
          .l8d2,
          .l8d25,
          .l30d2,
          .l50d25,
          .l10d2,
          .l30d25,
          .l30d2,
          .l50d2,
          .l14d0
          .l235d4 {
            fill: #000000;
            fill-opacity: 0.0;
          }
          
          .l998t0 { fill: #000000; font-size: 520px; }
          .l997t0 { fill: #5C4033; font-size: 700px; }
          .l999d0 { stroke: #000000; stroke-width: 50; fill: #000000; fill-opacity: 0.2; }
        </style>
        </defs>
        
            <rect x="-147.0" y="-4255.0" width="7900.0" height="4402.0" fill="#ffffff" />
            <g transform="scale(0.1)">
              <path d="M 4875,-31965 L 4875,-32115 L 9285,-32115 L 9285,-31965 Z" class="l94d20" /> <path d="M 13195,-31965 L 13195,-32115 L 17605,-32115 L 17605,-31965 Z" class="l94d20" /> <path d="M 4875,-27965 L 4875,-28115 L 9285,-28115 L 9285,-27965 Z" class="l94d20" /> <path d="M 13195,-27965 L 13195,-28115 L 17605,-28115 L 17605,-27965 Z" class="l94d20" /> <path d="M 7435,-12965 L 7435,-13115 L 9285,-13115 L 9285,-12965 Z" class="l93d44" /> <path d="M 13195,-12965 L 13195,-13115 L 15045,-13115 L 15045,-12965 Z" class="l93d44" /> <path d="M 7435,-8965 L 7435,-9115 L 9285,-9115 L 9285,-8965 Z" class="l93d44" /> <path d="M 13195,-8965 L 13195,-9115 L 15045,-9115 L 15045,-8965 Z" class="l93d44" /> <path d="M -70,-41080 L -70,-41150 L 570,-41150 L 570,-41080 Z" class="l67d20" /> <path d="M 21910,-41080 L 21910,-41150 L 22550,-41150 L 22550,-41080 Z" class="l67d20" /> <path d="M -70,-40580 L -70,-41080 L 22550,-41080 L 22550,-40580 Z" class="l67d20" /> <path d="M -70,-40510 L -70,-40580 L 570,-40580 L 570,-40510 Z" class="l67d20" /> <path d="M 21910,-40510 L 21910,-40580 L 22550,-40580 L 22550,-40510 Z" class="l67d20" /> <path d="M 930,-40080 L 930,-40150 L 1570,-40150 L 1570,-40080 Z" class="l67d20" /> <path d="M 20910,-40080 L 20910,-40150 L 21550,-40150 L 21550,-40080 Z" class="l67d20" /> <path d="M 930,-39580 L 930,-40080 L 21550,-40080 L 21550,-39580 Z" class="l67d20" /> <path d="M 930,-39510 L 930,-39580 L 1570,-39580 L 1570,-39510 Z" class="l67d20" /> <path d="M 20910,-39510 L 20910,-39580 L 21550,-39580 L 21550,-39510 Z" class="l67d20" /> <path d="M -70,-37720 L -70,-37790 L 570,-37790 L 570,-37720 Z" class="l67d20" /> <path d="M 21910,-37720 L 21910,-37790 L 22550,-37790 L 22550,-37720 Z" class="l67d20" /> <path d="M -70,-36760 L -70,-37720 L 22550,-37720 L 22550,-36760 Z" class="l67d20" /> <path d="M -70,-36690 L -70,-36760 L 570,-36760 L 570,-36690 Z" class="l67d20" /> <path d="M 21910,-36690 L 21910,-36760 L 22550,-36760 L 22550,-36690 Z" class="l67d20" /> <path d="M 2440,-35040 L 2440,-35440 L 5320,-35440 L 5320,-35040 Z" class="l67d20" /> <path d="M 10760,-35040 L 10760,-35440 L 13640,-35440 L 13640,-35040 Z" class="l67d20" /> <path d="M 17160,-33840 L 17160,-34240 L 18760,-34240 L 18760,-33840 Z" class="l67d20" /> <path d="M 2440,-31040 L 2440,-31440 L 5320,-31440 L 5320,-31040 Z" class="l67d20" /> <path d="M 10760,-31040 L 10760,-31440 L 13640,-31440 L 13640,-31040 Z" class="l67d20" /> <path d="M 17160,-29840 L 17160,-30240 L 18760,-30240 L 18760,-29840 Z" class="l67d20" /> <path d="M 2440,-27040 L 2440,-27440 L 5320,-27440 L 5320,-27040 Z" class="l67d20" /> <path d="M 10760,-27040 L 10760,-27440 L 13640,-27440 L 13640,-27040 Z" class="l67d20" /> <path d="M -70,-23320 L -70,-23390 L 570,-23390 L 570,-23320 Z" class="l67d20" /> <path d="M 21910,-23320 L 21910,-23390 L 22550,-23390 L 22550,-23320 Z" class="l67d20" /> <path d="M -70,-22360 L -70,-23320 L 22550,-23320 L 22550,-22360 Z" class="l67d20" /> <path d="M -70,-22290 L -70,-22360 L 570,-22360 L 570,-22290 Z" class="l67d20" /> <path d="M 21910,-22290 L 21910,-22360 L 22550,-22360 L 22550,-22290 Z" class="l67d20" /> <path d="M 930,-18720 L 930,-18790 L 1570,-18790 L 1570,-18720 Z" class="l67d20" /> <path d="M 20910,-18720 L 20910,-18790 L 21550,-18790 L 21550,-18720 Z" class="l67d20" /> <path d="M 930,-17760 L 930,-18720 L 21550,-18720 L 21550,-17760 Z" class="l67d20" /> <path d="M 930,-17690 L 930,-17760 L 1570,-17760 L 1570,-17690 Z" class="l67d20" /> <path d="M 20910,-17690 L 20910,-17760 L 21550,-17760 L 21550,-17690 Z" class="l67d20" /> <path d="M 5000,-16040 L 5000,-16440 L 7880,-16440 L 7880,-16040 Z" class="l67d20" /> <path d="M 10760,-16040 L 10760,-16440 L 13640,-16440 L 13640,-16040 Z" class="l67d20" /> <path d="M 8840,-14840 L 8840,-15240 L 10440,-15240 L 10440,-14840 Z" class="l67d20" /> <path d="M 5000,-8040 L 5000,-8440 L 7880,-8440 L 7880,-8040 Z" class="l67d20" /> <path d="M 10760,-8040 L 10760,-8440 L 13640,-8440 L 13640,-8040 Z" class="l67d20" /> <path d="M 8840,-6840 L 8840,-7240 L 10440,-7240 L 10440,-6840 Z" class="l67d20" /> <path d="M 930,-4320 L 930,-4390 L 1570,-4390 L 1570,-4320 Z" class="l67d20" /> <path d="M 20910,-4320 L 20910,-4390 L 21550,-4390 L 21550,-4320 Z" class="l67d20" /> <path d="M 930,-3360 L 930,-4320 L 21550,-4320 L 21550,-3360 Z" class="l67d20" /> <path d="M 930,-3290 L 930,-3360 L 1570,-3360 L 1570,-3290 Z" class="l67d20" /> <path d="M 20910,-3290 L 20910,-3360 L 21550,-3360 L 21550,-3290 Z" class="l67d20" /> <path d="M 930,-1500 L 930,-1570 L 1570,-1570 L 1570,-1500 Z" class="l67d20" /> <path d="M 20910,-1500 L 20910,-1570 L 21550,-1570 L 21550,-1500 Z" class="l67d20" /> <path d="M 930,-1000 L 930,-1500 L 21550,-1500 L 21550,-1000 Z" class="l67d20" /> <path d="M 930,-930 L 930,-1000 L 1570,-1000 L 1570,-930 Z" class="l67d20" /> <path d="M 20910,-930 L 20910,-1000 L 21550,-1000 L 21550,-930 Z" class="l67d20" /> <path d="M -70,-500 L -70,-570 L 570,-570 L 570,-500 Z" class="l67d20" /> <path d="M 21910,-500 L 21910,-570 L 22550,-570 L 22550,-500 Z" class="l67d20" /> <path d="M -70,0 L -70,-500 L 22550,-500 L 22550,0 Z" class="l67d20" /> <path d="M -70,70 L -70,0 L 570,0 L 570,70 Z" class="l67d20" /> <path d="M 21910,70 L 21910,0 L 22550,0 L 22550,70 Z" class="l67d20" /> <path d="M 165,-40745 L 165,-40915 L 335,-40915 L 335,-40745 Z" class="l67d44" /> <path d="M 22145,-40745 L 22145,-40915 L 22315,-40915 L 22315,-40745 Z" class="l67d44" /> <path d="M 1165,-39745 L 1165,-39915 L 1335,-39915 L 1335,-39745 Z" class="l67d44" /> <path d="M 21145,-39745 L 21145,-39915 L 21315,-39915 L 21315,-39745 Z" class="l67d44" /> <path d="M 165,-37515 L 165,-37685 L 335,-37685 L 335,-37515 Z" class="l67d44" /> <path d="M 22145,-37515 L 22145,-37685 L 22315,-37685 L 22315,-37515 Z" class="l67d44" /> <path d="M 165,-37155 L 165,-37325 L 335,-37325 L 335,-37155 Z" class="l67d44" /> <path d="M 22145,-37155 L 22145,-37325 L 22315,-37325 L 22315,-37155 Z" class="l67d44" /> <path d="M 165,-36795 L 165,-36965 L 335,-36965 L 335,-36795 Z" class="l67d44" /> <path d="M 22145,-36795 L 22145,-36965 L 22315,-36965 L 22315,-36795 Z" class="l67d44" /> <path d="M 165,-23115 L 165,-23285 L 335,-23285 L 335,-23115 Z" class="l67d44" /> <path d="M 22145,-23115 L 22145,-23285 L 22315,-23285 L 22315,-23115 Z" class="l67d44" /> <path d="M 165,-22755 L 165,-22925 L 335,-22925 L 335,-22755 Z" class="l67d44" /> <path d="M 22145,-22755 L 22145,-22925 L 22315,-22925 L 22315,-22755 Z" class="l67d44" /> <path d="M 165,-22395 L 165,-22565 L 335,-22565 L 335,-22395 Z" class="l67d44" /> <path d="M 22145,-22395 L 22145,-22565 L 22315,-22565 L 22315,-22395 Z" class="l67d44" /> <path d="M 1165,-18515 L 1165,-18685 L 1335,-18685 L 1335,-18515 Z" class="l67d44" /> <path d="M 21145,-18515 L 21145,-18685 L 21315,-18685 L 21315,-18515 Z" class="l67d44" /> <path d="M 1165,-18155 L 1165,-18325 L 1335,-18325 L 1335,-18155 Z" class="l67d44" /> <path d="M 21145,-18155 L 21145,-18325 L 21315,-18325 L 21315,-18155 Z" class="l67d44" /> <path d="M 1165,-17795 L 1165,-17965 L 1335,-17965 L 1335,-17795 Z" class="l67d44" /> <path d="M 21145,-17795 L 21145,-17965 L 21315,-17965 L 21315,-17795 Z" class="l67d44" /> <path d="M 1165,-4115 L 1165,-4285 L 1335,-4285 L 1335,-4115 Z" class="l67d44" /> <path d="M 21145,-4115 L 21145,-4285 L 21315,-4285 L 21315,-4115 Z" class="l67d44" /> <path d="M 1165,-3755 L 1165,-3925 L 1335,-3925 L 1335,-3755 Z" class="l67d44" /> <path d="M 21145,-3755 L 21145,-3925 L 21315,-3925 L 21315,-3755 Z" class="l67d44" /> <path d="M 1165,-3395 L 1165,-3565 L 1335,-3565 L 1335,-3395 Z" class="l67d44" /> <path d="M 21145,-3395 L 21145,-3565 L 21315,-3565 L 21315,-3395 Z" class="l67d44" /> <path d="M 1165,-1165 L 1165,-1335 L 1335,-1335 L 1335,-1165 Z" class="l67d44" /> <path d="M 21145,-1165 L 21145,-1335 L 21315,-1335 L 21315,-1165 Z" class="l67d44" /> <path d="M 165,-165 L 165,-335 L 335,-335 L 335,-165 Z" class="l67d44" /> <path d="M 22145,-165 L 22145,-335 L 22315,-335 L 22315,-165 Z" class="l67d44" /> <path d="M -70,-40510 L -70,-41150 L 570,-41150 L 570,-40510 Z" class="l68d20" /> <path d="M 21910,-40510 L 21910,-41150 L 22550,-41150 L 22550,-40510 Z" class="l68d20" /> <path d="M 0,-37790 L 0,-40510 L 500,-40510 L 500,-37790 Z" class="l68d20" /> <path d="M 930,-39510 L 930,-40150 L 1570,-40150 L 1570,-39510 Z" class="l68d20" /> <path d="M 20910,-39510 L 20910,-40150 L 21550,-40150 L 21550,-39510 Z" class="l68d20" /> <path d="M -70,-36690 L -70,-37790 L 570,-37790 L 570,-36690 Z" class="l68d20" /> <path d="M 0,-23390 L 0,-36690 L 500,-36690 L 500,-23390 Z" class="l68d20" /> <path d="M -70,-22290 L -70,-23390 L 570,-23390 L 570,-22290 Z" class="l68d20" /> <path d="M 0,-570 L 0,-22290 L 500,-22290 L 500,-570 Z" class="l68d20" /> <path d="M 1000,-18790 L 1000,-39510 L 1500,-39510 L 1500,-18790 Z" class="l68d20" /> <path d="M 3650,-33770 L 3650,-34310 L 4110,-34310 L 4110,-33770 Z" class="l68d20" /> <path d="M 11970,-33770 L 11970,-34310 L 12430,-34310 L 12430,-33770 Z" class="l68d20" /> <path d="M 8770,-32170 L 8770,-32710 L 9870,-32710 L 9870,-32170 Z" class="l68d20" /> <path d="M 3650,-29770 L 3650,-30310 L 4110,-30310 L 4110,-29770 Z" class="l68d20" /> <path d="M 11970,-29770 L 11970,-30310 L 12430,-30310 L 12430,-29770 Z" class="l68d20" /> <path d="M 8770,-28170 L 8770,-28710 L 9870,-28710 L 9870,-28170 Z" class="l68d20" /> <path d="M 3650,-25770 L 3650,-26310 L 4110,-26310 L 4110,-25770 Z" class="l68d20" /> <path d="M 11970,-25770 L 11970,-26310 L 12430,-26310 L 12430,-25770 Z" class="l68d20" /> <path d="M 8770,-24170 L 8770,-24710 L 9870,-24710 L 9870,-24170 Z" class="l68d20" /> <path d="M 17090,-24170 L 17090,-24710 L 18190,-24710 L 18190,-24170 Z" class="l68d20" /> <path d="M 20980,-18790 L 20980,-39510 L 21480,-39510 L 21480,-18790 Z" class="l68d20" /> <path d="M 21980,-37790 L 21980,-40510 L 22480,-40510 L 22480,-37790 Z" class="l68d20" /> <path d="M 21910,-36690 L 21910,-37790 L 22550,-37790 L 22550,-36690 Z" class="l68d20" /> <path d="M 21980,-23390 L 21980,-36690 L 22480,-36690 L 22480,-23390 Z" class="l68d20" /> <path d="M 21910,-22290 L 21910,-23390 L 22550,-23390 L 22550,-22290 Z" class="l68d20" /> <path d="M 930,-17690 L 930,-18790 L 1570,-18790 L 1570,-17690 Z" class="l68d20" /> <path d="M 20910,-17690 L 20910,-18790 L 21550,-18790 L 21550,-17690 Z" class="l68d20" /> <path d="M 1000,-4390 L 1000,-17690 L 1500,-17690 L 1500,-4390 Z" class="l68d20" /> <path d="M 6210,-14770 L 6210,-15310 L 6670,-15310 L 6670,-14770 Z" class="l68d20" /> <path d="M 11970,-14770 L 11970,-15310 L 12430,-15310 L 12430,-14770 Z" class="l68d20" /> <path d="M 14530,-13170 L 14530,-13710 L 15630,-13710 L 15630,-13170 Z" class="l68d20" /> <path d="M 6850,-11970 L 6850,-12510 L 7950,-12510 L 7950,-11970 Z" class="l68d20" /> <path d="M 12610,-11970 L 12610,-12510 L 13710,-12510 L 13710,-11970 Z" class="l68d20" /> <path d="M 8770,-9170 L 8770,-9710 L 9870,-9710 L 9870,-9170 Z" class="l68d20" /> <path d="M 14530,-9170 L 14530,-9710 L 15630,-9710 L 15630,-9170 Z" class="l68d20" /> <path d="M 6210,-6770 L 6210,-7310 L 6670,-7310 L 6670,-6770 Z" class="l68d20" /> <path d="M 11970,-6770 L 11970,-7310 L 12430,-7310 L 12430,-6770 Z" class="l68d20" /> <path d="M 14530,-5170 L 14530,-5710 L 15630,-5710 L 15630,-5170 Z" class="l68d20" /> <path d="M 20980,-4390 L 20980,-17690 L 21480,-17690 L 21480,-4390 Z" class="l68d20" /> <path d="M 930,-3290 L 930,-4390 L 1570,-4390 L 1570,-3290 Z" class="l68d20" /> <path d="M 20910,-3290 L 20910,-4390 L 21550,-4390 L 21550,-3290 Z" class="l68d20" /> <path d="M 1000,-1570 L 1000,-3290 L 1500,-3290 L 1500,-1570 Z" class="l68d20" /> <path d="M 20980,-1570 L 20980,-3290 L 21480,-3290 L 21480,-1570 Z" class="l68d20" /> <path d="M 930,-930 L 930,-1570 L 1570,-1570 L 1570,-930 Z" class="l68d20" /> <path d="M 20910,-930 L 20910,-1570 L 21550,-1570 L 21550,-930 Z" class="l68d20" /> <path d="M 21980,-570 L 21980,-22290 L 22480,-22290 L 22480,-570 Z" class="l68d20" /> <path d="M -70,70 L -70,-570 L 570,-570 L 570,70 Z" class="l68d20" /> <path d="M 21910,70 L 21910,-570 L 22550,-570 L 22550,70 Z" class="l68d20" /> <path d="M 6280,-10840 L 6280,-11240 L 6600,-11240 L 6600,-10840 Z" class="l68d16" /> <path d="M 12040,-10840 L 12040,-11240 L 12360,-11240 L 12360,-10840 Z" class="l68d16" /> <path d="M 1000,-39580 L 1000,-40080 L 21480,-40080 L 21480,-39580 Z" class="l67d16" /> <path d="M 0,-40580 L 0,-41080 L 22480,-41080 L 22480,-40580 Z" class="l67d16" /> <path d="M 3805,-33965 L 3805,-34115 L 3955,-34115 L 3955,-33965 Z" class="l68d44" /> <path d="M 12125,-33965 L 12125,-34115 L 12275,-34115 L 12275,-33965 Z" class="l68d44" /> <path d="M 8925,-32365 L 8925,-32515 L 9075,-32515 L 9075,-32365 Z" class="l68d44" /> <path d="M 9245,-32365 L 9245,-32515 L 9395,-32515 L 9395,-32365 Z" class="l68d44" /> <path d="M 9565,-32365 L 9565,-32515 L 9715,-32515 L 9715,-32365 Z" class="l68d44" /> <path d="M 3805,-29965 L 3805,-30115 L 3955,-30115 L 3955,-29965 Z" class="l68d44" /> <path d="M 12125,-29965 L 12125,-30115 L 12275,-30115 L 12275,-29965 Z" class="l68d44" /> <path d="M 8925,-28365 L 8925,-28515 L 9075,-28515 L 9075,-28365 Z" class="l68d44" /> <path d="M 9245,-28365 L 9245,-28515 L 9395,-28515 L 9395,-28365 Z" class="l68d44" /> <path d="M 9565,-28365 L 9565,-28515 L 9715,-28515 L 9715,-28365 Z" class="l68d44" /> <path d="M 3805,-25965 L 3805,-26115 L 3955,-26115 L 3955,-25965 Z" class="l68d44" /> <path d="M 12125,-25965 L 12125,-26115 L 12275,-26115 L 12275,-25965 Z" class="l68d44" /> <path d="M 8925,-24365 L 8925,-24515 L 9075,-24515 L 9075,-24365 Z" class="l68d44" /> <path d="M 9245,-24365 L 9245,-24515 L 9395,-24515 L 9395,-24365 Z" class="l68d44" /> <path d="M 9565,-24365 L 9565,-24515 L 9715,-24515 L 9715,-24365 Z" class="l68d44" /> <path d="M 17245,-24365 L 17245,-24515 L 17395,-24515 L 17395,-24365 Z" class="l68d44" /> <path d="M 17565,-24365 L 17565,-24515 L 17715,-24515 L 17715,-24365 Z" class="l68d44" /> <path d="M 17885,-24365 L 17885,-24515 L 18035,-24515 L 18035,-24365 Z" class="l68d44" /> <path d="M 6365,-14965 L 6365,-15115 L 6515,-15115 L 6515,-14965 Z" class="l68d44" /> <path d="M 12125,-14965 L 12125,-15115 L 12275,-15115 L 12275,-14965 Z" class="l68d44" /> <path d="M 14685,-13365 L 14685,-13515 L 14835,-13515 L 14835,-13365 Z" class="l68d44" /> <path d="M 15005,-13365 L 15005,-13515 L 15155,-13515 L 15155,-13365 Z" class="l68d44" /> <path d="M 15325,-13365 L 15325,-13515 L 15475,-13515 L 15475,-13365 Z" class="l68d44" /> <path d="M 7005,-12165 L 7005,-12315 L 7155,-12315 L 7155,-12165 Z" class="l68d44" /> <path d="M 7325,-12165 L 7325,-12315 L 7475,-12315 L 7475,-12165 Z" class="l68d44" /> <path d="M 7645,-12165 L 7645,-12315 L 7795,-12315 L 7795,-12165 Z" class="l68d44" /> <path d="M 12765,-12165 L 12765,-12315 L 12915,-12315 L 12915,-12165 Z" class="l68d44" /> <path d="M 13085,-12165 L 13085,-12315 L 13235,-12315 L 13235,-12165 Z" class="l68d44" /> <path d="M 13405,-12165 L 13405,-12315 L 13555,-12315 L 13555,-12165 Z" class="l68d44" /> <path d="M 8925,-9365 L 8925,-9515 L 9075,-9515 L 9075,-9365 Z" class="l68d44" /> <path d="M 9245,-9365 L 9245,-9515 L 9395,-9515 L 9395,-9365 Z" class="l68d44" /> <path d="M 9565,-9365 L 9565,-9515 L 9715,-9515 L 9715,-9365 Z" class="l68d44" /> <path d="M 14685,-9365 L 14685,-9515 L 14835,-9515 L 14835,-9365 Z" class="l68d44" /> <path d="M 15005,-9365 L 15005,-9515 L 15155,-9515 L 15155,-9365 Z" class="l68d44" /> <path d="M 15325,-9365 L 15325,-9515 L 15475,-9515 L 15475,-9365 Z" class="l68d44" /> <path d="M 6365,-6965 L 6365,-7115 L 6515,-7115 L 6515,-6965 Z" class="l68d44" /> <path d="M 12125,-6965 L 12125,-7115 L 12275,-7115 L 12275,-6965 Z" class="l68d44" /> <path d="M 14685,-5365 L 14685,-5515 L 14835,-5515 L 14835,-5365 Z" class="l68d44" /> <path d="M 15005,-5365 L 15005,-5515 L 15155,-5515 L 15155,-5365 Z" class="l68d44" /> <path d="M 15325,-5365 L 15325,-5515 L 15475,-5515 L 15475,-5365 Z" class="l68d44" /> <path d="M 3650,-34180 L 3650,-34310 L 4110,-34310 L 4110,-34180 Z" class="l69d20" /> <path d="M 10690,-34180 L 10690,-34250 L 11130,-34250 L 11130,-34180 Z" class="l69d20" /> <path d="M 11970,-34180 L 11970,-34310 L 12430,-34310 L 12430,-34180 Z" class="l69d20" /> <path d="M 3650,-33880 L 3650,-34180 L 12430,-34180 L 12430,-33880 Z" class="l69d20" /> <path d="M 3650,-33770 L 3650,-33880 L 4110,-33880 L 4110,-33770 Z" class="l69d20" /> <path d="M 10690,-33810 L 10690,-33880 L 11130,-33880 L 11130,-33810 Z" class="l69d20" /> <path d="M 11970,-33770 L 11970,-33880 L 12430,-33880 L 12430,-33770 Z" class="l69d20" /> <path d="M 6690,-32580 L 6690,-32650 L 7130,-32650 L 7130,-32580 Z" class="l69d20" /> <path d="M 8770,-32580 L 8770,-32710 L 9870,-32710 L 9870,-32580 Z" class="l69d20" /> <path d="M 6690,-32280 L 6690,-32580 L 9870,-32580 L 9870,-32280 Z" class="l69d20" /> <path d="M 6690,-32210 L 6690,-32280 L 7130,-32280 L 7130,-32210 Z" class="l69d20" /> <path d="M 8770,-32170 L 8770,-32280 L 9870,-32280 L 9870,-32170 Z" class="l69d20" /> <path d="M 2370,-30180 L 2370,-30250 L 2810,-30250 L 2810,-30180 Z" class="l69d20" /> <path d="M 3650,-30180 L 3650,-30310 L 4110,-30310 L 4110,-30180 Z" class="l69d20" /> <path d="M 11970,-30180 L 11970,-30310 L 12430,-30310 L 12430,-30180 Z" class="l69d20" /> <path d="M 15970,-30180 L 15970,-30250 L 16410,-30250 L 16410,-30180 Z" class="l69d20" /> <path d="M 2370,-29880 L 2370,-30180 L 16410,-30180 L 16410,-29880 Z" class="l69d20" /> <path d="M 2370,-29810 L 2370,-29880 L 2810,-29880 L 2810,-29810 Z" class="l69d20" /> <path d="M 3650,-29770 L 3650,-29880 L 4110,-29880 L 4110,-29770 Z" class="l69d20" /> <path d="M 11970,-29770 L 11970,-29880 L 12430,-29880 L 12430,-29770 Z" class="l69d20" /> <path d="M 15970,-29810 L 15970,-29880 L 16410,-29880 L 16410,-29810 Z" class="l69d20" /> <path d="M 8770,-28550 L 8770,-28710 L 9870,-28710 L 9870,-28550 Z" class="l69d20" /> <path d="M 14840,-28550 L 14840,-28620 L 15280,-28620 L 15280,-28550 Z" class="l69d20" /> <path d="M 8770,-28250 L 8770,-28550 L 15280,-28550 L 15280,-28250 Z" class="l69d20" /> <path d="M 8770,-28170 L 8770,-28250 L 9870,-28250 L 9870,-28170 Z" class="l69d20" /> <path d="M 14840,-28180 L 14840,-28250 L 15280,-28250 L 15280,-28180 Z" class="l69d20" /> <path d="M 2370,-26180 L 2370,-26250 L 2810,-26250 L 2810,-26180 Z" class="l69d20" /> <path d="M 3650,-26180 L 3650,-26310 L 4110,-26310 L 4110,-26180 Z" class="l69d20" /> <path d="M 2370,-25880 L 2370,-26180 L 4110,-26180 L 4110,-25880 Z" class="l69d20" /> <path d="M 2370,-25810 L 2370,-25880 L 2810,-25880 L 2810,-25810 Z" class="l69d20" /> <path d="M 3650,-25770 L 3650,-25880 L 4110,-25880 L 4110,-25770 Z" class="l69d20" /> <path d="M 9090,-26180 L 9090,-26250 L 9530,-26250 L 9530,-26180 Z" class="l69d20" /> <path d="M 10690,-26180 L 10690,-26250 L 11130,-26250 L 11130,-26180 Z" class="l69d20" /> <path d="M 11970,-26180 L 11970,-26310 L 12430,-26310 L 12430,-26180 Z" class="l69d20" /> <path d="M 9090,-25880 L 9090,-26180 L 12430,-26180 L 12430,-25880 Z" class="l69d20" /> <path d="M 9090,-25810 L 9090,-25880 L 9530,-25880 L 9530,-25810 Z" class="l69d20" /> <path d="M 10690,-25810 L 10690,-25880 L 11130,-25880 L 11130,-25810 Z" class="l69d20" /> <path d="M 11970,-25770 L 11970,-25880 L 12430,-25880 L 12430,-25770 Z" class="l69d20" /> <path d="M 4930,-25220 L 4930,-25290 L 5370,-25290 L 5370,-25220 Z" class="l69d20" /> <path d="M 6690,-25220 L 6690,-25290 L 7130,-25290 L 7130,-25220 Z" class="l69d20" /> <path d="M 4930,-24920 L 4930,-25220 L 7130,-25220 L 7130,-24920 Z" class="l69d20" /> <path d="M 4930,-24850 L 4930,-24920 L 5370,-24920 L 5370,-24850 Z" class="l69d20" /> <path d="M 6690,-24850 L 6690,-24920 L 7130,-24920 L 7130,-24850 Z" class="l69d20" /> <path d="M 8770,-24580 L 8770,-24710 L 9870,-24710 L 9870,-24580 Z" class="l69d20" /> <path d="M 10530,-24580 L 10530,-24650 L 10970,-24650 L 10970,-24580 Z" class="l69d20" /> <path d="M 8770,-24280 L 8770,-24580 L 10970,-24580 L 10970,-24280 Z" class="l69d20" /> <path d="M 8770,-24170 L 8770,-24280 L 9870,-24280 L 9870,-24170 Z" class="l69d20" /> <path d="M 10530,-24210 L 10530,-24280 L 10970,-24280 L 10970,-24210 Z" class="l69d20" /> <path d="M 15970,-24580 L 15970,-24650 L 16410,-24650 L 16410,-24580 Z" class="l69d20" /> <path d="M 17090,-24580 L 17090,-24710 L 18190,-24710 L 18190,-24580 Z" class="l69d20" /> <path d="M 15970,-24280 L 15970,-24580 L 18190,-24580 L 18190,-24280 Z" class="l69d20" /> <path d="M 15970,-24210 L 15970,-24280 L 16410,-24280 L 16410,-24210 Z" class="l69d20" /> <path d="M 17090,-24170 L 17090,-24280 L 18190,-24280 L 18190,-24170 Z" class="l69d20" /> <path d="M 4930,-15140 L 4930,-15210 L 5370,-15210 L 5370,-15140 Z" class="l69d20" /> <path d="M 6210,-15140 L 6210,-15310 L 6670,-15310 L 6670,-15140 Z" class="l69d20" /> <path d="M 11970,-15140 L 11970,-15310 L 12430,-15310 L 12430,-15140 Z" class="l69d20" /> <path d="M 4930,-14840 L 4930,-15140 L 12430,-15140 L 12430,-14840 Z" class="l69d20" /> <path d="M 4930,-14770 L 4930,-14840 L 5370,-14840 L 5370,-14770 Z" class="l69d20" /> <path d="M 6210,-14770 L 6210,-14840 L 6670,-14840 L 6670,-14770 Z" class="l69d20" /> <path d="M 11970,-14770 L 11970,-14840 L 12430,-14840 L 12430,-14770 Z" class="l69d20" /> <path d="M 14530,-13170 L 14530,-13710 L 15630,-13710 L 15630,-13170 Z" class="l69d20" /> <path d="M 6850,-12380 L 6850,-12510 L 7950,-12510 L 7950,-12380 Z" class="l69d20" /> <path d="M 12610,-12380 L 12610,-12510 L 13710,-12510 L 13710,-12380 Z" class="l69d20" /> <path d="M 16290,-12380 L 16290,-12450 L 16730,-12450 L 16730,-12380 Z" class="l69d20" /> <path d="M 6850,-12080 L 6850,-12380 L 16730,-12380 L 16730,-12080 Z" class="l69d20" /> <path d="M 6850,-11970 L 6850,-12080 L 7950,-12080 L 7950,-11970 Z" class="l69d20" /> <path d="M 12610,-11970 L 12610,-12080 L 13710,-12080 L 13710,-11970 Z" class="l69d20" /> <path d="M 16290,-12010 L 16290,-12080 L 16730,-12080 L 16730,-12010 Z" class="l69d20" /> <path d="M 8770,-9540 L 8770,-9710 L 9870,-9710 L 9870,-9540 Z" class="l69d20" /> <path d="M 10530,-9540 L 10530,-9610 L 10970,-9610 L 10970,-9540 Z" class="l69d20" /> <path d="M 8770,-9240 L 8770,-9540 L 10970,-9540 L 10970,-9240 Z" class="l69d20" /> <path d="M 8770,-9170 L 8770,-9240 L 9870,-9240 L 9870,-9170 Z" class="l69d20" /> <path d="M 10530,-9170 L 10530,-9240 L 10970,-9240 L 10970,-9170 Z" class="l69d20" /> <path d="M 14530,-9540 L 14530,-9710 L 15630,-9710 L 15630,-9540 Z" class="l69d20" /> <path d="M 17410,-9540 L 17410,-9610 L 17850,-9610 L 17850,-9540 Z" class="l69d20" /> <path d="M 14530,-9240 L 14530,-9540 L 17850,-9540 L 17850,-9240 Z" class="l69d20" /> <path d="M 14530,-9170 L 14530,-9240 L 15630,-9240 L 15630,-9170 Z" class="l69d20" /> <path d="M 17410,-9170 L 17410,-9240 L 17850,-9240 L 17850,-9170 Z" class="l69d20" /> <path d="M 6210,-7130 L 6210,-7310 L 6670,-7310 L 6670,-7130 Z" class="l69d20" /> <path d="M 11970,-7130 L 11970,-7310 L 12430,-7310 L 12430,-7130 Z" class="l69d20" /> <path d="M 6210,-6830 L 6210,-7130 L 12430,-7130 L 12430,-6830 Z" class="l69d20" /> <path d="M 6210,-6770 L 6210,-6830 L 6670,-6830 L 6670,-6770 Z" class="l69d20" /> <path d="M 11970,-6770 L 11970,-6830 L 12430,-6830 L 12430,-6770 Z" class="l69d20" /> <path d="M 14530,-5500 L 14530,-5710 L 15630,-5710 L 15630,-5500 Z" class="l69d20" /> <path d="M 16290,-5500 L 16290,-5570 L 16730,-5570 L 16730,-5500 Z" class="l69d20" /> <path d="M 14530,-5200 L 14530,-5500 L 16730,-5500 L 16730,-5200 Z" class="l69d20" /> <path d="M 14530,-5170 L 14530,-5200 L 15630,-5200 L 15630,-5170 Z" class="l69d20" /> <path d="M 16290,-5130 L 16290,-5200 L 16730,-5200 L 16730,-5130 Z" class="l69d20" /> <path d="M 10810,-33930 L 10810,-34130 L 11010,-34130 L 11010,-33930 Z" class="l69d44" /> <path d="M 6810,-32330 L 6810,-32530 L 7010,-32530 L 7010,-32330 Z" class="l69d44" /> <path d="M 2490,-29930 L 2490,-30130 L 2690,-30130 L 2690,-29930 Z" class="l69d44" /> <path d="M 16090,-29930 L 16090,-30130 L 16290,-30130 L 16290,-29930 Z" class="l69d44" /> <path d="M 14960,-28300 L 14960,-28500 L 15160,-28500 L 15160,-28300 Z" class="l69d44" /> <path d="M 2490,-25930 L 2490,-26130 L 2690,-26130 L 2690,-25930 Z" class="l69d44" /> <path d="M 9210,-25930 L 9210,-26130 L 9410,-26130 L 9410,-25930 Z" class="l69d44" /> <path d="M 10810,-25930 L 10810,-26130 L 11010,-26130 L 11010,-25930 Z" class="l69d44" /> <path d="M 5050,-24970 L 5050,-25170 L 5250,-25170 L 5250,-24970 Z" class="l69d44" /> <path d="M 6810,-24970 L 6810,-25170 L 7010,-25170 L 7010,-24970 Z" class="l69d44" /> <path d="M 9020,-24340 L 9020,-24540 L 9220,-24540 L 9220,-24340 Z" class="l69d44" /> <path d="M 9420,-24340 L 9420,-24540 L 9620,-24540 L 9620,-24340 Z" class="l69d44" /> <path d="M 10650,-24330 L 10650,-24530 L 10850,-24530 L 10850,-24330 Z" class="l69d44" /> <path d="M 16090,-24330 L 16090,-24530 L 16290,-24530 L 16290,-24330 Z" class="l69d44" /> <path d="M 17340,-24340 L 17340,-24540 L 17540,-24540 L 17540,-24340 Z" class="l69d44" /> <path d="M 17740,-24340 L 17740,-24540 L 17940,-24540 L 17940,-24340 Z" class="l69d44" /> <path d="M 5050,-14890 L 5050,-15090 L 5250,-15090 L 5250,-14890 Z" class="l69d44" /> <path d="M 14780,-13340 L 14780,-13540 L 14980,-13540 L 14980,-13340 Z" class="l69d44" /> <path d="M 15180,-13340 L 15180,-13540 L 15380,-13540 L 15380,-13340 Z" class="l69d44" /> <path d="M 16410,-12130 L 16410,-12330 L 16610,-12330 L 16610,-12130 Z" class="l69d44" /> <path d="M 10650,-9290 L 10650,-9490 L 10850,-9490 L 10850,-9290 Z" class="l69d44" /> <path d="M 17530,-9290 L 17530,-9490 L 17730,-9490 L 17730,-9290 Z" class="l69d44" /> <path d="M 16410,-5250 L 16410,-5450 L 16610,-5450 L 16610,-5250 Z" class="l69d44" /> <path d="M 10690,-33810 L 10690,-34250 L 11130,-34250 L 11130,-33810 Z" class="l70d20" /> <path d="M 6690,-32210 L 6690,-32650 L 7130,-32650 L 7130,-32210 Z" class="l70d20" /> <path d="M 2370,-29810 L 2370,-30250 L 2810,-30250 L 2810,-29810 Z" class="l70d20" /> <path d="M 2440,-26250 L 2440,-29810 L 2740,-29810 L 2740,-26250 Z" class="l70d20" /> <path d="M 2370,-25810 L 2370,-26250 L 2810,-26250 L 2810,-25810 Z" class="l70d20" /> <path d="M 6760,-25290 L 6760,-32210 L 7060,-32210 L 7060,-25290 Z" class="l70d20" /> <path d="M 10760,-26250 L 10760,-33810 L 11060,-33810 L 11060,-26250 Z" class="l70d20" /> <path d="M 15970,-29810 L 15970,-30250 L 16410,-30250 L 16410,-29810 Z" class="l70d20" /> <path d="M 14840,-28180 L 14840,-28620 L 15280,-28620 L 15280,-28180 Z" class="l70d20" /> <path d="M 9090,-25810 L 9090,-26250 L 9530,-26250 L 9530,-25810 Z" class="l70d20" /> <path d="M 10690,-25810 L 10690,-26250 L 11130,-26250 L 11130,-25810 Z" class="l70d20" /> <path d="M 4930,-24850 L 4930,-25290 L 5370,-25290 L 5370,-24850 Z" class="l70d20" /> <path d="M 6690,-24850 L 6690,-25290 L 7130,-25290 L 7130,-24850 Z" class="l70d20" /> <path d="M 5000,-15210 L 5000,-24850 L 5300,-24850 L 5300,-15210 Z" class="l70d20" /> <path d="M 9160,-24710 L 9160,-25810 L 9460,-25810 L 9460,-24710 Z" class="l70d20" /> <path d="M 8770,-24170 L 8770,-24710 L 9870,-24710 L 9870,-24170 Z" class="l70d20" /> <path d="M 10530,-24210 L 10530,-24650 L 10970,-24650 L 10970,-24210 Z" class="l70d20" /> <path d="M 4930,-14770 L 4930,-15210 L 5370,-15210 L 5370,-14770 Z" class="l70d20" /> <path d="M 10600,-9610 L 10600,-24210 L 10900,-24210 L 10900,-9610 Z" class="l70d20" /> <path d="M 14910,-13710 L 14910,-28180 L 15210,-28180 L 15210,-13710 Z" class="l70d20" /> <path d="M 16040,-24650 L 16040,-29810 L 16340,-29810 L 16340,-24650 Z" class="l70d20" /> <path d="M 15970,-24210 L 15970,-24650 L 16410,-24650 L 16410,-24210 Z" class="l70d20" /> <path d="M 17090,-24170 L 17090,-24710 L 18190,-24710 L 18190,-24170 Z" class="l70d20" /> <path d="M 14530,-13170 L 14530,-13710 L 15630,-13710 L 15630,-13170 Z" class="l70d20" /> <path d="M 16290,-12010 L 16290,-12450 L 16730,-12450 L 16730,-12010 Z" class="l70d20" /> <path d="M 10530,-9170 L 10530,-9610 L 10970,-9610 L 10970,-9170 Z" class="l70d20" /> <path d="M 16360,-5570 L 16360,-12010 L 16660,-12010 L 16660,-5570 Z" class="l70d20" /> <path d="M 17480,-9610 L 17480,-24170 L 17780,-24170 L 17780,-9610 Z" class="l70d20" /> <path d="M 17410,-9170 L 17410,-9610 L 17850,-9610 L 17850,-9170 Z" class="l70d20" /> <path d="M 16290,-5130 L 16290,-5570 L 16730,-5570 L 16730,-5130 Z" class="l70d20" /> <path d="M 9300,-28250 L 9300,-28550 L 15210,-28550 L 15210,-28250 Z" class="l69d16" /> <path d="M 6420,-6830 L 6420,-7130 L 12180,-7130 L 12180,-6830 Z" class="l69d16" /> <rect x="4875" y="-9365" width="6970" height="4650" class="l999d0" /> <text x="8360.0" y="-7040.0" class="l998t0" text-anchor="middle" alignment-baseline="middle">mirror2_MN3</text> <rect x="10635" y="-9365" width="6970" height="4650" class="l999d0" /> <text x="14120.0" y="-7040.0" class="l998t0" text-anchor="middle" alignment-baseline="middle">mirror2_MN4</text> <rect x="4875" y="-5365" width="6970" height="2725" class="l999d0" /> <text x="8360.0" y="-4002.5" class="l998t0" text-anchor="middle" alignment-baseline="middle">mirror2_MN3_TAPBOT</text> <rect x="10635" y="-5365" width="6970" height="2725" class="l999d0" /> <text x="14120.0" y="-4002.5" class="l998t0" text-anchor="middle" alignment-baseline="middle">mirror2_MN4_TAPBOT</text> <rect x="10635" y="-17365" width="6970" height="4650" class="l999d0" /> <text x="14120.0" y="-15040.0" class="l998t0" text-anchor="middle" alignment-baseline="middle">mirror1_MN6</text> <rect x="4875" y="-17365" width="6970" height="4650" class="l999d0" /> <text x="8360.0" y="-15040.0" class="l998t0" text-anchor="middle" alignment-baseline="middle">mirror1_MN5</text> <rect x="10635" y="-13365" width="6970" height="4650" class="l999d0" /> <text x="14120.0" y="-11040.0" class="l998t0" text-anchor="middle" alignment-baseline="middle">diff1_MN2</text> <rect x="4875" y="-13365" width="6970" height="4650" class="l999d0" /> <text x="8360.0" y="-11040.0" class="l998t0" text-anchor="middle" alignment-baseline="middle">diff1_MN1</text> <rect x="10635" y="-19440" width="6970" height="2725" class="l999d0" /> <text x="14120.0" y="-18077.5" class="l998t0" text-anchor="middle" alignment-baseline="middle">mirror1_MN6_TAPTOP</text> <rect x="4875" y="-19440" width="6970" height="2725" class="l999d0" /> <text x="8360.0" y="-18077.5" class="l998t0" text-anchor="middle" alignment-baseline="middle">mirror1_MN5_TAPTOP</text> <rect x="10320" y="-32680" width="10160" height="5280" class="l999d0" /> <text x="15400.0" y="-30040.0" class="l998t0" text-anchor="middle" alignment-baseline="middle">load1_MP5</text> <rect x="10320" y="-36680" width="10160" height="5280" class="l999d0" /> <text x="15400.0" y="-34040.0" class="l998t0" text-anchor="middle" alignment-baseline="middle">load1_MP2</text> <rect x="10320" y="-28680" width="10160" height="5280" class="l999d0" /> <text x="15400.0" y="-26040.0" class="l998t0" text-anchor="middle" alignment-baseline="middle">load1_MP4</text> <rect x="10320" y="-24680" width="10160" height="3680" class="l999d0" /> <text x="15400.0" y="-22840.0" class="l998t0" text-anchor="middle" alignment-baseline="middle">load1_MP4_TAPBOT</text> <rect x="10320" y="-39080" width="10160" height="3680" class="l999d0" /> <text x="15400.0" y="-37240.0" class="l998t0" text-anchor="middle" alignment-baseline="middle">load1_MP2_TAPTOP</text> <rect x="22910" y="-41150" width="17500" height="41220" class="l999d0" /> <text x="31660.0" y="-20540.0" class="l998t0" text-anchor="middle" alignment-baseline="middle">U1_COMP2</text> <rect x="40770" y="-41150" width="35360" height="41220" class="l999d0" /> <text x="58450.0" y="-20540.0" class="l998t0" text-anchor="middle" alignment-baseline="middle">U2_COMP3</text> <rect x="2000" y="-32680" width="10160" height="5280" class="l999d0" /> <text x="7080.0" y="-30040.0" class="l998t0" text-anchor="middle" alignment-baseline="middle">load1_MP6</text> <rect x="2000" y="-36680" width="10160" height="5280" class="l999d0" /> <text x="7080.0" y="-34040.0" class="l998t0" text-anchor="middle" alignment-baseline="middle">load1_MP1</text> <rect x="2000" y="-28680" width="10160" height="5280" class="l999d0" /> <text x="7080.0" y="-26040.0" class="l998t0" text-anchor="middle" alignment-baseline="middle">load1_MP3</text> <rect x="2000" y="-24680" width="10160" height="3680" class="l999d0" /> <text x="7080.0" y="-22840.0" class="l998t0" text-anchor="middle" alignment-baseline="middle">load1_MP3_TAPBOT</text> <rect x="2000" y="-39080" width="10160" height="3680" class="l999d0" /> <text x="7080.0" y="-37240.0" class="l998t0" text-anchor="middle" alignment-baseline="middle">load1_MP1_TAPTOP</text> <text x="6440" y="-10800" class="l997t0" text-anchor="middle" alignment-baseline="central">VIP</text> <text x="12200" y="-10800" class="l997t0" text-anchor="middle" alignment-baseline="central">VIN</text> <text x="11240" y="-39590" class="l997t0" text-anchor="middle" alignment-baseline="central">VSS</text> <text x="11240" y="-40590" class="l997t0" text-anchor="middle" alignment-baseline="central">VDD</text> <text x="12255" y="-28160" class="l997t0" text-anchor="middle" alignment-baseline="central">VO</text> <text x="9300" y="-6740" class="l997t0" text-anchor="middle" alignment-baseline="central">I_BIAS</text> <text x="730" y="785.0" font-size="700" fill="black" alignment-baseline="middle">Locali</text> <rect x="30" y="370" width="400" height="400" fill="#56423e" stroke="black" stroke-width="2" /> <text x="5130" y="785.0" font-size="700" fill="black" alignment-baseline="middle">M1</text> <rect x="4430" y="370" width="400" height="400" fill="#bea6a1" stroke="black" stroke-width="2" /> <text x="9530" y="785.0" font-size="700" fill="black" alignment-baseline="middle">M2</text> <rect x="8830" y="370" width="400" height="400" fill="#d62728" stroke="black" stroke-width="2" /> <text x="13930" y="785.0" font-size="700" fill="black" alignment-baseline="middle">M3</text> <rect x="13230" y="370" width="400" height="400" fill="#1f77b4" stroke="black" stroke-width="2" /> <text x="18330" y="785.0" font-size="700" fill="black" alignment-baseline="middle">Viali</text> <rect x="17630" y="370" width="400" height="400" fill="#e09a8e" stroke="black" stroke-width="2" /> <text x="22730" y="785.0" font-size="700" fill="black" alignment-baseline="middle">Via1</text> <rect x="22030" y="370" width="400" height="400" fill="#e39024" stroke="black" stroke-width="2" /> <text x="27130" y="785.0" font-size="700" fill="black" alignment-baseline="middle">Via2</text> <rect x="26430" y="370" width="400" height="400" fill="#70b512" stroke="black" stroke-width="2" /> <line x1="-70" y1="-41620" x2="76130" y2="-41620" stroke="black" stroke-width="50" marker-start="url(#arrowhead_reversed)" marker-end="url(#arrowhead)" /> <text x="38030.0" y="-41820" font-size="700" fill="black" text-anchor="middle">76.2 μm</text> <line x1="76660" y1="-70" x2="76660" y2="-41150" stroke="black" stroke-width="50" marker-start="url(#arrowhead_reversed)" marker-end="url(#arrowhead)" /> <text x="76860" y="-20540.0" font-size="700" fill="black" text-anchor="middle" transform="rotate(90 76860,-20540.0)">41.22 μm</text>
            </g>
        </svg>
        