<svg xmlns="http://www.w3.org/2000/svg"
            width="3928.0" height="3598.0"
            viewBox="-147.0 -3451.0 3928.0 3598.0">
            
        <defs>
          <marker id="arrowhead" markerWidth="20" markerHeight="30" 
                  refX="10" refY="3.5" orient="auto" markerUnits="strokeWidth">
            <path d="M0,0 L0,7 L10,3.5 z" fill="black" />
          </marker>

          <marker id="arrowhead_reversed" markerWidth="20" markerHeight="30" 
                  refX="0" refY="3.5" orient="auto" markerUnits="strokeWidth">
            <path d="M10,0 L10,7 L0,3.5 z" fill="black" />
          </marker>
        </defs>
        
        <defs>
        <style type="text/css">
          .l70d20 { fill: #1f77b4; fill-opacity: 0.7; }
          .l69d20 { fill: #d62728; fill-opacity: 0.7; }
          .l67d20 { fill: #56423e; fill-opacity: 0.7; }
          .l68d20 { fill: #bea6a1; fill-opacity: 0.7; }
          .l68d44 { fill: #0077ff;}
          .l67d44 { fill: #e09a8e;}
          .l69d44 { fill: #70b512;}
          
          .l50d0 { fill: #1f77b4; fill-opacity: 0.7; } /* Metal 4 in IHP */
          .l49d0{ fill: #70b512;}                      /* Via 3 in IHP */
          .l30d0 { fill: #d62728; fill-opacity: 0.7; } /* Metal 3 in IHP */
          .l29d0 { fill: #e39024;}                     /* Via 2 in IHP */
          .l10d0 { fill: #bea6a1; fill-opacity: 0.7; } /* Metal 2 in IHP */
          .l19d0 { fill: #e09a8e;}                     /* Via 1 in IHP */
          .l8d0 { fill: #56423e; fill-opacity: 0.7; }  /* Metal 1 in IHP */
        
          
          /* Not dealt with */
          .l64d20,
          .l65d20,
          .l65d44,
          .l66d13,
          .l66d20,
          .l66d44,
          .l67d16,
          .l68d16,
          .l69d16,
          .l86d20,
          .l93d44,
          .l94d20,
          .l95d20,
          .l8d2,
          .l8d25,
          .l30d2,
          .l50d25,
          .l10d2,
          .l30d25,
          .l30d2,
          .l50d2,
          .l14d0
          .l235d4 {
            fill: #000000;
            fill-opacity: 0.0;
          }
          
          .l998t0 { fill: #000000; font-size: 700px; }
          .l997t0 { fill: #5C4033; font-size: 700px; }
          .l999d0 { stroke: #000000; stroke-width: 50; fill: #000000; fill-opacity: 0.2; }
        </style>
        </defs>
        
            <rect x="-147.0" y="-3451.0" width="3928.0" height="3598.0" fill="#ffffff" />
            <g transform="scale(0.1)">
              <path d="M -70,-33040 L -70,-33110 L 570,-33110 L 570,-33040 Z" class="l8d0" /> <path d="M 35770,-33040 L 35770,-33110 L 36410,-33110 L 36410,-33040 Z" class="l8d0" /> <path d="M -70,-32540 L -70,-33040 L 36410,-33040 L 36410,-32540 Z" class="l8d0" /> <path d="M -70,-32470 L -70,-32540 L 570,-32540 L 570,-32470 Z" class="l8d0" /> <path d="M 35770,-32470 L 35770,-32540 L 36410,-32540 L 36410,-32470 Z" class="l8d0" /> <path d="M 930,-32040 L 930,-32110 L 1570,-32110 L 1570,-32040 Z" class="l8d0" /> <path d="M 34770,-32040 L 34770,-32110 L 35410,-32110 L 35410,-32040 Z" class="l8d0" /> <path d="M 930,-31540 L 930,-32040 L 35410,-32040 L 35410,-31540 Z" class="l8d0" /> <path d="M 930,-31470 L 930,-31540 L 1570,-31540 L 1570,-31470 Z" class="l8d0" /> <path d="M 34770,-31470 L 34770,-31540 L 35410,-31540 L 35410,-31470 Z" class="l8d0" /> <path d="M 930,-29850 L 930,-29920 L 1570,-29920 L 1570,-29850 Z" class="l8d0" /> <path d="M 34770,-29850 L 34770,-29920 L 35410,-29920 L 35410,-29850 Z" class="l8d0" /> <path d="M 930,-28590 L 930,-29850 L 35410,-29850 L 35410,-28590 Z" class="l8d0" /> <path d="M 930,-28520 L 930,-28590 L 1570,-28590 L 1570,-28520 Z" class="l8d0" /> <path d="M 34770,-28520 L 34770,-28590 L 35410,-28590 L 35410,-28520 Z" class="l8d0" /> <path d="M 2420,-27020 L 2420,-27420 L 6200,-27420 L 6200,-27020 Z" class="l8d0" /> <path d="M 9980,-27020 L 9980,-27420 L 13760,-27420 L 13760,-27020 Z" class="l8d0" /> <path d="M 17540,-27020 L 17540,-27420 L 21320,-27420 L 21320,-27020 Z" class="l8d0" /> <path d="M 25100,-27020 L 25100,-27420 L 28880,-27420 L 28880,-27020 Z" class="l8d0" /> <path d="M 22580,-25820 L 22580,-26220 L 24680,-26220 L 24680,-25820 Z" class="l8d0" /> <path d="M 30140,-25820 L 30140,-26220 L 32240,-26220 L 32240,-25820 Z" class="l8d0" /> <path d="M 930,-19450 L 930,-19520 L 1570,-19520 L 1570,-19450 Z" class="l8d0" /> <path d="M 34770,-19450 L 34770,-19520 L 35410,-19520 L 35410,-19450 Z" class="l8d0" /> <path d="M 930,-18190 L 930,-19450 L 35410,-19450 L 35410,-18190 Z" class="l8d0" /> <path d="M 930,-18120 L 930,-18190 L 1570,-18190 L 1570,-18120 Z" class="l8d0" /> <path d="M 34770,-18120 L 34770,-18190 L 35410,-18190 L 35410,-18120 Z" class="l8d0" /> <path d="M -70,-14850 L -70,-14920 L 570,-14920 L 570,-14850 Z" class="l8d0" /> <path d="M 35770,-14850 L 35770,-14920 L 36410,-14920 L 36410,-14850 Z" class="l8d0" /> <path d="M -70,-13590 L -70,-14850 L 36410,-14850 L 36410,-13590 Z" class="l8d0" /> <path d="M -70,-13520 L -70,-13590 L 570,-13590 L 570,-13520 Z" class="l8d0" /> <path d="M 35770,-13520 L 35770,-13590 L 36410,-13590 L 36410,-13520 Z" class="l8d0" /> <path d="M 2420,-12020 L 2420,-12420 L 6200,-12420 L 6200,-12020 Z" class="l8d0" /> <path d="M 9980,-12020 L 9980,-12420 L 13760,-12420 L 13760,-12020 Z" class="l8d0" /> <path d="M 17540,-12020 L 17540,-12420 L 21320,-12420 L 21320,-12020 Z" class="l8d0" /> <path d="M 25100,-12020 L 25100,-12420 L 28880,-12420 L 28880,-12020 Z" class="l8d0" /> <path d="M 30140,-10820 L 30140,-11220 L 32240,-11220 L 32240,-10820 Z" class="l8d0" /> <path d="M 9980,-8020 L 9980,-8420 L 13760,-8420 L 13760,-8020 Z" class="l8d0" /> <path d="M 17540,-8020 L 17540,-8420 L 21320,-8420 L 21320,-8020 Z" class="l8d0" /> <path d="M 22580,-6820 L 22580,-7220 L 24680,-7220 L 24680,-6820 Z" class="l8d0" /> <path d="M -70,-4450 L -70,-4520 L 570,-4520 L 570,-4450 Z" class="l8d0" /> <path d="M 35770,-4450 L 35770,-4520 L 36410,-4520 L 36410,-4450 Z" class="l8d0" /> <path d="M -70,-3190 L -70,-4450 L 36410,-4450 L 36410,-3190 Z" class="l8d0" /> <path d="M -70,-3120 L -70,-3190 L 570,-3190 L 570,-3120 Z" class="l8d0" /> <path d="M 35770,-3120 L 35770,-3190 L 36410,-3190 L 36410,-3120 Z" class="l8d0" /> <path d="M 930,-1500 L 930,-1570 L 1570,-1570 L 1570,-1500 Z" class="l8d0" /> <path d="M 34770,-1500 L 34770,-1570 L 35410,-1570 L 35410,-1500 Z" class="l8d0" /> <path d="M 930,-1000 L 930,-1500 L 35410,-1500 L 35410,-1000 Z" class="l8d0" /> <path d="M 930,-930 L 930,-1000 L 1570,-1000 L 1570,-930 Z" class="l8d0" /> <path d="M 34770,-930 L 34770,-1000 L 35410,-1000 L 35410,-930 Z" class="l8d0" /> <path d="M -70,-500 L -70,-570 L 570,-570 L 570,-500 Z" class="l8d0" /> <path d="M 35770,-500 L 35770,-570 L 36410,-570 L 36410,-500 Z" class="l8d0" /> <path d="M -70,0 L -70,-500 L 36410,-500 L 36410,0 Z" class="l8d0" /> <path d="M -70,70 L -70,0 L 570,0 L 570,70 Z" class="l8d0" /> <path d="M 35770,70 L 35770,0 L 36410,0 L 36410,70 Z" class="l8d0" /> <path d="M 13160,-9000 L 13160,-9040 L 15620,-9040 L 15620,-9000 Z" class="l14d0" /> <path d="M 20720,-9000 L 20720,-9040 L 23180,-9040 L 23180,-9000 Z" class="l14d0" /> <path d="M 155,-32695 L 155,-32885 L 345,-32885 L 345,-32695 Z" class="l19d0" /> <path d="M 35995,-32695 L 35995,-32885 L 36185,-32885 L 36185,-32695 Z" class="l19d0" /> <path d="M 1155,-31695 L 1155,-31885 L 1345,-31885 L 1345,-31695 Z" class="l19d0" /> <path d="M 34995,-31695 L 34995,-31885 L 35185,-31885 L 35185,-31695 Z" class="l19d0" /> <path d="M 1155,-29535 L 1155,-29725 L 1345,-29725 L 1345,-29535 Z" class="l19d0" /> <path d="M 34995,-29535 L 34995,-29725 L 35185,-29725 L 35185,-29535 Z" class="l19d0" /> <path d="M 1155,-29125 L 1155,-29315 L 1345,-29315 L 1345,-29125 Z" class="l19d0" /> <path d="M 34995,-29125 L 34995,-29315 L 35185,-29315 L 35185,-29125 Z" class="l19d0" /> <path d="M 1155,-28715 L 1155,-28905 L 1345,-28905 L 1345,-28715 Z" class="l19d0" /> <path d="M 34995,-28715 L 34995,-28905 L 35185,-28905 L 35185,-28715 Z" class="l19d0" /> <path d="M 1155,-19135 L 1155,-19325 L 1345,-19325 L 1345,-19135 Z" class="l19d0" /> <path d="M 34995,-19135 L 34995,-19325 L 35185,-19325 L 35185,-19135 Z" class="l19d0" /> <path d="M 1155,-18725 L 1155,-18915 L 1345,-18915 L 1345,-18725 Z" class="l19d0" /> <path d="M 34995,-18725 L 34995,-18915 L 35185,-18915 L 35185,-18725 Z" class="l19d0" /> <path d="M 1155,-18315 L 1155,-18505 L 1345,-18505 L 1345,-18315 Z" class="l19d0" /> <path d="M 34995,-18315 L 34995,-18505 L 35185,-18505 L 35185,-18315 Z" class="l19d0" /> <path d="M 155,-14535 L 155,-14725 L 345,-14725 L 345,-14535 Z" class="l19d0" /> <path d="M 35995,-14535 L 35995,-14725 L 36185,-14725 L 36185,-14535 Z" class="l19d0" /> <path d="M 155,-14125 L 155,-14315 L 345,-14315 L 345,-14125 Z" class="l19d0" /> <path d="M 35995,-14125 L 35995,-14315 L 36185,-14315 L 36185,-14125 Z" class="l19d0" /> <path d="M 155,-13715 L 155,-13905 L 345,-13905 L 345,-13715 Z" class="l19d0" /> <path d="M 35995,-13715 L 35995,-13905 L 36185,-13905 L 36185,-13715 Z" class="l19d0" /> <path d="M 155,-4135 L 155,-4325 L 345,-4325 L 345,-4135 Z" class="l19d0" /> <path d="M 35995,-4135 L 35995,-4325 L 36185,-4325 L 36185,-4135 Z" class="l19d0" /> <path d="M 155,-3725 L 155,-3915 L 345,-3915 L 345,-3725 Z" class="l19d0" /> <path d="M 35995,-3725 L 35995,-3915 L 36185,-3915 L 36185,-3725 Z" class="l19d0" /> <path d="M 155,-3315 L 155,-3505 L 345,-3505 L 345,-3315 Z" class="l19d0" /> <path d="M 35995,-3315 L 35995,-3505 L 36185,-3505 L 36185,-3315 Z" class="l19d0" /> <path d="M 1155,-1155 L 1155,-1345 L 1345,-1345 L 1345,-1155 Z" class="l19d0" /> <path d="M 34995,-1155 L 34995,-1345 L 35185,-1345 L 35185,-1155 Z" class="l19d0" /> <path d="M 155,-155 L 155,-345 L 345,-345 L 345,-155 Z" class="l19d0" /> <path d="M 35995,-155 L 35995,-345 L 36185,-345 L 36185,-155 Z" class="l19d0" /> <path d="M -70,-32470 L -70,-33110 L 570,-33110 L 570,-32470 Z" class="l10d0" /> <path d="M 35770,-32470 L 35770,-33110 L 36410,-33110 L 36410,-32470 Z" class="l10d0" /> <path d="M 0,-14920 L 0,-32470 L 500,-32470 L 500,-14920 Z" class="l10d0" /> <path d="M 930,-31470 L 930,-32110 L 1570,-32110 L 1570,-31470 Z" class="l10d0" /> <path d="M 34770,-31470 L 34770,-32110 L 35410,-32110 L 35410,-31470 Z" class="l10d0" /> <path d="M 1000,-29920 L 1000,-31470 L 1500,-31470 L 1500,-29920 Z" class="l10d0" /> <path d="M 34840,-29920 L 34840,-31470 L 35340,-31470 L 35340,-29920 Z" class="l10d0" /> <path d="M 930,-28520 L 930,-29920 L 1570,-29920 L 1570,-28520 Z" class="l10d0" /> <path d="M 34770,-28520 L 34770,-29920 L 35410,-29920 L 35410,-28520 Z" class="l10d0" /> <path d="M 1000,-19520 L 1000,-28520 L 1500,-28520 L 1500,-19520 Z" class="l10d0" /> <path d="M 4030,-25750 L 4030,-26290 L 4590,-26290 L 4590,-25750 Z" class="l10d0" /> <path d="M 11590,-25750 L 11590,-26290 L 12150,-26290 L 12150,-25750 Z" class="l10d0" /> <path d="M 19150,-25750 L 19150,-26290 L 19710,-26290 L 19710,-25750 Z" class="l10d0" /> <path d="M 26710,-25750 L 26710,-26290 L 27270,-26290 L 27270,-25750 Z" class="l10d0" /> <path d="M 7390,-24150 L 7390,-24690 L 8790,-24690 L 8790,-24150 Z" class="l10d0" /> <path d="M 14950,-24150 L 14950,-24690 L 16350,-24690 L 16350,-24150 Z" class="l10d0" /> <path d="M 12430,-22950 L 12430,-23490 L 13830,-23490 L 13830,-22950 Z" class="l10d0" /> <path d="M 19990,-22950 L 19990,-23490 L 21390,-23490 L 21390,-22950 Z" class="l10d0" /> <path d="M 14950,-20150 L 14950,-20690 L 16350,-20690 L 16350,-20150 Z" class="l10d0" /> <path d="M 22510,-20150 L 22510,-20690 L 23910,-20690 L 23910,-20150 Z" class="l10d0" /> <path d="M 34840,-19520 L 34840,-28520 L 35340,-28520 L 35340,-19520 Z" class="l10d0" /> <path d="M 930,-18120 L 930,-19520 L 1570,-19520 L 1570,-18120 Z" class="l10d0" /> <path d="M 34770,-18120 L 34770,-19520 L 35410,-19520 L 35410,-18120 Z" class="l10d0" /> <path d="M -70,-13520 L -70,-14920 L 570,-14920 L 570,-13520 Z" class="l10d0" /> <path d="M 0,-4520 L 0,-13520 L 500,-13520 L 500,-4520 Z" class="l10d0" /> <path d="M -70,-3120 L -70,-4520 L 570,-4520 L 570,-3120 Z" class="l10d0" /> <path d="M 0,-570 L 0,-3120 L 500,-3120 L 500,-570 Z" class="l10d0" /> <path d="M 1000,-1570 L 1000,-18120 L 1500,-18120 L 1500,-1570 Z" class="l10d0" /> <path d="M 4030,-10750 L 4030,-11290 L 4590,-11290 L 4590,-10750 Z" class="l10d0" /> <path d="M 11590,-10750 L 11590,-11290 L 12150,-11290 L 12150,-10750 Z" class="l10d0" /> <path d="M 19150,-10750 L 19150,-11290 L 19710,-11290 L 19710,-10750 Z" class="l10d0" /> <path d="M 26710,-10750 L 26710,-11290 L 27270,-11290 L 27270,-10750 Z" class="l10d0" /> <path d="M 7390,-9150 L 7390,-9690 L 8790,-9690 L 8790,-9150 Z" class="l10d0" /> <path d="M 14950,-9150 L 14950,-9690 L 16350,-9690 L 16350,-9150 Z" class="l10d0" /> <path d="M 22510,-9150 L 22510,-9690 L 23910,-9690 L 23910,-9150 Z" class="l10d0" /> <path d="M 11590,-6750 L 11590,-7290 L 12150,-7290 L 12150,-6750 Z" class="l10d0" /> <path d="M 19150,-6750 L 19150,-7290 L 19710,-7290 L 19710,-6750 Z" class="l10d0" /> <path d="M 14950,-5150 L 14950,-5690 L 16350,-5690 L 16350,-5150 Z" class="l10d0" /> <path d="M 34840,-1570 L 34840,-18120 L 35340,-18120 L 35340,-1570 Z" class="l10d0" /> <path d="M 35840,-14920 L 35840,-32470 L 36340,-32470 L 36340,-14920 Z" class="l10d0" /> <path d="M 35770,-13520 L 35770,-14920 L 36410,-14920 L 36410,-13520 Z" class="l10d0" /> <path d="M 35840,-4520 L 35840,-13520 L 36340,-13520 L 36340,-4520 Z" class="l10d0" /> <path d="M 35770,-3120 L 35770,-4520 L 36410,-4520 L 36410,-3120 Z" class="l10d0" /> <path d="M 930,-930 L 930,-1570 L 1570,-1570 L 1570,-930 Z" class="l10d0" /> <path d="M 34770,-930 L 34770,-1570 L 35410,-1570 L 35410,-930 Z" class="l10d0" /> <path d="M 35840,-570 L 35840,-3120 L 36340,-3120 L 36340,-570 Z" class="l10d0" /> <path d="M -70,70 L -70,-570 L 570,-570 L 570,70 Z" class="l10d0" /> <path d="M 35770,70 L 35770,-570 L 36410,-570 L 36410,70 Z" class="l10d0" /> <path d="M 19220,-21820 L 19220,-22220 L 19640,-22220 L 19640,-21820 Z" class="l10d2" /> <path d="M 11660,-21820 L 11660,-22220 L 12080,-22220 L 12080,-21820 Z" class="l10d2" /> <path d="M 1000,-31540 L 1000,-32040 L 35340,-32040 L 35340,-31540 Z" class="l8d2" /> <path d="M 0,-32540 L 0,-33040 L 36340,-33040 L 36340,-32540 Z" class="l8d2" /> <path d="M 4215,-25925 L 4215,-26115 L 4405,-26115 L 4405,-25925 Z" class="l29d0" /> <path d="M 11775,-25925 L 11775,-26115 L 11965,-26115 L 11965,-25925 Z" class="l29d0" /> <path d="M 19335,-25925 L 19335,-26115 L 19525,-26115 L 19525,-25925 Z" class="l29d0" /> <path d="M 26895,-25925 L 26895,-26115 L 27085,-26115 L 27085,-25925 Z" class="l29d0" /> <path d="M 7585,-24325 L 7585,-24515 L 7775,-24515 L 7775,-24325 Z" class="l29d0" /> <path d="M 7995,-24325 L 7995,-24515 L 8185,-24515 L 8185,-24325 Z" class="l29d0" /> <path d="M 8405,-24325 L 8405,-24515 L 8595,-24515 L 8595,-24325 Z" class="l29d0" /> <path d="M 15145,-24325 L 15145,-24515 L 15335,-24515 L 15335,-24325 Z" class="l29d0" /> <path d="M 15555,-24325 L 15555,-24515 L 15745,-24515 L 15745,-24325 Z" class="l29d0" /> <path d="M 15965,-24325 L 15965,-24515 L 16155,-24515 L 16155,-24325 Z" class="l29d0" /> <path d="M 12625,-23125 L 12625,-23315 L 12815,-23315 L 12815,-23125 Z" class="l29d0" /> <path d="M 13035,-23125 L 13035,-23315 L 13225,-23315 L 13225,-23125 Z" class="l29d0" /> <path d="M 13445,-23125 L 13445,-23315 L 13635,-23315 L 13635,-23125 Z" class="l29d0" /> <path d="M 20185,-23125 L 20185,-23315 L 20375,-23315 L 20375,-23125 Z" class="l29d0" /> <path d="M 20595,-23125 L 20595,-23315 L 20785,-23315 L 20785,-23125 Z" class="l29d0" /> <path d="M 21005,-23125 L 21005,-23315 L 21195,-23315 L 21195,-23125 Z" class="l29d0" /> <path d="M 15145,-20325 L 15145,-20515 L 15335,-20515 L 15335,-20325 Z" class="l29d0" /> <path d="M 15555,-20325 L 15555,-20515 L 15745,-20515 L 15745,-20325 Z" class="l29d0" /> <path d="M 15965,-20325 L 15965,-20515 L 16155,-20515 L 16155,-20325 Z" class="l29d0" /> <path d="M 22705,-20325 L 22705,-20515 L 22895,-20515 L 22895,-20325 Z" class="l29d0" /> <path d="M 23115,-20325 L 23115,-20515 L 23305,-20515 L 23305,-20325 Z" class="l29d0" /> <path d="M 23525,-20325 L 23525,-20515 L 23715,-20515 L 23715,-20325 Z" class="l29d0" /> <path d="M 4215,-10925 L 4215,-11115 L 4405,-11115 L 4405,-10925 Z" class="l29d0" /> <path d="M 11775,-10925 L 11775,-11115 L 11965,-11115 L 11965,-10925 Z" class="l29d0" /> <path d="M 19335,-10925 L 19335,-11115 L 19525,-11115 L 19525,-10925 Z" class="l29d0" /> <path d="M 26895,-10925 L 26895,-11115 L 27085,-11115 L 27085,-10925 Z" class="l29d0" /> <path d="M 7585,-9325 L 7585,-9515 L 7775,-9515 L 7775,-9325 Z" class="l29d0" /> <path d="M 7995,-9325 L 7995,-9515 L 8185,-9515 L 8185,-9325 Z" class="l29d0" /> <path d="M 8405,-9325 L 8405,-9515 L 8595,-9515 L 8595,-9325 Z" class="l29d0" /> <path d="M 15145,-9325 L 15145,-9515 L 15335,-9515 L 15335,-9325 Z" class="l29d0" /> <path d="M 15555,-9325 L 15555,-9515 L 15745,-9515 L 15745,-9325 Z" class="l29d0" /> <path d="M 15965,-9325 L 15965,-9515 L 16155,-9515 L 16155,-9325 Z" class="l29d0" /> <path d="M 22705,-9325 L 22705,-9515 L 22895,-9515 L 22895,-9325 Z" class="l29d0" /> <path d="M 23115,-9325 L 23115,-9515 L 23305,-9515 L 23305,-9325 Z" class="l29d0" /> <path d="M 23525,-9325 L 23525,-9515 L 23715,-9515 L 23715,-9325 Z" class="l29d0" /> <path d="M 11775,-6925 L 11775,-7115 L 11965,-7115 L 11965,-6925 Z" class="l29d0" /> <path d="M 19335,-6925 L 19335,-7115 L 19525,-7115 L 19525,-6925 Z" class="l29d0" /> <path d="M 15145,-5325 L 15145,-5515 L 15335,-5515 L 15335,-5325 Z" class="l29d0" /> <path d="M 15555,-5325 L 15555,-5515 L 15745,-5515 L 15745,-5325 Z" class="l29d0" /> <path d="M 15965,-5325 L 15965,-5515 L 16155,-5515 L 16155,-5325 Z" class="l29d0" /> <path d="M 4120,-28240 L 4120,-28310 L 4560,-28310 L 4560,-28240 Z" class="l30d0" /> <path d="M 26680,-28240 L 26680,-28310 L 27120,-28310 L 27120,-28240 Z" class="l30d0" /> <path d="M 4120,-27940 L 4120,-28240 L 27120,-28240 L 27120,-27940 Z" class="l30d0" /> <path d="M 4120,-27870 L 4120,-27940 L 4560,-27940 L 4560,-27870 Z" class="l30d0" /> <path d="M 26680,-27870 L 26680,-27940 L 27120,-27940 L 27120,-27870 Z" class="l30d0" /> <path d="M 4030,-25750 L 4030,-26290 L 4590,-26290 L 4590,-25750 Z" class="l30d0" /> <path d="M 11590,-26130 L 11590,-26290 L 12150,-26290 L 12150,-26130 Z" class="l30d0" /> <path d="M 19150,-26130 L 19150,-26290 L 19710,-26290 L 19710,-26130 Z" class="l30d0" /> <path d="M 11590,-25830 L 11590,-26130 L 19710,-26130 L 19710,-25830 Z" class="l30d0" /> <path d="M 11590,-25750 L 11590,-25830 L 12150,-25830 L 12150,-25750 Z" class="l30d0" /> <path d="M 19150,-25750 L 19150,-25830 L 19710,-25830 L 19710,-25750 Z" class="l30d0" /> <path d="M 26710,-25750 L 26710,-26290 L 27270,-26290 L 27270,-25750 Z" class="l30d0" /> <path d="M 7390,-24150 L 7390,-24690 L 8790,-24690 L 8790,-24150 Z" class="l30d0" /> <path d="M 14950,-24150 L 14950,-24690 L 16350,-24690 L 16350,-24150 Z" class="l30d0" /> <path d="M 12430,-23370 L 12430,-23490 L 13830,-23490 L 13830,-23370 Z" class="l30d0" /> <path d="M 19990,-23370 L 19990,-23490 L 21390,-23490 L 21390,-23370 Z" class="l30d0" /> <path d="M 12430,-23070 L 12430,-23370 L 21390,-23370 L 21390,-23070 Z" class="l30d0" /> <path d="M 12430,-22950 L 12430,-23070 L 13830,-23070 L 13830,-22950 Z" class="l30d0" /> <path d="M 19990,-22950 L 19990,-23070 L 21390,-23070 L 21390,-22950 Z" class="l30d0" /> <path d="M 12910,-22090 L 12910,-22160 L 13350,-22160 L 13350,-22090 Z" class="l30d0" /> <path d="M 15470,-22090 L 15470,-22160 L 15910,-22160 L 15910,-22090 Z" class="l30d0" /> <path d="M 12910,-21790 L 12910,-22090 L 15910,-22090 L 15910,-21790 Z" class="l30d0" /> <path d="M 12910,-21720 L 12910,-21790 L 13350,-21790 L 13350,-21720 Z" class="l30d0" /> <path d="M 15470,-21720 L 15470,-21790 L 15910,-21790 L 15910,-21720 Z" class="l30d0" /> <path d="M 14950,-20150 L 14950,-20690 L 16350,-20690 L 16350,-20150 Z" class="l30d0" /> <path d="M 22510,-20150 L 22510,-20690 L 23910,-20690 L 23910,-20150 Z" class="l30d0" /> <path d="M 17080,-13520 L 17080,-13590 L 17520,-13590 L 17520,-13520 Z" class="l30d0" /> <path d="M 26680,-13520 L 26680,-13590 L 27120,-13590 L 27120,-13520 Z" class="l30d0" /> <path d="M 17080,-13220 L 17080,-13520 L 27120,-13520 L 27120,-13220 Z" class="l30d0" /> <path d="M 17080,-13150 L 17080,-13220 L 17520,-13220 L 17520,-13150 Z" class="l30d0" /> <path d="M 26680,-13150 L 26680,-13220 L 27120,-13220 L 27120,-13150 Z" class="l30d0" /> <path d="M 4030,-11140 L 4030,-11290 L 4590,-11290 L 4590,-11140 Z" class="l30d0" /> <path d="M 9880,-11140 L 9880,-11210 L 10320,-11210 L 10320,-11140 Z" class="l30d0" /> <path d="M 4030,-10840 L 4030,-11140 L 10320,-11140 L 10320,-10840 Z" class="l30d0" /> <path d="M 4030,-10750 L 4030,-10840 L 4590,-10840 L 4590,-10750 Z" class="l30d0" /> <path d="M 9880,-10770 L 9880,-10840 L 10320,-10840 L 10320,-10770 Z" class="l30d0" /> <path d="M 11590,-10750 L 11590,-11290 L 12150,-11290 L 12150,-10750 Z" class="l30d0" /> <path d="M 15480,-11140 L 15480,-11210 L 15920,-11210 L 15920,-11140 Z" class="l30d0" /> <path d="M 19150,-11140 L 19150,-11290 L 19710,-11290 L 19710,-11140 Z" class="l30d0" /> <path d="M 26710,-11140 L 26710,-11290 L 27270,-11290 L 27270,-11140 Z" class="l30d0" /> <path d="M 15480,-10840 L 15480,-11140 L 27270,-11140 L 27270,-10840 Z" class="l30d0" /> <path d="M 15480,-10770 L 15480,-10840 L 15920,-10840 L 15920,-10770 Z" class="l30d0" /> <path d="M 19150,-10750 L 19150,-10840 L 19710,-10840 L 19710,-10750 Z" class="l30d0" /> <path d="M 26710,-10750 L 26710,-10840 L 27270,-10840 L 27270,-10750 Z" class="l30d0" /> <path d="M 7390,-9150 L 7390,-9690 L 8790,-9690 L 8790,-9150 Z" class="l30d0" /> <path d="M 9880,-9540 L 9880,-9610 L 10320,-9610 L 10320,-9540 Z" class="l30d0" /> <path d="M 14950,-9540 L 14950,-9690 L 16350,-9690 L 16350,-9540 Z" class="l30d0" /> <path d="M 9880,-9240 L 9880,-9540 L 16350,-9540 L 16350,-9240 Z" class="l30d0" /> <path d="M 9880,-9170 L 9880,-9240 L 10320,-9240 L 10320,-9170 Z" class="l30d0" /> <path d="M 14950,-9150 L 14950,-9240 L 16350,-9240 L 16350,-9150 Z" class="l30d0" /> <path d="M 22510,-9150 L 22510,-9690 L 23910,-9690 L 23910,-9150 Z" class="l30d0" /> <path d="M 11590,-7140 L 11590,-7290 L 12150,-7290 L 12150,-7140 Z" class="l30d0" /> <path d="M 19150,-7140 L 19150,-7290 L 19710,-7290 L 19710,-7140 Z" class="l30d0" /> <path d="M 23000,-7140 L 23000,-7210 L 23440,-7210 L 23440,-7140 Z" class="l30d0" /> <path d="M 11590,-6840 L 11590,-7140 L 23440,-7140 L 23440,-6840 Z" class="l30d0" /> <path d="M 11590,-6750 L 11590,-6840 L 12150,-6840 L 12150,-6750 Z" class="l30d0" /> <path d="M 19150,-6750 L 19150,-6840 L 19710,-6840 L 19710,-6750 Z" class="l30d0" /> <path d="M 23000,-6770 L 23000,-6840 L 23440,-6840 L 23440,-6770 Z" class="l30d0" /> <path d="M 14950,-5520 L 14950,-5690 L 16350,-5690 L 16350,-5520 Z" class="l30d0" /> <path d="M 17080,-5520 L 17080,-5590 L 17520,-5590 L 17520,-5520 Z" class="l30d0" /> <path d="M 14950,-5220 L 14950,-5520 L 17520,-5520 L 17520,-5220 Z" class="l30d0" /> <path d="M 14950,-5150 L 14950,-5220 L 16350,-5220 L 16350,-5150 Z" class="l30d0" /> <path d="M 17080,-5150 L 17080,-5220 L 17520,-5220 L 17520,-5150 Z" class="l30d0" /> <path d="M 4245,-27995 L 4245,-28185 L 4435,-28185 L 4435,-27995 Z" class="l49d0" /> <path d="M 26805,-27995 L 26805,-28185 L 26995,-28185 L 26995,-27995 Z" class="l49d0" /> <path d="M 4215,-25925 L 4215,-26115 L 4405,-26115 L 4405,-25925 Z" class="l49d0" /> <path d="M 26895,-25925 L 26895,-26115 L 27085,-26115 L 27085,-25925 Z" class="l49d0" /> <path d="M 7585,-24325 L 7585,-24515 L 7775,-24515 L 7775,-24325 Z" class="l49d0" /> <path d="M 7995,-24325 L 7995,-24515 L 8185,-24515 L 8185,-24325 Z" class="l49d0" /> <path d="M 8405,-24325 L 8405,-24515 L 8595,-24515 L 8595,-24325 Z" class="l49d0" /> <path d="M 15145,-24325 L 15145,-24515 L 15335,-24515 L 15335,-24325 Z" class="l49d0" /> <path d="M 15555,-24325 L 15555,-24515 L 15745,-24515 L 15745,-24325 Z" class="l49d0" /> <path d="M 15965,-24325 L 15965,-24515 L 16155,-24515 L 16155,-24325 Z" class="l49d0" /> <path d="M 12625,-23125 L 12625,-23315 L 12815,-23315 L 12815,-23125 Z" class="l49d0" /> <path d="M 13035,-23125 L 13035,-23315 L 13225,-23315 L 13225,-23125 Z" class="l49d0" /> <path d="M 13445,-23125 L 13445,-23315 L 13635,-23315 L 13635,-23125 Z" class="l49d0" /> <path d="M 13035,-21845 L 13035,-22035 L 13225,-22035 L 13225,-21845 Z" class="l49d0" /> <path d="M 15595,-21845 L 15595,-22035 L 15785,-22035 L 15785,-21845 Z" class="l49d0" /> <path d="M 15145,-20325 L 15145,-20515 L 15335,-20515 L 15335,-20325 Z" class="l49d0" /> <path d="M 15555,-20325 L 15555,-20515 L 15745,-20515 L 15745,-20325 Z" class="l49d0" /> <path d="M 15965,-20325 L 15965,-20515 L 16155,-20515 L 16155,-20325 Z" class="l49d0" /> <path d="M 22705,-20325 L 22705,-20515 L 22895,-20515 L 22895,-20325 Z" class="l49d0" /> <path d="M 23115,-20325 L 23115,-20515 L 23305,-20515 L 23305,-20325 Z" class="l49d0" /> <path d="M 23525,-20325 L 23525,-20515 L 23715,-20515 L 23715,-20325 Z" class="l49d0" /> <path d="M 17205,-13275 L 17205,-13465 L 17395,-13465 L 17395,-13275 Z" class="l49d0" /> <path d="M 26805,-13275 L 26805,-13465 L 26995,-13465 L 26995,-13275 Z" class="l49d0" /> <path d="M 10005,-10895 L 10005,-11085 L 10195,-11085 L 10195,-10895 Z" class="l49d0" /> <path d="M 11775,-10925 L 11775,-11115 L 11965,-11115 L 11965,-10925 Z" class="l49d0" /> <path d="M 15605,-10895 L 15605,-11085 L 15795,-11085 L 15795,-10895 Z" class="l49d0" /> <path d="M 7585,-9325 L 7585,-9515 L 7775,-9515 L 7775,-9325 Z" class="l49d0" /> <path d="M 7995,-9325 L 7995,-9515 L 8185,-9515 L 8185,-9325 Z" class="l49d0" /> <path d="M 8405,-9325 L 8405,-9515 L 8595,-9515 L 8595,-9325 Z" class="l49d0" /> <path d="M 10005,-9295 L 10005,-9485 L 10195,-9485 L 10195,-9295 Z" class="l49d0" /> <path d="M 15145,-9325 L 15145,-9515 L 15335,-9515 L 15335,-9325 Z" class="l49d0" /> <path d="M 15555,-9325 L 15555,-9515 L 15745,-9515 L 15745,-9325 Z" class="l49d0" /> <path d="M 15965,-9325 L 15965,-9515 L 16155,-9515 L 16155,-9325 Z" class="l49d0" /> <path d="M 22705,-9325 L 22705,-9515 L 22895,-9515 L 22895,-9325 Z" class="l49d0" /> <path d="M 23115,-9325 L 23115,-9515 L 23305,-9515 L 23305,-9325 Z" class="l49d0" /> <path d="M 23525,-9325 L 23525,-9515 L 23715,-9515 L 23715,-9325 Z" class="l49d0" /> <path d="M 11775,-6925 L 11775,-7115 L 11965,-7115 L 11965,-6925 Z" class="l49d0" /> <path d="M 23125,-6895 L 23125,-7085 L 23315,-7085 L 23315,-6895 Z" class="l49d0" /> <path d="M 17205,-5275 L 17205,-5465 L 17395,-5465 L 17395,-5275 Z" class="l49d0" /> <path d="M 4120,-27870 L 4120,-28310 L 4560,-28310 L 4560,-27870 Z" class="l50d0" /> <path d="M 26680,-27870 L 26680,-28310 L 27120,-28310 L 27120,-27870 Z" class="l50d0" /> <path d="M 4190,-26290 L 4190,-27870 L 4490,-27870 L 4490,-26290 Z" class="l50d0" /> <path d="M 26750,-26290 L 26750,-27870 L 27050,-27870 L 27050,-26290 Z" class="l50d0" /> <path d="M 4030,-25750 L 4030,-26290 L 4590,-26290 L 4590,-25750 Z" class="l50d0" /> <path d="M 26710,-25750 L 26710,-26290 L 27270,-26290 L 27270,-25750 Z" class="l50d0" /> <path d="M 7390,-24150 L 7390,-24690 L 8790,-24690 L 8790,-24150 Z" class="l50d0" /> <path d="M 14950,-24150 L 14950,-24690 L 16350,-24690 L 16350,-24150 Z" class="l50d0" /> <path d="M 7880,-9690 L 7880,-24150 L 8180,-24150 L 8180,-9690 Z" class="l50d0" /> <path d="M 12430,-22950 L 12430,-23490 L 13830,-23490 L 13830,-22950 Z" class="l50d0" /> <path d="M 12980,-22160 L 12980,-22950 L 13280,-22950 L 13280,-22160 Z" class="l50d0" /> <path d="M 15540,-22160 L 15540,-24150 L 15840,-24150 L 15840,-22160 Z" class="l50d0" /> <path d="M 12910,-21720 L 12910,-22160 L 13350,-22160 L 13350,-21720 Z" class="l50d0" /> <path d="M 15470,-21720 L 15470,-22160 L 15910,-22160 L 15910,-21720 Z" class="l50d0" /> <path d="M 14950,-20150 L 14950,-20690 L 16350,-20690 L 16350,-20150 Z" class="l50d0" /> <path d="M 22510,-20150 L 22510,-20690 L 23910,-20690 L 23910,-20150 Z" class="l50d0" /> <path d="M 9880,-10770 L 9880,-11210 L 10320,-11210 L 10320,-10770 Z" class="l50d0" /> <path d="M 7390,-9150 L 7390,-9690 L 8790,-9690 L 8790,-9150 Z" class="l50d0" /> <path d="M 9950,-9610 L 9950,-10770 L 10250,-10770 L 10250,-9610 Z" class="l50d0" /> <path d="M 11590,-10750 L 11590,-11290 L 12150,-11290 L 12150,-10750 Z" class="l50d0" /> <path d="M 15550,-11210 L 15550,-20150 L 15850,-20150 L 15850,-11210 Z" class="l50d0" /> <path d="M 17080,-13150 L 17080,-13590 L 17520,-13590 L 17520,-13150 Z" class="l50d0" /> <path d="M 15480,-10770 L 15480,-11210 L 15920,-11210 L 15920,-10770 Z" class="l50d0" /> <path d="M 9880,-9170 L 9880,-9610 L 10320,-9610 L 10320,-9170 Z" class="l50d0" /> <path d="M 11710,-7290 L 11710,-10750 L 12010,-10750 L 12010,-7290 Z" class="l50d0" /> <path d="M 15550,-9690 L 15550,-10770 L 15850,-10770 L 15850,-9690 Z" class="l50d0" /> <path d="M 14950,-9150 L 14950,-9690 L 16350,-9690 L 16350,-9150 Z" class="l50d0" /> <path d="M 11590,-6750 L 11590,-7290 L 12150,-7290 L 12150,-6750 Z" class="l50d0" /> <path d="M 17150,-5590 L 17150,-13150 L 17450,-13150 L 17450,-5590 Z" class="l50d0" /> <path d="M 23070,-9690 L 23070,-20150 L 23370,-20150 L 23370,-9690 Z" class="l50d0" /> <path d="M 26750,-13590 L 26750,-25750 L 27050,-25750 L 27050,-13590 Z" class="l50d0" /> <path d="M 26680,-13150 L 26680,-13590 L 27120,-13590 L 27120,-13150 Z" class="l50d0" /> <path d="M 22510,-9150 L 22510,-9690 L 23910,-9690 L 23910,-9150 Z" class="l50d0" /> <path d="M 23070,-7210 L 23070,-9150 L 23370,-9150 L 23370,-7210 Z" class="l50d0" /> <path d="M 23000,-6770 L 23000,-7210 L 23440,-7210 L 23440,-6770 Z" class="l50d0" /> <path d="M 17080,-5150 L 17080,-5590 L 17520,-5590 L 17520,-5150 Z" class="l50d0" /> <path d="M 7880,-9360 L 7880,-24400 L 8180,-24400 L 8180,-9360 Z" class="l50d2" /> <path d="M 11840,-25830 L 11840,-26130 L 19360,-26130 L 19360,-25830 Z" class="l30d2" /> <rect x="24680" y="-16040" width="9660" height="3640" class="l999d0" /> <text x="29510.0" y="-14220.0" class="l998t0" text-anchor="middle" alignment-baseline="middle">load1_MP5_TAPTOP</text> <rect x="2000" y="-16040" width="9660" height="3640" class="l999d0" /> <text x="6830.0" y="-14220.0" class="l998t0" text-anchor="middle" alignment-baseline="middle">load1_MP6_TAPTOP</text> <rect x="17120" y="-16040" width="9660" height="3640" class="l999d0" /> <text x="21950.0" y="-14220.0" class="l998t0" text-anchor="middle" alignment-baseline="middle">load1_MP3_TAPTOP</text> <rect x="9560" y="-16040" width="9660" height="3640" class="l999d0" /> <text x="14390.0" y="-14220.0" class="l998t0" text-anchor="middle" alignment-baseline="middle">load1_MP4_TAPTOP</text> <rect x="24680" y="-13640" width="9660" height="5240" class="l999d0" /> <text x="29510.0" y="-11020.0" class="l998t0" text-anchor="middle" alignment-baseline="middle">load1_MP5</text> <rect x="2000" y="-13640" width="9660" height="5240" class="l999d0" /> <text x="6830.0" y="-11020.0" class="l998t0" text-anchor="middle" alignment-baseline="middle">load1_MP6</text> <rect x="9560" y="-9640" width="9660" height="5240" class="l999d0" /> <text x="14390.0" y="-7020.0" class="l998t0" text-anchor="middle" alignment-baseline="middle">load1_MP1</text> <rect x="17120" y="-9640" width="9660" height="5240" class="l999d0" /> <text x="21950.0" y="-7020.0" class="l998t0" text-anchor="middle" alignment-baseline="middle">load1_MP2</text> <rect x="17120" y="-13640" width="9660" height="5240" class="l999d0" /> <text x="21950.0" y="-11020.0" class="l998t0" text-anchor="middle" alignment-baseline="middle">load1_MP3</text> <rect x="9560" y="-13640" width="9660" height="5240" class="l999d0" /> <text x="14390.0" y="-11020.0" class="l998t0" text-anchor="middle" alignment-baseline="middle">load1_MP4</text> <rect x="17510" y="-20250" width="8880" height="2630" class="l999d0" /> <text x="21950.0" y="-18935.0" class="l998t0" text-anchor="middle" alignment-baseline="middle">diff1_MN1_TAPBOT</text> <rect x="9950" y="-20250" width="8880" height="2630" class="l999d0" /> <text x="14390.0" y="-18935.0" class="l998t0" text-anchor="middle" alignment-baseline="middle">diff1_MN2_TAPBOT</text> <rect x="25070" y="-24250" width="8880" height="2630" class="l999d0" /> <text x="29510.0" y="-22935.0" class="l998t0" text-anchor="middle" alignment-baseline="middle">mirror1_MN5_TAPBOT</text> <rect x="2390" y="-24250" width="8880" height="2630" class="l999d0" /> <text x="6830.0" y="-22935.0" class="l998t0" text-anchor="middle" alignment-baseline="middle">mirror1_MN6_TAPBOT</text> <rect x="9950" y="-30420" width="8880" height="2630" class="l999d0" /> <text x="14390.0" y="-29105.0" class="l998t0" text-anchor="middle" alignment-baseline="middle">mirror2_MN4_TAPTOP</text> <rect x="17510" y="-30420" width="8880" height="2630" class="l999d0" /> <text x="21950.0" y="-29105.0" class="l998t0" text-anchor="middle" alignment-baseline="middle">mirror2_MN3_TAPTOP</text> <rect x="25070" y="-30420" width="8880" height="2630" class="l999d0" /> <text x="29510.0" y="-29105.0" class="l998t0" text-anchor="middle" alignment-baseline="middle">mirror1_MN5_TAPTOP</text> <rect x="2390" y="-30420" width="8880" height="2630" class="l999d0" /> <text x="6830.0" y="-29105.0" class="l998t0" text-anchor="middle" alignment-baseline="middle">mirror1_MN6_TAPTOP</text> <rect x="17510" y="-24250" width="8880" height="4460" class="l999d0" /> <text x="21950.0" y="-22020.0" class="l998t0" text-anchor="middle" alignment-baseline="middle">diff1_MN1</text> <rect x="9950" y="-24250" width="8880" height="4460" class="l999d0" /> <text x="14390.0" y="-22020.0" class="l998t0" text-anchor="middle" alignment-baseline="middle">diff1_MN2</text> <rect x="9950" y="-28250" width="8880" height="4460" class="l999d0" /> <text x="14390.0" y="-26020.0" class="l998t0" text-anchor="middle" alignment-baseline="middle">mirror2_MN4</text> <rect x="17510" y="-28250" width="8880" height="4460" class="l999d0" /> <text x="21950.0" y="-26020.0" class="l998t0" text-anchor="middle" alignment-baseline="middle">mirror2_MN3</text> <rect x="25070" y="-28250" width="8880" height="4460" class="l999d0" /> <text x="29510.0" y="-26020.0" class="l998t0" text-anchor="middle" alignment-baseline="middle">mirror1_MN5</text> <rect x="2390" y="-28250" width="8880" height="4460" class="l999d0" /> <text x="6830.0" y="-26020.0" class="l998t0" text-anchor="middle" alignment-baseline="middle">mirror1_MN6</text> <rect x="24680" y="-9640" width="9660" height="3640" class="l999d0" /> <text x="29510.0" y="-7820.0" class="l998t0" text-anchor="middle" alignment-baseline="middle">load1_MP5_TAPBOT</text> <rect x="2000" y="-9640" width="9660" height="3640" class="l999d0" /> <text x="6830.0" y="-7820.0" class="l998t0" text-anchor="middle" alignment-baseline="middle">load1_MP6_TAPBOT</text> <rect x="9560" y="-5640" width="9660" height="3640" class="l999d0" /> <text x="14390.0" y="-3820.0" class="l998t0" text-anchor="middle" alignment-baseline="middle">load1_MP1_TAPBOT</text> <rect x="17120" y="-5640" width="9660" height="3640" class="l999d0" /> <text x="21950.0" y="-3820.0" class="l998t0" text-anchor="middle" alignment-baseline="middle">load1_MP2_TAPBOT</text> <text x="19430" y="-21780" class="l997t0" text-anchor="middle" alignment-baseline="central">VIP</text> <text x="11870" y="-21780" class="l997t0" text-anchor="middle" alignment-baseline="central">VIN</text> <text x="18170" y="-31550" class="l997t0" text-anchor="middle" alignment-baseline="central">VSS</text> <text x="18170" y="-32550" class="l997t0" text-anchor="middle" alignment-baseline="central">VDD</text> <text x="8030" y="-16640" class="l997t0" text-anchor="middle" alignment-baseline="central">VO</text> <text x="15600" y="-25740" class="l997t0" text-anchor="middle" alignment-baseline="central">I_BIAS</text> <text x="730" y="785.0" font-size="700" fill="black" alignment-baseline="middle">Metal1</text> <rect x="30" y="370" width="400" height="400" fill="#56423e" stroke="black" stroke-width="2" /> <text x="6230" y="785.0" font-size="700" fill="black" alignment-baseline="middle">Metal2</text> <rect x="5530" y="370" width="400" height="400" fill="#bea6a1" stroke="black" stroke-width="2" /> <text x="11730" y="785.0" font-size="700" fill="black" alignment-baseline="middle">Metal3</text> <rect x="11030" y="370" width="400" height="400" fill="#d62728" stroke="black" stroke-width="2" /> <text x="17230" y="785.0" font-size="700" fill="black" alignment-baseline="middle">Metal4</text> <rect x="16530" y="370" width="400" height="400" fill="#1f77b4" stroke="black" stroke-width="2" /> <text x="22730" y="785.0" font-size="700" fill="black" alignment-baseline="middle">Via1</text> <rect x="22030" y="370" width="400" height="400" fill="#e09a8e" stroke="black" stroke-width="2" /> <text x="28230" y="785.0" font-size="700" fill="black" alignment-baseline="middle">Via2</text> <rect x="27530" y="370" width="400" height="400" fill="#e39024" stroke="black" stroke-width="2" /> <text x="33730" y="785.0" font-size="700" fill="black" alignment-baseline="middle">Via3</text> <rect x="33030" y="370" width="400" height="400" fill="#70b512" stroke="black" stroke-width="2" /> <line x1="-70" y1="-33670" x2="36410" y2="-33670" stroke="black" stroke-width="50" marker-start="url(#arrowhead_reversed)" marker-end="url(#arrowhead)" /> <text x="18170.0" y="-33850" font-size="700" fill="black" text-anchor="middle">36.48 μm</text> <line x1="37030" y1="-70" x2="37030" y2="-33110" stroke="black" stroke-width="50" marker-start="url(#arrowhead_reversed)" marker-end="url(#arrowhead)" /> <text x="37210" y="-16520.0" font-size="700" fill="black" text-anchor="middle" transform="rotate(90 37210,-16520.0)">33.18 μm</text>
            </g>
        </svg>
        