<svg xmlns="http://www.w3.org/2000/svg"
            width="4374.0" height="5954.0"
            viewBox="-147.0 -5807.0 4374.0 5954.0">
            
        <defs>
          <marker id="arrowhead" markerWidth="20" markerHeight="30" 
                  refX="10" refY="3.5" orient="auto" markerUnits="strokeWidth">
            <path d="M0,0 L0,7 L10,3.5 z" fill="black" />
          </marker>

          <marker id="arrowhead_reversed" markerWidth="20" markerHeight="30" 
                  refX="0" refY="3.5" orient="auto" markerUnits="strokeWidth">
            <path d="M10,0 L10,7 L0,3.5 z" fill="black" />
          </marker>
        </defs>
        
        <defs>
        <style type="text/css">
          .l70d20 { fill: #1f77b4; fill-opacity: 0.7; }
          .l69d20 { fill: #d62728; fill-opacity: 0.7; }
          .l67d20 { fill: #56423e; fill-opacity: 0.7; }
          .l68d20 { fill: #bea6a1; fill-opacity: 0.7; }
          .l68d44 { fill: #0077ff;}
          .l67d44 { fill: #e09a8e;}
          .l69d44 { fill: #70b512;}
          
          .l50d0 { fill: #1f77b4; fill-opacity: 0.7; } /* Metal 4 in IHP */
          .l49d0{ fill: #70b512;}                      /* Via 3 in IHP */
          .l30d0 { fill: #d62728; fill-opacity: 0.7; } /* Metal 3 in IHP */
          .l29d0 { fill: #e39024;}                     /* Via 2 in IHP */
          .l10d0 { fill: #bea6a1; fill-opacity: 0.7; } /* Metal 2 in IHP */
          .l19d0 { fill: #e09a8e;}                     /* Via 1 in IHP */
          .l8d0 { fill: #56423e; fill-opacity: 0.7; }  /* Metal 1 in IHP */
        
          
          /* Not dealt with */
          .l64d20,
          .l65d20,
          .l65d44,
          .l66d13,
          .l66d20,
          .l66d44,
          .l67d16,
          .l68d16,
          .l70d16,
          .l69d16,
          .l86d20,
          .l93d44,
          .l94d20,
          .l95d20,
          .l70d5
          .l8d2,
          .l8d25,
          .l30d2,
          .l50d25,
          .l10d2,
          .l30d25,
          .l30d2,
          .l50d2,
          .l14d0
          .l235d4 {
            fill: #000000;
            fill-opacity: 0.0;
          }
          .l995t0 { fill: #000000; font-size: 750px; }
          .l998t0 { fill: #000000; font-size: 800px; }
          .l997t0 { fill: #5C4033; font-size: 900px; }
          .l999d0 { stroke: #000000; stroke-width: 50; fill: #000000; fill-opacity: 0.2; }
        </style>
        </defs>
        
            <rect x="-147.0" y="-5807.0" width="4374.0" height="5954.0" fill="#ffffff" />
            <g transform="scale(0.1)">
              <path d="M 1875,-37025 L 1875,-37275 L 24485,-37275 L 24485,-37025 Z" class="l94d20" /> <path d="M 28315,-31325 L 28315,-31475 L 30165,-31475 L 30165,-31325 Z" class="l94d20" /> <path d="M 34075,-31325 L 34075,-31475 L 35925,-31475 L 35925,-31325 Z" class="l94d20" /> <path d="M 28315,-27325 L 28315,-27475 L 30165,-27475 L 30165,-27325 Z" class="l94d20" /> <path d="M 34075,-27325 L 34075,-27475 L 35925,-27475 L 35925,-27325 Z" class="l94d20" /> <path d="M 28315,-23325 L 28315,-23475 L 30165,-23475 L 30165,-23325 Z" class="l94d20" /> <path d="M 34075,-23325 L 34075,-23475 L 35925,-23475 L 35925,-23325 Z" class="l94d20" /> <path d="M 1875,-19325 L 1875,-19575 L 24485,-19575 L 24485,-19325 Z" class="l94d20" /> <path d="M 28315,-19325 L 28315,-19475 L 30165,-19475 L 30165,-19325 Z" class="l94d20" /> <path d="M 34075,-19325 L 34075,-19475 L 35925,-19475 L 35925,-19325 Z" class="l94d20" /> <path d="M -70,-56600 L -70,-56670 L 570,-56670 L 570,-56600 Z" class="l67d20" /> <path d="M 40230,-56600 L 40230,-56670 L 40870,-56670 L 40870,-56600 Z" class="l67d20" /> <path d="M -70,-56100 L -70,-56600 L 40870,-56600 L 40870,-56100 Z" class="l67d20" /> <path d="M -70,-56030 L -70,-56100 L 570,-56100 L 570,-56030 Z" class="l67d20" /> <path d="M 40230,-56030 L 40230,-56100 L 40870,-56100 L 40870,-56030 Z" class="l67d20" /> <path d="M 930,-55600 L 930,-55670 L 1570,-55670 L 1570,-55600 Z" class="l67d20" /> <path d="M 39230,-55600 L 39230,-55670 L 39870,-55670 L 39870,-55600 Z" class="l67d20" /> <path d="M 930,-55100 L 930,-55600 L 39870,-55600 L 39870,-55100 Z" class="l67d20" /> <path d="M 930,-55030 L 930,-55100 L 1570,-55100 L 1570,-55030 Z" class="l67d20" /> <path d="M 39230,-55030 L 39230,-55100 L 39870,-55100 L 39870,-55030 Z" class="l67d20" /> <path d="M 930,-54600 L 930,-54670 L 1570,-54670 L 1570,-54600 Z" class="l67d20" /> <path d="M 930,-54040 L 930,-54600 L 24360,-54600 L 24360,-54040 Z" class="l67d20" /> <path d="M 930,-53970 L 930,-54040 L 1570,-54040 L 1570,-53970 Z" class="l67d20" /> <path d="M 3750,-51930 L 3750,-53270 L 5330,-53270 L 5330,-51930 Z" class="l67d20" /> <path d="M 21030,-51930 L 21030,-53270 L 22610,-53270 L 22610,-51930 Z" class="l67d20" /> <path d="M 930,-37960 L 930,-38030 L 1570,-38030 L 1570,-37960 Z" class="l67d20" /> <path d="M 930,-37400 L 930,-37960 L 24360,-37960 L 24360,-37400 Z" class="l67d20" /> <path d="M 930,-37330 L 930,-37400 L 1570,-37400 L 1570,-37330 Z" class="l67d20" /> <path d="M 40230,-37080 L 40230,-37150 L 40870,-37150 L 40870,-37080 Z" class="l67d20" /> <path d="M 930,-36900 L 930,-36970 L 1570,-36970 L 1570,-36900 Z" class="l67d20" /> <path d="M 930,-36340 L 930,-36900 L 24360,-36900 L 24360,-36340 Z" class="l67d20" /> <path d="M 930,-36270 L 930,-36340 L 1570,-36340 L 1570,-36270 Z" class="l67d20" /> <path d="M 25440,-36120 L 25440,-37080 L 40870,-37080 L 40870,-36120 Z" class="l67d20" /> <path d="M 40230,-36050 L 40230,-36120 L 40870,-36120 L 40870,-36050 Z" class="l67d20" /> <path d="M 2080,-34300 L 2080,-35500 L 5260,-35500 L 5260,-34300 Z" class="l67d20" /> <path d="M 21030,-34230 L 21030,-35570 L 22610,-35570 L 22610,-34230 Z" class="l67d20" /> <path d="M 930,-20260 L 930,-20330 L 1570,-20330 L 1570,-20260 Z" class="l67d20" /> <path d="M 930,-19700 L 930,-20260 L 24360,-20260 L 24360,-19700 Z" class="l67d20" /> <path d="M 930,-19630 L 930,-19700 L 1570,-19700 L 1570,-19630 Z" class="l67d20" /> <path d="M 930,-19200 L 930,-19270 L 1570,-19270 L 1570,-19200 Z" class="l67d20" /> <path d="M 930,-18640 L 930,-19200 L 24360,-19200 L 24360,-18640 Z" class="l67d20" /> <path d="M 930,-18570 L 930,-18640 L 1570,-18640 L 1570,-18570 Z" class="l67d20" /> <path d="M 25880,-18400 L 25880,-18800 L 28760,-18800 L 28760,-18400 Z" class="l67d20" /> <path d="M 31640,-18400 L 31640,-18800 L 34520,-18800 L 34520,-18400 Z" class="l67d20" /> <path d="M 3750,-16530 L 3750,-17870 L 5330,-17870 L 5330,-16530 Z" class="l67d20" /> <path d="M 21030,-16530 L 21030,-17870 L 22610,-17870 L 22610,-16530 Z" class="l67d20" /> <path d="M 35480,-17200 L 35480,-17600 L 37080,-17600 L 37080,-17200 Z" class="l67d20" /> <path d="M 40230,-14680 L 40230,-14750 L 40870,-14750 L 40870,-14680 Z" class="l67d20" /> <path d="M 25440,-13720 L 25440,-14680 L 40870,-14680 L 40870,-13720 Z" class="l67d20" /> <path d="M 40230,-13650 L 40230,-13720 L 40870,-13720 L 40870,-13650 Z" class="l67d20" /> <path d="M 39230,-10080 L 39230,-10150 L 39870,-10150 L 39870,-10080 Z" class="l67d20" /> <path d="M 25440,-9120 L 25440,-10080 L 39870,-10080 L 39870,-9120 Z" class="l67d20" /> <path d="M 39230,-9050 L 39230,-9120 L 39870,-9120 L 39870,-9050 Z" class="l67d20" /> <path d="M 25880,-7400 L 25880,-7800 L 28760,-7800 L 28760,-7400 Z" class="l67d20" /> <path d="M 31640,-7400 L 31640,-7800 L 34520,-7800 L 34520,-7400 Z" class="l67d20" /> <path d="M 35480,-6200 L 35480,-6600 L 37080,-6600 L 37080,-6200 Z" class="l67d20" /> <path d="M 39230,-3680 L 39230,-3750 L 39870,-3750 L 39870,-3680 Z" class="l67d20" /> <path d="M 25440,-2720 L 25440,-3680 L 39870,-3680 L 39870,-2720 Z" class="l67d20" /> <path d="M 39230,-2650 L 39230,-2720 L 39870,-2720 L 39870,-2650 Z" class="l67d20" /> <path d="M 930,-2560 L 930,-2630 L 1570,-2630 L 1570,-2560 Z" class="l67d20" /> <path d="M 930,-2000 L 930,-2560 L 24360,-2560 L 24360,-2000 Z" class="l67d20" /> <path d="M 930,-1930 L 930,-2000 L 1570,-2000 L 1570,-1930 Z" class="l67d20" /> <path d="M 930,-1500 L 930,-1570 L 1570,-1570 L 1570,-1500 Z" class="l67d20" /> <path d="M 39230,-1500 L 39230,-1570 L 39870,-1570 L 39870,-1500 Z" class="l67d20" /> <path d="M 930,-1000 L 930,-1500 L 39870,-1500 L 39870,-1000 Z" class="l67d20" /> <path d="M 930,-930 L 930,-1000 L 1570,-1000 L 1570,-930 Z" class="l67d20" /> <path d="M 39230,-930 L 39230,-1000 L 39870,-1000 L 39870,-930 Z" class="l67d20" /> <path d="M -70,-500 L -70,-570 L 570,-570 L 570,-500 Z" class="l67d20" /> <path d="M 40230,-500 L 40230,-570 L 40870,-570 L 40870,-500 Z" class="l67d20" /> <path d="M -70,0 L -70,-500 L 40870,-500 L 40870,0 Z" class="l67d20" /> <path d="M -70,70 L -70,0 L 570,0 L 570,70 Z" class="l67d20" /> <path d="M 40230,70 L 40230,0 L 40870,0 L 40870,70 Z" class="l67d20" /> <path d="M 0,-56100 L 0,-56600 L 40800,-56600 L 40800,-56100 Z" class="l67d16" /> <path d="M 1000,-55100 L 1000,-55600 L 39800,-55600 L 39800,-55100 Z" class="l67d16" /> <path d="M 165,-56265 L 165,-56435 L 335,-56435 L 335,-56265 Z" class="l67d44" /> <path d="M 40465,-56265 L 40465,-56435 L 40635,-56435 L 40635,-56265 Z" class="l67d44" /> <path d="M 1165,-55265 L 1165,-55435 L 1335,-55435 L 1335,-55265 Z" class="l67d44" /> <path d="M 39465,-55265 L 39465,-55435 L 39635,-55435 L 39635,-55265 Z" class="l67d44" /> <path d="M 1165,-54415 L 1165,-54585 L 1335,-54585 L 1335,-54415 Z" class="l67d44" /> <path d="M 1165,-54055 L 1165,-54225 L 1335,-54225 L 1335,-54055 Z" class="l67d44" /> <path d="M 3915,-52875 L 3915,-53045 L 4085,-53045 L 4085,-52875 Z" class="l67d44" /> <path d="M 4275,-52875 L 4275,-53045 L 4445,-53045 L 4445,-52875 Z" class="l67d44" /> <path d="M 4635,-52875 L 4635,-53045 L 4805,-53045 L 4805,-52875 Z" class="l67d44" /> <path d="M 4995,-52875 L 4995,-53045 L 5165,-53045 L 5165,-52875 Z" class="l67d44" /> <path d="M 21195,-52875 L 21195,-53045 L 21365,-53045 L 21365,-52875 Z" class="l67d44" /> <path d="M 21555,-52875 L 21555,-53045 L 21725,-53045 L 21725,-52875 Z" class="l67d44" /> <path d="M 21915,-52875 L 21915,-53045 L 22085,-53045 L 22085,-52875 Z" class="l67d44" /> <path d="M 22275,-52875 L 22275,-53045 L 22445,-53045 L 22445,-52875 Z" class="l67d44" /> <path d="M 3915,-52515 L 3915,-52685 L 4085,-52685 L 4085,-52515 Z" class="l67d44" /> <path d="M 4275,-52515 L 4275,-52685 L 4445,-52685 L 4445,-52515 Z" class="l67d44" /> <path d="M 4635,-52515 L 4635,-52685 L 4805,-52685 L 4805,-52515 Z" class="l67d44" /> <path d="M 4995,-52515 L 4995,-52685 L 5165,-52685 L 5165,-52515 Z" class="l67d44" /> <path d="M 21195,-52515 L 21195,-52685 L 21365,-52685 L 21365,-52515 Z" class="l67d44" /> <path d="M 21555,-52515 L 21555,-52685 L 21725,-52685 L 21725,-52515 Z" class="l67d44" /> <path d="M 21915,-52515 L 21915,-52685 L 22085,-52685 L 22085,-52515 Z" class="l67d44" /> <path d="M 22275,-52515 L 22275,-52685 L 22445,-52685 L 22445,-52515 Z" class="l67d44" /> <path d="M 3915,-52155 L 3915,-52325 L 4085,-52325 L 4085,-52155 Z" class="l67d44" /> <path d="M 4275,-52155 L 4275,-52325 L 4445,-52325 L 4445,-52155 Z" class="l67d44" /> <path d="M 4635,-52155 L 4635,-52325 L 4805,-52325 L 4805,-52155 Z" class="l67d44" /> <path d="M 4995,-52155 L 4995,-52325 L 5165,-52325 L 5165,-52155 Z" class="l67d44" /> <path d="M 21195,-52155 L 21195,-52325 L 21365,-52325 L 21365,-52155 Z" class="l67d44" /> <path d="M 21555,-52155 L 21555,-52325 L 21725,-52325 L 21725,-52155 Z" class="l67d44" /> <path d="M 21915,-52155 L 21915,-52325 L 22085,-52325 L 22085,-52155 Z" class="l67d44" /> <path d="M 22275,-52155 L 22275,-52325 L 22445,-52325 L 22445,-52155 Z" class="l67d44" /> <path d="M 1165,-37775 L 1165,-37945 L 1335,-37945 L 1335,-37775 Z" class="l67d44" /> <path d="M 1165,-37415 L 1165,-37585 L 1335,-37585 L 1335,-37415 Z" class="l67d44" /> <path d="M 1165,-36715 L 1165,-36885 L 1335,-36885 L 1335,-36715 Z" class="l67d44" /> <path d="M 40465,-36875 L 40465,-37045 L 40635,-37045 L 40635,-36875 Z" class="l67d44" /> <path d="M 1165,-36355 L 1165,-36525 L 1335,-36525 L 1335,-36355 Z" class="l67d44" /> <path d="M 40465,-36515 L 40465,-36685 L 40635,-36685 L 40635,-36515 Z" class="l67d44" /> <path d="M 40465,-36155 L 40465,-36325 L 40635,-36325 L 40635,-36155 Z" class="l67d44" /> <path d="M 21195,-35175 L 21195,-35345 L 21365,-35345 L 21365,-35175 Z" class="l67d44" /> <path d="M 21555,-35175 L 21555,-35345 L 21725,-35345 L 21725,-35175 Z" class="l67d44" /> <path d="M 21915,-35175 L 21915,-35345 L 22085,-35345 L 22085,-35175 Z" class="l67d44" /> <path d="M 22275,-35175 L 22275,-35345 L 22445,-35345 L 22445,-35175 Z" class="l67d44" /> <path d="M 21195,-34815 L 21195,-34985 L 21365,-34985 L 21365,-34815 Z" class="l67d44" /> <path d="M 21555,-34815 L 21555,-34985 L 21725,-34985 L 21725,-34815 Z" class="l67d44" /> <path d="M 21915,-34815 L 21915,-34985 L 22085,-34985 L 22085,-34815 Z" class="l67d44" /> <path d="M 22275,-34815 L 22275,-34985 L 22445,-34985 L 22445,-34815 Z" class="l67d44" /> <path d="M 21195,-34455 L 21195,-34625 L 21365,-34625 L 21365,-34455 Z" class="l67d44" /> <path d="M 21555,-34455 L 21555,-34625 L 21725,-34625 L 21725,-34455 Z" class="l67d44" /> <path d="M 21915,-34455 L 21915,-34625 L 22085,-34625 L 22085,-34455 Z" class="l67d44" /> <path d="M 22275,-34455 L 22275,-34625 L 22445,-34625 L 22445,-34455 Z" class="l67d44" /> <path d="M 1165,-20075 L 1165,-20245 L 1335,-20245 L 1335,-20075 Z" class="l67d44" /> <path d="M 1165,-19715 L 1165,-19885 L 1335,-19885 L 1335,-19715 Z" class="l67d44" /> <path d="M 1165,-19015 L 1165,-19185 L 1335,-19185 L 1335,-19015 Z" class="l67d44" /> <path d="M 1165,-18655 L 1165,-18825 L 1335,-18825 L 1335,-18655 Z" class="l67d44" /> <path d="M 3915,-17475 L 3915,-17645 L 4085,-17645 L 4085,-17475 Z" class="l67d44" /> <path d="M 4275,-17475 L 4275,-17645 L 4445,-17645 L 4445,-17475 Z" class="l67d44" /> <path d="M 4635,-17475 L 4635,-17645 L 4805,-17645 L 4805,-17475 Z" class="l67d44" /> <path d="M 4995,-17475 L 4995,-17645 L 5165,-17645 L 5165,-17475 Z" class="l67d44" /> <path d="M 21195,-17475 L 21195,-17645 L 21365,-17645 L 21365,-17475 Z" class="l67d44" /> <path d="M 21555,-17475 L 21555,-17645 L 21725,-17645 L 21725,-17475 Z" class="l67d44" /> <path d="M 21915,-17475 L 21915,-17645 L 22085,-17645 L 22085,-17475 Z" class="l67d44" /> <path d="M 22275,-17475 L 22275,-17645 L 22445,-17645 L 22445,-17475 Z" class="l67d44" /> <path d="M 3915,-17115 L 3915,-17285 L 4085,-17285 L 4085,-17115 Z" class="l67d44" /> <path d="M 4275,-17115 L 4275,-17285 L 4445,-17285 L 4445,-17115 Z" class="l67d44" /> <path d="M 4635,-17115 L 4635,-17285 L 4805,-17285 L 4805,-17115 Z" class="l67d44" /> <path d="M 4995,-17115 L 4995,-17285 L 5165,-17285 L 5165,-17115 Z" class="l67d44" /> <path d="M 21195,-17115 L 21195,-17285 L 21365,-17285 L 21365,-17115 Z" class="l67d44" /> <path d="M 21555,-17115 L 21555,-17285 L 21725,-17285 L 21725,-17115 Z" class="l67d44" /> <path d="M 21915,-17115 L 21915,-17285 L 22085,-17285 L 22085,-17115 Z" class="l67d44" /> <path d="M 22275,-17115 L 22275,-17285 L 22445,-17285 L 22445,-17115 Z" class="l67d44" /> <path d="M 3915,-16755 L 3915,-16925 L 4085,-16925 L 4085,-16755 Z" class="l67d44" /> <path d="M 4275,-16755 L 4275,-16925 L 4445,-16925 L 4445,-16755 Z" class="l67d44" /> <path d="M 4635,-16755 L 4635,-16925 L 4805,-16925 L 4805,-16755 Z" class="l67d44" /> <path d="M 4995,-16755 L 4995,-16925 L 5165,-16925 L 5165,-16755 Z" class="l67d44" /> <path d="M 21195,-16755 L 21195,-16925 L 21365,-16925 L 21365,-16755 Z" class="l67d44" /> <path d="M 21555,-16755 L 21555,-16925 L 21725,-16925 L 21725,-16755 Z" class="l67d44" /> <path d="M 21915,-16755 L 21915,-16925 L 22085,-16925 L 22085,-16755 Z" class="l67d44" /> <path d="M 22275,-16755 L 22275,-16925 L 22445,-16925 L 22445,-16755 Z" class="l67d44" /> <path d="M 40465,-14475 L 40465,-14645 L 40635,-14645 L 40635,-14475 Z" class="l67d44" /> <path d="M 40465,-14115 L 40465,-14285 L 40635,-14285 L 40635,-14115 Z" class="l67d44" /> <path d="M 40465,-13755 L 40465,-13925 L 40635,-13925 L 40635,-13755 Z" class="l67d44" /> <path d="M 39465,-9875 L 39465,-10045 L 39635,-10045 L 39635,-9875 Z" class="l67d44" /> <path d="M 39465,-9515 L 39465,-9685 L 39635,-9685 L 39635,-9515 Z" class="l67d44" /> <path d="M 39465,-9155 L 39465,-9325 L 39635,-9325 L 39635,-9155 Z" class="l67d44" /> <path d="M 39465,-3475 L 39465,-3645 L 39635,-3645 L 39635,-3475 Z" class="l67d44" /> <path d="M 39465,-3115 L 39465,-3285 L 39635,-3285 L 39635,-3115 Z" class="l67d44" /> <path d="M 39465,-2755 L 39465,-2925 L 39635,-2925 L 39635,-2755 Z" class="l67d44" /> <path d="M 1165,-2375 L 1165,-2545 L 1335,-2545 L 1335,-2375 Z" class="l67d44" /> <path d="M 1165,-2015 L 1165,-2185 L 1335,-2185 L 1335,-2015 Z" class="l67d44" /> <path d="M 1165,-1165 L 1165,-1335 L 1335,-1335 L 1335,-1165 Z" class="l67d44" /> <path d="M 39465,-1165 L 39465,-1335 L 39635,-1335 L 39635,-1165 Z" class="l67d44" /> <path d="M 165,-165 L 165,-335 L 335,-335 L 335,-165 Z" class="l67d44" /> <path d="M 40465,-165 L 40465,-335 L 40635,-335 L 40635,-165 Z" class="l67d44" /> <path d="M -70,-56030 L -70,-56670 L 570,-56670 L 570,-56030 Z" class="l68d20" /> <path d="M 40230,-56030 L 40230,-56670 L 40870,-56670 L 40870,-56030 Z" class="l68d20" /> <path d="M 0,-570 L 0,-56030 L 500,-56030 L 500,-570 Z" class="l68d20" /> <path d="M 930,-55030 L 930,-55670 L 1570,-55670 L 1570,-55030 Z" class="l68d20" /> <path d="M 39230,-55030 L 39230,-55670 L 39870,-55670 L 39870,-55030 Z" class="l68d20" /> <path d="M 1000,-54670 L 1000,-55030 L 1500,-55030 L 1500,-54670 Z" class="l68d20" /> <path d="M 930,-53970 L 930,-54670 L 1570,-54670 L 1570,-53970 Z" class="l68d20" /> <path d="M 1000,-38030 L 1000,-53970 L 1500,-53970 L 1500,-38030 Z" class="l68d20" /> <path d="M 3750,-51930 L 3750,-53270 L 5330,-53270 L 5330,-51930 Z" class="l68d20" /> <path d="M 21030,-51930 L 21030,-53270 L 22610,-53270 L 22610,-51930 Z" class="l68d20" /> <path d="M 930,-37330 L 930,-38030 L 1570,-38030 L 1570,-37330 Z" class="l68d20" /> <path d="M 1000,-36970 L 1000,-37330 L 1500,-37330 L 1500,-36970 Z" class="l68d20" /> <path d="M 930,-36270 L 930,-36970 L 1570,-36970 L 1570,-36270 Z" class="l68d20" /> <path d="M 1000,-20330 L 1000,-36270 L 1500,-36270 L 1500,-20330 Z" class="l68d20" /> <path d="M 21030,-34230 L 21030,-35570 L 22610,-35570 L 22610,-34230 Z" class="l68d20" /> <path d="M 27730,-34330 L 27730,-34870 L 28830,-34870 L 28830,-34330 Z" class="l68d20" /> <path d="M 33490,-34330 L 33490,-34870 L 34590,-34870 L 34590,-34330 Z" class="l68d20" /> <path d="M 27090,-33130 L 27090,-33670 L 27550,-33670 L 27550,-33130 Z" class="l68d20" /> <path d="M 32850,-33130 L 32850,-33670 L 33310,-33670 L 33310,-33130 Z" class="l68d20" /> <path d="M 29650,-31530 L 29650,-32070 L 30750,-32070 L 30750,-31530 Z" class="l68d20" /> <path d="M 35410,-31530 L 35410,-32070 L 36510,-32070 L 36510,-31530 Z" class="l68d20" /> <path d="M 27730,-30330 L 27730,-30870 L 28830,-30870 L 28830,-30330 Z" class="l68d20" /> <path d="M 33490,-30330 L 33490,-30870 L 34590,-30870 L 34590,-30330 Z" class="l68d20" /> <path d="M 27090,-29130 L 27090,-29670 L 27550,-29670 L 27550,-29130 Z" class="l68d20" /> <path d="M 32850,-29130 L 32850,-29670 L 33310,-29670 L 33310,-29130 Z" class="l68d20" /> <path d="M 29650,-27530 L 29650,-28070 L 30750,-28070 L 30750,-27530 Z" class="l68d20" /> <path d="M 35410,-27530 L 35410,-28070 L 36510,-28070 L 36510,-27530 Z" class="l68d20" /> <path d="M 27730,-26330 L 27730,-26870 L 28830,-26870 L 28830,-26330 Z" class="l68d20" /> <path d="M 33490,-26330 L 33490,-26870 L 34590,-26870 L 34590,-26330 Z" class="l68d20" /> <path d="M 27090,-25130 L 27090,-25670 L 27550,-25670 L 27550,-25130 Z" class="l68d20" /> <path d="M 32850,-25130 L 32850,-25670 L 33310,-25670 L 33310,-25130 Z" class="l68d20" /> <path d="M 29650,-23530 L 29650,-24070 L 30750,-24070 L 30750,-23530 Z" class="l68d20" /> <path d="M 35410,-23530 L 35410,-24070 L 36510,-24070 L 36510,-23530 Z" class="l68d20" /> <path d="M 27730,-22330 L 27730,-22870 L 28830,-22870 L 28830,-22330 Z" class="l68d20" /> <path d="M 33490,-22330 L 33490,-22870 L 34590,-22870 L 34590,-22330 Z" class="l68d20" /> <path d="M 27090,-21130 L 27090,-21670 L 27550,-21670 L 27550,-21130 Z" class="l68d20" /> <path d="M 32850,-21130 L 32850,-21670 L 33310,-21670 L 33310,-21130 Z" class="l68d20" /> <path d="M 930,-19630 L 930,-20330 L 1570,-20330 L 1570,-19630 Z" class="l68d20" /> <path d="M 1000,-19270 L 1000,-19630 L 1500,-19630 L 1500,-19270 Z" class="l68d20" /> <path d="M 29650,-19530 L 29650,-20070 L 30750,-20070 L 30750,-19530 Z" class="l68d20" /> <path d="M 35410,-19530 L 35410,-20070 L 36510,-20070 L 36510,-19530 Z" class="l68d20" /> <path d="M 930,-18570 L 930,-19270 L 1570,-19270 L 1570,-18570 Z" class="l68d20" /> <path d="M 1000,-2630 L 1000,-18570 L 1500,-18570 L 1500,-2630 Z" class="l68d20" /> <path d="M 3750,-16530 L 3750,-17870 L 5330,-17870 L 5330,-16530 Z" class="l68d20" /> <path d="M 21030,-16530 L 21030,-17870 L 22610,-17870 L 22610,-16530 Z" class="l68d20" /> <path d="M 27090,-17130 L 27090,-17670 L 27550,-17670 L 27550,-17130 Z" class="l68d20" /> <path d="M 32850,-17130 L 32850,-17670 L 33310,-17670 L 33310,-17130 Z" class="l68d20" /> <path d="M 29650,-15530 L 29650,-16070 L 30750,-16070 L 30750,-15530 Z" class="l68d20" /> <path d="M 39300,-10150 L 39300,-55030 L 39800,-55030 L 39800,-10150 Z" class="l68d20" /> <path d="M 40300,-37150 L 40300,-56030 L 40800,-56030 L 40800,-37150 Z" class="l68d20" /> <path d="M 40230,-36050 L 40230,-37150 L 40870,-37150 L 40870,-36050 Z" class="l68d20" /> <path d="M 40300,-14750 L 40300,-36050 L 40800,-36050 L 40800,-14750 Z" class="l68d20" /> <path d="M 40230,-13650 L 40230,-14750 L 40870,-14750 L 40870,-13650 Z" class="l68d20" /> <path d="M 39230,-9050 L 39230,-10150 L 39870,-10150 L 39870,-9050 Z" class="l68d20" /> <path d="M 27090,-6130 L 27090,-6670 L 27550,-6670 L 27550,-6130 Z" class="l68d20" /> <path d="M 32850,-6130 L 32850,-6670 L 33310,-6670 L 33310,-6130 Z" class="l68d20" /> <path d="M 29650,-4530 L 29650,-5070 L 30750,-5070 L 30750,-4530 Z" class="l68d20" /> <path d="M 39300,-3750 L 39300,-9050 L 39800,-9050 L 39800,-3750 Z" class="l68d20" /> <path d="M 39230,-2650 L 39230,-3750 L 39870,-3750 L 39870,-2650 Z" class="l68d20" /> <path d="M 930,-1930 L 930,-2630 L 1570,-2630 L 1570,-1930 Z" class="l68d20" /> <path d="M 1000,-1570 L 1000,-1930 L 1500,-1930 L 1500,-1570 Z" class="l68d20" /> <path d="M 39300,-1570 L 39300,-2650 L 39800,-2650 L 39800,-1570 Z" class="l68d20" /> <path d="M 930,-930 L 930,-1570 L 1570,-1570 L 1570,-930 Z" class="l68d20" /> <path d="M 39230,-930 L 39230,-1570 L 39870,-1570 L 39870,-930 Z" class="l68d20" /> <path d="M 40300,-570 L 40300,-13650 L 40800,-13650 L 40800,-570 Z" class="l68d20" /> <path d="M -70,70 L -70,-570 L 570,-570 L 570,70 Z" class="l68d20" /> <path d="M 40230,70 L 40230,-570 L 40870,-570 L 40870,70 Z" class="l68d20" /> <path d="M 21265,-52845 L 21265,-52995 L 21415,-52995 L 21415,-52845 Z" class="l68d44" /> <path d="M 21585,-52845 L 21585,-52995 L 21735,-52995 L 21735,-52845 Z" class="l68d44" /> <path d="M 21905,-52845 L 21905,-52995 L 22055,-52995 L 22055,-52845 Z" class="l68d44" /> <path d="M 22225,-52845 L 22225,-52995 L 22375,-52995 L 22375,-52845 Z" class="l68d44" /> <path d="M 21265,-52525 L 21265,-52675 L 21415,-52675 L 21415,-52525 Z" class="l68d44" /> <path d="M 21585,-52525 L 21585,-52675 L 21735,-52675 L 21735,-52525 Z" class="l68d44" /> <path d="M 21905,-52525 L 21905,-52675 L 22055,-52675 L 22055,-52525 Z" class="l68d44" /> <path d="M 22225,-52525 L 22225,-52675 L 22375,-52675 L 22375,-52525 Z" class="l68d44" /> <path d="M 21265,-52205 L 21265,-52355 L 21415,-52355 L 21415,-52205 Z" class="l68d44" /> <path d="M 21585,-52205 L 21585,-52355 L 21735,-52355 L 21735,-52205 Z" class="l68d44" /> <path d="M 21905,-52205 L 21905,-52355 L 22055,-52355 L 22055,-52205 Z" class="l68d44" /> <path d="M 22225,-52205 L 22225,-52355 L 22375,-52355 L 22375,-52205 Z" class="l68d44" /> <path d="M 21265,-35145 L 21265,-35295 L 21415,-35295 L 21415,-35145 Z" class="l68d44" /> <path d="M 21585,-35145 L 21585,-35295 L 21735,-35295 L 21735,-35145 Z" class="l68d44" /> <path d="M 21905,-35145 L 21905,-35295 L 22055,-35295 L 22055,-35145 Z" class="l68d44" /> <path d="M 22225,-35145 L 22225,-35295 L 22375,-35295 L 22375,-35145 Z" class="l68d44" /> <path d="M 21265,-34825 L 21265,-34975 L 21415,-34975 L 21415,-34825 Z" class="l68d44" /> <path d="M 21585,-34825 L 21585,-34975 L 21735,-34975 L 21735,-34825 Z" class="l68d44" /> <path d="M 21905,-34825 L 21905,-34975 L 22055,-34975 L 22055,-34825 Z" class="l68d44" /> <path d="M 22225,-34825 L 22225,-34975 L 22375,-34975 L 22375,-34825 Z" class="l68d44" /> <path d="M 21265,-34505 L 21265,-34655 L 21415,-34655 L 21415,-34505 Z" class="l68d44" /> <path d="M 21585,-34505 L 21585,-34655 L 21735,-34655 L 21735,-34505 Z" class="l68d44" /> <path d="M 21905,-34505 L 21905,-34655 L 22055,-34655 L 22055,-34505 Z" class="l68d44" /> <path d="M 22225,-34505 L 22225,-34655 L 22375,-34655 L 22375,-34505 Z" class="l68d44" /> <path d="M 27885,-34525 L 27885,-34675 L 28035,-34675 L 28035,-34525 Z" class="l68d44" /> <path d="M 28205,-34525 L 28205,-34675 L 28355,-34675 L 28355,-34525 Z" class="l68d44" /> <path d="M 28525,-34525 L 28525,-34675 L 28675,-34675 L 28675,-34525 Z" class="l68d44" /> <path d="M 33645,-34525 L 33645,-34675 L 33795,-34675 L 33795,-34525 Z" class="l68d44" /> <path d="M 33965,-34525 L 33965,-34675 L 34115,-34675 L 34115,-34525 Z" class="l68d44" /> <path d="M 34285,-34525 L 34285,-34675 L 34435,-34675 L 34435,-34525 Z" class="l68d44" /> <path d="M 27245,-33325 L 27245,-33475 L 27395,-33475 L 27395,-33325 Z" class="l68d44" /> <path d="M 33005,-33325 L 33005,-33475 L 33155,-33475 L 33155,-33325 Z" class="l68d44" /> <path d="M 29805,-31725 L 29805,-31875 L 29955,-31875 L 29955,-31725 Z" class="l68d44" /> <path d="M 30125,-31725 L 30125,-31875 L 30275,-31875 L 30275,-31725 Z" class="l68d44" /> <path d="M 30445,-31725 L 30445,-31875 L 30595,-31875 L 30595,-31725 Z" class="l68d44" /> <path d="M 35565,-31725 L 35565,-31875 L 35715,-31875 L 35715,-31725 Z" class="l68d44" /> <path d="M 35885,-31725 L 35885,-31875 L 36035,-31875 L 36035,-31725 Z" class="l68d44" /> <path d="M 36205,-31725 L 36205,-31875 L 36355,-31875 L 36355,-31725 Z" class="l68d44" /> <path d="M 27885,-30525 L 27885,-30675 L 28035,-30675 L 28035,-30525 Z" class="l68d44" /> <path d="M 28205,-30525 L 28205,-30675 L 28355,-30675 L 28355,-30525 Z" class="l68d44" /> <path d="M 28525,-30525 L 28525,-30675 L 28675,-30675 L 28675,-30525 Z" class="l68d44" /> <path d="M 33645,-30525 L 33645,-30675 L 33795,-30675 L 33795,-30525 Z" class="l68d44" /> <path d="M 33965,-30525 L 33965,-30675 L 34115,-30675 L 34115,-30525 Z" class="l68d44" /> <path d="M 34285,-30525 L 34285,-30675 L 34435,-30675 L 34435,-30525 Z" class="l68d44" /> <path d="M 27245,-29325 L 27245,-29475 L 27395,-29475 L 27395,-29325 Z" class="l68d44" /> <path d="M 33005,-29325 L 33005,-29475 L 33155,-29475 L 33155,-29325 Z" class="l68d44" /> <path d="M 4625,-52525 L 4625,-52675 L 4775,-52675 L 4775,-52525 Z" class="l68d44" /> <path d="M 4945,-52525 L 4945,-52675 L 5095,-52675 L 5095,-52525 Z" class="l68d44" /> <path d="M 3985,-52845 L 3985,-52995 L 4135,-52995 L 4135,-52845 Z" class="l68d44" /> <path d="M 4305,-52845 L 4305,-52995 L 4455,-52995 L 4455,-52845 Z" class="l68d44" /> <path d="M 4625,-52845 L 4625,-52995 L 4775,-52995 L 4775,-52845 Z" class="l68d44" /> <path d="M 4945,-52845 L 4945,-52995 L 5095,-52995 L 5095,-52845 Z" class="l68d44" /> <path d="M 3985,-52205 L 3985,-52355 L 4135,-52355 L 4135,-52205 Z" class="l68d44" /> <path d="M 4305,-52205 L 4305,-52355 L 4455,-52355 L 4455,-52205 Z" class="l68d44" /> <path d="M 4625,-52205 L 4625,-52355 L 4775,-52355 L 4775,-52205 Z" class="l68d44" /> <path d="M 4945,-52205 L 4945,-52355 L 5095,-52355 L 5095,-52205 Z" class="l68d44" /> <path d="M 3985,-52525 L 3985,-52675 L 4135,-52675 L 4135,-52525 Z" class="l68d44" /> <path d="M 4305,-52525 L 4305,-52675 L 4455,-52675 L 4455,-52525 Z" class="l68d44" /> <path d="M 3985,-17445 L 3985,-17595 L 4135,-17595 L 4135,-17445 Z" class="l68d44" /> <path d="M 4305,-17445 L 4305,-17595 L 4455,-17595 L 4455,-17445 Z" class="l68d44" /> <path d="M 4625,-17445 L 4625,-17595 L 4775,-17595 L 4775,-17445 Z" class="l68d44" /> <path d="M 4945,-17445 L 4945,-17595 L 5095,-17595 L 5095,-17445 Z" class="l68d44" /> <path d="M 3985,-17125 L 3985,-17275 L 4135,-17275 L 4135,-17125 Z" class="l68d44" /> <path d="M 4305,-17125 L 4305,-17275 L 4455,-17275 L 4455,-17125 Z" class="l68d44" /> <path d="M 4625,-17125 L 4625,-17275 L 4775,-17275 L 4775,-17125 Z" class="l68d44" /> <path d="M 4945,-17125 L 4945,-17275 L 5095,-17275 L 5095,-17125 Z" class="l68d44" /> <path d="M 3985,-16805 L 3985,-16955 L 4135,-16955 L 4135,-16805 Z" class="l68d44" /> <path d="M 4305,-16805 L 4305,-16955 L 4455,-16955 L 4455,-16805 Z" class="l68d44" /> <path d="M 4625,-16805 L 4625,-16955 L 4775,-16955 L 4775,-16805 Z" class="l68d44" /> <path d="M 4945,-16805 L 4945,-16955 L 5095,-16955 L 5095,-16805 Z" class="l68d44" /> <path d="M 27245,-25325 L 27245,-25475 L 27395,-25475 L 27395,-25325 Z" class="l68d44" /> <path d="M 33005,-25325 L 33005,-25475 L 33155,-25475 L 33155,-25325 Z" class="l68d44" /> <path d="M 29805,-23725 L 29805,-23875 L 29955,-23875 L 29955,-23725 Z" class="l68d44" /> <path d="M 30125,-23725 L 30125,-23875 L 30275,-23875 L 30275,-23725 Z" class="l68d44" /> <path d="M 30445,-23725 L 30445,-23875 L 30595,-23875 L 30595,-23725 Z" class="l68d44" /> <path d="M 35565,-23725 L 35565,-23875 L 35715,-23875 L 35715,-23725 Z" class="l68d44" /> <path d="M 35885,-23725 L 35885,-23875 L 36035,-23875 L 36035,-23725 Z" class="l68d44" /> <path d="M 36205,-23725 L 36205,-23875 L 36355,-23875 L 36355,-23725 Z" class="l68d44" /> <path d="M 27885,-22525 L 27885,-22675 L 28035,-22675 L 28035,-22525 Z" class="l68d44" /> <path d="M 28205,-22525 L 28205,-22675 L 28355,-22675 L 28355,-22525 Z" class="l68d44" /> <path d="M 28525,-22525 L 28525,-22675 L 28675,-22675 L 28675,-22525 Z" class="l68d44" /> <path d="M 33645,-22525 L 33645,-22675 L 33795,-22675 L 33795,-22525 Z" class="l68d44" /> <path d="M 33965,-22525 L 33965,-22675 L 34115,-22675 L 34115,-22525 Z" class="l68d44" /> <path d="M 34285,-22525 L 34285,-22675 L 34435,-22675 L 34435,-22525 Z" class="l68d44" /> <path d="M 27245,-21325 L 27245,-21475 L 27395,-21475 L 27395,-21325 Z" class="l68d44" /> <path d="M 33005,-21325 L 33005,-21475 L 33155,-21475 L 33155,-21325 Z" class="l68d44" /> <path d="M 29805,-19725 L 29805,-19875 L 29955,-19875 L 29955,-19725 Z" class="l68d44" /> <path d="M 30125,-19725 L 30125,-19875 L 30275,-19875 L 30275,-19725 Z" class="l68d44" /> <path d="M 30445,-19725 L 30445,-19875 L 30595,-19875 L 30595,-19725 Z" class="l68d44" /> <path d="M 35565,-19725 L 35565,-19875 L 35715,-19875 L 35715,-19725 Z" class="l68d44" /> <path d="M 35885,-19725 L 35885,-19875 L 36035,-19875 L 36035,-19725 Z" class="l68d44" /> <path d="M 36205,-19725 L 36205,-19875 L 36355,-19875 L 36355,-19725 Z" class="l68d44" /> <path d="M 29805,-27725 L 29805,-27875 L 29955,-27875 L 29955,-27725 Z" class="l68d44" /> <path d="M 30125,-27725 L 30125,-27875 L 30275,-27875 L 30275,-27725 Z" class="l68d44" /> <path d="M 30445,-27725 L 30445,-27875 L 30595,-27875 L 30595,-27725 Z" class="l68d44" /> <path d="M 35565,-27725 L 35565,-27875 L 35715,-27875 L 35715,-27725 Z" class="l68d44" /> <path d="M 21265,-17445 L 21265,-17595 L 21415,-17595 L 21415,-17445 Z" class="l68d44" /> <path d="M 21585,-17445 L 21585,-17595 L 21735,-17595 L 21735,-17445 Z" class="l68d44" /> <path d="M 21905,-17445 L 21905,-17595 L 22055,-17595 L 22055,-17445 Z" class="l68d44" /> <path d="M 22225,-17445 L 22225,-17595 L 22375,-17595 L 22375,-17445 Z" class="l68d44" /> <path d="M 27245,-17325 L 27245,-17475 L 27395,-17475 L 27395,-17325 Z" class="l68d44" /> <path d="M 33005,-17325 L 33005,-17475 L 33155,-17475 L 33155,-17325 Z" class="l68d44" /> <path d="M 35885,-27725 L 35885,-27875 L 36035,-27875 L 36035,-27725 Z" class="l68d44" /> <path d="M 36205,-27725 L 36205,-27875 L 36355,-27875 L 36355,-27725 Z" class="l68d44" /> <path d="M 27885,-26525 L 27885,-26675 L 28035,-26675 L 28035,-26525 Z" class="l68d44" /> <path d="M 28205,-26525 L 28205,-26675 L 28355,-26675 L 28355,-26525 Z" class="l68d44" /> <path d="M 21265,-17125 L 21265,-17275 L 21415,-17275 L 21415,-17125 Z" class="l68d44" /> <path d="M 21585,-17125 L 21585,-17275 L 21735,-17275 L 21735,-17125 Z" class="l68d44" /> <path d="M 21905,-17125 L 21905,-17275 L 22055,-17275 L 22055,-17125 Z" class="l68d44" /> <path d="M 22225,-17125 L 22225,-17275 L 22375,-17275 L 22375,-17125 Z" class="l68d44" /> <path d="M 28525,-26525 L 28525,-26675 L 28675,-26675 L 28675,-26525 Z" class="l68d44" /> <path d="M 33645,-26525 L 33645,-26675 L 33795,-26675 L 33795,-26525 Z" class="l68d44" /> <path d="M 33965,-26525 L 33965,-26675 L 34115,-26675 L 34115,-26525 Z" class="l68d44" /> <path d="M 34285,-26525 L 34285,-26675 L 34435,-26675 L 34435,-26525 Z" class="l68d44" /> <path d="M 21265,-16805 L 21265,-16955 L 21415,-16955 L 21415,-16805 Z" class="l68d44" /> <path d="M 21585,-16805 L 21585,-16955 L 21735,-16955 L 21735,-16805 Z" class="l68d44" /> <path d="M 21905,-16805 L 21905,-16955 L 22055,-16955 L 22055,-16805 Z" class="l68d44" /> <path d="M 22225,-16805 L 22225,-16955 L 22375,-16955 L 22375,-16805 Z" class="l68d44" /> <path d="M 29805,-15725 L 29805,-15875 L 29955,-15875 L 29955,-15725 Z" class="l68d44" /> <path d="M 30125,-15725 L 30125,-15875 L 30275,-15875 L 30275,-15725 Z" class="l68d44" /> <path d="M 30445,-15725 L 30445,-15875 L 30595,-15875 L 30595,-15725 Z" class="l68d44" /> <path d="M 27245,-6325 L 27245,-6475 L 27395,-6475 L 27395,-6325 Z" class="l68d44" /> <path d="M 33005,-6325 L 33005,-6475 L 33155,-6475 L 33155,-6325 Z" class="l68d44" /> <path d="M 29805,-4725 L 29805,-4875 L 29955,-4875 L 29955,-4725 Z" class="l68d44" /> <path d="M 30125,-4725 L 30125,-4875 L 30275,-4875 L 30275,-4725 Z" class="l68d44" /> <path d="M 30445,-4725 L 30445,-4875 L 30595,-4875 L 30595,-4725 Z" class="l68d44" /> <path d="M 19830,-52390 L 19830,-52690 L 22610,-52690 L 22610,-52390 Z" class="l69d20" /> <path d="M 4310,-36890 L 4310,-37190 L 22030,-37190 L 22030,-36890 Z" class="l69d20" /> <path d="M 21030,-51930 L 21030,-52390 L 22610,-52390 L 22610,-51930 Z" class="l69d20" /> <path d="M 21590,-37190 L 21590,-37260 L 22030,-37260 L 22030,-37190 Z" class="l69d20" /> <path d="M 21030,-52690 L 21030,-53270 L 22610,-53270 L 22610,-52690 Z" class="l69d20" /> <path d="M 21590,-36820 L 21590,-36890 L 22030,-36890 L 22030,-36820 Z" class="l69d20" /> <path d="M 21030,-34230 L 21030,-35570 L 22610,-35570 L 22610,-34230 Z" class="l69d20" /> <path d="M 24850,-34750 L 24850,-34820 L 25290,-34820 L 25290,-34750 Z" class="l69d20" /> <path d="M 27730,-34750 L 27730,-34870 L 28830,-34870 L 28830,-34750 Z" class="l69d20" /> <path d="M 33490,-34750 L 33490,-34870 L 34590,-34870 L 34590,-34750 Z" class="l69d20" /> <path d="M 37170,-34750 L 37170,-34820 L 37610,-34820 L 37610,-34750 Z" class="l69d20" /> <path d="M 24850,-34450 L 24850,-34750 L 37610,-34750 L 37610,-34450 Z" class="l69d20" /> <path d="M 24850,-34380 L 24850,-34450 L 25290,-34450 L 25290,-34380 Z" class="l69d20" /> <path d="M 27730,-34330 L 27730,-34450 L 28830,-34450 L 28830,-34330 Z" class="l69d20" /> <path d="M 33490,-34330 L 33490,-34450 L 34590,-34450 L 34590,-34330 Z" class="l69d20" /> <path d="M 37170,-34380 L 37170,-34450 L 37610,-34450 L 37610,-34380 Z" class="l69d20" /> <path d="M 25800,-33530 L 25800,-33600 L 26240,-33600 L 26240,-33530 Z" class="l69d20" /> <path d="M 27090,-33530 L 27090,-33670 L 27550,-33670 L 27550,-33530 Z" class="l69d20" /> <path d="M 25800,-33230 L 25800,-33530 L 27550,-33530 L 27550,-33230 Z" class="l69d20" /> <path d="M 25800,-33160 L 25800,-33230 L 26240,-33230 L 26240,-33160 Z" class="l69d20" /> <path d="M 27090,-33130 L 27090,-33230 L 27550,-33230 L 27550,-33130 Z" class="l69d20" /> <path d="M 31560,-33530 L 31560,-33600 L 32000,-33600 L 32000,-33530 Z" class="l69d20" /> <path d="M 32850,-33530 L 32850,-33670 L 33310,-33670 L 33310,-33530 Z" class="l69d20" /> <path d="M 31560,-33230 L 31560,-33530 L 33310,-33530 L 33310,-33230 Z" class="l69d20" /> <path d="M 31560,-33160 L 31560,-33230 L 32000,-33230 L 32000,-33160 Z" class="l69d20" /> <path d="M 32850,-33130 L 32850,-33230 L 33310,-33230 L 33310,-33130 Z" class="l69d20" /> <path d="M 29650,-31930 L 29650,-32070 L 30750,-32070 L 30750,-31930 Z" class="l69d20" /> <path d="M 35410,-31930 L 35410,-32070 L 36510,-32070 L 36510,-31930 Z" class="l69d20" /> <path d="M 29650,-31630 L 29650,-31930 L 36510,-31930 L 36510,-31630 Z" class="l69d20" /> <path d="M 29650,-31530 L 29650,-31630 L 30750,-31630 L 30750,-31530 Z" class="l69d20" /> <path d="M 35410,-31530 L 35410,-31630 L 36510,-31630 L 36510,-31530 Z" class="l69d20" /> <path d="M 23890,-30750 L 23890,-30820 L 24330,-30820 L 24330,-30750 Z" class="l69d20" /> <path d="M 24850,-30750 L 24850,-30820 L 25290,-30820 L 25290,-30750 Z" class="l69d20" /> <path d="M 27730,-30750 L 27730,-30870 L 28830,-30870 L 28830,-30750 Z" class="l69d20" /> <path d="M 23890,-30450 L 23890,-30750 L 28830,-30750 L 28830,-30450 Z" class="l69d20" /> <path d="M 23890,-30380 L 23890,-30450 L 24330,-30450 L 24330,-30380 Z" class="l69d20" /> <path d="M 24850,-30380 L 24850,-30450 L 25290,-30450 L 25290,-30380 Z" class="l69d20" /> <path d="M 27730,-30330 L 27730,-30450 L 28830,-30450 L 28830,-30330 Z" class="l69d20" /> <path d="M 33490,-30750 L 33490,-30870 L 34590,-30870 L 34590,-30750 Z" class="l69d20" /> <path d="M 37170,-30750 L 37170,-30820 L 37610,-30820 L 37610,-30750 Z" class="l69d20" /> <path d="M 33490,-30450 L 33490,-30750 L 37610,-30750 L 37610,-30450 Z" class="l69d20" /> <path d="M 33490,-30330 L 33490,-30450 L 34590,-30450 L 34590,-30330 Z" class="l69d20" /> <path d="M 37170,-30380 L 37170,-30450 L 37610,-30450 L 37610,-30380 Z" class="l69d20" /> <path d="M 25800,-29530 L 25800,-29600 L 26240,-29600 L 26240,-29530 Z" class="l69d20" /> <path d="M 27090,-29530 L 27090,-29670 L 27550,-29670 L 27550,-29530 Z" class="l69d20" /> <path d="M 31560,-29530 L 31560,-29600 L 32000,-29600 L 32000,-29530 Z" class="l69d20" /> <path d="M 32850,-29530 L 32850,-29670 L 33310,-29670 L 33310,-29530 Z" class="l69d20" /> <path d="M 25800,-29230 L 25800,-29530 L 33310,-29530 L 33310,-29230 Z" class="l69d20" /> <path d="M 25800,-29160 L 25800,-29230 L 26240,-29230 L 26240,-29160 Z" class="l69d20" /> <path d="M 27090,-29130 L 27090,-29230 L 27550,-29230 L 27550,-29130 Z" class="l69d20" /> <path d="M 31560,-29160 L 31560,-29230 L 32000,-29230 L 32000,-29160 Z" class="l69d20" /> <path d="M 32850,-29130 L 32850,-29230 L 33310,-29230 L 33310,-29130 Z" class="l69d20" /> <path d="M 19830,-52690 L 19830,-52760 L 20270,-52760 L 20270,-52690 Z" class="l69d20" /> <path d="M 19830,-52320 L 19830,-52390 L 20270,-52390 L 20270,-52320 Z" class="l69d20" /> <path d="M 4310,-36820 L 4310,-36890 L 4750,-36890 L 4750,-36820 Z" class="l69d20" /> <path d="M 3750,-51930 L 3750,-53270 L 5330,-53270 L 5330,-51930 Z" class="l69d20" /> <path d="M 4310,-37190 L 4310,-37260 L 4750,-37260 L 4750,-37190 Z" class="l69d20" /> <path d="M 3750,-17330 L 3750,-17870 L 5330,-17870 L 5330,-17330 Z" class="l69d20" /> <path d="M 19830,-17330 L 19830,-17400 L 20270,-17400 L 20270,-17330 Z" class="l69d20" /> <path d="M 3750,-17030 L 3750,-17330 L 20270,-17330 L 20270,-17030 Z" class="l69d20" /> <path d="M 3750,-16530 L 3750,-17030 L 5330,-17030 L 5330,-16530 Z" class="l69d20" /> <path d="M 19830,-16960 L 19830,-17030 L 20270,-17030 L 20270,-16960 Z" class="l69d20" /> <path d="M 35410,-27530 L 35410,-28070 L 36510,-28070 L 36510,-27530 Z" class="l69d20" /> <path d="M 23890,-26750 L 23890,-26820 L 24330,-26820 L 24330,-26750 Z" class="l69d20" /> <path d="M 27730,-26750 L 27730,-26870 L 28830,-26870 L 28830,-26750 Z" class="l69d20" /> <path d="M 23890,-26450 L 23890,-26750 L 28830,-26750 L 28830,-26450 Z" class="l69d20" /> <path d="M 23890,-26380 L 23890,-26450 L 24330,-26450 L 24330,-26380 Z" class="l69d20" /> <path d="M 27730,-26330 L 27730,-26450 L 28830,-26450 L 28830,-26330 Z" class="l69d20" /> <path d="M 33490,-26750 L 33490,-26870 L 34590,-26870 L 34590,-26750 Z" class="l69d20" /> <path d="M 37170,-26750 L 37170,-26820 L 37610,-26820 L 37610,-26750 Z" class="l69d20" /> <path d="M 33490,-26450 L 33490,-26750 L 37610,-26750 L 37610,-26450 Z" class="l69d20" /> <path d="M 33490,-26330 L 33490,-26450 L 34590,-26450 L 34590,-26330 Z" class="l69d20" /> <path d="M 37170,-26380 L 37170,-26450 L 37610,-26450 L 37610,-26380 Z" class="l69d20" /> <path d="M 25800,-25530 L 25800,-25600 L 26240,-25600 L 26240,-25530 Z" class="l69d20" /> <path d="M 27090,-25530 L 27090,-25670 L 27550,-25670 L 27550,-25530 Z" class="l69d20" /> <path d="M 31560,-25530 L 31560,-25600 L 32000,-25600 L 32000,-25530 Z" class="l69d20" /> <path d="M 32850,-25530 L 32850,-25670 L 33310,-25670 L 33310,-25530 Z" class="l69d20" /> <path d="M 25800,-25230 L 25800,-25530 L 33310,-25530 L 33310,-25230 Z" class="l69d20" /> <path d="M 25800,-25160 L 25800,-25230 L 26240,-25230 L 26240,-25160 Z" class="l69d20" /> <path d="M 27090,-25130 L 27090,-25230 L 27550,-25230 L 27550,-25130 Z" class="l69d20" /> <path d="M 31560,-25160 L 31560,-25230 L 32000,-25230 L 32000,-25160 Z" class="l69d20" /> <path d="M 32850,-25130 L 32850,-25230 L 33310,-25230 L 33310,-25130 Z" class="l69d20" /> <path d="M 29650,-23940 L 29650,-24070 L 30750,-24070 L 30750,-23940 Z" class="l69d20" /> <path d="M 35410,-23940 L 35410,-24070 L 36510,-24070 L 36510,-23940 Z" class="l69d20" /> <path d="M 29650,-23640 L 29650,-23940 L 36510,-23940 L 36510,-23640 Z" class="l69d20" /> <path d="M 29650,-23530 L 29650,-23640 L 30750,-23640 L 30750,-23530 Z" class="l69d20" /> <path d="M 35410,-23530 L 35410,-23640 L 36510,-23640 L 36510,-23530 Z" class="l69d20" /> <path d="M 23890,-22750 L 23890,-22820 L 24330,-22820 L 24330,-22750 Z" class="l69d20" /> <path d="M 27730,-22750 L 27730,-22870 L 28830,-22870 L 28830,-22750 Z" class="l69d20" /> <path d="M 23890,-22450 L 23890,-22750 L 28830,-22750 L 28830,-22450 Z" class="l69d20" /> <path d="M 23890,-22380 L 23890,-22450 L 24330,-22450 L 24330,-22380 Z" class="l69d20" /> <path d="M 27730,-22330 L 27730,-22450 L 28830,-22450 L 28830,-22330 Z" class="l69d20" /> <path d="M 33490,-22750 L 33490,-22870 L 34590,-22870 L 34590,-22750 Z" class="l69d20" /> <path d="M 37170,-22750 L 37170,-22820 L 37610,-22820 L 37610,-22750 Z" class="l69d20" /> <path d="M 33490,-22450 L 33490,-22750 L 37610,-22750 L 37610,-22450 Z" class="l69d20" /> <path d="M 33490,-22330 L 33490,-22450 L 34590,-22450 L 34590,-22330 Z" class="l69d20" /> <path d="M 37170,-22380 L 37170,-22450 L 37610,-22450 L 37610,-22380 Z" class="l69d20" /> <path d="M 25800,-21530 L 25800,-21600 L 26240,-21600 L 26240,-21530 Z" class="l69d20" /> <path d="M 27090,-21530 L 27090,-21670 L 27550,-21670 L 27550,-21530 Z" class="l69d20" /> <path d="M 25800,-21230 L 25800,-21530 L 27550,-21530 L 27550,-21230 Z" class="l69d20" /> <path d="M 25800,-21160 L 25800,-21230 L 26240,-21230 L 26240,-21160 Z" class="l69d20" /> <path d="M 27090,-21130 L 27090,-21230 L 27550,-21230 L 27550,-21130 Z" class="l69d20" /> <path d="M 31560,-21530 L 31560,-21600 L 32000,-21600 L 32000,-21530 Z" class="l69d20" /> <path d="M 32850,-21530 L 32850,-21670 L 33310,-21670 L 33310,-21530 Z" class="l69d20" /> <path d="M 31560,-21230 L 31560,-21530 L 33310,-21530 L 33310,-21230 Z" class="l69d20" /> <path d="M 31560,-21160 L 31560,-21230 L 32000,-21230 L 32000,-21160 Z" class="l69d20" /> <path d="M 32850,-21130 L 32850,-21230 L 33310,-21230 L 33310,-21130 Z" class="l69d20" /> <path d="M 29650,-19530 L 29650,-20070 L 30750,-20070 L 30750,-19530 Z" class="l69d20" /> <path d="M 31570,-19940 L 31570,-20010 L 32010,-20010 L 32010,-19940 Z" class="l69d20" /> <path d="M 35410,-19940 L 35410,-20070 L 36510,-20070 L 36510,-19940 Z" class="l69d20" /> <path d="M 31570,-19640 L 31570,-19940 L 36510,-19940 L 36510,-19640 Z" class="l69d20" /> <path d="M 31570,-19570 L 31570,-19640 L 32010,-19640 L 32010,-19570 Z" class="l69d20" /> <path d="M 35410,-19530 L 35410,-19640 L 36510,-19640 L 36510,-19530 Z" class="l69d20" /> <path d="M 21630,-18800 L 21630,-18870 L 22070,-18870 L 22070,-18800 Z" class="l69d20" /> <path d="M 25790,-18800 L 25790,-18870 L 26230,-18870 L 26230,-18800 Z" class="l69d20" /> <path d="M 21630,-18500 L 21630,-18800 L 26230,-18800 L 26230,-18500 Z" class="l69d20" /> <path d="M 21630,-18430 L 21630,-18500 L 22070,-18500 L 22070,-18430 Z" class="l69d20" /> <path d="M 25790,-18430 L 25790,-18500 L 26230,-18500 L 26230,-18430 Z" class="l69d20" /> <path d="M 24840,-27930 L 24840,-28000 L 25280,-28000 L 25280,-27930 Z" class="l69d20" /> <path d="M 29650,-27930 L 29650,-28070 L 30750,-28070 L 30750,-27930 Z" class="l69d20" /> <path d="M 24840,-27630 L 24840,-27930 L 30750,-27930 L 30750,-27630 Z" class="l69d20" /> <path d="M 24840,-27560 L 24840,-27630 L 25280,-27630 L 25280,-27560 Z" class="l69d20" /> <path d="M 29650,-27530 L 29650,-27630 L 30750,-27630 L 30750,-27530 Z" class="l69d20" /> <path d="M 21030,-16530 L 21030,-17870 L 22610,-17870 L 22610,-16530 Z" class="l69d20" /> <path d="M 25790,-17520 L 25790,-17590 L 26230,-17590 L 26230,-17520 Z" class="l69d20" /> <path d="M 27090,-17520 L 27090,-17670 L 27550,-17670 L 27550,-17520 Z" class="l69d20" /> <path d="M 32850,-17520 L 32850,-17670 L 33310,-17670 L 33310,-17520 Z" class="l69d20" /> <path d="M 25790,-17220 L 25790,-17520 L 33310,-17520 L 33310,-17220 Z" class="l69d20" /> <path d="M 25790,-17150 L 25790,-17220 L 26230,-17220 L 26230,-17150 Z" class="l69d20" /> <path d="M 27090,-17130 L 27090,-17220 L 27550,-17220 L 27550,-17130 Z" class="l69d20" /> <path d="M 32850,-17130 L 32850,-17220 L 33310,-17220 L 33310,-17130 Z" class="l69d20" /> <path d="M 23890,-15870 L 23890,-15940 L 24330,-15940 L 24330,-15870 Z" class="l69d20" /> <path d="M 29650,-15870 L 29650,-16070 L 30750,-16070 L 30750,-15870 Z" class="l69d20" /> <path d="M 23890,-15570 L 23890,-15870 L 30750,-15870 L 30750,-15570 Z" class="l69d20" /> <path d="M 23890,-15500 L 23890,-15570 L 24330,-15570 L 24330,-15500 Z" class="l69d20" /> <path d="M 29650,-15530 L 29650,-15570 L 30750,-15570 L 30750,-15530 Z" class="l69d20" /> <path d="M 27090,-6500 L 27090,-6670 L 27550,-6670 L 27550,-6500 Z" class="l69d20" /> <path d="M 31570,-6500 L 31570,-6570 L 32010,-6570 L 32010,-6500 Z" class="l69d20" /> <path d="M 32850,-6500 L 32850,-6670 L 33310,-6670 L 33310,-6500 Z" class="l69d20" /> <path d="M 27090,-6200 L 27090,-6500 L 33310,-6500 L 33310,-6200 Z" class="l69d20" /> <path d="M 27090,-6130 L 27090,-6200 L 27550,-6200 L 27550,-6130 Z" class="l69d20" /> <path d="M 31570,-6130 L 31570,-6200 L 32010,-6200 L 32010,-6130 Z" class="l69d20" /> <path d="M 32850,-6130 L 32850,-6200 L 33310,-6200 L 33310,-6130 Z" class="l69d20" /> <path d="M 24840,-4890 L 24840,-4960 L 25280,-4960 L 25280,-4890 Z" class="l69d20" /> <path d="M 29650,-4890 L 29650,-5070 L 30750,-5070 L 30750,-4890 Z" class="l69d20" /> <path d="M 24840,-4590 L 24840,-4890 L 30750,-4890 L 30750,-4590 Z" class="l69d20" /> <path d="M 24840,-4520 L 24840,-4590 L 25280,-4590 L 25280,-4520 Z" class="l69d20" /> <path d="M 29650,-4530 L 29650,-4590 L 30750,-4590 L 30750,-4530 Z" class="l69d20" /> <path d="M 4040,-52900 L 4040,-53100 L 4240,-53100 L 4240,-52900 Z" class="l69d44" /> <path d="M 4440,-52900 L 4440,-53100 L 4640,-53100 L 4640,-52900 Z" class="l69d44" /> <path d="M 4840,-52900 L 4840,-53100 L 5040,-53100 L 5040,-52900 Z" class="l69d44" /> <path d="M 4040,-52500 L 4040,-52700 L 4240,-52700 L 4240,-52500 Z" class="l69d44" /> <path d="M 4440,-52500 L 4440,-52700 L 4640,-52700 L 4640,-52500 Z" class="l69d44" /> <path d="M 4840,-52500 L 4840,-52700 L 5040,-52700 L 5040,-52500 Z" class="l69d44" /> <path d="M 19950,-52440 L 19950,-52640 L 20150,-52640 L 20150,-52440 Z" class="l69d44" /> <path d="M 4040,-52100 L 4040,-52300 L 4240,-52300 L 4240,-52100 Z" class="l69d44" /> <path d="M 4440,-52100 L 4440,-52300 L 4640,-52300 L 4640,-52100 Z" class="l69d44" /> <path d="M 4840,-52100 L 4840,-52300 L 5040,-52300 L 5040,-52100 Z" class="l69d44" /> <path d="M 4430,-36940 L 4430,-37140 L 4630,-37140 L 4630,-36940 Z" class="l69d44" /> <path d="M 21710,-36940 L 21710,-37140 L 21910,-37140 L 21910,-36940 Z" class="l69d44" /> <path d="M 21320,-35200 L 21320,-35400 L 21520,-35400 L 21520,-35200 Z" class="l69d44" /> <path d="M 21720,-35200 L 21720,-35400 L 21920,-35400 L 21920,-35200 Z" class="l69d44" /> <path d="M 22120,-35200 L 22120,-35400 L 22320,-35400 L 22320,-35200 Z" class="l69d44" /> <path d="M 21320,-34800 L 21320,-35000 L 21520,-35000 L 21520,-34800 Z" class="l69d44" /> <path d="M 21720,-34800 L 21720,-35000 L 21920,-35000 L 21920,-34800 Z" class="l69d44" /> <path d="M 22120,-34800 L 22120,-35000 L 22320,-35000 L 22320,-34800 Z" class="l69d44" /> <path d="M 21320,-34400 L 21320,-34600 L 21520,-34600 L 21520,-34400 Z" class="l69d44" /> <path d="M 21720,-34400 L 21720,-34600 L 21920,-34600 L 21920,-34400 Z" class="l69d44" /> <path d="M 22120,-34400 L 22120,-34600 L 22320,-34600 L 22320,-34400 Z" class="l69d44" /> <path d="M 24970,-34500 L 24970,-34700 L 25170,-34700 L 25170,-34500 Z" class="l69d44" /> <path d="M 37290,-34500 L 37290,-34700 L 37490,-34700 L 37490,-34500 Z" class="l69d44" /> <path d="M 25920,-33280 L 25920,-33480 L 26120,-33480 L 26120,-33280 Z" class="l69d44" /> <path d="M 31680,-33280 L 31680,-33480 L 31880,-33480 L 31880,-33280 Z" class="l69d44" /> <path d="M 29900,-31700 L 29900,-31900 L 30100,-31900 L 30100,-31700 Z" class="l69d44" /> <path d="M 30300,-31700 L 30300,-31900 L 30500,-31900 L 30500,-31700 Z" class="l69d44" /> <path d="M 35660,-31700 L 35660,-31900 L 35860,-31900 L 35860,-31700 Z" class="l69d44" /> <path d="M 36060,-31700 L 36060,-31900 L 36260,-31900 L 36260,-31700 Z" class="l69d44" /> <path d="M 24010,-30500 L 24010,-30700 L 24210,-30700 L 24210,-30500 Z" class="l69d44" /> <path d="M 24970,-30500 L 24970,-30700 L 25170,-30700 L 25170,-30500 Z" class="l69d44" /> <path d="M 37290,-30500 L 37290,-30700 L 37490,-30700 L 37490,-30500 Z" class="l69d44" /> <path d="M 25920,-29280 L 25920,-29480 L 26120,-29480 L 26120,-29280 Z" class="l69d44" /> <path d="M 31680,-29280 L 31680,-29480 L 31880,-29480 L 31880,-29280 Z" class="l69d44" /> <path d="M 24960,-27680 L 24960,-27880 L 25160,-27880 L 25160,-27680 Z" class="l69d44" /> <path d="M 29900,-27700 L 29900,-27900 L 30100,-27900 L 30100,-27700 Z" class="l69d44" /> <path d="M 30300,-27700 L 30300,-27900 L 30500,-27900 L 30500,-27700 Z" class="l69d44" /> <path d="M 35660,-27700 L 35660,-27900 L 35860,-27900 L 35860,-27700 Z" class="l69d44" /> <path d="M 36060,-27700 L 36060,-27900 L 36260,-27900 L 36260,-27700 Z" class="l69d44" /> <path d="M 24010,-26500 L 24010,-26700 L 24210,-26700 L 24210,-26500 Z" class="l69d44" /> <path d="M 37290,-26500 L 37290,-26700 L 37490,-26700 L 37490,-26500 Z" class="l69d44" /> <path d="M 25920,-25280 L 25920,-25480 L 26120,-25480 L 26120,-25280 Z" class="l69d44" /> <path d="M 31680,-25280 L 31680,-25480 L 31880,-25480 L 31880,-25280 Z" class="l69d44" /> <path d="M 29900,-23700 L 29900,-23900 L 30100,-23900 L 30100,-23700 Z" class="l69d44" /> <path d="M 30300,-23700 L 30300,-23900 L 30500,-23900 L 30500,-23700 Z" class="l69d44" /> <path d="M 35660,-23700 L 35660,-23900 L 35860,-23900 L 35860,-23700 Z" class="l69d44" /> <path d="M 36060,-23700 L 36060,-23900 L 36260,-23900 L 36260,-23700 Z" class="l69d44" /> <path d="M 24010,-22500 L 24010,-22700 L 24210,-22700 L 24210,-22500 Z" class="l69d44" /> <path d="M 37290,-22500 L 37290,-22700 L 37490,-22700 L 37490,-22500 Z" class="l69d44" /> <path d="M 25920,-21280 L 25920,-21480 L 26120,-21480 L 26120,-21280 Z" class="l69d44" /> <path d="M 31680,-21280 L 31680,-21480 L 31880,-21480 L 31880,-21280 Z" class="l69d44" /> <path d="M 29900,-19700 L 29900,-19900 L 30100,-19900 L 30100,-19700 Z" class="l69d44" /> <path d="M 30300,-19700 L 30300,-19900 L 30500,-19900 L 30500,-19700 Z" class="l69d44" /> <path d="M 31690,-19690 L 31690,-19890 L 31890,-19890 L 31890,-19690 Z" class="l69d44" /> <path d="M 35660,-19700 L 35660,-19900 L 35860,-19900 L 35860,-19700 Z" class="l69d44" /> <path d="M 36060,-19700 L 36060,-19900 L 36260,-19900 L 36260,-19700 Z" class="l69d44" /> <path d="M 21750,-18550 L 21750,-18750 L 21950,-18750 L 21950,-18550 Z" class="l69d44" /> <path d="M 25910,-18550 L 25910,-18750 L 26110,-18750 L 26110,-18550 Z" class="l69d44" /> <path d="M 21320,-17500 L 21320,-17700 L 21520,-17700 L 21520,-17500 Z" class="l69d44" /> <path d="M 21720,-17500 L 21720,-17700 L 21920,-17700 L 21920,-17500 Z" class="l69d44" /> <path d="M 22120,-17500 L 22120,-17700 L 22320,-17700 L 22320,-17500 Z" class="l69d44" /> <path d="M 19950,-17080 L 19950,-17280 L 20150,-17280 L 20150,-17080 Z" class="l69d44" /> <path d="M 21320,-17100 L 21320,-17300 L 21520,-17300 L 21520,-17100 Z" class="l69d44" /> <path d="M 21720,-17100 L 21720,-17300 L 21920,-17300 L 21920,-17100 Z" class="l69d44" /> <path d="M 22120,-17100 L 22120,-17300 L 22320,-17300 L 22320,-17100 Z" class="l69d44" /> <path d="M 25910,-17270 L 25910,-17470 L 26110,-17470 L 26110,-17270 Z" class="l69d44" /> <path d="M 21320,-16700 L 21320,-16900 L 21520,-16900 L 21520,-16700 Z" class="l69d44" /> <path d="M 21720,-16700 L 21720,-16900 L 21920,-16900 L 21920,-16700 Z" class="l69d44" /> <path d="M 22120,-16700 L 22120,-16900 L 22320,-16900 L 22320,-16700 Z" class="l69d44" /> <path d="M 24010,-15620 L 24010,-15820 L 24210,-15820 L 24210,-15620 Z" class="l69d44" /> <path d="M 31690,-6250 L 31690,-6450 L 31890,-6450 L 31890,-6250 Z" class="l69d44" /> <path d="M 24960,-4640 L 24960,-4840 L 25160,-4840 L 25160,-4640 Z" class="l69d44" /> <path d="M 3750,-51930 L 3750,-53270 L 5330,-53270 L 5330,-51930 Z" class="l70d20" /> <path d="M 19830,-52320 L 19830,-52760 L 20270,-52760 L 20270,-52320 Z" class="l70d20" /> <path d="M 4380,-37260 L 4380,-51930 L 4680,-51930 L 4680,-37260 Z" class="l70d20" /> <path d="M 4310,-36820 L 4310,-37260 L 4750,-37260 L 4750,-36820 Z" class="l70d20" /> <path d="M 19900,-17400 L 19900,-52320 L 20200,-52320 L 20200,-17400 Z" class="l70d20" /> <path d="M 21590,-36820 L 21590,-37260 L 22030,-37260 L 22030,-36820 Z" class="l70d20" /> <path d="M 21660,-35570 L 21660,-36820 L 21960,-36820 L 21960,-35570 Z" class="l70d20" /> <path d="M 21030,-34230 L 21030,-35570 L 22610,-35570 L 22610,-34230 Z" class="l70d20" /> <path d="M 24850,-34380 L 24850,-34820 L 25290,-34820 L 25290,-34380 Z" class="l70d20" /> <path d="M 37170,-34380 L 37170,-34820 L 37610,-34820 L 37610,-34380 Z" class="l70d20" /> <path d="M 24920,-30820 L 24920,-34380 L 25220,-34380 L 25220,-30820 Z" class="l70d20" /> <path d="M 25800,-33160 L 25800,-33600 L 26240,-33600 L 26240,-33160 Z" class="l70d20" /> <path d="M 31560,-33160 L 31560,-33600 L 32000,-33600 L 32000,-33160 Z" class="l70d20" /> <path d="M 23890,-30380 L 23890,-30820 L 24330,-30820 L 24330,-30380 Z" class="l70d20" /> <path d="M 24850,-30380 L 24850,-30820 L 25290,-30820 L 25290,-30380 Z" class="l70d20" /> <path d="M 23960,-26820 L 23960,-30380 L 24260,-30380 L 24260,-26820 Z" class="l70d20" /> <path d="M 25870,-29600 L 25870,-33160 L 26170,-33160 L 26170,-29600 Z" class="l70d20" /> <path d="M 29650,-31530 L 29650,-32070 L 30750,-32070 L 30750,-31530 Z" class="l70d20" /> <path d="M 25800,-29160 L 25800,-29600 L 26240,-29600 L 26240,-29160 Z" class="l70d20" /> <path d="M 30030,-28070 L 30030,-31530 L 30330,-31530 L 30330,-28070 Z" class="l70d20" /> <path d="M 31630,-29600 L 31630,-33160 L 31930,-33160 L 31930,-29600 Z" class="l70d20" /> <path d="M 35410,-31530 L 35410,-32070 L 36510,-32070 L 36510,-31530 Z" class="l70d20" /> <path d="M 31560,-29160 L 31560,-29600 L 32000,-29600 L 32000,-29160 Z" class="l70d20" /> <path d="M 35790,-28070 L 35790,-31530 L 36090,-31530 L 36090,-28070 Z" class="l70d20" /> <path d="M 37240,-30820 L 37240,-34380 L 37540,-34380 L 37540,-30820 Z" class="l70d20" /> <path d="M 37170,-30380 L 37170,-30820 L 37610,-30820 L 37610,-30380 Z" class="l70d20" /> <path d="M 24840,-27560 L 24840,-28000 L 25280,-28000 L 25280,-27560 Z" class="l70d20" /> <path d="M 23890,-26380 L 23890,-26820 L 24330,-26820 L 24330,-26380 Z" class="l70d20" /> <path d="M 23960,-22820 L 23960,-26380 L 24260,-26380 L 24260,-22820 Z" class="l70d20" /> <path d="M 23890,-22380 L 23890,-22820 L 24330,-22820 L 24330,-22380 Z" class="l70d20" /> <path d="M 21630,-18430 L 21630,-18870 L 22070,-18870 L 22070,-18430 Z" class="l70d20" /> <path d="M 21700,-17870 L 21700,-18430 L 22000,-18430 L 22000,-17870 Z" class="l70d20" /> <path d="M 19830,-16960 L 19830,-17400 L 20270,-17400 L 20270,-16960 Z" class="l70d20" /> <path d="M 21030,-16530 L 21030,-17870 L 22610,-17870 L 22610,-16530 Z" class="l70d20" /> <path d="M 23960,-15940 L 23960,-22380 L 24260,-22380 L 24260,-15940 Z" class="l70d20" /> <path d="M 23890,-15500 L 23890,-15940 L 24330,-15940 L 24330,-15500 Z" class="l70d20" /> <path d="M 24910,-4960 L 24910,-27560 L 25210,-27560 L 25210,-4960 Z" class="l70d20" /> <path d="M 29650,-27530 L 29650,-28070 L 30750,-28070 L 30750,-27530 Z" class="l70d20" /> <path d="M 35410,-27530 L 35410,-28070 L 36510,-28070 L 36510,-27530 Z" class="l70d20" /> <path d="M 37240,-26820 L 37240,-30380 L 37540,-30380 L 37540,-26820 Z" class="l70d20" /> <path d="M 37170,-26380 L 37170,-26820 L 37610,-26820 L 37610,-26380 Z" class="l70d20" /> <path d="M 25800,-25160 L 25800,-25600 L 26240,-25600 L 26240,-25160 Z" class="l70d20" /> <path d="M 31560,-25160 L 31560,-25600 L 32000,-25600 L 32000,-25160 Z" class="l70d20" /> <path d="M 25870,-21600 L 25870,-25160 L 26170,-25160 L 26170,-21600 Z" class="l70d20" /> <path d="M 29650,-23530 L 29650,-24070 L 30750,-24070 L 30750,-23530 Z" class="l70d20" /> <path d="M 25800,-21160 L 25800,-21600 L 26240,-21600 L 26240,-21160 Z" class="l70d20" /> <path d="M 30040,-20070 L 30040,-23530 L 30340,-23530 L 30340,-20070 Z" class="l70d20" /> <path d="M 31630,-21600 L 31630,-25160 L 31930,-25160 L 31930,-21600 Z" class="l70d20" /> <path d="M 35410,-23530 L 35410,-24070 L 36510,-24070 L 36510,-23530 Z" class="l70d20" /> <path d="M 31560,-21160 L 31560,-21600 L 32000,-21600 L 32000,-21160 Z" class="l70d20" /> <path d="M 35800,-20070 L 35800,-23530 L 36100,-23530 L 36100,-20070 Z" class="l70d20" /> <path d="M 37240,-22820 L 37240,-26380 L 37540,-26380 L 37540,-22820 Z" class="l70d20" /> <path d="M 37170,-22380 L 37170,-22820 L 37610,-22820 L 37610,-22380 Z" class="l70d20" /> <path d="M 29650,-19530 L 29650,-20070 L 30750,-20070 L 30750,-19530 Z" class="l70d20" /> <path d="M 31570,-19570 L 31570,-20010 L 32010,-20010 L 32010,-19570 Z" class="l70d20" /> <path d="M 25790,-18430 L 25790,-18870 L 26230,-18870 L 26230,-18430 Z" class="l70d20" /> <path d="M 25860,-17590 L 25860,-18430 L 26160,-18430 L 26160,-17590 Z" class="l70d20" /> <path d="M 25790,-17150 L 25790,-17590 L 26230,-17590 L 26230,-17150 Z" class="l70d20" /> <path d="M 31640,-6570 L 31640,-19570 L 31940,-19570 L 31940,-6570 Z" class="l70d20" /> <path d="M 35410,-19530 L 35410,-20070 L 36510,-20070 L 36510,-19530 Z" class="l70d20" /> <path d="M 31570,-6130 L 31570,-6570 L 32010,-6570 L 32010,-6130 Z" class="l70d20" /> <path d="M 24840,-4520 L 24840,-4960 L 25280,-4960 L 25280,-4520 Z" class="l70d20" /> <path d="M 31630,-21230 L 31630,-21530 L 33060,-21530 L 33060,-21230 Z" class="l69d16" /> <path d="M 25870,-33230 L 25870,-33530 L 27300,-33530 L 27300,-33230 Z" class="l69d16" /> <path d="M 24910,-4590 L 24910,-4890 L 30180,-4890 L 30180,-4590 Z" class="l69d16" /> <rect x="1875" y="-19325" width="22610" height="17450" class="l999d0" /> <text x="13180.0" y="-10600.0" class="l998t0" text-anchor="middle" alignment-baseline="middle">bs1_RH1</text> <rect x="1875" y="-54725" width="22610" height="17450" class="l999d0" /> <text x="13180.0" y="-46000.0" class="l998t0" text-anchor="middle" alignment-baseline="middle">bs1_RH2</text> <rect x="1875" y="-37025" width="22610" height="17450" class="l999d0" /> <text x="13180.0" y="-28300.0" class="l998t0" text-anchor="middle" alignment-baseline="middle">bs1_RH3</text> <rect x="31515" y="-4725" width="6970" height="2725" class="l999d0" /> <text x="35000.0" y="-3362.5" class="l998t0" text-anchor="middle" alignment-baseline="middle">mr2_MN1_BE</text> <rect x="25755" y="-4725" width="6970" height="2725" class="l999d0" /> <text x="29240.0" y="-3362.5" class="l998t0" text-anchor="middle" alignment-baseline="middle">mr2_MN2_BE</text> <rect x="31515" y="-10800" width="6970" height="2725" class="l999d0" /> <text x="35000.0" y="-9437.5" class="l998t0" text-anchor="middle" alignment-baseline="middle">mr2_MN1_TE</text> <rect x="25755" y="-10800" width="6970" height="2725" class="l999d0" /> <text x="29240.0" y="-9437.5" class="l998t0" text-anchor="middle" alignment-baseline="middle">mr2_MN2_TE</text> <rect x="31515" y="-8725" width="6970" height="4650" class="l999d0" /> <text x="35000.0" y="-6400.0" class="l998t0" text-anchor="middle" alignment-baseline="middle">mr2_MN1</text> <rect x="25755" y="-8725" width="6970" height="4650" class="l999d0" /> <text x="29240.0" y="-6400.0" class="l998t0" text-anchor="middle" alignment-baseline="middle">mr2_MN2</text> <rect x="25440" y="-16040" width="7600" height="3680" class="l999d0" /> <text x="29240.0" y="-14200.0" class="l998t0" text-anchor="middle" alignment-baseline="middle">mr1_MP2_BE</text> <rect x="31200" y="-16040" width="7600" height="3680" class="l999d0" /> <text x="35000.0" y="-14200.0" class="l998t0" text-anchor="middle" alignment-baseline="middle">mr1_MP1_BE</text> <rect x="25440" y="-24040" width="7600" height="5280" class="l999d0" /> <text x="29240.0" y="-21400.0" class="l998t0" text-anchor="middle" alignment-baseline="middle">df1_MP3&lt;3&gt;</text> <rect x="31200" y="-24040" width="7600" height="5280" class="l999d0" /> <text x="35000.0" y="-21400.0" class="l998t0" text-anchor="middle" alignment-baseline="middle">df1_MP3&lt;2&gt;</text> <rect x="31200" y="-28040" width="7600" height="5280" class="l999d0" /> <text x="35000.0" y="-25400.0" class="l998t0" text-anchor="middle" alignment-baseline="middle">df1_MP3&lt;1&gt;</text> <rect x="25440" y="-28040" width="7600" height="5280" class="l999d0" /> <text x="29240.0" y="-25400.0" class="l998t0" text-anchor="middle" alignment-baseline="middle">df1_MP3&lt;0&gt;</text> <rect x="31200" y="-36040" width="7600" height="5280" class="l999d0" /> <text x="35000.0" y="-33400.0" class="l998t0" text-anchor="middle" alignment-baseline="middle">df1_MP4&lt;3&gt;</text> <rect x="25440" y="-36040" width="7600" height="5280" class="l999d0" /> <text x="29240.0" y="-33400.0" class="l998t0" text-anchor="middle" alignment-baseline="middle">df1_MP4&lt;2&gt;</text> <rect x="31200" y="-32040" width="7600" height="5280" class="l999d0" /> <text x="35000.0" y="-29400.0" class="l998t0" text-anchor="middle" alignment-baseline="middle">df1_MP4&lt;1&gt;</text> <rect x="25440" y="-32040" width="7600" height="5280" class="l999d0" /> <text x="29240.0" y="-29400.0" class="l998t0" text-anchor="middle" alignment-baseline="middle">df1_MP4&lt;0&gt;</text> <rect x="25440" y="-20040" width="7600" height="5280" class="l999d0" /> <text x="29240.0" y="-17400.0" class="l998t0" text-anchor="middle" alignment-baseline="middle">mr1_MP2</text> <rect x="31200" y="-20040" width="7600" height="5280" class="l999d0" /> <text x="35000.0" y="-17400.0" class="l998t0" text-anchor="middle" alignment-baseline="middle">mr1_MP1</text> <rect x="31200" y="-38440" width="7600" height="3680" class="l999d0" /> <text x="35000.0" y="-36600.0" class="l995t0" text-anchor="middle" alignment-baseline="middle">df1_MP4&lt;3&gt;_TE</text> <rect x="25440" y="-38440" width="7600" height="3680" class="l999d0" /> <text x="29240.0" y="-36600.0" class="l995t0" text-anchor="middle" alignment-baseline="middle">df1_MP4&lt;2&gt;_TE</text> <text x="20400" y="-56110" class="l997t0" text-anchor="middle" alignment-baseline="central">VDD</text> <text x="20400" y="-55110" class="l997t0" text-anchor="middle" alignment-baseline="central">VSS</text> <text x="32345" y="-21140" class="l997t0" text-anchor="middle" alignment-baseline="central">IN+</text> <text x="26585" y="-33140" class="l997t0" text-anchor="middle" alignment-baseline="central">IN-</text> <text x="27545" y="-4500" class="l997t0" text-anchor="middle" alignment-baseline="central">OUT</text> <text x="730" y="785.0" font-size="900" fill="black" alignment-baseline="middle">Locali</text> <rect x="30" y="370" width="400" height="400" fill="#56423e" stroke="black" stroke-width="2" /> <text x="5130" y="785.0" font-size="900" fill="black" alignment-baseline="middle">M1</text> <rect x="4430" y="370" width="400" height="400" fill="#bea6a1" stroke="black" stroke-width="2" /> <text x="9530" y="785.0" font-size="900" fill="black" alignment-baseline="middle">M2</text> <rect x="8830" y="370" width="400" height="400" fill="#d62728" stroke="black" stroke-width="2" /> <text x="13930" y="785.0" font-size="900" fill="black" alignment-baseline="middle">M3</text> <rect x="13230" y="370" width="400" height="400" fill="#1f77b4" stroke="black" stroke-width="2" /> <text x="18330" y="785.0" font-size="900" fill="black" alignment-baseline="middle">Viali</text> <rect x="17630" y="370" width="400" height="400" fill="#e09a8e" stroke="black" stroke-width="2" /> <text x="22730" y="785.0" font-size="900" fill="black" alignment-baseline="middle">Via1</text> <rect x="22030" y="370" width="400" height="400" fill="#e39024" stroke="black" stroke-width="2" /> <text x="27130" y="785.0" font-size="900" fill="black" alignment-baseline="middle">Via2</text> <rect x="26430" y="370" width="400" height="400" fill="#70b512" stroke="black" stroke-width="2" /> <line x1="-70" y1="-57140" x2="40870" y2="-57140" stroke="black" stroke-width="50" marker-start="url(#arrowhead_reversed)" marker-end="url(#arrowhead)" /> <text x="20400.0" y="-57340" font-size="900" fill="black" text-anchor="middle">40.94 m</text> <line x1="41400" y1="-70" x2="41400" y2="-56670" stroke="black" stroke-width="50" marker-start="url(#arrowhead_reversed)" marker-end="url(#arrowhead)" /> <text x="41600" y="-28300.0" font-size="900" fill="black" text-anchor="middle" transform="rotate(90 41600,-28300.0)">56.74 m</text>
            </g>
        </svg>
        