<svg xmlns="http://www.w3.org/2000/svg"
            width="5959.0" height="4274.0"
            viewBox="-147.0 -4127.0 5959.0 4274.0">
            
        <defs>
          <marker id="arrowhead" markerWidth="20" markerHeight="30"
                  refX="10" refY="3.5" orient="auto" markerUnits="strokeWidth">
            <path d="M0,0 L0,7 L10,3.5 z" fill="black" />
          </marker>

          <marker id="arrowhead_reversed" markerWidth="20" markerHeight="30" 
                  refX="0" refY="3.5" orient="auto" markerUnits="strokeWidth">
            <path d="M10,0 L10,7 L0,3.5 z" fill="black" />
          </marker>
        </defs>
        
        <defs>
        <style type="text/css">
          .l70d20 { fill: #1f77b4; fill-opacity: 0.7; }
          .l69d20 { fill: #d62728; fill-opacity: 0.7; }
          .l67d20 { fill: #56423e; fill-opacity: 0.7; }
          .l68d20 { fill: #bea6a1; fill-opacity: 0.7; }
          .l68d44 { fill: #0077ff;}
          .l67d44 { fill: #e09a8e;}
          .l69d44 { fill: #70b512;}
          
          .l50d0 { fill: #1f77b4; fill-opacity: 0.7; } /* Metal 4 in IHP */
          .l49d0{ fill: #70b512;}                      /* Via 3 in IHP */
          .l30d0 { fill: #d62728; fill-opacity: 0.7; } /* Metal 3 in IHP */
          .l29d0 { fill: #e39024;}                     /* Via 2 in IHP */
          .l10d0 { fill: #bea6a1; fill-opacity: 0.7; } /* Metal 2 in IHP */
          .l19d0 { fill: #e09a8e;}                     /* Via 1 in IHP */
          .l8d0 { fill: #56423e; fill-opacity: 0.7; }  /* Metal 1 in IHP */
        
          
          /* Not dealt with */
          .l64d20,
          .l65d20,
          .l65d44,
          .l66d13,
          .l66d20,
          .l66d44,
          .l67d16,
          .l68d16,
          .l69d16,
          .l86d20,
          .l93d44,
          .l94d20,
          .l95d20,
          .l8d2,
          .l8d25,
          .l30d2,
          .l30d25,
          .l14d0
          .l235d4 {
            fill: #000000;
            fill-opacity: 0.0;
          }
          
          .l998t0 { fill: #000000; font-size: 900px; }
          .l997t0 { fill: #5C4033; font-size: 900px;}
          .l999d0 { stroke: #000000; stroke-width: 50; fill: #000000; fill-opacity: 0.2; }
        </style>
        </defs>
        
            <rect x="-147.0" y="-4127.0" width="5959.0" height="4274.0" fill="#ffffff" />
            <g transform="scale(0.1)">
              <path d="M 5600,-31380 L 5600,-31420 L 8060,-31420 L 8060,-31380 Z" class="l14d0" /> <path d="M 13160,-31380 L 13160,-31420 L 15620,-31420 L 15620,-31380 Z" class="l14d0" /> <path d="M 5600,-27380 L 5600,-27420 L 8060,-27420 L 8060,-27380 Z" class="l14d0" /> <path d="M 13160,-27380 L 13160,-27420 L 15620,-27420 L 15620,-27380 Z" class="l14d0" /> <path d="M 5600,-23380 L 5600,-23420 L 8060,-23420 L 8060,-23380 Z" class="l14d0" /> <path d="M 13160,-23380 L 13160,-23420 L 15620,-23420 L 15620,-23380 Z" class="l14d0" /> <path d="M 5600,-19380 L 5600,-19420 L 8060,-19420 L 8060,-19380 Z" class="l14d0" /> <path d="M 13160,-19380 L 13160,-19420 L 15620,-19420 L 15620,-19380 Z" class="l14d0" /> <path d="M -70,-39800 L -70,-39870 L 570,-39870 L 570,-39800 Z" class="l8d0" /> <path d="M 56080,-39800 L 56080,-39870 L 56720,-39870 L 56720,-39800 Z" class="l8d0" /> <path d="M -70,-39300 L -70,-39800 L 56720,-39800 L 56720,-39300 Z" class="l8d0" /> <path d="M -70,-39230 L -70,-39300 L 570,-39300 L 570,-39230 Z" class="l8d0" /> <path d="M 56080,-39230 L 56080,-39300 L 56720,-39300 L 56720,-39230 Z" class="l8d0" /> <path d="M 930,-38800 L 930,-38870 L 1570,-38870 L 1570,-38800 Z" class="l8d0" /> <path d="M 55080,-38800 L 55080,-38870 L 55720,-38870 L 55720,-38800 Z" class="l8d0" /> <path d="M 930,-38300 L 930,-38800 L 55720,-38800 L 55720,-38300 Z" class="l8d0" /> <path d="M 930,-38230 L 930,-38300 L 1570,-38300 L 1570,-38230 Z" class="l8d0" /> <path d="M 55080,-38230 L 55080,-38300 L 55720,-38300 L 55720,-38230 Z" class="l8d0" /> <path d="M -70,-37230 L -70,-37300 L 570,-37300 L 570,-37230 Z" class="l8d0" /> <path d="M -70,-35970 L -70,-37230 L 19220,-37230 L 19220,-35970 Z" class="l8d0" /> <path d="M -70,-35900 L -70,-35970 L 570,-35970 L 570,-35900 Z" class="l8d0" /> <path d="M 2420,-34400 L 2420,-34800 L 6200,-34800 L 6200,-34400 Z" class="l8d0" /> <path d="M 9980,-34400 L 9980,-34800 L 13760,-34800 L 13760,-34400 Z" class="l8d0" /> <path d="M 7460,-33200 L 7460,-33600 L 9560,-33600 L 9560,-33200 Z" class="l8d0" /> <path d="M 55080,-29400 L 55080,-29470 L 55720,-29470 L 55720,-29400 Z" class="l8d0" /> <path d="M 20170,-28840 L 20170,-29400 L 55720,-29400 L 55720,-28840 Z" class="l8d0" /> <path d="M 55080,-28770 L 55080,-28840 L 55720,-28840 L 55720,-28770 Z" class="l8d0" /> <path d="M 21170,-27730 L 21170,-28270 L 23290,-28270 L 23290,-27730 Z" class="l8d0" /> <path d="M 51530,-27730 L 51530,-28270 L 53650,-28270 L 53650,-27730 Z" class="l8d0" /> <path d="M 55080,-21160 L 55080,-21230 L 55720,-21230 L 55720,-21160 Z" class="l8d0" /> <path d="M 20170,-20600 L 20170,-21160 L 55720,-21160 L 55720,-20600 Z" class="l8d0" /> <path d="M 55080,-20530 L 55080,-20600 L 55720,-20600 L 55720,-20530 Z" class="l8d0" /> <path d="M 55080,-20100 L 55080,-20170 L 55720,-20170 L 55720,-20100 Z" class="l8d0" /> <path d="M 20170,-19540 L 20170,-20100 L 55720,-20100 L 55720,-19540 Z" class="l8d0" /> <path d="M 55080,-19470 L 55080,-19540 L 55720,-19540 L 55720,-19470 Z" class="l8d0" /> <path d="M 20250,-18500 L 20250,-18900 L 23220,-18900 L 23220,-18500 Z" class="l8d0" /> <path d="M 51530,-18430 L 51530,-18970 L 53650,-18970 L 53650,-18430 Z" class="l8d0" /> <path d="M -70,-14830 L -70,-14900 L 570,-14900 L 570,-14830 Z" class="l8d0" /> <path d="M -70,-13570 L -70,-14830 L 19220,-14830 L 19220,-13570 Z" class="l8d0" /> <path d="M -70,-13500 L -70,-13570 L 570,-13570 L 570,-13500 Z" class="l8d0" /> <path d="M 55080,-11860 L 55080,-11930 L 55720,-11930 L 55720,-11860 Z" class="l8d0" /> <path d="M 20170,-11300 L 20170,-11860 L 55720,-11860 L 55720,-11300 Z" class="l8d0" /> <path d="M 55080,-11230 L 55080,-11300 L 55720,-11300 L 55720,-11230 Z" class="l8d0" /> <path d="M 55080,-10800 L 55080,-10870 L 55720,-10870 L 55720,-10800 Z" class="l8d0" /> <path d="M 930,-10230 L 930,-10300 L 1570,-10300 L 1570,-10230 Z" class="l8d0" /> <path d="M 20170,-10240 L 20170,-10800 L 55720,-10800 L 55720,-10240 Z" class="l8d0" /> <path d="M 930,-8970 L 930,-10230 L 18380,-10230 L 18380,-8970 Z" class="l8d0" /> <path d="M 55080,-10170 L 55080,-10240 L 55720,-10240 L 55720,-10170 Z" class="l8d0" /> <path d="M 21170,-9130 L 21170,-9670 L 23290,-9670 L 23290,-9130 Z" class="l8d0" /> <path d="M 51530,-9130 L 51530,-9670 L 53650,-9670 L 53650,-9130 Z" class="l8d0" /> <path d="M 930,-8900 L 930,-8970 L 1570,-8970 L 1570,-8900 Z" class="l8d0" /> <path d="M 2420,-7400 L 2420,-7800 L 6200,-7800 L 6200,-7400 Z" class="l8d0" /> <path d="M 9980,-7400 L 9980,-7800 L 13760,-7800 L 13760,-7400 Z" class="l8d0" /> <path d="M 7460,-6200 L 7460,-6600 L 9560,-6600 L 9560,-6200 Z" class="l8d0" /> <path d="M 930,-3830 L 930,-3900 L 1570,-3900 L 1570,-3830 Z" class="l8d0" /> <path d="M 930,-2570 L 930,-3830 L 18380,-3830 L 18380,-2570 Z" class="l8d0" /> <path d="M 930,-2500 L 930,-2570 L 1570,-2570 L 1570,-2500 Z" class="l8d0" /> <path d="M 55080,-2560 L 55080,-2630 L 55720,-2630 L 55720,-2560 Z" class="l8d0" /> <path d="M 20170,-2000 L 20170,-2560 L 55720,-2560 L 55720,-2000 Z" class="l8d0" /> <path d="M 55080,-1930 L 55080,-2000 L 55720,-2000 L 55720,-1930 Z" class="l8d0" /> <path d="M 930,-1500 L 930,-1570 L 1570,-1570 L 1570,-1500 Z" class="l8d0" /> <path d="M 55080,-1500 L 55080,-1570 L 55720,-1570 L 55720,-1500 Z" class="l8d0" /> <path d="M 930,-1000 L 930,-1500 L 55720,-1500 L 55720,-1000 Z" class="l8d0" /> <path d="M 930,-930 L 930,-1000 L 1570,-1000 L 1570,-930 Z" class="l8d0" /> <path d="M 55080,-930 L 55080,-1000 L 55720,-1000 L 55720,-930 Z" class="l8d0" /> <path d="M -70,-500 L -70,-570 L 570,-570 L 570,-500 Z" class="l8d0" /> <path d="M 56080,-500 L 56080,-570 L 56720,-570 L 56720,-500 Z" class="l8d0" /> <path d="M -70,0 L -70,-500 L 56720,-500 L 56720,0 Z" class="l8d0" /> <path d="M -70,70 L -70,0 L 570,0 L 570,70 Z" class="l8d0" /> <path d="M 56080,70 L 56080,0 L 56720,0 L 56720,70 Z" class="l8d0" /> <path d="M 0,-39300 L 0,-39800 L 56650,-39800 L 56650,-39300 Z" class="l8d2" /> <path d="M 1000,-38300 L 1000,-38800 L 55650,-38800 L 55650,-38300 Z" class="l8d2" /> <path d="M 155,-39455 L 155,-39645 L 345,-39645 L 345,-39455 Z" class="l19d0" /> <path d="M 56305,-39455 L 56305,-39645 L 56495,-39645 L 56495,-39455 Z" class="l19d0" /> <path d="M 1155,-38455 L 1155,-38645 L 1345,-38645 L 1345,-38455 Z" class="l19d0" /> <path d="M 55305,-38455 L 55305,-38645 L 55495,-38645 L 55495,-38455 Z" class="l19d0" /> <path d="M 155,-36915 L 155,-37105 L 345,-37105 L 345,-36915 Z" class="l19d0" /> <path d="M 155,-36505 L 155,-36695 L 345,-36695 L 345,-36505 Z" class="l19d0" /> <path d="M 155,-36095 L 155,-36285 L 345,-36285 L 345,-36095 Z" class="l19d0" /> <path d="M 55305,-29025 L 55305,-29215 L 55495,-29215 L 55495,-29025 Z" class="l19d0" /> <path d="M 21315,-27905 L 21315,-28095 L 21505,-28095 L 21505,-27905 Z" class="l19d0" /> <path d="M 21725,-27905 L 21725,-28095 L 21915,-28095 L 21915,-27905 Z" class="l19d0" /> <path d="M 22135,-27905 L 22135,-28095 L 22325,-28095 L 22325,-27905 Z" class="l19d0" /> <path d="M 22545,-27905 L 22545,-28095 L 22735,-28095 L 22735,-27905 Z" class="l19d0" /> <path d="M 22955,-27905 L 22955,-28095 L 23145,-28095 L 23145,-27905 Z" class="l19d0" /> <path d="M 51675,-27905 L 51675,-28095 L 51865,-28095 L 51865,-27905 Z" class="l19d0" /> <path d="M 52085,-27905 L 52085,-28095 L 52275,-28095 L 52275,-27905 Z" class="l19d0" /> <path d="M 52495,-27905 L 52495,-28095 L 52685,-28095 L 52685,-27905 Z" class="l19d0" /> <path d="M 52905,-27905 L 52905,-28095 L 53095,-28095 L 53095,-27905 Z" class="l19d0" /> <path d="M 53315,-27905 L 53315,-28095 L 53505,-28095 L 53505,-27905 Z" class="l19d0" /> <path d="M 55305,-20785 L 55305,-20975 L 55495,-20975 L 55495,-20785 Z" class="l19d0" /> <path d="M 55305,-19725 L 55305,-19915 L 55495,-19915 L 55495,-19725 Z" class="l19d0" /> <path d="M 51675,-18605 L 51675,-18795 L 51865,-18795 L 51865,-18605 Z" class="l19d0" /> <path d="M 52085,-18605 L 52085,-18795 L 52275,-18795 L 52275,-18605 Z" class="l19d0" /> <path d="M 52495,-18605 L 52495,-18795 L 52685,-18795 L 52685,-18605 Z" class="l19d0" /> <path d="M 52905,-18605 L 52905,-18795 L 53095,-18795 L 53095,-18605 Z" class="l19d0" /> <path d="M 53315,-18605 L 53315,-18795 L 53505,-18795 L 53505,-18605 Z" class="l19d0" /> <path d="M 155,-14515 L 155,-14705 L 345,-14705 L 345,-14515 Z" class="l19d0" /> <path d="M 155,-14105 L 155,-14295 L 345,-14295 L 345,-14105 Z" class="l19d0" /> <path d="M 155,-13695 L 155,-13885 L 345,-13885 L 345,-13695 Z" class="l19d0" /> <path d="M 55305,-11485 L 55305,-11675 L 55495,-11675 L 55495,-11485 Z" class="l19d0" /> <path d="M 55305,-10425 L 55305,-10615 L 55495,-10615 L 55495,-10425 Z" class="l19d0" /> <path d="M 1155,-9915 L 1155,-10105 L 1345,-10105 L 1345,-9915 Z" class="l19d0" /> <path d="M 1155,-9505 L 1155,-9695 L 1345,-9695 L 1345,-9505 Z" class="l19d0" /> <path d="M 21315,-9305 L 21315,-9495 L 21505,-9495 L 21505,-9305 Z" class="l19d0" /> <path d="M 21725,-9305 L 21725,-9495 L 21915,-9495 L 21915,-9305 Z" class="l19d0" /> <path d="M 22135,-9305 L 22135,-9495 L 22325,-9495 L 22325,-9305 Z" class="l19d0" /> <path d="M 22545,-9305 L 22545,-9495 L 22735,-9495 L 22735,-9305 Z" class="l19d0" /> <path d="M 22955,-9305 L 22955,-9495 L 23145,-9495 L 23145,-9305 Z" class="l19d0" /> <path d="M 51675,-9305 L 51675,-9495 L 51865,-9495 L 51865,-9305 Z" class="l19d0" /> <path d="M 52085,-9305 L 52085,-9495 L 52275,-9495 L 52275,-9305 Z" class="l19d0" /> <path d="M 52495,-9305 L 52495,-9495 L 52685,-9495 L 52685,-9305 Z" class="l19d0" /> <path d="M 52905,-9305 L 52905,-9495 L 53095,-9495 L 53095,-9305 Z" class="l19d0" /> <path d="M 53315,-9305 L 53315,-9495 L 53505,-9495 L 53505,-9305 Z" class="l19d0" /> <path d="M 1155,-9095 L 1155,-9285 L 1345,-9285 L 1345,-9095 Z" class="l19d0" /> <path d="M 1155,-3515 L 1155,-3705 L 1345,-3705 L 1345,-3515 Z" class="l19d0" /> <path d="M 1155,-3105 L 1155,-3295 L 1345,-3295 L 1345,-3105 Z" class="l19d0" /> <path d="M 1155,-2695 L 1155,-2885 L 1345,-2885 L 1345,-2695 Z" class="l19d0" /> <path d="M 55305,-2185 L 55305,-2375 L 55495,-2375 L 55495,-2185 Z" class="l19d0" /> <path d="M 1155,-1155 L 1155,-1345 L 1345,-1345 L 1345,-1155 Z" class="l19d0" /> <path d="M 55305,-1155 L 55305,-1345 L 55495,-1345 L 55495,-1155 Z" class="l19d0" /> <path d="M 155,-155 L 155,-345 L 345,-345 L 345,-155 Z" class="l19d0" /> <path d="M 56305,-155 L 56305,-345 L 56495,-345 L 56495,-155 Z" class="l19d0" /> <path d="M -70,-39230 L -70,-39870 L 570,-39870 L 570,-39230 Z" class="l10d0" /> <path d="M 56080,-39230 L 56080,-39870 L 56720,-39870 L 56720,-39230 Z" class="l10d0" /> <path d="M 0,-37300 L 0,-39230 L 500,-39230 L 500,-37300 Z" class="l10d0" /> <path d="M 930,-38230 L 930,-38870 L 1570,-38870 L 1570,-38230 Z" class="l10d0" /> <path d="M 55080,-38230 L 55080,-38870 L 55720,-38870 L 55720,-38230 Z" class="l10d0" /> <path d="M -70,-35900 L -70,-37300 L 570,-37300 L 570,-35900 Z" class="l10d0" /> <path d="M 0,-14900 L 0,-35900 L 500,-35900 L 500,-14900 Z" class="l10d0" /> <path d="M -70,-13500 L -70,-14900 L 570,-14900 L 570,-13500 Z" class="l10d0" /> <path d="M 0,-570 L 0,-13500 L 500,-13500 L 500,-570 Z" class="l10d0" /> <path d="M 1000,-10300 L 1000,-38230 L 1500,-38230 L 1500,-10300 Z" class="l10d0" /> <path d="M 4030,-33130 L 4030,-33670 L 4590,-33670 L 4590,-33130 Z" class="l10d0" /> <path d="M 11590,-33130 L 11590,-33670 L 12150,-33670 L 12150,-33130 Z" class="l10d0" /> <path d="M 14950,-31530 L 14950,-32070 L 16350,-32070 L 16350,-31530 Z" class="l10d0" /> <path d="M 4870,-30330 L 4870,-30870 L 6270,-30870 L 6270,-30330 Z" class="l10d0" /> <path d="M 12430,-30330 L 12430,-30870 L 13830,-30870 L 13830,-30330 Z" class="l10d0" /> <path d="M 4030,-29130 L 4030,-29670 L 4590,-29670 L 4590,-29130 Z" class="l10d0" /> <path d="M 11590,-29130 L 11590,-29670 L 12150,-29670 L 12150,-29130 Z" class="l10d0" /> <path d="M 55150,-29470 L 55150,-38230 L 55650,-38230 L 55650,-29470 Z" class="l10d0" /> <path d="M 55080,-28770 L 55080,-29470 L 55720,-29470 L 55720,-28770 Z" class="l10d0" /> <path d="M 7390,-27530 L 7390,-28070 L 8790,-28070 L 8790,-27530 Z" class="l10d0" /> <path d="M 14950,-27530 L 14950,-28070 L 16350,-28070 L 16350,-27530 Z" class="l10d0" /> <path d="M 21170,-27730 L 21170,-28270 L 23290,-28270 L 23290,-27730 Z" class="l10d0" /> <path d="M 51530,-27730 L 51530,-28270 L 53650,-28270 L 53650,-27730 Z" class="l10d0" /> <path d="M 4870,-26330 L 4870,-26870 L 6270,-26870 L 6270,-26330 Z" class="l10d0" /> <path d="M 12430,-26330 L 12430,-26870 L 13830,-26870 L 13830,-26330 Z" class="l10d0" /> <path d="M 4030,-25130 L 4030,-25670 L 4590,-25670 L 4590,-25130 Z" class="l10d0" /> <path d="M 11590,-25130 L 11590,-25670 L 12150,-25670 L 12150,-25130 Z" class="l10d0" /> <path d="M 7390,-23530 L 7390,-24070 L 8790,-24070 L 8790,-23530 Z" class="l10d0" /> <path d="M 14950,-23530 L 14950,-24070 L 16350,-24070 L 16350,-23530 Z" class="l10d0" /> <path d="M 4870,-22330 L 4870,-22870 L 6270,-22870 L 6270,-22330 Z" class="l10d0" /> <path d="M 12430,-22330 L 12430,-22870 L 13830,-22870 L 13830,-22330 Z" class="l10d0" /> <path d="M 4030,-21130 L 4030,-21670 L 4590,-21670 L 4590,-21130 Z" class="l10d0" /> <path d="M 11590,-21130 L 11590,-21670 L 12150,-21670 L 12150,-21130 Z" class="l10d0" /> <path d="M 55150,-21230 L 55150,-28770 L 55650,-28770 L 55650,-21230 Z" class="l10d0" /> <path d="M 55080,-20530 L 55080,-21230 L 55720,-21230 L 55720,-20530 Z" class="l10d0" /> <path d="M 55150,-20170 L 55150,-20530 L 55650,-20530 L 55650,-20170 Z" class="l10d0" /> <path d="M 7390,-19530 L 7390,-20070 L 8790,-20070 L 8790,-19530 Z" class="l10d0" /> <path d="M 14950,-19530 L 14950,-20070 L 16350,-20070 L 16350,-19530 Z" class="l10d0" /> <path d="M 55080,-19470 L 55080,-20170 L 55720,-20170 L 55720,-19470 Z" class="l10d0" /> <path d="M 4870,-18330 L 4870,-18870 L 6270,-18870 L 6270,-18330 Z" class="l10d0" /> <path d="M 12430,-18330 L 12430,-18870 L 13830,-18870 L 13830,-18330 Z" class="l10d0" /> <path d="M 51530,-18430 L 51530,-18970 L 53650,-18970 L 53650,-18430 Z" class="l10d0" /> <path d="M 4030,-17130 L 4030,-17670 L 4590,-17670 L 4590,-17130 Z" class="l10d0" /> <path d="M 11590,-17130 L 11590,-17670 L 12150,-17670 L 12150,-17130 Z" class="l10d0" /> <path d="M 7390,-15530 L 7390,-16070 L 8790,-16070 L 8790,-15530 Z" class="l10d0" /> <path d="M 14950,-15530 L 14950,-16070 L 16350,-16070 L 16350,-15530 Z" class="l10d0" /> <path d="M 55150,-11930 L 55150,-19470 L 55650,-19470 L 55650,-11930 Z" class="l10d0" /> <path d="M 55080,-11230 L 55080,-11930 L 55720,-11930 L 55720,-11230 Z" class="l10d0" /> <path d="M 55150,-10870 L 55150,-11230 L 55650,-11230 L 55650,-10870 Z" class="l10d0" /> <path d="M 930,-8900 L 930,-10300 L 1570,-10300 L 1570,-8900 Z" class="l10d0" /> <path d="M 55080,-10170 L 55080,-10870 L 55720,-10870 L 55720,-10170 Z" class="l10d0" /> <path d="M 21170,-9130 L 21170,-9670 L 23290,-9670 L 23290,-9130 Z" class="l10d0" /> <path d="M 51530,-9130 L 51530,-9670 L 53650,-9670 L 53650,-9130 Z" class="l10d0" /> <path d="M 1000,-3900 L 1000,-8900 L 1500,-8900 L 1500,-3900 Z" class="l10d0" /> <path d="M 4030,-6130 L 4030,-6670 L 4590,-6670 L 4590,-6130 Z" class="l10d0" /> <path d="M 11590,-6130 L 11590,-6670 L 12150,-6670 L 12150,-6130 Z" class="l10d0" /> <path d="M 14950,-4530 L 14950,-5070 L 16350,-5070 L 16350,-4530 Z" class="l10d0" /> <path d="M 930,-2500 L 930,-3900 L 1570,-3900 L 1570,-2500 Z" class="l10d0" /> <path d="M 55150,-2630 L 55150,-10170 L 55650,-10170 L 55650,-2630 Z" class="l10d0" /> <path d="M 1000,-1570 L 1000,-2500 L 1500,-2500 L 1500,-1570 Z" class="l10d0" /> <path d="M 55080,-1930 L 55080,-2630 L 55720,-2630 L 55720,-1930 Z" class="l10d0" /> <path d="M 55150,-1570 L 55150,-1930 L 55650,-1930 L 55650,-1570 Z" class="l10d0" /> <path d="M 930,-930 L 930,-1570 L 1570,-1570 L 1570,-930 Z" class="l10d0" /> <path d="M 55080,-930 L 55080,-1570 L 55720,-1570 L 55720,-930 Z" class="l10d0" /> <path d="M 56150,-570 L 56150,-39230 L 56650,-39230 L 56650,-570 Z" class="l10d0" /> <path d="M -70,70 L -70,-570 L 570,-570 L 570,70 Z" class="l10d0" /> <path d="M 56080,70 L 56080,-570 L 56720,-570 L 56720,70 Z" class="l10d0" /> <path d="M 4215,-33305 L 4215,-33495 L 4405,-33495 L 4405,-33305 Z" class="l29d0" /> <path d="M 11775,-33305 L 11775,-33495 L 11965,-33495 L 11965,-33305 Z" class="l29d0" /> <path d="M 15145,-31705 L 15145,-31895 L 15335,-31895 L 15335,-31705 Z" class="l29d0" /> <path d="M 15555,-31705 L 15555,-31895 L 15745,-31895 L 15745,-31705 Z" class="l29d0" /> <path d="M 15965,-31705 L 15965,-31895 L 16155,-31895 L 16155,-31705 Z" class="l29d0" /> <path d="M 5065,-30505 L 5065,-30695 L 5255,-30695 L 5255,-30505 Z" class="l29d0" /> <path d="M 5475,-30505 L 5475,-30695 L 5665,-30695 L 5665,-30505 Z" class="l29d0" /> <path d="M 5885,-30505 L 5885,-30695 L 6075,-30695 L 6075,-30505 Z" class="l29d0" /> <path d="M 12625,-30505 L 12625,-30695 L 12815,-30695 L 12815,-30505 Z" class="l29d0" /> <path d="M 13035,-30505 L 13035,-30695 L 13225,-30695 L 13225,-30505 Z" class="l29d0" /> <path d="M 13445,-30505 L 13445,-30695 L 13635,-30695 L 13635,-30505 Z" class="l29d0" /> <path d="M 4215,-29305 L 4215,-29495 L 4405,-29495 L 4405,-29305 Z" class="l29d0" /> <path d="M 11775,-29305 L 11775,-29495 L 11965,-29495 L 11965,-29305 Z" class="l29d0" /> <path d="M 21315,-27905 L 21315,-28095 L 21505,-28095 L 21505,-27905 Z" class="l29d0" /> <path d="M 21725,-27905 L 21725,-28095 L 21915,-28095 L 21915,-27905 Z" class="l29d0" /> <path d="M 22135,-27905 L 22135,-28095 L 22325,-28095 L 22325,-27905 Z" class="l29d0" /> <path d="M 22545,-27905 L 22545,-28095 L 22735,-28095 L 22735,-27905 Z" class="l29d0" /> <path d="M 22955,-27905 L 22955,-28095 L 23145,-28095 L 23145,-27905 Z" class="l29d0" /> <path d="M 51675,-27905 L 51675,-28095 L 51865,-28095 L 51865,-27905 Z" class="l29d0" /> <path d="M 52085,-27905 L 52085,-28095 L 52275,-28095 L 52275,-27905 Z" class="l29d0" /> <path d="M 52495,-27905 L 52495,-28095 L 52685,-28095 L 52685,-27905 Z" class="l29d0" /> <path d="M 52905,-27905 L 52905,-28095 L 53095,-28095 L 53095,-27905 Z" class="l29d0" /> <path d="M 53315,-27905 L 53315,-28095 L 53505,-28095 L 53505,-27905 Z" class="l29d0" /> <path d="M 7585,-27705 L 7585,-27895 L 7775,-27895 L 7775,-27705 Z" class="l29d0" /> <path d="M 7995,-27705 L 7995,-27895 L 8185,-27895 L 8185,-27705 Z" class="l29d0" /> <path d="M 8405,-27705 L 8405,-27895 L 8595,-27895 L 8595,-27705 Z" class="l29d0" /> <path d="M 15145,-27705 L 15145,-27895 L 15335,-27895 L 15335,-27705 Z" class="l29d0" /> <path d="M 15555,-27705 L 15555,-27895 L 15745,-27895 L 15745,-27705 Z" class="l29d0" /> <path d="M 15965,-27705 L 15965,-27895 L 16155,-27895 L 16155,-27705 Z" class="l29d0" /> <path d="M 5065,-26505 L 5065,-26695 L 5255,-26695 L 5255,-26505 Z" class="l29d0" /> <path d="M 5475,-26505 L 5475,-26695 L 5665,-26695 L 5665,-26505 Z" class="l29d0" /> <path d="M 5885,-26505 L 5885,-26695 L 6075,-26695 L 6075,-26505 Z" class="l29d0" /> <path d="M 12625,-26505 L 12625,-26695 L 12815,-26695 L 12815,-26505 Z" class="l29d0" /> <path d="M 13035,-26505 L 13035,-26695 L 13225,-26695 L 13225,-26505 Z" class="l29d0" /> <path d="M 13445,-26505 L 13445,-26695 L 13635,-26695 L 13635,-26505 Z" class="l29d0" /> <path d="M 4215,-25305 L 4215,-25495 L 4405,-25495 L 4405,-25305 Z" class="l29d0" /> <path d="M 11775,-25305 L 11775,-25495 L 11965,-25495 L 11965,-25305 Z" class="l29d0" /> <path d="M 7585,-23705 L 7585,-23895 L 7775,-23895 L 7775,-23705 Z" class="l29d0" /> <path d="M 7995,-23705 L 7995,-23895 L 8185,-23895 L 8185,-23705 Z" class="l29d0" /> <path d="M 8405,-23705 L 8405,-23895 L 8595,-23895 L 8595,-23705 Z" class="l29d0" /> <path d="M 15145,-23705 L 15145,-23895 L 15335,-23895 L 15335,-23705 Z" class="l29d0" /> <path d="M 15555,-23705 L 15555,-23895 L 15745,-23895 L 15745,-23705 Z" class="l29d0" /> <path d="M 15965,-23705 L 15965,-23895 L 16155,-23895 L 16155,-23705 Z" class="l29d0" /> <path d="M 5065,-22505 L 5065,-22695 L 5255,-22695 L 5255,-22505 Z" class="l29d0" /> <path d="M 5475,-22505 L 5475,-22695 L 5665,-22695 L 5665,-22505 Z" class="l29d0" /> <path d="M 5885,-22505 L 5885,-22695 L 6075,-22695 L 6075,-22505 Z" class="l29d0" /> <path d="M 12625,-22505 L 12625,-22695 L 12815,-22695 L 12815,-22505 Z" class="l29d0" /> <path d="M 13035,-22505 L 13035,-22695 L 13225,-22695 L 13225,-22505 Z" class="l29d0" /> <path d="M 13445,-22505 L 13445,-22695 L 13635,-22695 L 13635,-22505 Z" class="l29d0" /> <path d="M 4215,-21305 L 4215,-21495 L 4405,-21495 L 4405,-21305 Z" class="l29d0" /> <path d="M 11775,-21305 L 11775,-21495 L 11965,-21495 L 11965,-21305 Z" class="l29d0" /> <path d="M 7585,-19705 L 7585,-19895 L 7775,-19895 L 7775,-19705 Z" class="l29d0" /> <path d="M 7995,-19705 L 7995,-19895 L 8185,-19895 L 8185,-19705 Z" class="l29d0" /> <path d="M 8405,-19705 L 8405,-19895 L 8595,-19895 L 8595,-19705 Z" class="l29d0" /> <path d="M 15145,-19705 L 15145,-19895 L 15335,-19895 L 15335,-19705 Z" class="l29d0" /> <path d="M 15555,-19705 L 15555,-19895 L 15745,-19895 L 15745,-19705 Z" class="l29d0" /> <path d="M 15965,-19705 L 15965,-19895 L 16155,-19895 L 16155,-19705 Z" class="l29d0" /> <path d="M 5065,-18505 L 5065,-18695 L 5255,-18695 L 5255,-18505 Z" class="l29d0" /> <path d="M 5475,-18505 L 5475,-18695 L 5665,-18695 L 5665,-18505 Z" class="l29d0" /> <path d="M 5885,-18505 L 5885,-18695 L 6075,-18695 L 6075,-18505 Z" class="l29d0" /> <path d="M 12625,-18505 L 12625,-18695 L 12815,-18695 L 12815,-18505 Z" class="l29d0" /> <path d="M 13035,-18505 L 13035,-18695 L 13225,-18695 L 13225,-18505 Z" class="l29d0" /> <path d="M 13445,-18505 L 13445,-18695 L 13635,-18695 L 13635,-18505 Z" class="l29d0" /> <path d="M 51675,-18605 L 51675,-18795 L 51865,-18795 L 51865,-18605 Z" class="l29d0" /> <path d="M 52085,-18605 L 52085,-18795 L 52275,-18795 L 52275,-18605 Z" class="l29d0" /> <path d="M 52495,-18605 L 52495,-18795 L 52685,-18795 L 52685,-18605 Z" class="l29d0" /> <path d="M 52905,-18605 L 52905,-18795 L 53095,-18795 L 53095,-18605 Z" class="l29d0" /> <path d="M 53315,-18605 L 53315,-18795 L 53505,-18795 L 53505,-18605 Z" class="l29d0" /> <path d="M 4215,-17305 L 4215,-17495 L 4405,-17495 L 4405,-17305 Z" class="l29d0" /> <path d="M 11775,-17305 L 11775,-17495 L 11965,-17495 L 11965,-17305 Z" class="l29d0" /> <path d="M 7585,-15705 L 7585,-15895 L 7775,-15895 L 7775,-15705 Z" class="l29d0" /> <path d="M 7995,-15705 L 7995,-15895 L 8185,-15895 L 8185,-15705 Z" class="l29d0" /> <path d="M 8405,-15705 L 8405,-15895 L 8595,-15895 L 8595,-15705 Z" class="l29d0" /> <path d="M 15145,-15705 L 15145,-15895 L 15335,-15895 L 15335,-15705 Z" class="l29d0" /> <path d="M 15555,-15705 L 15555,-15895 L 15745,-15895 L 15745,-15705 Z" class="l29d0" /> <path d="M 15965,-15705 L 15965,-15895 L 16155,-15895 L 16155,-15705 Z" class="l29d0" /> <path d="M 21315,-9305 L 21315,-9495 L 21505,-9495 L 21505,-9305 Z" class="l29d0" /> <path d="M 21725,-9305 L 21725,-9495 L 21915,-9495 L 21915,-9305 Z" class="l29d0" /> <path d="M 22135,-9305 L 22135,-9495 L 22325,-9495 L 22325,-9305 Z" class="l29d0" /> <path d="M 22545,-9305 L 22545,-9495 L 22735,-9495 L 22735,-9305 Z" class="l29d0" /> <path d="M 22955,-9305 L 22955,-9495 L 23145,-9495 L 23145,-9305 Z" class="l29d0" /> <path d="M 51675,-9305 L 51675,-9495 L 51865,-9495 L 51865,-9305 Z" class="l29d0" /> <path d="M 52085,-9305 L 52085,-9495 L 52275,-9495 L 52275,-9305 Z" class="l29d0" /> <path d="M 52495,-9305 L 52495,-9495 L 52685,-9495 L 52685,-9305 Z" class="l29d0" /> <path d="M 52905,-9305 L 52905,-9495 L 53095,-9495 L 53095,-9305 Z" class="l29d0" /> <path d="M 53315,-9305 L 53315,-9495 L 53505,-9495 L 53505,-9305 Z" class="l29d0" /> <path d="M 4215,-6305 L 4215,-6495 L 4405,-6495 L 4405,-6305 Z" class="l29d0" /> <path d="M 11775,-6305 L 11775,-6495 L 11965,-6495 L 11965,-6305 Z" class="l29d0" /> <path d="M 15145,-4705 L 15145,-4895 L 15335,-4895 L 15335,-4705 Z" class="l29d0" /> <path d="M 15555,-4705 L 15555,-4895 L 15745,-4895 L 15745,-4705 Z" class="l29d0" /> <path d="M 15965,-4705 L 15965,-4895 L 16155,-4895 L 16155,-4705 Z" class="l29d0" /> <path d="M 21170,-27790 L 21170,-28090 L 35240,-28090 L 35240,-27790 Z" class="l30d0" /> <path d="M 22000,-16890 L 22000,-17190 L 37320,-17190 L 37320,-16890 Z" class="l30d0" /> <path d="M 24420,-9220 L 24420,-9520 L 53650,-9520 L 53650,-9220 Z" class="l30d0" /> <path d="M 36880,-28070 L 36880,-28140 L 37320,-28140 L 37320,-28070 Z" class="l30d0" /> <path d="M 51530,-28070 L 51530,-28270 L 53650,-28270 L 53650,-28070 Z" class="l30d0" /> <path d="M 36880,-27770 L 36880,-28070 L 53650,-28070 L 53650,-27770 Z" class="l30d0" /> <path d="M 36880,-27700 L 36880,-27770 L 37320,-27770 L 37320,-27700 Z" class="l30d0" /> <path d="M 51530,-27730 L 51530,-27770 L 53650,-27770 L 53650,-27730 Z" class="l30d0" /> <path d="M 34800,-28090 L 34800,-28160 L 35240,-28160 L 35240,-28090 Z" class="l30d0" /> <path d="M 34800,-27720 L 34800,-27790 L 35240,-27790 L 35240,-27720 Z" class="l30d0" /> <path d="M 12890,-31500 L 12890,-31570 L 13330,-31570 L 13330,-31500 Z" class="l30d0" /> <path d="M 14950,-31530 L 14950,-31570 L 16350,-31570 L 16350,-31530 Z" class="l30d0" /> <path d="M 4870,-30750 L 4870,-30870 L 6270,-30870 L 6270,-30750 Z" class="l30d0" /> <path d="M 12430,-30750 L 12430,-30870 L 13830,-30870 L 13830,-30750 Z" class="l30d0" /> <path d="M 4870,-30450 L 4870,-30750 L 13830,-30750 L 13830,-30450 Z" class="l30d0" /> <path d="M 4870,-30330 L 4870,-30450 L 6270,-30450 L 6270,-30330 Z" class="l30d0" /> <path d="M 12430,-30330 L 12430,-30450 L 13830,-30450 L 13830,-30330 Z" class="l30d0" /> <path d="M 2820,-29530 L 2820,-29600 L 3260,-29600 L 3260,-29530 Z" class="l30d0" /> <path d="M 4030,-29530 L 4030,-29670 L 4590,-29670 L 4590,-29530 Z" class="l30d0" /> <path d="M 2820,-29230 L 2820,-29530 L 4590,-29530 L 4590,-29230 Z" class="l30d0" /> <path d="M 2820,-29160 L 2820,-29230 L 3260,-29230 L 3260,-29160 Z" class="l30d0" /> <path d="M 4030,-29130 L 4030,-29230 L 4590,-29230 L 4590,-29130 Z" class="l30d0" /> <path d="M 10340,-29530 L 10340,-29600 L 10780,-29600 L 10780,-29530 Z" class="l30d0" /> <path d="M 11590,-29530 L 11590,-29670 L 12150,-29670 L 12150,-29530 Z" class="l30d0" /> <path d="M 10340,-29230 L 10340,-29530 L 12150,-29530 L 12150,-29230 Z" class="l30d0" /> <path d="M 10340,-29160 L 10340,-29230 L 10780,-29230 L 10780,-29160 Z" class="l30d0" /> <path d="M 11590,-29130 L 11590,-29230 L 12150,-29230 L 12150,-29130 Z" class="l30d0" /> <path d="M 21170,-28090 L 21170,-28270 L 23290,-28270 L 23290,-28090 Z" class="l30d0" /> <path d="M 4030,-33520 L 4030,-33670 L 4590,-33670 L 4590,-33520 Z" class="l30d0" /> <path d="M 7390,-27930 L 7390,-28070 L 8790,-28070 L 8790,-27930 Z" class="l30d0" /> <path d="M 14950,-27930 L 14950,-28070 L 16350,-28070 L 16350,-27930 Z" class="l30d0" /> <path d="M 7390,-27630 L 7390,-27930 L 16350,-27930 L 16350,-27630 Z" class="l30d0" /> <path d="M 11590,-33520 L 11590,-33670 L 12150,-33670 L 12150,-33520 Z" class="l30d0" /> <path d="M 21170,-27730 L 21170,-27790 L 23290,-27790 L 23290,-27730 Z" class="l30d0" /> <path d="M 24420,-33520 L 24420,-33590 L 24860,-33590 L 24860,-33520 Z" class="l30d0" /> <path d="M 4030,-33220 L 4030,-33520 L 24860,-33520 L 24860,-33220 Z" class="l30d0" /> <path d="M 4030,-33130 L 4030,-33220 L 4590,-33220 L 4590,-33130 Z" class="l30d0" /> <path d="M 11590,-33130 L 11590,-33220 L 12150,-33220 L 12150,-33130 Z" class="l30d0" /> <path d="M 24420,-33150 L 24420,-33220 L 24860,-33220 L 24860,-33150 Z" class="l30d0" /> <path d="M 12890,-31870 L 12890,-31940 L 13330,-31940 L 13330,-31870 Z" class="l30d0" /> <path d="M 7390,-27530 L 7390,-27630 L 8790,-27630 L 8790,-27530 Z" class="l30d0" /> <path d="M 14950,-27530 L 14950,-27630 L 16350,-27630 L 16350,-27530 Z" class="l30d0" /> <path d="M 4870,-26330 L 4870,-26870 L 6270,-26870 L 6270,-26330 Z" class="l30d0" /> <path d="M 12430,-26330 L 12430,-26870 L 13830,-26870 L 13830,-26330 Z" class="l30d0" /> <path d="M 2820,-25530 L 2820,-25600 L 3260,-25600 L 3260,-25530 Z" class="l30d0" /> <path d="M 4030,-25530 L 4030,-25670 L 4590,-25670 L 4590,-25530 Z" class="l30d0" /> <path d="M 10340,-25530 L 10340,-25600 L 10780,-25600 L 10780,-25530 Z" class="l30d0" /> <path d="M 11590,-25530 L 11590,-25670 L 12150,-25670 L 12150,-25530 Z" class="l30d0" /> <path d="M 2820,-25230 L 2820,-25530 L 12150,-25530 L 12150,-25230 Z" class="l30d0" /> <path d="M 2820,-25160 L 2820,-25230 L 3260,-25230 L 3260,-25160 Z" class="l30d0" /> <path d="M 4030,-25130 L 4030,-25230 L 4590,-25230 L 4590,-25130 Z" class="l30d0" /> <path d="M 10340,-25160 L 10340,-25230 L 10780,-25230 L 10780,-25160 Z" class="l30d0" /> <path d="M 11590,-25130 L 11590,-25230 L 12150,-25230 L 12150,-25130 Z" class="l30d0" /> <path d="M 7390,-23530 L 7390,-24070 L 8790,-24070 L 8790,-23530 Z" class="l30d0" /> <path d="M 14950,-23930 L 14950,-24070 L 16350,-24070 L 16350,-23930 Z" class="l30d0" /> <path d="M 16920,-23930 L 16920,-24000 L 17360,-24000 L 17360,-23930 Z" class="l30d0" /> <path d="M 14950,-23630 L 14950,-23930 L 17360,-23930 L 17360,-23630 Z" class="l30d0" /> <path d="M 14950,-23530 L 14950,-23630 L 16350,-23630 L 16350,-23530 Z" class="l30d0" /> <path d="M 16920,-23560 L 16920,-23630 L 17360,-23630 L 17360,-23560 Z" class="l30d0" /> <path d="M 4870,-22330 L 4870,-22870 L 6270,-22870 L 6270,-22330 Z" class="l30d0" /> <path d="M 12430,-22330 L 12430,-22870 L 13830,-22870 L 13830,-22330 Z" class="l30d0" /> <path d="M 2820,-21530 L 2820,-21600 L 3260,-21600 L 3260,-21530 Z" class="l30d0" /> <path d="M 4030,-21530 L 4030,-21670 L 4590,-21670 L 4590,-21530 Z" class="l30d0" /> <path d="M 10340,-21530 L 10340,-21600 L 10780,-21600 L 10780,-21530 Z" class="l30d0" /> <path d="M 11590,-21530 L 11590,-21670 L 12150,-21670 L 12150,-21530 Z" class="l30d0" /> <path d="M 2820,-21230 L 2820,-21530 L 12150,-21530 L 12150,-21230 Z" class="l30d0" /> <path d="M 2820,-21160 L 2820,-21230 L 3260,-21230 L 3260,-21160 Z" class="l30d0" /> <path d="M 4030,-21130 L 4030,-21230 L 4590,-21230 L 4590,-21130 Z" class="l30d0" /> <path d="M 10340,-21160 L 10340,-21230 L 10780,-21230 L 10780,-21160 Z" class="l30d0" /> <path d="M 11590,-21130 L 11590,-21230 L 12150,-21230 L 12150,-21130 Z" class="l30d0" /> <path d="M 7390,-19940 L 7390,-20070 L 8790,-20070 L 8790,-19940 Z" class="l30d0" /> <path d="M 14950,-19940 L 14950,-20070 L 16350,-20070 L 16350,-19940 Z" class="l30d0" /> <path d="M 7390,-19640 L 7390,-19940 L 16350,-19940 L 16350,-19640 Z" class="l30d0" /> <path d="M 7390,-19530 L 7390,-19640 L 8790,-19640 L 8790,-19530 Z" class="l30d0" /> <path d="M 14950,-19530 L 14950,-19640 L 16350,-19640 L 16350,-19530 Z" class="l30d0" /> <path d="M 14950,-31870 L 14950,-32070 L 16350,-32070 L 16350,-31870 Z" class="l30d0" /> <path d="M 12890,-31570 L 12890,-31870 L 16350,-31870 L 16350,-31570 Z" class="l30d0" /> <path d="M 4870,-18450 L 4870,-18750 L 13830,-18750 L 13830,-18450 Z" class="l30d0" /> <path d="M 4870,-18330 L 4870,-18450 L 6270,-18450 L 6270,-18330 Z" class="l30d0" /> <path d="M 12430,-18330 L 12430,-18450 L 13830,-18450 L 13830,-18330 Z" class="l30d0" /> <path d="M 2820,-17530 L 2820,-17600 L 3260,-17600 L 3260,-17530 Z" class="l30d0" /> <path d="M 4030,-17530 L 4030,-17670 L 4590,-17670 L 4590,-17530 Z" class="l30d0" /> <path d="M 2820,-17230 L 2820,-17530 L 4590,-17530 L 4590,-17230 Z" class="l30d0" /> <path d="M 2820,-17160 L 2820,-17230 L 3260,-17230 L 3260,-17160 Z" class="l30d0" /> <path d="M 4030,-17130 L 4030,-17230 L 4590,-17230 L 4590,-17130 Z" class="l30d0" /> <path d="M 10340,-17530 L 10340,-17600 L 10780,-17600 L 10780,-17530 Z" class="l30d0" /> <path d="M 11590,-17530 L 11590,-17670 L 12150,-17670 L 12150,-17530 Z" class="l30d0" /> <path d="M 10340,-17230 L 10340,-17530 L 12150,-17530 L 12150,-17230 Z" class="l30d0" /> <path d="M 10340,-17160 L 10340,-17230 L 10780,-17230 L 10780,-17160 Z" class="l30d0" /> <path d="M 11590,-17130 L 11590,-17230 L 12150,-17230 L 12150,-17130 Z" class="l30d0" /> <path d="M 22000,-17190 L 22000,-17260 L 22440,-17260 L 22440,-17190 Z" class="l30d0" /> <path d="M 4870,-18750 L 4870,-18870 L 6270,-18870 L 6270,-18750 Z" class="l30d0" /> <path d="M 22000,-16820 L 22000,-16890 L 22440,-16890 L 22440,-16820 Z" class="l30d0" /> <path d="M 4110,-15940 L 4110,-16010 L 4550,-16010 L 4550,-15940 Z" class="l30d0" /> <path d="M 7390,-15940 L 7390,-16070 L 8790,-16070 L 8790,-15940 Z" class="l30d0" /> <path d="M 4110,-15640 L 4110,-15940 L 8790,-15940 L 8790,-15640 Z" class="l30d0" /> <path d="M 4110,-15570 L 4110,-15640 L 4550,-15640 L 4550,-15570 Z" class="l30d0" /> <path d="M 7390,-15530 L 7390,-15640 L 8790,-15640 L 8790,-15530 Z" class="l30d0" /> <path d="M 14950,-15530 L 14950,-16070 L 16350,-16070 L 16350,-15530 Z" class="l30d0" /> <path d="M 21170,-9130 L 21170,-9670 L 23290,-9670 L 23290,-9130 Z" class="l30d0" /> <path d="M 24420,-9520 L 24420,-9590 L 24860,-9590 L 24860,-9520 Z" class="l30d0" /> <path d="M 12430,-18750 L 12430,-18870 L 13830,-18870 L 13830,-18750 Z" class="l30d0" /> <path d="M 24420,-9150 L 24420,-9220 L 24860,-9220 L 24860,-9150 Z" class="l30d0" /> <path d="M 4030,-6500 L 4030,-6670 L 4590,-6670 L 4590,-6500 Z" class="l30d0" /> <path d="M 11590,-6500 L 11590,-6670 L 12150,-6670 L 12150,-6500 Z" class="l30d0" /> <path d="M 4030,-6200 L 4030,-6500 L 12150,-6500 L 12150,-6200 Z" class="l30d0" /> <path d="M 4030,-6130 L 4030,-6200 L 4590,-6200 L 4590,-6130 Z" class="l30d0" /> <path d="M 11590,-6130 L 11590,-6200 L 12150,-6200 L 12150,-6130 Z" class="l30d0" /> <path d="M 14950,-4890 L 14950,-5070 L 16350,-5070 L 16350,-4890 Z" class="l30d0" /> <path d="M 16920,-4890 L 16920,-4960 L 17360,-4960 L 17360,-4890 Z" class="l30d0" /> <path d="M 14950,-4590 L 14950,-4890 L 17360,-4890 L 17360,-4590 Z" class="l30d0" /> <path d="M 14950,-4530 L 14950,-4590 L 16350,-4590 L 16350,-4530 Z" class="l30d0" /> <path d="M 16920,-4520 L 16920,-4590 L 17360,-4590 L 17360,-4520 Z" class="l30d0" /> <path d="M 51530,-18810 L 51530,-18970 L 53650,-18970 L 53650,-18810 Z" class="l30d0" /> <path d="M 34800,-18510 L 34800,-18810 L 53650,-18810 L 53650,-18510 Z" class="l30d0" /> <path d="M 36880,-16820 L 36880,-16890 L 37320,-16890 L 37320,-16820 Z" class="l30d0" /> <path d="M 34800,-18440 L 34800,-18510 L 35240,-18510 L 35240,-18440 Z" class="l30d0" /> <path d="M 51530,-9520 L 51530,-9670 L 53650,-9670 L 53650,-9520 Z" class="l30d0" /> <path d="M 51530,-18430 L 51530,-18510 L 53650,-18510 L 53650,-18430 Z" class="l30d0" /> <path d="M 34800,-18810 L 34800,-18880 L 35240,-18880 L 35240,-18810 Z" class="l30d0" /> <path d="M 51530,-9130 L 51530,-9220 L 53650,-9220 L 53650,-9130 Z" class="l30d0" /> <path d="M 36880,-17190 L 36880,-17260 L 37320,-17260 L 37320,-17190 Z" class="l30d0" /> <path d="M 24545,-33275 L 24545,-33465 L 24735,-33465 L 24735,-33275 Z" class="l49d0" /> <path d="M 13015,-31625 L 13015,-31815 L 13205,-31815 L 13205,-31625 Z" class="l49d0" /> <path d="M 5065,-30505 L 5065,-30695 L 5255,-30695 L 5255,-30505 Z" class="l49d0" /> <path d="M 5475,-30505 L 5475,-30695 L 5665,-30695 L 5665,-30505 Z" class="l49d0" /> <path d="M 5885,-30505 L 5885,-30695 L 6075,-30695 L 6075,-30505 Z" class="l49d0" /> <path d="M 12625,-30505 L 12625,-30695 L 12815,-30695 L 12815,-30505 Z" class="l49d0" /> <path d="M 13035,-30505 L 13035,-30695 L 13225,-30695 L 13225,-30505 Z" class="l49d0" /> <path d="M 13445,-30505 L 13445,-30695 L 13635,-30695 L 13635,-30505 Z" class="l49d0" /> <path d="M 2945,-29285 L 2945,-29475 L 3135,-29475 L 3135,-29285 Z" class="l49d0" /> <path d="M 10465,-29285 L 10465,-29475 L 10655,-29475 L 10655,-29285 Z" class="l49d0" /> <path d="M 7585,-27705 L 7585,-27895 L 7775,-27895 L 7775,-27705 Z" class="l49d0" /> <path d="M 7995,-27705 L 7995,-27895 L 8185,-27895 L 8185,-27705 Z" class="l49d0" /> <path d="M 8405,-27705 L 8405,-27895 L 8595,-27895 L 8595,-27705 Z" class="l49d0" /> <path d="M 15145,-27705 L 15145,-27895 L 15335,-27895 L 15335,-27705 Z" class="l49d0" /> <path d="M 15555,-27705 L 15555,-27895 L 15745,-27895 L 15745,-27705 Z" class="l49d0" /> <path d="M 15965,-27705 L 15965,-27895 L 16155,-27895 L 16155,-27705 Z" class="l49d0" /> <path d="M 34925,-27845 L 34925,-28035 L 35115,-28035 L 35115,-27845 Z" class="l49d0" /> <path d="M 37005,-27825 L 37005,-28015 L 37195,-28015 L 37195,-27825 Z" class="l49d0" /> <path d="M 5065,-26505 L 5065,-26695 L 5255,-26695 L 5255,-26505 Z" class="l49d0" /> <path d="M 5475,-26505 L 5475,-26695 L 5665,-26695 L 5665,-26505 Z" class="l49d0" /> <path d="M 5885,-26505 L 5885,-26695 L 6075,-26695 L 6075,-26505 Z" class="l49d0" /> <path d="M 12625,-26505 L 12625,-26695 L 12815,-26695 L 12815,-26505 Z" class="l49d0" /> <path d="M 13035,-26505 L 13035,-26695 L 13225,-26695 L 13225,-26505 Z" class="l49d0" /> <path d="M 13445,-26505 L 13445,-26695 L 13635,-26695 L 13635,-26505 Z" class="l49d0" /> <path d="M 2945,-25285 L 2945,-25475 L 3135,-25475 L 3135,-25285 Z" class="l49d0" /> <path d="M 10465,-25285 L 10465,-25475 L 10655,-25475 L 10655,-25285 Z" class="l49d0" /> <path d="M 7585,-23705 L 7585,-23895 L 7775,-23895 L 7775,-23705 Z" class="l49d0" /> <path d="M 7995,-23705 L 7995,-23895 L 8185,-23895 L 8185,-23705 Z" class="l49d0" /> <path d="M 8405,-23705 L 8405,-23895 L 8595,-23895 L 8595,-23705 Z" class="l49d0" /> <path d="M 15145,-23705 L 15145,-23895 L 15335,-23895 L 15335,-23705 Z" class="l49d0" /> <path d="M 15555,-23705 L 15555,-23895 L 15745,-23895 L 15745,-23705 Z" class="l49d0" /> <path d="M 15965,-23705 L 15965,-23895 L 16155,-23895 L 16155,-23705 Z" class="l49d0" /> <path d="M 17045,-23685 L 17045,-23875 L 17235,-23875 L 17235,-23685 Z" class="l49d0" /> <path d="M 5065,-22505 L 5065,-22695 L 5255,-22695 L 5255,-22505 Z" class="l49d0" /> <path d="M 5475,-22505 L 5475,-22695 L 5665,-22695 L 5665,-22505 Z" class="l49d0" /> <path d="M 5885,-22505 L 5885,-22695 L 6075,-22695 L 6075,-22505 Z" class="l49d0" /> <path d="M 12625,-22505 L 12625,-22695 L 12815,-22695 L 12815,-22505 Z" class="l49d0" /> <path d="M 13035,-22505 L 13035,-22695 L 13225,-22695 L 13225,-22505 Z" class="l49d0" /> <path d="M 13445,-22505 L 13445,-22695 L 13635,-22695 L 13635,-22505 Z" class="l49d0" /> <path d="M 2945,-21285 L 2945,-21475 L 3135,-21475 L 3135,-21285 Z" class="l49d0" /> <path d="M 10465,-21285 L 10465,-21475 L 10655,-21475 L 10655,-21285 Z" class="l49d0" /> <path d="M 7585,-19705 L 7585,-19895 L 7775,-19895 L 7775,-19705 Z" class="l49d0" /> <path d="M 7995,-19705 L 7995,-19895 L 8185,-19895 L 8185,-19705 Z" class="l49d0" /> <path d="M 8405,-19705 L 8405,-19895 L 8595,-19895 L 8595,-19705 Z" class="l49d0" /> <path d="M 15145,-19705 L 15145,-19895 L 15335,-19895 L 15335,-19705 Z" class="l49d0" /> <path d="M 15555,-19705 L 15555,-19895 L 15745,-19895 L 15745,-19705 Z" class="l49d0" /> <path d="M 15965,-19705 L 15965,-19895 L 16155,-19895 L 16155,-19705 Z" class="l49d0" /> <path d="M 5065,-18505 L 5065,-18695 L 5255,-18695 L 5255,-18505 Z" class="l49d0" /> <path d="M 5475,-18505 L 5475,-18695 L 5665,-18695 L 5665,-18505 Z" class="l49d0" /> <path d="M 5885,-18505 L 5885,-18695 L 6075,-18695 L 6075,-18505 Z" class="l49d0" /> <path d="M 12625,-18505 L 12625,-18695 L 12815,-18695 L 12815,-18505 Z" class="l49d0" /> <path d="M 13035,-18505 L 13035,-18695 L 13225,-18695 L 13225,-18505 Z" class="l49d0" /> <path d="M 13445,-18505 L 13445,-18695 L 13635,-18695 L 13635,-18505 Z" class="l49d0" /> <path d="M 34925,-18565 L 34925,-18755 L 35115,-18755 L 35115,-18565 Z" class="l49d0" /> <path d="M 2945,-17285 L 2945,-17475 L 3135,-17475 L 3135,-17285 Z" class="l49d0" /> <path d="M 10465,-17285 L 10465,-17475 L 10655,-17475 L 10655,-17285 Z" class="l49d0" /> <path d="M 22125,-16945 L 22125,-17135 L 22315,-17135 L 22315,-16945 Z" class="l49d0" /> <path d="M 37005,-16945 L 37005,-17135 L 37195,-17135 L 37195,-16945 Z" class="l49d0" /> <path d="M 4235,-15695 L 4235,-15885 L 4425,-15885 L 4425,-15695 Z" class="l49d0" /> <path d="M 7585,-15705 L 7585,-15895 L 7775,-15895 L 7775,-15705 Z" class="l49d0" /> <path d="M 7995,-15705 L 7995,-15895 L 8185,-15895 L 8185,-15705 Z" class="l49d0" /> <path d="M 8405,-15705 L 8405,-15895 L 8595,-15895 L 8595,-15705 Z" class="l49d0" /> <path d="M 15145,-15705 L 15145,-15895 L 15335,-15895 L 15335,-15705 Z" class="l49d0" /> <path d="M 15555,-15705 L 15555,-15895 L 15745,-15895 L 15745,-15705 Z" class="l49d0" /> <path d="M 15965,-15705 L 15965,-15895 L 16155,-15895 L 16155,-15705 Z" class="l49d0" /> <path d="M 21315,-9305 L 21315,-9495 L 21505,-9495 L 21505,-9305 Z" class="l49d0" /> <path d="M 21725,-9305 L 21725,-9495 L 21915,-9495 L 21915,-9305 Z" class="l49d0" /> <path d="M 22135,-9305 L 22135,-9495 L 22325,-9495 L 22325,-9305 Z" class="l49d0" /> <path d="M 22545,-9305 L 22545,-9495 L 22735,-9495 L 22735,-9305 Z" class="l49d0" /> <path d="M 22955,-9305 L 22955,-9495 L 23145,-9495 L 23145,-9305 Z" class="l49d0" /> <path d="M 24545,-9275 L 24545,-9465 L 24735,-9465 L 24735,-9275 Z" class="l49d0" /> <path d="M 4215,-6305 L 4215,-6495 L 4405,-6495 L 4405,-6305 Z" class="l49d0" /> <path d="M 17045,-4645 L 17045,-4835 L 17235,-4835 L 17235,-4645 Z" class="l49d0" /> <path d="M 24420,-33150 L 24420,-33590 L 24860,-33590 L 24860,-33150 Z" class="l50d0" /> <path d="M 12890,-31500 L 12890,-31940 L 13330,-31940 L 13330,-31500 Z" class="l50d0" /> <path d="M 12960,-30870 L 12960,-31500 L 13260,-31500 L 13260,-30870 Z" class="l50d0" /> <path d="M 4870,-30330 L 4870,-30870 L 6270,-30870 L 6270,-30330 Z" class="l50d0" /> <path d="M 12430,-30330 L 12430,-30870 L 13830,-30870 L 13830,-30330 Z" class="l50d0" /> <path d="M 2820,-29160 L 2820,-29600 L 3260,-29600 L 3260,-29160 Z" class="l50d0" /> <path d="M 2890,-25600 L 2890,-29160 L 3190,-29160 L 3190,-25600 Z" class="l50d0" /> <path d="M 5440,-26870 L 5440,-30330 L 5740,-30330 L 5740,-26870 Z" class="l50d0" /> <path d="M 10340,-29160 L 10340,-29600 L 10780,-29600 L 10780,-29160 Z" class="l50d0" /> <path d="M 7390,-27530 L 7390,-28070 L 8790,-28070 L 8790,-27530 Z" class="l50d0" /> <path d="M 4870,-26330 L 4870,-26870 L 6270,-26870 L 6270,-26330 Z" class="l50d0" /> <path d="M 2820,-25160 L 2820,-25600 L 3260,-25600 L 3260,-25160 Z" class="l50d0" /> <path d="M 5440,-22870 L 5440,-26330 L 5740,-26330 L 5740,-22870 Z" class="l50d0" /> <path d="M 7870,-24070 L 7870,-27530 L 8170,-27530 L 8170,-24070 Z" class="l50d0" /> <path d="M 10410,-25600 L 10410,-29160 L 10710,-29160 L 10710,-25600 Z" class="l50d0" /> <path d="M 12960,-26870 L 12960,-30330 L 13260,-30330 L 13260,-26870 Z" class="l50d0" /> <path d="M 14950,-27530 L 14950,-28070 L 16350,-28070 L 16350,-27530 Z" class="l50d0" /> <path d="M 12430,-26330 L 12430,-26870 L 13830,-26870 L 13830,-26330 Z" class="l50d0" /> <path d="M 10340,-25160 L 10340,-25600 L 10780,-25600 L 10780,-25160 Z" class="l50d0" /> <path d="M 15550,-24070 L 15550,-27530 L 15850,-27530 L 15850,-24070 Z" class="l50d0" /> <path d="M 7390,-23530 L 7390,-24070 L 8790,-24070 L 8790,-23530 Z" class="l50d0" /> <path d="M 14950,-23530 L 14950,-24070 L 16350,-24070 L 16350,-23530 Z" class="l50d0" /> <path d="M 16920,-23560 L 16920,-24000 L 17360,-24000 L 17360,-23560 Z" class="l50d0" /> <path d="M 4870,-22330 L 4870,-22870 L 6270,-22870 L 6270,-22330 Z" class="l50d0" /> <path d="M 12430,-22330 L 12430,-22870 L 13830,-22870 L 13830,-22330 Z" class="l50d0" /> <path d="M 2820,-21160 L 2820,-21600 L 3260,-21600 L 3260,-21160 Z" class="l50d0" /> <path d="M 2890,-17600 L 2890,-21160 L 3190,-21160 L 3190,-17600 Z" class="l50d0" /> <path d="M 5440,-18870 L 5440,-22330 L 5740,-22330 L 5740,-18870 Z" class="l50d0" /> <path d="M 10340,-21160 L 10340,-21600 L 10780,-21600 L 10780,-21160 Z" class="l50d0" /> <path d="M 7390,-19530 L 7390,-20070 L 8790,-20070 L 8790,-19530 Z" class="l50d0" /> <path d="M 4870,-18330 L 4870,-18870 L 6270,-18870 L 6270,-18330 Z" class="l50d0" /> <path d="M 2820,-17160 L 2820,-17600 L 3260,-17600 L 3260,-17160 Z" class="l50d0" /> <path d="M 7860,-16070 L 7860,-19530 L 8160,-19530 L 8160,-16070 Z" class="l50d0" /> <path d="M 10410,-17600 L 10410,-21160 L 10710,-21160 L 10710,-17600 Z" class="l50d0" /> <path d="M 12960,-18870 L 12960,-22330 L 13260,-22330 L 13260,-18870 Z" class="l50d0" /> <path d="M 14950,-19530 L 14950,-20070 L 16350,-20070 L 16350,-19530 Z" class="l50d0" /> <path d="M 12430,-18330 L 12430,-18870 L 13830,-18870 L 13830,-18330 Z" class="l50d0" /> <path d="M 10340,-17160 L 10340,-17600 L 10780,-17600 L 10780,-17160 Z" class="l50d0" /> <path d="M 15540,-16070 L 15540,-19530 L 15840,-19530 L 15840,-16070 Z" class="l50d0" /> <path d="M 4110,-15570 L 4110,-16010 L 4550,-16010 L 4550,-15570 Z" class="l50d0" /> <path d="M 4180,-6670 L 4180,-15570 L 4480,-15570 L 4480,-6670 Z" class="l50d0" /> <path d="M 7390,-15530 L 7390,-16070 L 8790,-16070 L 8790,-15530 Z" class="l50d0" /> <path d="M 14950,-15530 L 14950,-16070 L 16350,-16070 L 16350,-15530 Z" class="l50d0" /> <path d="M 4030,-6130 L 4030,-6670 L 4590,-6670 L 4590,-6130 Z" class="l50d0" /> <path d="M 16990,-4960 L 16990,-23560 L 17290,-23560 L 17290,-4960 Z" class="l50d0" /> <path d="M 22000,-16820 L 22000,-17260 L 22440,-17260 L 22440,-16820 Z" class="l50d0" /> <path d="M 22070,-9670 L 22070,-16820 L 22370,-16820 L 22370,-9670 Z" class="l50d0" /> <path d="M 21170,-9130 L 21170,-9670 L 23290,-9670 L 23290,-9130 Z" class="l50d0" /> <path d="M 24490,-9590 L 24490,-33150 L 24790,-33150 L 24790,-9590 Z" class="l50d0" /> <path d="M 34800,-27720 L 34800,-28160 L 35240,-28160 L 35240,-27720 Z" class="l50d0" /> <path d="M 34870,-18880 L 34870,-27720 L 35170,-27720 L 35170,-18880 Z" class="l50d0" /> <path d="M 36880,-27700 L 36880,-28140 L 37320,-28140 L 37320,-27700 Z" class="l50d0" /> <path d="M 34800,-18440 L 34800,-18880 L 35240,-18880 L 35240,-18440 Z" class="l50d0" /> <path d="M 36950,-17260 L 36950,-27700 L 37250,-27700 L 37250,-17260 Z" class="l50d0" /> <path d="M 36880,-16820 L 36880,-17260 L 37320,-17260 L 37320,-16820 Z" class="l50d0" /> <path d="M 24420,-9150 L 24420,-9590 L 24860,-9590 L 24860,-9150 Z" class="l50d0" /> <path d="M 16920,-4520 L 16920,-4960 L 17360,-4960 L 17360,-4520 Z" class="l50d0" /> <path d="M 10410,-17230 L 10410,-17530 L 11840,-17530 L 11840,-17230 Z" class="l30d2" /> <path d="M 2890,-29230 L 2890,-29530 L 4320,-29530 L 4320,-29230 Z" class="l30d2" /> <path d="M 15700,-4590 L 15700,-4890 L 17290,-4890 L 17290,-4590 Z" class="l30d2" /> <rect x="20140" y="-10830" width="34540" height="8860" class="l999d0" /> <text x="37410.0" y="-6400.0" class="l998t0" text-anchor="middle" alignment-baseline="middle">bs1_RH1</text> <rect x="20140" y="-29430" width="34540" height="8860" class="l999d0" /> <text x="37410.0" y="-25000.0" class="l998t0" text-anchor="middle" alignment-baseline="middle">bs1_RH2</text> <rect x="20140" y="-20130" width="34540" height="8860" class="l999d0" /> <text x="37410.0" y="-15700.0" class="l998t0" text-anchor="middle" alignment-baseline="middle">bs1_RH3</text> <rect x="2390" y="-4630" width="8880" height="2630" class="l999d0" /> <text x="6830.0" y="-3315.0" class="l998t0" text-anchor="middle" alignment-baseline="middle">mr2_MN1_BE</text> <rect x="9950" y="-4630" width="8880" height="2630" class="l999d0" /> <text x="14390.0" y="-3315.0" class="l998t0" text-anchor="middle" alignment-baseline="middle">mr2_MN2_BE</text> <rect x="2390" y="-10800" width="8880" height="2630" class="l999d0" /> <text x="6830.0" y="-9485.0" class="l998t0" text-anchor="middle" alignment-baseline="middle">mr2_MN1_TE</text> <rect x="9950" y="-10800" width="8880" height="2630" class="l999d0" /> <text x="14390.0" y="-9485.0" class="l998t0" text-anchor="middle" alignment-baseline="middle">mr2_MN2_TE</text> <rect x="2390" y="-8630" width="8880" height="4460" class="l999d0" /> <text x="6830.0" y="-6400.0" class="l998t0" text-anchor="middle" alignment-baseline="middle">mr2_MN1</text> <rect x="9950" y="-8630" width="8880" height="4460" class="l999d0" /> <text x="14390.0" y="-6400.0" class="l998t0" text-anchor="middle" alignment-baseline="middle">mr2_MN2</text> <rect x="9560" y="-38420" width="9660" height="3640" class="l999d0" /> <text x="14390.0" y="-36600.0" class="l998t0" text-anchor="middle" alignment-baseline="middle">mr1_MP2_TE</text> <rect x="2000" y="-38420" width="9660" height="3640" class="l999d0" /> <text x="6830.0" y="-36600.0" class="l998t0" text-anchor="middle" alignment-baseline="middle">mr1_MP1_TE</text> <rect x="2000" y="-20020" width="9660" height="5240" class="l999d0" /> <text x="6830.0" y="-17400.0" class="l998t0" text-anchor="middle" alignment-baseline="middle">df1_MP3&lt;3&gt;</text> <rect x="9560" y="-20020" width="9660" height="5240" class="l999d0" /> <text x="14390.0" y="-17400.0" class="l998t0" text-anchor="middle" alignment-baseline="middle">df1_MP3&lt;2&gt;</text> <rect x="2000" y="-24020" width="9660" height="5240" class="l999d0" /> <text x="6830.0" y="-21400.0" class="l998t0" text-anchor="middle" alignment-baseline="middle">df1_MP3&lt;1&gt;</text> <rect x="9560" y="-24020" width="9660" height="5240" class="l999d0" /> <text x="14390.0" y="-21400.0" class="l998t0" text-anchor="middle" alignment-baseline="middle">df1_MP3&lt;0&gt;</text> <rect x="9560" y="-32020" width="9660" height="5240" class="l999d0" /> <text x="14390.0" y="-29400.0" class="l998t0" text-anchor="middle" alignment-baseline="middle">df1_MP4&lt;3&gt;</text> <rect x="2000" y="-32020" width="9660" height="5240" class="l999d0" /> <text x="6830.0" y="-29400.0" class="l998t0" text-anchor="middle" alignment-baseline="middle">df1_MP4&lt;2&gt;</text> <rect x="2000" y="-28020" width="9660" height="5240" class="l999d0" /> <text x="6830.0" y="-25400.0" class="l998t0" text-anchor="middle" alignment-baseline="middle">df1_MP4&lt;1&gt;</text> <rect x="9560" y="-28020" width="9660" height="5240" class="l999d0" /> <text x="14390.0" y="-25400.0" class="l998t0" text-anchor="middle" alignment-baseline="middle">df1_MP4&lt;0&gt;</text> <rect x="9560" y="-36020" width="9660" height="5240" class="l999d0" /> <text x="14390.0" y="-33400.0" class="l998t0" text-anchor="middle" alignment-baseline="middle">mr1_MP2</text> <rect x="2000" y="-36020" width="9660" height="5240" class="l999d0" /> <text x="6830.0" y="-33400.0" class="l998t0" text-anchor="middle" alignment-baseline="middle">mr1_MP1</text> <rect x="2000" y="-16020" width="9660" height="3640" class="l999d0" /> <text x="6830.0" y="-14200.0" class="l998t0" text-anchor="middle" alignment-baseline="middle">df1_MP3&lt;3&gt;_BE</text> <rect x="9560" y="-16020" width="9660" height="3640" class="l999d0" /> <text x="14390.0" y="-14200.0" class="l998t0" text-anchor="middle" alignment-baseline="middle">df1_MP3&lt;2&gt;_BE</text> <text x="28325" y="-39310" class="l997t0" text-anchor="middle" alignment-baseline="central">VDD</text> <text x="28325" y="-38310" class="l997t0" text-anchor="middle" alignment-baseline="central">VSS</text> <text x="11125" y="-17140" class="l997t0" text-anchor="middle" alignment-baseline="central">IN+</text> <text x="3605" y="-29140" class="l997t0" text-anchor="middle" alignment-baseline="central">IN-</text> <text x="16495" y="-4500" class="l997t0" text-anchor="middle" alignment-baseline="central">OUT</text> <text x="730" y="785.0" font-size="900" fill="black" alignment-baseline="middle">Metal1</text> <rect x="30" y="370" width="400" height="400" fill="#56423e" stroke="black" stroke-width="2" /> <text x="6230" y="785.0" font-size="900" fill="black" alignment-baseline="middle">Metal2</text> <rect x="5530" y="370" width="400" height="400" fill="#bea6a1" stroke="black" stroke-width="2" /> <text x="11730" y="785.0" font-size="900" fill="black" alignment-baseline="middle">Metal3</text> <rect x="11030" y="370" width="400" height="400" fill="#d62728" stroke="black" stroke-width="2" /> <text x="17230" y="785.0" font-size="900" fill="black" alignment-baseline="middle">Metal4</text> <rect x="16530" y="370" width="400" height="400" fill="#1f77b4" stroke="black" stroke-width="2" /> <text x="22730" y="785.0" font-size="900" fill="black" alignment-baseline="middle">Via1</text> <rect x="22030" y="370" width="400" height="400" fill="#e09a8e" stroke="black" stroke-width="2" /> <text x="28230" y="785.0" font-size="900" fill="black" alignment-baseline="middle">Via2</text> <rect x="27530" y="370" width="400" height="400" fill="#e39024" stroke="black" stroke-width="2" /> <text x="33730" y="785.0" font-size="900" fill="black" alignment-baseline="middle">Via3</text> <rect x="33030" y="370" width="400" height="400" fill="#70b512" stroke="black" stroke-width="2" /> <line x1="-70" y1="-40370" x2="56720" y2="-40370" stroke="black" stroke-width="50" marker-start="url(#arrowhead_reversed)" marker-end="url(#arrowhead)" /> <text x="28325.0" y="-40550" font-size="900" fill="black" text-anchor="middle">56.79 m</text> <line x1="57230" y1="-70" x2="57230" y2="-39870" stroke="black" stroke-width="50" marker-start="url(#arrowhead_reversed)" marker-end="url(#arrowhead)" /> <text x="57410" y="-19900.0" font-size="900" fill="black" text-anchor="middle" transform="rotate(90 57410,-19900.0)">39.94 m</text>
            </g>
        </svg>
        